G04*
G04 #@! TF.GenerationSoftware,Altium Limited,Altium Designer,24.2.2 (26)*
G04*
G04 Layer_Color=8421504*
%FSLAX44Y44*%
%MOMM*%
G71*
G04*
G04 #@! TF.SameCoordinates,B068D502-1A3C-4B1D-835D-C910CB385D68*
G04*
G04*
G04 #@! TF.FilePolarity,Positive*
G04*
G01*
G75*
%ADD21C,0.1000*%
%ADD22R,4.9000X5.8500*%
%ADD23R,1.0000X2.1000*%
G04:AMPARAMS|DCode=24|XSize=1.21mm|YSize=0.59mm|CornerRadius=0.1475mm|HoleSize=0mm|Usage=FLASHONLY|Rotation=0.000|XOffset=0mm|YOffset=0mm|HoleType=Round|Shape=RoundedRectangle|*
%AMROUNDEDRECTD24*
21,1,1.2100,0.2950,0,0,0.0*
21,1,0.9150,0.5900,0,0,0.0*
1,1,0.2950,0.4575,-0.1475*
1,1,0.2950,-0.4575,-0.1475*
1,1,0.2950,-0.4575,0.1475*
1,1,0.2950,0.4575,0.1475*
%
%ADD24ROUNDEDRECTD24*%
%ADD25R,0.6000X0.6400*%
%ADD26R,0.8500X0.9500*%
%ADD27R,2.2860X0.5080*%
%ADD28R,0.9000X0.8000*%
%ADD29R,1.6500X0.6500*%
%ADD30R,1.0000X0.5000*%
%ADD31R,1.4000X1.3000*%
%ADD32R,7.0000X0.5000*%
%ADD33R,1.0000X0.9000*%
%ADD34R,0.5000X0.6000*%
%ADD35R,1.7500X0.6500*%
G36*
X1444260Y997350D02*
X1433260D01*
X1432260Y1000350D01*
X1429260Y1003350D01*
X1428260Y1005350D01*
X1425260Y1007350D01*
X1422260Y1009350D01*
X1418260Y1011350D01*
X1415260Y1012350D01*
X1411260Y1013350D01*
X1405260D01*
X1401260Y1012350D01*
X1398260Y1011350D01*
X1394260Y1009350D01*
X1391260Y1007350D01*
X1388260Y1005350D01*
X1387260Y1003350D01*
X1384260Y1000350D01*
X1383260Y997350D01*
X1372260D01*
Y1022350D01*
X1444260D01*
Y997350D01*
D02*
G37*
G36*
Y950350D02*
X1372260D01*
Y975350D01*
X1383260D01*
X1384260Y972350D01*
X1387260Y969350D01*
X1388260Y967350D01*
X1391260Y965350D01*
X1394260Y963350D01*
X1398260Y961350D01*
X1401260Y960350D01*
X1405260Y959350D01*
X1411260D01*
X1415260Y960350D01*
X1418260Y961350D01*
X1422260Y963350D01*
X1425260Y965350D01*
X1428260Y967350D01*
X1429260Y969350D01*
X1432260Y972350D01*
X1433260Y975350D01*
X1444260D01*
Y950350D01*
D02*
G37*
D21*
X1433260Y997350D02*
G03*
X1408260Y1013663I-25000J-11000D01*
G01*
D02*
G03*
X1383260Y997350I0J-27313D01*
G01*
Y975350D02*
G03*
X1408260Y959037I25000J11000D01*
G01*
D02*
G03*
X1433260Y975350I0J27313D01*
G01*
X1433260Y997350D02*
X1443760D01*
X1372760D02*
X1383260D01*
X1372760Y975350D02*
X1383260D01*
X1433260D02*
X1443760D01*
D22*
X753620Y1073430D02*
D03*
D23*
X730820Y1141430D02*
D03*
X776420D02*
D03*
D24*
X1292710Y1431900D02*
D03*
Y1412900D02*
D03*
X1267610D02*
D03*
Y1422400D02*
D03*
Y1431900D02*
D03*
X1292710Y1472540D02*
D03*
Y1453540D02*
D03*
X1267610D02*
D03*
Y1463040D02*
D03*
Y1472540D02*
D03*
D25*
X1003280Y1047450D02*
D03*
X1012080Y1047450D02*
D03*
X1002600Y1095710D02*
D03*
X1011400D02*
D03*
X829880Y1136350D02*
D03*
X821080D02*
D03*
X829880Y1121110D02*
D03*
X821080Y1121110D02*
D03*
X829880Y1072850D02*
D03*
X821080Y1072850D02*
D03*
X829880Y1032210D02*
D03*
X821080D02*
D03*
X834960Y928070D02*
D03*
X826160D02*
D03*
X1005140Y1286210D02*
D03*
X1013940D02*
D03*
X1005140Y1334470D02*
D03*
X1013940D02*
D03*
X834960Y1375110D02*
D03*
X826160D02*
D03*
X834960Y1359870D02*
D03*
X826160D02*
D03*
X834960Y1311610D02*
D03*
X826160D02*
D03*
X834960Y1273510D02*
D03*
X826160D02*
D03*
X834960Y1166830D02*
D03*
X826160D02*
D03*
D26*
X812100Y1263350D02*
D03*
X799100Y1263350D02*
D03*
X1088960Y1240490D02*
D03*
X1101960Y1240490D02*
D03*
X732940Y1353820D02*
D03*
X719940D02*
D03*
X721360Y1297940D02*
D03*
X734360Y1297940D02*
D03*
X722480Y1224280D02*
D03*
X735480D02*
D03*
D27*
X976010Y944210D02*
D03*
X859010Y960210D02*
D03*
Y1016210D02*
D03*
X976010Y968210D02*
D03*
X859010D02*
D03*
Y1064210D02*
D03*
X976010Y1056210D02*
D03*
X859010Y1008210D02*
D03*
Y936210D02*
D03*
X976010Y1128210D02*
D03*
X859010Y1024210D02*
D03*
Y952210D02*
D03*
Y1000210D02*
D03*
X976010Y952210D02*
D03*
X859010Y1056210D02*
D03*
X976010Y1064210D02*
D03*
Y1136210D02*
D03*
X859010Y1096210D02*
D03*
X976010Y1120210D02*
D03*
X859010Y1048210D02*
D03*
X976010Y1072210D02*
D03*
Y1032210D02*
D03*
Y928210D02*
D03*
Y1000210D02*
D03*
Y936210D02*
D03*
Y976210D02*
D03*
X859010Y1040210D02*
D03*
X976010Y1080210D02*
D03*
X859010Y1128210D02*
D03*
Y1112210D02*
D03*
Y1088210D02*
D03*
Y984210D02*
D03*
Y992210D02*
D03*
X976010Y960210D02*
D03*
Y984210D02*
D03*
X859010Y1080210D02*
D03*
X976010Y1040210D02*
D03*
Y1088210D02*
D03*
X859010Y1104210D02*
D03*
X976010Y1016210D02*
D03*
X859010Y944210D02*
D03*
X976010Y1112210D02*
D03*
X859010Y976210D02*
D03*
X976010Y1008210D02*
D03*
X859010Y1120210D02*
D03*
Y1136210D02*
D03*
Y1072210D02*
D03*
Y1032210D02*
D03*
Y928210D02*
D03*
X976010Y1096210D02*
D03*
Y1048210D02*
D03*
Y1104210D02*
D03*
Y1024210D02*
D03*
Y992210D02*
D03*
X977200Y1230830D02*
D03*
Y1262830D02*
D03*
Y1342830D02*
D03*
Y1286830D02*
D03*
Y1334830D02*
D03*
X860200Y1166830D02*
D03*
Y1270830D02*
D03*
Y1310830D02*
D03*
Y1374830D02*
D03*
Y1358830D02*
D03*
X977200Y1246830D02*
D03*
X860200Y1214830D02*
D03*
X977200Y1350830D02*
D03*
X860200Y1182830D02*
D03*
X977200Y1254830D02*
D03*
X860200Y1342830D02*
D03*
X977200Y1326830D02*
D03*
Y1278830D02*
D03*
X860200Y1318830D02*
D03*
X977200Y1222830D02*
D03*
Y1198830D02*
D03*
X860200Y1230830D02*
D03*
Y1222830D02*
D03*
Y1326830D02*
D03*
Y1350830D02*
D03*
Y1366830D02*
D03*
X977200Y1318830D02*
D03*
X860200Y1278830D02*
D03*
X977200Y1214830D02*
D03*
Y1174830D02*
D03*
Y1238830D02*
D03*
Y1166830D02*
D03*
Y1270830D02*
D03*
Y1310830D02*
D03*
X860200Y1286830D02*
D03*
X977200Y1358830D02*
D03*
X860200Y1334830D02*
D03*
X977200Y1374830D02*
D03*
Y1302830D02*
D03*
X860200Y1294830D02*
D03*
X977200Y1190830D02*
D03*
X860200Y1238830D02*
D03*
Y1190830D02*
D03*
Y1262830D02*
D03*
X977200Y1366830D02*
D03*
X860200Y1174830D02*
D03*
Y1246830D02*
D03*
X977200Y1294830D02*
D03*
X860200Y1302830D02*
D03*
Y1206830D02*
D03*
X977200D02*
D03*
X860200Y1254830D02*
D03*
Y1198830D02*
D03*
X977200Y1182830D02*
D03*
D28*
X718980Y1335380D02*
D03*
Y1316380D02*
D03*
X738980Y1325880D02*
D03*
X736600Y1242060D02*
D03*
Y1261060D02*
D03*
X716600Y1251560D02*
D03*
D29*
X881120Y787100D02*
D03*
Y799800D02*
D03*
Y812500D02*
D03*
Y825200D02*
D03*
X809120D02*
D03*
Y812500D02*
D03*
Y799800D02*
D03*
Y787100D02*
D03*
D30*
X754380Y1158240D02*
D03*
Y1151240D02*
D03*
D31*
X799400Y1068530D02*
D03*
Y1052530D02*
D03*
X707960Y1115270D02*
D03*
X707960Y1131270D02*
D03*
D32*
X1408260Y1017850D02*
D03*
Y954850D02*
D03*
D33*
X1534700Y792500D02*
D03*
Y779000D02*
D03*
X1392460Y800990D02*
D03*
Y787490D02*
D03*
X1533990Y334220D02*
D03*
Y320720D02*
D03*
X1391750Y342710D02*
D03*
Y329210D02*
D03*
X1533990Y448720D02*
D03*
Y435220D02*
D03*
X1391750Y457210D02*
D03*
Y443710D02*
D03*
X1533990Y563020D02*
D03*
Y549520D02*
D03*
X1391750Y571510D02*
D03*
Y558010D02*
D03*
X1534700Y678200D02*
D03*
Y664700D02*
D03*
X1392460Y686690D02*
D03*
Y673190D02*
D03*
D34*
X1588620Y695746D02*
D03*
X1578620D02*
D03*
X1588620Y709296D02*
D03*
X1578620D02*
D03*
X1588620Y723846D02*
D03*
X1578620D02*
D03*
X1588620Y737395D02*
D03*
X1578620D02*
D03*
X1587330Y582740D02*
D03*
X1577330D02*
D03*
X1587330Y595440D02*
D03*
X1577330D02*
D03*
X1587330Y608140D02*
D03*
X1577330D02*
D03*
X1587330Y620840D02*
D03*
X1577330D02*
D03*
X1587330Y470240D02*
D03*
X1577330D02*
D03*
X1587330Y484790D02*
D03*
X1577330D02*
D03*
X1587330Y498340D02*
D03*
X1577330D02*
D03*
X1587330Y512890D02*
D03*
X1577330D02*
D03*
X1587330Y350590D02*
D03*
X1577330D02*
D03*
X1587330Y365140D02*
D03*
X1577330D02*
D03*
X1587330Y378690D02*
D03*
X1577330D02*
D03*
X1587330Y392240D02*
D03*
X1577330D02*
D03*
X1587480Y810490D02*
D03*
X1577480Y810490D02*
D03*
X1587480Y830390D02*
D03*
X1577480D02*
D03*
X1587480Y841940D02*
D03*
X1577480D02*
D03*
X1587480Y853490D02*
D03*
X1577480Y853490D02*
D03*
D35*
X1417860Y761620D02*
D03*
X1417860Y748920D02*
D03*
X1417860Y736220D02*
D03*
X1417860Y723520D02*
D03*
X1417860Y710820D02*
D03*
X1417860Y698120D02*
D03*
X1417860Y685420D02*
D03*
X1417860Y672720D02*
D03*
X1513360Y672720D02*
D03*
Y685420D02*
D03*
Y698120D02*
D03*
Y710820D02*
D03*
Y723520D02*
D03*
X1513360Y736220D02*
D03*
X1513360Y748920D02*
D03*
Y761620D02*
D03*
X1417150Y646440D02*
D03*
Y633740D02*
D03*
X1417150Y621040D02*
D03*
X1417150Y608340D02*
D03*
X1417150Y595640D02*
D03*
X1417150Y582940D02*
D03*
X1417150Y570240D02*
D03*
X1417150Y557540D02*
D03*
X1512650Y557540D02*
D03*
X1512650Y570240D02*
D03*
Y582940D02*
D03*
X1512650Y595640D02*
D03*
X1512650Y608340D02*
D03*
X1512650Y621040D02*
D03*
X1512650Y633740D02*
D03*
X1512650Y646440D02*
D03*
X1417150Y532140D02*
D03*
X1417150Y519440D02*
D03*
X1417150Y506740D02*
D03*
Y494040D02*
D03*
Y481340D02*
D03*
Y468640D02*
D03*
X1417150Y455940D02*
D03*
X1417150Y443240D02*
D03*
X1512650Y443240D02*
D03*
Y455940D02*
D03*
X1512650Y468640D02*
D03*
X1512650Y481340D02*
D03*
Y494040D02*
D03*
Y506740D02*
D03*
Y519440D02*
D03*
X1512650Y532140D02*
D03*
X1417150Y417640D02*
D03*
Y404940D02*
D03*
X1417150Y392240D02*
D03*
X1417150Y379540D02*
D03*
X1417150Y366840D02*
D03*
X1417150Y354140D02*
D03*
X1417150Y341440D02*
D03*
X1417150Y328740D02*
D03*
X1512650Y328740D02*
D03*
Y341440D02*
D03*
X1512650Y354140D02*
D03*
X1512650Y366840D02*
D03*
X1512650Y379540D02*
D03*
X1512650Y392240D02*
D03*
Y404940D02*
D03*
Y417640D02*
D03*
X1417860Y875920D02*
D03*
X1417860Y863220D02*
D03*
X1417860Y850520D02*
D03*
Y837820D02*
D03*
Y825120D02*
D03*
Y812420D02*
D03*
X1417860Y799720D02*
D03*
X1417860Y787020D02*
D03*
X1513360Y787020D02*
D03*
X1513360Y799720D02*
D03*
Y812420D02*
D03*
X1513360Y825120D02*
D03*
Y837820D02*
D03*
Y850520D02*
D03*
X1513360Y863220D02*
D03*
Y875920D02*
D03*
M02*
