G04*
G04 #@! TF.GenerationSoftware,Altium Limited,Altium Designer,24.2.2 (26)*
G04*
G04 Layer_Color=65535*
%FSLAX44Y44*%
%MOMM*%
G71*
G04*
G04 #@! TF.SameCoordinates,B068D502-1A3C-4B1D-835D-C910CB385D68*
G04*
G04*
G04 #@! TF.FilePolarity,Positive*
G04*
G01*
G75*
%ADD10C,0.2500*%
%ADD11C,0.2000*%
%ADD12C,0.3048*%
%ADD13C,0.2540*%
%ADD14C,0.3810*%
%ADD15C,0.5000*%
%ADD16C,0.1270*%
%ADD17C,0.1500*%
%ADD18C,0.2032*%
%ADD19C,0.1524*%
%ADD20C,0.0762*%
D10*
X787870Y1149430D02*
G03*
X787870Y1149430I-1250J0D01*
G01*
D11*
X1257060Y1432900D02*
G03*
X1257060Y1432900I-1000J0D01*
G01*
Y1473540D02*
G03*
X1257060Y1473540I-1000J0D01*
G01*
X786120Y1106430D02*
Y1127430D01*
X721120D02*
X786120D01*
X721120Y1106430D02*
Y1127430D01*
X643600Y1132609D02*
X694600D01*
X643600Y878609D02*
Y1132609D01*
Y878609D02*
X694600D01*
Y1132609D01*
X726980Y1340380D02*
X735980D01*
Y1333130D02*
Y1340380D01*
X726980Y1311380D02*
X735980Y1311380D01*
X735980Y1318630D02*
X735980Y1311380D01*
X721980Y1328880D02*
X721980Y1322880D01*
X719600Y1237060D02*
X728600D01*
X719600D02*
Y1244310D01*
Y1266060D02*
X728600D01*
X719600Y1258810D02*
Y1266060D01*
X733600Y1248560D02*
Y1254560D01*
X820870Y779730D02*
X869370D01*
X820870D02*
Y832570D01*
X869370D01*
Y779730D02*
Y832570D01*
X872870Y780350D02*
X889370D01*
X558800Y1422400D02*
X584200D01*
Y1397000D02*
Y1422400D01*
X558800Y1397000D02*
Y1422400D01*
X584200Y1416050D02*
X590550Y1422400D01*
X603250D01*
X609600Y1416050D01*
X609600Y1403350D01*
X603250Y1397000D02*
X609600Y1403350D01*
X590550Y1397000D02*
X603250D01*
X584200Y1403350D02*
X590550Y1397000D01*
X558800D02*
X584200D01*
X558800Y1524000D02*
X558800Y1549400D01*
X584200Y1517650D02*
X590550Y1524000D01*
X584200Y1543050D02*
X590550Y1549400D01*
X584200Y1530350D02*
X590550Y1524000D01*
X584200Y1530350D02*
Y1549400D01*
X558800Y1524000D02*
X577850D01*
X558800Y1549400D02*
X584200Y1549400D01*
X577850Y1524000D02*
X584200Y1517650D01*
X558800D02*
X565150Y1524000D01*
X603250Y1524000D02*
X609600Y1530350D01*
X590550Y1524000D02*
X603250D01*
X590550Y1549400D02*
X603250D01*
X609600Y1543050D01*
X609600Y1530350D01*
X603250Y1524000D02*
X609600Y1517650D01*
X609600Y1504950D02*
X609600Y1517650D01*
X603250Y1498600D02*
X609600Y1504950D01*
X590550Y1498600D02*
X603250D01*
X584200Y1504950D02*
X590550Y1498600D01*
X584200Y1492250D02*
X590550Y1498600D01*
X584200Y1479550D02*
X590550Y1473200D01*
X603250D01*
X609600Y1479550D01*
Y1492250D01*
X603250Y1498600D02*
X609600Y1492250D01*
X603250Y1473200D02*
X609600Y1466850D01*
Y1454150D02*
Y1466850D01*
X603250Y1447800D02*
X609600Y1454150D01*
X590550Y1447800D02*
X603250Y1447800D01*
X584200Y1454150D02*
X590550Y1447800D01*
X584200Y1466850D02*
X590550Y1473200D01*
X558800Y1466850D02*
X565150Y1473200D01*
X609600Y1454150D02*
Y1466850D01*
X558800Y1454150D02*
X565150Y1447800D01*
X577850Y1447800D01*
X584200Y1454150D01*
Y1466850D01*
X577850Y1473200D02*
X584200Y1466850D01*
X577850Y1498600D02*
X584200Y1492250D01*
Y1479550D02*
Y1492250D01*
X577850Y1473200D02*
X584200Y1479550D01*
X565150Y1473200D02*
X577850D01*
X558800Y1479550D02*
X565150Y1473200D01*
X609600Y1479550D02*
Y1492250D01*
X558800Y1492250D02*
X565150Y1498600D01*
X609600Y1504950D02*
X609600Y1517650D01*
X558800Y1504950D02*
X565150Y1498600D01*
X577850Y1498600D01*
X584200Y1504950D01*
X584200Y1517650D02*
X584200Y1504950D01*
X609600Y1543050D02*
X609600Y1530350D01*
X558800Y1504950D02*
X558800Y1517650D01*
X558800Y1479550D02*
X558800Y1492250D01*
X558800Y1466850D02*
X558800Y1454150D01*
X558800Y1244600D02*
X584200D01*
Y1219200D02*
Y1244600D01*
X558800Y1219200D02*
Y1244600D01*
X584200Y1238250D02*
X590550Y1244600D01*
X603250Y1244600D01*
X609600Y1238250D01*
Y1225550D02*
Y1238250D01*
X603250Y1219200D02*
X609600Y1225550D01*
X590550Y1219200D02*
X603250Y1219200D01*
X584200Y1225550D02*
X590550Y1219200D01*
X558800Y1219200D02*
X584200D01*
X747380Y1146740D02*
X761380D01*
X747380Y1162740D02*
X761380D01*
X747380Y1158240D02*
Y1162740D01*
Y1146740D02*
Y1151240D01*
X761380Y1146740D02*
Y1151240D01*
Y1158240D02*
Y1162740D01*
X558800Y1066800D02*
X584200Y1066800D01*
Y1041400D02*
Y1066800D01*
X558800Y1041400D02*
Y1066800D01*
X584200Y1060450D02*
X590550Y1066800D01*
X603250D01*
X609600Y1060450D01*
X609600Y1047750D02*
X609600Y1060450D01*
X603250Y1041400D02*
X609600Y1047750D01*
X590550Y1041400D02*
X603250D01*
X584200Y1047750D02*
X590550Y1041400D01*
X558800Y1041400D02*
X584200Y1041400D01*
X558800Y1168400D02*
Y1193800D01*
X584200Y1162050D02*
X590550Y1168400D01*
X584200Y1187450D02*
X590550Y1193800D01*
X584200Y1174750D02*
X590550Y1168400D01*
X584200Y1174750D02*
Y1193800D01*
X558800Y1168400D02*
X577850D01*
X558800Y1193800D02*
X584200D01*
X577850Y1168400D02*
X584200Y1162050D01*
X558800D02*
X565150Y1168400D01*
X603250D02*
X609600Y1174750D01*
X590550Y1168400D02*
X603250D01*
X590550Y1193800D02*
X603250D01*
X609600Y1187450D01*
Y1174750D02*
Y1187450D01*
X603250Y1168400D02*
X609600Y1162050D01*
Y1149350D02*
Y1162050D01*
X603250Y1143000D02*
X609600Y1149350D01*
X590550Y1143000D02*
X603250D01*
X584200Y1149350D02*
X590550Y1143000D01*
X584200Y1136650D02*
X590550Y1143000D01*
X584200Y1123950D02*
X590550Y1117600D01*
X603250D01*
X609600Y1123950D01*
Y1136650D01*
X603250Y1143000D02*
X609600Y1136650D01*
X603250Y1117600D02*
X609600Y1111250D01*
Y1098550D02*
Y1111250D01*
X603250Y1092200D02*
X609600Y1098550D01*
X590550Y1092200D02*
X603250D01*
X584200Y1098550D02*
X590550Y1092200D01*
X584200Y1111250D02*
X590550Y1117600D01*
X558800Y1111250D02*
X565150Y1117600D01*
X609600Y1098550D02*
Y1111250D01*
X558800Y1098550D02*
X565150Y1092200D01*
X577850D01*
X584200Y1098550D01*
Y1111250D01*
X577850Y1117600D02*
X584200Y1111250D01*
X577850Y1143000D02*
X584200Y1136650D01*
Y1123950D02*
Y1136650D01*
X577850Y1117600D02*
X584200Y1123950D01*
X565150Y1117600D02*
X577850D01*
X558800Y1123950D02*
X565150Y1117600D01*
X609600Y1123950D02*
Y1136650D01*
X558800D02*
X565150Y1143000D01*
X609600Y1149350D02*
Y1162050D01*
X558800Y1149350D02*
X565150Y1143000D01*
X577850D01*
X584200Y1149350D01*
Y1162050D01*
X609600Y1174750D02*
Y1187450D01*
X558800Y1149350D02*
Y1162050D01*
Y1123950D02*
Y1136650D01*
Y1098550D02*
Y1111250D01*
X558800Y1346200D02*
X558800Y1371600D01*
X584200Y1339850D02*
X590550Y1346200D01*
X584200Y1365250D02*
X590550Y1371600D01*
X584200Y1352550D02*
X590550Y1346200D01*
X584200Y1352550D02*
Y1371600D01*
X558800Y1346200D02*
X577850D01*
X558800Y1371600D02*
X584200Y1371600D01*
X577850Y1346200D02*
X584200Y1339850D01*
X558800D02*
X565150Y1346200D01*
X603250Y1346200D02*
X609600Y1352550D01*
X590550Y1346200D02*
X603250D01*
X590550Y1371600D02*
X603250D01*
X609600Y1365250D01*
X609600Y1352550D01*
X603250Y1346200D02*
X609600Y1339850D01*
X609600Y1327150D02*
X609600Y1339850D01*
X603250Y1320800D02*
X609600Y1327150D01*
X590550Y1320800D02*
X603250D01*
X584200Y1327150D02*
X590550Y1320800D01*
X584200Y1314450D02*
X590550Y1320800D01*
X584200Y1301750D02*
X590550Y1295400D01*
X603250Y1295400D01*
X609600Y1301750D01*
Y1314450D01*
X603250Y1320800D02*
X609600Y1314450D01*
X603250Y1295400D02*
X609600Y1289050D01*
Y1276350D02*
Y1289050D01*
X603250Y1270000D02*
X609600Y1276350D01*
X590550Y1270000D02*
X603250Y1270000D01*
X584200Y1276350D02*
X590550Y1270000D01*
X584200Y1289050D02*
X590550Y1295400D01*
X558800Y1289050D02*
X565150Y1295400D01*
X609600Y1276350D02*
Y1289050D01*
X558800Y1276350D02*
X565150Y1270000D01*
X577850Y1270000D01*
X584200Y1276350D01*
Y1289050D01*
X577850Y1295400D02*
X584200Y1289050D01*
X577850Y1320800D02*
X584200Y1314450D01*
Y1301750D02*
Y1314450D01*
X577850Y1295400D02*
X584200Y1301750D01*
X565150Y1295400D02*
X577850Y1295400D01*
X558800Y1301750D02*
X565150Y1295400D01*
X609600Y1301750D02*
Y1314450D01*
X558800Y1314450D02*
X565150Y1320800D01*
X609600Y1327150D02*
X609600Y1339850D01*
X558800Y1327150D02*
X565150Y1320800D01*
X577850Y1320800D01*
X584200Y1327150D01*
X584200Y1339850D02*
X584200Y1327150D01*
X609600Y1365250D02*
X609600Y1352550D01*
X558800Y1327150D02*
X558800Y1339850D01*
Y1301750D02*
Y1314450D01*
X558800Y1289050D02*
X558800Y1276350D01*
X1443260Y982350D02*
Y990350D01*
X1373260Y982350D02*
Y990350D01*
X1430110Y768670D02*
X1501110D01*
Y665670D02*
Y768670D01*
X1430110Y665670D02*
X1501110D01*
X1430110D02*
Y768670D01*
X1409110Y768370D02*
X1426610D01*
X1429400Y653490D02*
X1500400D01*
X1500400Y550490D02*
X1500400Y653490D01*
X1429400Y550490D02*
X1500400Y550490D01*
X1429400Y550490D02*
X1429400Y653490D01*
X1408400Y653190D02*
X1425900Y653190D01*
X1429400Y539190D02*
X1500400Y539190D01*
X1500400Y436190D01*
X1429400D02*
X1500400D01*
X1429400D02*
Y539190D01*
X1408400Y538890D02*
X1425900Y538890D01*
X1429400Y424690D02*
X1500400D01*
X1500400Y321690D02*
X1500400Y424690D01*
X1429400Y321690D02*
X1500400Y321690D01*
X1429400Y321690D02*
Y424690D01*
X1408400Y424390D02*
X1425900Y424390D01*
X1430110Y882970D02*
X1501110D01*
X1501110Y779970D01*
X1430110D02*
X1501110D01*
X1430110D02*
Y882970D01*
X1409110Y882670D02*
X1426610Y882670D01*
X1253200Y1386359D02*
X1304200D01*
X1253200Y1132359D02*
Y1386359D01*
Y1132359D02*
X1304200D01*
Y1386359D01*
X643600Y1386609D02*
X694600D01*
X643600Y1132609D02*
Y1386609D01*
Y1132609D02*
X694600D01*
Y1386609D01*
X1253200Y1132359D02*
X1304200D01*
X1253200Y878359D02*
Y1132359D01*
Y878359D02*
X1304200D01*
Y1132359D01*
X643600Y878609D02*
X694600D01*
X643600Y624609D02*
Y878609D01*
Y624609D02*
X694600D01*
Y878609D01*
X1253200Y878359D02*
X1304200D01*
X1253200Y624359D02*
Y878359D01*
Y624359D02*
X1304200D01*
Y878359D01*
X643600Y624609D02*
X694600D01*
X643600Y370609D02*
Y624609D01*
Y370609D02*
X694600D01*
Y624609D01*
X1253200Y624359D02*
X1304200D01*
X1253200Y370359D02*
Y624359D01*
Y370359D02*
X1304200D01*
Y624359D01*
D12*
X882510Y1132210D02*
G03*
X882510Y1132210I-5000J0D01*
G01*
X952510Y922210D02*
G03*
X937510Y922210I-7500J0D01*
G01*
Y1142210D02*
G03*
X952510Y1142210I7500J0D01*
G01*
X938700Y1380830D02*
G03*
X953700Y1380830I7500J0D01*
G01*
Y1160830D02*
G03*
X938700Y1160830I-7500J0D01*
G01*
X883700Y1370830D02*
G03*
X883700Y1370830I-5000J0D01*
G01*
D13*
X2435911Y296910D02*
G03*
X2451911Y280910I16000J0D01*
G01*
X2450911Y497910D02*
G03*
X2435911Y482910I0J-15000D01*
G01*
X2435911Y616950D02*
G03*
X2451911Y600950I16000J0D01*
G01*
X2450911Y817950D02*
G03*
X2435911Y802950I0J-15000D01*
G01*
X2435911Y936990D02*
G03*
X2451911Y920990I16000J0D01*
G01*
X2450911Y1137990D02*
G03*
X2435911Y1122990I0J-15000D01*
G01*
X2435911Y1257030D02*
G03*
X2451911Y1241030I16000J0D01*
G01*
X2450911Y1458030D02*
G03*
X2435911Y1443030I0J-15000D01*
G01*
X952510Y1142210D02*
X967510D01*
X867510D02*
X937510D01*
X867510Y922210D02*
Y1142210D01*
Y922210D02*
X937510D01*
X952510D02*
X967510D01*
Y1142210D01*
X968700Y1160830D02*
Y1380829D01*
X953700Y1160830D02*
X968700D01*
X868700D02*
X938700D01*
X868700D02*
Y1380829D01*
X938700D01*
X953700D02*
X968700D01*
X2435911Y296910D02*
Y310410D01*
X2450911Y497910D02*
X2492911D01*
X2553811Y499059D02*
X2610811D01*
X2553811Y279059D02*
Y499059D01*
Y278569D02*
X2610811D01*
Y499059D01*
X2492911Y497910D02*
Y514409D01*
X2553811Y514409D01*
Y499059D02*
Y514409D01*
X2377477Y468410D02*
X2408911D01*
Y474910D01*
X2435911D01*
Y482910D01*
X2312411Y399542D02*
Y453410D01*
X2333411D01*
Y465910D01*
X2358411D01*
X2358411Y468410D02*
X2358411Y465910D01*
X2358411Y468410D02*
X2361844Y468410D01*
X2332911Y312910D02*
X2352737D01*
X2332911D02*
Y325410D01*
X2312411Y325410D02*
X2332911Y325410D01*
X2312411Y325410D02*
Y378577D01*
X2371910Y310410D02*
X2435911D01*
X2553911Y264410D02*
Y278569D01*
X2492911Y264410D02*
X2553911Y264410D01*
X2492911Y264410D02*
Y280910D01*
X2451911D02*
X2492911D01*
X2435911Y616950D02*
Y630450D01*
X2450911Y817950D02*
X2492911D01*
X2553811Y819100D02*
X2610811D01*
X2553811Y599099D02*
Y819100D01*
Y598609D02*
X2610811D01*
Y819100D01*
X2492911Y817950D02*
Y834449D01*
X2553811Y834449D01*
Y819100D02*
Y834449D01*
X2377477Y788450D02*
X2408911D01*
Y794950D01*
X2435911D01*
Y802950D01*
X2312411Y719582D02*
Y773450D01*
X2333411D01*
Y785950D01*
X2358411D01*
X2358411Y788450D02*
X2358411Y785950D01*
X2358411Y788450D02*
X2361844Y788450D01*
X2332911Y632950D02*
X2352737D01*
X2332911D02*
Y645450D01*
X2312411Y645450D02*
X2332911Y645450D01*
X2312411Y645450D02*
Y698617D01*
X2371910Y630450D02*
X2435911D01*
X2553911Y584450D02*
Y598609D01*
X2492911Y584450D02*
X2553911Y584450D01*
X2492911Y584450D02*
Y600950D01*
X2451911D02*
X2492911D01*
X2435911Y936990D02*
Y950490D01*
X2450911Y1137990D02*
X2492911D01*
X2553811Y1139139D02*
X2610811D01*
X2553811Y919139D02*
Y1139139D01*
Y918649D02*
X2610811D01*
Y1139139D01*
X2492911Y1137990D02*
Y1154490D01*
X2553811Y1154490D01*
Y1139139D02*
Y1154490D01*
X2377477Y1108490D02*
X2408911D01*
Y1114990D01*
X2435911D01*
Y1122990D01*
X2312411Y1039622D02*
Y1093490D01*
X2333411D01*
Y1105990D01*
X2358411D01*
X2358411Y1108490D02*
X2358411Y1105990D01*
X2358411Y1108490D02*
X2361844Y1108490D01*
X2332911Y952990D02*
X2352737D01*
X2332911D02*
Y965490D01*
X2312411Y965490D02*
X2332911Y965490D01*
X2312411Y965490D02*
Y1018657D01*
X2371910Y950490D02*
X2435911D01*
X2553911Y904490D02*
Y918649D01*
X2492911Y904490D02*
X2553911Y904490D01*
X2492911Y904490D02*
Y920990D01*
X2451911D02*
X2492911D01*
X2435911Y1257030D02*
Y1270530D01*
X2450911Y1458030D02*
X2492911D01*
X2553811Y1459180D02*
X2610811D01*
X2553811Y1239179D02*
Y1459180D01*
Y1238689D02*
X2610811D01*
Y1459180D01*
X2492911Y1458030D02*
Y1474530D01*
X2553811Y1474530D01*
Y1459180D02*
Y1474530D01*
X2377477Y1428530D02*
X2408911D01*
Y1435030D01*
X2435911D01*
Y1443030D01*
X2312411Y1359662D02*
Y1413530D01*
X2333411D01*
Y1426030D01*
X2358411D01*
X2358411Y1428530D02*
X2358411Y1426030D01*
X2358411Y1428530D02*
X2361844Y1428530D01*
X2332911Y1273030D02*
X2352737D01*
X2332911D02*
Y1285530D01*
X2312411Y1285530D02*
X2332911Y1285530D01*
X2312411Y1285530D02*
Y1338697D01*
X2371910Y1270530D02*
X2435911D01*
X2553911Y1224530D02*
Y1238689D01*
X2492911Y1224530D02*
X2553911Y1224530D01*
X2492911Y1224530D02*
Y1241030D01*
X2451911D02*
X2492911D01*
X720344Y1177539D02*
X725422D01*
X722883D01*
Y1162304D01*
X720344D01*
X725422D01*
X743197Y1175000D02*
X740657Y1177539D01*
X735579D01*
X733040Y1175000D01*
Y1164843D01*
X735579Y1162304D01*
X740657D01*
X743197Y1164843D01*
X748275D02*
X750814Y1162304D01*
X755892D01*
X758432Y1164843D01*
Y1175000D01*
X755892Y1177539D01*
X750814D01*
X748275Y1175000D01*
Y1172461D01*
X750814Y1169921D01*
X758432D01*
X1256538Y1503167D02*
Y1490471D01*
X1259077Y1487932D01*
X1264156D01*
X1266695Y1490471D01*
Y1503167D01*
X1271773D02*
X1281930D01*
Y1500628D01*
X1271773Y1490471D01*
Y1487932D01*
X1256538Y1462527D02*
Y1449831D01*
X1259077Y1447292D01*
X1264156D01*
X1266695Y1449831D01*
Y1462527D01*
X1281930D02*
X1276851Y1459988D01*
X1271773Y1454910D01*
Y1449831D01*
X1274312Y1447292D01*
X1279391D01*
X1281930Y1449831D01*
Y1452370D01*
X1279391Y1454910D01*
X1271773D01*
X716534Y1313434D02*
Y1328669D01*
X724152D01*
X726691Y1326130D01*
Y1321051D01*
X724152Y1318512D01*
X716534D01*
X721612D02*
X726691Y1313434D01*
X731769D02*
X736847D01*
X734308D01*
Y1328669D01*
X731769Y1326130D01*
X744465D02*
X747004Y1328669D01*
X752083D01*
X754622Y1326130D01*
Y1315973D01*
X752083Y1313434D01*
X747004D01*
X744465Y1315973D01*
Y1326130D01*
X759700Y1315973D02*
X762239Y1313434D01*
X767318D01*
X769857Y1315973D01*
Y1326130D01*
X767318Y1328669D01*
X762239D01*
X759700Y1326130D01*
Y1323591D01*
X762239Y1321051D01*
X769857D01*
X717804Y1239774D02*
Y1255009D01*
X725422D01*
X727961Y1252470D01*
Y1247392D01*
X725422Y1244852D01*
X717804D01*
X722882D02*
X727961Y1239774D01*
X733039D02*
X738117D01*
X735578D01*
Y1255009D01*
X733039Y1252470D01*
X745735D02*
X748274Y1255009D01*
X753353D01*
X755892Y1252470D01*
Y1242313D01*
X753353Y1239774D01*
X748274D01*
X745735Y1242313D01*
Y1252470D01*
X760970Y1255009D02*
X771127D01*
Y1252470D01*
X760970Y1242313D01*
Y1239774D01*
X715264Y1369314D02*
Y1384549D01*
X722881D01*
X725421Y1382010D01*
Y1376931D01*
X722881Y1374392D01*
X715264D01*
X720342D02*
X725421Y1369314D01*
X730499D02*
X735577D01*
X733038D01*
Y1384549D01*
X730499Y1382010D01*
X743195D02*
X745734Y1384549D01*
X750813D01*
X753352Y1382010D01*
Y1371853D01*
X750813Y1369314D01*
X745734D01*
X743195Y1371853D01*
Y1382010D01*
X768587Y1384549D02*
X763508Y1382010D01*
X758430Y1376931D01*
Y1371853D01*
X760969Y1369314D01*
X766048D01*
X768587Y1371853D01*
Y1374392D01*
X766048Y1376931D01*
X758430D01*
X722119Y1278889D02*
Y1289046D01*
X719579Y1291585D01*
X714501D01*
X711962Y1289046D01*
Y1278889D01*
X714501Y1276350D01*
X719579D01*
X717040Y1281428D02*
X722119Y1276350D01*
X719579D02*
X722119Y1278889D01*
X737354Y1276350D02*
X727197D01*
X737354Y1286507D01*
Y1289046D01*
X734815Y1291585D01*
X729736D01*
X727197Y1289046D01*
X724405Y1353311D02*
Y1363468D01*
X721865Y1366007D01*
X716787D01*
X714248Y1363468D01*
Y1353311D01*
X716787Y1350772D01*
X721865D01*
X719326Y1355850D02*
X724405Y1350772D01*
X721865D02*
X724405Y1353311D01*
X729483Y1350772D02*
X734561D01*
X732022D01*
Y1366007D01*
X729483Y1363468D01*
X560324Y1217671D02*
X570481Y1202436D01*
Y1217671D02*
X560324Y1202436D01*
X575559D02*
X580637D01*
X578098D01*
Y1217671D01*
X575559Y1215132D01*
X595872Y1202436D02*
Y1217671D01*
X588255Y1210053D01*
X598412D01*
X560324Y1395471D02*
X570481Y1380236D01*
Y1395471D02*
X560324Y1380236D01*
X575559D02*
X580637D01*
X578098D01*
Y1395471D01*
X575559Y1392932D01*
X588255D02*
X590794Y1395471D01*
X595872D01*
X598412Y1392932D01*
Y1390393D01*
X595872Y1387854D01*
X593333D01*
X595872D01*
X598412Y1385314D01*
Y1382775D01*
X595872Y1380236D01*
X590794D01*
X588255Y1382775D01*
X560324Y1090671D02*
X570481Y1075436D01*
Y1090671D02*
X560324Y1075436D01*
X575559D02*
X580637D01*
X578098D01*
Y1090671D01*
X575559Y1088132D01*
X598412Y1075436D02*
X588255D01*
X598412Y1085593D01*
Y1088132D01*
X595872Y1090671D01*
X590794D01*
X588255Y1088132D01*
X560324Y1268471D02*
X570481Y1253236D01*
Y1268471D02*
X560324Y1253236D01*
X575559D02*
X580637D01*
X578098D01*
Y1268471D01*
X575559Y1265932D01*
X588255Y1253236D02*
X593333D01*
X590794D01*
Y1268471D01*
X588255Y1265932D01*
X560324Y1573271D02*
X570481Y1558036D01*
Y1573271D02*
X560324Y1558036D01*
X575559D02*
X580637D01*
X578098D01*
Y1573271D01*
X575559Y1570732D01*
X588255D02*
X590794Y1573271D01*
X595872D01*
X598412Y1570732D01*
Y1560575D01*
X595872Y1558036D01*
X590794D01*
X588255Y1560575D01*
Y1570732D01*
X560324Y1446271D02*
X570481Y1431036D01*
Y1446271D02*
X560324Y1431036D01*
X575559Y1433575D02*
X578098Y1431036D01*
X583177D01*
X585716Y1433575D01*
Y1443732D01*
X583177Y1446271D01*
X578098D01*
X575559Y1443732D01*
Y1441193D01*
X578098Y1438654D01*
X585716D01*
X759203Y1186683D02*
X754124D01*
X756664D01*
Y1173987D01*
X754124Y1171448D01*
X751585D01*
X749046Y1173987D01*
X771899Y1171448D02*
Y1186683D01*
X764281Y1179065D01*
X774438D01*
X789673Y1171448D02*
X779516D01*
X789673Y1181605D01*
Y1184144D01*
X787134Y1186683D01*
X782055D01*
X779516Y1184144D01*
X800608Y859277D02*
X805686D01*
X803147D01*
Y844042D01*
X800608D01*
X805686D01*
X823461Y856738D02*
X820921Y859277D01*
X815843D01*
X813304Y856738D01*
Y846581D01*
X815843Y844042D01*
X820921D01*
X823461Y846581D01*
X828539Y856738D02*
X831078Y859277D01*
X836156D01*
X838696Y856738D01*
Y854199D01*
X836156Y851659D01*
X838696Y849120D01*
Y846581D01*
X836156Y844042D01*
X831078D01*
X828539Y846581D01*
Y849120D01*
X831078Y851659D01*
X828539Y854199D01*
Y856738D01*
X831078Y851659D02*
X836156D01*
X710943Y1161284D02*
X708403Y1163823D01*
X703325D01*
X700786Y1161284D01*
Y1151127D01*
X703325Y1148588D01*
X708403D01*
X710943Y1151127D01*
X716021Y1163823D02*
X726178D01*
Y1161284D01*
X716021Y1151127D01*
Y1148588D01*
X731256D02*
X736335D01*
X733795D01*
Y1163823D01*
X731256Y1161284D01*
X802383Y1098546D02*
X799844Y1101085D01*
X794765D01*
X792226Y1098546D01*
Y1088389D01*
X794765Y1085850D01*
X799844D01*
X802383Y1088389D01*
X807461Y1101085D02*
X817618D01*
Y1098546D01*
X807461Y1088389D01*
Y1085850D01*
X822696Y1098546D02*
X825235Y1101085D01*
X830314D01*
X832853Y1098546D01*
Y1088389D01*
X830314Y1085850D01*
X825235D01*
X822696Y1088389D01*
Y1098546D01*
X1372978Y1052703D02*
Y1037468D01*
X1383135D01*
X1388213D02*
X1393291D01*
X1390752D01*
Y1052703D01*
X1388213Y1050164D01*
D14*
X2521217Y1521100D02*
G03*
X2521217Y1521100I-22361J0D01*
G01*
X2521537Y1201100D02*
G03*
X2521537Y1201100I-22361J0D01*
G01*
X2522487Y879870D02*
G03*
X2522487Y879870I-22361J0D01*
G01*
X2521217Y561100D02*
G03*
X2521217Y561100I-22361J0D01*
G01*
D15*
X646100Y1137359D02*
D03*
X1255700Y1391109D02*
D03*
X646100Y1391359D02*
D03*
X1255700Y1137109D02*
D03*
X646100Y883359D02*
D03*
X1255700Y883109D02*
D03*
X646100Y629359D02*
D03*
X1255700Y629109D02*
D03*
D16*
X1276860Y1407900D02*
X1283460D01*
X1288160Y1419050D02*
Y1425750D01*
X1276860Y1436900D02*
X1283460D01*
X1276860Y1448540D02*
X1283460D01*
X1288160Y1459690D02*
Y1466390D01*
X1276860Y1477540D02*
X1283460D01*
D17*
X997680Y1050450D02*
Y1052450D01*
X1017680D01*
X1017680Y1050450D02*
X1017680Y1052450D01*
X1017680Y1044450D02*
X1017680Y1042450D01*
X997680Y1042450D02*
X1017680Y1042450D01*
X997680Y1044450D02*
X997680Y1042450D01*
X997000Y1100710D02*
X997000Y1098710D01*
X997000Y1100710D02*
X1017000Y1100710D01*
X1017000Y1098710D01*
X1017000Y1090710D02*
Y1092710D01*
X997000Y1090710D02*
X1017000D01*
X997000D02*
X997000Y1092710D01*
X835480Y1131350D02*
Y1133350D01*
X815480Y1131350D02*
X835480Y1131350D01*
X815480Y1133350D02*
X815480Y1131350D01*
X815480Y1139350D02*
X815480Y1141350D01*
X835480D01*
X835480Y1139350D02*
X835480Y1141350D01*
X835480Y1116110D02*
X835480Y1118110D01*
X815480Y1116110D02*
X835480D01*
X815480D02*
X815480Y1118110D01*
Y1124110D02*
Y1126110D01*
X835480Y1126110D01*
X835480Y1124110D01*
X835480Y1069850D02*
X835480Y1067850D01*
X815480Y1067850D02*
X835480Y1067850D01*
X815480Y1067850D02*
Y1069850D01*
Y1077850D02*
X815480Y1075850D01*
X815480Y1077850D02*
X835480Y1077850D01*
Y1075850D02*
Y1077850D01*
X835480Y1027210D02*
Y1029210D01*
X815480Y1027210D02*
X835480Y1027210D01*
X815480Y1029210D02*
X815480Y1027210D01*
X815480Y1037210D02*
X815480Y1035210D01*
X815480Y1037210D02*
X835480Y1037210D01*
X835480Y1035210D02*
X835480Y1037210D01*
X840560Y923070D02*
X840560Y925070D01*
X820560Y923070D02*
X840560Y923070D01*
X820560Y925070D02*
X820560Y923070D01*
X820560Y931070D02*
Y933070D01*
X840560Y933070D01*
X840560Y931070D01*
X792900Y1256350D02*
Y1258270D01*
Y1256350D02*
X818300Y1256350D01*
X818300Y1258270D02*
X818300Y1256350D01*
Y1270350D02*
X818300Y1268430D01*
X792900Y1270350D02*
X818300Y1270350D01*
X792900Y1270350D02*
X792900Y1268430D01*
X805600Y1270350D02*
X805600Y1256350D01*
X1108160Y1245570D02*
X1108160Y1247490D01*
X1082760Y1247490D02*
X1108160Y1247490D01*
X1082760Y1247490D02*
X1082760Y1245570D01*
X1082760Y1233490D02*
X1082760Y1235410D01*
X1082760Y1233490D02*
X1108160Y1233490D01*
X1108160Y1235410D01*
X1095460Y1233490D02*
X1095460Y1247490D01*
X999540Y1289210D02*
Y1291210D01*
X1019540D01*
Y1289210D02*
Y1291210D01*
Y1281210D02*
Y1283210D01*
X999540Y1281210D02*
X1019540D01*
X999540D02*
Y1283210D01*
Y1337470D02*
Y1339470D01*
X1019540D01*
Y1337470D02*
Y1339470D01*
Y1329470D02*
Y1331470D01*
X999540Y1329470D02*
X1019540D01*
X999540D02*
Y1331470D01*
X840560Y1370110D02*
Y1372110D01*
X820560Y1370110D02*
X840560D01*
X820560D02*
Y1372110D01*
Y1378110D02*
Y1380110D01*
X840560D01*
Y1378110D02*
Y1380110D01*
Y1354870D02*
Y1356870D01*
X820560Y1354870D02*
X840560D01*
X820560D02*
Y1356870D01*
Y1362870D02*
Y1364870D01*
X840560D01*
Y1362870D02*
Y1364870D01*
Y1306610D02*
Y1308610D01*
X820560Y1306610D02*
X840560D01*
X820560D02*
Y1308610D01*
Y1314610D02*
Y1316610D01*
X840560D01*
Y1314610D02*
Y1316610D01*
Y1268510D02*
Y1270510D01*
X820560Y1268510D02*
X840560D01*
X820560D02*
Y1270510D01*
Y1276510D02*
Y1278510D01*
X840560D01*
Y1276510D02*
Y1278510D01*
Y1161830D02*
Y1163830D01*
X820560Y1161830D02*
X840560D01*
X820560D02*
Y1163830D01*
Y1169830D02*
Y1171830D01*
X840560D01*
Y1169830D02*
Y1171830D01*
X726440Y1346820D02*
X726440Y1360820D01*
X739140Y1346820D02*
Y1348740D01*
X713740Y1346820D02*
X739140Y1346820D01*
X713740Y1346820D02*
Y1348740D01*
Y1358900D02*
Y1360820D01*
X739140Y1360820D01*
Y1358900D02*
Y1360820D01*
X727860Y1290940D02*
Y1304940D01*
X715160Y1304940D02*
X715160Y1303020D01*
X715160Y1304940D02*
X740560Y1304940D01*
X740560Y1303020D02*
X740560Y1304940D01*
Y1292860D02*
X740560Y1290940D01*
X715160D02*
X740560D01*
X715160D02*
X715160Y1292860D01*
X728980Y1217280D02*
Y1231280D01*
X716280Y1229360D02*
X716280Y1231280D01*
X741680D01*
X741680Y1229360D01*
X741680Y1219200D02*
X741680Y1217280D01*
X716280D02*
X741680D01*
X716280Y1219200D02*
X716280Y1217280D01*
X790400Y1060530D02*
X808400D01*
X804400Y1043530D02*
X808400D01*
Y1077530D01*
X804400D02*
X808400D01*
X790400D02*
X794400D01*
X790400Y1043530D02*
Y1077530D01*
Y1043530D02*
X794400D01*
X698960Y1123270D02*
X716960D01*
X698960Y1140270D02*
X702960D01*
X698960Y1106270D02*
Y1140270D01*
Y1106270D02*
X702960D01*
X712960D02*
X716960D01*
X716960Y1140270D02*
X716960Y1106270D01*
X712960Y1140270D02*
X716960D01*
X1527700Y785750D02*
X1541700D01*
X1527700Y771750D02*
X1530700D01*
X1527700D02*
Y799750D01*
X1530700D01*
X1538700D02*
X1541700D01*
Y771750D02*
Y799750D01*
X1538700Y771750D02*
X1541700D01*
X1385460Y794240D02*
X1399460D01*
X1385460Y780240D02*
X1388460D01*
X1385460D02*
Y808240D01*
X1388460D01*
X1396460D02*
X1399460D01*
Y780240D02*
Y808240D01*
X1396460Y780240D02*
X1399460D01*
X1526990Y327470D02*
X1540990D01*
X1526990Y313470D02*
X1529990D01*
X1526990D02*
Y341470D01*
X1529990D01*
X1537990D02*
X1540990D01*
Y313470D02*
Y341470D01*
X1537990Y313470D02*
X1540990D01*
X1384750Y335960D02*
X1398750D01*
X1384750Y321960D02*
X1387750D01*
X1384750D02*
Y349960D01*
X1387750D01*
X1395750D02*
X1398750D01*
Y321960D02*
Y349960D01*
X1395750Y321960D02*
X1398750D01*
X1526990Y441970D02*
X1540990D01*
X1526990Y427970D02*
X1529990D01*
X1526990D02*
Y455970D01*
X1529990D01*
X1537990D02*
X1540990D01*
Y427970D02*
Y455970D01*
X1537990Y427970D02*
X1540990D01*
X1384750Y450460D02*
X1398750D01*
X1384750Y436460D02*
X1387750D01*
X1384750D02*
Y464460D01*
X1387750D01*
X1395750D02*
X1398750D01*
Y436460D02*
Y464460D01*
X1395750Y436460D02*
X1398750D01*
X1526990Y556270D02*
X1540990D01*
X1526990Y542270D02*
X1529990D01*
X1526990D02*
Y570270D01*
X1529990D01*
X1537990D02*
X1540990D01*
Y542270D02*
Y570270D01*
X1537990Y542270D02*
X1540990D01*
X1384750Y564760D02*
X1398750D01*
X1384750Y550760D02*
X1387750D01*
X1384750D02*
Y578760D01*
X1387750D01*
X1395750D02*
X1398750D01*
Y550760D02*
Y578760D01*
X1395750Y550760D02*
X1398750D01*
X1527700Y671450D02*
X1541700D01*
X1527700Y657450D02*
X1530700D01*
X1527700D02*
Y685450D01*
X1530700D01*
X1538700D02*
X1541700D01*
Y657450D02*
Y685450D01*
X1538700Y657450D02*
X1541700D01*
X1385460Y679940D02*
X1399460D01*
X1385460Y665940D02*
X1388460D01*
X1385460D02*
Y693940D01*
X1388460D01*
X1396460D02*
X1399460D01*
Y665940D02*
Y693940D01*
X1396460Y665940D02*
X1399460D01*
X1583620Y690666D02*
X1583620Y700826D01*
X1573620Y699556D02*
Y700826D01*
X1593620D01*
Y699556D02*
Y700826D01*
Y690666D02*
Y691936D01*
X1573620Y690666D02*
X1593620Y690666D01*
X1573620Y690666D02*
Y691936D01*
X1583620Y704216D02*
X1583620Y714376D01*
X1573620Y713106D02*
Y714376D01*
X1593620D01*
Y713106D02*
Y714376D01*
Y704216D02*
Y705486D01*
X1573620Y704216D02*
X1593620Y704216D01*
X1573620Y704216D02*
Y705486D01*
X1583620Y718766D02*
X1583620Y728926D01*
X1573620Y727656D02*
Y728926D01*
X1593620D01*
Y727656D02*
Y728926D01*
Y718766D02*
Y720036D01*
X1573620Y718766D02*
X1593620D01*
X1573620D02*
Y720036D01*
X1583620Y732316D02*
X1583620Y742476D01*
X1573620Y741206D02*
Y742476D01*
X1593620D01*
Y741206D02*
Y742476D01*
Y732316D02*
Y733586D01*
X1573620Y732316D02*
X1593620Y732316D01*
X1573620Y732316D02*
Y733586D01*
X1582330Y577660D02*
Y587820D01*
X1572330Y586550D02*
X1572330Y587820D01*
X1592330D01*
Y586550D02*
Y587820D01*
Y577660D02*
Y578930D01*
X1572330Y577660D02*
X1592330D01*
X1572330Y578930D02*
X1572330Y577660D01*
X1582330Y590360D02*
Y600520D01*
X1572330Y599250D02*
X1572330Y600520D01*
X1592330D01*
Y599250D02*
Y600520D01*
Y590360D02*
Y591630D01*
X1572330Y590360D02*
X1592330D01*
X1572330Y591630D02*
X1572330Y590360D01*
X1582330Y603060D02*
X1582330Y613220D01*
X1572330Y611950D02*
Y613220D01*
X1592330D01*
Y611950D02*
Y613220D01*
Y603060D02*
Y604330D01*
X1572330Y603060D02*
X1592330D01*
X1572330D02*
Y604330D01*
X1582330Y615760D02*
Y625920D01*
X1572330Y624650D02*
X1572330Y625920D01*
X1592330D01*
Y624650D02*
Y625920D01*
Y615760D02*
Y617030D01*
X1572330Y615760D02*
X1592330D01*
X1572330D02*
Y617030D01*
X1582330Y465160D02*
Y475320D01*
X1572330Y474050D02*
X1572330Y475320D01*
X1592330D01*
Y474050D02*
Y475320D01*
Y465160D02*
Y466430D01*
X1572330Y465160D02*
X1592330D01*
X1572330Y466430D02*
X1572330Y465160D01*
X1582330Y489870D02*
X1582330Y479710D01*
X1572330Y488600D02*
Y489870D01*
X1592330Y489870D01*
Y488600D02*
Y489870D01*
Y479710D02*
Y480980D01*
X1572330Y479710D02*
X1592330D01*
X1572330D02*
Y480980D01*
X1582330Y503420D02*
X1582330Y493260D01*
X1572330Y502150D02*
Y503420D01*
X1592330D01*
Y502150D02*
Y503420D01*
Y493260D02*
Y494530D01*
X1572330Y493260D02*
X1592330D01*
X1572330D02*
Y494530D01*
X1582330Y507810D02*
Y517970D01*
X1572330Y516700D02*
Y517970D01*
X1592330Y517970D01*
Y516700D02*
Y517970D01*
Y507810D02*
Y509080D01*
X1572330Y507810D02*
X1592330D01*
X1572330D02*
Y509080D01*
X1582330Y355670D02*
X1582330Y345510D01*
X1572330Y354400D02*
Y355670D01*
X1592330Y355670D01*
Y354400D02*
Y355670D01*
Y345510D02*
Y346780D01*
X1572330Y345510D02*
X1592330D01*
X1572330D02*
Y346780D01*
X1582330Y360060D02*
Y370220D01*
X1572330Y368950D02*
Y370220D01*
X1592330D01*
Y368950D02*
Y370220D01*
Y360060D02*
Y361330D01*
X1572330Y360060D02*
X1592330D01*
X1572330D02*
Y361330D01*
X1582330Y373610D02*
Y383770D01*
X1572330Y382500D02*
Y383770D01*
X1592330D01*
Y382500D02*
Y383770D01*
Y373610D02*
Y374880D01*
X1572330Y373610D02*
X1592330D01*
X1572330D02*
Y374880D01*
X1582330Y387160D02*
Y397320D01*
X1572330Y396050D02*
Y397320D01*
X1592330Y397320D01*
Y396050D02*
Y397320D01*
Y387160D02*
Y388430D01*
X1572330Y387160D02*
X1592330D01*
X1572330D02*
Y388430D01*
X1582480Y805410D02*
Y815570D01*
X1572480Y814300D02*
Y815570D01*
X1592480D01*
Y814300D02*
Y815570D01*
Y805410D02*
Y806680D01*
X1572480Y805410D02*
X1592480D01*
X1572480D02*
Y806680D01*
X1582480Y825310D02*
Y835470D01*
X1572480Y834200D02*
Y835470D01*
X1592480D01*
Y834200D02*
Y835470D01*
Y825310D02*
Y826580D01*
X1572480Y825310D02*
X1592480D01*
X1572480D02*
Y826580D01*
X1582480Y836860D02*
X1582480Y847020D01*
X1572480Y845750D02*
Y847020D01*
X1592480D01*
Y845750D02*
Y847020D01*
Y836860D02*
Y838130D01*
X1572480Y836860D02*
X1592480Y836860D01*
X1572480Y836860D02*
Y838130D01*
X1582480Y848410D02*
Y858570D01*
X1572480Y857300D02*
X1572480Y858570D01*
X1592480Y858570D01*
Y857300D02*
Y858570D01*
Y848410D02*
Y849680D01*
X1572480Y848410D02*
X1592480Y848410D01*
X1572480Y849680D02*
X1572480Y848410D01*
D18*
X2549611Y513520D02*
X2549611Y264600D01*
X2549611Y833560D02*
X2549611Y584640D01*
X2549611Y1153600D02*
X2549611Y904680D01*
X2549611Y1473640D02*
X2549611Y1224720D01*
D19*
X999044Y464771D02*
Y459693D01*
X1001583Y457154D01*
X1004122Y459693D01*
Y464771D01*
X1011740Y463502D02*
X1010470Y464771D01*
X1007931D01*
X1006662Y463502D01*
Y462232D01*
X1007931Y460963D01*
X1010470D01*
X1011740Y459693D01*
Y458424D01*
X1010470Y457154D01*
X1007931D01*
X1006662Y458424D01*
X1014279Y464771D02*
Y463502D01*
X1016818Y460963D01*
X1019357Y463502D01*
Y464771D01*
X1016818Y460963D02*
Y457154D01*
X1021897D02*
Y464771D01*
X1026975Y457154D01*
Y464771D01*
X1034593Y463502D02*
X1033323Y464771D01*
X1030784D01*
X1029514Y463502D01*
Y458424D01*
X1030784Y457154D01*
X1033323D01*
X1034593Y458424D01*
X1082864Y463131D02*
X1087942D01*
X1085403D01*
Y455514D01*
X1095560Y463131D02*
X1090482D01*
Y455514D01*
X1095560D01*
X1090482Y459323D02*
X1093021D01*
D20*
X2310299Y524509D02*
X2309452D01*
X2309876D01*
Y522393D01*
X2309452Y521970D01*
X2309029D01*
X2308606Y522393D01*
X2312415Y521970D02*
Y524509D01*
X2311145Y523240D01*
X2312838D01*
X2313684Y521547D02*
X2315377D01*
X2316224Y524509D02*
X2317916Y521970D01*
Y524509D02*
X2316224Y521970D01*
X2318763Y524509D02*
Y521970D01*
X2320455D01*
X2321302D02*
Y524509D01*
X2322572D01*
X2322995Y524086D01*
Y523240D01*
X2322572Y522816D01*
X2321302D01*
X2322148D02*
X2322995Y521970D01*
X2323841D02*
X2324688D01*
X2324264D01*
Y524509D01*
X2323841Y524086D01*
X2310299Y844549D02*
X2309452D01*
X2309876D01*
Y842433D01*
X2309452Y842010D01*
X2309029D01*
X2308606Y842433D01*
X2312415Y842010D02*
Y844549D01*
X2311145Y843280D01*
X2312838D01*
X2313684Y841587D02*
X2315377D01*
X2316224Y844549D02*
X2317916Y842010D01*
Y844549D02*
X2316224Y842010D01*
X2318763Y844549D02*
Y842010D01*
X2320455D01*
X2321302D02*
Y844549D01*
X2322572D01*
X2322995Y844126D01*
Y843280D01*
X2322572Y842856D01*
X2321302D01*
X2322148D02*
X2322995Y842010D01*
X2325534D02*
X2323841D01*
X2325534Y843703D01*
Y844126D01*
X2325111Y844549D01*
X2324264D01*
X2323841Y844126D01*
X2310299Y1164589D02*
X2309452D01*
X2309876D01*
Y1162473D01*
X2309452Y1162050D01*
X2309029D01*
X2308606Y1162473D01*
X2312415Y1162050D02*
Y1164589D01*
X2311145Y1163320D01*
X2312838D01*
X2313684Y1161627D02*
X2315377D01*
X2316224Y1164589D02*
X2317916Y1162050D01*
Y1164589D02*
X2316224Y1162050D01*
X2318763Y1164589D02*
Y1162050D01*
X2320455D01*
X2321302D02*
Y1164589D01*
X2322572D01*
X2322995Y1164166D01*
Y1163320D01*
X2322572Y1162896D01*
X2321302D01*
X2322148D02*
X2322995Y1162050D01*
X2323841Y1164166D02*
X2324264Y1164589D01*
X2325111D01*
X2325534Y1164166D01*
Y1163743D01*
X2325111Y1163320D01*
X2324688D01*
X2325111D01*
X2325534Y1162896D01*
Y1162473D01*
X2325111Y1162050D01*
X2324264D01*
X2323841Y1162473D01*
X2310299Y1484629D02*
X2309452D01*
X2309876D01*
Y1482513D01*
X2309452Y1482090D01*
X2309029D01*
X2308606Y1482513D01*
X2312415Y1482090D02*
Y1484629D01*
X2311145Y1483360D01*
X2312838D01*
X2313684Y1481667D02*
X2315377D01*
X2316224Y1484629D02*
X2317916Y1482090D01*
Y1484629D02*
X2316224Y1482090D01*
X2318763Y1484629D02*
Y1482090D01*
X2320455D01*
X2321302D02*
Y1484629D01*
X2322572D01*
X2322995Y1484206D01*
Y1483360D01*
X2322572Y1482936D01*
X2321302D01*
X2322148D02*
X2322995Y1482090D01*
X2325111D02*
Y1484629D01*
X2323841Y1483360D01*
X2325534D01*
M02*
