M48
;Layer_Color=9474304
;FILE_FORMAT=4:4
METRIC,LZ
;TYPE=PLATED
T1F00S00C0.3000
T2F00S00C0.3048
T5F00S00C0.7112
T6F00S00C0.7620
T8F00S00C0.9144
T9F00S00C1.0000
T10F00S00C1.1000
T11F00S00C1.2000
T12F00S00C2.0000
;TYPE=NON_PLATED
T13F00S00C0.7000
T14F00S00C1.2954
T15F00S00C1.8000
T16F00S00C3.2000
%
T01
X0144636Y0035414
X01445701Y00363684
X01446391Y00373736
X01446982Y00383198
X0149335Y0032874
X015124Y0031604
X0153399Y0030842
X015505Y0032493
X01570708Y00334426
X0156165Y0034867
X0156179Y0036386
X0156165Y0037991
Y0039591
X0163305Y0039224
X01640334Y00378316
X0164448Y0036557
X0165083Y0035033
X01628595Y00470456
X01625176Y0049892
X0168258Y0051289
X0172117Y00543859
X01703829Y00587139
X0167623Y0059544
X0168385Y0060306
X0167242Y00611297
X0166353Y0058274
X01615804Y0062105
X01614Y0069577
X0161019Y0070974
X0160892Y0072371
X0160003Y0073768
X01633293Y00743594
X01645863Y00735602
X01658975Y00737172
X01662603Y00728853
X01671378Y00724808
X0163937Y00722749
X01649117Y00751981
X01676484Y0078975
X01775122Y00792122
X0178037Y0077197
X01778942Y0075673
X01756665Y00758345
X01747563Y00748164
X0176894Y0074276
X0179561Y0073641
X01800162Y00750214
X01799674Y0076308
X01800436Y007072
X01819486Y0070974
X01811866Y0071863
X018426Y0070212
X0186292
X0185403Y0072752
X0188197
X0187435Y0074657
X01895904
Y0077324
X0187562
X0193277Y0071863
X0192749Y0070974
X01800436Y0067037
X0175624Y0066783
X0173846
X01738206Y0065513
X0173846Y0064243
X0175624
X01767416Y0060306
X01775036Y0059798
X01781386Y0060433
X0179942Y0056877
X017918Y0055988
X0176005Y0048495
X01692899Y00645893
X01693623Y00664745
X01719557Y00724863
X0156165Y007256
X0156103Y0074084
X0153653Y0074074
X0153715Y007255
X0153745Y0070887
X0153715Y0069299
X0156165Y0069309
X0156195Y0070897
X01571418Y00678406
X0156193Y0066148
X0158098
X0157082Y0064644
X0156165Y0062451
X0156198Y0060915
X0156198Y0059416
X0156198Y0057791
X01570708Y00563226
X01570014Y00552092
X01586603Y00547693
X01578904Y00537052
X0156198Y0052355
X0156227Y0050132
X0156217Y004853
X0156217Y0046346
X0153767Y0046336
X0153767Y004852
X0153777Y0050122
X0153748Y0052345
X015505Y0054718
X0151621Y0054464
X0153748Y0057781
X0153748Y0059406
X0153748Y0060905
X0153715Y0062441
X0149335Y0066021
X0144001
X01425114Y0065986
X0144763Y0064413
Y0063413
X01377565Y00633863
Y00643863
Y00623863
Y00613863
Y00603863
X0137397Y0055353
X0141334Y0054737
X0144382Y0055607
X0145144Y0048114
X0144636Y0046844
X01377286Y00430292
X01372391Y00414587
X0157082Y0041764
X0156193Y0043268
X0158098
X01578649Y00448829
X0154923Y0044177
X0157153Y0076162
X0156264Y0077666
X0158169
X01571418Y00792706
X015124Y0077451
X0144001
X0142477
X01487999Y0079943
X015365Y0080729
X015365Y0082888
X0153621Y0084476
X015365Y0086063
X01561Y0086073
X0156071Y0084486
X01561Y0082898
X0155864Y0080739
X0157153Y0087592
X01562528Y00890848
X01581578
X0157971Y0100458
X0156066
X01571732Y01056182
X0158753Y0104756
Y0106661
X01604265Y01134073
X0161273Y0113138
X0162062Y01128112
X0162851Y01124844
X0168786Y0106661
Y0104756
X0168385Y0100438
X0167623Y0099676
X0171052Y0095612
X01761574Y009485
X01778084
X01769194Y0093707
X01753954
X0177656Y0096755
X017918Y009612
X0179942Y0097009
X01775036Y009993
X01767416Y0100438
X01757427Y0104375
X01739647
X01731856Y0105645
X01739647Y0106915
X01757427
X01800436Y0107169
Y0110852
X018426Y0110344
X0186419Y0109328
X0188324Y0110217
Y0113519
X01770332Y01143268
X01752992Y01144788
X0176132Y0115551
X0177783
X0187562Y0098025
X01895904
Y0095231
X0187562
Y0092183
X01895904
Y0088627
X0187562
X01842854Y0089643
X0181974Y0090405
X0181212Y0091294
X0180069Y0090151
Y0086468
X01786353Y00828753
X01751075Y0083759
X01741Y0082785
X0173211Y0084944
X01732364Y0086214
X01750144
X0168532Y0086722
X0168512Y0085198
X01669674
X0168532Y0088627
X01659284Y00907397
X01652991Y00914829
X0164641Y00920271
X0163937Y0092561
X0159876Y0095612
X01685458Y00797049
X0176767Y0079737
X01922446Y00904267
X0192769Y0091294
T02
X013589Y0036322
X0135128Y0037338
X013589Y0038354
X0134366Y003937
X0137414Y0035306
X01384601Y00357989
X01400937
X0159258Y0030352
X0160528
X01618116Y00303384
X0163068Y0030352
X016648Y0030162
X016775
X016902Y0026179
X0169672Y00230858
X0167894Y0021364
X01632391Y00257504
X0161781Y0026179
X01604772
X0159241
X0173719Y0026342
X0174989Y0026342
X0176259Y0026342
X0177529
X0176259Y0034273
X0172212Y0032512
X016902Y00344
X01853Y00316
X01911Y00344
X0195Y00327
X0195655Y00367222
X01946Y00144
X01871044Y00189574
X01815832Y00198374
X02036Y00348
X02017Y00367
X0201385Y00379922
X02096Y00354
X02086Y00316
X0217154Y0034346
X0219821Y00354046
X02207738Y00334804
X02227045Y00315507
X02244565Y00329256
X0225028Y0033584
X0224266Y003587
X0223266Y003683
X0223504Y0039172
X0217916Y0038156
X0215011Y0037973
X02208Y00284
X0224266Y002952
X0230362Y0031552
X02313Y00283
X02329Y00282
X024511Y0029718
X02481264Y00441527
X024638Y0061214
X02479294Y0075946
X0230648Y0077268
Y0078792
X02317705
X0228108Y0075744
X0229124Y0072696
X0223536Y0071172
X0223012Y0068834
X0224298Y006787
X022506Y0065584
X02244885Y00649256
X02227365Y00635507
X0224298Y006152
X02208Y00606
X02208058Y00654804
X0219853Y00674046
X0217186Y0066346
X0217948Y0070156
X02170005Y0071426
X02154384Y00721
X0219218Y0072442
X02226295Y0074056
X0222832Y00754276
X0230394Y0063552
X02313Y00605
X02329Y00604
X0231632Y0052126
X02317385Y0046792
X0230616
Y0045268
X0228076Y0043744
X0229092Y0040696
X02225975Y0042056
X02228Y00434276
X0219186Y0040442
X02153398Y00413149
X02168Y00457
X02169539Y00476128
X02146637Y0049022
X02211098Y00539664
X02082Y0044
X02095Y00423
X02036Y00453
X01972Y00421
X01952Y00424
X019425Y00422272
X01927Y00432
X01912Y00436
X018782Y004232
X01839Y00422
X0197612Y0067564
X0197104Y0072644
X0149112Y0074307
X01398949Y00699949
X01385Y007
X01384508Y0058776
X01397741Y00586661
X01364Y00587
X0133858Y0054356
X0131572Y0053594
X01317357Y00524877
X013208Y0051562
X0132588Y0050546
X01318226Y00495359
X01322074Y00488242
X01322058Y00479367
X01313775Y00467463
X0133873Y0044383
X0133858Y004318
X0133604Y0041148
X0135128Y0042164
X0135382Y004572
X01384156Y00469042
X01400937
X01311223Y0040371
X012446Y004953
X0124136Y0058009
X0122358Y0058517
X0124644Y0062581
X0123882Y0064105
X012312Y0067153
X0122358Y0068931
X0120072Y0068169
X01210854Y00770522
X0144526Y0061468
X0144272Y0060198
Y0058928
X01163907Y00560145
X01169926Y00513102
X01049396Y00527511
X0106356Y0067407
X0108642Y0065121
X01095901Y00693711
X0111436Y0069947
X0113976Y0071471
X0112452Y0073757
X0115246Y0075789
X01176119Y00745412
X0117786Y0072741
X01186352Y00765195
X01190052Y0078837
X01168716Y0078583
X0110166Y0076805
X0113976Y0063851
X0093656Y0068423
X0091878Y0069439
X0091116Y0068169
X00882495Y00717816
X00888253Y00727676
X0084004Y0070963
X00814368Y00712013
X0080264Y0069088
X00802588Y007553
X0085274Y0078837
X0082226Y0058771
X0070796Y0064867
X0071812Y0071471
X007493Y0071374
X0072828Y0074011
X0073844Y0075281
X007613Y0075535
X0077216Y0078486
X00787127Y00786913
X0070034Y0077567
X00597663Y00776506
X00600555Y00788743
X00588318Y00623869
X0058166Y0058674
X005715Y00563372
X0058166Y0051562
X0058928Y0047244
X0070104
X0070034Y0080361
X0074422Y0080772
X0075849Y0081377
X0077146Y0082139
X007493Y008255
X007486Y0093569
X0073844Y0094331
X0072828Y0095093
X0071812Y0096109
X0070796Y0096871
X00669444Y01005165
X00623259Y01005005
X0061976Y0098552
X006096Y0098298
X0059436
X0059944Y0099314
X0056642Y009779
X0056134Y008382
X00575169Y00811389
X0059436Y0080772
X00603893Y00801648
X00607453Y00825456
X00601884Y0085122
X00610783Y00873842
X00638747Y00808978
X0076892Y0103475
X0077654Y0115921
X007486Y0117445
X0073963Y0118193
X0072947Y0118955
X0079432Y0114905
X00807687Y01150923
X00807889Y01139907
X0080194Y0112619
X007994Y0108555
X00805496Y01036463
X0080448Y0099919
X0081464Y0100173
X00822434Y0100935
X00830054Y0101697
X0084004Y0102459
X0091116Y0103221
X00930841Y01028305
X00930841Y01047848
X00949732Y0105621
X0094672Y0106523
X0093656Y0108047
X0092386Y0108809
X0093148Y0110079
X0091624Y0110333
X00910939Y0109587
X00905064Y0111095
X00892364Y0112746
X00976083Y01158263
X0105594Y0112873
X0104324Y0111095
X0103308Y0110333
X0102038Y0108809
X0101022Y0108047
X0100006Y0106523
X0099498Y0105507
Y0103983
X01026765Y01046762
X0107372Y0102713
X0107626Y0100935
X0108642Y0101697
X01094548Y0099919
X0109404Y0103983
X0109658Y0105507
X0110928Y0106523
X0111944Y0108047
X0113722Y0108809
X011804Y0107031
X0117532Y0106015
X0115754Y0100681
X01156424Y00976235
X01147888Y00969101
X0113722Y0096109
X01129332Y00952369
X01118424Y0094331
X01107248Y0093569
X0109658Y00921098
X0115754Y00936706
X0117786Y00891619
X01188915Y00883995
X01155Y0086711
Y0080361
X0105848Y0081377
X01028Y0082393
X01042732Y0088235
X00968056Y0088235
X00957388Y0088235
X0094672Y0088235
X00936052
X00925384Y0088235
X00914716Y0088235
X00904048Y0088235
X0089084
X0090862Y0093061
X009518Y0095093
X0094164Y0098141
X00886005Y00976311
X00878492Y00983407
X0080956Y0092807
X0082988Y0089505
X0090354Y0082393
X00951972Y0104021
X0106102Y0098395
X011042Y0117445
X0111436Y0118207
X0112452Y0118969
X0116008Y0113889
X0116262Y0112873
X0123063Y0111887
X0131064Y011303
X01308881Y01068559
X01311421Y01043159
X01312833Y01013807
X01238371Y00986939
X0124644Y0097633
X0123882Y0095347
X0122358Y0096109
X0121088Y0096871
X01203563Y00913669
X01200226Y00905704
X01217734Y00900195
X012312Y0092299
X01215194Y0085187
X01204276Y00827287
X0120326Y0079853
X013081Y0080264
X01385984Y00818758
X01398707Y00821142
X01395Y00876
X01387Y00886287
X01411Y00945
X0149208Y0085708
Y0084055
X01587179Y00799151
X0160528Y0082423
X01602419Y00846141
X0158877Y0086614
X01982068Y00879971
X01979449Y00826289
X01983552Y00974325
X01984237Y01026017
X0215297Y01039
X02170005Y0103426
X0217916Y0102156
X02201228Y01043785
X02225975Y0106056
X02228Y01074276
X0223504Y0103172
X0222758Y0100584
X0224266Y009987
X0225028Y0097584
X02244565Y00969256
X02227044Y00955507
X0224266Y009352
X02208Y00925
X02207738Y00974804
X02204683Y0099233
X0217154Y0098346
X02169868Y01117227
X021463Y011303
X02211098Y01179664
X0231632Y0116126
X02317385Y0110792
X0230616
Y0109268
X0228076Y0107744
X0229092Y0104696
X0230362Y0095552
X02313Y00924
X02329Y00923
X0231664Y0084126
X02211418Y00859664
X02170005Y00797227
X021463Y0081026
X0246634Y009271
X0248158Y0107696
X02458413Y01249733
X0250444Y0141478
X0248412Y0145542
X0240014Y0147618
X023849Y0143808
X0237998Y014732
X0235696Y0147872
X0233664Y0148126
X0231632
X02317385Y0142792
X0230616
Y0141268
X0228076Y0139744
X0229092Y0136696
X0227314Y0134664
X02240703Y0134071
X0223504Y0135172
X0221218Y0135934
X0219186Y0136442
X0217916Y0134156
X0216646Y0135426
X0217154Y0130346
X0219821Y01314046
X02207738Y01294804
X02227044Y01275507
X02244565Y01289256
X0225028Y0129584
X0224266Y013187
Y012552
X02208Y01245
X02313Y01244
X02329Y01243
X0230362Y0127552
X0233918Y013949
X023595Y0139744
X02228Y01394276
X02225975Y0138056
X0222996Y0143046
X02214125Y01481534
X02211098Y01499664
X0215773Y0154432
X02108Y01527
X02047Y01486
X02084Y01406
X0216824Y01437227
X021575Y01450848
X01985Y01367
X01999Y01318
X02019Y01319
X01984Y01382
X01936Y01375
X01937Y01364
X018596Y01399
X01805Y01493
X01711Y01510078
X01702Y01377
X01722Y01355
X01676Y01285
X01685Y01272
X01696Y0126
X01736Y01224
X01746Y01213
X016266Y014
X01568591Y01486881
X01387Y01481
X013049Y0147254
Y014319
X0124968Y014224
X01256988Y014129
Y0145354
X0124968Y0146304
X0120396
X0123882Y0138527
X01349122Y01360638
X0131318Y0131064
Y011938
X01556Y01232
Y01245
Y01257
X0156Y01298
X01273Y01521
X0097536Y0147701
X009398Y01458508
X0090297Y0147701
X008933Y0136608
X0090473Y0134957
X0091743Y0134195
X0092505Y0132671
X0093775Y0131909
X0094791Y0130385
X00951729Y0129483
X00953454Y01280622
X0093148Y0126843
X0088322Y0128621
X0088068Y0124303
X0087814Y0122271
X0088576Y0121509
X0084123Y0126321
X0083107Y0125559
X0082345Y0124797
X0081583Y0124035
X0080702Y0123033
X008121Y0127605
X0081464Y0131161
Y0135987
Y0137511
X0088322Y0133447
X00953797Y01358714
X0099752Y0131161
X0100125Y0130385
X0099617Y0129369
X00994646Y0127845
X01033813Y0126314
X0107745Y0124797
X0108761Y0125559
X0106983Y0123781
X0106221Y0122257
X0113976Y0120747
X0114992Y0121509
X0113214Y0119731
X0104443Y0134957
X0103427Y0134195
X0102157Y0132671
X0101141Y0131909
X0105713Y0136735
X0074422Y0135382
X0074549Y0129794
X0075438Y0127
X0072248Y012381
X0071931Y0119971
X0070915Y0120733
X0076454Y0121412
X00627962Y01206059
X00631518Y01349046
X00635086Y01373709
X00655347Y01391913
X006985Y0139827
X007112Y0143256
X00709563Y01471563
X0074422Y0146558
T05
X00495Y0021704
X00495Y0044104
X00495Y0055304
X00496Y0076204
X00495Y0087304
X0049473Y0108077
X00496Y0119604
X00495Y0140204
T06
X015984Y01392
X015972Y015
X016226Y015
X01648Y015
X016734
X018302Y01499
X018556Y01499
X01881Y01499
X019064Y01499
X018344Y01393
X01809Y01393
X017836Y01393
X017582Y01393
X01573Y01392
X015476
X015222
T08
X00421Y0020304
X00441
X00453Y0022654
Y0024654
X00441Y0027004
X00421
X00434Y0051854
X00454
X00466Y0054204
Y0056204
X00454Y0058554
X00434
Y0083854
X00454
X00466Y0086204
Y0088204
X00454Y0090554
X00434
Y0115854
X00454
X00466Y0118204
Y0120204
X00454Y0122554
X00434
Y0147854
X00454
X00466Y0150204
Y0152204
X00454Y0154554
X00434
T09
X006566Y00383009
X00682
X012662Y00382759
X012916
Y00408159
Y00433559
Y00458959
Y00484359
Y00509759
Y00535159
Y00560559
Y00585959
Y00611359
Y00636759
Y00662159
Y00687559
Y00712959
Y00738359
Y00763759
Y00789159
X012662
Y00763759
Y00738359
Y00712959
Y00687559
Y00662159
Y00636759
Y00611359
Y00585959
Y00560559
Y00535159
Y00509759
Y00484359
Y00458959
Y00433559
Y00408159
X00682Y00408409
Y00433809
Y00459209
Y00484609
Y00510009
Y00535409
Y00560809
Y00586209
Y00611609
Y00637009
Y00662409
Y00687809
Y00713209
Y00738609
Y00764009
Y00789409
X006566
Y00764009
Y00738609
Y00713209
Y00687809
Y00662409
Y00637009
Y00611609
Y00586209
Y00560809
Y00535409
Y00510009
Y00484609
Y00459209
Y00433809
Y00408409
Y00814809
Y00840209
Y00865609
Y00891009
X00682
Y00916409
Y00941809
Y00967209
Y00992609
Y01018009
Y01043409
Y01068809
Y01094209
Y01119609
X006566
Y01094209
Y01068809
Y01043409
Y01018009
Y00992609
Y00967209
Y00941809
Y00916409
X00682Y00865609
Y00840209
Y00814809
Y01145009
Y01170409
X006566
Y01145009
X012662Y01144759
Y01119359
Y01093959
X012916
Y01068559
X012662
Y01043159
X012916
Y01017759
X012662
Y00992359
X012916
Y00966959
Y00941559
X012662
Y00916159
Y00890759
X012916
Y00916159
Y00865359
X012662
Y00839959
X012916
Y00814559
X012662
Y00966959
X012916Y01119359
Y01144759
Y01170159
X012662
Y01195559
Y01220959
Y01246359
Y01271759
Y01297159
Y01322559
Y01347959
Y01373359
X012916
Y01347959
Y01322559
Y01297159
Y01271759
Y01246359
Y01220959
Y01195559
X00682Y01195809
Y01221209
Y01246609
Y01272009
Y01297409
Y01322809
Y01348209
Y01373609
X006566
Y01348209
Y01322809
Y01297409
Y01272009
Y01246609
Y01221209
Y01195809
T10
X0047246Y002769
Y003023
Y003277
Y003531
X0049786
Y003277
Y003023
Y002769
X0243189Y0050983
Y0053523
Y0056063
X0245729
Y0058603
X0243189
X0245729Y0053523
Y0050983
X0049786Y005969
X0047246
Y006223
Y006477
X0049786
Y006731
X0047246
X0049786Y006223
Y009169
Y009423
X0047246
Y009677
Y009931
X0049786
Y009677
X0047246Y009169
X005715Y010541
X005969
Y011049
X005715
Y011303
Y011557
X005969
Y011811
X005715
X005969Y011303
X0243316Y0115106
X0245856Y0115106
Y0117646
X0243316
X0243221Y0090603
X0245761
Y0088063
X0243221
Y0085523
X0245761
Y0082983
X0243221Y0082983
X0243316Y0120186
Y0122726
X0245856
Y0120186
X0245729Y0146983
Y0149523
X0243189
Y0152063
Y0154603
X0245729
Y0152063
X0243189Y0146983
X0068072Y0153797
X0065532
X005969Y015367
X005715
Y015113
X005715Y014859
X005715Y014605
X005969Y014605
X005969Y014859
Y015113
Y014097
X005715
X005715Y013589
X005969Y013589
X005969Y013335
Y013081
X005715Y013081
X005715Y012827
X005969Y012827
X005969Y012319
X005715
X0049786Y012369
Y012623
X0047246
Y012877
Y013131
X0049786
Y012877
X0047246Y012369
X005715Y013335
T11
X0234476Y0029726
Y0035926
X0241076Y0038926
Y0032826
X0244976Y0035926
X0248376Y0033726
Y0038926
X0244726Y0040026
X0244976Y0044126
X0241076Y0045026
X0241076Y006483
Y007093
X0244726Y007203
X0244976Y007613
X0241076Y007703
X0244976Y006793
X0248376Y006573
Y007093
X0234476Y006793
Y007393
Y006173
X0234476Y0041926
X0234476Y0093226
Y0099426
Y0105426
X0241076Y0102426
X0244726Y0103526
X0244976Y0107626
X0241076Y0108526
Y0096326
X0244976Y0099426
X0248376Y0097226
Y0102426
X02483611Y01296739
Y01348739
X02447111Y01359739
X02449611Y01318739
X02410611Y01348739
Y01287739
Y01409739
X02449611Y01400739
X02344611Y01378739
Y01318739
Y01256739
T12
X00430897Y00301834
Y00621833
Y00941833
X02498857Y015211
X00430897Y01261834
T13
X009109Y0150655
X009687
T14
X01551539Y00145912
X01551539Y00205912
X01694539
Y00145912
X01835544Y00145912
Y00205912
X020045Y00206272
Y00146272
X02512568Y0017018
X02572568Y0017018
Y0027432
X02512568Y0027432
Y0049022
X02572568Y0049022
Y0059436
X02512568Y0059436
Y0080518
X02572568Y0080518
X02572568Y0090932
X02512568Y0090932
X02512568Y0112014
X02572568
Y0122936
X02512568Y0122936
X01434Y01475
Y01535
T15
X0252476Y0042926
X0252476Y007493
Y0106426
X02524611Y01388739
T16
X0059817Y0016891
X012027Y00649709
X007455
X0206375Y0126238
X0142494Y0134112
M30
