G04*
G04 #@! TF.GenerationSoftware,Altium Limited,Altium Designer,20.2.7 (254)*
G04*
G04 Layer_Color=16711935*
%FSLAX44Y44*%
%MOMM*%
G71*
G04*
G04 #@! TF.SameCoordinates,F75D2D2C-83ED-4C86-80AB-8EBB9ED98378*
G04*
G04*
G04 #@! TF.FilePolarity,Negative*
G04*
G01*
G75*
%ADD49R,2.6924X1.6764*%
%ADD50R,3.2004X1.6764*%
%ADD51R,1.1000X0.6000*%
%ADD54R,0.6000X1.1000*%
%ADD56R,1.5000X1.4000*%
%ADD57R,1.0500X0.9500*%
%ADD59R,0.9500X1.0500*%
%ADD63R,1.6250X0.7500*%
%ADD65R,1.0000X1.1000*%
%ADD66R,0.7000X0.7400*%
%ADD73R,1.1000X1.0000*%
%ADD75C,2.6000*%
%ADD76C,1.6256*%
%ADD77O,1.3000X1.9000*%
%ADD78O,2.9000X1.4000*%
%ADD79P,2.0566X8X112.5*%
%ADD80C,1.9000*%
%ADD81C,0.1524*%
%ADD82C,2.1000*%
%ADD83R,2.1000X2.1000*%
%ADD84C,0.8000*%
%ADD85O,1.1500X2.2000*%
%ADD86C,0.1000*%
%ADD87R,2.1000X2.1000*%
%ADD88C,1.6240*%
%ADD89R,1.6240X1.6240*%
%ADD90C,2.1016*%
%ADD91C,2.2000*%
%ADD92C,0.7096*%
%ADD93C,1.3700*%
%ADD94C,0.7000*%
%ADD135R,0.8600X2.5000*%
%ADD136R,0.4756X1.5932*%
%ADD137R,0.9000X1.0000*%
%ADD138R,1.3000X1.3000*%
%ADD139R,1.3300X1.9000*%
%ADD140R,2.6500X2.5500*%
%ADD141R,1.6764X3.2004*%
%ADD142R,1.6764X2.6924*%
%ADD143R,0.7500X1.6250*%
%ADD144R,1.9000X1.3300*%
%ADD145R,1.3000X1.5000*%
%ADD146R,3.3500X1.4000*%
%ADD147R,1.0500X1.4000*%
%ADD148R,1.4000X1.5000*%
%ADD149R,0.5500X1.0000*%
%ADD150R,0.7000X0.8500*%
%ADD151R,0.7400X0.7000*%
%ADD152R,1.0000X1.0500*%
%ADD153R,1.3000X1.3000*%
%ADD154C,1.1004*%
D49*
X2040000Y172000D02*
D03*
Y136000D02*
D03*
X1969000Y214000D02*
D03*
Y144000D02*
D03*
X1800044Y143640D02*
D03*
X1800044Y213640D02*
D03*
X1871044Y135640D02*
D03*
Y171640D02*
D03*
X1659039Y143640D02*
D03*
Y213640D02*
D03*
X1730039Y135640D02*
D03*
X1730039Y171640D02*
D03*
X1516039Y143640D02*
D03*
Y213640D02*
D03*
X1587039Y135640D02*
D03*
X1587039Y171640D02*
D03*
X1469500Y1537272D02*
D03*
Y1467272D02*
D03*
X1398500Y1545272D02*
D03*
Y1509272D02*
D03*
D50*
X2037860Y232180D02*
D03*
X1868904Y231820D02*
D03*
X1727899Y231820D02*
D03*
X1584899Y231820D02*
D03*
X1400640Y1449092D02*
D03*
D51*
X1761320Y580820D02*
D03*
Y587820D02*
D03*
X1775320Y580820D02*
D03*
Y587820D02*
D03*
X1727000Y963740D02*
D03*
Y956740D02*
D03*
X1741000Y963740D02*
D03*
Y956740D02*
D03*
D54*
X1545900Y395860D02*
D03*
X1552900Y395860D02*
D03*
X1545900Y379860D02*
D03*
X1552900Y379860D02*
D03*
X1545280Y740790D02*
D03*
X1552280D02*
D03*
X1544960Y844560D02*
D03*
X1551960Y844560D02*
D03*
X1545250Y807340D02*
D03*
X1552250D02*
D03*
X1545250Y828930D02*
D03*
X1552250D02*
D03*
X1545250Y859920D02*
D03*
X1552250D02*
D03*
X1546060Y594020D02*
D03*
X1553060D02*
D03*
X1546230Y523500D02*
D03*
X1553230Y523500D02*
D03*
X1546230Y609100D02*
D03*
X1553230D02*
D03*
X1546230Y577860D02*
D03*
X1553230D02*
D03*
X1546520Y501270D02*
D03*
X1553520Y501270D02*
D03*
X1546420Y463410D02*
D03*
X1553420D02*
D03*
X1546420Y485250D02*
D03*
X1553420Y485250D02*
D03*
X1546040Y363810D02*
D03*
X1553040D02*
D03*
X1545900Y348620D02*
D03*
X1552900D02*
D03*
X1545900Y693040D02*
D03*
X1552900Y693040D02*
D03*
X1545900Y724790D02*
D03*
X1552900Y724790D02*
D03*
X1546200Y708670D02*
D03*
X1553200D02*
D03*
X1545900Y624720D02*
D03*
X1552900D02*
D03*
D56*
X2262000Y258000D02*
D03*
X2262000Y274000D02*
D03*
Y1219000D02*
D03*
X2262000Y1235000D02*
D03*
X2262000Y899000D02*
D03*
X2262000Y915000D02*
D03*
X2261000Y579000D02*
D03*
X2261000Y595000D02*
D03*
D57*
X2208000Y1221000D02*
D03*
Y1234000D02*
D03*
X2313000Y1218000D02*
D03*
X2313000Y1231000D02*
D03*
X2329000Y1231000D02*
D03*
X2329000Y1218000D02*
D03*
X2224000Y1234500D02*
D03*
X2224000Y1221500D02*
D03*
Y914500D02*
D03*
X2224000Y901500D02*
D03*
X2329000Y911000D02*
D03*
X2329000Y898000D02*
D03*
X2313000Y898000D02*
D03*
X2313000Y911000D02*
D03*
X2208000Y901000D02*
D03*
Y914000D02*
D03*
Y582000D02*
D03*
Y595000D02*
D03*
X2313000Y579000D02*
D03*
Y592000D02*
D03*
X2224000Y595500D02*
D03*
X2224000Y582500D02*
D03*
X2329000Y592000D02*
D03*
X2329000Y579000D02*
D03*
X2313000Y260000D02*
D03*
Y273000D02*
D03*
X2208000Y260000D02*
D03*
X2208000Y273000D02*
D03*
X2224000Y273500D02*
D03*
X2224000Y260500D02*
D03*
X2329000Y270000D02*
D03*
Y257000D02*
D03*
X2053500Y452272D02*
D03*
X2053500Y439272D02*
D03*
X2069500D02*
D03*
Y452272D02*
D03*
X1927500Y421272D02*
D03*
X1927500Y408272D02*
D03*
X1911500Y396272D02*
D03*
X1911500Y383272D02*
D03*
X2068500Y408272D02*
D03*
X2068500Y395272D02*
D03*
X2084500Y381772D02*
D03*
Y394772D02*
D03*
Y367272D02*
D03*
X2084500Y354272D02*
D03*
X1911500Y410272D02*
D03*
X1911500Y423272D02*
D03*
X2232500Y1304450D02*
D03*
Y1291450D02*
D03*
Y984450D02*
D03*
Y971450D02*
D03*
X2232820Y664450D02*
D03*
Y651450D02*
D03*
X2232500Y344450D02*
D03*
Y331450D02*
D03*
X2217260Y1291450D02*
D03*
Y1304450D02*
D03*
Y971450D02*
D03*
Y984450D02*
D03*
X2217580Y651450D02*
D03*
Y664450D02*
D03*
X2217260Y331450D02*
D03*
Y344450D02*
D03*
X2222340Y1415430D02*
D03*
Y1402430D02*
D03*
Y1095430D02*
D03*
Y1082430D02*
D03*
X2222660Y775430D02*
D03*
Y762430D02*
D03*
X2222340Y455430D02*
D03*
Y442430D02*
D03*
X2293460Y1276210D02*
D03*
Y1289210D02*
D03*
Y956210D02*
D03*
Y969210D02*
D03*
X2293780Y636210D02*
D03*
Y649210D02*
D03*
X2293460Y316210D02*
D03*
Y329210D02*
D03*
X2209640Y1415430D02*
D03*
Y1402430D02*
D03*
Y1095430D02*
D03*
Y1082430D02*
D03*
X2209960Y775430D02*
D03*
Y762430D02*
D03*
X2209640Y455430D02*
D03*
Y442430D02*
D03*
D59*
X2067500Y424272D02*
D03*
X2054500Y424272D02*
D03*
X1926700Y394272D02*
D03*
X1939700Y394272D02*
D03*
X1926700Y378272D02*
D03*
X1939700D02*
D03*
X1926700Y363272D02*
D03*
X1939700D02*
D03*
X2194940Y1291210D02*
D03*
X2181940D02*
D03*
X2194940Y971210D02*
D03*
X2181940D02*
D03*
X2195260Y651210D02*
D03*
X2182260D02*
D03*
X2194940Y331210D02*
D03*
X2181940D02*
D03*
X2182820Y1255650D02*
D03*
X2195820D02*
D03*
X2182820Y935650D02*
D03*
X2195820D02*
D03*
X2183140Y615650D02*
D03*
X2196140D02*
D03*
X2182820Y295650D02*
D03*
X2195820D02*
D03*
X2179400Y1458400D02*
D03*
X2192400D02*
D03*
X2179400Y1138400D02*
D03*
X2192400D02*
D03*
X2179720Y818400D02*
D03*
X2192720D02*
D03*
X2179400Y498400D02*
D03*
X2192400D02*
D03*
Y1474910D02*
D03*
X2179400D02*
D03*
X2192400Y1154910D02*
D03*
X2179400D02*
D03*
X2192720Y834910D02*
D03*
X2179720D02*
D03*
X2192400Y514910D02*
D03*
X2179400D02*
D03*
X2193180Y1491420D02*
D03*
X2180180D02*
D03*
X2193180Y1171420D02*
D03*
X2180180D02*
D03*
X2193500Y851420D02*
D03*
X2180500D02*
D03*
X2193180Y531420D02*
D03*
X2180180D02*
D03*
X2293220Y1413130D02*
D03*
X2280220D02*
D03*
X2293220Y1093130D02*
D03*
X2280220D02*
D03*
X2293540Y773130D02*
D03*
X2280540D02*
D03*
X2293220Y453130D02*
D03*
X2280220D02*
D03*
X2181940Y1305180D02*
D03*
X2194940D02*
D03*
X2181940Y985180D02*
D03*
X2194940D02*
D03*
X2182260Y665180D02*
D03*
X2195260D02*
D03*
X2181940Y345180D02*
D03*
X2194940D02*
D03*
X2244660Y1413130D02*
D03*
X2257660D02*
D03*
X2244660Y1093130D02*
D03*
X2257660D02*
D03*
X2244980Y773130D02*
D03*
X2257980D02*
D03*
X2244660Y453130D02*
D03*
X2257660D02*
D03*
X2245440Y1446150D02*
D03*
X2258440D02*
D03*
X2245440Y1126150D02*
D03*
X2258440D02*
D03*
X2245760Y806150D02*
D03*
X2258760D02*
D03*
X2245440Y486150D02*
D03*
X2258440D02*
D03*
X2192010Y1399160D02*
D03*
X2179010D02*
D03*
X2192010Y1079160D02*
D03*
X2179010D02*
D03*
X2192330Y759160D02*
D03*
X2179330D02*
D03*
X2192010Y439160D02*
D03*
X2179010D02*
D03*
X2275440Y1291210D02*
D03*
X2262440D02*
D03*
X2275440Y971210D02*
D03*
X2262440D02*
D03*
X2275760Y651210D02*
D03*
X2262760D02*
D03*
X2275440Y331210D02*
D03*
X2262440D02*
D03*
X2293220Y1446150D02*
D03*
X2280220D02*
D03*
X2293220Y1126150D02*
D03*
X2280220D02*
D03*
X2293540Y806150D02*
D03*
X2280540D02*
D03*
X2293220Y486150D02*
D03*
X2280220D02*
D03*
X2244660Y1397890D02*
D03*
X2257660D02*
D03*
X2244660Y1077890D02*
D03*
X2257660D02*
D03*
X2244980Y757890D02*
D03*
X2257980D02*
D03*
X2244660Y437890D02*
D03*
X2257660D02*
D03*
X1685120Y840550D02*
D03*
X1698120D02*
D03*
X2040140Y1043770D02*
D03*
X2027140D02*
D03*
X2039840Y1006940D02*
D03*
X2052840D02*
D03*
X2040140Y956140D02*
D03*
X2027140D02*
D03*
X2040140Y991700D02*
D03*
X2053140D02*
D03*
X1685120Y810070D02*
D03*
X1698120D02*
D03*
X1685120Y825310D02*
D03*
X1698120Y825310D02*
D03*
X2040140Y897720D02*
D03*
X2027140D02*
D03*
X2032520Y744710D02*
D03*
X2019520D02*
D03*
X2040140Y860890D02*
D03*
X2053140D02*
D03*
X2032820Y707880D02*
D03*
X2045820D02*
D03*
X2040140Y808820D02*
D03*
X2027140D02*
D03*
X2031250Y657080D02*
D03*
X2018250D02*
D03*
X2040140Y844380D02*
D03*
X2053140D02*
D03*
X2032520Y692640D02*
D03*
X2045520D02*
D03*
X2334100Y503930D02*
D03*
X2347100D02*
D03*
X2347420Y823930D02*
D03*
X2334420D02*
D03*
X2334100Y1143930D02*
D03*
X2347100D02*
D03*
Y1463930D02*
D03*
X2334100D02*
D03*
D63*
X1978380Y405322D02*
D03*
Y392622D02*
D03*
Y379922D02*
D03*
Y367222D02*
D03*
X2032620D02*
D03*
Y379922D02*
D03*
Y392622D02*
D03*
Y405322D02*
D03*
D65*
X1943750Y410272D02*
D03*
X1957250D02*
D03*
X2319570Y1443610D02*
D03*
X2333070D02*
D03*
X2319570Y1123610D02*
D03*
X2333070D02*
D03*
X2319890Y803610D02*
D03*
X2333390D02*
D03*
X2319570Y483610D02*
D03*
X2333070D02*
D03*
X2040140Y1059010D02*
D03*
X2026640D02*
D03*
X2040140Y940900D02*
D03*
X2026640D02*
D03*
X2040140Y912960D02*
D03*
X2026640D02*
D03*
X2032520Y759950D02*
D03*
X2019020D02*
D03*
X2040140Y793580D02*
D03*
X2026640D02*
D03*
X2031250Y641840D02*
D03*
X2017750D02*
D03*
X2262980Y315970D02*
D03*
X2276480D02*
D03*
X2179160Y455670D02*
D03*
X2192660D02*
D03*
X2294260Y468370D02*
D03*
X2280760D02*
D03*
X2244400Y468370D02*
D03*
X2257900Y468370D02*
D03*
X2247740Y346450D02*
D03*
X2261240Y346450D02*
D03*
X2290920Y437440D02*
D03*
X2304420Y437440D02*
D03*
X2276800Y635970D02*
D03*
X2263300D02*
D03*
X2262980Y955970D02*
D03*
X2276480D02*
D03*
Y1275970D02*
D03*
X2262980D02*
D03*
X2192980Y775670D02*
D03*
X2179480D02*
D03*
X2179160Y1095670D02*
D03*
X2192660D02*
D03*
Y1415670D02*
D03*
X2179160D02*
D03*
X2281080Y788370D02*
D03*
X2294580D02*
D03*
X2294260Y1108370D02*
D03*
X2280760D02*
D03*
Y1428370D02*
D03*
X2294260D02*
D03*
X2258220Y788370D02*
D03*
X2244720D02*
D03*
X2244400Y1108370D02*
D03*
X2257900D02*
D03*
Y1428370D02*
D03*
X2244400D02*
D03*
X2261560Y666450D02*
D03*
X2248060D02*
D03*
X2247740Y986450D02*
D03*
X2261240D02*
D03*
Y1306450D02*
D03*
X2247740D02*
D03*
X2304740Y757440D02*
D03*
X2291240D02*
D03*
X2290920Y1077440D02*
D03*
X2304420D02*
D03*
Y1397440D02*
D03*
X2290920D02*
D03*
D66*
X1818978Y1002348D02*
D03*
X1827778D02*
D03*
X1744810Y1001840D02*
D03*
X1736010D02*
D03*
X1713150Y1094550D02*
D03*
X1721950D02*
D03*
X1851400Y1093280D02*
D03*
X1842600D02*
D03*
X1818978Y795084D02*
D03*
X1827778D02*
D03*
X1818470Y600520D02*
D03*
X1827270D02*
D03*
X1745064Y795030D02*
D03*
X1736264D02*
D03*
X1744810Y600520D02*
D03*
X1736010D02*
D03*
X1713404Y887540D02*
D03*
X1722204D02*
D03*
X1713150Y693230D02*
D03*
X1721950D02*
D03*
X1851654Y886270D02*
D03*
X1842854D02*
D03*
X1851400Y691960D02*
D03*
X1842600D02*
D03*
D73*
X2084500Y409272D02*
D03*
Y422772D02*
D03*
X1956500Y381272D02*
D03*
Y394772D02*
D03*
X2052500Y394272D02*
D03*
Y407772D02*
D03*
Y365272D02*
D03*
Y378772D02*
D03*
X1911500Y368272D02*
D03*
Y354772D02*
D03*
X2161380Y366770D02*
D03*
Y380270D02*
D03*
X2235040Y407410D02*
D03*
Y420910D02*
D03*
X2161700Y700270D02*
D03*
Y686770D02*
D03*
X2161380Y1006770D02*
D03*
Y1020270D02*
D03*
Y1340270D02*
D03*
Y1326770D02*
D03*
X2235360Y740910D02*
D03*
Y727410D02*
D03*
X2235040Y1047410D02*
D03*
Y1060910D02*
D03*
Y1380910D02*
D03*
Y1367410D02*
D03*
D75*
X430897Y301834D02*
D03*
Y621833D02*
D03*
Y941833D02*
D03*
Y1261834D02*
D03*
X2498857Y1521100D02*
D03*
D76*
X466000Y1522040D02*
D03*
Y1502040D02*
D03*
X454000Y1545540D02*
D03*
X434000D02*
D03*
X454000Y1478540D02*
D03*
X434000D02*
D03*
Y1158540D02*
D03*
X454000D02*
D03*
X434000Y1225540D02*
D03*
X454000D02*
D03*
X466000Y1182040D02*
D03*
Y1202040D02*
D03*
X434000Y838540D02*
D03*
X454000D02*
D03*
X434000Y905540D02*
D03*
X454000D02*
D03*
X466000Y862040D02*
D03*
Y882040D02*
D03*
Y562040D02*
D03*
Y542040D02*
D03*
X454000Y585540D02*
D03*
X434000D02*
D03*
X454000Y518540D02*
D03*
X434000D02*
D03*
X453000Y246540D02*
D03*
Y226540D02*
D03*
X441000Y270040D02*
D03*
X421000D02*
D03*
X441000Y203040D02*
D03*
X421000D02*
D03*
D77*
X432000Y1417040D02*
D03*
Y1337040D02*
D03*
Y1377040D02*
D03*
X406000Y1417040D02*
D03*
Y1377040D02*
D03*
Y1337040D02*
D03*
X432000Y1097040D02*
D03*
X406000Y1017040D02*
D03*
Y1057040D02*
D03*
Y1097040D02*
D03*
X432000Y1057040D02*
D03*
Y1017040D02*
D03*
Y777040D02*
D03*
X406000Y697040D02*
D03*
Y737040D02*
D03*
Y777040D02*
D03*
X432000Y737040D02*
D03*
Y697040D02*
D03*
Y457040D02*
D03*
Y377040D02*
D03*
Y417040D02*
D03*
X406000Y457040D02*
D03*
Y417040D02*
D03*
Y377040D02*
D03*
D78*
X419000Y1294540D02*
D03*
Y1459540D02*
D03*
Y1139539D02*
D03*
Y974540D02*
D03*
Y819540D02*
D03*
Y654540D02*
D03*
Y334540D02*
D03*
Y499540D02*
D03*
D79*
X497860Y1236900D02*
D03*
Y916900D02*
D03*
Y596900D02*
D03*
Y276900D02*
D03*
D80*
Y1262300D02*
D03*
X472460D02*
D03*
Y1313100D02*
D03*
Y1287700D02*
D03*
Y1236900D02*
D03*
X497860Y1287700D02*
D03*
Y1313100D02*
D03*
Y942300D02*
D03*
X472460D02*
D03*
Y993100D02*
D03*
Y967700D02*
D03*
Y916900D02*
D03*
X497860Y967700D02*
D03*
Y993100D02*
D03*
Y673100D02*
D03*
Y647700D02*
D03*
X472460Y596900D02*
D03*
Y647700D02*
D03*
Y673100D02*
D03*
Y622300D02*
D03*
X497860D02*
D03*
X472460Y276900D02*
D03*
Y327700D02*
D03*
Y353100D02*
D03*
Y302300D02*
D03*
X497860D02*
D03*
Y327700D02*
D03*
Y353100D02*
D03*
X656600Y840209D02*
D03*
X1266200Y1119359D02*
D03*
X656600Y1119609D02*
D03*
X682000D02*
D03*
X656600Y1094209D02*
D03*
X682000D02*
D03*
X656600Y1068809D02*
D03*
X682000D02*
D03*
X656600Y1043409D02*
D03*
X682000D02*
D03*
X656600Y1018009D02*
D03*
X682000D02*
D03*
X656600Y992609D02*
D03*
X682000D02*
D03*
X656600Y967209D02*
D03*
X682000D02*
D03*
Y941809D02*
D03*
Y891009D02*
D03*
Y916409D02*
D03*
X656600Y891009D02*
D03*
Y916409D02*
D03*
Y941809D02*
D03*
X1266200Y1373359D02*
D03*
X1291600D02*
D03*
X1266200Y1347959D02*
D03*
X1291600D02*
D03*
X1266200Y1322559D02*
D03*
X1291600D02*
D03*
X1266200Y1297159D02*
D03*
X1291600D02*
D03*
X1266200Y1271759D02*
D03*
X1291600D02*
D03*
X1266200Y1246359D02*
D03*
X1291600D02*
D03*
X1266200Y1220959D02*
D03*
X1291600D02*
D03*
X1266200Y1195559D02*
D03*
X1291600D02*
D03*
X1266200Y1170159D02*
D03*
X1291600D02*
D03*
X1266200Y1144759D02*
D03*
X1291600D02*
D03*
X656600Y1373609D02*
D03*
X682000D02*
D03*
X656600Y1348209D02*
D03*
X682000D02*
D03*
X656600Y1322809D02*
D03*
X682000D02*
D03*
X656600Y1297409D02*
D03*
X682000D02*
D03*
X656600Y1272009D02*
D03*
X682000D02*
D03*
X656600Y1246609D02*
D03*
X682000D02*
D03*
X656600Y1221209D02*
D03*
X682000D02*
D03*
X656600Y1195809D02*
D03*
X682000D02*
D03*
X656600Y1170409D02*
D03*
X682000D02*
D03*
X656600Y1145009D02*
D03*
X682000D02*
D03*
X1266200Y1093959D02*
D03*
X1291600D02*
D03*
X1266200Y1068559D02*
D03*
X1291600D02*
D03*
X1266200Y1043159D02*
D03*
X1291600D02*
D03*
X1266200Y1017759D02*
D03*
X1291600D02*
D03*
X1266200Y992359D02*
D03*
X1291600D02*
D03*
Y966959D02*
D03*
X1266200Y941559D02*
D03*
X1291600D02*
D03*
X1266200Y916159D02*
D03*
Y890759D02*
D03*
X1291600D02*
D03*
X1266200Y966959D02*
D03*
X1291600Y916159D02*
D03*
Y1119359D02*
D03*
X656600Y865609D02*
D03*
X682000D02*
D03*
Y840209D02*
D03*
X656600Y814809D02*
D03*
X682000D02*
D03*
X656600Y789409D02*
D03*
X682000D02*
D03*
X656600Y764009D02*
D03*
X682000D02*
D03*
X656600Y738609D02*
D03*
X682000D02*
D03*
X656600Y713209D02*
D03*
X682000D02*
D03*
X656600Y687809D02*
D03*
X682000D02*
D03*
X656600Y662409D02*
D03*
X682000D02*
D03*
X656600Y637009D02*
D03*
X682000D02*
D03*
X1266200Y865359D02*
D03*
X1291600D02*
D03*
X1266200Y839959D02*
D03*
X1291600D02*
D03*
X1266200Y814559D02*
D03*
X1291600D02*
D03*
X1266200Y789159D02*
D03*
X1291600D02*
D03*
X1266200Y763759D02*
D03*
X1291600D02*
D03*
X1266200Y738359D02*
D03*
X1291600D02*
D03*
X1266200Y712959D02*
D03*
X1291600D02*
D03*
X1266200Y687559D02*
D03*
X1291600D02*
D03*
X1266200Y662159D02*
D03*
X1291600D02*
D03*
X1266200Y636759D02*
D03*
X1291600D02*
D03*
X656600Y611609D02*
D03*
X682000D02*
D03*
X656600Y586209D02*
D03*
X682000D02*
D03*
X656600Y560809D02*
D03*
X682000D02*
D03*
X656600Y535409D02*
D03*
X682000D02*
D03*
X656600Y510009D02*
D03*
X682000D02*
D03*
X656600Y484609D02*
D03*
X682000D02*
D03*
X656600Y459209D02*
D03*
X682000D02*
D03*
X656600Y433809D02*
D03*
X682000D02*
D03*
X656600Y408409D02*
D03*
X682000D02*
D03*
X656600Y383009D02*
D03*
X682000D02*
D03*
X1266200Y611359D02*
D03*
X1291600D02*
D03*
X1266200Y585959D02*
D03*
X1291600D02*
D03*
X1266200Y560559D02*
D03*
X1291600D02*
D03*
X1266200Y535159D02*
D03*
X1291600D02*
D03*
X1266200Y509759D02*
D03*
X1291600D02*
D03*
X1266200Y484359D02*
D03*
X1291600D02*
D03*
X1266200Y458959D02*
D03*
X1291600D02*
D03*
X1266200Y433559D02*
D03*
X1291600D02*
D03*
X1266200Y408159D02*
D03*
X1291600D02*
D03*
X1266200Y382759D02*
D03*
X1291600D02*
D03*
D81*
X1835544Y145912D02*
D03*
Y205912D02*
D03*
X1551539Y145912D02*
D03*
X1551539Y205912D02*
D03*
X1694539Y145912D02*
D03*
Y205912D02*
D03*
X2004500Y146272D02*
D03*
Y206272D02*
D03*
D03*
Y146272D02*
D03*
X2512568Y170180D02*
D03*
X2572568Y170180D02*
D03*
X1835544Y145912D02*
D03*
Y205912D02*
D03*
X1694539Y145912D02*
D03*
Y205912D02*
D03*
X1551539Y145912D02*
D03*
X1551539Y205912D02*
D03*
X1434000Y1535000D02*
D03*
Y1475000D02*
D03*
X2572568Y274320D02*
D03*
X2512568Y274320D02*
D03*
X2572568Y1120140D02*
D03*
X2512568D02*
D03*
X2572568Y909320D02*
D03*
X2512568Y909320D02*
D03*
X2572568Y490220D02*
D03*
X2512568Y490220D02*
D03*
X2572568Y594360D02*
D03*
X2512568Y594360D02*
D03*
X2572568Y805180D02*
D03*
X2512568Y805180D02*
D03*
X2572568Y1229360D02*
D03*
X2512568Y1229360D02*
D03*
D82*
X655320Y1537970D02*
D03*
X2458560Y1151060D02*
D03*
Y1176460D02*
D03*
X2433160Y1227260D02*
D03*
Y1176460D02*
D03*
Y1151060D02*
D03*
Y1201860D02*
D03*
X2458560D02*
D03*
X596900Y1104900D02*
D03*
X571500D02*
D03*
X596900Y1155700D02*
D03*
X571500D02*
D03*
X596900Y1181100D02*
D03*
Y1130300D02*
D03*
X571500D02*
D03*
X596900Y1409700D02*
D03*
X571500Y1460500D02*
D03*
X571500Y1485900D02*
D03*
X596900Y1536700D02*
D03*
X596900Y1485900D02*
D03*
X596900Y1460500D02*
D03*
X596900Y1511300D02*
D03*
X571500Y1511300D02*
D03*
X596900Y1231900D02*
D03*
Y1054100D02*
D03*
X571500Y1282700D02*
D03*
X571500Y1308100D02*
D03*
X596900Y1358900D02*
D03*
X596900Y1308100D02*
D03*
X596900Y1282700D02*
D03*
X596900Y1333500D02*
D03*
X571500Y1333500D02*
D03*
X2457290Y560630D02*
D03*
X2431890D02*
D03*
Y509830D02*
D03*
Y535230D02*
D03*
Y586030D02*
D03*
X2457290Y535230D02*
D03*
Y509830D02*
D03*
X2457610Y880630D02*
D03*
X2432210D02*
D03*
Y829830D02*
D03*
Y855230D02*
D03*
Y906030D02*
D03*
X2457610Y855230D02*
D03*
Y829830D02*
D03*
X2457290Y1469830D02*
D03*
Y1495230D02*
D03*
X2431890Y1546030D02*
D03*
Y1495230D02*
D03*
Y1469830D02*
D03*
Y1520630D02*
D03*
X2457290D02*
D03*
D83*
X680720Y1537970D02*
D03*
X571500Y1409700D02*
D03*
Y1231900D02*
D03*
Y1054100D02*
D03*
D84*
X910900Y1506550D02*
D03*
X968700D02*
D03*
D85*
X896600Y1543050D02*
D03*
X983000D02*
D03*
X896600Y1501250D02*
D03*
X983000D02*
D03*
D86*
X2063750Y1262380D02*
D03*
X1424940Y1341120D02*
D03*
X598170Y168910D02*
D03*
X535000Y168068D02*
D03*
Y184068D02*
D03*
Y200068D02*
D03*
Y216068D02*
D03*
Y232068D02*
D03*
X535000Y422000D02*
D03*
Y406000D02*
D03*
Y390000D02*
D03*
Y374000D02*
D03*
Y358000D02*
D03*
Y612000D02*
D03*
Y596000D02*
D03*
Y580000D02*
D03*
Y564000D02*
D03*
Y548000D02*
D03*
Y1308000D02*
D03*
Y1324000D02*
D03*
Y1340000D02*
D03*
Y1356000D02*
D03*
Y1372000D02*
D03*
Y1118000D02*
D03*
Y1134000D02*
D03*
Y1150000D02*
D03*
Y1166000D02*
D03*
Y1182000D02*
D03*
Y928000D02*
D03*
Y944000D02*
D03*
Y960000D02*
D03*
Y976000D02*
D03*
Y992000D02*
D03*
Y738000D02*
D03*
Y754000D02*
D03*
Y770000D02*
D03*
Y786000D02*
D03*
Y802000D02*
D03*
Y1476772D02*
D03*
Y1492772D02*
D03*
Y1508772D02*
D03*
X1202700Y649709D02*
D03*
X745500D02*
D03*
D87*
X2457290Y1546030D02*
D03*
X2458560Y1227260D02*
D03*
X2457610Y906030D02*
D03*
X2457290Y586030D02*
D03*
X571500Y1181100D02*
D03*
Y1536700D02*
D03*
X571500Y1358900D02*
D03*
D88*
X1758200Y1393000D02*
D03*
X1809000D02*
D03*
X1783600Y1393000D02*
D03*
X1522200Y1392000D02*
D03*
X1573000D02*
D03*
X1547600D02*
D03*
X1906400Y1499000D02*
D03*
X1855600D02*
D03*
X1881000Y1499000D02*
D03*
X1648000Y1500000D02*
D03*
X1622600Y1500000D02*
D03*
X1673400Y1500000D02*
D03*
D89*
X1834400Y1393000D02*
D03*
X1598400Y1392000D02*
D03*
X1830200Y1499000D02*
D03*
X1597200Y1500000D02*
D03*
D90*
X2344760Y297260D02*
D03*
Y359260D02*
D03*
Y419260D02*
D03*
X2410760Y328260D02*
D03*
Y389260D02*
D03*
X2449760Y359260D02*
D03*
X2483760Y337260D02*
D03*
Y389260D02*
D03*
X2447260Y400260D02*
D03*
X2449760Y441260D02*
D03*
X2410760Y450260D02*
D03*
X2410760Y770300D02*
D03*
X2449760Y761300D02*
D03*
X2447260Y720300D02*
D03*
X2483760Y709300D02*
D03*
Y657300D02*
D03*
X2449760Y679300D02*
D03*
X2410760Y709300D02*
D03*
Y648300D02*
D03*
X2344760Y739300D02*
D03*
Y679300D02*
D03*
Y617300D02*
D03*
X2410760Y1085260D02*
D03*
X2449760Y1076260D02*
D03*
X2447260Y1035260D02*
D03*
X2483760Y1024260D02*
D03*
Y972260D02*
D03*
X2449760Y994260D02*
D03*
X2410760Y1024260D02*
D03*
Y963260D02*
D03*
X2344760Y1054260D02*
D03*
Y994260D02*
D03*
Y932260D02*
D03*
X2344611Y1256739D02*
D03*
Y1318739D02*
D03*
Y1378739D02*
D03*
X2410611Y1287739D02*
D03*
Y1348739D02*
D03*
X2449611Y1318739D02*
D03*
X2483611Y1296739D02*
D03*
Y1348739D02*
D03*
X2447111Y1359739D02*
D03*
X2449611Y1400739D02*
D03*
X2410611Y1409739D02*
D03*
D91*
X2524760Y429260D02*
D03*
X2524760Y749300D02*
D03*
Y1064260D02*
D03*
X2524611Y1388739D02*
D03*
D92*
X1722120Y325120D02*
D03*
X1400937Y357989D02*
D03*
X1384601D02*
D03*
X1400937Y469042D02*
D03*
X1587179Y799151D02*
D03*
X1588770Y866140D02*
D03*
X1602419Y846141D02*
D03*
X1605280Y824230D02*
D03*
X1775290Y263420D02*
D03*
X1762590D02*
D03*
X1737190D02*
D03*
X1749890Y263420D02*
D03*
X1677500Y301620D02*
D03*
X1664800D02*
D03*
X1690200Y344000D02*
D03*
Y261790D02*
D03*
X1762590Y342730D02*
D03*
X1632391Y257504D02*
D03*
X1617810Y261790D02*
D03*
X1604772D02*
D03*
X1815832Y198374D02*
D03*
X1871044Y189574D02*
D03*
X1630680Y303520D02*
D03*
X1618116Y303384D02*
D03*
X1605280Y303520D02*
D03*
X1696720Y230858D02*
D03*
X1678940Y213640D02*
D03*
X1592580Y303520D02*
D03*
X1592410Y261790D02*
D03*
X722480Y1238100D02*
D03*
X744220Y1353820D02*
D03*
X744220Y1465580D02*
D03*
X635086Y1373709D02*
D03*
X698500Y1398270D02*
D03*
X1203960Y1463040D02*
D03*
X1230630Y1118870D02*
D03*
X939800Y1458508D02*
D03*
X975360Y1477010D02*
D03*
X902970D02*
D03*
X2316320Y521260D02*
D03*
X910939Y1095870D02*
D03*
X1387000Y886287D02*
D03*
X2152970Y1039000D02*
D03*
X2157500Y1450848D02*
D03*
X2157730Y1544320D02*
D03*
X2150110Y379730D02*
D03*
X745490Y1297940D02*
D03*
X1349122Y1360638D02*
D03*
X2168000Y457000D02*
D03*
X2153398Y413149D02*
D03*
X2095000Y423000D02*
D03*
X2017000Y367000D02*
D03*
X1972000Y421000D02*
D03*
X2208058Y654804D02*
D03*
X2179160Y1021560D02*
D03*
X2170005Y1034260D02*
D03*
Y714260D02*
D03*
X2154384Y721000D02*
D03*
X1746000Y1213000D02*
D03*
X1736000Y1224000D02*
D03*
X1696000Y1260000D02*
D03*
X1685000Y1272000D02*
D03*
X1676000Y1285000D02*
D03*
X1560000Y1298000D02*
D03*
X1556000Y1245000D02*
D03*
Y1232000D02*
D03*
Y1257000D02*
D03*
X2169868Y1117227D02*
D03*
X2146300Y1130300D02*
D03*
X2108000Y1527000D02*
D03*
X2179160Y1341560D02*
D03*
X1937000Y1364000D02*
D03*
X2240703Y1340710D02*
D03*
X2242660Y1318700D02*
D03*
X1722000Y1355000D02*
D03*
X2047000Y1486000D02*
D03*
X1859600Y1399000D02*
D03*
X2084000Y1406000D02*
D03*
X2019000Y1319000D02*
D03*
X1999000Y1318000D02*
D03*
X1985000Y1367000D02*
D03*
X1984000Y1382000D02*
D03*
X1702000Y1377000D02*
D03*
X1936000Y1375000D02*
D03*
X1626600Y1400000D02*
D03*
X1568591Y1486881D02*
D03*
X1805000Y1493000D02*
D03*
X1711000Y1510078D02*
D03*
X1387000Y1481000D02*
D03*
X1395000Y876000D02*
D03*
X1304900Y1431900D02*
D03*
X794320Y1149050D02*
D03*
X1273000Y1521000D02*
D03*
X711200Y1432560D02*
D03*
X1411000Y945000D02*
D03*
X2208000Y284000D02*
D03*
X2313000Y283000D02*
D03*
X2329000Y282000D02*
D03*
X2329000Y604000D02*
D03*
X2313000Y605000D02*
D03*
X2208000Y606000D02*
D03*
X2329000Y923000D02*
D03*
X2313000Y924000D02*
D03*
X2208000Y925000D02*
D03*
X2313000Y1244000D02*
D03*
X2329000Y1243000D02*
D03*
X2208000Y1245000D02*
D03*
X1946000Y144000D02*
D03*
X2096000Y354000D02*
D03*
X2082000Y440000D02*
D03*
X1911000Y344000D02*
D03*
X1912000Y436000D02*
D03*
X1927000Y432000D02*
D03*
X1952000Y424000D02*
D03*
X1950000Y327000D02*
D03*
X2036000Y453000D02*
D03*
Y348000D02*
D03*
X1853000Y316000D02*
D03*
X2086000D02*
D03*
X1839000Y422000D02*
D03*
X1878200Y423200D02*
D03*
X1942500Y422272D02*
D03*
X1956550Y367222D02*
D03*
X2013850Y379922D02*
D03*
X1384156Y469042D02*
D03*
X1364000Y587000D02*
D03*
X1397741Y586661D02*
D03*
X1384508Y587760D02*
D03*
X1398707Y821142D02*
D03*
X1385984Y818758D02*
D03*
X1385000Y700000D02*
D03*
X1398949Y699949D02*
D03*
X2481264Y441527D02*
D03*
X2479294Y759460D02*
D03*
X2481580Y1076960D02*
D03*
X2504440Y1414780D02*
D03*
X2170005Y797227D02*
D03*
X2230120Y688340D02*
D03*
X2146637Y490220D02*
D03*
X2146300Y810260D02*
D03*
X2169539Y476128D02*
D03*
X2225975Y420560D02*
D03*
X2171540Y343460D02*
D03*
X2232660Y368300D02*
D03*
X2451100Y297180D02*
D03*
X2463800Y612140D02*
D03*
X2466340Y927100D02*
D03*
X2242660Y998700D02*
D03*
X2235040Y1031720D02*
D03*
X2227580Y1005840D02*
D03*
X2458413Y1249733D02*
D03*
X2484120Y1455420D02*
D03*
X2379980Y1473200D02*
D03*
X2168240Y1437227D02*
D03*
X1322074Y488242D02*
D03*
X1318226Y495359D02*
D03*
X1442720Y589280D02*
D03*
Y601980D02*
D03*
X1445260Y614680D02*
D03*
X1492080Y857080D02*
D03*
Y840550D02*
D03*
X1491120Y743070D02*
D03*
X1982068Y879971D02*
D03*
X1976120Y675640D02*
D03*
X1971040Y726440D02*
D03*
X1979449Y826289D02*
D03*
X1983552Y974325D02*
D03*
X1984237Y1026017D02*
D03*
X601884Y851220D02*
D03*
X772160Y784860D02*
D03*
X802588Y755300D02*
D03*
X764540Y1214120D02*
D03*
X631518Y1349046D02*
D03*
X627962Y1206059D02*
D03*
X609600Y982980D02*
D03*
X619760Y985520D02*
D03*
X623259Y1005005D02*
D03*
X610783Y873842D02*
D03*
X594360Y807720D02*
D03*
X607453Y825456D02*
D03*
X638747Y808978D02*
D03*
X594360Y982980D02*
D03*
X599440Y993140D02*
D03*
X581660Y586740D02*
D03*
X589280Y472440D02*
D03*
X701040D02*
D03*
X1244600Y495300D02*
D03*
X566420Y977900D02*
D03*
X669444Y1005165D02*
D03*
X561340Y838200D02*
D03*
X575169Y811389D02*
D03*
X571500Y563372D02*
D03*
X581660Y515620D02*
D03*
X588318Y623869D02*
D03*
X597663Y776506D02*
D03*
X600555Y788743D02*
D03*
X603893Y801648D02*
D03*
X655347Y1391913D02*
D03*
X1374140Y353060D02*
D03*
X1358900Y383540D02*
D03*
Y363220D02*
D03*
X1351280Y373380D02*
D03*
X1343660Y393700D02*
D03*
X1336040Y411480D02*
D03*
X758490Y813770D02*
D03*
X754380Y1270000D02*
D03*
X744220Y807720D02*
D03*
X802640Y690880D02*
D03*
X749300Y713740D02*
D03*
Y825500D02*
D03*
X1322058Y479367D02*
D03*
X1311223Y403710D02*
D03*
X1313775Y467463D02*
D03*
X1351280Y421640D02*
D03*
X1353820Y457200D02*
D03*
X1338580Y431800D02*
D03*
Y543560D02*
D03*
X1308100Y802640D02*
D03*
X709563Y1471563D02*
D03*
X1304900Y1472540D02*
D03*
X1256988Y1453540D02*
D03*
Y1412900D02*
D03*
X1249680Y1463040D02*
D03*
Y1422400D02*
D03*
X1338730Y443830D02*
D03*
X1313180Y1310640D02*
D03*
Y1193800D02*
D03*
X1311421Y1043159D02*
D03*
X1325880Y505460D02*
D03*
X1310640Y1130300D02*
D03*
X1320800Y515620D02*
D03*
X1308881Y1068559D02*
D03*
X1317357Y524877D02*
D03*
X1315720Y535940D02*
D03*
X1312833Y1013807D02*
D03*
X2227045Y315507D02*
D03*
X2242660Y358700D02*
D03*
X2179160Y381560D02*
D03*
X2229960Y1430460D02*
D03*
X2227044Y1275507D02*
D03*
X2339180Y1394900D02*
D03*
X2359500Y1397440D02*
D03*
X2384900Y1438080D02*
D03*
X2356960Y1478720D02*
D03*
X2336640Y1481260D02*
D03*
X2214125Y1481534D02*
D03*
X2212180Y1359340D02*
D03*
X2273140Y1346640D02*
D03*
X2400140Y1476180D02*
D03*
X2191860Y1364420D02*
D03*
X2198210Y1314046D02*
D03*
X2280760Y1397440D02*
D03*
X2306160Y1427920D02*
D03*
Y1412680D02*
D03*
X2303620Y1275520D02*
D03*
X2250280Y1295840D02*
D03*
X2290920Y1366960D02*
D03*
X2211098Y1499664D02*
D03*
X2317385Y1427920D02*
D03*
X2316320Y1481260D02*
D03*
X2235040Y1351720D02*
D03*
X2166460Y1354260D02*
D03*
X2207738Y1294804D02*
D03*
X2225975Y1380560D02*
D03*
X2228000Y1394276D02*
D03*
X2244565Y1289256D02*
D03*
X2242660Y1255200D02*
D03*
X2171540Y1303460D02*
D03*
X2316320Y1161260D02*
D03*
X2317385Y1107920D02*
D03*
X2228000Y1074276D02*
D03*
X2211098Y1179664D02*
D03*
X2242660Y935200D02*
D03*
X2244565Y969256D02*
D03*
X2227044Y955507D02*
D03*
X2306160Y1107920D02*
D03*
Y1092680D02*
D03*
X2171540Y983460D02*
D03*
X2303620Y955520D02*
D03*
X2225975Y1060560D02*
D03*
X2290920Y1046960D02*
D03*
X2280760Y1077440D02*
D03*
X2250280Y975840D02*
D03*
X2316640Y841260D02*
D03*
X2317705Y787920D02*
D03*
X2228320Y754276D02*
D03*
X2211418Y859664D02*
D03*
X2242980Y615200D02*
D03*
X2244885Y649256D02*
D03*
X2179480Y701560D02*
D03*
X2242980Y678700D02*
D03*
X2227365Y635507D02*
D03*
X2306480Y787920D02*
D03*
Y772680D02*
D03*
X2171860Y663460D02*
D03*
X2192180Y724420D02*
D03*
X2198530Y674046D02*
D03*
X2303940Y635520D02*
D03*
X2226295Y740560D02*
D03*
X2291240Y726960D02*
D03*
X2235360Y711720D02*
D03*
X2281080Y757440D02*
D03*
X2250600Y655840D02*
D03*
X2317385Y467920D02*
D03*
X2228000Y434276D02*
D03*
X2211098Y539664D02*
D03*
X2207738Y334804D02*
D03*
X2242660Y295200D02*
D03*
X2244565Y329256D02*
D03*
X2306160Y452680D02*
D03*
Y467920D02*
D03*
X2191860Y404420D02*
D03*
X2198210Y354046D02*
D03*
X2303620Y315520D02*
D03*
X2290920Y406960D02*
D03*
X2235040Y391720D02*
D03*
X2280760Y437440D02*
D03*
X2250280Y335840D02*
D03*
X2201228Y1043785D02*
D03*
X2207738Y974804D02*
D03*
X2204683Y992330D02*
D03*
D93*
X494730Y1080770D02*
D03*
X496000Y1196040D02*
D03*
X495000Y873040D02*
D03*
Y553040D02*
D03*
Y217040D02*
D03*
Y1402040D02*
D03*
X496000Y762040D02*
D03*
X495000Y441040D02*
D03*
D94*
X1703829Y587139D02*
D03*
X1721170Y543859D02*
D03*
D135*
X1775290Y282120D02*
D03*
Y321120D02*
D03*
X1762590Y282120D02*
D03*
Y321120D02*
D03*
X1749890Y282120D02*
D03*
Y321120D02*
D03*
X1737190Y282120D02*
D03*
Y321120D02*
D03*
X1592410D02*
D03*
Y282120D02*
D03*
X1605110Y321120D02*
D03*
Y282120D02*
D03*
X1617810Y321120D02*
D03*
Y282120D02*
D03*
X1630510Y321120D02*
D03*
Y282120D02*
D03*
X1664800Y321120D02*
D03*
Y282120D02*
D03*
X1677500Y321120D02*
D03*
Y282120D02*
D03*
X1690200Y321120D02*
D03*
Y282120D02*
D03*
X1702900Y321120D02*
D03*
Y282120D02*
D03*
D136*
X1740746Y1093280D02*
D03*
X1747096D02*
D03*
X1753700D02*
D03*
X1760050D02*
D03*
X1766654D02*
D03*
X1773258D02*
D03*
X1779608D02*
D03*
X1786212D02*
D03*
X1792562D02*
D03*
X1799166D02*
D03*
X1805770D02*
D03*
X1812120D02*
D03*
X1818724D02*
D03*
X1825074D02*
D03*
Y1019620D02*
D03*
X1818724D02*
D03*
X1812120D02*
D03*
X1805770D02*
D03*
X1799166D02*
D03*
X1792562D02*
D03*
X1786212D02*
D03*
X1779608D02*
D03*
X1773258D02*
D03*
X1766654D02*
D03*
X1760050D02*
D03*
X1753700D02*
D03*
X1747096D02*
D03*
X1740746D02*
D03*
X1741000Y812610D02*
D03*
X1747350D02*
D03*
X1753954D02*
D03*
X1760304D02*
D03*
X1766908D02*
D03*
X1773512D02*
D03*
X1779862D02*
D03*
X1786466D02*
D03*
X1792816D02*
D03*
X1799420D02*
D03*
X1806024D02*
D03*
X1812374D02*
D03*
X1818978D02*
D03*
X1825328D02*
D03*
Y886270D02*
D03*
X1818978D02*
D03*
X1812374D02*
D03*
X1806024D02*
D03*
X1799420D02*
D03*
X1792816D02*
D03*
X1786466D02*
D03*
X1779862D02*
D03*
X1773512D02*
D03*
X1766908D02*
D03*
X1760304D02*
D03*
X1753954D02*
D03*
X1747350D02*
D03*
X1741000D02*
D03*
X1740746Y618300D02*
D03*
X1747096D02*
D03*
X1753700D02*
D03*
X1760050D02*
D03*
X1766654D02*
D03*
X1773258D02*
D03*
X1779608D02*
D03*
X1786212D02*
D03*
X1792562D02*
D03*
X1799166D02*
D03*
X1805770D02*
D03*
X1812120D02*
D03*
X1818724D02*
D03*
X1825074D02*
D03*
Y691960D02*
D03*
X1818724D02*
D03*
X1812120D02*
D03*
X1805770D02*
D03*
X1799166D02*
D03*
X1792562D02*
D03*
X1786212D02*
D03*
X1779608D02*
D03*
X1773258D02*
D03*
X1766654D02*
D03*
X1760050D02*
D03*
X1753700D02*
D03*
X1747096D02*
D03*
X1740746D02*
D03*
D137*
X2289000Y1236000D02*
D03*
X2279500Y1216000D02*
D03*
X2298500D02*
D03*
X2289000Y916000D02*
D03*
X2279500Y896000D02*
D03*
X2298500D02*
D03*
X2289000Y597000D02*
D03*
X2279500Y577000D02*
D03*
X2298500D02*
D03*
X2289000Y275000D02*
D03*
X2279500Y255000D02*
D03*
X2298500D02*
D03*
D138*
X2242000Y1217000D02*
D03*
Y1238000D02*
D03*
X2241000Y897500D02*
D03*
Y918500D02*
D03*
X2240000Y576500D02*
D03*
Y597500D02*
D03*
X2240994Y255501D02*
D03*
Y276501D02*
D03*
D139*
X2067000Y343000D02*
D03*
Y316800D02*
D03*
X1892000Y397000D02*
D03*
Y423200D02*
D03*
D140*
X1975500Y326272D02*
D03*
X2036000D02*
D03*
X2037500Y272272D02*
D03*
X1977000D02*
D03*
D141*
X2486660Y203540D02*
D03*
Y307680D02*
D03*
X2486660Y1153500D02*
D03*
X2486660Y942680D02*
D03*
X2486660Y523580D02*
D03*
Y627720D02*
D03*
Y838540D02*
D03*
X2486660Y1262720D02*
D03*
D142*
X2546840Y205680D02*
D03*
X2582840D02*
D03*
X2504840Y134680D02*
D03*
X2574840Y134680D02*
D03*
Y238820D02*
D03*
X2504840Y238820D02*
D03*
X2582840Y309820D02*
D03*
X2546840D02*
D03*
X2574840Y1084640D02*
D03*
X2504840Y1084640D02*
D03*
X2582840Y1155640D02*
D03*
X2546840D02*
D03*
X2574840Y873820D02*
D03*
X2504840Y873820D02*
D03*
X2582840Y944820D02*
D03*
X2546840D02*
D03*
X2574840Y454720D02*
D03*
X2504840Y454720D02*
D03*
X2582840Y525720D02*
D03*
X2546840D02*
D03*
X2574840Y558860D02*
D03*
X2504840Y558860D02*
D03*
X2582840Y629860D02*
D03*
X2546840D02*
D03*
X2574840Y769680D02*
D03*
X2504840Y769680D02*
D03*
X2582840Y840680D02*
D03*
X2546840D02*
D03*
X2574840Y1193860D02*
D03*
X2504840Y1193860D02*
D03*
X2582840Y1264860D02*
D03*
X2546840D02*
D03*
D143*
X2253140Y740560D02*
D03*
X2265840D02*
D03*
X2278540D02*
D03*
X2291240D02*
D03*
Y686320D02*
D03*
X2278540D02*
D03*
X2265840D02*
D03*
X2253140D02*
D03*
X2252820Y420560D02*
D03*
X2265520D02*
D03*
X2278220D02*
D03*
X2290920D02*
D03*
Y366320D02*
D03*
X2278220D02*
D03*
X2265520D02*
D03*
X2252820D02*
D03*
X2179160Y366320D02*
D03*
X2191860D02*
D03*
X2204560D02*
D03*
X2217260D02*
D03*
Y420560D02*
D03*
X2204560D02*
D03*
X2191860D02*
D03*
X2179160D02*
D03*
X2252820Y1060560D02*
D03*
X2265520D02*
D03*
X2278220D02*
D03*
X2290920D02*
D03*
Y1006320D02*
D03*
X2278220D02*
D03*
X2265520D02*
D03*
X2252820D02*
D03*
Y1326320D02*
D03*
X2265520D02*
D03*
X2278220D02*
D03*
X2290920D02*
D03*
Y1380560D02*
D03*
X2278220D02*
D03*
X2265520D02*
D03*
X2252820D02*
D03*
X2179480Y686320D02*
D03*
X2192180D02*
D03*
X2204880D02*
D03*
X2217580D02*
D03*
Y740560D02*
D03*
X2204880D02*
D03*
X2192180D02*
D03*
X2179480D02*
D03*
X2179160Y1060560D02*
D03*
X2191860D02*
D03*
X2204560D02*
D03*
X2217260D02*
D03*
Y1006320D02*
D03*
X2204560D02*
D03*
X2191860D02*
D03*
X2179160D02*
D03*
Y1326320D02*
D03*
X2191860D02*
D03*
X2204560D02*
D03*
X2217260D02*
D03*
Y1380560D02*
D03*
X2204560D02*
D03*
X2191860D02*
D03*
X2179160D02*
D03*
D144*
X2183440Y1118530D02*
D03*
X2040140Y1025990D02*
D03*
X2013940D02*
D03*
X2040140Y973920D02*
D03*
X2013940D02*
D03*
X2040140Y879940D02*
D03*
X2013940D02*
D03*
X2032520Y726930D02*
D03*
X2006320D02*
D03*
X2040140Y826600D02*
D03*
X2013940D02*
D03*
X2032050Y674860D02*
D03*
X2005850Y674860D02*
D03*
X2312040Y503930D02*
D03*
X2285840Y503930D02*
D03*
X2226620D02*
D03*
X2252820D02*
D03*
X2183440Y478530D02*
D03*
X2209640D02*
D03*
X2312360Y823930D02*
D03*
X2286160D02*
D03*
X2285840Y1143930D02*
D03*
X2312040D02*
D03*
Y1463930D02*
D03*
X2285840D02*
D03*
X2226940Y823930D02*
D03*
X2253140D02*
D03*
X2252820Y1143930D02*
D03*
X2226620D02*
D03*
Y1463930D02*
D03*
X2252820D02*
D03*
X2183760Y798530D02*
D03*
X2209960D02*
D03*
X2209640Y1118530D02*
D03*
X2183440Y1438530D02*
D03*
X2209640D02*
D03*
X2184620Y554280D02*
D03*
X2210820D02*
D03*
X2184940Y874280D02*
D03*
X2211140D02*
D03*
X2184620Y1194280D02*
D03*
X2210820D02*
D03*
X2184620Y1514280D02*
D03*
X2210820D02*
D03*
D145*
X1721170Y576390D02*
D03*
X1704170D02*
D03*
X1721170Y554390D02*
D03*
X1704170D02*
D03*
D146*
X1410800Y929450D02*
D03*
Y810070D02*
D03*
D147*
X1387900Y862450D02*
D03*
X1410800Y862450D02*
D03*
X1433700Y862450D02*
D03*
Y743070D02*
D03*
X1410800D02*
D03*
X1387900D02*
D03*
D148*
X1416770Y840550D02*
D03*
X1432770D02*
D03*
X1381590Y840550D02*
D03*
X1397590D02*
D03*
X1380830Y721170D02*
D03*
X1396830Y721170D02*
D03*
X1737700Y984060D02*
D03*
X1753700D02*
D03*
X1834470Y986600D02*
D03*
X1818470D02*
D03*
X1719410Y1078040D02*
D03*
X1703410D02*
D03*
X1845140Y1076770D02*
D03*
X1861140D02*
D03*
X1703790Y597980D02*
D03*
X1719790Y597980D02*
D03*
X1721060Y533210D02*
D03*
X1705060Y533210D02*
D03*
X1738970Y778320D02*
D03*
X1754970D02*
D03*
X1834724Y779590D02*
D03*
X1818724D02*
D03*
X1834470Y585280D02*
D03*
X1818470D02*
D03*
X1719664Y871030D02*
D03*
X1703664D02*
D03*
X1719410Y676720D02*
D03*
X1703410D02*
D03*
X1845394Y869760D02*
D03*
X1861394D02*
D03*
X1845140Y675450D02*
D03*
X1861140D02*
D03*
X1417150Y721170D02*
D03*
X1433150Y721170D02*
D03*
X2180430Y314700D02*
D03*
X2196430D02*
D03*
X2180750Y634700D02*
D03*
X2196750D02*
D03*
X2196430Y954700D02*
D03*
X2180430D02*
D03*
Y1274700D02*
D03*
X2196430D02*
D03*
D149*
X1761700Y1134410D02*
D03*
X1753700D02*
D03*
X1777700D02*
D03*
X1769700D02*
D03*
Y1117410D02*
D03*
X1777700D02*
D03*
X1753700D02*
D03*
X1761700D02*
D03*
X1761954Y927400D02*
D03*
X1753954D02*
D03*
X1777954D02*
D03*
X1769954D02*
D03*
Y910400D02*
D03*
X1777954D02*
D03*
X1753954D02*
D03*
X1761954Y910400D02*
D03*
X1769700Y716090D02*
D03*
X1777700D02*
D03*
X1753700D02*
D03*
X1761700D02*
D03*
Y733090D02*
D03*
X1753700D02*
D03*
X1777700D02*
D03*
X1769700D02*
D03*
D150*
X1739984Y925040D02*
D03*
Y913540D02*
D03*
X1739730Y730730D02*
D03*
Y719230D02*
D03*
D151*
X1789260Y1123670D02*
D03*
Y1114870D02*
D03*
X1789514Y916660D02*
D03*
Y907860D02*
D03*
X1789260Y722350D02*
D03*
Y713550D02*
D03*
D152*
X2214210Y312160D02*
D03*
X2245710D02*
D03*
X2214530Y632160D02*
D03*
X2246030D02*
D03*
X2245710Y952160D02*
D03*
X2214210D02*
D03*
Y1272160D02*
D03*
X2245710D02*
D03*
D153*
X2267720Y295650D02*
D03*
X2288720D02*
D03*
X2268040Y615650D02*
D03*
X2289040D02*
D03*
X2288720Y935650D02*
D03*
X2267720D02*
D03*
Y1255650D02*
D03*
X2288720D02*
D03*
D154*
X1772750Y779590D02*
D03*
M02*
