G04*
G04 #@! TF.GenerationSoftware,Altium Limited,Altium Designer,20.2.7 (254)*
G04*
G04 Layer_Physical_Order=3*
G04 Layer_Color=16440176*
%FSLAX44Y44*%
%MOMM*%
G71*
G04*
G04 #@! TF.SameCoordinates,F75D2D2C-83ED-4C86-80AB-8EBB9ED98378*
G04*
G04*
G04 #@! TF.FilePolarity,Positive*
G04*
G01*
G75*
%ADD100C,1.5240*%
%ADD112C,0.6096*%
%ADD113C,0.6000*%
G36*
X1787000Y1403214D02*
X1785730Y1402423D01*
X1784350Y1402604D01*
Y1393000D01*
Y1383396D01*
X1785730Y1383578D01*
X1787000Y1382786D01*
Y120918D01*
X1365000D01*
Y582537D01*
X1365784Y582693D01*
X1367296Y583704D01*
X1368307Y585216D01*
X1368662Y587000D01*
X1368307Y588784D01*
X1367296Y590296D01*
X1365784Y591307D01*
X1365000Y591463D01*
Y1555922D01*
X1787000D01*
Y1403214D01*
D02*
G37*
%LPC*%
G36*
X1434000Y1543070D02*
X1431911Y1542795D01*
X1429965Y1541989D01*
X1428294Y1540706D01*
X1427011Y1539035D01*
X1426205Y1537089D01*
X1425930Y1535000D01*
X1426205Y1532911D01*
X1427011Y1530965D01*
X1428294Y1529294D01*
X1429965Y1528011D01*
X1431911Y1527205D01*
X1434000Y1526930D01*
X1436089Y1527205D01*
X1438035Y1528011D01*
X1439706Y1529294D01*
X1440989Y1530965D01*
X1441795Y1532911D01*
X1442070Y1535000D01*
X1441795Y1537089D01*
X1440989Y1539035D01*
X1439706Y1540706D01*
X1438035Y1541989D01*
X1436089Y1542795D01*
X1434000Y1543070D01*
D02*
G37*
G36*
X1711000Y1514740D02*
X1709216Y1514385D01*
X1707704Y1513374D01*
X1706693Y1511862D01*
X1706339Y1510078D01*
X1706693Y1508294D01*
X1707704Y1506782D01*
X1709216Y1505771D01*
X1711000Y1505417D01*
X1712784Y1505771D01*
X1714296Y1506782D01*
X1715307Y1508294D01*
X1715662Y1510078D01*
X1715307Y1511862D01*
X1714296Y1513374D01*
X1712784Y1514385D01*
X1711000Y1514740D01*
D02*
G37*
G36*
X1648750Y1509604D02*
Y1500750D01*
X1657604D01*
X1657372Y1502511D01*
X1656403Y1504852D01*
X1654861Y1506861D01*
X1652852Y1508403D01*
X1650511Y1509372D01*
X1648750Y1509604D01*
D02*
G37*
G36*
X1647250D02*
X1645489Y1509372D01*
X1643149Y1508403D01*
X1641139Y1506861D01*
X1639597Y1504852D01*
X1638628Y1502511D01*
X1638396Y1500750D01*
X1647250D01*
Y1509604D01*
D02*
G37*
G36*
X1606344Y1509144D02*
X1588056D01*
Y1490856D01*
X1606344D01*
Y1509144D01*
D02*
G37*
G36*
X1622600Y1509223D02*
X1620213Y1508909D01*
X1617989Y1507987D01*
X1616078Y1506522D01*
X1614613Y1504612D01*
X1613692Y1502387D01*
X1613377Y1500000D01*
X1613692Y1497613D01*
X1614613Y1495389D01*
X1616078Y1493479D01*
X1617989Y1492013D01*
X1620213Y1491091D01*
X1622600Y1490777D01*
X1624987Y1491091D01*
X1627212Y1492013D01*
X1629122Y1493479D01*
X1630587Y1495389D01*
X1631509Y1497613D01*
X1631823Y1500000D01*
X1631509Y1502387D01*
X1630587Y1504612D01*
X1629122Y1506522D01*
X1627212Y1507987D01*
X1624987Y1508909D01*
X1622600Y1509223D01*
D02*
G37*
G36*
X1673400Y1509223D02*
X1671013Y1508909D01*
X1668789Y1507987D01*
X1666879Y1506522D01*
X1665413Y1504612D01*
X1664491Y1502387D01*
X1664177Y1500000D01*
X1664491Y1497613D01*
X1665413Y1495389D01*
X1666879Y1493479D01*
X1668789Y1492013D01*
X1671013Y1491091D01*
X1673400Y1490777D01*
X1675787Y1491091D01*
X1678011Y1492013D01*
X1679922Y1493479D01*
X1681387Y1495389D01*
X1682309Y1497613D01*
X1682623Y1500000D01*
X1682309Y1502387D01*
X1681387Y1504612D01*
X1679922Y1506522D01*
X1678011Y1507987D01*
X1675787Y1508909D01*
X1673400Y1509223D01*
D02*
G37*
G36*
X1657604Y1499250D02*
X1648750D01*
Y1490396D01*
X1650511Y1490628D01*
X1652852Y1491597D01*
X1654861Y1493139D01*
X1656403Y1495148D01*
X1657372Y1497489D01*
X1657604Y1499250D01*
D02*
G37*
G36*
X1647250D02*
X1638396D01*
X1638628Y1497489D01*
X1639597Y1495148D01*
X1641139Y1493139D01*
X1643149Y1491597D01*
X1645489Y1490628D01*
X1647250Y1490396D01*
Y1499250D01*
D02*
G37*
G36*
X1387000Y1485662D02*
X1385216Y1485307D01*
X1383704Y1484296D01*
X1382693Y1482784D01*
X1382339Y1481000D01*
X1382693Y1479216D01*
X1383704Y1477704D01*
X1385216Y1476693D01*
X1387000Y1476339D01*
X1388784Y1476693D01*
X1390296Y1477704D01*
X1391307Y1479216D01*
X1391662Y1481000D01*
X1391307Y1482784D01*
X1390296Y1484296D01*
X1388784Y1485307D01*
X1387000Y1485662D01*
D02*
G37*
G36*
X1434000Y1483070D02*
X1431911Y1482795D01*
X1429965Y1481989D01*
X1428294Y1480706D01*
X1427011Y1479035D01*
X1426205Y1477089D01*
X1425930Y1475000D01*
X1426205Y1472911D01*
X1427011Y1470965D01*
X1428294Y1469294D01*
X1429965Y1468011D01*
X1431911Y1467205D01*
X1434000Y1466930D01*
X1436089Y1467205D01*
X1438035Y1468011D01*
X1439706Y1469294D01*
X1440989Y1470965D01*
X1441795Y1472911D01*
X1442070Y1475000D01*
X1441795Y1477089D01*
X1440989Y1479035D01*
X1439706Y1480706D01*
X1438035Y1481989D01*
X1436089Y1482795D01*
X1434000Y1483070D01*
D02*
G37*
G36*
X1782850Y1402604D02*
X1781089Y1402372D01*
X1778749Y1401403D01*
X1776739Y1399861D01*
X1775197Y1397852D01*
X1774228Y1395511D01*
X1773996Y1393750D01*
X1782850D01*
Y1402604D01*
D02*
G37*
G36*
X1548350Y1401604D02*
Y1392750D01*
X1557204D01*
X1556973Y1394511D01*
X1556003Y1396852D01*
X1554461Y1398861D01*
X1552452Y1400403D01*
X1550111Y1401372D01*
X1548350Y1401604D01*
D02*
G37*
G36*
X1546850Y1401604D02*
X1545089Y1401372D01*
X1542749Y1400403D01*
X1540739Y1398861D01*
X1539197Y1396852D01*
X1538228Y1394511D01*
X1537996Y1392750D01*
X1546850D01*
Y1401604D01*
D02*
G37*
G36*
X1758200Y1402223D02*
X1755813Y1401909D01*
X1753589Y1400987D01*
X1751678Y1399522D01*
X1750213Y1397612D01*
X1749292Y1395387D01*
X1748977Y1393000D01*
X1749292Y1390613D01*
X1750213Y1388389D01*
X1751678Y1386478D01*
X1753589Y1385013D01*
X1755813Y1384091D01*
X1758200Y1383777D01*
X1760587Y1384091D01*
X1762812Y1385013D01*
X1764722Y1386478D01*
X1766187Y1388389D01*
X1767109Y1390613D01*
X1767423Y1393000D01*
X1767109Y1395387D01*
X1766187Y1397612D01*
X1764722Y1399522D01*
X1762812Y1400987D01*
X1760587Y1401909D01*
X1758200Y1402223D01*
D02*
G37*
G36*
X1782850Y1392250D02*
X1773996D01*
X1774228Y1390489D01*
X1775197Y1388149D01*
X1776739Y1386139D01*
X1778749Y1384597D01*
X1781089Y1383628D01*
X1782850Y1383396D01*
Y1392250D01*
D02*
G37*
G36*
X1607544Y1401144D02*
X1589256D01*
Y1382856D01*
X1607544D01*
Y1401144D01*
D02*
G37*
G36*
X1573000Y1401223D02*
X1570613Y1400909D01*
X1568389Y1399987D01*
X1566478Y1398522D01*
X1565013Y1396611D01*
X1564091Y1394387D01*
X1563777Y1392000D01*
X1564091Y1389613D01*
X1565013Y1387389D01*
X1566478Y1385479D01*
X1568389Y1384013D01*
X1570613Y1383091D01*
X1573000Y1382777D01*
X1575387Y1383091D01*
X1577612Y1384013D01*
X1579522Y1385479D01*
X1580987Y1387389D01*
X1581909Y1389613D01*
X1582223Y1392000D01*
X1581909Y1394387D01*
X1580987Y1396611D01*
X1579522Y1398522D01*
X1577612Y1399987D01*
X1575387Y1400909D01*
X1573000Y1401223D01*
D02*
G37*
G36*
X1522200D02*
X1519813Y1400909D01*
X1517589Y1399987D01*
X1515679Y1398522D01*
X1514213Y1396611D01*
X1513291Y1394387D01*
X1512977Y1392000D01*
X1513291Y1389613D01*
X1514213Y1387389D01*
X1515679Y1385479D01*
X1517589Y1384013D01*
X1519813Y1383091D01*
X1522200Y1382777D01*
X1524587Y1383091D01*
X1526812Y1384013D01*
X1528722Y1385479D01*
X1530187Y1387389D01*
X1531109Y1389613D01*
X1531423Y1392000D01*
X1531109Y1394387D01*
X1530187Y1396611D01*
X1528722Y1398522D01*
X1526812Y1399987D01*
X1524587Y1400909D01*
X1522200Y1401223D01*
D02*
G37*
G36*
X1546850Y1391250D02*
X1537996D01*
X1538228Y1389489D01*
X1539197Y1387148D01*
X1540739Y1385139D01*
X1542749Y1383597D01*
X1545089Y1382628D01*
X1546850Y1382396D01*
Y1391250D01*
D02*
G37*
G36*
X1557204D02*
X1548350D01*
Y1382396D01*
X1550111Y1382628D01*
X1552452Y1383597D01*
X1554461Y1385139D01*
X1556003Y1387148D01*
X1556973Y1389489D01*
X1557204Y1391250D01*
D02*
G37*
G36*
X1722000Y1359662D02*
X1720216Y1359307D01*
X1718704Y1358296D01*
X1717693Y1356784D01*
X1717339Y1355000D01*
X1717693Y1353216D01*
X1718704Y1351704D01*
X1720216Y1350693D01*
X1722000Y1350338D01*
X1723784Y1350693D01*
X1725296Y1351704D01*
X1726307Y1353216D01*
X1726662Y1355000D01*
X1726307Y1356784D01*
X1725296Y1358296D01*
X1723784Y1359307D01*
X1722000Y1359662D01*
D02*
G37*
G36*
X1424940Y1358729D02*
X1421505Y1358390D01*
X1418201Y1357388D01*
X1415157Y1355761D01*
X1412489Y1353571D01*
X1410299Y1350903D01*
X1408672Y1347859D01*
X1407670Y1344555D01*
X1407331Y1341120D01*
X1407670Y1337685D01*
X1408672Y1334381D01*
X1410299Y1331337D01*
X1412489Y1328669D01*
X1415157Y1326479D01*
X1418201Y1324852D01*
X1421505Y1323850D01*
X1424940Y1323511D01*
X1428375Y1323850D01*
X1431679Y1324852D01*
X1434723Y1326479D01*
X1437391Y1328669D01*
X1439581Y1331337D01*
X1441208Y1334381D01*
X1442210Y1337685D01*
X1442549Y1341120D01*
X1442210Y1344555D01*
X1441208Y1347859D01*
X1439581Y1350903D01*
X1437391Y1353571D01*
X1434723Y1355761D01*
X1431679Y1357388D01*
X1428375Y1358390D01*
X1424940Y1358729D01*
D02*
G37*
G36*
X1560000Y1302662D02*
X1558216Y1302307D01*
X1556704Y1301296D01*
X1555693Y1299784D01*
X1555338Y1298000D01*
X1555693Y1296216D01*
X1556704Y1294704D01*
X1558216Y1293693D01*
X1560000Y1293338D01*
X1561784Y1293693D01*
X1563296Y1294704D01*
X1564307Y1296216D01*
X1564662Y1298000D01*
X1564307Y1299784D01*
X1563296Y1301296D01*
X1561784Y1302307D01*
X1560000Y1302662D01*
D02*
G37*
G36*
X1676000Y1289662D02*
X1674216Y1289307D01*
X1672704Y1288296D01*
X1671693Y1286784D01*
X1671339Y1285000D01*
X1671693Y1283216D01*
X1672704Y1281704D01*
X1674216Y1280693D01*
X1676000Y1280338D01*
X1677784Y1280693D01*
X1679296Y1281704D01*
X1680307Y1283216D01*
X1680662Y1285000D01*
X1680307Y1286784D01*
X1679296Y1288296D01*
X1677784Y1289307D01*
X1676000Y1289662D01*
D02*
G37*
G36*
X1685000Y1276662D02*
X1683216Y1276307D01*
X1681704Y1275296D01*
X1680693Y1273784D01*
X1680338Y1272000D01*
X1680693Y1270216D01*
X1681704Y1268704D01*
X1683216Y1267693D01*
X1685000Y1267338D01*
X1686784Y1267693D01*
X1688296Y1268704D01*
X1689307Y1270216D01*
X1689662Y1272000D01*
X1689307Y1273784D01*
X1688296Y1275296D01*
X1686784Y1276307D01*
X1685000Y1276662D01*
D02*
G37*
G36*
X1696000Y1264662D02*
X1694216Y1264307D01*
X1692704Y1263296D01*
X1691693Y1261784D01*
X1691339Y1260000D01*
X1691693Y1258216D01*
X1692704Y1256704D01*
X1694216Y1255693D01*
X1696000Y1255339D01*
X1697784Y1255693D01*
X1699296Y1256704D01*
X1700307Y1258216D01*
X1700662Y1260000D01*
X1700307Y1261784D01*
X1699296Y1263296D01*
X1697784Y1264307D01*
X1696000Y1264662D01*
D02*
G37*
G36*
X1556000Y1261662D02*
X1554216Y1261307D01*
X1552704Y1260296D01*
X1551693Y1258784D01*
X1551339Y1257000D01*
X1551693Y1255216D01*
X1552704Y1253704D01*
X1554216Y1252693D01*
X1556000Y1252338D01*
X1557784Y1252693D01*
X1559296Y1253704D01*
X1560307Y1255216D01*
X1560662Y1257000D01*
X1560307Y1258784D01*
X1559296Y1260296D01*
X1557784Y1261307D01*
X1556000Y1261662D01*
D02*
G37*
G36*
Y1249662D02*
X1554216Y1249307D01*
X1552704Y1248296D01*
X1551693Y1246784D01*
X1551339Y1245000D01*
X1551693Y1243216D01*
X1552704Y1241704D01*
X1554216Y1240693D01*
X1556000Y1240339D01*
X1557784Y1240693D01*
X1559296Y1241704D01*
X1560307Y1243216D01*
X1560662Y1245000D01*
X1560307Y1246784D01*
X1559296Y1248296D01*
X1557784Y1249307D01*
X1556000Y1249662D01*
D02*
G37*
G36*
Y1236662D02*
X1554216Y1236307D01*
X1552704Y1235296D01*
X1551693Y1233784D01*
X1551339Y1232000D01*
X1551693Y1230216D01*
X1552704Y1228704D01*
X1554216Y1227693D01*
X1556000Y1227338D01*
X1557784Y1227693D01*
X1559296Y1228704D01*
X1560307Y1230216D01*
X1560662Y1232000D01*
X1560307Y1233784D01*
X1559296Y1235296D01*
X1557784Y1236307D01*
X1556000Y1236662D01*
D02*
G37*
G36*
X1736000Y1228662D02*
X1734216Y1228307D01*
X1732704Y1227296D01*
X1731693Y1225784D01*
X1731339Y1224000D01*
X1731693Y1222216D01*
X1732704Y1220704D01*
X1734216Y1219693D01*
X1736000Y1219339D01*
X1737784Y1219693D01*
X1739296Y1220704D01*
X1740307Y1222216D01*
X1740662Y1224000D01*
X1740307Y1225784D01*
X1739296Y1227296D01*
X1737784Y1228307D01*
X1736000Y1228662D01*
D02*
G37*
G36*
X1746000Y1217662D02*
X1744216Y1217307D01*
X1742704Y1216296D01*
X1741693Y1214784D01*
X1741339Y1213000D01*
X1741693Y1211216D01*
X1742704Y1209704D01*
X1744216Y1208693D01*
X1746000Y1208338D01*
X1747784Y1208693D01*
X1749296Y1209704D01*
X1750307Y1211216D01*
X1750662Y1213000D01*
X1750307Y1214784D01*
X1749296Y1216296D01*
X1747784Y1217307D01*
X1746000Y1217662D01*
D02*
G37*
G36*
X1777830Y1160123D02*
X1776065Y1159771D01*
X1774568Y1158772D01*
X1773569Y1157275D01*
X1773217Y1155510D01*
X1773569Y1153745D01*
X1774568Y1152248D01*
X1776065Y1151248D01*
X1777830Y1150897D01*
X1779595Y1151248D01*
X1781092Y1152248D01*
X1782092Y1153745D01*
X1782443Y1155510D01*
X1782092Y1157275D01*
X1781092Y1158772D01*
X1779595Y1159771D01*
X1777830Y1160123D01*
D02*
G37*
G36*
X1761320D02*
X1759555Y1159771D01*
X1758058Y1158772D01*
X1757059Y1157275D01*
X1756707Y1155510D01*
X1757059Y1153745D01*
X1758058Y1152248D01*
X1759555Y1151248D01*
X1761320Y1150897D01*
X1763085Y1151248D01*
X1764582Y1152248D01*
X1765582Y1153745D01*
X1765933Y1155510D01*
X1765582Y1157275D01*
X1764582Y1158772D01*
X1763085Y1159771D01*
X1761320Y1160123D01*
D02*
G37*
G36*
X1752992Y1149400D02*
X1751227Y1149049D01*
X1749731Y1148049D01*
X1748731Y1146553D01*
X1748380Y1144788D01*
X1748731Y1143023D01*
X1749731Y1141526D01*
X1751227Y1140526D01*
X1752992Y1140175D01*
X1754757Y1140526D01*
X1756254Y1141526D01*
X1757254Y1143023D01*
X1757605Y1144788D01*
X1757254Y1146553D01*
X1756254Y1148049D01*
X1754757Y1149049D01*
X1752992Y1149400D01*
D02*
G37*
G36*
X1770332Y1147880D02*
X1768567Y1147529D01*
X1767071Y1146529D01*
X1766071Y1145033D01*
X1765720Y1143268D01*
X1766071Y1141502D01*
X1767071Y1140006D01*
X1768567Y1139006D01*
X1770332Y1138655D01*
X1772097Y1139006D01*
X1773594Y1140006D01*
X1774594Y1141502D01*
X1774945Y1143268D01*
X1774594Y1145033D01*
X1773594Y1146529D01*
X1772097Y1147529D01*
X1770332Y1147880D01*
D02*
G37*
G36*
X1604265Y1138686D02*
X1602500Y1138335D01*
X1601004Y1137335D01*
X1600004Y1135838D01*
X1599653Y1134073D01*
X1600004Y1132308D01*
X1601004Y1130812D01*
X1602500Y1129812D01*
X1604265Y1129461D01*
X1606031Y1129812D01*
X1607005Y1130463D01*
X1608374Y1130002D01*
X1608396Y1129981D01*
X1608468Y1129615D01*
X1609468Y1128118D01*
X1610965Y1127119D01*
X1612730Y1126767D01*
X1614495Y1127119D01*
X1614861Y1127363D01*
X1616272Y1126779D01*
X1616358Y1126347D01*
X1617358Y1124850D01*
X1618855Y1123850D01*
X1620620Y1123499D01*
X1622385Y1123850D01*
X1622751Y1124095D01*
X1624162Y1123511D01*
X1624248Y1123079D01*
X1625248Y1121582D01*
X1626745Y1120582D01*
X1628510Y1120231D01*
X1630275Y1120582D01*
X1631772Y1121582D01*
X1632771Y1123079D01*
X1633123Y1124844D01*
X1632771Y1126609D01*
X1631772Y1128105D01*
X1630275Y1129105D01*
X1628510Y1129456D01*
X1626745Y1129105D01*
X1626379Y1128861D01*
X1624967Y1129445D01*
X1624881Y1129877D01*
X1623882Y1131374D01*
X1622385Y1132373D01*
X1620620Y1132725D01*
X1618855Y1132373D01*
X1618489Y1132129D01*
X1617077Y1132713D01*
X1616991Y1133145D01*
X1615992Y1134642D01*
X1614495Y1135641D01*
X1612730Y1135993D01*
X1610965Y1135641D01*
X1609991Y1134990D01*
X1608622Y1135452D01*
X1608600Y1135472D01*
X1608527Y1135838D01*
X1607527Y1137335D01*
X1606031Y1138335D01*
X1604265Y1138686D01*
D02*
G37*
G36*
X1731856Y1061063D02*
X1730091Y1060712D01*
X1728594Y1059712D01*
X1727594Y1058215D01*
X1727243Y1056450D01*
X1727594Y1054685D01*
X1728594Y1053188D01*
X1730091Y1052188D01*
X1731856Y1051837D01*
X1733621Y1052188D01*
X1735118Y1053188D01*
X1736118Y1054685D01*
X1736469Y1056450D01*
X1736118Y1058215D01*
X1735118Y1059712D01*
X1733621Y1060712D01*
X1731856Y1061063D01*
D02*
G37*
G36*
X1571732Y1060795D02*
X1569966Y1060443D01*
X1568470Y1059444D01*
X1567470Y1057947D01*
X1567119Y1056182D01*
X1567470Y1054417D01*
X1568470Y1052920D01*
X1569966Y1051920D01*
X1571732Y1051569D01*
X1573497Y1051920D01*
X1574993Y1052920D01*
X1575993Y1054417D01*
X1576344Y1056182D01*
X1575993Y1057947D01*
X1574993Y1059444D01*
X1573497Y1060443D01*
X1571732Y1060795D01*
D02*
G37*
G36*
X1683850Y1008993D02*
X1682085Y1008642D01*
X1680588Y1007642D01*
X1679588Y1006145D01*
X1679237Y1004380D01*
X1679588Y1002615D01*
X1680588Y1001118D01*
X1682085Y1000118D01*
X1683850Y999767D01*
X1685615Y1000118D01*
X1687112Y1001118D01*
X1688112Y1002615D01*
X1688463Y1004380D01*
X1688112Y1006145D01*
X1687112Y1007642D01*
X1685615Y1008642D01*
X1683850Y1008993D01*
D02*
G37*
G36*
X1767416D02*
X1765651Y1008642D01*
X1764154Y1007642D01*
X1763154Y1006145D01*
X1762803Y1004380D01*
X1763154Y1002615D01*
X1764154Y1001118D01*
X1765651Y1000118D01*
X1767416Y999767D01*
X1769181Y1000118D01*
X1769308Y1000203D01*
X1770451Y999440D01*
X1770423Y999300D01*
X1770775Y997535D01*
X1771774Y996038D01*
X1773271Y995039D01*
X1775036Y994687D01*
X1776801Y995039D01*
X1778298Y996038D01*
X1779297Y997535D01*
X1779649Y999300D01*
X1779297Y1001065D01*
X1778298Y1002562D01*
X1776801Y1003561D01*
X1775036Y1003913D01*
X1773271Y1003561D01*
X1773144Y1003477D01*
X1772001Y1004240D01*
X1772029Y1004380D01*
X1771678Y1006145D01*
X1770678Y1007642D01*
X1769181Y1008642D01*
X1767416Y1008993D01*
D02*
G37*
G36*
X1676230Y1001373D02*
X1674465Y1001021D01*
X1672968Y1000022D01*
X1671969Y998525D01*
X1671617Y996760D01*
X1671969Y994995D01*
X1672968Y993498D01*
X1674465Y992498D01*
X1676230Y992147D01*
X1677995Y992498D01*
X1679492Y993498D01*
X1680491Y994995D01*
X1680843Y996760D01*
X1680491Y998525D01*
X1679492Y1000022D01*
X1677995Y1001021D01*
X1676230Y1001373D01*
D02*
G37*
G36*
X1710520Y960733D02*
X1708755Y960381D01*
X1707258Y959382D01*
X1706259Y957885D01*
X1705907Y956120D01*
X1706259Y954355D01*
X1707258Y952858D01*
X1708755Y951859D01*
X1710520Y951507D01*
X1712285Y951859D01*
X1713782Y952858D01*
X1714781Y954355D01*
X1715133Y956120D01*
X1714781Y957885D01*
X1713782Y959382D01*
X1712285Y960381D01*
X1710520Y960733D01*
D02*
G37*
G36*
X1598760D02*
X1596995Y960381D01*
X1595498Y959382D01*
X1594498Y957885D01*
X1594147Y956120D01*
X1594498Y954355D01*
X1595498Y952858D01*
X1596995Y951859D01*
X1598760Y951507D01*
X1600525Y951859D01*
X1602022Y952858D01*
X1603022Y954355D01*
X1603373Y956120D01*
X1603022Y957885D01*
X1602022Y959382D01*
X1600525Y960381D01*
X1598760Y960733D01*
D02*
G37*
G36*
X1778084Y953113D02*
X1776319Y952762D01*
X1774822Y951762D01*
X1773822Y950265D01*
X1773471Y948500D01*
X1773822Y946735D01*
X1774822Y945238D01*
X1776319Y944239D01*
X1778084Y943887D01*
X1779849Y944239D01*
X1781346Y945238D01*
X1782345Y946735D01*
X1782697Y948500D01*
X1782345Y950265D01*
X1781346Y951762D01*
X1779849Y952762D01*
X1778084Y953113D01*
D02*
G37*
G36*
X1761574D02*
X1759809Y952762D01*
X1758312Y951762D01*
X1757312Y950265D01*
X1756961Y948500D01*
X1757312Y946735D01*
X1758312Y945238D01*
X1759809Y944239D01*
X1761574Y943887D01*
X1763339Y944239D01*
X1764836Y945238D01*
X1765836Y946735D01*
X1766187Y948500D01*
X1765836Y950265D01*
X1764836Y951762D01*
X1763339Y952762D01*
X1761574Y953113D01*
D02*
G37*
G36*
X1411000Y949662D02*
X1409216Y949307D01*
X1407704Y948296D01*
X1406693Y946784D01*
X1406339Y945000D01*
X1406693Y943216D01*
X1407704Y941704D01*
X1409216Y940693D01*
X1411000Y940339D01*
X1412784Y940693D01*
X1414296Y941704D01*
X1415307Y943216D01*
X1415662Y945000D01*
X1415307Y946784D01*
X1414296Y948296D01*
X1412784Y949307D01*
X1411000Y949662D01*
D02*
G37*
G36*
X1769194Y941683D02*
X1767429Y941331D01*
X1765932Y940332D01*
X1764933Y938835D01*
X1764581Y937070D01*
X1764933Y935305D01*
X1765932Y933808D01*
X1767429Y932809D01*
X1769194Y932457D01*
X1770959Y932809D01*
X1772456Y933808D01*
X1773456Y935305D01*
X1773807Y937070D01*
X1773456Y938835D01*
X1772456Y940332D01*
X1770959Y941331D01*
X1769194Y941683D01*
D02*
G37*
G36*
X1753954D02*
X1752189Y941331D01*
X1750692Y940332D01*
X1749693Y938835D01*
X1749341Y937070D01*
X1749693Y935305D01*
X1750692Y933808D01*
X1752189Y932809D01*
X1753954Y932457D01*
X1755719Y932809D01*
X1757216Y933808D01*
X1758215Y935305D01*
X1758567Y937070D01*
X1758215Y938835D01*
X1757216Y940332D01*
X1755719Y941331D01*
X1753954Y941683D01*
D02*
G37*
G36*
X1639370Y930223D02*
X1637605Y929872D01*
X1636108Y928872D01*
X1635108Y927375D01*
X1634757Y925610D01*
X1635108Y923845D01*
X1636108Y922348D01*
X1637605Y921348D01*
X1639370Y920997D01*
X1640699Y921262D01*
X1641822Y920396D01*
X1641797Y920271D01*
X1642148Y918506D01*
X1643148Y917010D01*
X1644645Y916010D01*
X1646410Y915659D01*
X1647283Y915832D01*
X1648379Y914829D01*
X1648730Y913064D01*
X1649730Y911568D01*
X1651226Y910568D01*
X1652991Y910217D01*
X1654384Y910494D01*
X1655211Y909495D01*
X1655224Y909464D01*
X1655022Y909163D01*
X1654671Y907397D01*
X1655022Y905632D01*
X1656022Y904136D01*
X1657519Y903136D01*
X1659284Y902785D01*
X1661049Y903136D01*
X1662545Y904136D01*
X1663545Y905632D01*
X1663896Y907397D01*
X1663545Y909163D01*
X1662545Y910659D01*
X1661049Y911659D01*
X1659284Y912010D01*
X1657891Y911733D01*
X1657064Y912732D01*
X1657051Y912762D01*
X1657253Y913064D01*
X1657604Y914829D01*
X1657253Y916594D01*
X1656253Y918091D01*
X1654756Y919091D01*
X1652991Y919442D01*
X1652118Y919268D01*
X1651022Y920271D01*
X1650671Y922037D01*
X1649671Y923533D01*
X1648175Y924533D01*
X1646410Y924884D01*
X1645081Y924620D01*
X1643958Y925485D01*
X1643983Y925610D01*
X1643631Y927375D01*
X1642632Y928872D01*
X1641135Y929872D01*
X1639370Y930223D01*
D02*
G37*
G36*
X1387000Y890949D02*
X1385216Y890594D01*
X1383704Y889583D01*
X1382693Y888071D01*
X1382339Y886287D01*
X1382693Y884503D01*
X1383704Y882991D01*
X1385216Y881980D01*
X1387000Y881626D01*
X1388784Y881980D01*
X1390296Y882991D01*
X1391307Y884503D01*
X1391662Y886287D01*
X1391307Y888071D01*
X1390296Y889583D01*
X1388784Y890594D01*
X1387000Y890949D01*
D02*
G37*
G36*
X1395000Y880662D02*
X1393216Y880307D01*
X1391704Y879296D01*
X1390693Y877784D01*
X1390338Y876000D01*
X1390693Y874216D01*
X1391704Y872704D01*
X1393216Y871693D01*
X1395000Y871339D01*
X1396784Y871693D01*
X1398296Y872704D01*
X1399307Y874216D01*
X1399662Y876000D01*
X1399307Y877784D01*
X1398296Y879296D01*
X1396784Y880307D01*
X1395000Y880662D01*
D02*
G37*
G36*
X1571530Y880533D02*
X1569765Y880181D01*
X1568268Y879182D01*
X1567269Y877685D01*
X1566917Y875920D01*
X1567269Y874155D01*
X1568268Y872658D01*
X1569765Y871658D01*
X1571530Y871307D01*
X1573295Y871658D01*
X1574792Y872658D01*
X1575791Y874155D01*
X1576143Y875920D01*
X1575791Y877685D01*
X1574792Y879182D01*
X1573295Y880181D01*
X1571530Y880533D01*
D02*
G37*
G36*
X1588770Y870802D02*
X1586986Y870447D01*
X1585474Y869436D01*
X1584463Y867924D01*
X1584108Y866140D01*
X1584463Y864356D01*
X1585474Y862844D01*
X1586986Y861833D01*
X1588770Y861478D01*
X1590554Y861833D01*
X1592066Y862844D01*
X1593077Y864356D01*
X1593432Y866140D01*
X1593077Y867924D01*
X1592066Y869436D01*
X1590554Y870447D01*
X1588770Y870802D01*
D02*
G37*
G36*
X1561000Y865342D02*
X1559235Y864991D01*
X1557738Y863991D01*
X1556738Y862495D01*
X1556387Y860730D01*
X1556738Y858965D01*
X1557738Y857468D01*
X1559235Y856468D01*
X1561000Y856117D01*
X1562765Y856468D01*
X1564261Y857468D01*
X1565261Y858965D01*
X1565612Y860730D01*
X1565261Y862495D01*
X1564261Y863991D01*
X1562765Y864991D01*
X1561000Y865342D01*
D02*
G37*
G36*
X1536500Y865242D02*
X1534735Y864891D01*
X1533238Y863891D01*
X1532238Y862395D01*
X1531887Y860630D01*
X1532238Y858865D01*
X1533238Y857368D01*
X1534735Y856368D01*
X1536500Y856017D01*
X1538265Y856368D01*
X1539762Y857368D01*
X1540762Y858865D01*
X1541113Y860630D01*
X1540762Y862395D01*
X1539762Y863891D01*
X1538265Y864891D01*
X1536500Y865242D01*
D02*
G37*
G36*
X1685120Y856593D02*
X1683355Y856242D01*
X1681858Y855242D01*
X1680858Y853745D01*
X1680507Y851980D01*
X1680858Y850215D01*
X1681858Y848718D01*
X1683355Y847719D01*
X1685120Y847367D01*
X1686885Y847719D01*
X1688382Y848718D01*
X1689382Y850215D01*
X1689733Y851980D01*
X1689382Y853745D01*
X1688382Y855242D01*
X1686885Y856242D01*
X1685120Y856593D01*
D02*
G37*
G36*
X1669674D02*
X1667909Y856242D01*
X1666412Y855242D01*
X1665412Y853745D01*
X1665061Y851980D01*
X1665412Y850215D01*
X1666412Y848718D01*
X1667909Y847719D01*
X1669674Y847367D01*
X1671439Y847719D01*
X1672936Y848718D01*
X1673936Y850215D01*
X1674287Y851980D01*
X1673936Y853745D01*
X1672936Y855242D01*
X1671439Y856242D01*
X1669674Y856593D01*
D02*
G37*
G36*
X1732110Y854053D02*
X1730345Y853701D01*
X1728848Y852702D01*
X1727849Y851205D01*
X1727497Y849440D01*
X1727849Y847675D01*
X1728848Y846178D01*
X1730345Y845179D01*
X1732110Y844827D01*
X1733875Y845179D01*
X1735372Y846178D01*
X1736371Y847675D01*
X1736723Y849440D01*
X1736371Y851205D01*
X1735372Y852702D01*
X1733875Y853701D01*
X1732110Y854053D01*
D02*
G37*
G36*
X1602419Y850803D02*
X1600635Y850448D01*
X1599123Y849437D01*
X1598112Y847925D01*
X1597758Y846141D01*
X1598112Y844357D01*
X1599123Y842845D01*
X1600635Y841834D01*
X1602419Y841479D01*
X1604203Y841834D01*
X1605715Y842845D01*
X1606726Y844357D01*
X1607081Y846141D01*
X1606726Y847925D01*
X1605715Y849437D01*
X1604203Y850448D01*
X1602419Y850803D01*
D02*
G37*
G36*
X1560710Y849473D02*
X1558945Y849122D01*
X1557448Y848122D01*
X1556449Y846625D01*
X1556097Y844860D01*
X1556449Y843095D01*
X1557448Y841598D01*
X1558945Y840599D01*
X1560710Y840247D01*
X1562475Y840599D01*
X1563972Y841598D01*
X1564971Y843095D01*
X1565323Y844860D01*
X1564971Y846625D01*
X1563972Y848122D01*
X1562475Y849122D01*
X1560710Y849473D01*
D02*
G37*
G36*
X1536210Y849373D02*
X1534445Y849022D01*
X1532948Y848022D01*
X1531949Y846525D01*
X1531597Y844760D01*
X1531949Y842995D01*
X1532948Y841498D01*
X1534445Y840499D01*
X1536210Y840147D01*
X1537975Y840499D01*
X1539472Y841498D01*
X1540471Y842995D01*
X1540823Y844760D01*
X1540471Y846525D01*
X1539472Y848022D01*
X1537975Y849022D01*
X1536210Y849373D01*
D02*
G37*
G36*
X1561000Y833593D02*
X1559235Y833241D01*
X1557738Y832242D01*
X1556738Y830745D01*
X1556387Y828980D01*
X1556738Y827215D01*
X1557738Y825718D01*
X1559235Y824718D01*
X1561000Y824367D01*
X1562765Y824718D01*
X1564261Y825718D01*
X1565261Y827215D01*
X1565612Y828980D01*
X1565261Y830745D01*
X1564261Y832242D01*
X1562765Y833241D01*
X1561000Y833593D01*
D02*
G37*
G36*
X1536500Y833492D02*
X1534735Y833141D01*
X1533238Y832141D01*
X1532238Y830645D01*
X1531887Y828880D01*
X1532238Y827115D01*
X1533238Y825618D01*
X1534735Y824618D01*
X1536500Y824267D01*
X1538265Y824618D01*
X1539762Y825618D01*
X1540762Y827115D01*
X1541113Y828880D01*
X1540762Y830645D01*
X1539762Y832141D01*
X1538265Y833141D01*
X1536500Y833492D01*
D02*
G37*
G36*
X1605280Y828892D02*
X1603496Y828537D01*
X1601984Y827526D01*
X1600973Y826014D01*
X1600618Y824230D01*
X1600973Y822446D01*
X1601984Y820934D01*
X1603496Y819923D01*
X1605280Y819568D01*
X1607064Y819923D01*
X1608576Y820934D01*
X1609587Y822446D01*
X1609942Y824230D01*
X1609587Y826014D01*
X1608576Y827526D01*
X1607064Y828537D01*
X1605280Y828892D01*
D02*
G37*
G36*
X1398707Y825804D02*
X1396923Y825449D01*
X1395410Y824438D01*
X1394400Y822926D01*
X1394045Y821142D01*
X1394400Y819358D01*
X1395410Y817846D01*
X1396923Y816835D01*
X1398707Y816480D01*
X1400490Y816835D01*
X1402003Y817846D01*
X1403013Y819358D01*
X1403368Y821142D01*
X1403013Y822926D01*
X1402003Y824438D01*
X1400490Y825449D01*
X1398707Y825804D01*
D02*
G37*
G36*
X1385984Y823420D02*
X1384200Y823065D01*
X1382688Y822055D01*
X1381677Y820542D01*
X1381322Y818758D01*
X1381677Y816974D01*
X1382688Y815462D01*
X1384200Y814452D01*
X1385984Y814097D01*
X1387768Y814452D01*
X1389280Y815462D01*
X1390291Y816974D01*
X1390645Y818758D01*
X1390291Y820542D01*
X1389280Y822055D01*
X1387768Y823065D01*
X1385984Y823420D01*
D02*
G37*
G36*
X1558640Y812003D02*
X1556874Y811652D01*
X1555378Y810652D01*
X1554378Y809155D01*
X1554027Y807390D01*
X1554378Y805625D01*
X1555378Y804128D01*
X1556874Y803128D01*
X1558640Y802777D01*
X1560405Y803128D01*
X1561901Y804128D01*
X1562901Y805625D01*
X1563252Y807390D01*
X1562901Y809155D01*
X1561901Y810652D01*
X1560405Y811652D01*
X1558640Y812003D01*
D02*
G37*
G36*
X1536500Y811902D02*
X1534735Y811551D01*
X1533238Y810552D01*
X1532238Y809055D01*
X1531887Y807290D01*
X1532238Y805525D01*
X1533238Y804028D01*
X1534735Y803028D01*
X1536500Y802677D01*
X1538265Y803028D01*
X1539762Y804028D01*
X1540761Y805525D01*
X1541113Y807290D01*
X1540761Y809055D01*
X1539762Y810552D01*
X1538265Y811551D01*
X1536500Y811902D01*
D02*
G37*
G36*
X1487999Y804043D02*
X1486234Y803692D01*
X1484738Y802692D01*
X1483738Y801196D01*
X1483387Y799430D01*
X1483738Y797665D01*
X1484738Y796169D01*
X1486234Y795169D01*
X1487999Y794818D01*
X1489764Y795169D01*
X1491261Y796169D01*
X1492261Y797665D01*
X1492612Y799430D01*
X1492261Y801196D01*
X1491261Y802692D01*
X1489764Y803692D01*
X1487999Y804043D01*
D02*
G37*
G36*
X1587179Y803812D02*
X1585395Y803458D01*
X1583883Y802447D01*
X1582872Y800935D01*
X1582518Y799151D01*
X1582872Y797367D01*
X1583883Y795855D01*
X1585395Y794844D01*
X1587179Y794489D01*
X1588963Y794844D01*
X1590475Y795855D01*
X1591486Y797367D01*
X1591841Y799151D01*
X1591486Y800935D01*
X1590475Y802447D01*
X1588963Y803458D01*
X1587179Y803812D01*
D02*
G37*
G36*
X1685458Y801662D02*
X1683693Y801311D01*
X1682196Y800311D01*
X1681196Y798814D01*
X1680845Y797049D01*
X1681196Y795284D01*
X1682196Y793788D01*
X1683693Y792788D01*
X1685458Y792437D01*
X1687223Y792788D01*
X1688719Y793788D01*
X1689719Y795284D01*
X1690070Y797049D01*
X1689719Y798814D01*
X1688719Y800311D01*
X1687223Y801311D01*
X1685458Y801662D01*
D02*
G37*
G36*
X1571418Y797318D02*
X1569653Y796967D01*
X1568157Y795967D01*
X1567157Y794471D01*
X1566806Y792706D01*
X1567157Y790941D01*
X1568157Y789444D01*
X1569653Y788444D01*
X1571418Y788093D01*
X1573184Y788444D01*
X1574680Y789444D01*
X1575680Y790941D01*
X1576031Y792706D01*
X1575680Y794471D01*
X1574680Y795967D01*
X1573184Y796967D01*
X1571418Y797318D01*
D02*
G37*
G36*
X1767670Y801983D02*
X1765905Y801631D01*
X1764408Y800632D01*
X1763409Y799135D01*
X1763057Y797370D01*
X1763409Y795605D01*
X1764408Y794108D01*
X1765905Y793109D01*
X1767670Y792757D01*
X1769435Y793109D01*
X1770550Y792326D01*
X1770509Y792122D01*
X1770860Y790357D01*
X1771860Y788860D01*
X1773357Y787860D01*
X1775122Y787509D01*
X1776887Y787860D01*
X1778383Y788860D01*
X1779383Y790357D01*
X1779734Y792122D01*
X1779383Y793887D01*
X1778383Y795383D01*
X1776887Y796383D01*
X1775122Y796734D01*
X1773357Y796383D01*
X1772242Y797166D01*
X1772283Y797370D01*
X1771931Y799135D01*
X1770932Y800632D01*
X1769435Y801631D01*
X1767670Y801983D01*
D02*
G37*
G36*
X1676484Y794363D02*
X1674719Y794012D01*
X1673222Y793012D01*
X1672222Y791515D01*
X1671871Y789750D01*
X1672222Y787985D01*
X1673222Y786488D01*
X1674719Y785489D01*
X1676484Y785137D01*
X1678249Y785489D01*
X1679746Y786488D01*
X1680746Y787985D01*
X1681097Y789750D01*
X1680746Y791515D01*
X1679746Y793012D01*
X1678249Y794012D01*
X1676484Y794363D01*
D02*
G37*
G36*
X1571530Y766233D02*
X1569765Y765881D01*
X1568268Y764882D01*
X1567269Y763385D01*
X1566917Y761620D01*
X1567269Y759855D01*
X1568268Y758358D01*
X1569765Y757358D01*
X1571530Y757007D01*
X1573295Y757358D01*
X1574792Y758358D01*
X1575791Y759855D01*
X1576143Y761620D01*
X1575791Y763385D01*
X1574792Y764882D01*
X1573295Y765881D01*
X1571530Y766233D01*
D02*
G37*
G36*
X1756665Y762957D02*
X1754900Y762606D01*
X1753404Y761606D01*
X1752404Y760110D01*
X1752053Y758345D01*
X1752404Y756580D01*
X1753404Y755083D01*
X1754900Y754083D01*
X1756665Y753732D01*
X1758431Y754083D01*
X1759927Y755083D01*
X1760927Y756580D01*
X1761278Y758345D01*
X1760927Y760110D01*
X1759927Y761606D01*
X1758431Y762606D01*
X1756665Y762957D01*
D02*
G37*
G36*
X1778942Y761343D02*
X1777177Y760992D01*
X1775680Y759992D01*
X1774680Y758495D01*
X1774329Y756730D01*
X1774680Y754965D01*
X1775680Y753468D01*
X1777177Y752468D01*
X1778942Y752117D01*
X1780707Y752468D01*
X1782204Y753468D01*
X1783203Y754965D01*
X1783555Y756730D01*
X1783203Y758495D01*
X1782204Y759992D01*
X1780707Y760992D01*
X1778942Y761343D01*
D02*
G37*
G36*
X1649117Y756594D02*
X1647352Y756243D01*
X1645855Y755243D01*
X1644855Y753746D01*
X1644504Y751981D01*
X1644855Y750216D01*
X1645855Y748720D01*
X1647352Y747720D01*
X1649117Y747369D01*
X1650882Y747720D01*
X1652378Y748720D01*
X1653378Y750216D01*
X1653729Y751981D01*
X1653378Y753746D01*
X1652378Y755243D01*
X1650882Y756243D01*
X1649117Y756594D01*
D02*
G37*
G36*
X1747563Y752777D02*
X1745798Y752426D01*
X1744301Y751426D01*
X1743302Y749930D01*
X1742950Y748164D01*
X1743302Y746399D01*
X1744301Y744903D01*
X1745798Y743903D01*
X1747563Y743552D01*
X1749328Y743903D01*
X1750825Y744903D01*
X1751824Y746399D01*
X1752176Y748164D01*
X1751824Y749930D01*
X1750825Y751426D01*
X1749328Y752426D01*
X1747563Y752777D01*
D02*
G37*
G36*
X1633293Y748206D02*
X1631528Y747855D01*
X1630032Y746855D01*
X1629032Y745359D01*
X1628681Y743594D01*
X1629032Y741829D01*
X1630032Y740332D01*
X1631528Y739332D01*
X1633293Y738981D01*
X1635059Y739332D01*
X1636555Y740332D01*
X1637555Y741829D01*
X1637906Y743594D01*
X1637555Y745359D01*
X1636555Y746855D01*
X1635059Y747855D01*
X1633293Y748206D01*
D02*
G37*
G36*
X1768940Y747373D02*
X1767175Y747021D01*
X1765678Y746022D01*
X1764678Y744525D01*
X1764327Y742760D01*
X1764678Y740995D01*
X1765678Y739498D01*
X1767175Y738499D01*
X1768940Y738147D01*
X1770705Y738499D01*
X1772202Y739498D01*
X1773201Y740995D01*
X1773553Y742760D01*
X1773201Y744525D01*
X1772202Y746022D01*
X1770705Y747021D01*
X1768940Y747373D01*
D02*
G37*
G36*
X1561030Y745453D02*
X1559265Y745101D01*
X1557768Y744102D01*
X1556768Y742605D01*
X1556417Y740840D01*
X1556768Y739075D01*
X1557768Y737578D01*
X1559265Y736579D01*
X1561030Y736227D01*
X1562795Y736579D01*
X1564292Y737578D01*
X1565291Y739075D01*
X1565643Y740840D01*
X1565291Y742605D01*
X1564292Y744102D01*
X1562795Y745101D01*
X1561030Y745453D01*
D02*
G37*
G36*
X1536530Y745352D02*
X1534765Y745001D01*
X1533268Y744001D01*
X1532268Y742505D01*
X1531917Y740740D01*
X1532268Y738975D01*
X1533268Y737478D01*
X1534765Y736478D01*
X1536530Y736127D01*
X1538295Y736478D01*
X1539792Y737478D01*
X1540791Y738975D01*
X1541143Y740740D01*
X1540791Y742505D01*
X1539792Y744001D01*
X1538295Y745001D01*
X1536530Y745352D01*
D02*
G37*
G36*
X1600030Y742293D02*
X1598265Y741942D01*
X1596768Y740942D01*
X1595768Y739445D01*
X1595417Y737680D01*
X1595768Y735915D01*
X1596768Y734418D01*
X1598265Y733419D01*
X1600030Y733067D01*
X1601795Y733419D01*
X1603292Y734418D01*
X1604292Y735915D01*
X1604643Y737680D01*
X1604292Y739445D01*
X1603292Y740942D01*
X1601795Y741942D01*
X1600030Y742293D01*
D02*
G37*
G36*
X1645863Y740215D02*
X1644097Y739864D01*
X1642601Y738864D01*
X1641601Y737367D01*
X1641250Y735602D01*
X1641601Y733837D01*
X1642601Y732341D01*
X1644097Y731341D01*
X1645863Y730990D01*
X1647628Y731341D01*
X1649124Y732341D01*
X1650124Y733837D01*
X1650475Y735602D01*
X1650124Y737367D01*
X1649124Y738864D01*
X1647628Y739864D01*
X1645863Y740215D01*
D02*
G37*
G36*
X1561650Y730212D02*
X1559885Y729861D01*
X1558388Y728861D01*
X1557388Y727365D01*
X1557037Y725600D01*
X1557388Y723835D01*
X1558388Y722338D01*
X1559885Y721338D01*
X1561650Y720987D01*
X1563415Y721338D01*
X1564912Y722338D01*
X1565912Y723835D01*
X1566263Y725600D01*
X1565912Y727365D01*
X1564912Y728861D01*
X1563415Y729861D01*
X1561650Y730212D01*
D02*
G37*
G36*
X1537150Y730113D02*
X1535385Y729761D01*
X1533888Y728762D01*
X1532888Y727265D01*
X1532537Y725500D01*
X1532888Y723735D01*
X1533888Y722238D01*
X1535385Y721238D01*
X1537150Y720887D01*
X1538915Y721238D01*
X1540412Y722238D01*
X1541411Y723735D01*
X1541763Y725500D01*
X1541411Y727265D01*
X1540412Y728762D01*
X1538915Y729761D01*
X1537150Y730113D01*
D02*
G37*
G36*
X1719557Y729475D02*
X1717792Y729124D01*
X1716296Y728124D01*
X1715296Y726628D01*
X1714945Y724863D01*
X1715296Y723098D01*
X1716296Y721601D01*
X1717792Y720601D01*
X1719557Y720250D01*
X1721323Y720601D01*
X1722819Y721601D01*
X1723819Y723098D01*
X1724170Y724863D01*
X1723819Y726628D01*
X1722819Y728124D01*
X1721323Y729124D01*
X1719557Y729475D01*
D02*
G37*
G36*
X1658975Y741785D02*
X1657209Y741433D01*
X1655713Y740434D01*
X1654713Y738937D01*
X1654362Y737172D01*
X1654713Y735407D01*
X1655713Y733910D01*
X1657209Y732911D01*
X1658212Y732711D01*
X1658818Y731332D01*
X1658342Y730619D01*
X1657990Y728853D01*
X1658342Y727088D01*
X1659341Y725592D01*
X1660838Y724592D01*
X1662603Y724241D01*
X1664368Y724592D01*
X1665590Y725408D01*
X1666642Y724899D01*
X1666770Y724785D01*
X1667117Y723042D01*
X1668116Y721546D01*
X1669613Y720546D01*
X1671378Y720195D01*
X1673143Y720546D01*
X1674640Y721546D01*
X1675639Y723042D01*
X1675991Y724808D01*
X1675639Y726573D01*
X1674640Y728069D01*
X1673143Y729069D01*
X1671378Y729420D01*
X1669613Y729069D01*
X1668391Y728253D01*
X1667339Y728762D01*
X1667211Y728875D01*
X1666864Y730619D01*
X1665865Y732115D01*
X1664368Y733115D01*
X1663365Y733314D01*
X1662760Y734693D01*
X1663236Y735407D01*
X1663587Y737172D01*
X1663236Y738937D01*
X1662236Y740434D01*
X1660740Y741433D01*
X1658975Y741785D01*
D02*
G37*
G36*
X1608920Y728323D02*
X1607155Y727971D01*
X1605658Y726972D01*
X1604659Y725475D01*
X1604307Y723710D01*
X1604659Y721945D01*
X1605658Y720448D01*
X1607155Y719448D01*
X1608920Y719097D01*
X1610685Y719448D01*
X1612182Y720448D01*
X1613181Y721945D01*
X1613533Y723710D01*
X1613181Y725475D01*
X1612182Y726972D01*
X1610685Y727971D01*
X1608920Y728323D01*
D02*
G37*
G36*
X1639370Y727362D02*
X1637605Y727011D01*
X1636108Y726011D01*
X1635108Y724514D01*
X1634757Y722749D01*
X1635108Y720984D01*
X1636108Y719488D01*
X1637605Y718488D01*
X1639370Y718137D01*
X1641135Y718488D01*
X1642632Y719488D01*
X1643631Y720984D01*
X1643983Y722749D01*
X1643631Y724514D01*
X1642632Y726011D01*
X1641135Y727011D01*
X1639370Y727362D01*
D02*
G37*
G36*
X1610190Y714353D02*
X1608425Y714001D01*
X1606928Y713002D01*
X1605928Y711505D01*
X1605577Y709740D01*
X1605928Y707975D01*
X1606928Y706478D01*
X1608425Y705479D01*
X1610190Y705127D01*
X1611955Y705479D01*
X1613452Y706478D01*
X1614451Y707975D01*
X1614803Y709740D01*
X1614451Y711505D01*
X1613452Y713002D01*
X1611955Y714001D01*
X1610190Y714353D01*
D02*
G37*
G36*
X1561950Y713583D02*
X1560185Y713232D01*
X1558688Y712232D01*
X1557688Y710735D01*
X1557337Y708970D01*
X1557688Y707205D01*
X1558688Y705708D01*
X1560185Y704708D01*
X1561950Y704357D01*
X1563715Y704708D01*
X1565212Y705708D01*
X1566212Y707205D01*
X1566563Y708970D01*
X1566212Y710735D01*
X1565212Y712232D01*
X1563715Y713232D01*
X1561950Y713583D01*
D02*
G37*
G36*
X1537450Y713483D02*
X1535685Y713131D01*
X1534188Y712132D01*
X1533188Y710635D01*
X1532837Y708870D01*
X1533188Y707105D01*
X1534188Y705608D01*
X1535685Y704608D01*
X1537450Y704257D01*
X1539215Y704608D01*
X1540712Y705608D01*
X1541711Y707105D01*
X1542063Y708870D01*
X1541711Y710635D01*
X1540712Y712132D01*
X1539215Y713131D01*
X1537450Y713483D01*
D02*
G37*
G36*
X1385000Y704662D02*
X1383216Y704307D01*
X1381704Y703296D01*
X1380693Y701784D01*
X1380338Y700000D01*
X1380693Y698216D01*
X1381704Y696704D01*
X1383216Y695693D01*
X1385000Y695338D01*
X1386784Y695693D01*
X1388296Y696704D01*
X1389307Y698216D01*
X1389662Y700000D01*
X1389307Y701784D01*
X1388296Y703296D01*
X1386784Y704307D01*
X1385000Y704662D01*
D02*
G37*
G36*
X1398949Y704611D02*
X1397165Y704256D01*
X1395653Y703245D01*
X1394642Y701733D01*
X1394288Y699949D01*
X1394642Y698165D01*
X1395653Y696653D01*
X1397165Y695642D01*
X1398949Y695288D01*
X1400733Y695642D01*
X1402245Y696653D01*
X1403256Y698165D01*
X1403611Y699949D01*
X1403256Y701733D01*
X1402245Y703245D01*
X1400733Y704256D01*
X1398949Y704611D01*
D02*
G37*
G36*
X1614000Y700383D02*
X1612235Y700032D01*
X1610738Y699032D01*
X1609738Y697535D01*
X1609387Y695770D01*
X1609738Y694005D01*
X1610738Y692508D01*
X1612235Y691508D01*
X1614000Y691157D01*
X1615765Y691508D01*
X1617262Y692508D01*
X1618262Y694005D01*
X1618613Y695770D01*
X1618262Y697535D01*
X1617262Y699032D01*
X1615765Y700032D01*
X1614000Y700383D01*
D02*
G37*
G36*
X1561650Y697702D02*
X1559885Y697351D01*
X1558388Y696351D01*
X1557388Y694855D01*
X1557037Y693090D01*
X1557388Y691325D01*
X1558388Y689828D01*
X1559885Y688828D01*
X1561650Y688477D01*
X1563415Y688828D01*
X1564912Y689828D01*
X1565912Y691325D01*
X1566263Y693090D01*
X1565912Y694855D01*
X1564912Y696351D01*
X1563415Y697351D01*
X1561650Y697702D01*
D02*
G37*
G36*
X1537150Y697602D02*
X1535385Y697251D01*
X1533888Y696251D01*
X1532888Y694755D01*
X1532537Y692990D01*
X1532888Y691225D01*
X1533888Y689728D01*
X1535385Y688728D01*
X1537150Y688377D01*
X1538915Y688728D01*
X1540412Y689728D01*
X1541411Y691225D01*
X1541763Y692990D01*
X1541411Y694755D01*
X1540412Y696251D01*
X1538915Y697251D01*
X1537150Y697602D01*
D02*
G37*
G36*
X1571418Y683018D02*
X1569653Y682667D01*
X1568157Y681667D01*
X1567157Y680171D01*
X1566806Y678406D01*
X1567157Y676640D01*
X1568157Y675144D01*
X1569653Y674144D01*
X1571418Y673793D01*
X1573184Y674144D01*
X1574680Y675144D01*
X1575680Y676640D01*
X1576031Y678406D01*
X1575680Y680171D01*
X1574680Y681667D01*
X1573184Y682667D01*
X1571418Y683018D01*
D02*
G37*
G36*
X1738206Y659743D02*
X1736441Y659391D01*
X1734944Y658392D01*
X1733945Y656895D01*
X1733593Y655130D01*
X1733945Y653365D01*
X1734944Y651868D01*
X1736441Y650869D01*
X1738206Y650517D01*
X1739971Y650869D01*
X1741468Y651868D01*
X1742467Y653365D01*
X1742819Y655130D01*
X1742467Y656895D01*
X1741468Y658392D01*
X1739971Y659391D01*
X1738206Y659743D01*
D02*
G37*
G36*
X1570820Y651053D02*
X1569055Y650702D01*
X1567558Y649702D01*
X1566559Y648205D01*
X1566207Y646440D01*
X1566559Y644675D01*
X1567558Y643178D01*
X1569055Y642178D01*
X1570820Y641827D01*
X1572585Y642178D01*
X1574082Y643178D01*
X1575082Y644675D01*
X1575433Y646440D01*
X1575082Y648205D01*
X1574082Y649702D01*
X1572585Y650702D01*
X1570820Y651053D01*
D02*
G37*
G36*
X1447630Y648743D02*
X1445864Y648392D01*
X1444368Y647392D01*
X1443368Y645895D01*
X1443017Y644130D01*
X1443368Y642365D01*
X1444368Y640869D01*
X1445864Y639869D01*
X1446322Y639778D01*
Y638483D01*
X1445864Y638392D01*
X1444368Y637392D01*
X1443368Y635895D01*
X1443017Y634130D01*
X1443368Y632365D01*
X1444368Y630869D01*
X1445864Y629869D01*
X1447630Y629518D01*
X1449395Y629869D01*
X1450891Y630869D01*
X1451891Y632365D01*
X1452242Y634130D01*
X1451891Y635895D01*
X1450891Y637392D01*
X1449395Y638392D01*
X1448937Y638483D01*
Y639778D01*
X1449395Y639869D01*
X1450891Y640869D01*
X1451891Y642365D01*
X1452242Y644130D01*
X1451891Y645895D01*
X1450891Y647392D01*
X1449395Y648392D01*
X1447630Y648743D01*
D02*
G37*
G36*
X1561650Y629123D02*
X1559885Y628771D01*
X1558388Y627771D01*
X1557388Y626275D01*
X1557037Y624510D01*
X1557388Y622745D01*
X1558388Y621248D01*
X1559885Y620248D01*
X1561650Y619897D01*
X1563415Y620248D01*
X1564912Y621248D01*
X1565912Y622745D01*
X1566263Y624510D01*
X1565912Y626275D01*
X1564912Y627771D01*
X1563415Y628771D01*
X1561650Y629123D01*
D02*
G37*
G36*
X1537150Y629022D02*
X1535385Y628671D01*
X1533888Y627671D01*
X1532888Y626175D01*
X1532537Y624410D01*
X1532888Y622645D01*
X1533888Y621148D01*
X1535385Y620148D01*
X1537150Y619797D01*
X1538915Y620148D01*
X1540412Y621148D01*
X1541411Y622645D01*
X1541763Y624410D01*
X1541411Y626175D01*
X1540412Y627671D01*
X1538915Y628671D01*
X1537150Y629022D01*
D02*
G37*
G36*
X1615804Y625663D02*
X1614039Y625312D01*
X1612543Y624312D01*
X1611543Y622816D01*
X1611192Y621050D01*
X1611543Y619285D01*
X1612543Y617789D01*
X1614039Y616789D01*
X1615804Y616438D01*
X1617569Y616789D01*
X1619066Y617789D01*
X1620066Y619285D01*
X1620417Y621050D01*
X1620066Y622816D01*
X1619066Y624312D01*
X1617569Y625312D01*
X1615804Y625663D01*
D02*
G37*
G36*
X1445260Y619342D02*
X1443476Y618987D01*
X1441964Y617976D01*
X1440953Y616464D01*
X1440598Y614680D01*
X1440953Y612896D01*
X1441964Y611384D01*
X1443476Y610373D01*
X1445260Y610018D01*
X1447044Y610373D01*
X1448556Y611384D01*
X1449567Y612896D01*
X1449922Y614680D01*
X1449567Y616464D01*
X1448556Y617976D01*
X1447044Y618987D01*
X1445260Y619342D01*
D02*
G37*
G36*
X1672420Y615910D02*
X1670655Y615559D01*
X1669158Y614559D01*
X1668159Y613062D01*
X1667807Y611297D01*
X1668159Y609532D01*
X1669158Y608035D01*
X1670655Y607035D01*
X1672420Y606684D01*
X1674185Y607035D01*
X1675682Y608035D01*
X1676682Y609532D01*
X1677033Y611297D01*
X1676682Y613062D01*
X1675682Y614559D01*
X1674185Y615559D01*
X1672420Y615910D01*
D02*
G37*
G36*
X1561980Y613763D02*
X1560215Y613411D01*
X1558718Y612412D01*
X1557719Y610915D01*
X1557367Y609150D01*
X1557719Y607385D01*
X1558718Y605888D01*
X1560215Y604888D01*
X1561980Y604537D01*
X1563745Y604888D01*
X1565242Y605888D01*
X1566241Y607385D01*
X1566593Y609150D01*
X1566241Y610915D01*
X1565242Y612412D01*
X1563745Y613411D01*
X1561980Y613763D01*
D02*
G37*
G36*
X1537480Y613663D02*
X1535715Y613312D01*
X1534218Y612312D01*
X1533219Y610815D01*
X1532867Y609050D01*
X1533219Y607285D01*
X1534218Y605788D01*
X1535715Y604789D01*
X1537480Y604437D01*
X1539245Y604789D01*
X1540742Y605788D01*
X1541741Y607285D01*
X1542093Y609050D01*
X1541741Y610815D01*
X1540742Y612312D01*
X1539245Y613312D01*
X1537480Y613663D01*
D02*
G37*
G36*
X1377565Y648475D02*
X1375800Y648124D01*
X1374304Y647124D01*
X1373304Y645628D01*
X1372953Y643863D01*
X1373304Y642097D01*
X1374304Y640601D01*
X1375800Y639601D01*
X1376258Y639510D01*
Y638215D01*
X1375800Y638124D01*
X1374304Y637124D01*
X1373304Y635628D01*
X1372953Y633863D01*
X1373304Y632098D01*
X1374304Y630601D01*
X1375800Y629601D01*
X1376258Y629510D01*
Y628215D01*
X1375800Y628124D01*
X1374304Y627124D01*
X1373304Y625628D01*
X1372953Y623863D01*
X1373304Y622098D01*
X1374304Y620601D01*
X1375800Y619601D01*
X1376258Y619510D01*
Y618215D01*
X1375800Y618124D01*
X1374304Y617124D01*
X1373304Y615628D01*
X1372953Y613863D01*
X1373304Y612098D01*
X1374304Y610601D01*
X1375800Y609601D01*
X1376258Y609510D01*
Y608215D01*
X1375800Y608124D01*
X1374304Y607124D01*
X1373304Y605628D01*
X1372953Y603863D01*
X1373304Y602098D01*
X1374304Y600601D01*
X1375800Y599601D01*
X1377565Y599250D01*
X1379330Y599601D01*
X1380827Y600601D01*
X1381827Y602098D01*
X1382178Y603863D01*
X1381827Y605628D01*
X1380827Y607124D01*
X1379330Y608124D01*
X1378873Y608215D01*
Y609510D01*
X1379330Y609601D01*
X1380827Y610601D01*
X1381827Y612098D01*
X1382178Y613863D01*
X1381827Y615628D01*
X1380827Y617124D01*
X1379330Y618124D01*
X1378873Y618215D01*
Y619510D01*
X1379330Y619601D01*
X1380827Y620601D01*
X1381827Y622098D01*
X1382178Y623863D01*
X1381827Y625628D01*
X1380827Y627124D01*
X1379330Y628124D01*
X1378873Y628215D01*
Y629510D01*
X1379330Y629601D01*
X1380827Y630601D01*
X1381827Y632098D01*
X1382178Y633863D01*
X1381827Y635628D01*
X1380827Y637124D01*
X1379330Y638124D01*
X1378873Y638215D01*
Y639510D01*
X1379330Y639601D01*
X1380827Y640601D01*
X1381827Y642097D01*
X1382178Y643863D01*
X1381827Y645628D01*
X1380827Y647124D01*
X1379330Y648124D01*
X1377565Y648475D01*
D02*
G37*
G36*
X1683850Y607673D02*
X1682085Y607322D01*
X1680588Y606322D01*
X1679588Y604825D01*
X1679237Y603060D01*
X1679588Y601295D01*
X1680588Y599798D01*
X1682085Y598798D01*
X1683850Y598447D01*
X1685615Y598798D01*
X1687112Y599798D01*
X1688112Y601295D01*
X1688463Y603060D01*
X1688112Y604825D01*
X1687112Y606322D01*
X1685615Y607322D01*
X1683850Y607673D01*
D02*
G37*
G36*
X1442720Y606642D02*
X1440936Y606287D01*
X1439424Y605276D01*
X1438413Y603764D01*
X1438058Y601980D01*
X1438413Y600196D01*
X1439424Y598684D01*
X1440936Y597673D01*
X1442720Y597318D01*
X1444504Y597673D01*
X1446016Y598684D01*
X1447027Y600196D01*
X1447382Y601980D01*
X1447027Y603764D01*
X1446016Y605276D01*
X1444504Y606287D01*
X1442720Y606642D01*
D02*
G37*
G36*
X1767416Y607673D02*
X1765651Y607322D01*
X1764154Y606322D01*
X1763154Y604825D01*
X1762803Y603060D01*
X1763154Y601295D01*
X1764154Y599798D01*
X1765651Y598798D01*
X1767416Y598447D01*
X1769181Y598798D01*
X1769308Y598883D01*
X1770451Y598120D01*
X1770423Y597980D01*
X1770775Y596215D01*
X1771774Y594718D01*
X1773271Y593718D01*
X1775036Y593367D01*
X1776801Y593718D01*
X1778298Y594718D01*
X1779297Y596215D01*
X1779649Y597980D01*
X1779297Y599745D01*
X1778298Y601242D01*
X1776801Y602242D01*
X1775036Y602593D01*
X1773271Y602242D01*
X1773144Y602157D01*
X1772001Y602920D01*
X1772029Y603060D01*
X1771678Y604825D01*
X1770678Y606322D01*
X1769181Y607322D01*
X1767416Y607673D01*
D02*
G37*
G36*
X1676230Y600053D02*
X1674465Y599701D01*
X1672968Y598702D01*
X1671969Y597205D01*
X1671617Y595440D01*
X1671969Y593675D01*
X1672968Y592178D01*
X1674465Y591179D01*
X1676230Y590827D01*
X1677995Y591179D01*
X1679492Y592178D01*
X1680491Y593675D01*
X1680843Y595440D01*
X1680491Y597205D01*
X1679492Y598702D01*
X1677995Y599701D01*
X1676230Y600053D01*
D02*
G37*
G36*
X1561980Y598773D02*
X1560215Y598422D01*
X1558718Y597422D01*
X1557718Y595925D01*
X1557367Y594160D01*
X1557718Y592395D01*
X1558718Y590898D01*
X1560215Y589898D01*
X1561980Y589547D01*
X1563745Y589898D01*
X1565242Y590898D01*
X1566241Y592395D01*
X1566593Y594160D01*
X1566241Y595925D01*
X1565242Y597422D01*
X1563745Y598422D01*
X1561980Y598773D01*
D02*
G37*
G36*
X1537480Y598672D02*
X1535715Y598321D01*
X1534218Y597322D01*
X1533219Y595825D01*
X1532867Y594060D01*
X1533219Y592295D01*
X1534218Y590798D01*
X1535715Y589798D01*
X1537480Y589447D01*
X1539245Y589798D01*
X1540742Y590798D01*
X1541741Y592295D01*
X1542093Y594060D01*
X1541741Y595825D01*
X1540742Y597322D01*
X1539245Y598321D01*
X1537480Y598672D01*
D02*
G37*
G36*
X1442720Y593942D02*
X1440936Y593587D01*
X1439424Y592576D01*
X1438413Y591064D01*
X1438058Y589280D01*
X1438413Y587496D01*
X1439424Y585984D01*
X1440936Y584973D01*
X1442720Y584618D01*
X1444504Y584973D01*
X1446016Y585984D01*
X1447027Y587496D01*
X1447382Y589280D01*
X1447027Y591064D01*
X1446016Y592576D01*
X1444504Y593587D01*
X1442720Y593942D01*
D02*
G37*
G36*
X1384508Y592421D02*
X1382724Y592066D01*
X1381212Y591056D01*
X1380202Y589543D01*
X1379847Y587760D01*
X1380202Y585976D01*
X1381212Y584463D01*
X1382724Y583453D01*
X1384508Y583098D01*
X1386292Y583453D01*
X1387804Y584463D01*
X1388815Y585976D01*
X1389170Y587760D01*
X1388815Y589543D01*
X1387804Y591056D01*
X1386292Y592066D01*
X1384508Y592421D01*
D02*
G37*
G36*
X1397741Y591323D02*
X1395957Y590968D01*
X1394444Y589957D01*
X1393434Y588445D01*
X1393079Y586661D01*
X1393434Y584877D01*
X1394444Y583365D01*
X1395957Y582354D01*
X1397741Y582000D01*
X1399525Y582354D01*
X1401037Y583365D01*
X1402047Y584877D01*
X1402402Y586661D01*
X1402047Y588445D01*
X1401037Y589957D01*
X1399525Y590968D01*
X1397741Y591323D01*
D02*
G37*
G36*
X1663530Y587353D02*
X1661765Y587001D01*
X1660268Y586002D01*
X1659268Y584505D01*
X1658917Y582740D01*
X1659268Y580975D01*
X1660268Y579478D01*
X1661765Y578479D01*
X1663530Y578127D01*
X1665295Y578479D01*
X1666792Y579478D01*
X1667791Y580975D01*
X1668143Y582740D01*
X1667791Y584505D01*
X1666792Y586002D01*
X1665295Y587001D01*
X1663530Y587353D01*
D02*
G37*
G36*
X1561980Y582523D02*
X1560215Y582172D01*
X1558718Y581172D01*
X1557719Y579675D01*
X1557367Y577910D01*
X1557719Y576145D01*
X1558718Y574648D01*
X1560215Y573648D01*
X1561980Y573297D01*
X1563745Y573648D01*
X1565242Y574648D01*
X1566241Y576145D01*
X1566593Y577910D01*
X1566241Y579675D01*
X1565242Y581172D01*
X1563745Y582172D01*
X1561980Y582523D01*
D02*
G37*
G36*
X1537480Y582423D02*
X1535715Y582071D01*
X1534218Y581072D01*
X1533218Y579575D01*
X1532867Y577810D01*
X1533218Y576045D01*
X1534218Y574548D01*
X1535715Y573549D01*
X1537480Y573197D01*
X1539245Y573549D01*
X1540742Y574548D01*
X1541741Y576045D01*
X1542093Y577810D01*
X1541741Y579575D01*
X1540742Y581072D01*
X1539245Y582071D01*
X1537480Y582423D01*
D02*
G37*
G36*
X1570708Y567839D02*
X1568943Y567487D01*
X1567447Y566488D01*
X1566447Y564991D01*
X1566096Y563226D01*
X1566447Y561461D01*
X1567447Y559964D01*
X1568943Y558964D01*
X1570708Y558613D01*
X1572474Y558964D01*
X1573970Y559964D01*
X1574970Y561461D01*
X1575321Y563226D01*
X1574970Y564991D01*
X1573970Y566488D01*
X1572474Y567487D01*
X1570708Y567839D01*
D02*
G37*
G36*
X1443820Y560683D02*
X1442055Y560331D01*
X1440558Y559332D01*
X1439559Y557835D01*
X1439207Y556070D01*
X1439559Y554305D01*
X1440558Y552808D01*
X1442055Y551809D01*
X1443820Y551457D01*
X1445585Y551809D01*
X1447082Y552808D01*
X1448082Y554305D01*
X1448433Y556070D01*
X1448082Y557835D01*
X1447082Y559332D01*
X1445585Y560331D01*
X1443820Y560683D01*
D02*
G37*
G36*
X1373970Y558143D02*
X1372205Y557791D01*
X1370708Y556792D01*
X1369709Y555295D01*
X1369357Y553530D01*
X1369709Y551765D01*
X1370708Y550268D01*
X1372205Y549268D01*
X1373970Y548917D01*
X1375735Y549268D01*
X1377232Y550268D01*
X1378232Y551765D01*
X1378583Y553530D01*
X1378232Y555295D01*
X1377232Y556792D01*
X1375735Y557791D01*
X1373970Y558143D01*
D02*
G37*
G36*
X1413340Y551982D02*
X1411575Y551631D01*
X1410078Y550631D01*
X1409079Y549135D01*
X1408727Y547370D01*
X1409079Y545605D01*
X1410078Y544108D01*
X1411575Y543108D01*
X1413340Y542757D01*
X1415105Y543108D01*
X1416602Y544108D01*
X1417601Y545605D01*
X1417953Y547370D01*
X1417601Y549135D01*
X1416602Y550631D01*
X1415105Y551631D01*
X1413340Y551982D01*
D02*
G37*
G36*
X1578904Y541665D02*
X1577139Y541314D01*
X1575642Y540314D01*
X1574642Y538817D01*
X1574291Y537052D01*
X1574642Y535287D01*
X1575642Y533791D01*
X1577139Y532791D01*
X1578904Y532440D01*
X1580669Y532791D01*
X1582166Y533791D01*
X1583165Y535287D01*
X1583517Y537052D01*
X1583165Y538817D01*
X1582166Y540314D01*
X1580669Y541314D01*
X1578904Y541665D01*
D02*
G37*
G36*
X1561980Y528163D02*
X1560215Y527812D01*
X1558718Y526812D01*
X1557719Y525315D01*
X1557367Y523550D01*
X1557719Y521785D01*
X1558718Y520288D01*
X1560215Y519288D01*
X1561980Y518937D01*
X1563745Y519288D01*
X1565242Y520288D01*
X1566241Y521785D01*
X1566593Y523550D01*
X1566241Y525315D01*
X1565242Y526812D01*
X1563745Y527812D01*
X1561980Y528163D01*
D02*
G37*
G36*
X1537480Y528063D02*
X1535715Y527711D01*
X1534218Y526712D01*
X1533219Y525215D01*
X1532867Y523450D01*
X1533219Y521685D01*
X1534218Y520188D01*
X1535715Y519188D01*
X1537480Y518837D01*
X1539245Y519188D01*
X1540742Y520188D01*
X1541741Y521685D01*
X1542093Y523450D01*
X1541741Y525215D01*
X1540742Y526712D01*
X1539245Y527711D01*
X1537480Y528063D01*
D02*
G37*
G36*
X1682580Y517503D02*
X1680815Y517151D01*
X1679318Y516152D01*
X1678318Y514655D01*
X1677967Y512890D01*
X1678318Y511125D01*
X1679318Y509628D01*
X1680815Y508629D01*
X1682580Y508277D01*
X1684345Y508629D01*
X1685842Y509628D01*
X1686841Y511125D01*
X1687193Y512890D01*
X1686841Y514655D01*
X1685842Y516152D01*
X1684345Y517151D01*
X1682580Y517503D01*
D02*
G37*
G36*
X1562270Y505933D02*
X1560505Y505581D01*
X1559008Y504581D01*
X1558008Y503085D01*
X1557657Y501320D01*
X1558008Y499555D01*
X1559008Y498058D01*
X1560505Y497058D01*
X1562270Y496707D01*
X1564035Y497058D01*
X1565531Y498058D01*
X1566531Y499555D01*
X1566882Y501320D01*
X1566531Y503085D01*
X1565531Y504581D01*
X1564035Y505581D01*
X1562270Y505933D01*
D02*
G37*
G36*
X1537770Y505832D02*
X1536005Y505481D01*
X1534508Y504481D01*
X1533508Y502985D01*
X1533157Y501220D01*
X1533508Y499455D01*
X1534508Y497958D01*
X1536005Y496958D01*
X1537770Y496607D01*
X1539535Y496958D01*
X1541032Y497958D01*
X1542032Y499455D01*
X1542383Y501220D01*
X1542032Y502985D01*
X1541032Y504481D01*
X1539535Y505481D01*
X1537770Y505832D01*
D02*
G37*
G36*
X1625176Y503533D02*
X1623411Y503181D01*
X1621914Y502182D01*
X1620914Y500685D01*
X1620563Y498920D01*
X1620914Y497155D01*
X1621914Y495658D01*
X1623411Y494659D01*
X1625176Y494307D01*
X1626941Y494659D01*
X1628438Y495658D01*
X1629438Y497155D01*
X1629789Y498920D01*
X1629438Y500685D01*
X1628438Y502182D01*
X1626941Y503181D01*
X1625176Y503533D01*
D02*
G37*
G36*
X1562170Y489913D02*
X1560405Y489562D01*
X1558908Y488562D01*
X1557908Y487065D01*
X1557557Y485300D01*
X1557908Y483535D01*
X1558908Y482038D01*
X1560405Y481039D01*
X1562170Y480687D01*
X1563935Y481039D01*
X1565432Y482038D01*
X1566432Y483535D01*
X1566783Y485300D01*
X1566432Y487065D01*
X1565432Y488562D01*
X1563935Y489562D01*
X1562170Y489913D01*
D02*
G37*
G36*
X1537670Y489813D02*
X1535905Y489462D01*
X1534409Y488462D01*
X1533409Y486965D01*
X1533058Y485200D01*
X1533409Y483435D01*
X1534409Y481938D01*
X1535905Y480938D01*
X1537670Y480587D01*
X1539435Y480938D01*
X1540932Y481938D01*
X1541932Y483435D01*
X1542283Y485200D01*
X1541932Y486965D01*
X1540932Y488462D01*
X1539435Y489462D01*
X1537670Y489813D01*
D02*
G37*
G36*
X1760050Y489563D02*
X1758285Y489212D01*
X1756788Y488212D01*
X1755789Y486715D01*
X1755437Y484950D01*
X1755789Y483185D01*
X1756788Y481688D01*
X1758285Y480689D01*
X1760050Y480337D01*
X1761815Y480689D01*
X1763312Y481688D01*
X1764312Y483185D01*
X1764663Y484950D01*
X1764312Y486715D01*
X1763312Y488212D01*
X1761815Y489212D01*
X1760050Y489563D01*
D02*
G37*
G36*
X1451440Y485753D02*
X1449675Y485401D01*
X1448178Y484402D01*
X1447178Y482905D01*
X1446827Y481140D01*
X1447178Y479375D01*
X1448178Y477878D01*
X1449675Y476879D01*
X1451440Y476527D01*
X1453205Y476879D01*
X1454702Y477878D01*
X1455701Y479375D01*
X1456053Y481140D01*
X1455701Y482905D01*
X1454702Y484402D01*
X1453205Y485401D01*
X1451440Y485753D01*
D02*
G37*
G36*
X1628595Y475068D02*
X1626830Y474717D01*
X1625334Y473717D01*
X1624334Y472221D01*
X1623983Y470456D01*
X1624334Y468690D01*
X1625334Y467194D01*
X1626830Y466194D01*
X1628595Y465843D01*
X1630360Y466194D01*
X1631857Y467194D01*
X1632857Y468690D01*
X1633208Y470456D01*
X1632857Y472221D01*
X1631857Y473717D01*
X1630360Y474717D01*
X1628595Y475068D01*
D02*
G37*
G36*
X1400937Y473703D02*
X1399153Y473349D01*
X1397641Y472338D01*
X1396630Y470826D01*
X1396275Y469042D01*
X1396630Y467258D01*
X1397641Y465746D01*
X1399153Y464735D01*
X1400937Y464380D01*
X1402721Y464735D01*
X1404233Y465746D01*
X1405244Y467258D01*
X1405599Y469042D01*
X1405244Y470826D01*
X1404233Y472338D01*
X1402721Y473349D01*
X1400937Y473703D01*
D02*
G37*
G36*
X1384156D02*
X1382372Y473349D01*
X1380860Y472338D01*
X1379850Y470826D01*
X1379495Y469042D01*
X1379850Y467258D01*
X1380860Y465746D01*
X1382372Y464735D01*
X1384156Y464380D01*
X1385940Y464735D01*
X1387453Y465746D01*
X1388463Y467258D01*
X1388818Y469042D01*
X1388463Y470826D01*
X1387453Y472338D01*
X1385940Y473349D01*
X1384156Y473703D01*
D02*
G37*
G36*
X1446360Y473053D02*
X1444595Y472701D01*
X1443098Y471702D01*
X1442099Y470205D01*
X1441747Y468440D01*
X1442099Y466675D01*
X1443098Y465178D01*
X1444595Y464179D01*
X1446360Y463827D01*
X1448125Y464179D01*
X1449622Y465178D01*
X1450621Y466675D01*
X1450973Y468440D01*
X1450621Y470205D01*
X1449622Y471702D01*
X1448125Y472701D01*
X1446360Y473053D01*
D02*
G37*
G36*
X1562170Y468073D02*
X1560405Y467722D01*
X1558908Y466722D01*
X1557908Y465225D01*
X1557557Y463460D01*
X1557908Y461695D01*
X1558908Y460199D01*
X1560405Y459199D01*
X1562170Y458848D01*
X1563935Y459199D01*
X1565432Y460199D01*
X1566431Y461695D01*
X1566783Y463460D01*
X1566431Y465225D01*
X1565432Y466722D01*
X1563935Y467722D01*
X1562170Y468073D01*
D02*
G37*
G36*
X1537670Y467973D02*
X1535905Y467621D01*
X1534408Y466622D01*
X1533409Y465125D01*
X1533057Y463360D01*
X1533409Y461595D01*
X1534408Y460098D01*
X1535905Y459099D01*
X1537670Y458747D01*
X1539435Y459099D01*
X1540932Y460098D01*
X1541932Y461595D01*
X1542283Y463360D01*
X1541932Y465125D01*
X1540932Y466622D01*
X1539435Y467621D01*
X1537670Y467973D01*
D02*
G37*
G36*
X1578649Y453442D02*
X1576884Y453091D01*
X1575388Y452091D01*
X1574388Y450594D01*
X1574037Y448829D01*
X1574388Y447064D01*
X1575388Y445567D01*
X1576884Y444567D01*
X1578649Y444216D01*
X1580415Y444567D01*
X1581911Y445567D01*
X1582911Y447064D01*
X1583262Y448829D01*
X1582911Y450594D01*
X1581911Y452091D01*
X1580415Y453091D01*
X1578649Y453442D01*
D02*
G37*
G36*
X1377286Y434904D02*
X1375521Y434553D01*
X1374024Y433553D01*
X1373024Y432057D01*
X1372673Y430292D01*
X1373024Y428526D01*
X1374024Y427030D01*
X1375521Y426030D01*
X1377286Y425679D01*
X1379051Y426030D01*
X1380548Y427030D01*
X1381548Y428526D01*
X1381899Y430292D01*
X1381548Y432057D01*
X1380548Y433553D01*
X1379051Y434553D01*
X1377286Y434904D01*
D02*
G37*
G36*
X1570820Y422253D02*
X1569055Y421902D01*
X1567558Y420902D01*
X1566559Y419405D01*
X1566207Y417640D01*
X1566559Y415875D01*
X1567558Y414378D01*
X1569055Y413378D01*
X1570820Y413027D01*
X1572585Y413378D01*
X1574082Y414378D01*
X1575081Y415875D01*
X1575433Y417640D01*
X1575081Y419405D01*
X1574082Y420902D01*
X1572585Y421902D01*
X1570820Y422253D01*
D02*
G37*
G36*
X1372391Y419199D02*
X1370626Y418848D01*
X1369129Y417848D01*
X1368129Y416352D01*
X1367778Y414587D01*
X1368129Y412822D01*
X1369129Y411325D01*
X1370626Y410325D01*
X1372391Y409974D01*
X1374156Y410325D01*
X1375652Y411325D01*
X1376652Y412822D01*
X1377003Y414587D01*
X1376652Y416352D01*
X1375652Y417848D01*
X1374156Y418848D01*
X1372391Y419199D01*
D02*
G37*
G36*
X1561650Y400522D02*
X1559885Y400171D01*
X1558388Y399171D01*
X1557388Y397675D01*
X1557037Y395910D01*
X1557388Y394145D01*
X1558388Y392648D01*
X1559885Y391648D01*
X1561650Y391297D01*
X1563415Y391648D01*
X1564911Y392648D01*
X1565911Y394145D01*
X1566263Y395910D01*
X1565911Y397675D01*
X1564911Y399171D01*
X1563415Y400171D01*
X1561650Y400522D01*
D02*
G37*
G36*
X1633050Y396853D02*
X1631285Y396502D01*
X1629788Y395502D01*
X1628788Y394005D01*
X1628437Y392240D01*
X1628788Y390475D01*
X1629788Y388978D01*
X1631285Y387979D01*
X1633050Y387627D01*
X1634815Y387979D01*
X1636312Y388978D01*
X1637312Y390475D01*
X1637663Y392240D01*
X1637312Y394005D01*
X1636312Y395502D01*
X1634815Y396502D01*
X1633050Y396853D01*
D02*
G37*
G36*
X1561650Y384523D02*
X1559885Y384171D01*
X1558388Y383172D01*
X1557388Y381675D01*
X1557037Y379910D01*
X1557388Y378145D01*
X1558388Y376648D01*
X1559885Y375648D01*
X1561650Y375297D01*
X1563415Y375648D01*
X1564911Y376648D01*
X1565911Y378145D01*
X1566263Y379910D01*
X1565911Y381675D01*
X1564911Y383172D01*
X1563415Y384171D01*
X1561650Y384523D01*
D02*
G37*
G36*
X1640334Y382929D02*
X1638568Y382578D01*
X1637072Y381578D01*
X1636072Y380082D01*
X1635721Y378316D01*
X1636072Y376551D01*
X1637072Y375055D01*
X1638568Y374055D01*
X1640334Y373704D01*
X1642099Y374055D01*
X1643595Y375055D01*
X1644595Y376551D01*
X1644946Y378316D01*
X1644595Y380082D01*
X1643595Y381578D01*
X1642099Y382578D01*
X1640334Y382929D01*
D02*
G37*
G36*
X1644480Y370183D02*
X1642715Y369832D01*
X1641218Y368832D01*
X1640219Y367335D01*
X1639867Y365570D01*
X1640219Y363805D01*
X1641218Y362308D01*
X1642715Y361309D01*
X1644480Y360957D01*
X1646245Y361309D01*
X1647742Y362308D01*
X1648741Y363805D01*
X1649093Y365570D01*
X1648741Y367335D01*
X1647742Y368832D01*
X1646245Y369832D01*
X1644480Y370183D01*
D02*
G37*
G36*
X1561790Y368472D02*
X1560025Y368121D01*
X1558528Y367121D01*
X1557528Y365625D01*
X1557177Y363860D01*
X1557528Y362095D01*
X1558528Y360598D01*
X1560025Y359598D01*
X1561790Y359247D01*
X1563555Y359598D01*
X1565052Y360598D01*
X1566051Y362095D01*
X1566402Y363860D01*
X1566051Y365625D01*
X1565052Y367121D01*
X1563555Y368121D01*
X1561790Y368472D01*
D02*
G37*
G36*
X1400937Y362650D02*
X1399153Y362295D01*
X1397641Y361285D01*
X1396630Y359773D01*
X1396275Y357989D01*
X1396630Y356205D01*
X1397641Y354692D01*
X1399153Y353682D01*
X1400937Y353327D01*
X1402721Y353682D01*
X1404233Y354692D01*
X1405244Y356205D01*
X1405599Y357989D01*
X1405244Y359773D01*
X1404233Y361285D01*
X1402721Y362295D01*
X1400937Y362650D01*
D02*
G37*
G36*
X1384601D02*
X1382818Y362295D01*
X1381305Y361285D01*
X1380295Y359773D01*
X1379940Y357989D01*
X1380295Y356205D01*
X1381305Y354692D01*
X1382818Y353682D01*
X1384601Y353327D01*
X1386385Y353682D01*
X1387898Y354692D01*
X1388908Y356205D01*
X1389263Y357989D01*
X1388908Y359773D01*
X1387898Y361285D01*
X1386385Y362295D01*
X1384601Y362650D01*
D02*
G37*
G36*
X1446982Y387811D02*
X1445217Y387459D01*
X1443721Y386460D01*
X1442721Y384963D01*
X1442370Y383198D01*
X1442721Y381433D01*
X1443721Y379936D01*
X1444671Y379302D01*
X1444647Y378629D01*
X1444481Y377901D01*
X1443129Y376998D01*
X1442130Y375502D01*
X1441778Y373736D01*
X1442130Y371971D01*
X1443129Y370475D01*
X1444626Y369475D01*
X1444871Y369426D01*
Y368131D01*
X1443936Y367945D01*
X1442440Y366945D01*
X1441440Y365449D01*
X1441089Y363684D01*
X1441440Y361918D01*
X1442440Y360422D01*
X1443936Y359422D01*
X1444128Y358089D01*
X1443098Y357402D01*
X1442099Y355905D01*
X1441747Y354140D01*
X1442099Y352375D01*
X1443098Y350878D01*
X1444595Y349879D01*
X1446360Y349527D01*
X1448125Y349879D01*
X1449622Y350878D01*
X1450621Y352375D01*
X1450973Y354140D01*
X1450621Y355905D01*
X1449622Y357402D01*
X1448125Y358401D01*
X1447934Y359734D01*
X1448963Y360422D01*
X1449963Y361918D01*
X1450314Y363684D01*
X1449963Y365449D01*
X1448963Y366945D01*
X1447466Y367945D01*
X1447221Y367994D01*
Y369289D01*
X1448156Y369475D01*
X1449653Y370475D01*
X1450652Y371971D01*
X1451004Y373736D01*
X1450652Y375502D01*
X1449653Y376998D01*
X1448703Y377633D01*
X1448726Y378306D01*
X1448893Y379033D01*
X1450244Y379936D01*
X1451244Y381433D01*
X1451595Y383198D01*
X1451244Y384963D01*
X1450244Y386460D01*
X1448748Y387459D01*
X1446982Y387811D01*
D02*
G37*
G36*
X1374140Y357722D02*
X1372356Y357367D01*
X1370844Y356356D01*
X1369833Y354844D01*
X1369478Y353060D01*
X1369833Y351276D01*
X1370844Y349764D01*
X1372356Y348753D01*
X1374140Y348398D01*
X1375924Y348753D01*
X1377436Y349764D01*
X1378447Y351276D01*
X1378802Y353060D01*
X1378447Y354844D01*
X1377436Y356356D01*
X1375924Y357367D01*
X1374140Y357722D01*
D02*
G37*
G36*
X1650830Y354943D02*
X1649065Y354591D01*
X1647568Y353592D01*
X1646568Y352095D01*
X1646217Y350330D01*
X1646568Y348565D01*
X1647568Y347068D01*
X1649065Y346068D01*
X1650830Y345717D01*
X1652595Y346068D01*
X1654092Y347068D01*
X1655092Y348565D01*
X1655443Y350330D01*
X1655092Y352095D01*
X1654092Y353592D01*
X1652595Y354591D01*
X1650830Y354943D01*
D02*
G37*
G36*
X1561650Y353283D02*
X1559885Y352931D01*
X1558388Y351931D01*
X1557388Y350435D01*
X1557037Y348670D01*
X1557388Y346905D01*
X1558388Y345408D01*
X1559885Y344408D01*
X1561650Y344057D01*
X1563415Y344408D01*
X1564911Y345408D01*
X1565911Y346905D01*
X1566263Y348670D01*
X1565911Y350435D01*
X1564911Y351931D01*
X1563415Y352931D01*
X1561650Y353283D01*
D02*
G37*
G36*
X1570708Y339038D02*
X1568943Y338687D01*
X1567447Y337687D01*
X1566447Y336191D01*
X1566096Y334426D01*
X1566447Y332661D01*
X1567447Y331164D01*
X1568943Y330164D01*
X1570708Y329813D01*
X1572474Y330164D01*
X1573970Y331164D01*
X1574970Y332661D01*
X1575321Y334426D01*
X1574970Y336191D01*
X1573970Y337687D01*
X1572474Y338687D01*
X1570708Y339038D01*
D02*
G37*
G36*
X1722120Y329782D02*
X1720336Y329427D01*
X1718824Y328416D01*
X1717813Y326904D01*
X1717458Y325120D01*
X1717813Y323336D01*
X1718824Y321824D01*
X1720336Y320813D01*
X1722120Y320458D01*
X1723904Y320813D01*
X1725416Y321824D01*
X1726427Y323336D01*
X1726782Y325120D01*
X1726427Y326904D01*
X1725416Y328416D01*
X1723904Y329427D01*
X1722120Y329782D01*
D02*
G37*
G36*
X1630680Y308182D02*
X1628896Y307827D01*
X1627384Y306816D01*
X1626373Y305304D01*
X1626018Y303520D01*
X1626373Y301736D01*
X1627384Y300224D01*
X1628896Y299213D01*
X1630680Y298859D01*
X1632464Y299213D01*
X1633976Y300224D01*
X1634987Y301736D01*
X1635342Y303520D01*
X1634987Y305304D01*
X1633976Y306816D01*
X1632464Y307827D01*
X1630680Y308182D01*
D02*
G37*
G36*
X1605280D02*
X1603496Y307827D01*
X1601984Y306816D01*
X1600973Y305304D01*
X1600618Y303520D01*
X1600973Y301736D01*
X1601984Y300224D01*
X1603496Y299213D01*
X1605280Y298859D01*
X1607064Y299213D01*
X1608576Y300224D01*
X1609587Y301736D01*
X1609942Y303520D01*
X1609587Y305304D01*
X1608576Y306816D01*
X1607064Y307827D01*
X1605280Y308182D01*
D02*
G37*
G36*
X1592580D02*
X1590796Y307827D01*
X1589284Y306816D01*
X1588273Y305304D01*
X1587918Y303520D01*
X1588273Y301736D01*
X1589284Y300224D01*
X1590796Y299213D01*
X1592580Y298859D01*
X1594364Y299213D01*
X1595876Y300224D01*
X1596887Y301736D01*
X1597242Y303520D01*
X1596887Y305304D01*
X1595876Y306816D01*
X1594364Y307827D01*
X1592580Y308182D01*
D02*
G37*
G36*
X1618116Y308045D02*
X1616332Y307690D01*
X1614820Y306680D01*
X1613810Y305168D01*
X1613455Y303384D01*
X1613810Y301600D01*
X1614820Y300088D01*
X1616332Y299077D01*
X1618116Y298722D01*
X1619900Y299077D01*
X1621413Y300088D01*
X1622423Y301600D01*
X1622778Y303384D01*
X1622423Y305168D01*
X1621413Y306680D01*
X1619900Y307690D01*
X1618116Y308045D01*
D02*
G37*
G36*
X1677500Y306282D02*
X1675716Y305927D01*
X1674204Y304916D01*
X1673193Y303404D01*
X1672838Y301620D01*
X1673193Y299836D01*
X1674204Y298324D01*
X1675716Y297313D01*
X1677500Y296958D01*
X1679284Y297313D01*
X1680796Y298324D01*
X1681807Y299836D01*
X1682162Y301620D01*
X1681807Y303404D01*
X1680796Y304916D01*
X1679284Y305927D01*
X1677500Y306282D01*
D02*
G37*
G36*
X1664800D02*
X1663016Y305927D01*
X1661504Y304916D01*
X1660493Y303404D01*
X1660139Y301620D01*
X1660493Y299836D01*
X1661504Y298324D01*
X1663016Y297313D01*
X1664800Y296958D01*
X1666584Y297313D01*
X1668096Y298324D01*
X1669107Y299836D01*
X1669462Y301620D01*
X1669107Y303404D01*
X1668096Y304916D01*
X1666584Y305927D01*
X1664800Y306282D01*
D02*
G37*
G36*
X1749890Y268081D02*
X1748106Y267727D01*
X1746594Y266716D01*
X1745583Y265204D01*
X1745228Y263420D01*
X1745583Y261636D01*
X1746594Y260124D01*
X1748106Y259113D01*
X1749890Y258758D01*
X1751674Y259113D01*
X1753186Y260124D01*
X1754197Y261636D01*
X1754552Y263420D01*
X1754197Y265204D01*
X1753186Y266716D01*
X1751674Y267727D01*
X1749890Y268081D01*
D02*
G37*
G36*
X1775290Y268081D02*
X1773506Y267727D01*
X1771994Y266716D01*
X1770983Y265204D01*
X1770629Y263420D01*
X1770983Y261636D01*
X1771994Y260124D01*
X1773506Y259113D01*
X1775290Y258758D01*
X1777074Y259113D01*
X1778586Y260124D01*
X1779597Y261636D01*
X1779952Y263420D01*
X1779597Y265204D01*
X1778586Y266716D01*
X1777074Y267727D01*
X1775290Y268081D01*
D02*
G37*
G36*
X1762590D02*
X1760806Y267727D01*
X1759294Y266716D01*
X1758283Y265204D01*
X1757928Y263420D01*
X1758283Y261636D01*
X1759294Y260124D01*
X1760806Y259113D01*
X1762590Y258758D01*
X1764374Y259113D01*
X1765886Y260124D01*
X1766897Y261636D01*
X1767252Y263420D01*
X1766897Y265204D01*
X1765886Y266716D01*
X1764374Y267727D01*
X1762590Y268081D01*
D02*
G37*
G36*
X1737190D02*
X1735406Y267727D01*
X1733894Y266716D01*
X1732883Y265204D01*
X1732529Y263420D01*
X1732883Y261636D01*
X1733894Y260124D01*
X1735406Y259113D01*
X1737190Y258758D01*
X1738974Y259113D01*
X1740486Y260124D01*
X1741497Y261636D01*
X1741852Y263420D01*
X1741497Y265204D01*
X1740486Y266716D01*
X1738974Y267727D01*
X1737190Y268081D01*
D02*
G37*
G36*
X1617810Y266451D02*
X1616026Y266097D01*
X1614514Y265086D01*
X1613503Y263574D01*
X1613148Y261790D01*
X1613503Y260006D01*
X1614514Y258494D01*
X1616026Y257483D01*
X1617810Y257128D01*
X1619594Y257483D01*
X1621106Y258494D01*
X1622117Y260006D01*
X1622472Y261790D01*
X1622117Y263574D01*
X1621106Y265086D01*
X1619594Y266097D01*
X1617810Y266451D01*
D02*
G37*
G36*
X1604772D02*
X1602988Y266097D01*
X1601476Y265086D01*
X1600465Y263574D01*
X1600110Y261790D01*
X1600465Y260006D01*
X1601476Y258494D01*
X1602988Y257483D01*
X1604772Y257128D01*
X1606556Y257483D01*
X1608068Y258494D01*
X1609079Y260006D01*
X1609434Y261790D01*
X1609079Y263574D01*
X1608068Y265086D01*
X1606556Y266097D01*
X1604772Y266451D01*
D02*
G37*
G36*
X1592410D02*
X1590626Y266097D01*
X1589114Y265086D01*
X1588103Y263574D01*
X1587749Y261790D01*
X1588103Y260006D01*
X1589114Y258494D01*
X1590626Y257483D01*
X1592410Y257128D01*
X1594194Y257483D01*
X1595706Y258494D01*
X1596717Y260006D01*
X1597072Y261790D01*
X1596717Y263574D01*
X1595706Y265086D01*
X1594194Y266097D01*
X1592410Y266451D01*
D02*
G37*
G36*
X1632391Y262166D02*
X1630607Y261811D01*
X1629095Y260800D01*
X1628085Y259288D01*
X1627730Y257504D01*
X1628085Y255720D01*
X1629095Y254208D01*
X1630607Y253197D01*
X1632391Y252843D01*
X1634175Y253197D01*
X1635688Y254208D01*
X1636698Y255720D01*
X1637053Y257504D01*
X1636698Y259288D01*
X1635688Y260800D01*
X1634175Y261811D01*
X1632391Y262166D01*
D02*
G37*
G36*
X1696720Y235519D02*
X1694936Y235164D01*
X1693424Y234154D01*
X1692413Y232642D01*
X1692058Y230858D01*
X1692413Y229074D01*
X1693424Y227561D01*
X1694936Y226551D01*
X1696720Y226196D01*
X1698504Y226551D01*
X1700016Y227561D01*
X1701027Y229074D01*
X1701382Y230858D01*
X1701027Y232642D01*
X1700016Y234154D01*
X1698504Y235164D01*
X1696720Y235519D01*
D02*
G37*
G36*
X1678940Y218302D02*
X1677156Y217947D01*
X1675644Y216936D01*
X1674633Y215424D01*
X1674278Y213640D01*
X1674633Y211856D01*
X1675644Y210344D01*
X1677156Y209333D01*
X1678940Y208979D01*
X1680724Y209333D01*
X1682236Y210344D01*
X1683247Y211856D01*
X1683602Y213640D01*
X1683247Y215424D01*
X1682236Y216936D01*
X1680724Y217947D01*
X1678940Y218302D01*
D02*
G37*
G36*
X1694539Y213982D02*
X1692450Y213707D01*
X1690504Y212901D01*
X1688832Y211618D01*
X1687550Y209947D01*
X1686744Y208001D01*
X1686469Y205912D01*
X1686744Y203824D01*
X1687550Y201877D01*
X1688832Y200206D01*
X1690504Y198923D01*
X1692450Y198117D01*
X1694539Y197842D01*
X1696627Y198117D01*
X1698574Y198923D01*
X1700245Y200206D01*
X1701528Y201877D01*
X1702334Y203824D01*
X1702609Y205912D01*
X1702334Y208001D01*
X1701528Y209947D01*
X1700245Y211618D01*
X1698574Y212901D01*
X1696627Y213707D01*
X1694539Y213982D01*
D02*
G37*
G36*
X1551539D02*
X1549450Y213707D01*
X1547504Y212901D01*
X1545833Y211618D01*
X1544550Y209947D01*
X1543744Y208001D01*
X1543469Y205912D01*
X1543744Y203824D01*
X1544550Y201877D01*
X1545833Y200206D01*
X1547504Y198923D01*
X1549450Y198117D01*
X1551539Y197842D01*
X1553628Y198117D01*
X1555574Y198923D01*
X1557245Y200206D01*
X1558528Y201877D01*
X1559334Y203824D01*
X1559609Y205912D01*
X1559334Y208001D01*
X1558528Y209947D01*
X1557245Y211618D01*
X1555574Y212901D01*
X1553628Y213707D01*
X1551539Y213982D01*
D02*
G37*
G36*
X1694539Y153982D02*
X1692450Y153707D01*
X1690504Y152901D01*
X1688832Y151618D01*
X1687550Y149947D01*
X1686744Y148001D01*
X1686469Y145912D01*
X1686744Y143823D01*
X1687550Y141877D01*
X1688832Y140206D01*
X1690504Y138923D01*
X1692450Y138117D01*
X1694539Y137842D01*
X1696627Y138117D01*
X1698574Y138923D01*
X1700245Y140206D01*
X1701528Y141877D01*
X1702334Y143823D01*
X1702609Y145912D01*
X1702334Y148001D01*
X1701528Y149947D01*
X1700245Y151618D01*
X1698574Y152901D01*
X1696627Y153707D01*
X1694539Y153982D01*
D02*
G37*
G36*
X1551539D02*
X1549450Y153707D01*
X1547504Y152901D01*
X1545833Y151618D01*
X1544550Y149947D01*
X1543744Y148001D01*
X1543469Y145912D01*
X1543744Y143823D01*
X1544550Y141877D01*
X1545833Y140206D01*
X1547504Y138923D01*
X1549450Y138117D01*
X1551539Y137842D01*
X1553628Y138117D01*
X1555574Y138923D01*
X1557245Y140206D01*
X1558528Y141877D01*
X1559334Y143823D01*
X1559609Y145912D01*
X1559334Y148001D01*
X1558528Y149947D01*
X1557245Y151618D01*
X1555574Y152901D01*
X1553628Y153707D01*
X1551539Y153982D01*
D02*
G37*
%LPD*%
D100*
X1783600Y1393000D02*
D03*
X1547600Y1392000D02*
D03*
X1648000Y1500000D02*
D03*
D112*
X1690200Y344000D02*
D03*
Y261790D02*
D03*
X1762590Y342730D02*
D03*
X1702000Y1377000D02*
D03*
X1626600Y1400000D02*
D03*
X1568591Y1486881D02*
D03*
X1492080Y857080D02*
D03*
Y840550D02*
D03*
X1491120Y743070D02*
D03*
D113*
X1586603Y547693D02*
D03*
X1581690Y776660D02*
D03*
X1580980Y661480D02*
D03*
X1780370Y771970D02*
D03*
X1561930Y661480D02*
D03*
X1570014Y552092D02*
D03*
X1580980Y432680D02*
D03*
X1561930D02*
D03*
X1562640Y776660D02*
D03*
X1549230Y441770D02*
D03*
X1550500Y547180D02*
D03*
X1493350Y660210D02*
D03*
X1516210Y544640D02*
D03*
X1493350Y328740D02*
D03*
X1550500Y324930D02*
D03*
X1533990Y308420D02*
D03*
X1512400Y316040D02*
D03*
X1562528Y890848D02*
D03*
X1581578D02*
D03*
X1579710Y1004580D02*
D03*
X1560660D02*
D03*
X1587530Y1047560D02*
D03*
Y1066610D02*
D03*
X1687860Y1047560D02*
D03*
Y1066610D02*
D03*
X1685320Y867220D02*
D03*
Y886270D02*
D03*
X1692899Y645893D02*
D03*
X1693623Y664745D02*
D03*
X1776560Y967550D02*
D03*
X1738460Y642430D02*
D03*
X1756240D02*
D03*
Y667830D02*
D03*
X1738460D02*
D03*
X1732364Y862140D02*
D03*
X1750144D02*
D03*
X1751075Y837590D02*
D03*
X1739647Y1069150D02*
D03*
X1757427D02*
D03*
Y1043750D02*
D03*
X1739647D02*
D03*
X1512400Y774510D02*
D03*
X1424770D02*
D03*
X1440010D02*
D03*
X1425114Y659860D02*
D03*
X1440010Y660210D02*
D03*
X1703829Y587139D02*
D03*
X1721170Y543859D02*
D03*
X1786353Y828753D02*
D03*
X1781386Y604330D02*
D03*
X1741000Y827850D02*
D03*
M02*
