G04*
G04 #@! TF.GenerationSoftware,Altium Limited,Altium Designer,20.2.7 (254)*
G04*
G04 Layer_Color=128*
%FSLAX44Y44*%
%MOMM*%
G71*
G04*
G04 #@! TF.SameCoordinates,F75D2D2C-83ED-4C86-80AB-8EBB9ED98378*
G04*
G04*
G04 #@! TF.FilePolarity,Positive*
G04*
G01*
G75*
%ADD23R,2.5400X1.5240*%
%ADD24R,3.0480X1.5240*%
%ADD25R,1.0000X0.5000*%
%ADD28R,0.5000X1.0000*%
%ADD30R,1.4000X1.3000*%
%ADD31R,0.9500X0.8500*%
%ADD33R,0.8500X0.9500*%
%ADD37R,1.5250X0.6500*%
%ADD39R,0.9000X1.0000*%
%ADD40R,0.6000X0.6400*%
%ADD47R,1.0000X0.9000*%
%ADD115R,0.7600X2.4000*%
%ADD116R,0.3556X1.4732*%
%ADD117R,0.8000X0.9000*%
%ADD118R,1.2000X1.2000*%
%ADD119R,1.2300X1.8000*%
%ADD120R,2.5500X2.4500*%
%ADD121R,1.5240X3.0480*%
%ADD122R,1.5240X2.5400*%
%ADD123R,0.6500X1.5250*%
%ADD124R,1.8000X1.2300*%
%ADD125R,1.2000X1.4000*%
%ADD126R,3.2500X1.3000*%
%ADD127R,0.9500X1.3000*%
%ADD128R,1.3000X1.4000*%
%ADD129R,0.4500X0.9000*%
%ADD130R,0.6000X0.7500*%
%ADD131R,0.6400X0.6000*%
%ADD132R,0.9000X0.9500*%
%ADD133R,1.2000X1.2000*%
D23*
X2040000Y172000D02*
D03*
Y136000D02*
D03*
X1969000Y214000D02*
D03*
Y144000D02*
D03*
X1800044Y143640D02*
D03*
X1800044Y213640D02*
D03*
X1871044Y135640D02*
D03*
Y171640D02*
D03*
X1659039Y143640D02*
D03*
Y213640D02*
D03*
X1730039Y135640D02*
D03*
X1730039Y171640D02*
D03*
X1516039Y143640D02*
D03*
Y213640D02*
D03*
X1587039Y135640D02*
D03*
X1587039Y171640D02*
D03*
X1469500Y1537272D02*
D03*
Y1467272D02*
D03*
X1398500Y1545272D02*
D03*
Y1509272D02*
D03*
D24*
X2037860Y232180D02*
D03*
X1868904Y231820D02*
D03*
X1727899Y231820D02*
D03*
X1584899Y231820D02*
D03*
X1400640Y1449092D02*
D03*
D25*
X1761320Y580820D02*
D03*
Y587820D02*
D03*
X1775320Y580820D02*
D03*
Y587820D02*
D03*
X1727000Y963740D02*
D03*
Y956740D02*
D03*
X1741000Y963740D02*
D03*
Y956740D02*
D03*
D28*
X1545900Y395860D02*
D03*
X1552900Y395860D02*
D03*
X1545900Y379860D02*
D03*
X1552900Y379860D02*
D03*
X1545280Y740790D02*
D03*
X1552280D02*
D03*
X1544960Y844560D02*
D03*
X1551960Y844560D02*
D03*
X1545250Y807340D02*
D03*
X1552250D02*
D03*
X1545250Y828930D02*
D03*
X1552250D02*
D03*
X1545250Y859920D02*
D03*
X1552250D02*
D03*
X1546060Y594020D02*
D03*
X1553060D02*
D03*
X1546230Y523500D02*
D03*
X1553230Y523500D02*
D03*
X1546230Y609100D02*
D03*
X1553230D02*
D03*
X1546230Y577860D02*
D03*
X1553230D02*
D03*
X1546520Y501270D02*
D03*
X1553520Y501270D02*
D03*
X1546420Y463410D02*
D03*
X1553420D02*
D03*
X1546420Y485250D02*
D03*
X1553420Y485250D02*
D03*
X1546040Y363810D02*
D03*
X1553040D02*
D03*
X1545900Y348620D02*
D03*
X1552900D02*
D03*
X1545900Y693040D02*
D03*
X1552900Y693040D02*
D03*
X1545900Y724790D02*
D03*
X1552900Y724790D02*
D03*
X1546200Y708670D02*
D03*
X1553200D02*
D03*
X1545900Y624720D02*
D03*
X1552900D02*
D03*
D30*
X2262000Y258000D02*
D03*
X2262000Y274000D02*
D03*
Y1219000D02*
D03*
X2262000Y1235000D02*
D03*
X2262000Y899000D02*
D03*
X2262000Y915000D02*
D03*
X2261000Y579000D02*
D03*
X2261000Y595000D02*
D03*
D31*
X2208000Y1221000D02*
D03*
Y1234000D02*
D03*
X2313000Y1218000D02*
D03*
X2313000Y1231000D02*
D03*
X2329000Y1231000D02*
D03*
X2329000Y1218000D02*
D03*
X2224000Y1234500D02*
D03*
X2224000Y1221500D02*
D03*
Y914500D02*
D03*
X2224000Y901500D02*
D03*
X2329000Y911000D02*
D03*
X2329000Y898000D02*
D03*
X2313000Y898000D02*
D03*
X2313000Y911000D02*
D03*
X2208000Y901000D02*
D03*
Y914000D02*
D03*
Y582000D02*
D03*
Y595000D02*
D03*
X2313000Y579000D02*
D03*
Y592000D02*
D03*
X2224000Y595500D02*
D03*
X2224000Y582500D02*
D03*
X2329000Y592000D02*
D03*
X2329000Y579000D02*
D03*
X2313000Y260000D02*
D03*
Y273000D02*
D03*
X2208000Y260000D02*
D03*
X2208000Y273000D02*
D03*
X2224000Y273500D02*
D03*
X2224000Y260500D02*
D03*
X2329000Y270000D02*
D03*
Y257000D02*
D03*
X2053500Y452272D02*
D03*
X2053500Y439272D02*
D03*
X2069500D02*
D03*
Y452272D02*
D03*
X1927500Y421272D02*
D03*
X1927500Y408272D02*
D03*
X1911500Y396272D02*
D03*
X1911500Y383272D02*
D03*
X2068500Y408272D02*
D03*
X2068500Y395272D02*
D03*
X2084500Y381772D02*
D03*
Y394772D02*
D03*
Y367272D02*
D03*
X2084500Y354272D02*
D03*
X1911500Y410272D02*
D03*
X1911500Y423272D02*
D03*
X2232500Y1304450D02*
D03*
Y1291450D02*
D03*
Y984450D02*
D03*
Y971450D02*
D03*
X2232820Y664450D02*
D03*
Y651450D02*
D03*
X2232500Y344450D02*
D03*
Y331450D02*
D03*
X2217260Y1291450D02*
D03*
Y1304450D02*
D03*
Y971450D02*
D03*
Y984450D02*
D03*
X2217580Y651450D02*
D03*
Y664450D02*
D03*
X2217260Y331450D02*
D03*
Y344450D02*
D03*
X2222340Y1415430D02*
D03*
Y1402430D02*
D03*
Y1095430D02*
D03*
Y1082430D02*
D03*
X2222660Y775430D02*
D03*
Y762430D02*
D03*
X2222340Y455430D02*
D03*
Y442430D02*
D03*
X2293460Y1276210D02*
D03*
Y1289210D02*
D03*
Y956210D02*
D03*
Y969210D02*
D03*
X2293780Y636210D02*
D03*
Y649210D02*
D03*
X2293460Y316210D02*
D03*
Y329210D02*
D03*
X2209640Y1415430D02*
D03*
Y1402430D02*
D03*
Y1095430D02*
D03*
Y1082430D02*
D03*
X2209960Y775430D02*
D03*
Y762430D02*
D03*
X2209640Y455430D02*
D03*
Y442430D02*
D03*
D33*
X2067500Y424272D02*
D03*
X2054500Y424272D02*
D03*
X1926700Y394272D02*
D03*
X1939700Y394272D02*
D03*
X1926700Y378272D02*
D03*
X1939700D02*
D03*
X1926700Y363272D02*
D03*
X1939700D02*
D03*
X2194940Y1291210D02*
D03*
X2181940D02*
D03*
X2194940Y971210D02*
D03*
X2181940D02*
D03*
X2195260Y651210D02*
D03*
X2182260D02*
D03*
X2194940Y331210D02*
D03*
X2181940D02*
D03*
X2182820Y1255650D02*
D03*
X2195820D02*
D03*
X2182820Y935650D02*
D03*
X2195820D02*
D03*
X2183140Y615650D02*
D03*
X2196140D02*
D03*
X2182820Y295650D02*
D03*
X2195820D02*
D03*
X2179400Y1458400D02*
D03*
X2192400D02*
D03*
X2179400Y1138400D02*
D03*
X2192400D02*
D03*
X2179720Y818400D02*
D03*
X2192720D02*
D03*
X2179400Y498400D02*
D03*
X2192400D02*
D03*
Y1474910D02*
D03*
X2179400D02*
D03*
X2192400Y1154910D02*
D03*
X2179400D02*
D03*
X2192720Y834910D02*
D03*
X2179720D02*
D03*
X2192400Y514910D02*
D03*
X2179400D02*
D03*
X2193180Y1491420D02*
D03*
X2180180D02*
D03*
X2193180Y1171420D02*
D03*
X2180180D02*
D03*
X2193500Y851420D02*
D03*
X2180500D02*
D03*
X2193180Y531420D02*
D03*
X2180180D02*
D03*
X2293220Y1413130D02*
D03*
X2280220D02*
D03*
X2293220Y1093130D02*
D03*
X2280220D02*
D03*
X2293540Y773130D02*
D03*
X2280540D02*
D03*
X2293220Y453130D02*
D03*
X2280220D02*
D03*
X2181940Y1305180D02*
D03*
X2194940D02*
D03*
X2181940Y985180D02*
D03*
X2194940D02*
D03*
X2182260Y665180D02*
D03*
X2195260D02*
D03*
X2181940Y345180D02*
D03*
X2194940D02*
D03*
X2244660Y1413130D02*
D03*
X2257660D02*
D03*
X2244660Y1093130D02*
D03*
X2257660D02*
D03*
X2244980Y773130D02*
D03*
X2257980D02*
D03*
X2244660Y453130D02*
D03*
X2257660D02*
D03*
X2245440Y1446150D02*
D03*
X2258440D02*
D03*
X2245440Y1126150D02*
D03*
X2258440D02*
D03*
X2245760Y806150D02*
D03*
X2258760D02*
D03*
X2245440Y486150D02*
D03*
X2258440D02*
D03*
X2192010Y1399160D02*
D03*
X2179010D02*
D03*
X2192010Y1079160D02*
D03*
X2179010D02*
D03*
X2192330Y759160D02*
D03*
X2179330D02*
D03*
X2192010Y439160D02*
D03*
X2179010D02*
D03*
X2275440Y1291210D02*
D03*
X2262440D02*
D03*
X2275440Y971210D02*
D03*
X2262440D02*
D03*
X2275760Y651210D02*
D03*
X2262760D02*
D03*
X2275440Y331210D02*
D03*
X2262440D02*
D03*
X2293220Y1446150D02*
D03*
X2280220D02*
D03*
X2293220Y1126150D02*
D03*
X2280220D02*
D03*
X2293540Y806150D02*
D03*
X2280540D02*
D03*
X2293220Y486150D02*
D03*
X2280220D02*
D03*
X2244660Y1397890D02*
D03*
X2257660D02*
D03*
X2244660Y1077890D02*
D03*
X2257660D02*
D03*
X2244980Y757890D02*
D03*
X2257980D02*
D03*
X2244660Y437890D02*
D03*
X2257660D02*
D03*
X1685120Y840550D02*
D03*
X1698120D02*
D03*
X2040140Y1043770D02*
D03*
X2027140D02*
D03*
X2039840Y1006940D02*
D03*
X2052840D02*
D03*
X2040140Y956140D02*
D03*
X2027140D02*
D03*
X2040140Y991700D02*
D03*
X2053140D02*
D03*
X1685120Y810070D02*
D03*
X1698120D02*
D03*
X1685120Y825310D02*
D03*
X1698120Y825310D02*
D03*
X2040140Y897720D02*
D03*
X2027140D02*
D03*
X2032520Y744710D02*
D03*
X2019520D02*
D03*
X2040140Y860890D02*
D03*
X2053140D02*
D03*
X2032820Y707880D02*
D03*
X2045820D02*
D03*
X2040140Y808820D02*
D03*
X2027140D02*
D03*
X2031250Y657080D02*
D03*
X2018250D02*
D03*
X2040140Y844380D02*
D03*
X2053140D02*
D03*
X2032520Y692640D02*
D03*
X2045520D02*
D03*
X2334100Y503930D02*
D03*
X2347100D02*
D03*
X2347420Y823930D02*
D03*
X2334420D02*
D03*
X2334100Y1143930D02*
D03*
X2347100D02*
D03*
Y1463930D02*
D03*
X2334100D02*
D03*
D37*
X1978380Y405322D02*
D03*
Y392622D02*
D03*
Y379922D02*
D03*
Y367222D02*
D03*
X2032620D02*
D03*
Y379922D02*
D03*
Y392622D02*
D03*
Y405322D02*
D03*
D39*
X1943750Y410272D02*
D03*
X1957250D02*
D03*
X2319570Y1443610D02*
D03*
X2333070D02*
D03*
X2319570Y1123610D02*
D03*
X2333070D02*
D03*
X2319890Y803610D02*
D03*
X2333390D02*
D03*
X2319570Y483610D02*
D03*
X2333070D02*
D03*
X2040140Y1059010D02*
D03*
X2026640D02*
D03*
X2040140Y940900D02*
D03*
X2026640D02*
D03*
X2040140Y912960D02*
D03*
X2026640D02*
D03*
X2032520Y759950D02*
D03*
X2019020D02*
D03*
X2040140Y793580D02*
D03*
X2026640D02*
D03*
X2031250Y641840D02*
D03*
X2017750D02*
D03*
X2262980Y315970D02*
D03*
X2276480D02*
D03*
X2179160Y455670D02*
D03*
X2192660D02*
D03*
X2294260Y468370D02*
D03*
X2280760D02*
D03*
X2244400Y468370D02*
D03*
X2257900Y468370D02*
D03*
X2247740Y346450D02*
D03*
X2261240Y346450D02*
D03*
X2290920Y437440D02*
D03*
X2304420Y437440D02*
D03*
X2276800Y635970D02*
D03*
X2263300D02*
D03*
X2262980Y955970D02*
D03*
X2276480D02*
D03*
Y1275970D02*
D03*
X2262980D02*
D03*
X2192980Y775670D02*
D03*
X2179480D02*
D03*
X2179160Y1095670D02*
D03*
X2192660D02*
D03*
Y1415670D02*
D03*
X2179160D02*
D03*
X2281080Y788370D02*
D03*
X2294580D02*
D03*
X2294260Y1108370D02*
D03*
X2280760D02*
D03*
Y1428370D02*
D03*
X2294260D02*
D03*
X2258220Y788370D02*
D03*
X2244720D02*
D03*
X2244400Y1108370D02*
D03*
X2257900D02*
D03*
Y1428370D02*
D03*
X2244400D02*
D03*
X2261560Y666450D02*
D03*
X2248060D02*
D03*
X2247740Y986450D02*
D03*
X2261240D02*
D03*
Y1306450D02*
D03*
X2247740D02*
D03*
X2304740Y757440D02*
D03*
X2291240D02*
D03*
X2290920Y1077440D02*
D03*
X2304420D02*
D03*
Y1397440D02*
D03*
X2290920D02*
D03*
D40*
X1818978Y1002348D02*
D03*
X1827778D02*
D03*
X1744810Y1001840D02*
D03*
X1736010D02*
D03*
X1713150Y1094550D02*
D03*
X1721950D02*
D03*
X1851400Y1093280D02*
D03*
X1842600D02*
D03*
X1818978Y795084D02*
D03*
X1827778D02*
D03*
X1818470Y600520D02*
D03*
X1827270D02*
D03*
X1745064Y795030D02*
D03*
X1736264D02*
D03*
X1744810Y600520D02*
D03*
X1736010D02*
D03*
X1713404Y887540D02*
D03*
X1722204D02*
D03*
X1713150Y693230D02*
D03*
X1721950D02*
D03*
X1851654Y886270D02*
D03*
X1842854D02*
D03*
X1851400Y691960D02*
D03*
X1842600D02*
D03*
D47*
X2084500Y409272D02*
D03*
Y422772D02*
D03*
X1956500Y381272D02*
D03*
Y394772D02*
D03*
X2052500Y394272D02*
D03*
Y407772D02*
D03*
Y365272D02*
D03*
Y378772D02*
D03*
X1911500Y368272D02*
D03*
Y354772D02*
D03*
X2161380Y366770D02*
D03*
Y380270D02*
D03*
X2235040Y407410D02*
D03*
Y420910D02*
D03*
X2161700Y700270D02*
D03*
Y686770D02*
D03*
X2161380Y1006770D02*
D03*
Y1020270D02*
D03*
Y1340270D02*
D03*
Y1326770D02*
D03*
X2235360Y740910D02*
D03*
Y727410D02*
D03*
X2235040Y1047410D02*
D03*
Y1060910D02*
D03*
Y1380910D02*
D03*
Y1367410D02*
D03*
D115*
X1775290Y282120D02*
D03*
Y321120D02*
D03*
X1762590Y282120D02*
D03*
Y321120D02*
D03*
X1749890Y282120D02*
D03*
Y321120D02*
D03*
X1737190Y282120D02*
D03*
Y321120D02*
D03*
X1592410D02*
D03*
Y282120D02*
D03*
X1605110Y321120D02*
D03*
Y282120D02*
D03*
X1617810Y321120D02*
D03*
Y282120D02*
D03*
X1630510Y321120D02*
D03*
Y282120D02*
D03*
X1664800Y321120D02*
D03*
Y282120D02*
D03*
X1677500Y321120D02*
D03*
Y282120D02*
D03*
X1690200Y321120D02*
D03*
Y282120D02*
D03*
X1702900Y321120D02*
D03*
Y282120D02*
D03*
D116*
X1740746Y1093280D02*
D03*
X1747096D02*
D03*
X1753700D02*
D03*
X1760050D02*
D03*
X1766654D02*
D03*
X1773258D02*
D03*
X1779608D02*
D03*
X1786212D02*
D03*
X1792562D02*
D03*
X1799166D02*
D03*
X1805770D02*
D03*
X1812120D02*
D03*
X1818724D02*
D03*
X1825074D02*
D03*
Y1019620D02*
D03*
X1818724D02*
D03*
X1812120D02*
D03*
X1805770D02*
D03*
X1799166D02*
D03*
X1792562D02*
D03*
X1786212D02*
D03*
X1779608D02*
D03*
X1773258D02*
D03*
X1766654D02*
D03*
X1760050D02*
D03*
X1753700D02*
D03*
X1747096D02*
D03*
X1740746D02*
D03*
X1741000Y812610D02*
D03*
X1747350D02*
D03*
X1753954D02*
D03*
X1760304D02*
D03*
X1766908D02*
D03*
X1773512D02*
D03*
X1779862D02*
D03*
X1786466D02*
D03*
X1792816D02*
D03*
X1799420D02*
D03*
X1806024D02*
D03*
X1812374D02*
D03*
X1818978D02*
D03*
X1825328D02*
D03*
Y886270D02*
D03*
X1818978D02*
D03*
X1812374D02*
D03*
X1806024D02*
D03*
X1799420D02*
D03*
X1792816D02*
D03*
X1786466D02*
D03*
X1779862D02*
D03*
X1773512D02*
D03*
X1766908D02*
D03*
X1760304D02*
D03*
X1753954D02*
D03*
X1747350D02*
D03*
X1741000D02*
D03*
X1740746Y618300D02*
D03*
X1747096D02*
D03*
X1753700D02*
D03*
X1760050D02*
D03*
X1766654D02*
D03*
X1773258D02*
D03*
X1779608D02*
D03*
X1786212D02*
D03*
X1792562D02*
D03*
X1799166D02*
D03*
X1805770D02*
D03*
X1812120D02*
D03*
X1818724D02*
D03*
X1825074D02*
D03*
Y691960D02*
D03*
X1818724D02*
D03*
X1812120D02*
D03*
X1805770D02*
D03*
X1799166D02*
D03*
X1792562D02*
D03*
X1786212D02*
D03*
X1779608D02*
D03*
X1773258D02*
D03*
X1766654D02*
D03*
X1760050D02*
D03*
X1753700D02*
D03*
X1747096D02*
D03*
X1740746D02*
D03*
D117*
X2289000Y1236000D02*
D03*
X2279500Y1216000D02*
D03*
X2298500D02*
D03*
X2289000Y916000D02*
D03*
X2279500Y896000D02*
D03*
X2298500D02*
D03*
X2289000Y597000D02*
D03*
X2279500Y577000D02*
D03*
X2298500D02*
D03*
X2289000Y275000D02*
D03*
X2279500Y255000D02*
D03*
X2298500D02*
D03*
D118*
X2242000Y1217000D02*
D03*
Y1238000D02*
D03*
X2241000Y897500D02*
D03*
Y918500D02*
D03*
X2240000Y576500D02*
D03*
Y597500D02*
D03*
X2240994Y255501D02*
D03*
Y276501D02*
D03*
D119*
X2067000Y343000D02*
D03*
Y316800D02*
D03*
X1892000Y397000D02*
D03*
Y423200D02*
D03*
D120*
X1975500Y326272D02*
D03*
X2036000D02*
D03*
X2037500Y272272D02*
D03*
X1977000D02*
D03*
D121*
X2486660Y203540D02*
D03*
Y307680D02*
D03*
X2486660Y1153500D02*
D03*
X2486660Y942680D02*
D03*
X2486660Y523580D02*
D03*
Y627720D02*
D03*
Y838540D02*
D03*
X2486660Y1262720D02*
D03*
D122*
X2546840Y205680D02*
D03*
X2582840D02*
D03*
X2504840Y134680D02*
D03*
X2574840Y134680D02*
D03*
Y238820D02*
D03*
X2504840Y238820D02*
D03*
X2582840Y309820D02*
D03*
X2546840D02*
D03*
X2574840Y1084640D02*
D03*
X2504840Y1084640D02*
D03*
X2582840Y1155640D02*
D03*
X2546840D02*
D03*
X2574840Y873820D02*
D03*
X2504840Y873820D02*
D03*
X2582840Y944820D02*
D03*
X2546840D02*
D03*
X2574840Y454720D02*
D03*
X2504840Y454720D02*
D03*
X2582840Y525720D02*
D03*
X2546840D02*
D03*
X2574840Y558860D02*
D03*
X2504840Y558860D02*
D03*
X2582840Y629860D02*
D03*
X2546840D02*
D03*
X2574840Y769680D02*
D03*
X2504840Y769680D02*
D03*
X2582840Y840680D02*
D03*
X2546840D02*
D03*
X2574840Y1193860D02*
D03*
X2504840Y1193860D02*
D03*
X2582840Y1264860D02*
D03*
X2546840D02*
D03*
D123*
X2253140Y740560D02*
D03*
X2265840D02*
D03*
X2278540D02*
D03*
X2291240D02*
D03*
Y686320D02*
D03*
X2278540D02*
D03*
X2265840D02*
D03*
X2253140D02*
D03*
X2252820Y420560D02*
D03*
X2265520D02*
D03*
X2278220D02*
D03*
X2290920D02*
D03*
Y366320D02*
D03*
X2278220D02*
D03*
X2265520D02*
D03*
X2252820D02*
D03*
X2179160Y366320D02*
D03*
X2191860D02*
D03*
X2204560D02*
D03*
X2217260D02*
D03*
Y420560D02*
D03*
X2204560D02*
D03*
X2191860D02*
D03*
X2179160D02*
D03*
X2252820Y1060560D02*
D03*
X2265520D02*
D03*
X2278220D02*
D03*
X2290920D02*
D03*
Y1006320D02*
D03*
X2278220D02*
D03*
X2265520D02*
D03*
X2252820D02*
D03*
Y1326320D02*
D03*
X2265520D02*
D03*
X2278220D02*
D03*
X2290920D02*
D03*
Y1380560D02*
D03*
X2278220D02*
D03*
X2265520D02*
D03*
X2252820D02*
D03*
X2179480Y686320D02*
D03*
X2192180D02*
D03*
X2204880D02*
D03*
X2217580D02*
D03*
Y740560D02*
D03*
X2204880D02*
D03*
X2192180D02*
D03*
X2179480D02*
D03*
X2179160Y1060560D02*
D03*
X2191860D02*
D03*
X2204560D02*
D03*
X2217260D02*
D03*
Y1006320D02*
D03*
X2204560D02*
D03*
X2191860D02*
D03*
X2179160D02*
D03*
Y1326320D02*
D03*
X2191860D02*
D03*
X2204560D02*
D03*
X2217260D02*
D03*
Y1380560D02*
D03*
X2204560D02*
D03*
X2191860D02*
D03*
X2179160D02*
D03*
D124*
X2183440Y1118530D02*
D03*
X2040140Y1025990D02*
D03*
X2013940D02*
D03*
X2040140Y973920D02*
D03*
X2013940D02*
D03*
X2040140Y879940D02*
D03*
X2013940D02*
D03*
X2032520Y726930D02*
D03*
X2006320D02*
D03*
X2040140Y826600D02*
D03*
X2013940D02*
D03*
X2032050Y674860D02*
D03*
X2005850Y674860D02*
D03*
X2312040Y503930D02*
D03*
X2285840Y503930D02*
D03*
X2226620D02*
D03*
X2252820D02*
D03*
X2183440Y478530D02*
D03*
X2209640D02*
D03*
X2312360Y823930D02*
D03*
X2286160D02*
D03*
X2285840Y1143930D02*
D03*
X2312040D02*
D03*
Y1463930D02*
D03*
X2285840D02*
D03*
X2226940Y823930D02*
D03*
X2253140D02*
D03*
X2252820Y1143930D02*
D03*
X2226620D02*
D03*
Y1463930D02*
D03*
X2252820D02*
D03*
X2183760Y798530D02*
D03*
X2209960D02*
D03*
X2209640Y1118530D02*
D03*
X2183440Y1438530D02*
D03*
X2209640D02*
D03*
X2184620Y554280D02*
D03*
X2210820D02*
D03*
X2184940Y874280D02*
D03*
X2211140D02*
D03*
X2184620Y1194280D02*
D03*
X2210820D02*
D03*
X2184620Y1514280D02*
D03*
X2210820D02*
D03*
D125*
X1721170Y576390D02*
D03*
X1704170D02*
D03*
X1721170Y554390D02*
D03*
X1704170D02*
D03*
D126*
X1410800Y929450D02*
D03*
Y810070D02*
D03*
D127*
X1387900Y862450D02*
D03*
X1410800Y862450D02*
D03*
X1433700Y862450D02*
D03*
Y743070D02*
D03*
X1410800D02*
D03*
X1387900D02*
D03*
D128*
X1416770Y840550D02*
D03*
X1432770D02*
D03*
X1381590Y840550D02*
D03*
X1397590D02*
D03*
X1380830Y721170D02*
D03*
X1396830Y721170D02*
D03*
X1737700Y984060D02*
D03*
X1753700D02*
D03*
X1834470Y986600D02*
D03*
X1818470D02*
D03*
X1719410Y1078040D02*
D03*
X1703410D02*
D03*
X1845140Y1076770D02*
D03*
X1861140D02*
D03*
X1703790Y597980D02*
D03*
X1719790Y597980D02*
D03*
X1721060Y533210D02*
D03*
X1705060Y533210D02*
D03*
X1738970Y778320D02*
D03*
X1754970D02*
D03*
X1834724Y779590D02*
D03*
X1818724D02*
D03*
X1834470Y585280D02*
D03*
X1818470D02*
D03*
X1719664Y871030D02*
D03*
X1703664D02*
D03*
X1719410Y676720D02*
D03*
X1703410D02*
D03*
X1845394Y869760D02*
D03*
X1861394D02*
D03*
X1845140Y675450D02*
D03*
X1861140D02*
D03*
X1417150Y721170D02*
D03*
X1433150Y721170D02*
D03*
X2180430Y314700D02*
D03*
X2196430D02*
D03*
X2180750Y634700D02*
D03*
X2196750D02*
D03*
X2196430Y954700D02*
D03*
X2180430D02*
D03*
Y1274700D02*
D03*
X2196430D02*
D03*
D129*
X1761700Y1134410D02*
D03*
X1753700D02*
D03*
X1777700D02*
D03*
X1769700D02*
D03*
Y1117410D02*
D03*
X1777700D02*
D03*
X1753700D02*
D03*
X1761700D02*
D03*
X1761954Y927400D02*
D03*
X1753954D02*
D03*
X1777954D02*
D03*
X1769954D02*
D03*
Y910400D02*
D03*
X1777954D02*
D03*
X1753954D02*
D03*
X1761954Y910400D02*
D03*
X1769700Y716090D02*
D03*
X1777700D02*
D03*
X1753700D02*
D03*
X1761700D02*
D03*
Y733090D02*
D03*
X1753700D02*
D03*
X1777700D02*
D03*
X1769700D02*
D03*
D130*
X1739984Y925040D02*
D03*
Y913540D02*
D03*
X1739730Y730730D02*
D03*
Y719230D02*
D03*
D131*
X1789260Y1123670D02*
D03*
Y1114870D02*
D03*
X1789514Y916660D02*
D03*
Y907860D02*
D03*
X1789260Y722350D02*
D03*
Y713550D02*
D03*
D132*
X2214210Y312160D02*
D03*
X2245710D02*
D03*
X2214530Y632160D02*
D03*
X2246030D02*
D03*
X2245710Y952160D02*
D03*
X2214210D02*
D03*
Y1272160D02*
D03*
X2245710D02*
D03*
D133*
X2267720Y295650D02*
D03*
X2288720D02*
D03*
X2268040Y615650D02*
D03*
X2289040D02*
D03*
X2288720Y935650D02*
D03*
X2267720D02*
D03*
Y1255650D02*
D03*
X2288720D02*
D03*
M02*
