G04*
G04 #@! TF.GenerationSoftware,Altium Limited,Altium Designer,20.2.7 (254)*
G04*
G04 Layer_Color=65535*
%FSLAX44Y44*%
%MOMM*%
G71*
G04*
G04 #@! TF.SameCoordinates,F75D2D2C-83ED-4C86-80AB-8EBB9ED98378*
G04*
G04*
G04 #@! TF.FilePolarity,Positive*
G04*
G01*
G75*
%ADD10C,0.2000*%
%ADD11C,0.2540*%
%ADD12C,0.2500*%
%ADD13C,0.3048*%
%ADD14C,0.3810*%
%ADD15C,0.5000*%
%ADD16C,0.1270*%
%ADD17C,0.1500*%
%ADD18C,0.0254*%
%ADD19C,0.0127*%
%ADD20C,0.1524*%
%ADD21C,0.2032*%
G36*
X1560000Y1421000D02*
X1560000Y1410000D01*
X1563000Y1410000D01*
Y1421000D01*
X1560000Y1421000D01*
D02*
G37*
G36*
X1560051Y1428805D02*
X1560051Y1439805D01*
X1563051Y1439805D01*
Y1428805D01*
X1560051Y1428805D01*
D02*
G37*
G36*
X1504200Y1488000D02*
X1504200Y1477000D01*
X1507200Y1477000D01*
Y1488000D01*
X1504200D01*
D02*
G37*
G36*
X1504251Y1495805D02*
X1504251Y1506805D01*
X1507251D01*
X1507251Y1495805D01*
X1504251Y1495805D01*
D02*
G37*
G36*
X1691809Y1396655D02*
Y1385655D01*
X1688809D01*
Y1396655D01*
X1691809D01*
D02*
G37*
G36*
X1691860Y1404460D02*
Y1415460D01*
X1688860D01*
Y1404460D01*
X1691860D01*
D02*
G37*
G36*
X1634549Y1463195D02*
Y1452195D01*
X1631549D01*
Y1463195D01*
X1634549D01*
D02*
G37*
G36*
X1634600Y1471000D02*
Y1482000D01*
X1631600D01*
Y1471000D01*
X1634600D01*
D02*
G37*
G36*
X1795600Y1422000D02*
Y1411000D01*
X1798600D01*
Y1422000D01*
X1795600D01*
D02*
G37*
G36*
X1795651Y1429805D02*
Y1440805D01*
X1798651D01*
Y1429805D01*
X1795651D01*
D02*
G37*
G36*
X1740200Y1489000D02*
X1740200Y1478000D01*
X1743200Y1478000D01*
X1743200Y1489000D01*
X1740200D01*
D02*
G37*
G36*
X1740251Y1496805D02*
Y1507805D01*
X1743251Y1507805D01*
X1743251Y1496805D01*
X1740251D01*
D02*
G37*
G36*
X1924349Y1395195D02*
Y1384195D01*
X1921349D01*
Y1395195D01*
X1924349D01*
D02*
G37*
G36*
X1924400Y1403000D02*
Y1414000D01*
X1921400D01*
Y1403000D01*
X1924400D01*
D02*
G37*
G36*
X1867549Y1462195D02*
Y1451195D01*
X1864549D01*
Y1462195D01*
X1867549D01*
D02*
G37*
G36*
X1867600Y1470000D02*
Y1481000D01*
X1864600D01*
Y1470000D01*
X1867600D01*
D02*
G37*
D10*
X974800Y1479050D02*
G03*
X974800Y1479050I-1000J0D01*
G01*
X1257060Y1432900D02*
G03*
X1257060Y1432900I-1000J0D01*
G01*
Y1473540D02*
G03*
X1257060Y1473540I-1000J0D01*
G01*
X458410Y1222750D02*
X511910D01*
X511910Y1327250D01*
X458410D02*
X511910D01*
X458410Y1222750D02*
X458410Y1327250D01*
X458410Y902750D02*
X511910D01*
X511910Y1007250D01*
X458410D02*
X511910D01*
X458410Y902750D02*
X458410Y1007250D01*
X458410Y582750D02*
X458410Y687250D01*
X511910D01*
X511910Y582750D02*
X511910Y687250D01*
X458410Y582750D02*
X511910D01*
X458410Y262750D02*
X458410Y367250D01*
X511910D01*
X511910Y262750D02*
X511910Y367250D01*
X458410Y262750D02*
X511910D01*
X668020Y1525270D02*
X693420Y1525270D01*
X668020Y1525270D02*
Y1550670D01*
X693420Y1525270D02*
Y1550670D01*
X661670Y1525270D02*
X668020Y1531620D01*
X648970Y1525270D02*
X661670Y1525270D01*
X642620Y1531620D02*
X648970Y1525270D01*
X642620Y1531620D02*
Y1544320D01*
X648970Y1550670D01*
X661670Y1550670D01*
X668020Y1544320D01*
Y1550670D02*
X693420Y1550670D01*
X932800Y1461080D02*
X946800Y1461080D01*
X932800Y1477080D02*
X946800Y1477080D01*
X932800Y1477080D02*
X932800Y1472580D01*
X932800Y1465580D02*
X932800Y1461080D01*
X946800Y1465580D02*
X946800Y1461080D01*
X946800Y1472580D02*
X946800Y1477080D01*
X2124780Y828660D02*
Y842660D01*
X2108780Y828660D02*
X2108780Y842660D01*
X2108780Y828660D02*
X2113280D01*
X2120280Y828660D02*
X2124780Y828660D01*
X2120280Y842660D02*
X2124780Y842660D01*
X2108780Y842660D02*
X2113280Y842660D01*
X1796470Y1062370D02*
X1796470Y1048370D01*
X1780470D02*
Y1062370D01*
Y1048370D02*
X1784970D01*
X1791970Y1048370D02*
X1796470Y1048370D01*
X1791970Y1062370D02*
X1796470Y1062370D01*
X1780470Y1062370D02*
X1784970Y1062370D01*
X1795850Y644510D02*
Y658510D01*
X1779850Y644510D02*
Y658510D01*
Y644510D02*
X1784350D01*
X1791350D02*
X1795850D01*
X1791350Y658510D02*
X1795850D01*
X1779850D02*
X1784350D01*
X1795850Y843900D02*
Y857900D01*
X1779850Y843900D02*
Y857900D01*
Y843900D02*
X1784350D01*
X1791350D02*
X1795850D01*
X1791350Y857900D02*
X1795850D01*
X1779850D02*
X1784350D01*
X1852600Y1419000D02*
X1852600Y1411000D01*
X1798600Y1411000D02*
X1852600Y1411000D01*
X1798600Y1411000D02*
Y1422000D01*
X1795600D02*
X1798600D01*
X1795600Y1411000D02*
Y1422000D01*
Y1411000D02*
X1798600D01*
X1852651Y1432805D02*
Y1440805D01*
X1798651D02*
X1852651D01*
X1798651Y1429805D02*
Y1440805D01*
X1795651Y1429805D02*
X1798651D01*
X1795651D02*
Y1440805D01*
X1798651D01*
X1797200Y1478000D02*
Y1486000D01*
X1743200Y1478000D02*
X1797200Y1478000D01*
X1743200Y1478000D02*
X1743200Y1489000D01*
X1740200D02*
X1743200D01*
X1740200D02*
X1740200Y1478000D01*
X1743200Y1478000D01*
X1797251Y1499805D02*
Y1507805D01*
X1743251D02*
X1797251D01*
X1743251Y1496805D02*
X1743251Y1507805D01*
X1740251Y1496805D02*
X1743251D01*
X1740251D02*
Y1507805D01*
X1743251Y1507805D01*
X1577600Y1474000D02*
Y1482000D01*
X1631600D01*
Y1471000D02*
Y1482000D01*
Y1471000D02*
X1634600D01*
Y1482000D01*
X1631600D02*
X1634600D01*
X1577549Y1452195D02*
Y1460195D01*
Y1452195D02*
X1631549D01*
Y1463195D01*
X1634549D01*
Y1452195D02*
Y1463195D01*
X1631549Y1452195D02*
X1634549D01*
X1617000Y1410000D02*
Y1418000D01*
X1563000Y1410000D02*
X1617000D01*
X1563000D02*
Y1421000D01*
X1560000Y1421000D02*
X1563000Y1421000D01*
X1560000Y1410000D02*
X1560000Y1421000D01*
X1560000Y1410000D02*
X1563000Y1410000D01*
X1617051Y1431805D02*
X1617051Y1439805D01*
X1563051D02*
X1617051D01*
X1563051Y1428805D02*
Y1439805D01*
X1560051Y1428805D02*
X1563051Y1428805D01*
X1560051Y1439805D02*
X1560051Y1428805D01*
X1560051Y1439805D02*
X1563051Y1439805D01*
X1810600Y1473000D02*
Y1481000D01*
X1864600D01*
Y1470000D02*
Y1481000D01*
Y1470000D02*
X1867600D01*
Y1481000D01*
X1864600D02*
X1867600D01*
X1810549Y1451195D02*
Y1459195D01*
Y1451195D02*
X1864549D01*
Y1462195D01*
X1867549D01*
Y1451195D02*
Y1462195D01*
X1864549Y1451195D02*
X1867549D01*
X1634860Y1407460D02*
Y1415460D01*
X1688860D01*
Y1404460D02*
Y1415460D01*
Y1404460D02*
X1691860D01*
Y1415460D01*
X1688860D02*
X1691860D01*
X1634809Y1385655D02*
Y1393655D01*
Y1385655D02*
X1688809D01*
Y1396655D01*
X1691809D01*
Y1385655D02*
Y1396655D01*
X1688809Y1385655D02*
X1691809D01*
X1561200Y1477000D02*
Y1485000D01*
X1507200Y1477000D02*
X1561200Y1477000D01*
X1507200Y1477000D02*
Y1488000D01*
X1504200D02*
X1507200D01*
X1504200Y1477000D02*
X1504200Y1488000D01*
X1504200Y1477000D02*
X1507200Y1477000D01*
X1561251Y1498805D02*
Y1506805D01*
X1507251D02*
X1561251D01*
X1507251Y1495805D02*
X1507251Y1506805D01*
X1504251Y1495805D02*
X1507251Y1495805D01*
X1504251Y1495805D02*
X1504251Y1506805D01*
X1507251D01*
X1867400Y1406000D02*
Y1414000D01*
X1921400D01*
Y1403000D02*
Y1414000D01*
Y1403000D02*
X1924400D01*
Y1414000D01*
X1921400D02*
X1924400D01*
X1867349Y1384195D02*
Y1392195D01*
Y1384195D02*
X1921349D01*
Y1395195D01*
X1924349D01*
Y1384195D02*
Y1395195D01*
X1921349Y1384195D02*
X1924349D01*
X1961000Y1517000D02*
Y1550000D01*
X2089000Y1517000D02*
Y1550000D01*
X1961000Y1422000D02*
Y1455000D01*
X2089000Y1422000D02*
Y1455000D01*
X1961000Y1550000D02*
X2089000D01*
X1961000Y1422000D02*
X2089000D01*
X1967000Y1386500D02*
Y1389500D01*
Y1377500D02*
Y1379500D01*
X1962000Y1386500D02*
X1971000D01*
X1962000D02*
X1967000Y1379500D01*
X1971000Y1386500D01*
X1962000Y1379500D02*
X1972000D01*
X1985000Y1345500D02*
Y1419500D01*
X1981750D02*
X1985000D01*
X1972000Y1345500D02*
X1985000D01*
X1949000Y1419500D02*
X1952250D01*
X1972000Y1345500D02*
Y1347000D01*
X1985000D01*
X1949000D02*
X1962000D01*
Y1345500D02*
Y1347000D01*
X1949000Y1345500D02*
Y1419500D01*
Y1345500D02*
X1962000D01*
X2045500Y1360200D02*
X2060750D01*
X2042000Y1361500D02*
Y1410500D01*
X2010000D02*
X2042000D01*
X2010000Y1361500D02*
Y1410500D01*
Y1361500D02*
X2042000D01*
X1354500Y1474000D02*
X1354500Y1488000D01*
X1338500Y1474000D02*
Y1488000D01*
Y1474000D02*
X1343000Y1474000D01*
X1350000D02*
X1354500D01*
X1350000Y1488000D02*
X1354500Y1488000D01*
X1338500D02*
X1343000D01*
X786120Y1106430D02*
Y1127430D01*
X721120D02*
X786120D01*
X721120Y1106430D02*
Y1127430D01*
X643600Y1132609D02*
X694600D01*
X643600Y878609D02*
Y1132609D01*
Y878609D02*
X694600D01*
Y1132609D01*
X726980Y1340380D02*
X735980D01*
Y1333130D02*
Y1340380D01*
X726980Y1311380D02*
X735980Y1311380D01*
X735980Y1318630D02*
X735980Y1311380D01*
X721980Y1328880D02*
X721980Y1322880D01*
X719600Y1237060D02*
X728600D01*
X719600D02*
Y1244310D01*
Y1266060D02*
X728600D01*
X719600Y1258810D02*
Y1266060D01*
X733600Y1248560D02*
Y1254560D01*
X820870Y779730D02*
X869370D01*
X820870D02*
Y832570D01*
X869370D01*
Y779730D02*
Y832570D01*
X872870Y780350D02*
X889370D01*
X558800Y1422400D02*
X584200D01*
Y1397000D02*
Y1422400D01*
X558800Y1397000D02*
Y1422400D01*
X584200Y1416050D02*
X590550Y1422400D01*
X603250D01*
X609600Y1416050D01*
X609600Y1403350D01*
X603250Y1397000D02*
X609600Y1403350D01*
X590550Y1397000D02*
X603250D01*
X584200Y1403350D02*
X590550Y1397000D01*
X558800D02*
X584200D01*
X558800Y1524000D02*
X558800Y1549400D01*
X584200Y1517650D02*
X590550Y1524000D01*
X584200Y1543050D02*
X590550Y1549400D01*
X584200Y1530350D02*
X590550Y1524000D01*
X584200Y1530350D02*
Y1549400D01*
X558800Y1524000D02*
X577850D01*
X558800Y1549400D02*
X584200Y1549400D01*
X577850Y1524000D02*
X584200Y1517650D01*
X558800D02*
X565150Y1524000D01*
X603250Y1524000D02*
X609600Y1530350D01*
X590550Y1524000D02*
X603250D01*
X590550Y1549400D02*
X603250D01*
X609600Y1543050D01*
X609600Y1530350D01*
X603250Y1524000D02*
X609600Y1517650D01*
X609600Y1504950D02*
X609600Y1517650D01*
X603250Y1498600D02*
X609600Y1504950D01*
X590550Y1498600D02*
X603250D01*
X584200Y1504950D02*
X590550Y1498600D01*
X584200Y1492250D02*
X590550Y1498600D01*
X584200Y1479550D02*
X590550Y1473200D01*
X603250D01*
X609600Y1479550D01*
Y1492250D01*
X603250Y1498600D02*
X609600Y1492250D01*
X603250Y1473200D02*
X609600Y1466850D01*
Y1454150D02*
Y1466850D01*
X603250Y1447800D02*
X609600Y1454150D01*
X590550Y1447800D02*
X603250Y1447800D01*
X584200Y1454150D02*
X590550Y1447800D01*
X584200Y1466850D02*
X590550Y1473200D01*
X558800Y1466850D02*
X565150Y1473200D01*
X609600Y1454150D02*
Y1466850D01*
X558800Y1454150D02*
X565150Y1447800D01*
X577850Y1447800D01*
X584200Y1454150D01*
Y1466850D01*
X577850Y1473200D02*
X584200Y1466850D01*
X577850Y1498600D02*
X584200Y1492250D01*
Y1479550D02*
Y1492250D01*
X577850Y1473200D02*
X584200Y1479550D01*
X565150Y1473200D02*
X577850D01*
X558800Y1479550D02*
X565150Y1473200D01*
X609600Y1479550D02*
Y1492250D01*
X558800Y1492250D02*
X565150Y1498600D01*
X609600Y1504950D02*
X609600Y1517650D01*
X558800Y1504950D02*
X565150Y1498600D01*
X577850Y1498600D01*
X584200Y1504950D01*
X584200Y1517650D02*
X584200Y1504950D01*
X609600Y1543050D02*
X609600Y1530350D01*
X558800Y1504950D02*
X558800Y1517650D01*
X558800Y1479550D02*
X558800Y1492250D01*
X558800Y1466850D02*
X558800Y1454150D01*
X558800Y1244600D02*
X584200D01*
Y1219200D02*
Y1244600D01*
X558800Y1219200D02*
Y1244600D01*
X584200Y1238250D02*
X590550Y1244600D01*
X603250Y1244600D01*
X609600Y1238250D01*
Y1225550D02*
Y1238250D01*
X603250Y1219200D02*
X609600Y1225550D01*
X590550Y1219200D02*
X603250Y1219200D01*
X584200Y1225550D02*
X590550Y1219200D01*
X558800Y1219200D02*
X584200D01*
X747380Y1146740D02*
X761380D01*
X747380Y1162740D02*
X761380D01*
X747380Y1158240D02*
Y1162740D01*
Y1146740D02*
Y1151240D01*
X761380Y1146740D02*
Y1151240D01*
Y1158240D02*
Y1162740D01*
X558800Y1066800D02*
X584200Y1066800D01*
Y1041400D02*
Y1066800D01*
X558800Y1041400D02*
Y1066800D01*
X584200Y1060450D02*
X590550Y1066800D01*
X603250D01*
X609600Y1060450D01*
X609600Y1047750D02*
X609600Y1060450D01*
X603250Y1041400D02*
X609600Y1047750D01*
X590550Y1041400D02*
X603250D01*
X584200Y1047750D02*
X590550Y1041400D01*
X558800Y1041400D02*
X584200Y1041400D01*
X558800Y1168400D02*
Y1193800D01*
X584200Y1162050D02*
X590550Y1168400D01*
X584200Y1187450D02*
X590550Y1193800D01*
X584200Y1174750D02*
X590550Y1168400D01*
X584200Y1174750D02*
Y1193800D01*
X558800Y1168400D02*
X577850D01*
X558800Y1193800D02*
X584200D01*
X577850Y1168400D02*
X584200Y1162050D01*
X558800D02*
X565150Y1168400D01*
X603250D02*
X609600Y1174750D01*
X590550Y1168400D02*
X603250D01*
X590550Y1193800D02*
X603250D01*
X609600Y1187450D01*
Y1174750D02*
Y1187450D01*
X603250Y1168400D02*
X609600Y1162050D01*
Y1149350D02*
Y1162050D01*
X603250Y1143000D02*
X609600Y1149350D01*
X590550Y1143000D02*
X603250D01*
X584200Y1149350D02*
X590550Y1143000D01*
X584200Y1136650D02*
X590550Y1143000D01*
X584200Y1123950D02*
X590550Y1117600D01*
X603250D01*
X609600Y1123950D01*
Y1136650D01*
X603250Y1143000D02*
X609600Y1136650D01*
X603250Y1117600D02*
X609600Y1111250D01*
Y1098550D02*
Y1111250D01*
X603250Y1092200D02*
X609600Y1098550D01*
X590550Y1092200D02*
X603250D01*
X584200Y1098550D02*
X590550Y1092200D01*
X584200Y1111250D02*
X590550Y1117600D01*
X558800Y1111250D02*
X565150Y1117600D01*
X609600Y1098550D02*
Y1111250D01*
X558800Y1098550D02*
X565150Y1092200D01*
X577850D01*
X584200Y1098550D01*
Y1111250D01*
X577850Y1117600D02*
X584200Y1111250D01*
X577850Y1143000D02*
X584200Y1136650D01*
Y1123950D02*
Y1136650D01*
X577850Y1117600D02*
X584200Y1123950D01*
X565150Y1117600D02*
X577850D01*
X558800Y1123950D02*
X565150Y1117600D01*
X609600Y1123950D02*
Y1136650D01*
X558800D02*
X565150Y1143000D01*
X609600Y1149350D02*
Y1162050D01*
X558800Y1149350D02*
X565150Y1143000D01*
X577850D01*
X584200Y1149350D01*
Y1162050D01*
X609600Y1174750D02*
Y1187450D01*
X558800Y1149350D02*
Y1162050D01*
Y1123950D02*
Y1136650D01*
Y1098550D02*
Y1111250D01*
X558800Y1346200D02*
X558800Y1371600D01*
X584200Y1339850D02*
X590550Y1346200D01*
X584200Y1365250D02*
X590550Y1371600D01*
X584200Y1352550D02*
X590550Y1346200D01*
X584200Y1352550D02*
Y1371600D01*
X558800Y1346200D02*
X577850D01*
X558800Y1371600D02*
X584200Y1371600D01*
X577850Y1346200D02*
X584200Y1339850D01*
X558800D02*
X565150Y1346200D01*
X603250Y1346200D02*
X609600Y1352550D01*
X590550Y1346200D02*
X603250D01*
X590550Y1371600D02*
X603250D01*
X609600Y1365250D01*
X609600Y1352550D01*
X603250Y1346200D02*
X609600Y1339850D01*
X609600Y1327150D02*
X609600Y1339850D01*
X603250Y1320800D02*
X609600Y1327150D01*
X590550Y1320800D02*
X603250D01*
X584200Y1327150D02*
X590550Y1320800D01*
X584200Y1314450D02*
X590550Y1320800D01*
X584200Y1301750D02*
X590550Y1295400D01*
X603250Y1295400D01*
X609600Y1301750D01*
Y1314450D01*
X603250Y1320800D02*
X609600Y1314450D01*
X603250Y1295400D02*
X609600Y1289050D01*
Y1276350D02*
Y1289050D01*
X603250Y1270000D02*
X609600Y1276350D01*
X590550Y1270000D02*
X603250Y1270000D01*
X584200Y1276350D02*
X590550Y1270000D01*
X584200Y1289050D02*
X590550Y1295400D01*
X558800Y1289050D02*
X565150Y1295400D01*
X609600Y1276350D02*
Y1289050D01*
X558800Y1276350D02*
X565150Y1270000D01*
X577850Y1270000D01*
X584200Y1276350D01*
Y1289050D01*
X577850Y1295400D02*
X584200Y1289050D01*
X577850Y1320800D02*
X584200Y1314450D01*
Y1301750D02*
Y1314450D01*
X577850Y1295400D02*
X584200Y1301750D01*
X565150Y1295400D02*
X577850Y1295400D01*
X558800Y1301750D02*
X565150Y1295400D01*
X609600Y1301750D02*
Y1314450D01*
X558800Y1314450D02*
X565150Y1320800D01*
X609600Y1327150D02*
X609600Y1339850D01*
X558800Y1327150D02*
X565150Y1320800D01*
X577850Y1320800D01*
X584200Y1327150D01*
X584200Y1339850D02*
X584200Y1327150D01*
X609600Y1365250D02*
X609600Y1352550D01*
X558800Y1327150D02*
X558800Y1339850D01*
Y1301750D02*
Y1314450D01*
X558800Y1289050D02*
X558800Y1276350D01*
X1430110Y768670D02*
X1501110D01*
Y665670D02*
Y768670D01*
X1430110Y665670D02*
X1501110D01*
X1430110D02*
Y768670D01*
X1409110Y768370D02*
X1426610D01*
X1429400Y653490D02*
X1500400D01*
X1500400Y550490D02*
X1500400Y653490D01*
X1429400Y550490D02*
X1500400Y550490D01*
X1429400Y550490D02*
X1429400Y653490D01*
X1408400Y653190D02*
X1425900Y653190D01*
X1429400Y539190D02*
X1500400Y539190D01*
X1500400Y436190D01*
X1429400D02*
X1500400D01*
X1429400D02*
Y539190D01*
X1408400Y538890D02*
X1425900Y538890D01*
X1429400Y424690D02*
X1500400D01*
X1500400Y321690D02*
X1500400Y424690D01*
X1429400Y321690D02*
X1500400Y321690D01*
X1429400Y321690D02*
Y424690D01*
X1408400Y424390D02*
X1425900Y424390D01*
X1430110Y882970D02*
X1501110D01*
X1501110Y779970D01*
X1430110D02*
X1501110D01*
X1430110D02*
Y882970D01*
X1409110Y882670D02*
X1426610Y882670D01*
X1253200Y1386359D02*
X1304200D01*
X1253200Y1132359D02*
Y1386359D01*
Y1132359D02*
X1304200D01*
Y1386359D01*
X643600Y1386609D02*
X694600D01*
X643600Y1132609D02*
Y1386609D01*
Y1132609D02*
X694600D01*
Y1386609D01*
X1253200Y1132359D02*
X1304200D01*
X1253200Y878359D02*
Y1132359D01*
Y878359D02*
X1304200D01*
Y1132359D01*
X643600Y878609D02*
X694600D01*
X643600Y624609D02*
Y878609D01*
Y624609D02*
X694600D01*
Y878609D01*
X1253200Y878359D02*
X1304200D01*
X1253200Y624359D02*
Y878359D01*
Y624359D02*
X1304200D01*
Y878359D01*
X643600Y624609D02*
X694600D01*
X643600Y370609D02*
Y624609D01*
Y370609D02*
X694600D01*
Y624609D01*
X1253200Y624359D02*
X1304200D01*
X1253200Y370359D02*
Y624359D01*
Y370359D02*
X1304200D01*
Y624359D01*
D11*
X2491860Y498111D02*
G03*
X2476860Y483111I0J-15000D01*
G01*
X2476860Y297111D02*
G03*
X2492860Y281111I16000J0D01*
G01*
X2476860Y617151D02*
G03*
X2492860Y601151I16000J0D01*
G01*
X2491860Y818150D02*
G03*
X2476860Y803151I0J-15000D01*
G01*
X2476860Y932111D02*
G03*
X2492860Y916111I16000J0D01*
G01*
X2491860Y1133111D02*
G03*
X2476860Y1118111I0J-15000D01*
G01*
X2491711Y1457590D02*
G03*
X2476711Y1442590I0J-15000D01*
G01*
X2476711Y1256590D02*
G03*
X2492711Y1240590I16000J0D01*
G01*
X413000Y1483040D02*
X425150D01*
X442850D02*
X445150D01*
X462850D02*
X464000D01*
X413000Y1541040D02*
X425150D01*
X442850D02*
X445150D01*
X462850D02*
X464000D01*
Y1483040D02*
Y1492313D01*
Y1511767D02*
Y1512313D01*
Y1531767D02*
Y1541040D01*
X393000Y1495040D02*
X413000D01*
X393000Y1529040D02*
X413000D01*
X393000Y1495040D02*
Y1529040D01*
X365000Y1524541D02*
X393000D01*
X365000Y1499540D02*
X393000D01*
X365000D02*
Y1524541D01*
X413000Y1483040D02*
Y1541040D01*
Y1163041D02*
Y1221040D01*
X365000Y1179540D02*
Y1204541D01*
Y1179540D02*
X393000D01*
X365000Y1204541D02*
X393000D01*
Y1175040D02*
Y1209040D01*
X413000D01*
X393000Y1175040D02*
X413000D01*
X464000Y1211768D02*
Y1221040D01*
Y1191768D02*
Y1192313D01*
Y1163041D02*
Y1172313D01*
X462850Y1221040D02*
X464000D01*
X442850D02*
X445150D01*
X413000D02*
X425150D01*
X462850Y1163041D02*
X464000D01*
X442850D02*
X445150D01*
X413000D02*
X425150D01*
X413000Y843040D02*
Y901040D01*
X365000Y859540D02*
Y884540D01*
Y859540D02*
X393000D01*
X365000Y884540D02*
X393000D01*
Y855040D02*
Y889040D01*
X413000D01*
X393000Y855040D02*
X413000D01*
X464000Y891767D02*
Y901040D01*
Y871767D02*
Y872313D01*
Y843040D02*
Y852313D01*
X462850Y901040D02*
X464000D01*
X442850D02*
X445150D01*
X413000D02*
X425150D01*
X462850Y843040D02*
X464000D01*
X442850D02*
X445150D01*
X413000D02*
X425150D01*
X413000Y523040D02*
X425150D01*
X442850D02*
X445150D01*
X462850D02*
X464000D01*
X413000Y581040D02*
X425150D01*
X442850D02*
X445150D01*
X462850D02*
X464000D01*
Y523040D02*
Y532313D01*
Y551767D02*
Y552313D01*
Y571767D02*
Y581040D01*
X393000Y535040D02*
X413000D01*
X393000Y569040D02*
X413000D01*
X393000Y535040D02*
Y569040D01*
X365000Y564540D02*
X393000D01*
X365000Y539540D02*
X393000D01*
X365000D02*
Y564540D01*
X413000Y523040D02*
Y581040D01*
X456500Y1292040D02*
Y1462040D01*
X434948Y1292040D02*
X456500D01*
X381500D02*
X403052D01*
X434948Y1462040D02*
X456500D01*
X381500D02*
X403052D01*
X381500Y1292040D02*
Y1462040D01*
X316500Y1377040D02*
X381500D01*
X316500D02*
Y1431040D01*
X381500D01*
X316500Y1111040D02*
X381500D01*
X316500Y1057040D02*
Y1111040D01*
Y1057040D02*
X381500D01*
Y972040D02*
Y1142040D01*
X403052D01*
X434948D02*
X456500D01*
X381500Y972040D02*
X403052D01*
X434948D02*
X456500D01*
Y1142040D01*
X316500Y791040D02*
X381500D01*
X316500Y737040D02*
Y791040D01*
Y737040D02*
X381500D01*
Y652040D02*
Y822040D01*
X403052D01*
X434948D02*
X456500D01*
X381500Y652040D02*
X403052D01*
X434948D02*
X456500D01*
Y822040D01*
Y332040D02*
Y502040D01*
X434948Y332040D02*
X456500D01*
X381500D02*
X403052D01*
X434948Y502040D02*
X456500D01*
X381500D02*
X403052D01*
X381500Y332040D02*
Y502040D01*
X316500Y417040D02*
X381500D01*
X316500D02*
Y471040D01*
X381500D01*
X400000Y207540D02*
X412150D01*
X429850D02*
X432150D01*
X449850D02*
X451000D01*
X400000Y265540D02*
X412150D01*
X429850D02*
X432150D01*
X449850D02*
X451000D01*
Y207540D02*
Y216813D01*
Y236267D02*
Y236813D01*
Y256267D02*
Y265540D01*
X380000Y219540D02*
X400000D01*
X380000Y253540D02*
X400000D01*
X380000Y219540D02*
Y253540D01*
X352000Y249041D02*
X380000D01*
X352000Y224040D02*
X380000D01*
X352000D02*
Y249041D01*
X400000Y207540D02*
Y265540D01*
X2492860Y281111D02*
X2533860D01*
Y264611D02*
Y281111D01*
Y264611D02*
X2594860Y264611D01*
Y278770D01*
X2412859Y310611D02*
X2476860D01*
X2353360Y325611D02*
Y378778D01*
Y325611D02*
X2373860Y325611D01*
Y313111D02*
Y325611D01*
Y313111D02*
X2393687D01*
X2399360Y468610D02*
X2402794Y468610D01*
X2399360Y468610D02*
X2399360Y466111D01*
X2374360D02*
X2399360D01*
X2374360Y453610D02*
Y466111D01*
X2353360Y453610D02*
X2374360D01*
X2353360Y399743D02*
Y453610D01*
X2476860Y475111D02*
Y483111D01*
X2449860Y475111D02*
X2476860D01*
X2449860Y468610D02*
Y475111D01*
X2418426Y468610D02*
X2449860D01*
X2594760Y499260D02*
Y514610D01*
X2533860Y514610D02*
X2594760Y514610D01*
X2533860Y498111D02*
Y514610D01*
X2651760Y278770D02*
Y499260D01*
X2594760Y278770D02*
X2651760D01*
X2594760Y279260D02*
Y499260D01*
X2651760D01*
X2491860Y498111D02*
X2533860D01*
X2476860Y297111D02*
Y310611D01*
X2476860Y617151D02*
Y630651D01*
X2491860Y818150D02*
X2533860D01*
X2594760Y819300D02*
X2651760D01*
X2594760Y599300D02*
Y819300D01*
Y598810D02*
X2651760D01*
Y819300D01*
X2533860Y818150D02*
Y834650D01*
X2594760Y834650D01*
Y819300D02*
Y834650D01*
X2418426Y788651D02*
X2449860D01*
Y795151D01*
X2476860D01*
Y803151D01*
X2353360Y719783D02*
Y773651D01*
X2374360D01*
Y786151D01*
X2399360D01*
X2399360Y788651D02*
X2399360Y786151D01*
X2399360Y788651D02*
X2402794Y788651D01*
X2373860Y633151D02*
X2393687D01*
X2373860D02*
Y645651D01*
X2353360Y645651D02*
X2373860Y645651D01*
X2353360Y645651D02*
Y698818D01*
X2412859Y630651D02*
X2476860D01*
X2594860Y584651D02*
Y598810D01*
X2533860Y584651D02*
X2594860Y584651D01*
X2533860Y584651D02*
Y601151D01*
X2492860D02*
X2533860D01*
X2476860Y932111D02*
Y945611D01*
X2491860Y1133111D02*
X2533860D01*
X2594760Y1134260D02*
X2651760D01*
X2594760Y914260D02*
Y1134260D01*
Y913770D02*
X2651760D01*
Y1134260D01*
X2533860Y1133111D02*
Y1149610D01*
X2594760Y1149610D01*
Y1134260D02*
Y1149610D01*
X2418426Y1103611D02*
X2449860D01*
Y1110111D01*
X2476860D01*
Y1118111D01*
X2353360Y1034743D02*
Y1088611D01*
X2374360D01*
Y1101111D01*
X2399360D01*
X2399360Y1103611D02*
X2399360Y1101111D01*
X2399360Y1103611D02*
X2402794Y1103611D01*
X2373860Y948111D02*
X2393687D01*
X2373860D02*
Y960611D01*
X2353360Y960611D02*
X2373860Y960611D01*
X2353360Y960611D02*
Y1013778D01*
X2412859Y945611D02*
X2476860D01*
X2594860Y899611D02*
Y913770D01*
X2533860Y899611D02*
X2594860Y899611D01*
X2533860Y899611D02*
Y916111D01*
X2492860D02*
X2533860D01*
X2492711Y1240590D02*
X2533711D01*
Y1224090D02*
Y1240590D01*
Y1224090D02*
X2594711Y1224090D01*
Y1238249D01*
X2412710Y1270090D02*
X2476711D01*
X2353211Y1285090D02*
Y1338257D01*
Y1285090D02*
X2373711Y1285090D01*
Y1272590D02*
Y1285090D01*
Y1272590D02*
X2393537D01*
X2399211Y1428090D02*
X2402644Y1428090D01*
X2399211Y1428090D02*
X2399211Y1425590D01*
X2374211D02*
X2399211D01*
X2374211Y1413090D02*
Y1425590D01*
X2353211Y1413090D02*
X2374211D01*
X2353211Y1359222D02*
Y1413090D01*
X2476711Y1434590D02*
Y1442590D01*
X2449711Y1434590D02*
X2476711D01*
X2449711Y1428090D02*
Y1434590D01*
X2418277Y1428090D02*
X2449711D01*
X2594611Y1458739D02*
Y1474090D01*
X2533711Y1474090D02*
X2594611Y1474090D01*
X2533711Y1457590D02*
Y1474090D01*
X2651611Y1238249D02*
Y1458739D01*
X2594611Y1238249D02*
X2651611D01*
X2594611Y1238739D02*
Y1458739D01*
X2651611D01*
X2491711Y1457590D02*
X2533711D01*
X2476711Y1256590D02*
Y1270090D01*
X952510Y1142210D02*
X967510D01*
X867510D02*
X937510D01*
X867510Y922210D02*
Y1142210D01*
Y922210D02*
X937510D01*
X952510D02*
X967510D01*
Y1142210D01*
X968700Y1160830D02*
Y1380829D01*
X953700Y1160830D02*
X968700D01*
X868700D02*
X938700D01*
X868700D02*
Y1380829D01*
X938700D01*
X953700D02*
X968700D01*
X1798965Y263057D02*
X1793887D01*
X1796426D01*
Y250361D01*
X1793887Y247822D01*
X1791347D01*
X1788808Y250361D01*
X1811661Y247822D02*
Y263057D01*
X1804043Y255439D01*
X1814200D01*
X1819278Y247822D02*
X1824357D01*
X1821818D01*
Y263057D01*
X1819278Y260518D01*
X644144Y1574541D02*
X654301Y1559306D01*
Y1574541D02*
X644144Y1559306D01*
X659379D02*
X664457D01*
X661918D01*
Y1574541D01*
X659379Y1572002D01*
X682232Y1574541D02*
X672075D01*
Y1566924D01*
X677153Y1569463D01*
X679693D01*
X682232Y1566924D01*
Y1561845D01*
X679693Y1559306D01*
X674614D01*
X672075Y1561845D01*
X1514960Y263057D02*
X1509881D01*
X1512421D01*
Y250361D01*
X1509881Y247822D01*
X1507342D01*
X1504803Y250361D01*
X1520038Y260518D02*
X1522577Y263057D01*
X1527656D01*
X1530195Y260518D01*
Y257979D01*
X1527656Y255440D01*
X1525116D01*
X1527656D01*
X1530195Y252901D01*
Y250361D01*
X1527656Y247822D01*
X1522577D01*
X1520038Y250361D01*
X1535273D02*
X1537812Y247822D01*
X1542891D01*
X1545430Y250361D01*
Y260518D01*
X1542891Y263057D01*
X1537812D01*
X1535273Y260518D01*
Y257979D01*
X1537812Y255440D01*
X1545430D01*
X1657959Y263057D02*
X1652881D01*
X1655420D01*
Y250361D01*
X1652881Y247822D01*
X1650342D01*
X1647803Y250361D01*
X1670655Y247822D02*
Y263057D01*
X1663038Y255440D01*
X1673194D01*
X1678273Y260518D02*
X1680812Y263057D01*
X1685890D01*
X1688430Y260518D01*
Y250361D01*
X1685890Y247822D01*
X1680812D01*
X1678273Y250361D01*
Y260518D01*
X1967921Y263417D02*
X1962842D01*
X1965381D01*
Y250721D01*
X1962842Y248182D01*
X1960303D01*
X1957764Y250721D01*
X1980617Y248182D02*
Y263417D01*
X1972999Y255800D01*
X1983156D01*
X1998391Y263417D02*
X1988234D01*
Y255800D01*
X1993313Y258339D01*
X1995852D01*
X1998391Y255800D01*
Y250721D01*
X1995852Y248182D01*
X1990773D01*
X1988234Y250721D01*
X901189Y1594607D02*
X896110D01*
X898650D01*
Y1581911D01*
X896110Y1579372D01*
X893571D01*
X891032Y1581911D01*
X906267Y1592068D02*
X908806Y1594607D01*
X913885D01*
X916424Y1592068D01*
Y1589529D01*
X913885Y1586989D01*
X911345D01*
X913885D01*
X916424Y1584450D01*
Y1581911D01*
X913885Y1579372D01*
X908806D01*
X906267Y1581911D01*
X921502Y1592068D02*
X924041Y1594607D01*
X929120D01*
X931659Y1592068D01*
Y1589529D01*
X929120Y1586989D01*
X931659Y1584450D01*
Y1581911D01*
X929120Y1579372D01*
X924041D01*
X921502Y1581911D01*
Y1584450D01*
X924041Y1586989D01*
X921502Y1589529D01*
Y1592068D01*
X924041Y1586989D02*
X929120D01*
X944623Y1500881D02*
X939544D01*
X942084D01*
Y1488185D01*
X939544Y1485646D01*
X937005D01*
X934466Y1488185D01*
X949701Y1498342D02*
X952240Y1500881D01*
X957319D01*
X959858Y1498342D01*
Y1495803D01*
X957319Y1493264D01*
X954779D01*
X957319D01*
X959858Y1490724D01*
Y1488185D01*
X957319Y1485646D01*
X952240D01*
X949701Y1488185D01*
X964936Y1500881D02*
X975093D01*
Y1498342D01*
X964936Y1488185D01*
Y1485646D01*
X2120389Y866389D02*
X2115310D01*
X2117849D01*
Y853693D01*
X2115310Y851154D01*
X2112771D01*
X2110232Y853693D01*
X2125467Y863850D02*
X2128006Y866389D01*
X2133085D01*
X2135624Y863850D01*
Y861311D01*
X2133085Y858772D01*
X2130545D01*
X2133085D01*
X2135624Y856232D01*
Y853693D01*
X2133085Y851154D01*
X2128006D01*
X2125467Y853693D01*
X2150859Y866389D02*
X2145780Y863850D01*
X2140702Y858772D01*
Y853693D01*
X2143241Y851154D01*
X2148320D01*
X2150859Y853693D01*
Y856232D01*
X2148320Y858772D01*
X2140702D01*
X1791459Y682239D02*
X1786380D01*
X1788920D01*
Y669543D01*
X1786380Y667004D01*
X1783841D01*
X1781302Y669543D01*
X1796537Y679700D02*
X1799076Y682239D01*
X1804155D01*
X1806694Y679700D01*
Y677161D01*
X1804155Y674622D01*
X1801615D01*
X1804155D01*
X1806694Y672082D01*
Y669543D01*
X1804155Y667004D01*
X1799076D01*
X1796537Y669543D01*
X1821929Y682239D02*
X1811772D01*
Y674622D01*
X1816850Y677161D01*
X1819390D01*
X1821929Y674622D01*
Y669543D01*
X1819390Y667004D01*
X1814311D01*
X1811772Y669543D01*
X1791459Y881629D02*
X1786380D01*
X1788920D01*
Y868933D01*
X1786380Y866394D01*
X1783841D01*
X1781302Y868933D01*
X1796537Y879090D02*
X1799076Y881629D01*
X1804155D01*
X1806694Y879090D01*
Y876551D01*
X1804155Y874012D01*
X1801615D01*
X1804155D01*
X1806694Y871472D01*
Y868933D01*
X1804155Y866394D01*
X1799076D01*
X1796537Y868933D01*
X1819390Y866394D02*
Y881629D01*
X1811772Y874012D01*
X1821929D01*
X1792221Y1086099D02*
X1787142D01*
X1789682D01*
Y1073403D01*
X1787142Y1070864D01*
X1784603D01*
X1782064Y1073403D01*
X1797299Y1083560D02*
X1799838Y1086099D01*
X1804917D01*
X1807456Y1083560D01*
Y1081021D01*
X1804917Y1078482D01*
X1802377D01*
X1804917D01*
X1807456Y1075942D01*
Y1073403D01*
X1804917Y1070864D01*
X1799838D01*
X1797299Y1073403D01*
X1812534Y1083560D02*
X1815073Y1086099D01*
X1820152D01*
X1822691Y1083560D01*
Y1081021D01*
X1820152Y1078482D01*
X1817612D01*
X1820152D01*
X1822691Y1075942D01*
Y1073403D01*
X1820152Y1070864D01*
X1815073D01*
X1812534Y1073403D01*
D12*
X787870Y1149430D02*
G03*
X787870Y1149430I-1250J0D01*
G01*
D13*
X882510Y1132210D02*
G03*
X882510Y1132210I-5000J0D01*
G01*
X952510Y922210D02*
G03*
X937510Y922210I-7500J0D01*
G01*
Y1142210D02*
G03*
X952510Y1142210I7500J0D01*
G01*
X938700Y1380830D02*
G03*
X953700Y1380830I7500J0D01*
G01*
Y1160830D02*
G03*
X938700Y1160830I-7500J0D01*
G01*
X883700Y1370830D02*
G03*
X883700Y1370830I-5000J0D01*
G01*
D14*
X2521217Y1521100D02*
G03*
X2521217Y1521100I-22361J0D01*
G01*
X2521537Y1201100D02*
G03*
X2521537Y1201100I-22361J0D01*
G01*
X2522487Y879870D02*
G03*
X2522487Y879870I-22361J0D01*
G01*
X2521217Y561100D02*
G03*
X2521217Y561100I-22361J0D01*
G01*
D15*
X646100Y1137359D02*
D03*
X1255700Y1391109D02*
D03*
X646100Y1391359D02*
D03*
X1255700Y1137109D02*
D03*
X646100Y883359D02*
D03*
X1255700Y883109D02*
D03*
X646100Y629359D02*
D03*
X1255700Y629109D02*
D03*
D16*
X1457960Y1424940D02*
X1484630Y1442720D01*
X1097280Y1459230D02*
X1115060D01*
Y1480820D02*
X1202690D01*
X1115060Y1459230D02*
Y1480820D01*
X984500Y1556750D02*
Y1569050D01*
X895100D02*
X984500D01*
X895100Y1556750D02*
Y1569050D01*
Y1514950D02*
Y1529350D01*
X984500Y1514950D02*
Y1529350D01*
X1737880Y1405700D02*
X1847100D01*
X1854720Y1398080D01*
X1854720Y1343470D02*
X1854720Y1398080D01*
X1737880Y1343470D02*
X1854720Y1343470D01*
X1737880Y1343470D02*
Y1405700D01*
X1839480Y1381570D02*
X1842020Y1379030D01*
X1839480Y1379030D02*
X1842020Y1381570D01*
X1501880Y1404700D02*
X1611100Y1404700D01*
X1618720Y1397080D01*
X1618720Y1342470D02*
X1618720Y1397080D01*
X1501880Y1342470D02*
X1618720D01*
X1501880Y1404700D02*
X1501880Y1342470D01*
X1603480Y1380570D02*
X1606020Y1378030D01*
X1603480D02*
X1606020Y1380570D01*
X1817500Y1486300D02*
X1926720D01*
X1809880Y1493920D02*
X1817500Y1486300D01*
X1809880Y1493920D02*
X1809880Y1548530D01*
X1926720Y1548530D01*
Y1486300D02*
Y1548530D01*
X1822580Y1512970D02*
X1825120Y1510430D01*
X1822580D02*
X1825120Y1512970D01*
X415489Y1245622D02*
X431703Y1239750D01*
X407573Y1261340D02*
X415489Y1245622D01*
X446943Y1246100D02*
X453238Y1262663D01*
X431703Y1239750D02*
X446943Y1246100D01*
X407573Y1261340D02*
X415489Y1278038D01*
X430893Y1284191D01*
X446943Y1277850D01*
X453238Y1262663D01*
X415489Y925622D02*
X431703Y919750D01*
X407573Y941340D02*
X415489Y925622D01*
X446943Y926100D02*
X453238Y942663D01*
X431703Y919750D02*
X446943Y926100D01*
X407573Y941340D02*
X415489Y958038D01*
X430893Y964191D01*
X446943Y957850D01*
X453238Y942663D01*
X415489Y605622D02*
X431703Y599750D01*
X407573Y621340D02*
X415489Y605622D01*
X446943Y606100D02*
X453238Y622663D01*
X431703Y599750D02*
X446943Y606100D01*
X407573Y621340D02*
X415489Y638038D01*
X430893Y644191D01*
X446943Y637850D01*
X453238Y622663D01*
X446943Y317850D02*
X453238Y302663D01*
X430893Y324191D02*
X446943Y317850D01*
X415489Y318038D02*
X430893Y324191D01*
X407573Y301340D02*
X415489Y318038D01*
X431703Y279750D02*
X446943Y286100D01*
X453238Y302663D01*
X407573Y301340D02*
X415489Y285622D01*
X431703Y279750D01*
X1589580Y1511430D02*
X1592120Y1513970D01*
X1589580Y1513970D02*
X1592120Y1511430D01*
X1693720Y1487300D02*
Y1549530D01*
X1576880Y1549530D02*
X1693720Y1549530D01*
X1576880Y1494920D02*
X1576880Y1549530D01*
X1576880Y1494920D02*
X1584500Y1487300D01*
X1693720D01*
X1276860Y1407900D02*
X1283460D01*
X1288160Y1419050D02*
Y1425750D01*
X1276860Y1436900D02*
X1283460D01*
X1276860Y1448540D02*
X1283460D01*
X1288160Y1459690D02*
Y1466390D01*
X1276860Y1477540D02*
X1283460D01*
D17*
X471900Y1482200D02*
Y1484120D01*
X501900D01*
Y1482200D02*
Y1484120D01*
Y1472120D02*
Y1474040D01*
X471900Y1472120D02*
Y1474040D01*
Y1472120D02*
X501900D01*
X486900D02*
Y1484120D01*
X471900Y1162160D02*
Y1164080D01*
X501900D01*
Y1162160D02*
Y1164080D01*
Y1152080D02*
Y1154000D01*
X471900Y1152080D02*
Y1154000D01*
Y1152080D02*
X501900D01*
X486900D02*
Y1164080D01*
X471900Y842120D02*
Y844040D01*
X501900D01*
Y842120D02*
Y844040D01*
Y832040D02*
Y833960D01*
X471900Y832040D02*
Y833960D01*
Y832040D02*
X501900D01*
X486900D02*
Y844040D01*
X471900Y522080D02*
Y524000D01*
X501900D01*
Y522080D02*
Y524000D01*
Y512000D02*
Y513920D01*
X471900Y512000D02*
Y513920D01*
Y512000D02*
X501900D01*
X486900D02*
Y524000D01*
X1719600Y1477000D02*
X1723600Y1477000D01*
X1719600Y1477000D02*
Y1511000D01*
X1723600D01*
X1733600D02*
X1737600D01*
Y1477000D02*
Y1511000D01*
X1733600Y1477000D02*
X1737600D01*
X1719600Y1494000D02*
X1737600Y1494000D01*
X1780600Y1472200D02*
X1782520Y1472200D01*
X1780600Y1472200D02*
X1780600Y1446800D01*
X1782520Y1446800D01*
X1792680Y1446800D02*
X1794600Y1446800D01*
X1794600Y1472200D01*
X1792680Y1472200D02*
X1794600Y1472200D01*
X1780600Y1459500D02*
X1794600D01*
X1624800Y1434920D02*
X1624800Y1433000D01*
X1650200D01*
X1650200Y1434920D02*
X1650200Y1433000D01*
X1650200Y1447000D02*
X1650200Y1445080D01*
X1624800Y1447000D02*
X1650200Y1447000D01*
X1624800Y1445080D02*
X1624800Y1447000D01*
X1637500Y1433000D02*
X1637500Y1447000D01*
X1570550Y1459000D02*
X1570550Y1457080D01*
X1545150Y1459000D02*
X1570550D01*
X1545150D02*
X1545150Y1457080D01*
X1545150Y1446920D02*
X1545150Y1445000D01*
X1570550D01*
X1570550Y1446920D01*
X1557850Y1445000D02*
X1557850Y1459000D01*
X1708000Y1416000D02*
X1712000Y1416000D01*
Y1382000D02*
Y1416000D01*
X1708000Y1382000D02*
X1712000D01*
X1694000D02*
X1698000D01*
X1694000D02*
Y1416000D01*
X1698000D01*
X1694000Y1399000D02*
X1712000Y1399000D01*
X1483600Y1476000D02*
X1487600Y1476000D01*
X1483600Y1476000D02*
Y1510000D01*
X1487600Y1510000D01*
X1497600Y1510000D02*
X1501600Y1510000D01*
X1501600Y1476000D02*
X1501600Y1510000D01*
X1497600Y1476000D02*
X1501600D01*
X1483600Y1493000D02*
X1501600D01*
X1857800Y1433920D02*
X1857800Y1432000D01*
X1883200D01*
X1883200Y1433920D02*
X1883200Y1432000D01*
X1883200Y1446000D02*
X1883200Y1444080D01*
X1857800Y1446000D02*
X1883200D01*
X1857800Y1444080D02*
X1857800Y1446000D01*
X1870500Y1432000D02*
Y1446000D01*
X1941000Y1415000D02*
X1945000D01*
X1945000Y1381000D01*
X1941000D02*
X1945000D01*
X1927000D02*
X1931000D01*
X1927000D02*
Y1415000D01*
X1931000D01*
X1927000Y1398000D02*
X1945000D01*
X1583620Y690666D02*
Y700826D01*
X1572191Y699556D02*
Y700826D01*
X1595051D01*
Y699556D02*
Y700826D01*
Y690666D02*
Y691936D01*
X1572191Y690666D02*
X1595051D01*
X1572191D02*
Y691936D01*
X1583620Y704216D02*
Y714376D01*
X1572191Y713106D02*
Y714376D01*
X1595051D01*
Y713106D02*
Y714376D01*
Y704216D02*
Y705486D01*
X1572191Y704216D02*
X1595051D01*
X1572191D02*
Y705486D01*
X1583620Y718766D02*
Y728926D01*
X1572191Y727656D02*
Y728926D01*
X1595051D01*
Y727656D02*
Y728926D01*
Y718766D02*
Y720036D01*
X1572191Y718766D02*
X1595051D01*
X1572191D02*
Y720036D01*
X1583620Y732316D02*
Y742476D01*
X1572191Y741206D02*
Y742476D01*
X1595051D01*
Y741206D02*
Y742476D01*
Y732316D02*
Y733586D01*
X1572191Y732316D02*
X1595051D01*
X1572191D02*
Y733586D01*
X1582330Y577660D02*
Y587820D01*
X1570900Y586550D02*
Y587820D01*
X1593760D01*
Y586550D02*
Y587820D01*
Y577660D02*
Y578930D01*
X1570900Y577660D02*
X1593760D01*
X1570900D02*
Y578930D01*
X1582330Y590360D02*
Y600520D01*
X1570900Y599250D02*
Y600520D01*
X1593760D01*
Y599250D02*
Y600520D01*
Y590360D02*
Y591630D01*
X1570900Y590360D02*
X1593760D01*
X1570900D02*
Y591630D01*
X1582330Y603060D02*
Y613220D01*
X1570900Y611950D02*
Y613220D01*
X1593760D01*
Y611950D02*
Y613220D01*
Y603060D02*
Y604330D01*
X1570900Y603060D02*
X1593760D01*
X1570900D02*
Y604330D01*
X1582330Y615760D02*
Y625920D01*
X1570900Y624650D02*
Y625920D01*
X1593760D01*
Y624650D02*
Y625920D01*
Y615760D02*
Y617030D01*
X1570900Y615760D02*
X1593760D01*
X1570900D02*
Y617030D01*
X1582330Y465160D02*
Y475320D01*
X1570900Y474050D02*
Y475320D01*
X1593760D01*
Y474050D02*
Y475320D01*
Y465160D02*
Y466430D01*
X1570900Y465160D02*
X1593760D01*
X1570900D02*
Y466430D01*
X1582330Y479710D02*
Y489870D01*
X1570900Y488600D02*
Y489870D01*
X1593760D01*
Y488600D02*
Y489870D01*
Y479710D02*
Y480980D01*
X1570900Y479710D02*
X1593760D01*
X1570900D02*
Y480980D01*
X1582330Y493260D02*
Y503420D01*
X1570900Y502150D02*
Y503420D01*
X1593760D01*
Y502150D02*
Y503420D01*
Y493260D02*
Y494530D01*
X1570900Y493260D02*
X1593760D01*
X1570900D02*
Y494530D01*
X1582330Y507810D02*
Y517970D01*
X1570900Y516700D02*
Y517970D01*
X1593760D01*
Y516700D02*
Y517970D01*
Y507810D02*
Y509080D01*
X1570900Y507810D02*
X1593760D01*
X1570900D02*
Y509080D01*
X1582330Y345510D02*
Y355670D01*
X1570900Y354400D02*
Y355670D01*
X1593760D01*
Y354400D02*
Y355670D01*
Y345510D02*
Y346780D01*
X1570900Y345510D02*
X1593760D01*
X1570900D02*
Y346780D01*
X1582330Y360060D02*
Y370220D01*
X1570900Y368950D02*
Y370220D01*
X1593760D01*
Y368950D02*
Y370220D01*
Y360060D02*
Y361330D01*
X1570900Y360060D02*
X1593760D01*
X1570900D02*
Y361330D01*
X1582330Y373610D02*
Y383770D01*
X1570900Y382500D02*
Y383770D01*
X1593760D01*
Y382500D02*
Y383770D01*
Y373610D02*
Y374880D01*
X1570900Y373610D02*
X1593760D01*
X1570900D02*
Y374880D01*
X1582330Y387160D02*
Y397320D01*
X1570900Y396050D02*
Y397320D01*
X1593760D01*
Y396050D02*
Y397320D01*
Y387160D02*
Y388430D01*
X1570900Y387160D02*
X1593760D01*
X1570900D02*
Y388430D01*
X1582480Y805410D02*
Y815570D01*
X1571050Y814300D02*
Y815570D01*
X1593910D01*
Y814300D02*
Y815570D01*
Y805410D02*
Y806680D01*
X1571050Y805410D02*
X1593910D01*
X1571050D02*
Y806680D01*
X1582480Y825310D02*
Y835470D01*
X1571050Y834200D02*
Y835470D01*
X1593910D01*
Y834200D02*
Y835470D01*
Y825310D02*
Y826580D01*
X1571050Y825310D02*
X1593910D01*
X1571050D02*
Y826580D01*
X1582480Y836860D02*
Y847020D01*
X1571050Y845750D02*
Y847020D01*
X1593910D01*
Y845750D02*
Y847020D01*
Y836860D02*
Y838130D01*
X1571050Y836860D02*
X1593910D01*
X1571050D02*
Y838130D01*
X1582480Y848410D02*
Y858570D01*
X1571050Y857300D02*
Y858570D01*
X1593910D01*
Y857300D02*
Y858570D01*
Y848410D02*
Y849680D01*
X1571050Y848410D02*
X1593910D01*
X1571050D02*
Y849680D01*
X1990000Y1340000D02*
X2008000Y1340000D01*
X1990000Y1357000D02*
X1994000D01*
X1990000Y1323000D02*
Y1357000D01*
Y1323000D02*
X1994000D01*
X2004000D02*
X2008000D01*
Y1357000D01*
X2004000Y1357000D02*
X2008000Y1357000D01*
X2010000Y1340000D02*
X2028000Y1340000D01*
X2010000Y1357000D02*
X2014000D01*
X2010000Y1323000D02*
Y1357000D01*
Y1323000D02*
X2014000D01*
X2024000D02*
X2028000D01*
Y1357000D01*
X2024000Y1357000D02*
X2028000Y1357000D01*
X2065000Y1371500D02*
X2079000Y1371500D01*
X2077080Y1384200D02*
X2079000D01*
Y1358800D02*
Y1384200D01*
X2077080Y1358800D02*
X2079000D01*
X2065000D02*
X2066920D01*
X2065000D02*
Y1384200D01*
X2066920D01*
X2065000Y1399500D02*
X2079000D01*
X2077080Y1412200D02*
X2079000D01*
Y1386800D02*
Y1412200D01*
X2077080Y1386800D02*
X2079000D01*
X2065000D02*
X2066920D01*
X2065000D02*
Y1412200D01*
X2066920D01*
X1095460Y1233490D02*
X1095460Y1247490D01*
X1108160Y1233490D02*
X1108160Y1235410D01*
X1082760Y1233490D02*
X1108160D01*
X1082760Y1235410D02*
X1082760Y1233490D01*
X1082760Y1247490D02*
X1082760Y1245570D01*
X1082760Y1247490D02*
X1108160D01*
X1108160Y1245570D01*
X805600Y1256350D02*
Y1270350D01*
X792900Y1268430D02*
X792900Y1270350D01*
X818300D01*
X818300Y1268430D01*
X818300Y1258270D02*
X818300Y1256350D01*
X792900D02*
X818300D01*
X792900Y1258270D02*
X792900Y1256350D01*
X786970Y762620D02*
X786970Y765620D01*
X786970Y762620D02*
X814970Y762620D01*
Y765620D01*
Y773620D02*
Y776620D01*
X786970Y776620D02*
X814970Y776620D01*
X786970Y776620D02*
X786970Y773620D01*
X800970Y762620D02*
Y776620D01*
X997000Y1090710D02*
Y1092710D01*
Y1090710D02*
X1017000D01*
Y1092710D01*
Y1098710D02*
Y1100710D01*
X997000D02*
X1017000D01*
X997000Y1098710D02*
Y1100710D01*
X999230Y1281520D02*
Y1283520D01*
Y1281520D02*
X1019230D01*
Y1283520D01*
Y1289520D02*
Y1291520D01*
X999230D02*
X1019230D01*
X999230Y1289520D02*
Y1291520D01*
X999540Y1329470D02*
Y1331470D01*
Y1329470D02*
X1019540D01*
Y1331470D01*
Y1337470D02*
Y1339470D01*
X999540D02*
X1019540D01*
X999540Y1337470D02*
Y1339470D01*
X840560Y1276510D02*
Y1278510D01*
X820560D02*
X840560D01*
X820560Y1276510D02*
Y1278510D01*
Y1268510D02*
Y1270510D01*
Y1268510D02*
X840560D01*
Y1270510D01*
X841340Y1313830D02*
Y1315830D01*
X821340D02*
X841340D01*
X821340Y1313830D02*
Y1315830D01*
Y1305830D02*
Y1307830D01*
Y1305830D02*
X841340D01*
Y1307830D01*
X840560Y1362870D02*
Y1364870D01*
X820560D02*
X840560D01*
X820560D02*
X820560Y1362870D01*
X820560Y1356870D02*
X820560Y1354870D01*
X840560Y1354870D01*
Y1356870D01*
Y1378110D02*
Y1380110D01*
X820560D02*
X840560D01*
X820560D02*
X820560Y1378110D01*
X820560Y1372110D02*
X820560Y1370110D01*
X840560Y1370110D01*
Y1372110D01*
X840700Y931210D02*
Y933210D01*
X820700D02*
X840700D01*
X820700Y931210D02*
Y933210D01*
Y923210D02*
Y925210D01*
Y923210D02*
X840700D01*
Y925210D01*
X835480Y1035210D02*
Y1037210D01*
X815480D02*
X835480D01*
X815480Y1035210D02*
Y1037210D01*
Y1027210D02*
Y1029210D01*
Y1027210D02*
X835480D01*
Y1029210D01*
X835480Y1075850D02*
Y1077850D01*
X815480D02*
X835480D01*
X815480Y1075850D02*
Y1077850D01*
Y1067850D02*
Y1069850D01*
Y1067850D02*
X835480D01*
Y1069850D01*
Y1124110D02*
Y1126110D01*
X815480D02*
X835480D01*
X815480Y1124110D02*
Y1126110D01*
Y1116110D02*
Y1118110D01*
Y1116110D02*
X835480D01*
Y1118110D01*
Y1139350D02*
Y1141350D01*
X815480D02*
X835480D01*
X815480Y1139350D02*
Y1141350D01*
Y1131350D02*
Y1133350D01*
Y1131350D02*
X835480D01*
Y1133350D01*
X840560Y1169830D02*
Y1171830D01*
X820560D02*
X840560D01*
X820560Y1169830D02*
Y1171830D01*
Y1161830D02*
Y1163830D01*
Y1161830D02*
X840560D01*
Y1163830D01*
X997680Y1042450D02*
Y1044450D01*
Y1042450D02*
X1017680D01*
Y1044450D01*
Y1050450D02*
Y1052450D01*
X997680D02*
X1017680D01*
X997680Y1050450D02*
Y1052450D01*
X726440Y1346820D02*
X726440Y1360820D01*
X739140Y1346820D02*
Y1348740D01*
X713740Y1346820D02*
X739140Y1346820D01*
X713740Y1346820D02*
Y1348740D01*
Y1358900D02*
Y1360820D01*
X739140Y1360820D01*
Y1358900D02*
Y1360820D01*
X727860Y1290940D02*
Y1304940D01*
X715160Y1304940D02*
X715160Y1303020D01*
X715160Y1304940D02*
X740560Y1304940D01*
X740560Y1303020D02*
X740560Y1304940D01*
Y1292860D02*
X740560Y1290940D01*
X715160D02*
X740560D01*
X715160D02*
X715160Y1292860D01*
X728980Y1217280D02*
Y1231280D01*
X716280Y1229360D02*
X716280Y1231280D01*
X741680D01*
X741680Y1229360D01*
X741680Y1219200D02*
X741680Y1217280D01*
X716280D02*
X741680D01*
X716280Y1219200D02*
X716280Y1217280D01*
X790400Y1060530D02*
X808400D01*
X804400Y1043530D02*
X808400D01*
Y1077530D01*
X804400D02*
X808400D01*
X790400D02*
X794400D01*
X790400Y1043530D02*
Y1077530D01*
Y1043530D02*
X794400D01*
X698960Y1123270D02*
X716960D01*
X698960Y1140270D02*
X702960D01*
X698960Y1106270D02*
Y1140270D01*
Y1106270D02*
X702960D01*
X712960D02*
X716960D01*
X716960Y1140270D02*
X716960Y1106270D01*
X712960Y1140270D02*
X716960D01*
X1527700Y785750D02*
X1541700D01*
X1527700Y771750D02*
X1530700D01*
X1527700D02*
Y799750D01*
X1530700D01*
X1538700D02*
X1541700D01*
Y771750D02*
Y799750D01*
X1538700Y771750D02*
X1541700D01*
X1385460Y794240D02*
X1399460D01*
X1385460Y780240D02*
X1388460D01*
X1385460D02*
Y808240D01*
X1388460D01*
X1396460D02*
X1399460D01*
Y780240D02*
Y808240D01*
X1396460Y780240D02*
X1399460D01*
X1526990Y327470D02*
X1540990D01*
X1526990Y313470D02*
X1529990D01*
X1526990D02*
Y341470D01*
X1529990D01*
X1537990D02*
X1540990D01*
Y313470D02*
Y341470D01*
X1537990Y313470D02*
X1540990D01*
X1384750Y335960D02*
X1398750D01*
X1384750Y321960D02*
X1387750D01*
X1384750D02*
Y349960D01*
X1387750D01*
X1395750D02*
X1398750D01*
Y321960D02*
Y349960D01*
X1395750Y321960D02*
X1398750D01*
X1526990Y441970D02*
X1540990D01*
X1526990Y427970D02*
X1529990D01*
X1526990D02*
Y455970D01*
X1529990D01*
X1537990D02*
X1540990D01*
Y427970D02*
Y455970D01*
X1537990Y427970D02*
X1540990D01*
X1384750Y450460D02*
X1398750D01*
X1384750Y436460D02*
X1387750D01*
X1384750D02*
Y464460D01*
X1387750D01*
X1395750D02*
X1398750D01*
Y436460D02*
Y464460D01*
X1395750Y436460D02*
X1398750D01*
X1526990Y556270D02*
X1540990D01*
X1526990Y542270D02*
X1529990D01*
X1526990D02*
Y570270D01*
X1529990D01*
X1537990D02*
X1540990D01*
Y542270D02*
Y570270D01*
X1537990Y542270D02*
X1540990D01*
X1384750Y564760D02*
X1398750D01*
X1384750Y550760D02*
X1387750D01*
X1384750D02*
Y578760D01*
X1387750D01*
X1395750D02*
X1398750D01*
Y550760D02*
Y578760D01*
X1395750Y550760D02*
X1398750D01*
X1527700Y671450D02*
X1541700D01*
X1527700Y657450D02*
X1530700D01*
X1527700D02*
Y685450D01*
X1530700D01*
X1538700D02*
X1541700D01*
Y657450D02*
Y685450D01*
X1538700Y657450D02*
X1541700D01*
X1385460Y679940D02*
X1399460D01*
X1385460Y665940D02*
X1388460D01*
X1385460D02*
Y693940D01*
X1388460D01*
X1396460D02*
X1399460D01*
Y665940D02*
Y693940D01*
X1396460Y665940D02*
X1399460D01*
D18*
X413000Y1512040D02*
Y1512520D01*
Y1512040D02*
X454320D01*
X413000Y1192040D02*
X454320D01*
X413000D02*
Y1192520D01*
Y872040D02*
X454320D01*
X413000D02*
Y872520D01*
Y552040D02*
Y552520D01*
Y552040D02*
X454320D01*
X400000Y236540D02*
Y237020D01*
Y236540D02*
X441320D01*
D19*
X1865544Y239140D02*
X1865544Y117140D01*
X1810544Y97140D02*
X1860544Y97140D01*
X1805544Y117140D02*
X1865544D01*
X1810544Y97140D02*
X1810544Y117140D01*
X1860544Y97140D02*
Y117140D01*
X1805544D02*
Y239140D01*
X1865544Y239140D01*
X1581539Y117140D02*
Y239140D01*
X1526539Y97140D02*
X1576539Y97140D01*
X1521539Y117140D02*
X1581539D01*
X1526539Y97140D02*
Y117140D01*
X1576539D02*
X1576539Y97140D01*
X1521539Y117140D02*
Y239140D01*
X1581539D01*
X1724539Y117140D02*
Y239140D01*
X1669539Y97140D02*
X1719539D01*
X1664539Y117140D02*
X1724539D01*
X1669539Y97140D02*
Y117140D01*
X1719539Y97140D02*
Y117140D01*
X1664539D02*
Y239140D01*
X1724539D01*
X2034500Y117500D02*
Y239500D01*
X1979500Y97500D02*
X2029500Y97500D01*
X1974500Y117500D02*
X2034500D01*
X1979500Y97500D02*
Y117500D01*
X2029500D02*
X2029500Y97500D01*
X1974500Y117500D02*
Y239500D01*
X2034500D01*
D20*
X1778810Y1409840D02*
Y1468260D01*
X1720390Y1409840D02*
Y1468260D01*
X1749600Y1435240D02*
Y1444130D01*
X1652790Y1424740D02*
Y1483160D01*
X1711210Y1424740D02*
Y1483160D01*
X1682000Y1448870D02*
Y1457760D01*
X1542810Y1408840D02*
Y1467260D01*
X1484390Y1408840D02*
Y1467260D01*
X1513600Y1434240D02*
Y1443130D01*
X1885790Y1423740D02*
Y1482160D01*
X1944210Y1423740D02*
Y1482160D01*
X1915000Y1447870D02*
Y1456760D01*
X1322140Y1521000D02*
X1331030D01*
X1296740Y1550210D02*
X1355160D01*
X1296740Y1491790D02*
X1355160D01*
X1966977Y1315974D02*
Y1321052D01*
X1964438Y1318513D02*
X1969516D01*
X1970786Y1327400D02*
X1963168D01*
X1966977Y1323591D01*
Y1328670D01*
X1964438Y1331209D02*
X1963168Y1332479D01*
Y1335018D01*
X1964438Y1336287D01*
X1965708D01*
X1966977Y1335018D01*
X1968247Y1336287D01*
X1969516D01*
X1970786Y1335018D01*
Y1332479D01*
X1969516Y1331209D01*
X1968247D01*
X1966977Y1332479D01*
X1965708Y1331209D01*
X1964438D01*
X1966977Y1332479D02*
Y1335018D01*
X1963168Y1338827D02*
X1968247D01*
X1970786Y1341366D01*
X1968247Y1343905D01*
X1963168D01*
X1906019Y1350264D02*
X1911097D01*
X1913636Y1352803D01*
X1911097Y1355342D01*
X1906019D01*
X1907288Y1362960D02*
X1906019Y1361690D01*
Y1359151D01*
X1907288Y1357881D01*
X1912366D01*
X1913636Y1359151D01*
Y1361690D01*
X1912366Y1362960D01*
X1907288Y1370577D02*
X1906019Y1369308D01*
Y1366769D01*
X1907288Y1365499D01*
X1912366D01*
X1913636Y1366769D01*
Y1369308D01*
X1912366Y1370577D01*
X1909827Y1373117D02*
Y1378195D01*
X1907288Y1375656D02*
X1912366D01*
X1909827Y1380734D02*
Y1385813D01*
X1907288Y1383273D02*
X1912366D01*
X955294Y1464561D02*
Y1458214D01*
X956564Y1456944D01*
X959103D01*
X960372Y1458214D01*
Y1464561D01*
X967990Y1463292D02*
X966720Y1464561D01*
X964181D01*
X962912Y1463292D01*
Y1462022D01*
X964181Y1460753D01*
X966720D01*
X967990Y1459483D01*
Y1458214D01*
X966720Y1456944D01*
X964181D01*
X962912Y1458214D01*
X970529Y1464561D02*
Y1456944D01*
X974338D01*
X975607Y1458214D01*
Y1459483D01*
X974338Y1460753D01*
X970529D01*
X974338D01*
X975607Y1462022D01*
Y1463292D01*
X974338Y1464561D01*
X970529D01*
X985764Y1460753D02*
X990843D01*
X993382Y1456944D02*
X997190Y1460753D01*
X993382Y1464561D01*
X1012426D02*
X1007347D01*
Y1460753D01*
X1009886Y1462022D01*
X1011156D01*
X1012426Y1460753D01*
Y1458214D01*
X1011156Y1456944D01*
X1008617D01*
X1007347Y1458214D01*
X1014965Y1464561D02*
Y1459483D01*
X1017504Y1456944D01*
X1020043Y1459483D01*
Y1464561D01*
X1032739Y1456944D02*
X1030200Y1459483D01*
Y1462022D01*
X1032739Y1464561D01*
X1037817Y1463292D02*
Y1462022D01*
X1036548D01*
X1039087D01*
X1037817D01*
Y1458214D01*
X1039087Y1456944D01*
X1044165D02*
X1046704D01*
X1047974Y1458214D01*
Y1460753D01*
X1046704Y1462022D01*
X1044165D01*
X1042896Y1460753D01*
Y1458214D01*
X1044165Y1456944D01*
X1063209Y1464561D02*
Y1456944D01*
X1059400D01*
X1058131Y1458214D01*
Y1460753D01*
X1059400Y1462022D01*
X1063209D01*
X1070827D02*
X1067018D01*
X1065748Y1460753D01*
Y1458214D01*
X1067018Y1456944D01*
X1070827D01*
X1078444Y1464561D02*
Y1456944D01*
X1074635D01*
X1073366Y1458214D01*
Y1460753D01*
X1074635Y1462022D01*
X1078444D01*
X1086062D02*
X1082253D01*
X1080983Y1460753D01*
Y1458214D01*
X1082253Y1456944D01*
X1086062D01*
X1088601D02*
X1091140Y1459483D01*
Y1462022D01*
X1088601Y1464561D01*
X1206754Y1478534D02*
Y1486151D01*
X1209293Y1483612D01*
X1211832Y1486151D01*
Y1478534D01*
X1219450Y1484881D02*
X1218180Y1486151D01*
X1215641D01*
X1214371Y1484881D01*
Y1479803D01*
X1215641Y1478534D01*
X1218180D01*
X1219450Y1479803D01*
X1221989Y1486151D02*
Y1479803D01*
X1223259Y1478534D01*
X1225798D01*
X1227067Y1479803D01*
Y1486151D01*
X1234685D02*
X1229607D01*
Y1482342D01*
X1232146Y1483612D01*
X1233415D01*
X1234685Y1482342D01*
Y1479803D01*
X1233415Y1478534D01*
X1230876D01*
X1229607Y1479803D01*
X1237224Y1486151D02*
Y1481073D01*
X1239763Y1478534D01*
X1242302Y1481073D01*
Y1486151D01*
X1252459Y1482342D02*
X1257538D01*
X1260077Y1478534D02*
X1263885Y1482342D01*
X1260077Y1486151D01*
X1279121D02*
X1274042D01*
Y1482342D01*
X1276581Y1483612D01*
X1277851D01*
X1279121Y1482342D01*
Y1479803D01*
X1277851Y1478534D01*
X1275312D01*
X1274042Y1479803D01*
X1281660Y1486151D02*
Y1481073D01*
X1284199Y1478534D01*
X1286738Y1481073D01*
Y1486151D01*
X1289277Y1477264D02*
X1294356D01*
X1301973Y1486151D02*
Y1478534D01*
X1298164D01*
X1296895Y1479803D01*
Y1482342D01*
X1298164Y1483612D01*
X1301973D01*
X1309591D02*
X1305782D01*
X1304512Y1482342D01*
Y1479803D01*
X1305782Y1478534D01*
X1309591D01*
X1317208Y1486151D02*
Y1478534D01*
X1313400D01*
X1312130Y1479803D01*
Y1482342D01*
X1313400Y1483612D01*
X1317208D01*
X1324826D02*
X1321017D01*
X1319747Y1482342D01*
Y1479803D01*
X1321017Y1478534D01*
X1324826D01*
X1673609Y1343914D02*
X1678687D01*
X1681226Y1346453D01*
X1678687Y1348992D01*
X1673609D01*
X1674878Y1356610D02*
X1673609Y1355340D01*
Y1352801D01*
X1674878Y1351532D01*
X1679956D01*
X1681226Y1352801D01*
Y1355340D01*
X1679956Y1356610D01*
X1674878Y1364227D02*
X1673609Y1362958D01*
Y1360419D01*
X1674878Y1359149D01*
X1679956D01*
X1681226Y1360419D01*
Y1362958D01*
X1679956Y1364227D01*
X1677417Y1366767D02*
Y1371845D01*
Y1374384D02*
Y1379462D01*
X2102102Y1502661D02*
X2097024D01*
Y1498852D01*
X2099563Y1500122D01*
X2100833D01*
X2102102Y1498852D01*
Y1496313D01*
X2100833Y1495044D01*
X2098294D01*
X2097024Y1496313D01*
X2104642Y1500122D02*
X2107181Y1495044D01*
X2109720Y1500122D01*
X2112259Y1493774D02*
X2117337D01*
X2123685Y1495044D02*
Y1502661D01*
X2119877Y1498852D01*
X2124955D01*
X2127494Y1501391D02*
X2128764Y1502661D01*
X2131303D01*
X2132572Y1501391D01*
Y1500122D01*
X2131303Y1498852D01*
X2132572Y1497583D01*
Y1496313D01*
X2131303Y1495044D01*
X2128764D01*
X2127494Y1496313D01*
Y1497583D01*
X2128764Y1498852D01*
X2127494Y1500122D01*
Y1501391D01*
X2128764Y1498852D02*
X2131303D01*
X1407412Y1429001D02*
X1402334D01*
Y1425192D01*
X1404873Y1426462D01*
X1406143D01*
X1407412Y1425192D01*
Y1422653D01*
X1406143Y1421384D01*
X1403604D01*
X1402334Y1422653D01*
X1409951Y1429001D02*
Y1423923D01*
X1412491Y1421384D01*
X1415030Y1423923D01*
Y1429001D01*
X1417569Y1420114D02*
X1422647D01*
X1430265Y1429001D02*
Y1421384D01*
X1426456D01*
X1425187Y1422653D01*
Y1425192D01*
X1426456Y1426462D01*
X1430265D01*
X1437883D02*
X1434074D01*
X1432804Y1425192D01*
Y1422653D01*
X1434074Y1421384D01*
X1437883D01*
X1445500Y1429001D02*
Y1421384D01*
X1441691D01*
X1440422Y1422653D01*
Y1425192D01*
X1441691Y1426462D01*
X1445500D01*
X1453118D02*
X1449309D01*
X1448039Y1425192D01*
Y1422653D01*
X1449309Y1421384D01*
X1453118D01*
X2541524Y1524253D02*
X2546602D01*
X2544063Y1526792D02*
Y1521714D01*
X2552950Y1520444D02*
Y1528062D01*
X2549142Y1524253D01*
X2554220D01*
X2556759Y1526792D02*
X2558029Y1528062D01*
X2560568D01*
X2561837Y1526792D01*
Y1525522D01*
X2560568Y1524253D01*
X2561837Y1522983D01*
Y1521714D01*
X2560568Y1520444D01*
X2558029D01*
X2556759Y1521714D01*
Y1522983D01*
X2558029Y1524253D01*
X2556759Y1525522D01*
Y1526792D01*
X2558029Y1524253D02*
X2560568D01*
D21*
X2590561Y513721D02*
X2590561Y264801D01*
X2590561Y833761D02*
X2590561Y584841D01*
X2590561Y1148721D02*
X2590561Y899801D01*
X2590411Y1473200D02*
X2590411Y1224280D01*
M02*
