M48
;Layer_Color=9474304
;FILE_FORMAT=4:4
METRIC,LZ
;TYPE=PLATED
T3F00S00C0.6000
T4F00S00C0.7000
T7F00S00C0.8000
;TYPE=NON_PLATED
%
G90
G05
T03
G00X00406Y0037354
M15
G01Y0038054
M16
G00X00432Y0037354
M15
G01Y0038054
M16
G00X00432Y0042054
M15
G01Y0041354
M16
G00X00406Y0041354
M15
G01Y0042054
M16
G00X00406Y0045354
M15
G01Y0046054
M16
G00X00432Y0046054
M15
G01Y0045354
M16
G00X00432Y0069354
M15
G01Y0070054
M16
G00X00406Y0069354
M15
G01Y0070054
M16
G00X00406Y0073354
M15
G01Y0074054
M16
G00X00432Y0074054
M15
G01Y0073354
M16
G00X00432Y0078054
M15
G01Y0077354
M16
G00X00406Y0077354
M15
G01Y0078054
M16
G00X00406Y0101354
M15
G01Y0102054
M16
G00X00432Y0101354
M15
G01Y0102054
M16
G00X00432Y0106054
M15
G01Y0105354
M16
G00X00406Y0105354
M15
G01Y0106054
M16
G00X00406Y0109354
M15
G01Y0110054
M16
G00X00432Y0110054
M15
G01Y0109354
M16
G00X008966Y01507
M15
G01Y014955
M16
G00X008966Y0154755
M15
G01Y0153855
M16
G00X00983Y0154755
M15
G01Y0153855
M16
G00X00983Y01507
M15
G01Y014955
M16
G00X00432Y0142054
M15
G01Y0141354
M16
G00X00406Y0141354
M15
G01Y0142054
M16
G00X00406Y0137354
M15
G01Y0138054
M16
G00X00432Y0138054
M15
G01Y0137354
M16
G00X00432Y0133354
M15
G01Y0134054
M16
G00X00406Y0133354
M15
G01Y0134054
M16
T04
G00X004115Y0033454
M15
G01X004265
M16
G00X004115Y0049954
M15
G01X004265
M16
G00X004115Y0065454
M15
G01X004265
M16
G00X004115Y0081954
M15
G01X004265
M16
G00X004115Y0097454
M15
G01X004265
M16
G00X004115Y01139539
M15
G01X004265
M16
G00X004115Y0129454
M15
G01X004265
M16
G00X004115Y0145954
M15
G01X004265
M16
T07
G00X00535Y00168068
M15
G01Y00168068
M16
G00X00535Y00184068
M15
G01Y00184068
M16
G00X00535Y00200068
M15
G01Y00200068
M16
G00X00535Y00216068
M15
G01Y00216068
M16
G00X00535Y00232068
M15
G01Y00232068
M16
G00X00535Y00358
M15
G01Y00358
M16
G00X00535Y00374
M15
G01Y00374
M16
G00X00535Y0039
M15
G01Y0039
M16
G00X00535Y00406
M15
G01Y00406
M16
G00X00535Y00422
M15
G01Y00422
M16
G00X00535Y00548
M15
G01Y00548
M16
G00X00535Y00564
M15
G01Y00564
M16
G00X00535Y0058
M15
G01Y0058
M16
G00X00535Y00596
M15
G01Y00596
M16
G00X00535Y00612
M15
G01Y00612
M16
G00X00535Y00738
M15
G01Y00738
M16
G00X00535Y00754
M15
G01Y00754
M16
G00X00535Y0077
M15
G01Y0077
M16
G00X00535Y00786
M15
G01Y00786
M16
G00X00535Y00802
M15
G01Y00802
M16
G00X00535Y00928
M15
G01Y00928
M16
G00X00535Y00944
M15
G01Y00944
M16
G00X00535Y0096
M15
G01Y0096
M16
G00X00535Y00976
M15
G01Y00976
M16
G00X00535Y00992
M15
G01Y00992
M16
G00X00535Y01118
M15
G01Y01118
M16
G00X00535Y01134
M15
G01Y01134
M16
G00X00535Y0115
M15
G01Y0115
M16
G00X00535Y01166
M15
G01Y01166
M16
G00X00535Y01182
M15
G01Y01182
M16
G00X00535Y01308
M15
G01Y01308
M16
G00X00535Y01324
M15
G01Y01324
M16
G00X00535Y0134
M15
G01Y0134
M16
G00X00535Y01356
M15
G01Y01356
M16
G00X00535Y01372
M15
G01Y01372
M16
G00X00535Y01476772
M15
G01Y01476772
M16
G00X00535Y01492772
M15
G01Y01492772
M16
G00X00535Y01508772
M15
G01Y01508772
M16
M17
M30
