G04*
G04 #@! TF.GenerationSoftware,Altium Limited,Altium Designer,20.2.7 (254)*
G04*
G04 Layer_Color=32896*
%FSLAX44Y44*%
%MOMM*%
G71*
G04*
G04 #@! TF.SameCoordinates,F75D2D2C-83ED-4C86-80AB-8EBB9ED98378*
G04*
G04*
G04 #@! TF.FilePolarity,Positive*
G04*
G01*
G75*
%ADD10C,0.2000*%
%ADD11C,0.2540*%
%ADD12C,0.2500*%
%ADD14C,0.3810*%
%ADD16C,0.1270*%
%ADD17C,0.1500*%
%ADD19C,0.0127*%
%ADD20C,0.1524*%
%ADD155C,0.1000*%
%ADD156C,0.0762*%
%ADD157R,0.6000X0.1500*%
%ADD158R,0.6000X0.1500*%
%ADD159R,0.6000X0.1500*%
%ADD160R,0.5500X0.6750*%
%ADD161R,0.1500X0.6000*%
D10*
X1781640Y297620D02*
Y305620D01*
X1730840Y297620D02*
Y305620D01*
X2286000Y1219000D02*
X2292000D01*
X2274500Y1233000D02*
X2281750D01*
X2274500Y1224000D02*
Y1233000D01*
X2296250D02*
X2303500D01*
Y1224000D02*
Y1233000D01*
X2286000Y899000D02*
X2292000D01*
X2274500Y913000D02*
X2281750D01*
X2274500Y904000D02*
Y913000D01*
X2296250D02*
X2303500D01*
Y904000D02*
Y913000D01*
X2286000Y580000D02*
X2292000D01*
X2274500Y594000D02*
X2281750D01*
X2274500Y585000D02*
Y594000D01*
X2296250D02*
X2303500D01*
Y585000D02*
Y594000D01*
X2286000Y258000D02*
X2292000Y258000D01*
X2274500Y272000D02*
X2281750D01*
X2274500Y263000D02*
X2274500Y272000D01*
X2296250Y272000D02*
X2303500Y272000D01*
Y263000D02*
Y272000D01*
X2058000Y302900D02*
Y354900D01*
Y302900D02*
X2064000Y302900D01*
X2058000Y354900D02*
X2061000D01*
X2064000Y302900D02*
Y304900D01*
X2058000D02*
X2064000D01*
X2075732Y302733D02*
X2075732Y354733D01*
X2069732Y302733D02*
X2075732D01*
X2072732Y354733D02*
X2075732D01*
X2069732Y302733D02*
Y304733D01*
X2075732D01*
X1901000Y385100D02*
Y437100D01*
X1895000D02*
X1901000D01*
X1898000Y385100D02*
X1901000D01*
X1895000Y435100D02*
Y437100D01*
Y435100D02*
X1901000D01*
X1883268Y385267D02*
Y437267D01*
X1889268D01*
X1883268Y385267D02*
X1886268D01*
X1889268Y435267D02*
Y437267D01*
X1883268Y435267D02*
X1889268D01*
X2025000Y412072D02*
X2040250D01*
X2021500Y361772D02*
Y410772D01*
X1989500Y361772D02*
X2021500D01*
X1989500D02*
Y410772D01*
X2021500D01*
X2038250Y342522D02*
X2043750D01*
X2038250Y349272D02*
X2038250Y342522D01*
X2038250Y310022D02*
X2038250Y303272D01*
X2038250Y310022D02*
X2043750Y310022D01*
X1967750Y303272D02*
X1967750Y310022D01*
X2043750D02*
X2043750Y303272D01*
X1967750Y342522D02*
Y349272D01*
X2043750Y342522D02*
Y349272D01*
X1967750Y303272D02*
X2043750D01*
X1967750Y349272D02*
X2043750D01*
X1969250Y256022D02*
X1974750D01*
X1974750Y249272D01*
Y295272D02*
X1974750Y288522D01*
X1969250Y288522D02*
X1974750Y288522D01*
X2045250Y288522D02*
X2045250Y295272D01*
X1969250D02*
X1969250Y288522D01*
X2045250Y249272D02*
Y256022D01*
X1969250Y249272D02*
Y256022D01*
X1969250Y295272D02*
X2045250D01*
X1969250Y249272D02*
X2045250D01*
X1586060Y297620D02*
Y305620D01*
X1636860Y297620D02*
Y305620D01*
X1658450Y297620D02*
Y305620D01*
X1709250Y297620D02*
Y305620D01*
X2247690Y697440D02*
Y729440D01*
Y697440D02*
X2296690D01*
Y729440D01*
X2247690D02*
X2296690D01*
X2246390Y732940D02*
Y748190D01*
X2471260Y1214560D02*
Y1239960D01*
X2439510Y1214560D02*
X2445860Y1208210D01*
X2439510Y1239960D02*
X2445860Y1233610D01*
X2439510Y1214560D02*
X2445860Y1220910D01*
X2445860Y1239960D01*
X2452210Y1214560D02*
X2471260Y1214560D01*
X2445860Y1239960D02*
X2471260D01*
X2445860Y1208210D02*
X2452210Y1214560D01*
X2464910Y1214560D02*
X2471260Y1208210D01*
X2420460Y1220910D02*
X2426810Y1214560D01*
X2439510Y1214560D01*
X2426810Y1239960D02*
X2439510D01*
X2420460Y1233610D02*
X2426810Y1239960D01*
X2420460Y1233610D02*
X2420460Y1220910D01*
X2420460Y1208210D02*
X2426810Y1214560D01*
X2420460Y1208210D02*
X2420460Y1195510D01*
X2426810Y1189160D01*
X2439510D01*
X2445860Y1195510D01*
X2439510Y1189160D02*
X2445860Y1182810D01*
X2439510Y1163760D02*
X2445860Y1170110D01*
X2426810Y1163760D02*
X2439510D01*
X2420460Y1170110D02*
X2426810Y1163760D01*
X2420460Y1170110D02*
X2420460Y1182810D01*
X2426810Y1189160D01*
X2420460Y1157410D02*
X2426810Y1163760D01*
X2420460Y1144710D02*
Y1157410D01*
Y1144710D02*
X2426810Y1138360D01*
X2439510D01*
X2445860Y1144710D01*
X2439510Y1163760D02*
X2445860Y1157410D01*
X2464910Y1163760D02*
X2471260Y1157410D01*
X2420460Y1144710D02*
Y1157410D01*
X2464910Y1138360D02*
X2471260Y1144710D01*
X2452210Y1138360D02*
X2464910Y1138360D01*
X2445860Y1144710D02*
X2452210Y1138360D01*
X2445860Y1144710D02*
Y1157410D01*
X2452210Y1163760D01*
X2445860Y1182810D02*
X2452210Y1189160D01*
X2445860Y1182810D02*
X2445860Y1170110D01*
X2452210Y1163760D01*
X2464910D01*
X2471260Y1170110D01*
X2420460D02*
X2420460Y1182810D01*
X2464910Y1189160D02*
X2471260Y1182810D01*
X2420460Y1208210D02*
X2420460Y1195510D01*
X2464910Y1189160D02*
X2471260Y1195510D01*
X2452210Y1189160D02*
X2464910Y1189160D01*
X2445860Y1195510D02*
X2452210Y1189160D01*
X2445860Y1195510D02*
Y1208210D01*
X2420460Y1233610D02*
X2420460Y1220910D01*
X2471260Y1195510D02*
Y1208210D01*
Y1170110D02*
Y1182810D01*
Y1144710D02*
Y1157410D01*
X1695670Y546390D02*
X1695670Y554390D01*
X1695670Y546390D02*
X1697670Y544390D01*
X1729670Y544390D01*
X1729670Y586390D01*
X1695670Y586390D02*
X1729670Y586390D01*
X1695670Y554390D02*
X1695670Y586390D01*
X1441950Y855950D02*
Y868950D01*
X1378280Y878430D02*
X1443320D01*
X1378280D02*
Y913470D01*
X1443320D01*
Y878430D02*
Y913470D01*
X1768320Y587820D02*
Y592320D01*
Y576320D02*
Y580820D01*
X1754320Y576320D02*
Y580820D01*
Y587820D02*
Y592320D01*
X1768320D01*
X1754320Y576320D02*
X1768320D01*
X1782320Y587820D02*
X1782320Y592320D01*
X1782320Y580820D02*
X1782320Y576320D01*
X1768320D02*
X1768320Y580820D01*
X1768320Y592320D02*
X1768320Y587820D01*
X1768320Y592320D02*
X1782320D01*
X1768320Y576320D02*
X1782320D01*
X1557400Y402860D02*
X1557400Y388860D01*
X1541400Y402860D02*
X1541400Y388860D01*
X1541400Y402860D02*
X1545900D01*
X1552900D02*
X1557400D01*
X1552900Y388860D02*
X1557400D01*
X1541400Y388860D02*
X1545900D01*
X1557400Y386860D02*
X1557400Y372860D01*
X1541400Y372860D02*
X1541400Y386860D01*
X1545900D01*
X1552900Y386860D02*
X1557400D01*
X1552900Y372860D02*
X1557400D01*
X1541400Y372860D02*
X1545900Y372860D01*
X1556780Y733790D02*
Y747790D01*
X1540780Y733790D02*
X1540780Y747790D01*
X1545280Y747790D01*
X1552280Y747790D02*
X1556780Y747790D01*
X1552280Y733790D02*
X1556780Y733790D01*
X1540780Y733790D02*
X1545280D01*
X1782950Y1109910D02*
Y1141910D01*
X1748450Y1109910D02*
X1782950D01*
X1748450D02*
Y1141910D01*
X1782950D01*
X1783204Y902900D02*
Y934900D01*
X1748704Y902900D02*
X1783204D01*
X1748704D02*
Y934900D01*
X1783204D01*
X1748450Y708590D02*
Y740590D01*
X1782950D01*
Y708590D02*
Y740590D01*
X1748450Y708590D02*
X1782950D01*
X2000040Y1034990D02*
X2052040D01*
X2000040Y1028990D02*
Y1034990D01*
X2052040Y1031990D02*
Y1034990D01*
X2000040Y1028990D02*
X2002040Y1028990D01*
X2002040Y1034990D01*
X1999873Y1017258D02*
X2051873D01*
X1999873D02*
Y1023258D01*
X2051873Y1017258D02*
Y1020258D01*
X1999873Y1023258D02*
X2001873D01*
Y1017258D02*
Y1023258D01*
X2000040Y982920D02*
X2052040D01*
X2000040Y976920D02*
Y982920D01*
X2052040Y979920D02*
Y982920D01*
X2000040Y976920D02*
X2002040D01*
Y982920D01*
X1999873Y965188D02*
X2051873D01*
X1999873D02*
Y971188D01*
X2051873Y968188D02*
X2051873Y965188D01*
X1999873Y971188D02*
X2001873D01*
Y965188D02*
Y971188D01*
X2000040Y888940D02*
X2052040D01*
X2000040Y882940D02*
Y888940D01*
X2052040Y885940D02*
Y888940D01*
X2000040Y882940D02*
X2002040D01*
Y888940D01*
X1999873Y871208D02*
X2051873D01*
X1999873D02*
Y877208D01*
X2051873Y874208D02*
X2051873Y871208D01*
X1999873Y877208D02*
X2001873D01*
Y871208D02*
Y877208D01*
X1992420Y735930D02*
X2044420D01*
X1992420Y729930D02*
Y735930D01*
X2044420Y732930D02*
Y735930D01*
X1992420Y729930D02*
X1994420Y729930D01*
X1994420Y735930D01*
X1992253Y718198D02*
X2044253Y718198D01*
X1992253Y718198D02*
X1992253Y724198D01*
X2044253Y718198D02*
X2044253Y721198D01*
X1992253Y724198D02*
X1994253Y724198D01*
Y718198D02*
Y724198D01*
X2000040Y835600D02*
X2052040D01*
X2000040Y829600D02*
Y835600D01*
X2052040Y832600D02*
Y835600D01*
X2000040Y829600D02*
X2002040D01*
Y835600D01*
X1999873Y817868D02*
X2051873D01*
X1999873D02*
Y823868D01*
X2051873Y820868D02*
X2051873Y817868D01*
X1999873Y823868D02*
X2001873D01*
Y817868D02*
Y823868D01*
X1991950Y683860D02*
X2043950D01*
X1991950Y677860D02*
Y683860D01*
X2043950Y680860D02*
Y683860D01*
X1991950Y677860D02*
X1993950Y677860D01*
X1993950Y683860D01*
X1991783Y666128D02*
X2043783D01*
X1991783D02*
X1991783Y672128D01*
X2043783Y666128D02*
Y669128D01*
X1991783Y672128D02*
X1993783Y672128D01*
X1993783Y666128D01*
X1720000Y952240D02*
X1734000D01*
X1720000Y968240D02*
X1734000D01*
Y963740D02*
Y968240D01*
Y952240D02*
Y956740D01*
X1720000Y952240D02*
Y956740D01*
Y963740D02*
Y968240D01*
X1734000Y952240D02*
X1748000D01*
X1734000Y968240D02*
X1748000D01*
X1748000Y963740D02*
X1748000Y968240D01*
X1748000Y952240D02*
Y956740D01*
X1734000Y952240D02*
Y956740D01*
Y968240D02*
X1734000Y963740D01*
X1556460Y837560D02*
X1556460Y851560D01*
X1540460Y837560D02*
X1540460Y851560D01*
X1544960Y851560D01*
X1551960Y851560D02*
X1556460Y851560D01*
X1551960Y837560D02*
X1556460Y837560D01*
X1540460D02*
X1544960D01*
X1556750Y800340D02*
Y814340D01*
X1540750Y800340D02*
Y814340D01*
X1545250Y814340D01*
X1552250D02*
X1556750Y814340D01*
X1552250Y800340D02*
X1556750Y800340D01*
X1540750Y800340D02*
X1545250Y800340D01*
X1556750Y821930D02*
X1556750Y835930D01*
X1540750Y821930D02*
X1540750Y835930D01*
X1545250Y835930D01*
X1552250D02*
X1556750Y835930D01*
X1552250Y821930D02*
X1556750Y821930D01*
X1540750D02*
X1545250Y821930D01*
X1556750Y866920D02*
X1556750Y852920D01*
X1540750D02*
Y866920D01*
X1545250Y866920D01*
X1552250Y866920D02*
X1556750Y866920D01*
X1552250Y852920D02*
X1556750Y852920D01*
X1540750D02*
X1545250Y852920D01*
X1557560Y587020D02*
Y601020D01*
X1541560Y587020D02*
X1541560Y601020D01*
X1546060Y601020D01*
X1553060Y601020D02*
X1557560Y601020D01*
X1553060Y587020D02*
X1557560Y587020D01*
X1541560Y587020D02*
X1546060D01*
X1557730Y516500D02*
Y530500D01*
X1541730Y516500D02*
Y530500D01*
X1546230Y530500D01*
X1553230D02*
X1557730Y530500D01*
X1553230Y516500D02*
X1557730Y516500D01*
X1541730D02*
X1546230Y516500D01*
X1557730Y602100D02*
Y616100D01*
X1541730Y602100D02*
Y616100D01*
X1546230Y616100D01*
X1553230D02*
X1557730Y616100D01*
X1553230Y602100D02*
X1557730Y602100D01*
X1541730Y602100D02*
X1546230Y602100D01*
X1557730Y570860D02*
Y584860D01*
X1541730Y570860D02*
Y584860D01*
X1546230Y584860D01*
X1553230D02*
X1557730Y584860D01*
X1553230Y570860D02*
X1557730Y570860D01*
X1541730Y570860D02*
X1546230Y570860D01*
X1558020Y508270D02*
X1558020Y494270D01*
X1542020D02*
X1542020Y508270D01*
X1546520Y508270D01*
X1553520D02*
X1558020Y508270D01*
X1553520Y494270D02*
X1558020Y494270D01*
X1542020D02*
X1546520Y494270D01*
X1557920Y456410D02*
Y470410D01*
X1541920Y456410D02*
X1541920Y470410D01*
X1546420Y470410D01*
X1553420Y470410D02*
X1557920Y470410D01*
X1553420Y456410D02*
X1557920Y456410D01*
X1541920Y456410D02*
X1546420D01*
X1557920Y478250D02*
Y492250D01*
X1541920Y492250D02*
X1541920Y478250D01*
X1541920Y492250D02*
X1546420Y492250D01*
X1553420Y492250D02*
X1557920Y492250D01*
X1553420Y478250D02*
X1557920Y478250D01*
X1541920Y478250D02*
X1546420Y478250D01*
X1557540Y356810D02*
X1557540Y370810D01*
X1541540Y356810D02*
Y370810D01*
X1546040Y370810D01*
X1553040Y370810D02*
X1557540D01*
X1553040Y356810D02*
X1557540D01*
X1541540Y356810D02*
X1546040Y356810D01*
X1557400Y341620D02*
X1557400Y355620D01*
X1541400Y341620D02*
X1541400Y355620D01*
X1545900D01*
X1552900Y355620D02*
X1557400Y355620D01*
X1552900Y341620D02*
X1557400Y341620D01*
X1541400Y341620D02*
X1545900Y341620D01*
X1557400Y700040D02*
X1557400Y686040D01*
X1541400Y700040D02*
X1541400Y686040D01*
X1541400Y700040D02*
X1545900Y700040D01*
X1552900D02*
X1557400Y700040D01*
X1552900Y686040D02*
X1557400Y686040D01*
X1541400Y686040D02*
X1545900D01*
X1557400Y717790D02*
Y731790D01*
X1541400Y731790D02*
X1541400Y717790D01*
X1541400Y731790D02*
X1545900D01*
X1552900D02*
X1557400Y731790D01*
X1552900Y717790D02*
X1557400Y717790D01*
X1541400Y717790D02*
X1545900D01*
X1557700Y701670D02*
X1557700Y715670D01*
X1541700Y701670D02*
X1541700Y715670D01*
X1546200Y715670D01*
X1553200D02*
X1557700Y715670D01*
X1553200Y701670D02*
X1557700D01*
X1541700D02*
X1546200D01*
X1557400Y617720D02*
Y631720D01*
X1541400Y617720D02*
X1541400Y631720D01*
X1545900D01*
X1552900Y631720D02*
X1557400Y631720D01*
X1552900Y617720D02*
X1557400Y617720D01*
X1541400Y617720D02*
X1545900Y617720D01*
X1443320Y794090D02*
X1443320Y759050D01*
X1378280Y794090D02*
X1443320D01*
X1378280Y759050D02*
X1378280Y794090D01*
X1378280Y759050D02*
X1443320D01*
X1441950Y736570D02*
Y749570D01*
X2271940Y512930D02*
X2323940D01*
X2271940D02*
X2271940Y506930D01*
X2323940Y509930D02*
Y512930D01*
X2271940Y506930D02*
X2273940Y506930D01*
X2273940Y512930D01*
X2271773Y495198D02*
X2323773D01*
X2271773Y501198D02*
X2271773Y495198D01*
X2323773D02*
Y498198D01*
X2271773Y501198D02*
X2273773D01*
X2273773Y495198D01*
X2214720Y494930D02*
X2266720D01*
Y500930D01*
X2214720Y494930D02*
Y497930D01*
X2264720Y500930D02*
X2266720Y500930D01*
X2264720Y494930D02*
X2264720Y500930D01*
X2214887Y512662D02*
X2266887D01*
Y506662D02*
Y512662D01*
X2214887Y509662D02*
Y512662D01*
X2264887Y506662D02*
X2266887D01*
X2264887D02*
Y512662D01*
X2232960Y312160D02*
X2235960D01*
X2223960D02*
X2225960Y312160D01*
X2232960Y316160D02*
X2232960Y307160D01*
X2225960Y312160D02*
X2232960Y307160D01*
X2225960Y312160D02*
X2232960Y316160D01*
X2225960Y307160D02*
Y317160D01*
X2247370Y377440D02*
Y409440D01*
Y377440D02*
X2296370D01*
Y409440D01*
X2247370D02*
X2296370D01*
X2246070Y412940D02*
Y428190D01*
X2171540Y469530D02*
X2223540D01*
Y475530D01*
X2171540Y469530D02*
Y472530D01*
X2221540Y475530D02*
X2223540Y475530D01*
X2221540Y469530D02*
X2221540Y475530D01*
X2171707Y487262D02*
X2223707D01*
Y481262D02*
Y487262D01*
X2171707Y484262D02*
Y487262D01*
X2221707Y481262D02*
X2223707D01*
X2221707D02*
Y487262D01*
X2172410Y412940D02*
Y428190D01*
X2173710Y409440D02*
X2222710D01*
Y377440D02*
Y409440D01*
X2173710Y377440D02*
X2222710D01*
X2173710D02*
Y409440D01*
X2272260Y832930D02*
X2324260D01*
X2272260Y826930D02*
Y832930D01*
X2324260Y829930D02*
Y832930D01*
X2272260Y826930D02*
X2274260D01*
Y832930D01*
X2272093Y815198D02*
X2324093D01*
X2272093D02*
Y821198D01*
X2324093Y815198D02*
Y818198D01*
X2272093Y821198D02*
X2274093D01*
Y815198D02*
Y821198D01*
X2273773Y1135198D02*
Y1141198D01*
X2271773D02*
X2273773D01*
X2323773Y1135198D02*
Y1138198D01*
X2271773Y1135198D02*
Y1141198D01*
Y1135198D02*
X2323773D01*
X2273940Y1146930D02*
Y1152930D01*
X2271940Y1146930D02*
X2273940D01*
X2323940Y1149930D02*
Y1152930D01*
X2271940Y1146930D02*
Y1152930D01*
X2323940D01*
X2271940Y1472930D02*
X2323940D01*
X2271940Y1466930D02*
Y1472930D01*
X2323940Y1469930D02*
Y1472930D01*
X2271940Y1466930D02*
X2273940D01*
Y1472930D01*
X2271773Y1455198D02*
X2323773D01*
X2271773D02*
Y1461198D01*
X2323773Y1455198D02*
Y1458198D01*
X2271773Y1461198D02*
X2273773D01*
Y1455198D02*
Y1461198D01*
X2215040Y814930D02*
X2267040D01*
Y820930D01*
X2215040Y814930D02*
Y817930D01*
X2265040Y820930D02*
X2267040D01*
X2265040Y814930D02*
Y820930D01*
X2215207Y832662D02*
X2267207D01*
Y826662D02*
Y832662D01*
X2215207Y829662D02*
Y832662D01*
X2265207Y826662D02*
X2267207D01*
X2265207D02*
Y832662D01*
X2264887Y1146662D02*
Y1152662D01*
Y1146662D02*
X2266887D01*
X2214887Y1149662D02*
Y1152662D01*
X2266887Y1146662D02*
Y1152662D01*
X2214887D02*
X2266887D01*
X2264720Y1134930D02*
Y1140930D01*
X2266720D01*
X2214720Y1134930D02*
Y1137930D01*
X2266720Y1134930D02*
Y1140930D01*
X2214720Y1134930D02*
X2266720D01*
X2214720Y1454930D02*
X2266720D01*
Y1460930D01*
X2214720Y1454930D02*
Y1457930D01*
X2264720Y1460930D02*
X2266720D01*
X2264720Y1454930D02*
Y1460930D01*
X2214887Y1472662D02*
X2266887D01*
Y1466662D02*
Y1472662D01*
X2214887Y1469662D02*
Y1472662D01*
X2264887Y1466662D02*
X2266887D01*
X2264887D02*
Y1472662D01*
X2171860Y789530D02*
X2223860D01*
Y795530D01*
X2171860Y789530D02*
Y792530D01*
X2221860Y795530D02*
X2223860D01*
X2221860Y789530D02*
Y795530D01*
X2172027Y807262D02*
X2224027D01*
Y801262D02*
Y807262D01*
X2172027Y804262D02*
Y807262D01*
X2222027Y801262D02*
X2224027D01*
X2222027D02*
Y807262D01*
X2221707Y1121262D02*
Y1127262D01*
Y1121262D02*
X2223707D01*
X2171707Y1124262D02*
Y1127262D01*
X2223707Y1121262D02*
Y1127262D01*
X2171707D02*
X2223707D01*
X2221540Y1109530D02*
Y1115530D01*
X2223540D01*
X2171540Y1109530D02*
Y1112530D01*
X2223540Y1109530D02*
Y1115530D01*
X2171540Y1109530D02*
X2223540D01*
X2171540Y1429530D02*
X2223540D01*
Y1435530D01*
X2171540Y1429530D02*
Y1432530D01*
X2221540Y1435530D02*
X2223540D01*
X2221540Y1429530D02*
Y1435530D01*
X2171707Y1447262D02*
X2223707D01*
Y1441262D02*
Y1447262D01*
X2171707Y1444262D02*
Y1447262D01*
X2221707Y1441262D02*
X2223707D01*
X2221707D02*
Y1447262D01*
X2233280Y632160D02*
X2236280D01*
X2224280D02*
X2226280D01*
X2233280Y627160D02*
Y636160D01*
X2226280Y632160D02*
X2233280Y627160D01*
X2226280Y632160D02*
X2233280Y636160D01*
X2226280Y627160D02*
Y637160D01*
X2225960Y947160D02*
Y957160D01*
Y952160D02*
X2232960Y956160D01*
X2225960Y952160D02*
X2232960Y947160D01*
Y956160D01*
X2223960Y952160D02*
X2225960D01*
X2232960D02*
X2235960D01*
X2232960Y1272160D02*
X2235960D01*
X2223960D02*
X2225960D01*
X2232960Y1267160D02*
Y1276160D01*
X2225960Y1272160D02*
X2232960Y1267160D01*
X2225960Y1272160D02*
X2232960Y1276160D01*
X2225960Y1267160D02*
Y1277160D01*
X2247370Y1017440D02*
Y1049440D01*
Y1017440D02*
X2296370D01*
Y1049440D01*
X2247370D02*
X2296370D01*
X2246070Y1052940D02*
Y1068190D01*
Y1372940D02*
Y1388190D01*
X2247370Y1369440D02*
X2296370D01*
Y1337440D02*
Y1369440D01*
X2247370Y1337440D02*
X2296370D01*
X2247370D02*
Y1369440D01*
X2172730Y732940D02*
Y748190D01*
X2174030Y729440D02*
X2223030D01*
Y697440D02*
Y729440D01*
X2174030Y697440D02*
X2223030D01*
X2174030D02*
Y729440D01*
X2173710Y1017440D02*
Y1049440D01*
Y1017440D02*
X2222710D01*
Y1049440D01*
X2173710D02*
X2222710D01*
X2172410Y1052940D02*
Y1068190D01*
Y1372940D02*
Y1388190D01*
X2173710Y1369440D02*
X2222710D01*
Y1337440D02*
Y1369440D01*
X2173710Y1337440D02*
X2222710D01*
X2173710D02*
Y1369440D01*
X2172553Y545548D02*
Y551548D01*
X2170553D02*
X2172553D01*
X2222553Y545548D02*
Y548548D01*
X2170553Y545548D02*
Y551548D01*
Y545548D02*
X2222553D01*
X2172720Y557280D02*
Y563280D01*
X2170720Y557280D02*
X2172720D01*
X2222720Y560280D02*
Y563280D01*
X2170720Y557280D02*
Y563280D01*
X2222720D01*
X2172873Y865548D02*
Y871548D01*
X2170873D02*
X2172873D01*
X2222873Y865548D02*
Y868548D01*
X2170873Y865548D02*
Y871548D01*
Y865548D02*
X2222873D01*
X2173040Y877280D02*
Y883280D01*
X2171040Y877280D02*
X2173040D01*
X2223040Y880280D02*
Y883280D01*
X2171040Y877280D02*
Y883280D01*
X2223040D01*
X2172553Y1185548D02*
Y1191548D01*
X2170553D02*
X2172553D01*
X2222553Y1185548D02*
Y1188548D01*
X2170553Y1185548D02*
Y1191548D01*
Y1185548D02*
X2222553D01*
X2172720Y1197280D02*
Y1203280D01*
X2170720Y1197280D02*
X2172720D01*
X2222720Y1200280D02*
Y1203280D01*
X2170720Y1197280D02*
Y1203280D01*
X2222720D01*
X2172553Y1505548D02*
Y1511548D01*
X2170553D02*
X2172553D01*
X2222553Y1505548D02*
Y1508548D01*
X2170553Y1505548D02*
Y1511548D01*
Y1505548D02*
X2222553D01*
X2172720Y1517280D02*
Y1523280D01*
X2170720Y1517280D02*
X2172720D01*
X2222720Y1520280D02*
Y1523280D01*
X2170720Y1517280D02*
Y1523280D01*
X2222720D01*
X2469990Y503480D02*
Y516180D01*
Y528880D02*
Y541580D01*
Y554280D02*
Y566980D01*
X2419190Y592380D02*
X2419190Y579680D01*
X2444590Y554280D02*
Y566980D01*
Y554280D02*
X2450940Y547930D01*
X2463640Y547930D01*
X2469990Y554280D01*
X2419190Y566980D02*
X2419190Y554280D01*
X2463640Y547930D02*
X2469990Y541580D01*
X2419190Y528880D02*
X2419190Y541580D01*
X2463640Y522530D02*
X2469990Y528880D01*
X2450940Y522530D02*
X2463640D01*
X2444590Y528880D02*
X2450940Y522530D01*
X2444590Y541580D02*
X2444590Y528880D01*
X2444590Y541580D02*
X2450940Y547930D01*
X2444590Y516180D02*
X2450940Y522530D01*
X2444590Y503480D02*
Y516180D01*
Y503480D02*
X2450940Y497130D01*
X2463640Y497130D01*
X2469990Y503480D01*
X2419190Y503480D02*
Y516180D01*
X2463640Y522530D02*
X2469990Y516180D01*
X2438240Y522530D02*
X2444590Y516180D01*
X2438240Y497130D02*
X2444590Y503480D01*
X2425540Y497130D02*
X2438240D01*
X2419190Y503480D02*
X2425540Y497130D01*
X2419190Y503480D02*
Y516180D01*
X2425540Y522530D01*
X2419190Y541580D02*
X2425540Y547930D01*
X2419190Y528880D02*
X2419190Y541580D01*
X2419190Y528880D02*
X2425540Y522530D01*
X2438240D01*
X2444590Y528880D01*
X2438240Y547930D02*
X2444590Y541580D01*
X2438240Y547930D02*
X2444590Y554280D01*
X2425540Y547930D02*
X2438240D01*
X2419190Y554280D02*
X2425540Y547930D01*
X2419190Y566980D02*
X2419190Y554280D01*
X2419190Y566980D02*
X2425540Y573330D01*
X2419190Y592380D02*
X2419190Y579680D01*
X2419190Y592380D02*
X2425540Y598730D01*
X2438240D01*
X2425540Y573330D02*
X2438240Y573330D01*
X2419190Y579680D02*
X2425540Y573330D01*
X2463640D02*
X2469990Y566980D01*
X2444590Y566980D02*
X2450940Y573330D01*
X2444590Y598730D02*
X2469990D01*
X2450940Y573330D02*
X2469990Y573330D01*
X2444590Y579680D02*
X2444590Y598730D01*
X2438240Y573330D02*
X2444590Y579680D01*
X2438240Y598730D02*
X2444590Y592380D01*
X2438240Y573330D02*
X2444590Y566980D01*
X2469990Y573330D02*
Y598730D01*
X2470310Y823480D02*
Y836180D01*
Y848880D02*
Y861580D01*
Y874280D02*
Y886980D01*
X2419510Y912380D02*
X2419510Y899680D01*
X2444910Y874280D02*
Y886980D01*
Y874280D02*
X2451260Y867930D01*
X2463960Y867930D01*
X2470310Y874280D01*
X2419510Y886980D02*
X2419510Y874280D01*
X2463960Y867930D02*
X2470310Y861580D01*
X2419510Y848880D02*
X2419510Y861580D01*
X2463960Y842530D02*
X2470310Y848880D01*
X2451260Y842530D02*
X2463960D01*
X2444910Y848880D02*
X2451260Y842530D01*
X2444910Y861580D02*
X2444910Y848880D01*
X2444910Y861580D02*
X2451260Y867930D01*
X2444910Y836180D02*
X2451260Y842530D01*
X2444910Y823480D02*
Y836180D01*
Y823480D02*
X2451260Y817130D01*
X2463960Y817130D01*
X2470310Y823480D01*
X2419510Y823480D02*
Y836180D01*
X2463960Y842530D02*
X2470310Y836180D01*
X2438560Y842530D02*
X2444910Y836180D01*
X2438560Y817130D02*
X2444910Y823480D01*
X2425860Y817130D02*
X2438560D01*
X2419510Y823480D02*
X2425860Y817130D01*
X2419510Y823480D02*
Y836180D01*
X2425860Y842530D01*
X2419510Y861580D02*
X2425860Y867930D01*
X2419510Y848880D02*
X2419510Y861580D01*
X2419510Y848880D02*
X2425860Y842530D01*
X2438560D01*
X2444910Y848880D01*
X2438560Y867930D02*
X2444910Y861580D01*
X2438560Y867930D02*
X2444910Y874280D01*
X2425860Y867930D02*
X2438560D01*
X2419510Y874280D02*
X2425860Y867930D01*
X2419510Y886980D02*
X2419510Y874280D01*
X2419510Y886980D02*
X2425860Y893330D01*
X2419510Y912380D02*
X2419510Y899680D01*
X2419510Y912380D02*
X2425860Y918730D01*
X2438560D01*
X2425860Y893330D02*
X2438560Y893330D01*
X2419510Y899680D02*
X2425860Y893330D01*
X2463960D02*
X2470310Y886980D01*
X2444910Y886980D02*
X2451260Y893330D01*
X2444910Y918730D02*
X2470310D01*
X2451260Y893330D02*
X2470310Y893330D01*
X2444910Y899680D02*
X2444910Y918730D01*
X2438560Y893330D02*
X2444910Y899680D01*
X2438560Y918730D02*
X2444910Y912380D01*
X2438560Y893330D02*
X2444910Y886980D01*
X2470310Y893330D02*
Y918730D01*
X2469990Y1533330D02*
Y1558730D01*
X2438240Y1533330D02*
X2444590Y1526980D01*
X2438240Y1558730D02*
X2444590Y1552380D01*
X2438240Y1533330D02*
X2444590Y1539680D01*
X2444590Y1558730D01*
X2450940Y1533330D02*
X2469990Y1533330D01*
X2444590Y1558730D02*
X2469990D01*
X2444590Y1526980D02*
X2450940Y1533330D01*
X2463640Y1533330D02*
X2469990Y1526980D01*
X2419190Y1539680D02*
X2425540Y1533330D01*
X2438240Y1533330D01*
X2425540Y1558730D02*
X2438240D01*
X2419190Y1552380D02*
X2425540Y1558730D01*
X2419190Y1552380D02*
X2419190Y1539680D01*
X2419190Y1526980D02*
X2425540Y1533330D01*
X2419190Y1526980D02*
X2419190Y1514280D01*
X2425540Y1507930D01*
X2438240D01*
X2444590Y1514280D01*
X2438240Y1507930D02*
X2444590Y1501580D01*
X2438240Y1482530D02*
X2444590Y1488880D01*
X2425540Y1482530D02*
X2438240D01*
X2419190Y1488880D02*
X2425540Y1482530D01*
X2419190Y1488880D02*
X2419190Y1501580D01*
X2425540Y1507930D01*
X2419190Y1476180D02*
X2425540Y1482530D01*
X2419190Y1463480D02*
Y1476180D01*
Y1463480D02*
X2425540Y1457130D01*
X2438240D01*
X2444590Y1463480D01*
X2438240Y1482530D02*
X2444590Y1476180D01*
X2463640Y1482530D02*
X2469990Y1476180D01*
X2419190Y1463480D02*
Y1476180D01*
X2463640Y1457130D02*
X2469990Y1463480D01*
X2450940Y1457130D02*
X2463640Y1457130D01*
X2444590Y1463480D02*
X2450940Y1457130D01*
X2444590Y1463480D02*
Y1476180D01*
X2450940Y1482530D01*
X2444590Y1501580D02*
X2450940Y1507930D01*
X2444590Y1501580D02*
X2444590Y1488880D01*
X2450940Y1482530D01*
X2463640D01*
X2469990Y1488880D01*
X2419190D02*
X2419190Y1501580D01*
X2463640Y1507930D02*
X2469990Y1501580D01*
X2419190Y1526980D02*
X2419190Y1514280D01*
X2463640Y1507930D02*
X2469990Y1514280D01*
X2450940Y1507930D02*
X2463640Y1507930D01*
X2444590Y1514280D02*
X2450940Y1507930D01*
X2444590Y1514280D02*
Y1526980D01*
X2419190Y1552380D02*
X2419190Y1539680D01*
X2469990Y1514280D02*
Y1526980D01*
Y1488880D02*
Y1501580D01*
Y1463480D02*
Y1476180D01*
D11*
X1588265Y263139D02*
X1593344D01*
X1590804D01*
Y250443D01*
X1593344Y247904D01*
X1595883D01*
X1598422Y250443D01*
X1583187Y260600D02*
X1580648Y263139D01*
X1575569D01*
X1573030Y260600D01*
Y258061D01*
X1575569Y255522D01*
X1578109D01*
X1575569D01*
X1573030Y252982D01*
Y250443D01*
X1575569Y247904D01*
X1580648D01*
X1583187Y250443D01*
X1567952Y247904D02*
X1562874D01*
X1565413D01*
Y263139D01*
X1567952Y260600D01*
X1731267Y263139D02*
X1736346D01*
X1733806D01*
Y250443D01*
X1736346Y247904D01*
X1738885D01*
X1741424Y250443D01*
X1726189Y260600D02*
X1723650Y263139D01*
X1718571D01*
X1716032Y260600D01*
Y258061D01*
X1718571Y255522D01*
X1721111D01*
X1718571D01*
X1716032Y252982D01*
Y250443D01*
X1718571Y247904D01*
X1723650D01*
X1726189Y250443D01*
X1710954Y260600D02*
X1708415Y263139D01*
X1703336D01*
X1700797Y260600D01*
Y250443D01*
X1703336Y247904D01*
X1708415D01*
X1710954Y250443D01*
Y260600D01*
X1872237Y263139D02*
X1877316D01*
X1874776D01*
Y250443D01*
X1877316Y247904D01*
X1879855D01*
X1882394Y250443D01*
X1857002Y247904D02*
X1867159D01*
X1857002Y258061D01*
Y260600D01*
X1859541Y263139D01*
X1864620D01*
X1867159Y260600D01*
X1851924Y250443D02*
X1849385Y247904D01*
X1844306D01*
X1841767Y250443D01*
Y260600D01*
X1844306Y263139D01*
X1849385D01*
X1851924Y260600D01*
Y258061D01*
X1849385Y255522D01*
X1841767D01*
X1470155Y1607561D02*
X1475234D01*
X1472695D01*
Y1594865D01*
X1475234Y1592326D01*
X1477773D01*
X1480312Y1594865D01*
X1465077Y1605022D02*
X1462538Y1607561D01*
X1457459D01*
X1454920Y1605022D01*
Y1602483D01*
X1457459Y1599944D01*
X1459999D01*
X1457459D01*
X1454920Y1597404D01*
Y1594865D01*
X1457459Y1592326D01*
X1462538D01*
X1465077Y1594865D01*
X2572261Y1304031D02*
X2577340D01*
X2574800D01*
Y1291335D01*
X2577340Y1288796D01*
X2579879D01*
X2582418Y1291335D01*
X2557026Y1288796D02*
X2567183D01*
X2557026Y1298953D01*
Y1301492D01*
X2559565Y1304031D01*
X2564644D01*
X2567183Y1301492D01*
X2551948Y1286257D02*
X2541791D01*
X2536713Y1304031D02*
X2526556Y1288796D01*
Y1304031D02*
X2536713Y1288796D01*
X2521478Y1304031D02*
Y1288796D01*
X2511321D01*
X2506243D02*
Y1304031D01*
X2498625D01*
X2496086Y1301492D01*
Y1296414D01*
X2498625Y1293874D01*
X2506243D01*
X2501164D02*
X2496086Y1288796D01*
X2483390D02*
Y1304031D01*
X2491008Y1296414D01*
X2480851D01*
X2572261Y983991D02*
X2577340D01*
X2574800D01*
Y971295D01*
X2577340Y968756D01*
X2579879D01*
X2582418Y971295D01*
X2557026Y968756D02*
X2567183D01*
X2557026Y978913D01*
Y981452D01*
X2559565Y983991D01*
X2564644D01*
X2567183Y981452D01*
X2551948Y966217D02*
X2541791D01*
X2536713Y983991D02*
X2526556Y968756D01*
Y983991D02*
X2536713Y968756D01*
X2521478Y983991D02*
Y968756D01*
X2511321D01*
X2506243D02*
Y983991D01*
X2498625D01*
X2496086Y981452D01*
Y976374D01*
X2498625Y973834D01*
X2506243D01*
X2501164D02*
X2496086Y968756D01*
X2491008Y981452D02*
X2488468Y983991D01*
X2483390D01*
X2480851Y981452D01*
Y978913D01*
X2483390Y976374D01*
X2485929D01*
X2483390D01*
X2480851Y973834D01*
Y971295D01*
X2483390Y968756D01*
X2488468D01*
X2491008Y971295D01*
X2572261Y669031D02*
X2577340D01*
X2574800D01*
Y656335D01*
X2577340Y653796D01*
X2579879D01*
X2582418Y656335D01*
X2557026Y653796D02*
X2567183D01*
X2557026Y663953D01*
Y666492D01*
X2559565Y669031D01*
X2564644D01*
X2567183Y666492D01*
X2551948Y651257D02*
X2541791D01*
X2536713Y669031D02*
X2526556Y653796D01*
Y669031D02*
X2536713Y653796D01*
X2521478Y669031D02*
Y653796D01*
X2511321D01*
X2506243D02*
Y669031D01*
X2498625D01*
X2496086Y666492D01*
Y661413D01*
X2498625Y658874D01*
X2506243D01*
X2501164D02*
X2496086Y653796D01*
X2480851D02*
X2491008D01*
X2480851Y663953D01*
Y666492D01*
X2483390Y669031D01*
X2488468D01*
X2491008Y666492D01*
X2567181Y348991D02*
X2572260D01*
X2569720D01*
Y336295D01*
X2572260Y333756D01*
X2574799D01*
X2577338Y336295D01*
X2551946Y333756D02*
X2562103D01*
X2551946Y343913D01*
Y346452D01*
X2554485Y348991D01*
X2559564D01*
X2562103Y346452D01*
X2546868Y331217D02*
X2536711D01*
X2531633Y348991D02*
X2521476Y333756D01*
Y348991D02*
X2531633Y333756D01*
X2516398Y348991D02*
Y333756D01*
X2506241D01*
X2501163D02*
Y348991D01*
X2493545D01*
X2491006Y346452D01*
Y341373D01*
X2493545Y338834D01*
X2501163D01*
X2496084D02*
X2491006Y333756D01*
X2485928D02*
X2480849D01*
X2483388D01*
Y348991D01*
X2485928Y346452D01*
X2569721Y1194811D02*
X2574800D01*
X2572260D01*
Y1182115D01*
X2574800Y1179576D01*
X2577339D01*
X2579878Y1182115D01*
X2564643Y1179576D02*
X2559565D01*
X2562104D01*
Y1194811D01*
X2564643Y1192272D01*
X2551947Y1177037D02*
X2541790D01*
X2536712Y1194811D02*
X2526555Y1179576D01*
Y1194811D02*
X2536712Y1179576D01*
X2521477Y1194811D02*
Y1179576D01*
X2511320D01*
X2506242D02*
Y1194811D01*
X2498624D01*
X2496085Y1192272D01*
Y1187194D01*
X2498624Y1184654D01*
X2506242D01*
X2501163D02*
X2496085Y1179576D01*
X2483389D02*
Y1194811D01*
X2491007Y1187194D01*
X2480850D01*
X2569721Y879851D02*
X2574800D01*
X2572260D01*
Y867155D01*
X2574800Y864616D01*
X2577339D01*
X2579878Y867155D01*
X2564643Y864616D02*
X2559565D01*
X2562104D01*
Y879851D01*
X2564643Y877312D01*
X2551947Y862077D02*
X2541790D01*
X2536712Y879851D02*
X2526555Y864616D01*
Y879851D02*
X2536712Y864616D01*
X2521477Y879851D02*
Y864616D01*
X2511320D01*
X2506242D02*
Y879851D01*
X2498624D01*
X2496085Y877312D01*
Y872234D01*
X2498624Y869694D01*
X2506242D01*
X2501163D02*
X2496085Y864616D01*
X2491007Y877312D02*
X2488468Y879851D01*
X2483389D01*
X2480850Y877312D01*
Y874773D01*
X2483389Y872234D01*
X2485928D01*
X2483389D01*
X2480850Y869694D01*
Y867155D01*
X2483389Y864616D01*
X2488468D01*
X2491007Y867155D01*
X2569721Y564891D02*
X2574800D01*
X2572260D01*
Y552195D01*
X2574800Y549656D01*
X2577339D01*
X2579878Y552195D01*
X2564643Y549656D02*
X2559565D01*
X2562104D01*
Y564891D01*
X2564643Y562352D01*
X2551947Y547117D02*
X2541790D01*
X2536712Y564891D02*
X2526555Y549656D01*
Y564891D02*
X2536712Y549656D01*
X2521477Y564891D02*
Y549656D01*
X2511320D01*
X2506242D02*
Y564891D01*
X2498624D01*
X2496085Y562352D01*
Y557273D01*
X2498624Y554734D01*
X2506242D01*
X2501163D02*
X2496085Y549656D01*
X2480850D02*
X2491007D01*
X2480850Y559813D01*
Y562352D01*
X2483389Y564891D01*
X2488468D01*
X2491007Y562352D01*
X2564641Y244851D02*
X2569720D01*
X2567180D01*
Y232155D01*
X2569720Y229616D01*
X2572259D01*
X2574798Y232155D01*
X2559563Y229616D02*
X2554485D01*
X2557024D01*
Y244851D01*
X2559563Y242312D01*
X2546867Y227077D02*
X2536710D01*
X2531632Y244851D02*
X2521475Y229616D01*
Y244851D02*
X2531632Y229616D01*
X2516397Y244851D02*
Y229616D01*
X2506240D01*
X2501162D02*
Y244851D01*
X2493544D01*
X2491005Y242312D01*
Y237234D01*
X2493544Y234694D01*
X2501162D01*
X2496084D02*
X2491005Y229616D01*
X2485927D02*
X2480848D01*
X2483388D01*
Y244851D01*
X2485927Y242312D01*
X1729340Y612521D02*
Y609982D01*
X1724262Y604903D01*
X1719183Y609982D01*
Y612521D01*
X1724262Y604903D02*
Y597286D01*
X1714105D02*
X1709027D01*
X1711566D01*
Y612521D01*
X1714105Y609982D01*
X2468372Y625089D02*
X2458215Y609854D01*
Y625089D02*
X2468372Y609854D01*
X2453137D02*
X2448059D01*
X2450598D01*
Y625089D01*
X2453137Y622550D01*
X2440441Y607315D02*
X2430284D01*
X2425206Y625089D02*
X2415049Y609854D01*
Y625089D02*
X2425206Y609854D01*
X2409971Y625089D02*
Y609854D01*
X2399814D01*
X2394736D02*
Y625089D01*
X2387118D01*
X2384579Y622550D01*
Y617472D01*
X2387118Y614932D01*
X2394736D01*
X2389657D02*
X2384579Y609854D01*
X2379501D02*
X2374422D01*
X2376962D01*
Y625089D01*
X2379501Y622550D01*
X2468880Y945129D02*
X2458723Y929894D01*
Y945129D02*
X2468880Y929894D01*
X2453645D02*
X2448567D01*
X2451106D01*
Y945129D01*
X2453645Y942590D01*
X2440949Y927355D02*
X2430792D01*
X2425714Y945129D02*
X2415557Y929894D01*
Y945129D02*
X2425714Y929894D01*
X2410479Y945129D02*
Y929894D01*
X2400322D01*
X2395244D02*
Y945129D01*
X2387626D01*
X2385087Y942590D01*
Y937512D01*
X2387626Y934972D01*
X2395244D01*
X2390166D02*
X2385087Y929894D01*
X2369852D02*
X2380009D01*
X2369852Y940051D01*
Y942590D01*
X2372391Y945129D01*
X2377470D01*
X2380009Y942590D01*
X2469642Y1266439D02*
X2459485Y1251204D01*
Y1266439D02*
X2469642Y1251204D01*
X2454407D02*
X2449329D01*
X2451868D01*
Y1266439D01*
X2454407Y1263900D01*
X2441711Y1248665D02*
X2431554D01*
X2426476Y1266439D02*
X2416319Y1251204D01*
Y1266439D02*
X2426476Y1251204D01*
X2411241Y1266439D02*
Y1251204D01*
X2401084D01*
X2396006D02*
Y1266439D01*
X2388388D01*
X2385849Y1263900D01*
Y1258821D01*
X2388388Y1256282D01*
X2396006D01*
X2390927D02*
X2385849Y1251204D01*
X2380771Y1263900D02*
X2378232Y1266439D01*
X2373153D01*
X2370614Y1263900D01*
Y1261361D01*
X2373153Y1258821D01*
X2375692D01*
X2373153D01*
X2370614Y1256282D01*
Y1253743D01*
X2373153Y1251204D01*
X2378232D01*
X2380771Y1253743D01*
X2468372Y1585209D02*
X2458215Y1569974D01*
Y1585209D02*
X2468372Y1569974D01*
X2453137D02*
X2448059D01*
X2450598D01*
Y1585209D01*
X2453137Y1582670D01*
X2440441Y1567435D02*
X2430284D01*
X2425206Y1585209D02*
X2415049Y1569974D01*
Y1585209D02*
X2425206Y1569974D01*
X2409971Y1585209D02*
Y1569974D01*
X2399814D01*
X2394736D02*
Y1585209D01*
X2387118D01*
X2384579Y1582670D01*
Y1577592D01*
X2387118Y1575052D01*
X2394736D01*
X2389657D02*
X2384579Y1569974D01*
X2371883D02*
Y1585209D01*
X2379501Y1577592D01*
X2369344D01*
D12*
X2080250Y298900D02*
G03*
X2080250Y298900I-1250J0D01*
G01*
X1881250Y441100D02*
G03*
X1881250Y441100I-1250J0D01*
G01*
X2051500Y344022D02*
G03*
X2051500Y344022I-1250J0D01*
G01*
X1964000Y254522D02*
G03*
X1964000Y254522I-1250J0D01*
G01*
X1997290Y1013990D02*
G03*
X1997290Y1013990I-1250J0D01*
G01*
Y961920D02*
G03*
X1997290Y961920I-1250J0D01*
G01*
Y867940D02*
G03*
X1997290Y867940I-1250J0D01*
G01*
X1989670Y714930D02*
G03*
X1989670Y714930I-1250J0D01*
G01*
X1997290Y814600D02*
G03*
X1997290Y814600I-1250J0D01*
G01*
X1989200Y662860D02*
G03*
X1989200Y662860I-1250J0D01*
G01*
X2269190Y491930D02*
G03*
X2269190Y491930I-1250J0D01*
G01*
X2271970Y515930D02*
G03*
X2271970Y515930I-1250J0D01*
G01*
X2228790Y490530D02*
G03*
X2228790Y490530I-1250J0D01*
G01*
X2269510Y811930D02*
G03*
X2269510Y811930I-1250J0D01*
G01*
X2269190Y1131930D02*
G03*
X2269190Y1131930I-1250J0D01*
G01*
Y1451930D02*
G03*
X2269190Y1451930I-1250J0D01*
G01*
X2272290Y835930D02*
G03*
X2272290Y835930I-1250J0D01*
G01*
X2271970Y1155930D02*
G03*
X2271970Y1155930I-1250J0D01*
G01*
Y1475930D02*
G03*
X2271970Y1475930I-1250J0D01*
G01*
X2229110Y810530D02*
G03*
X2229110Y810530I-1250J0D01*
G01*
X2228790Y1130530D02*
G03*
X2228790Y1130530I-1250J0D01*
G01*
Y1450530D02*
G03*
X2228790Y1450530I-1250J0D01*
G01*
X2167970Y542280D02*
G03*
X2167970Y542280I-1250J0D01*
G01*
X2168290Y862280D02*
G03*
X2168290Y862280I-1250J0D01*
G01*
X2167970Y1182280D02*
G03*
X2167970Y1182280I-1250J0D01*
G01*
Y1502280D02*
G03*
X2167970Y1502280I-1250J0D01*
G01*
D14*
X453257Y1261834D02*
G03*
X453257Y1261834I-22361J0D01*
G01*
Y941833D02*
G03*
X453257Y941833I-22361J0D01*
G01*
Y621833D02*
G03*
X453257Y621833I-22361J0D01*
G01*
Y301834D02*
G03*
X453257Y301834I-22361J0D01*
G01*
D16*
X2498050Y1499017D02*
X2514265Y1504889D01*
X2522180Y1520607D01*
X2476515Y1521929D02*
X2482810Y1505367D01*
X2498050Y1499017D01*
X2514265Y1537304D02*
X2522180Y1520607D01*
X2498860Y1543457D02*
X2514265Y1537304D01*
X2482810Y1537117D02*
X2498860Y1543457D01*
X2476515Y1521929D02*
X2482810Y1537117D01*
X2498370Y1179016D02*
X2514585Y1184889D01*
X2522500Y1200607D01*
X2476835Y1201929D02*
X2483130Y1185367D01*
X2498370Y1179016D01*
X2514585Y1217304D02*
X2522500Y1200607D01*
X2499180Y1223457D02*
X2514585Y1217304D01*
X2483130Y1217116D02*
X2499180Y1223457D01*
X2476835Y1201929D02*
X2483130Y1217116D01*
X2499320Y857786D02*
X2515535Y863659D01*
X2523450Y879377D01*
X2477785Y880699D02*
X2484080Y864137D01*
X2499320Y857786D01*
X2515535Y896075D02*
X2523450Y879377D01*
X2500130Y902227D02*
X2515535Y896075D01*
X2484080Y895887D02*
X2500130Y902227D01*
X2477785Y880699D02*
X2484080Y895887D01*
X2498050Y539016D02*
X2514265Y544889D01*
X2522180Y560606D01*
X2476515Y561929D02*
X2482810Y545367D01*
X2498050Y539016D01*
X2514265Y577304D02*
X2522180Y560606D01*
X2498860Y583457D02*
X2514265Y577304D01*
X2482810Y577117D02*
X2498860Y583457D01*
X2476515Y561929D02*
X2482810Y577117D01*
D17*
X2267000Y249000D02*
X2271000D01*
Y283000D01*
X2267000D02*
X2271000D01*
X2253000D02*
X2257000D01*
X2253000Y249000D02*
Y283000D01*
Y249000D02*
X2257000D01*
X2253000Y266000D02*
X2271000Y266000D01*
X2201000Y1227500D02*
X2215000Y1227500D01*
X2213080Y1214800D02*
X2215000Y1214800D01*
X2215000Y1240200D02*
X2215000Y1214800D01*
X2213080Y1240200D02*
X2215000Y1240200D01*
X2201000D02*
X2202920Y1240200D01*
X2201000Y1214800D02*
X2201000Y1240200D01*
X2201000Y1214800D02*
X2202920Y1214800D01*
X2306000Y1224500D02*
X2320000Y1224500D01*
X2318080Y1211800D02*
X2320000Y1211800D01*
X2320000Y1237200D02*
X2320000Y1211800D01*
X2318080Y1237200D02*
X2320000Y1237200D01*
X2306000D02*
X2307920Y1237200D01*
X2306000Y1211800D02*
X2306000Y1237200D01*
X2306000Y1211800D02*
X2307920Y1211800D01*
X2267000Y1210000D02*
X2271000Y1210000D01*
X2271000Y1244000D02*
X2271000Y1210000D01*
X2267000Y1244000D02*
X2271000Y1244000D01*
X2253000D02*
X2257000Y1244000D01*
X2253000Y1210000D02*
Y1244000D01*
Y1210000D02*
X2257000Y1210000D01*
X2253000Y1227000D02*
X2271000D01*
X2322000Y1224500D02*
X2336000Y1224500D01*
X2322000Y1237200D02*
X2323920D01*
X2322000Y1211800D02*
X2322000Y1237200D01*
X2322000Y1211800D02*
X2323920Y1211800D01*
X2334080Y1211800D02*
X2336000Y1211800D01*
X2336000Y1237200D02*
X2336000Y1211800D01*
X2334080Y1237200D02*
X2336000Y1237200D01*
X2239460Y1224960D02*
X2242000Y1227500D01*
X2244540Y1224960D01*
X2239460D02*
X2244540D01*
X2242000Y1227500D02*
X2242000Y1230040D01*
X2244540Y1247820D02*
X2244540Y1246550D01*
X2244540Y1247820D02*
X2251000D01*
Y1246550D02*
Y1247820D01*
X2233000Y1246550D02*
X2233000Y1247820D01*
X2239460Y1247820D01*
Y1246550D02*
Y1247820D01*
X2249000Y1207180D02*
X2251000D01*
X2251000Y1246550D01*
X2244540Y1246550D02*
X2251000Y1246550D01*
X2233000Y1207180D02*
X2235000D01*
X2233000Y1246550D02*
X2233000Y1207180D01*
X2233000Y1246550D02*
X2239460D01*
X2233000Y1227500D02*
X2251000D01*
X2217000Y1228000D02*
X2231000Y1228000D01*
X2217000Y1240700D02*
X2218920Y1240700D01*
X2217000Y1215300D02*
Y1240700D01*
Y1215300D02*
X2218920Y1215300D01*
X2229080Y1215300D02*
X2231000Y1215300D01*
Y1240700D01*
X2229080D02*
X2231000D01*
X2217000Y908000D02*
X2231000Y908000D01*
X2217000Y920700D02*
X2218920Y920700D01*
X2217000Y895300D02*
Y920700D01*
Y895300D02*
X2218920Y895300D01*
X2229080Y895300D02*
X2231000Y895300D01*
X2231000Y920700D02*
X2231000Y895300D01*
X2229080Y920700D02*
X2231000Y920700D01*
X2322000Y904500D02*
X2336000Y904500D01*
X2322000Y917200D02*
X2323920D01*
X2322000D02*
X2322000Y891800D01*
X2323920Y891800D01*
X2334080Y891800D02*
X2336000Y891800D01*
Y917200D01*
X2334080Y917200D02*
X2336000Y917200D01*
X2306000Y904500D02*
X2320000Y904500D01*
X2318080Y891800D02*
X2320000Y891800D01*
X2320000Y917200D02*
X2320000Y891800D01*
X2318080Y917200D02*
X2320000Y917200D01*
X2306000D02*
X2307920Y917200D01*
X2306000Y891800D02*
Y917200D01*
Y891800D02*
X2307920D01*
X2267000Y890000D02*
X2271000D01*
Y924000D01*
X2267000D02*
X2271000D01*
X2253000Y924000D02*
X2257000Y924000D01*
X2253000Y890000D02*
Y924000D01*
Y890000D02*
X2257000D01*
X2253000Y907000D02*
X2271000Y907000D01*
X2238460Y905460D02*
X2241000Y908000D01*
X2243540Y905460D01*
X2238460D02*
X2243540D01*
X2241000Y908000D02*
Y910540D01*
X2243540Y927050D02*
Y928320D01*
X2250000Y928320D01*
X2250000Y927050D02*
X2250000Y928320D01*
X2232000Y927050D02*
X2232000Y928320D01*
X2238460D01*
Y927050D02*
Y928320D01*
X2248000Y887680D02*
X2250000Y887680D01*
X2250000Y927050D02*
X2250000Y887680D01*
X2243540Y927050D02*
X2250000Y927050D01*
X2232000Y887680D02*
X2234000D01*
X2232000Y927050D02*
X2232000Y887680D01*
X2232000Y927050D02*
X2238460D01*
X2232000Y908000D02*
X2250000D01*
X2201000Y907500D02*
X2215000Y907500D01*
X2213080Y894800D02*
X2215000Y894800D01*
X2215000Y920200D01*
X2213080Y920200D02*
X2215000Y920200D01*
X2201000D02*
X2202920Y920200D01*
X2201000Y920200D02*
X2201000Y894800D01*
X2202920Y894800D01*
X2201000Y588500D02*
X2215000Y588500D01*
X2213080Y575800D02*
X2215000Y575800D01*
X2215000Y601200D01*
X2213080Y601200D02*
X2215000Y601200D01*
X2201000D02*
X2202920Y601200D01*
X2201000Y601200D02*
X2201000Y575800D01*
X2202920Y575800D01*
X2306000Y585500D02*
X2320000Y585500D01*
X2318080Y572800D02*
X2320000D01*
Y598200D01*
X2318080Y598200D02*
X2320000Y598200D01*
X2306000Y598200D02*
X2307920Y598200D01*
X2306000Y598200D02*
X2306000Y572800D01*
X2307920Y572800D01*
X2266000Y570000D02*
X2270000D01*
X2270000Y604000D01*
X2266000Y604000D02*
X2270000Y604000D01*
X2252000Y604000D02*
X2256000Y604000D01*
X2252000Y570000D02*
X2252000Y604000D01*
X2252000Y570000D02*
X2256000D01*
X2252000Y587000D02*
X2270000Y587000D01*
X2237460Y584460D02*
X2240000Y587000D01*
X2242540Y584460D01*
X2237460D02*
X2242540D01*
X2240000Y587000D02*
X2240000Y589540D01*
X2242540Y607320D02*
X2242540Y606050D01*
X2242540Y607320D02*
X2249000Y607320D01*
Y606050D02*
Y607320D01*
X2231000Y606050D02*
X2231000Y607320D01*
X2237460D01*
X2237460Y606050D02*
X2237460Y607320D01*
X2247000Y566680D02*
X2249000Y566680D01*
X2249000Y606050D02*
X2249000Y566680D01*
X2242540Y606050D02*
X2249000D01*
X2231000Y566680D02*
X2233000Y566680D01*
X2231000Y606050D02*
X2231000Y566680D01*
X2231000Y606050D02*
X2237460D01*
X2231000Y587000D02*
X2249000Y587000D01*
X2217000Y589000D02*
X2231000Y589000D01*
X2217000Y601700D02*
X2218920Y601700D01*
X2217000Y576300D02*
Y601700D01*
Y576300D02*
X2218920Y576300D01*
X2229080Y576300D02*
X2231000Y576300D01*
X2231000Y601700D02*
X2231000Y576300D01*
X2229080Y601700D02*
X2231000Y601700D01*
X2322000Y585500D02*
X2336000Y585500D01*
X2322000Y598200D02*
X2323920D01*
X2322000D02*
X2322000Y572800D01*
X2323920Y572800D01*
X2334080Y572800D02*
X2336000Y572800D01*
Y598200D01*
X2334080Y598200D02*
X2336000Y598200D01*
X2306000Y266500D02*
X2320000D01*
X2318080Y253800D02*
X2320000Y253800D01*
Y279200D01*
X2318080Y279200D02*
X2320000Y279200D01*
X2306000Y279200D02*
X2307920Y279200D01*
X2306000Y253800D02*
Y279200D01*
Y253800D02*
X2307920D01*
X2238454Y263461D02*
X2240994Y266001D01*
X2243534Y263461D01*
X2238454D02*
X2243534D01*
X2240994Y266001D02*
Y268541D01*
X2243534Y285051D02*
Y286321D01*
X2249994D01*
Y285051D02*
Y286321D01*
X2231994Y285051D02*
Y286321D01*
X2238454D01*
X2238454Y285051D02*
X2238454Y286321D01*
X2247994Y245681D02*
X2249994D01*
X2249994Y285051D01*
X2243534D02*
X2249994D01*
X2231994Y245681D02*
X2233994D01*
X2231994D02*
X2231994Y285051D01*
X2238454D01*
X2231994Y266001D02*
X2249994D01*
X2201000Y266500D02*
X2215000D01*
X2213080Y253800D02*
X2215000D01*
Y279200D01*
X2213080Y279200D02*
X2215000Y279200D01*
X2201000Y279200D02*
X2202920Y279200D01*
X2201000Y253800D02*
X2201000Y279200D01*
X2201000Y253800D02*
X2202920Y253800D01*
X2217000Y267000D02*
X2231000Y267000D01*
X2217000Y279700D02*
X2218920D01*
X2217000Y254300D02*
Y279700D01*
Y254300D02*
X2218920D01*
X2229080D02*
X2231000D01*
Y279700D01*
X2229080D02*
X2231000D01*
X2322000Y263500D02*
X2336000D01*
X2322000Y276200D02*
X2323920Y276200D01*
X2322000Y250800D02*
Y276200D01*
Y250800D02*
X2323920D01*
X2334080D02*
X2336000Y250800D01*
X2336000Y276200D02*
X2336000Y250800D01*
X2334080Y276200D02*
X2336000Y276200D01*
X2061000Y417272D02*
Y431272D01*
X2073700Y431272D02*
X2073700Y429352D01*
X2048300Y431272D02*
X2073700Y431272D01*
X2048300Y429352D02*
X2048300Y431272D01*
X2048300Y417272D02*
X2048300Y419192D01*
X2048300Y417272D02*
X2073700D01*
X2073700Y419192D01*
X2077500Y416022D02*
X2091500Y416022D01*
X2077500Y430022D02*
X2080500Y430022D01*
X2077500Y430022D02*
X2077500Y402022D01*
X2080500D01*
X2088500D02*
X2091500D01*
X2091500Y430022D01*
X2088500Y430022D02*
X2091500Y430022D01*
X2046500Y433072D02*
X2048420D01*
X2046500D02*
Y458472D01*
X2048420D01*
X2058580D02*
X2060500D01*
Y433072D02*
Y458472D01*
X2058580Y433072D02*
X2060500D01*
X2046500Y445772D02*
X2060500D01*
X2062500D02*
X2076500D01*
X2074580Y433072D02*
X2076500D01*
Y458472D01*
X2074580D02*
X2076500D01*
X2062500D02*
X2064420D01*
X2062500Y433072D02*
Y458472D01*
Y433072D02*
X2064420D01*
X1945900Y387272D02*
Y389192D01*
X1920500Y387272D02*
X1945900D01*
X1920500D02*
Y389192D01*
Y399352D02*
Y401272D01*
X1945900D01*
Y399352D02*
Y401272D01*
X1933200Y387272D02*
Y401272D01*
X1949500Y388022D02*
X1963500Y388022D01*
X1949500Y402022D02*
X1952500Y402022D01*
X1949500Y402022D02*
X1949500Y374022D01*
X1952500D01*
X1960500D02*
X1963500D01*
X1963500Y402022D01*
X1960500Y402022D02*
X1963500Y402022D01*
X1920500Y414772D02*
X1934500Y414772D01*
X1920500Y427472D02*
X1922420Y427472D01*
X1920500Y402072D02*
Y427472D01*
Y402072D02*
X1922420Y402072D01*
X1932580Y402072D02*
X1934500Y402072D01*
Y427472D01*
X1932580Y427472D02*
X1934500Y427472D01*
X1933200Y371272D02*
Y385272D01*
X1920500Y373192D02*
X1920500Y371272D01*
X1945900D01*
X1945900Y373192D01*
X1945900Y383352D02*
X1945900Y385272D01*
X1920500D02*
X1945900D01*
X1920500Y383352D02*
X1920500Y385272D01*
X1904500Y389772D02*
X1918500Y389772D01*
X1904500Y402472D02*
X1906420Y402472D01*
X1904500Y377072D02*
Y402472D01*
Y377072D02*
X1906420Y377072D01*
X1916580Y377072D02*
X1918500Y377072D01*
Y402472D01*
X1916580Y402472D02*
X1918500Y402472D01*
X2061500Y401772D02*
X2075500Y401772D01*
X2061500Y414472D02*
X2063420Y414472D01*
X2061500Y389072D02*
Y414472D01*
Y389072D02*
X2063420Y389072D01*
X2073580Y389072D02*
X2075500Y389072D01*
Y414472D01*
X2073580Y414472D02*
X2075500Y414472D01*
X2045500Y401022D02*
X2059500Y401022D01*
X2045500Y415022D02*
X2048500Y415022D01*
X2045500Y415022D02*
X2045500Y387022D01*
X2048500D01*
X2056500D02*
X2059500D01*
X2059500Y415022D01*
X2056500Y415022D02*
X2059500Y415022D01*
X2077500Y388272D02*
X2091500D01*
X2089580Y375572D02*
X2091500D01*
Y400972D01*
X2089580D02*
X2091500D01*
X2077500D02*
X2079420D01*
X2077500Y375572D02*
Y400972D01*
Y375572D02*
X2079420D01*
X2045500Y372022D02*
X2059500Y372022D01*
X2045500Y386022D02*
X2048500Y386022D01*
X2045500Y386022D02*
X2045500Y358022D01*
X2048500D01*
X2056500D02*
X2059500D01*
X2059500Y386022D01*
X2056500Y386022D02*
X2059500Y386022D01*
X1933200Y370272D02*
X1933200Y356272D01*
X1920500Y358192D02*
X1920500Y356272D01*
X1945900Y356272D01*
X1945900Y358192D01*
X1945900Y368352D02*
X1945900Y370272D01*
X1920500D02*
X1945900D01*
X1920500Y368352D02*
X1920500Y370272D01*
X2077500Y360772D02*
X2091500Y360772D01*
X2077500Y373472D02*
X2079420D01*
X2077500Y348072D02*
Y373472D01*
Y348072D02*
X2079420D01*
X2089580D02*
X2091500D01*
Y373472D01*
X2089580D02*
X2091500D01*
X1904500Y416772D02*
X1918500D01*
X1916580Y404072D02*
X1918500Y404072D01*
X1918500Y429472D02*
X1918500Y404072D01*
X1916580Y429472D02*
X1918500D01*
X1904500D02*
X1906420Y429472D01*
X1904500Y404072D02*
X1904500Y429472D01*
X1904500Y404072D02*
X1906420D01*
X1950500Y403272D02*
Y417272D01*
X1964500Y414272D02*
Y417272D01*
X1936500Y417272D02*
X1964500Y417272D01*
X1936500Y417272D02*
X1936500Y414272D01*
X1936500Y403272D02*
X1936500Y406272D01*
X1936500Y403272D02*
X1964500Y403272D01*
Y406272D01*
X1904500Y361522D02*
X1918500D01*
X1915500Y347522D02*
X1918500Y347522D01*
X1918500Y375522D02*
X1918500Y347522D01*
X1915500Y375522D02*
X1918500D01*
X1904500D02*
X1907500Y375522D01*
X1904500Y347522D02*
X1904500Y375522D01*
X1904500Y347522D02*
X1907500Y347522D01*
X2188440Y1284210D02*
Y1298210D01*
X2201140Y1296290D02*
Y1298210D01*
X2175740D02*
X2201140D01*
X2175740Y1296290D02*
Y1298210D01*
Y1284210D02*
Y1286130D01*
Y1284210D02*
X2201140D01*
Y1286130D01*
X2188440Y964210D02*
Y978210D01*
X2201140Y976290D02*
Y978210D01*
X2175740D02*
X2201140D01*
X2175740Y976290D02*
Y978210D01*
Y964210D02*
Y966130D01*
Y964210D02*
X2201140D01*
Y966130D01*
X2188760Y644210D02*
Y658210D01*
X2201460Y656290D02*
Y658210D01*
X2176060D02*
X2201460D01*
X2176060Y656290D02*
Y658210D01*
Y644210D02*
Y646130D01*
Y644210D02*
X2201460D01*
Y646130D01*
X2188440Y324210D02*
Y338210D01*
X2201140Y336290D02*
Y338210D01*
X2175740D02*
X2201140D01*
X2175740Y336290D02*
Y338210D01*
Y324210D02*
Y326130D01*
Y324210D02*
X2201140D01*
Y326130D01*
X2225500Y1297950D02*
X2239500D01*
X2225500Y1310650D02*
X2227420D01*
X2225500Y1285250D02*
Y1310650D01*
Y1285250D02*
X2227420D01*
X2237580D02*
X2239500D01*
Y1310650D01*
X2237580D02*
X2239500D01*
X2225500Y977950D02*
X2239500D01*
X2225500Y990650D02*
X2227420D01*
X2225500Y965250D02*
Y990650D01*
Y965250D02*
X2227420D01*
X2237580D02*
X2239500D01*
Y990650D01*
X2237580D02*
X2239500D01*
X2225820Y657950D02*
X2239820D01*
X2225820Y670650D02*
X2227740D01*
X2225820Y645250D02*
Y670650D01*
Y645250D02*
X2227740D01*
X2237900D02*
X2239820D01*
Y670650D01*
X2237900D02*
X2239820D01*
X2225500Y337950D02*
X2239500D01*
X2225500Y350650D02*
X2227420D01*
X2225500Y325250D02*
Y350650D01*
Y325250D02*
X2227420D01*
X2237580D02*
X2239500D01*
Y350650D01*
X2237580D02*
X2239500D01*
X2189320Y1248650D02*
Y1262650D01*
X2176620Y1248650D02*
Y1250570D01*
Y1248650D02*
X2202020D01*
Y1250570D01*
Y1260730D02*
Y1262650D01*
X2176620D02*
X2202020D01*
X2176620Y1260730D02*
Y1262650D01*
X2189320Y928650D02*
Y942650D01*
X2176620Y928650D02*
Y930570D01*
Y928650D02*
X2202020D01*
Y930570D01*
Y940730D02*
Y942650D01*
X2176620D02*
X2202020D01*
X2176620Y940730D02*
Y942650D01*
X2189640Y608650D02*
Y622650D01*
X2176940Y608650D02*
Y610570D01*
Y608650D02*
X2202340D01*
Y610570D01*
Y620730D02*
Y622650D01*
X2176940D02*
X2202340D01*
X2176940Y620730D02*
Y622650D01*
X2189320Y288650D02*
Y302650D01*
X2176620Y288650D02*
Y290570D01*
Y288650D02*
X2202020D01*
Y290570D01*
Y300730D02*
Y302650D01*
X2176620D02*
X2202020D01*
X2176620Y300730D02*
Y302650D01*
X2210260Y1297950D02*
X2224260D01*
X2222340Y1285250D02*
X2224260D01*
Y1310650D01*
X2222340D02*
X2224260D01*
X2210260D02*
X2212180D01*
X2210260Y1285250D02*
Y1310650D01*
Y1285250D02*
X2212180D01*
X2210260Y977950D02*
X2224260D01*
X2222340Y965250D02*
X2224260D01*
Y990650D01*
X2222340D02*
X2224260D01*
X2210260D02*
X2212180D01*
X2210260Y965250D02*
Y990650D01*
Y965250D02*
X2212180D01*
X2210580Y657950D02*
X2224580D01*
X2222660Y645250D02*
X2224580D01*
Y670650D01*
X2222660D02*
X2224580D01*
X2210580D02*
X2212500D01*
X2210580Y645250D02*
Y670650D01*
Y645250D02*
X2212500D01*
X2210260Y337950D02*
X2224260D01*
X2222340Y325250D02*
X2224260D01*
Y350650D01*
X2222340D02*
X2224260D01*
X2210260D02*
X2212180D01*
X2210260Y325250D02*
Y350650D01*
Y325250D02*
X2212180D01*
X2185900Y1451400D02*
Y1465400D01*
X2173200Y1451400D02*
Y1453320D01*
Y1451400D02*
X2198600D01*
Y1453320D01*
Y1463480D02*
Y1465400D01*
X2173200D02*
X2198600D01*
X2173200Y1463480D02*
Y1465400D01*
X2185900Y1131400D02*
Y1145400D01*
X2173200Y1131400D02*
Y1133320D01*
Y1131400D02*
X2198600D01*
Y1133320D01*
Y1143480D02*
Y1145400D01*
X2173200D02*
X2198600D01*
X2173200Y1143480D02*
Y1145400D01*
X2186220Y811400D02*
Y825400D01*
X2173520Y811400D02*
Y813320D01*
Y811400D02*
X2198920D01*
Y813320D01*
Y823480D02*
Y825400D01*
X2173520D02*
X2198920D01*
X2173520Y823480D02*
Y825400D01*
X2185900Y491400D02*
Y505400D01*
X2173200Y491400D02*
Y493320D01*
Y491400D02*
X2198600D01*
Y493320D01*
Y503480D02*
Y505400D01*
X2173200D02*
X2198600D01*
X2173200Y503480D02*
Y505400D01*
X2185900Y1467910D02*
Y1481910D01*
X2198600Y1479990D02*
Y1481910D01*
X2173200D02*
X2198600D01*
X2173200Y1479990D02*
Y1481910D01*
Y1467910D02*
Y1469830D01*
Y1467910D02*
X2198600D01*
Y1469830D01*
X2185900Y1147910D02*
Y1161910D01*
X2198600Y1159990D02*
Y1161910D01*
X2173200D02*
X2198600D01*
X2173200Y1159990D02*
Y1161910D01*
Y1147910D02*
Y1149830D01*
Y1147910D02*
X2198600D01*
Y1149830D01*
X2186220Y827910D02*
Y841910D01*
X2198920Y839990D02*
Y841910D01*
X2173520D02*
X2198920D01*
X2173520Y839990D02*
Y841910D01*
Y827910D02*
Y829830D01*
Y827910D02*
X2198920D01*
Y829830D01*
X2185900Y507910D02*
Y521910D01*
X2198600Y519990D02*
Y521910D01*
X2173200D02*
X2198600D01*
X2173200Y519990D02*
Y521910D01*
Y507910D02*
Y509830D01*
Y507910D02*
X2198600D01*
Y509830D01*
X2186680Y1484420D02*
Y1498420D01*
X2199380Y1496500D02*
Y1498420D01*
X2173980D02*
X2199380D01*
X2173980Y1496500D02*
Y1498420D01*
Y1484420D02*
Y1486340D01*
Y1484420D02*
X2199380D01*
Y1486340D01*
X2186680Y1164420D02*
Y1178420D01*
X2199380Y1176500D02*
Y1178420D01*
X2173980D02*
X2199380D01*
X2173980Y1176500D02*
Y1178420D01*
Y1164420D02*
Y1166340D01*
Y1164420D02*
X2199380D01*
Y1166340D01*
X2187000Y844420D02*
Y858420D01*
X2199700Y856500D02*
Y858420D01*
X2174300D02*
X2199700D01*
X2174300Y856500D02*
Y858420D01*
Y844420D02*
Y846340D01*
Y844420D02*
X2199700D01*
Y846340D01*
X2186680Y524420D02*
Y538420D01*
X2199380Y536500D02*
Y538420D01*
X2173980D02*
X2199380D01*
X2173980Y536500D02*
Y538420D01*
Y524420D02*
Y526340D01*
Y524420D02*
X2199380D01*
Y526340D01*
X2215340Y1408930D02*
X2229340D01*
X2215340Y1421630D02*
X2217260D01*
X2215340Y1396230D02*
Y1421630D01*
Y1396230D02*
X2217260D01*
X2227420D02*
X2229340D01*
Y1421630D01*
X2227420D02*
X2229340D01*
X2215340Y1088930D02*
X2229340D01*
X2215340Y1101630D02*
X2217260D01*
X2215340Y1076230D02*
Y1101630D01*
Y1076230D02*
X2217260D01*
X2227420D02*
X2229340D01*
Y1101630D01*
X2227420D02*
X2229340D01*
X2215660Y768930D02*
X2229660D01*
X2215660Y781630D02*
X2217580D01*
X2215660Y756230D02*
Y781630D01*
Y756230D02*
X2217580D01*
X2227740D02*
X2229660D01*
Y781630D01*
X2227740D02*
X2229660D01*
X2215340Y448930D02*
X2229340D01*
X2215340Y461630D02*
X2217260D01*
X2215340Y436230D02*
Y461630D01*
Y436230D02*
X2217260D01*
X2227420D02*
X2229340D01*
Y461630D01*
X2227420D02*
X2229340D01*
X2286720Y1406130D02*
Y1420130D01*
X2299420Y1418210D02*
Y1420130D01*
X2274020D02*
X2299420D01*
X2274020Y1418210D02*
Y1420130D01*
Y1406130D02*
Y1408050D01*
Y1406130D02*
X2299420D01*
Y1408050D01*
X2286720Y1086130D02*
Y1100130D01*
X2299420Y1098210D02*
Y1100130D01*
X2274020D02*
X2299420D01*
X2274020Y1098210D02*
Y1100130D01*
Y1086130D02*
Y1088050D01*
Y1086130D02*
X2299420D01*
Y1088050D01*
X2287040Y766130D02*
Y780130D01*
X2299740Y778210D02*
Y780130D01*
X2274340D02*
X2299740D01*
X2274340Y778210D02*
Y780130D01*
Y766130D02*
Y768050D01*
Y766130D02*
X2299740D01*
Y768050D01*
X2286720Y446130D02*
Y460130D01*
X2299420Y458210D02*
Y460130D01*
X2274020D02*
X2299420D01*
X2274020Y458210D02*
Y460130D01*
Y446130D02*
Y448050D01*
Y446130D02*
X2299420D01*
Y448050D01*
X2188440Y1298180D02*
Y1312180D01*
X2175740Y1298180D02*
Y1300100D01*
Y1298180D02*
X2201140D01*
Y1300100D01*
Y1310260D02*
Y1312180D01*
X2175740D02*
X2201140D01*
X2175740Y1310260D02*
Y1312180D01*
X2188440Y978180D02*
Y992180D01*
X2175740Y978180D02*
Y980100D01*
Y978180D02*
X2201140D01*
Y980100D01*
Y990260D02*
Y992180D01*
X2175740D02*
X2201140D01*
X2175740Y990260D02*
Y992180D01*
X2188760Y658180D02*
Y672180D01*
X2176060Y658180D02*
Y660100D01*
Y658180D02*
X2201460D01*
Y660100D01*
Y670260D02*
Y672180D01*
X2176060D02*
X2201460D01*
X2176060Y670260D02*
Y672180D01*
X2188440Y338180D02*
Y352180D01*
X2175740Y338180D02*
Y340100D01*
Y338180D02*
X2201140D01*
Y340100D01*
Y350260D02*
Y352180D01*
X2175740D02*
X2201140D01*
X2175740Y350260D02*
Y352180D01*
X2286460Y1282710D02*
X2300460D01*
X2298540Y1270010D02*
X2300460D01*
Y1295410D01*
X2298540D02*
X2300460D01*
X2286460D02*
X2288380D01*
X2286460Y1270010D02*
Y1295410D01*
Y1270010D02*
X2288380D01*
X2286460Y962710D02*
X2300460D01*
X2298540Y950010D02*
X2300460D01*
Y975410D01*
X2298540D02*
X2300460D01*
X2286460D02*
X2288380D01*
X2286460Y950010D02*
Y975410D01*
Y950010D02*
X2288380D01*
X2286780Y642710D02*
X2300780D01*
X2298860Y630010D02*
X2300780D01*
Y655410D01*
X2298860D02*
X2300780D01*
X2286780D02*
X2288700D01*
X2286780Y630010D02*
Y655410D01*
Y630010D02*
X2288700D01*
X2286460Y322710D02*
X2300460D01*
X2298540Y310010D02*
X2300460D01*
Y335410D01*
X2298540D02*
X2300460D01*
X2286460D02*
X2288380D01*
X2286460Y310010D02*
Y335410D01*
Y310010D02*
X2288380D01*
X2251160Y1406130D02*
Y1420130D01*
X2238460Y1406130D02*
Y1408050D01*
Y1406130D02*
X2263860D01*
Y1408050D01*
Y1418210D02*
Y1420130D01*
X2238460D02*
X2263860D01*
X2238460Y1418210D02*
Y1420130D01*
X2251160Y1086130D02*
Y1100130D01*
X2238460Y1086130D02*
Y1088050D01*
Y1086130D02*
X2263860D01*
Y1088050D01*
Y1098210D02*
Y1100130D01*
X2238460D02*
X2263860D01*
X2238460Y1098210D02*
Y1100130D01*
X2251480Y766130D02*
Y780130D01*
X2238780Y766130D02*
Y768050D01*
Y766130D02*
X2264180D01*
Y768050D01*
Y778210D02*
Y780130D01*
X2238780D02*
X2264180D01*
X2238780Y778210D02*
Y780130D01*
X2251160Y446130D02*
Y460130D01*
X2238460Y446130D02*
Y448050D01*
Y446130D02*
X2263860D01*
Y448050D01*
Y458210D02*
Y460130D01*
X2238460D02*
X2263860D01*
X2238460Y458210D02*
Y460130D01*
X2251940Y1439150D02*
Y1453150D01*
X2239240Y1439150D02*
Y1441070D01*
Y1439150D02*
X2264640D01*
Y1441070D01*
Y1451230D02*
Y1453150D01*
X2239240D02*
X2264640D01*
X2239240Y1451230D02*
Y1453150D01*
X2251940Y1119150D02*
Y1133150D01*
X2239240Y1119150D02*
Y1121070D01*
Y1119150D02*
X2264640D01*
Y1121070D01*
Y1131230D02*
Y1133150D01*
X2239240D02*
X2264640D01*
X2239240Y1131230D02*
Y1133150D01*
X2252260Y799150D02*
Y813150D01*
X2239560Y799150D02*
Y801070D01*
Y799150D02*
X2264960D01*
Y801070D01*
Y811230D02*
Y813150D01*
X2239560D02*
X2264960D01*
X2239560Y811230D02*
Y813150D01*
X2251940Y479150D02*
Y493150D01*
X2239240Y479150D02*
Y481070D01*
Y479150D02*
X2264640D01*
Y481070D01*
Y491230D02*
Y493150D01*
X2239240D02*
X2264640D01*
X2239240Y491230D02*
Y493150D01*
X2185510Y1392160D02*
Y1406160D01*
X2198210Y1404240D02*
Y1406160D01*
X2172810D02*
X2198210D01*
X2172810Y1404240D02*
Y1406160D01*
Y1392160D02*
Y1394080D01*
Y1392160D02*
X2198210D01*
Y1394080D01*
X2185510Y1072160D02*
Y1086160D01*
X2198210Y1084240D02*
Y1086160D01*
X2172810D02*
X2198210D01*
X2172810Y1084240D02*
Y1086160D01*
Y1072160D02*
Y1074080D01*
Y1072160D02*
X2198210D01*
Y1074080D01*
X2185830Y752160D02*
Y766160D01*
X2198530Y764240D02*
Y766160D01*
X2173130D02*
X2198530D01*
X2173130Y764240D02*
Y766160D01*
Y752160D02*
Y754080D01*
Y752160D02*
X2198530D01*
Y754080D01*
X2185510Y432160D02*
Y446160D01*
X2198210Y444240D02*
Y446160D01*
X2172810D02*
X2198210D01*
X2172810Y444240D02*
Y446160D01*
Y432160D02*
Y434080D01*
Y432160D02*
X2198210D01*
Y434080D01*
X2268940Y1284210D02*
Y1298210D01*
X2281640Y1296290D02*
Y1298210D01*
X2256240D02*
X2281640D01*
X2256240Y1296290D02*
Y1298210D01*
Y1284210D02*
Y1286130D01*
Y1284210D02*
X2281640D01*
Y1286130D01*
X2268940Y964210D02*
Y978210D01*
X2281640Y976290D02*
Y978210D01*
X2256240D02*
X2281640D01*
X2256240Y976290D02*
Y978210D01*
Y964210D02*
Y966130D01*
Y964210D02*
X2281640D01*
Y966130D01*
X2269260Y644210D02*
Y658210D01*
X2281960Y656290D02*
Y658210D01*
X2256560D02*
X2281960D01*
X2256560Y656290D02*
Y658210D01*
Y644210D02*
Y646130D01*
Y644210D02*
X2281960D01*
Y646130D01*
X2268940Y324210D02*
Y338210D01*
X2281640Y336290D02*
Y338210D01*
X2256240D02*
X2281640D01*
X2256240Y336290D02*
Y338210D01*
Y324210D02*
Y326130D01*
Y324210D02*
X2281640D01*
Y326130D01*
X2202640Y1408930D02*
X2216640D01*
X2202640Y1421630D02*
X2204560D01*
X2202640Y1396230D02*
Y1421630D01*
Y1396230D02*
X2204560D01*
X2214720D02*
X2216640D01*
Y1421630D01*
X2214720D02*
X2216640D01*
X2202640Y1088930D02*
X2216640D01*
X2202640Y1101630D02*
X2204560D01*
X2202640Y1076230D02*
Y1101630D01*
Y1076230D02*
X2204560D01*
X2214720D02*
X2216640D01*
Y1101630D01*
X2214720D02*
X2216640D01*
X2202960Y768930D02*
X2216960D01*
X2202960Y781630D02*
X2204880D01*
X2202960Y756230D02*
Y781630D01*
Y756230D02*
X2204880D01*
X2215040D02*
X2216960D01*
Y781630D01*
X2215040D02*
X2216960D01*
X2202640Y448930D02*
X2216640D01*
X2202640Y461630D02*
X2204560D01*
X2202640Y436230D02*
Y461630D01*
Y436230D02*
X2204560D01*
X2214720D02*
X2216640D01*
Y461630D01*
X2214720D02*
X2216640D01*
X2286720Y1439150D02*
Y1453150D01*
X2299420Y1451230D02*
Y1453150D01*
X2274020D02*
X2299420D01*
X2274020Y1451230D02*
Y1453150D01*
Y1439150D02*
Y1441070D01*
Y1439150D02*
X2299420D01*
Y1441070D01*
X2286720Y1119150D02*
Y1133150D01*
X2299420Y1131230D02*
Y1133150D01*
X2274020D02*
X2299420D01*
X2274020Y1131230D02*
Y1133150D01*
Y1119150D02*
Y1121070D01*
Y1119150D02*
X2299420D01*
Y1121070D01*
X2287040Y799150D02*
Y813150D01*
X2299740Y811230D02*
Y813150D01*
X2274340D02*
X2299740D01*
X2274340Y811230D02*
Y813150D01*
Y799150D02*
Y801070D01*
Y799150D02*
X2299740D01*
Y801070D01*
X2286720Y479150D02*
Y493150D01*
X2299420Y491230D02*
Y493150D01*
X2274020D02*
X2299420D01*
X2274020Y491230D02*
Y493150D01*
Y479150D02*
Y481070D01*
Y479150D02*
X2299420D01*
Y481070D01*
X2251160Y1390890D02*
Y1404890D01*
X2238460Y1390890D02*
Y1392810D01*
Y1390890D02*
X2263860D01*
Y1392810D01*
Y1402970D02*
Y1404890D01*
X2238460D02*
X2263860D01*
X2238460Y1402970D02*
Y1404890D01*
X2251160Y1070890D02*
Y1084890D01*
X2238460Y1070890D02*
Y1072810D01*
Y1070890D02*
X2263860D01*
Y1072810D01*
Y1082970D02*
Y1084890D01*
X2238460D02*
X2263860D01*
X2238460Y1082970D02*
Y1084890D01*
X2251480Y750890D02*
Y764890D01*
X2238780Y750890D02*
Y752810D01*
Y750890D02*
X2264180D01*
Y752810D01*
Y762970D02*
Y764890D01*
X2238780D02*
X2264180D01*
X2238780Y762970D02*
Y764890D01*
X2251160Y430890D02*
Y444890D01*
X2238460Y430890D02*
Y432810D01*
Y430890D02*
X2263860D01*
Y432810D01*
Y442970D02*
Y444890D01*
X2238460D02*
X2263860D01*
X2238460Y442970D02*
Y444890D01*
X2326320Y1436610D02*
Y1450610D01*
X2340320Y1447610D02*
Y1450610D01*
X2312320D02*
X2340320D01*
X2312320Y1447610D02*
Y1450610D01*
Y1436610D02*
Y1439610D01*
Y1436610D02*
X2340320D01*
Y1439610D01*
X2326320Y1116610D02*
Y1130610D01*
X2340320Y1127610D02*
Y1130610D01*
X2312320D02*
X2340320D01*
X2312320Y1127610D02*
Y1130610D01*
Y1116610D02*
Y1119610D01*
Y1116610D02*
X2340320D01*
Y1119610D01*
X2326640Y796610D02*
Y810610D01*
X2340640Y807610D02*
Y810610D01*
X2312640D02*
X2340640D01*
X2312640Y807610D02*
Y810610D01*
Y796610D02*
Y799610D01*
Y796610D02*
X2340640D01*
Y799610D01*
X2326320Y476610D02*
Y490610D01*
X2340320Y487610D02*
Y490610D01*
X2312320D02*
X2340320D01*
X2312320Y487610D02*
Y490610D01*
Y476610D02*
Y479610D01*
Y476610D02*
X2340320D01*
Y479610D01*
X1407770Y831550D02*
Y835550D01*
Y831550D02*
X1441770D01*
X1441770Y835550D01*
X1441770Y845550D02*
Y849550D01*
X1407770Y849550D02*
X1441770Y849550D01*
X1407770Y845550D02*
Y849550D01*
X1424770Y831550D02*
Y849550D01*
X1372590Y831550D02*
Y835550D01*
Y831550D02*
X1406590D01*
X1406590Y835550D02*
X1406590Y831550D01*
X1406590Y849550D02*
X1406590Y845550D01*
X1372590Y849550D02*
X1406590D01*
X1372590Y845550D02*
Y849550D01*
X1389590Y831550D02*
Y849550D01*
X1704320Y833550D02*
Y835470D01*
X1678920Y833550D02*
X1704320D01*
X1678920D02*
Y835470D01*
Y845630D02*
Y847550D01*
X1704320D01*
Y845630D02*
Y847550D01*
X1691620Y833550D02*
Y847550D01*
X1371830Y712170D02*
Y716170D01*
Y712170D02*
X1405830D01*
X1405830Y716170D01*
X1405830Y730170D02*
X1405830Y726170D01*
X1371830Y730170D02*
X1405830D01*
X1371830Y726170D02*
Y730170D01*
X1388830Y712170D02*
Y730170D01*
X2020940Y1048850D02*
Y1050770D01*
X2046340D01*
X2046340Y1048850D01*
X2046340Y1036770D02*
X2046340Y1038690D01*
X2020940Y1036770D02*
X2046340D01*
X2020940D02*
Y1038690D01*
X2033640Y1036770D02*
Y1050770D01*
X2059040Y999940D02*
Y1001860D01*
X2033640Y999940D02*
X2059040D01*
X2033640D02*
Y1001860D01*
Y1012020D02*
Y1013940D01*
X2059040D01*
Y1012020D02*
Y1013940D01*
X2046340Y999940D02*
Y1013940D01*
X2020940Y961220D02*
Y963140D01*
X2046340D01*
X2046340Y961220D01*
X2046340Y949140D02*
X2046340Y951060D01*
X2020940Y949140D02*
X2046340D01*
X2020940D02*
Y951060D01*
X2033640Y949140D02*
Y963140D01*
X2059340Y984700D02*
Y986620D01*
X2033940Y984700D02*
X2059340D01*
X2033940Y986620D02*
X2033940Y984700D01*
X2033940Y996780D02*
X2033940Y998700D01*
X2059340D01*
Y996780D02*
Y998700D01*
X2046640Y984700D02*
Y998700D01*
X1704320Y803070D02*
Y804990D01*
X1678920Y803070D02*
X1704320D01*
X1678920D02*
Y804990D01*
X1678920Y815150D02*
Y817070D01*
X1704320D01*
Y815150D02*
Y817070D01*
X1691620Y803070D02*
Y817070D01*
X1704320Y818310D02*
Y820230D01*
X1678920Y818310D02*
X1704320D01*
X1678920Y820230D02*
X1678920Y818310D01*
X1678920Y830390D02*
Y832310D01*
X1704320D01*
Y830390D02*
Y832310D01*
X1691620D02*
X1691620Y818310D01*
X1734904Y919290D02*
X1745064D01*
X1743794Y907860D02*
X1745064Y907860D01*
Y930720D01*
X1743794Y930720D02*
X1745064Y930720D01*
X1734904D02*
X1736174Y930720D01*
X1734904Y907860D02*
Y930720D01*
Y907860D02*
X1736174Y907860D01*
X1734650Y724980D02*
X1744810D01*
X1743540Y713550D02*
X1744810Y713550D01*
Y736410D01*
X1743540Y736410D02*
X1744810Y736410D01*
X1734650D02*
X1735920Y736410D01*
X1734650Y713550D02*
Y736410D01*
Y713550D02*
X1735920Y713550D01*
X2020940Y902800D02*
Y904720D01*
X2046340D01*
Y902800D02*
Y904720D01*
Y890720D02*
Y892640D01*
X2020940Y890720D02*
X2046340D01*
X2020940D02*
Y892640D01*
X2033640Y890720D02*
Y904720D01*
X2013320Y749790D02*
Y751710D01*
X2038720D01*
X2038720Y749790D01*
X2038720Y737710D02*
X2038720Y739630D01*
X2013320Y737710D02*
X2038720D01*
X2013320D02*
Y739630D01*
X2026020Y737710D02*
Y751710D01*
X2059340Y853890D02*
Y855810D01*
X2033940Y853890D02*
X2059340D01*
X2033940Y855810D02*
X2033940Y853890D01*
X2033940Y865970D02*
X2033940Y867890D01*
X2059340D01*
Y865970D02*
Y867890D01*
X2046640Y853890D02*
Y867890D01*
X2052020Y700880D02*
Y702800D01*
X2026620Y700880D02*
X2052020D01*
X2026620D02*
Y702800D01*
X2026620Y712960D02*
X2026620Y714880D01*
X2052020D01*
Y712960D02*
Y714880D01*
X2039320Y700880D02*
X2039320Y714880D01*
X2020940Y813900D02*
Y815820D01*
X2046340D01*
Y813900D02*
Y815820D01*
Y801820D02*
Y803740D01*
X2020940Y801820D02*
X2046340D01*
X2020940D02*
Y803740D01*
X2033640Y801820D02*
Y815820D01*
X2012050Y662160D02*
X2012050Y664080D01*
X2037450D01*
X2037450Y662160D01*
X2037450Y650080D02*
X2037450Y652000D01*
X2012050Y650080D02*
X2037450D01*
X2012050D02*
Y652000D01*
X2024750Y650080D02*
Y664080D01*
X2059340Y837380D02*
Y839300D01*
X2033940Y837380D02*
X2059340D01*
X2033940Y839300D02*
X2033940Y837380D01*
X2033940Y849460D02*
X2033940Y851380D01*
X2059340D01*
Y849460D02*
Y851380D01*
X2046640Y837380D02*
Y851380D01*
X2051720Y685640D02*
Y687560D01*
X2026320Y685640D02*
X2051720D01*
X2026320Y687560D02*
X2026320Y685640D01*
Y697720D02*
Y699640D01*
X2051720D01*
Y697720D02*
Y699640D01*
X2039020Y685640D02*
Y699640D01*
X1728700Y975060D02*
Y979060D01*
Y975060D02*
X1762700D01*
Y979060D01*
Y989060D02*
Y993060D01*
X1728700D02*
X1762700D01*
X1728700Y989060D02*
Y993060D01*
X1745700Y975060D02*
Y993060D01*
X1843470Y991600D02*
Y995600D01*
X1809470D02*
X1843470D01*
X1809470Y991600D02*
Y995600D01*
Y977600D02*
Y981600D01*
Y977600D02*
X1843470D01*
Y981600D01*
X1826470Y977600D02*
Y995600D01*
X1813378Y997348D02*
Y999348D01*
Y997348D02*
X1833378D01*
Y999348D01*
Y1005348D02*
Y1007348D01*
X1813378D02*
X1833378D01*
X1813378Y1005348D02*
Y1007348D01*
X2033390Y1052010D02*
Y1066010D01*
X2019390Y1052010D02*
Y1055010D01*
Y1052010D02*
X2047390D01*
Y1055010D01*
Y1063010D02*
Y1066010D01*
X2019390D02*
X2047390D01*
X2019390Y1063010D02*
Y1066010D01*
X2033390Y933900D02*
Y947900D01*
X2019390Y933900D02*
Y936900D01*
Y933900D02*
X2047390D01*
Y936900D01*
Y944900D02*
Y947900D01*
X2019390D02*
X2047390D01*
X2019390Y944900D02*
Y947900D01*
X1784260Y1129270D02*
X1786260Y1129270D01*
X1784260Y1109270D02*
Y1129270D01*
Y1109270D02*
X1786260D01*
X1792260D02*
X1794260D01*
Y1129270D01*
X1792260Y1129270D02*
X1794260Y1129270D01*
X1750410Y1004840D02*
X1750410Y1006840D01*
X1730410D02*
X1750410D01*
X1730410Y1004840D02*
Y1006840D01*
Y996840D02*
Y998840D01*
Y996840D02*
X1750410D01*
X1750410Y998840D02*
X1750410Y996840D01*
X1707550Y1089550D02*
Y1091550D01*
Y1089550D02*
X1727550D01*
Y1091550D01*
Y1097550D02*
Y1099550D01*
X1707550D02*
X1727550D01*
X1707550Y1097550D02*
Y1099550D01*
X1728410Y1083040D02*
Y1087040D01*
X1694410D02*
X1728410D01*
X1694410Y1083040D02*
Y1087040D01*
Y1069040D02*
Y1073040D01*
Y1069040D02*
X1728410D01*
Y1073040D01*
X1711410Y1069040D02*
Y1087040D01*
X1836140Y1067770D02*
Y1071770D01*
Y1067770D02*
X1870140D01*
X1870140Y1071770D01*
X1870140Y1085770D02*
X1870140Y1081770D01*
X1836140Y1085770D02*
X1870140D01*
X1836140Y1081770D02*
Y1085770D01*
X1853140Y1067770D02*
Y1085770D01*
X1857000Y1096280D02*
X1857000Y1098280D01*
X1837000D02*
X1857000D01*
X1837000Y1096280D02*
Y1098280D01*
Y1088280D02*
Y1090280D01*
Y1088280D02*
X1857000D01*
X1857000Y1090280D02*
X1857000Y1088280D01*
X1694790Y588980D02*
Y592980D01*
Y588980D02*
X1728790D01*
Y592980D01*
Y602980D02*
Y606980D01*
X1694790Y606980D02*
X1728790Y606980D01*
X1694790Y606980D02*
X1694790Y602980D01*
X1711790Y606980D02*
X1711790Y588980D01*
X1730060Y538210D02*
X1730060Y542210D01*
X1696060D02*
X1730060D01*
X1696060D02*
X1696060Y538210D01*
Y524210D02*
Y528210D01*
Y524210D02*
X1730060Y524210D01*
X1730060Y528210D02*
X1730060Y524210D01*
X1713060D02*
Y542210D01*
X1729970Y769320D02*
Y773320D01*
Y769320D02*
X1763970D01*
Y773320D01*
Y783320D02*
Y787320D01*
X1729970D02*
X1763970D01*
X1729970Y783320D02*
Y787320D01*
X1746970Y769320D02*
Y787320D01*
X1843724Y784590D02*
Y788590D01*
X1809724D02*
X1843724D01*
X1809724Y784590D02*
Y788590D01*
Y770590D02*
Y774590D01*
Y770590D02*
X1843724D01*
Y774590D01*
X1826724Y770590D02*
Y788590D01*
X1813378Y790084D02*
X1813378Y792084D01*
X1813378Y790084D02*
X1833378D01*
Y792084D01*
Y798084D02*
Y800084D01*
X1813378D02*
X1833378D01*
X1813378D02*
X1813378Y798084D01*
X1843470Y590280D02*
Y594280D01*
X1809470D02*
X1843470D01*
X1809470Y590280D02*
Y594280D01*
Y576280D02*
Y580280D01*
Y576280D02*
X1843470D01*
Y580280D01*
X1826470Y576280D02*
Y594280D01*
X1812870Y595520D02*
Y597520D01*
Y595520D02*
X1832870D01*
Y597520D01*
Y603520D02*
Y605520D01*
X1812870D02*
X1832870D01*
X1812870Y603520D02*
Y605520D01*
X2033390Y905960D02*
Y919960D01*
X2019390Y905960D02*
Y908960D01*
Y905960D02*
X2047390D01*
Y908960D01*
Y916960D02*
Y919960D01*
X2019390D02*
X2047390D01*
X2019390Y916960D02*
Y919960D01*
X2025770Y752950D02*
Y766950D01*
X2011770Y752950D02*
Y755950D01*
Y752950D02*
X2039770D01*
Y755950D01*
Y763950D02*
Y766950D01*
X2011770D02*
X2039770D01*
X2011770Y763950D02*
Y766950D01*
X2033390Y786580D02*
Y800580D01*
X2019390Y786580D02*
Y789580D01*
Y786580D02*
X2047390D01*
Y789580D01*
Y797580D02*
Y800580D01*
X2019390D02*
X2047390D01*
X2019390Y797580D02*
Y800580D01*
X2024500Y634840D02*
Y648840D01*
X2010500Y634840D02*
Y637840D01*
Y634840D02*
X2038500D01*
Y637840D01*
Y645840D02*
Y648840D01*
X2010500D02*
X2038500D01*
X2010500Y645840D02*
Y648840D01*
X1784514Y922260D02*
X1786514Y922260D01*
X1784514Y902260D02*
Y922260D01*
Y902260D02*
X1786514D01*
X1792514D02*
X1794514D01*
Y922260D01*
X1792514Y922260D02*
X1794514Y922260D01*
X1784260Y727950D02*
X1786260Y727950D01*
X1784260Y707950D02*
Y727950D01*
Y707950D02*
X1786260D01*
X1792260D02*
X1794260D01*
Y727950D01*
X1792260Y727950D02*
X1794260Y727950D01*
X1750664Y798030D02*
X1750664Y800030D01*
X1730664D02*
X1750664D01*
X1730664Y798030D02*
Y800030D01*
Y790030D02*
Y792030D01*
Y790030D02*
X1750664D01*
X1750664Y792030D02*
X1750664Y790030D01*
X1750410Y603520D02*
X1750410Y605520D01*
X1730410D02*
X1750410D01*
X1730410Y603520D02*
Y605520D01*
Y595520D02*
Y597520D01*
Y595520D02*
X1750410D01*
X1750410Y597520D02*
X1750410Y595520D01*
X1707804Y882540D02*
Y884540D01*
Y882540D02*
X1727804D01*
Y884540D01*
Y890540D02*
Y892540D01*
X1707804D02*
X1727804D01*
X1707804Y890540D02*
Y892540D01*
X1728664Y876030D02*
Y880030D01*
X1694664D02*
X1728664D01*
X1694664Y876030D02*
X1694664Y880030D01*
X1694664Y866030D02*
X1694664Y862030D01*
X1728664D01*
Y866030D01*
X1711664Y862030D02*
Y880030D01*
X1707550Y688230D02*
X1707550Y690230D01*
X1707550Y688230D02*
X1727550D01*
Y690230D01*
Y696230D02*
Y698230D01*
X1707550D02*
X1727550D01*
X1707550D02*
X1707550Y696230D01*
X1728410Y681720D02*
Y685720D01*
X1694410D02*
X1728410D01*
X1694410Y681720D02*
X1694410Y685720D01*
X1694410Y671720D02*
X1694410Y667720D01*
X1728410D01*
Y671720D01*
X1711410Y667720D02*
Y685720D01*
X1836394Y860760D02*
Y864760D01*
Y860760D02*
X1870394D01*
X1870394Y864760D01*
X1870394Y878760D02*
X1870394Y874760D01*
X1836394Y878760D02*
X1870394D01*
X1836394Y874760D02*
Y878760D01*
X1853394Y860760D02*
Y878760D01*
X1857254Y889270D02*
X1857254Y891270D01*
X1837254D02*
X1857254D01*
X1837254Y889270D02*
Y891270D01*
Y881270D02*
Y883270D01*
Y881270D02*
X1857254D01*
X1857254Y883270D02*
X1857254Y881270D01*
X1836140Y666450D02*
Y670450D01*
Y666450D02*
X1870140D01*
X1870140Y670450D01*
X1870140Y684450D02*
X1870140Y680450D01*
X1836140Y684450D02*
X1870140D01*
X1836140Y680450D02*
Y684450D01*
X1853140Y666450D02*
Y684450D01*
X1857000Y694960D02*
X1857000Y696960D01*
X1837000D02*
X1857000D01*
X1837000Y694960D02*
Y696960D01*
Y686960D02*
Y688960D01*
Y686960D02*
X1857000D01*
X1857000Y688960D02*
X1857000Y686960D01*
X1408150Y712170D02*
Y716170D01*
Y712170D02*
X1442150D01*
X1442150Y716170D01*
X1442150Y730170D02*
X1442150Y726170D01*
X1408150Y730170D02*
X1442150D01*
X1408150Y726170D02*
Y730170D01*
X1425150Y712170D02*
Y730170D01*
X2255730Y322970D02*
X2255730Y319970D01*
X2255730Y322970D02*
X2283730Y322970D01*
Y319970D02*
Y322970D01*
X2283730Y308970D02*
Y311970D01*
X2255730Y308970D02*
X2283730Y308970D01*
X2255730Y308970D02*
Y311970D01*
X2269730Y308970D02*
Y322970D01*
X2171910Y459670D02*
Y462670D01*
X2199910D01*
Y459670D02*
Y462670D01*
Y448670D02*
Y451670D01*
X2171910Y448670D02*
X2199910D01*
X2171910D02*
Y451670D01*
X2185910Y448670D02*
Y462670D01*
X2301510Y461370D02*
X2301510Y464370D01*
X2273510Y461370D02*
X2301510D01*
X2273510D02*
Y464370D01*
Y472370D02*
Y475370D01*
X2301510D01*
Y472370D02*
Y475370D01*
X2287510Y461370D02*
Y475370D01*
X2237150Y472370D02*
Y475370D01*
X2265150D01*
Y472370D02*
Y475370D01*
Y461370D02*
Y464370D01*
X2237150Y461370D02*
X2265150D01*
X2237150D02*
Y464370D01*
X2251150Y461370D02*
Y475370D01*
X2240490Y350450D02*
X2240490Y353450D01*
X2268490Y353450D01*
Y350450D02*
Y353450D01*
Y339450D02*
Y342450D01*
X2240490Y339450D02*
X2268490Y339450D01*
X2240490Y339450D02*
Y342450D01*
X2254490Y339450D02*
Y353450D01*
X2154380Y359520D02*
X2157380D01*
X2154380D02*
Y387520D01*
X2157380D01*
X2165380D02*
X2168380D01*
Y359520D02*
Y387520D01*
X2165380Y359520D02*
X2168380D01*
X2154380Y373520D02*
X2168380D01*
X2283670Y441440D02*
X2283670Y444440D01*
X2311670Y444440D01*
X2311670Y441440D02*
X2311670Y444440D01*
X2311670Y433440D02*
X2311670Y430440D01*
X2283670D02*
X2311670D01*
X2283670D02*
X2283670Y433440D01*
X2297670Y430440D02*
Y444440D01*
X2228040Y400160D02*
X2231040D01*
X2228040D02*
Y428160D01*
X2231040D01*
X2239040D02*
X2242040D01*
Y400160D02*
Y428160D01*
X2239040Y400160D02*
X2242040D01*
X2228040Y414160D02*
X2242040D01*
X2252960Y321320D02*
X2252960Y318910D01*
X2207100Y321320D02*
X2252960Y321320D01*
X2205830D02*
X2207100Y321320D01*
X2205830Y321320D02*
X2205830Y314700D01*
X2207100D01*
X2207100Y321320D02*
X2207100Y314700D01*
Y303000D02*
Y309620D01*
X2205830D02*
X2207100D01*
X2205830D02*
X2205830Y303000D01*
X2207100D01*
X2252960D01*
X2252960Y305410D02*
X2252960Y303000D01*
X2278220Y295650D02*
X2280760Y293110D01*
X2278220Y295650D02*
X2280760Y298190D01*
Y293110D02*
Y298190D01*
X2275680Y295650D02*
X2278220Y295650D01*
Y286650D02*
Y304650D01*
X2259170Y293110D02*
X2259170Y286650D01*
X2298540D01*
X2298540Y288650D02*
X2298540Y286650D01*
X2259170Y304650D02*
X2259170Y298190D01*
X2259170Y304650D02*
X2298540D01*
Y302650D02*
Y304650D01*
X2257900Y293110D02*
X2259170Y293110D01*
X2257900Y293110D02*
X2257900Y286650D01*
X2259170D01*
X2257900Y304650D02*
X2259170D01*
X2257900Y298190D02*
X2257900Y304650D01*
X2257900Y298190D02*
X2259170D01*
X2340600Y496930D02*
Y510930D01*
X2327900Y496930D02*
Y498850D01*
Y496930D02*
X2353300D01*
Y498850D01*
Y510930D02*
X2353300Y509010D01*
X2327900Y510930D02*
X2353300D01*
X2327900Y509010D02*
Y510930D01*
X2171430Y305700D02*
Y309700D01*
Y305700D02*
X2205430D01*
Y309700D01*
Y323700D02*
X2205430Y319700D01*
X2171430Y323700D02*
X2205430D01*
X2171430Y319700D02*
Y323700D01*
X2188430D02*
X2188430Y305700D01*
X2270050Y628970D02*
Y642970D01*
X2256050Y628970D02*
Y631970D01*
Y628970D02*
X2284050D01*
Y631970D01*
Y639970D02*
Y642970D01*
X2256050D02*
X2284050D01*
X2256050Y639970D02*
Y642970D01*
X2255730Y959970D02*
Y962970D01*
X2283730D01*
Y959970D02*
Y962970D01*
Y948970D02*
Y951970D01*
X2255730Y948970D02*
X2283730D01*
X2255730D02*
Y951970D01*
X2269730Y948970D02*
Y962970D01*
Y1268970D02*
Y1282970D01*
X2255730Y1268970D02*
Y1271970D01*
Y1268970D02*
X2283730D01*
Y1271970D01*
Y1279970D02*
Y1282970D01*
X2255730D02*
X2283730D01*
X2255730Y1279970D02*
Y1282970D01*
X2186230Y768670D02*
Y782670D01*
X2172230Y768670D02*
Y771670D01*
Y768670D02*
X2200230D01*
Y771670D01*
Y779670D02*
Y782670D01*
X2172230D02*
X2200230D01*
X2172230Y779670D02*
Y782670D01*
X2171910Y1099670D02*
Y1102670D01*
X2199910D01*
Y1099670D02*
Y1102670D01*
Y1088670D02*
Y1091670D01*
X2171910Y1088670D02*
X2199910D01*
X2171910D02*
Y1091670D01*
X2185910Y1088670D02*
Y1102670D01*
Y1408670D02*
Y1422670D01*
X2171910Y1408670D02*
Y1411670D01*
Y1408670D02*
X2199910D01*
Y1411670D01*
Y1419670D02*
Y1422670D01*
X2171910D02*
X2199910D01*
X2171910Y1419670D02*
Y1422670D01*
X2287830Y781370D02*
Y795370D01*
X2301830Y792370D02*
Y795370D01*
X2273830D02*
X2301830D01*
X2273830Y792370D02*
Y795370D01*
Y781370D02*
Y784370D01*
Y781370D02*
X2301830D01*
Y784370D01*
X2301510Y1101370D02*
Y1104370D01*
X2273510Y1101370D02*
X2301510D01*
X2273510D02*
Y1104370D01*
Y1112370D02*
Y1115370D01*
X2301510D01*
Y1112370D02*
Y1115370D01*
X2287510Y1101370D02*
Y1115370D01*
Y1421370D02*
Y1435370D01*
X2301510Y1432370D02*
Y1435370D01*
X2273510D02*
X2301510D01*
X2273510Y1432370D02*
Y1435370D01*
Y1421370D02*
Y1424370D01*
Y1421370D02*
X2301510D01*
Y1424370D01*
X2251470Y781370D02*
Y795370D01*
X2237470Y781370D02*
Y784370D01*
Y781370D02*
X2265470D01*
Y784370D01*
Y792370D02*
Y795370D01*
X2237470D02*
X2265470D01*
X2237470Y792370D02*
Y795370D01*
X2237150Y1112370D02*
Y1115370D01*
X2265150D01*
Y1112370D02*
Y1115370D01*
Y1101370D02*
Y1104370D01*
X2237150Y1101370D02*
X2265150D01*
X2237150D02*
Y1104370D01*
X2251150Y1101370D02*
Y1115370D01*
Y1421370D02*
Y1435370D01*
X2237150Y1421370D02*
Y1424370D01*
Y1421370D02*
X2265150D01*
Y1424370D01*
Y1432370D02*
Y1435370D01*
X2237150D02*
X2265150D01*
X2237150Y1432370D02*
Y1435370D01*
X2254810Y659450D02*
Y673450D01*
X2240810Y659450D02*
Y662450D01*
Y659450D02*
X2268810D01*
Y662450D01*
Y670450D02*
Y673450D01*
X2240810D02*
X2268810D01*
X2240810Y670450D02*
Y673450D01*
X2240490Y990450D02*
Y993450D01*
X2268490D01*
Y990450D02*
Y993450D01*
Y979450D02*
Y982450D01*
X2240490Y979450D02*
X2268490D01*
X2240490D02*
Y982450D01*
X2254490Y979450D02*
Y993450D01*
Y1299450D02*
Y1313450D01*
X2240490Y1299450D02*
Y1302450D01*
Y1299450D02*
X2268490D01*
Y1302450D01*
Y1310450D02*
Y1313450D01*
X2240490D02*
X2268490D01*
X2240490Y1310450D02*
Y1313450D01*
X2154700Y693520D02*
X2168700D01*
X2165700Y679520D02*
X2168700D01*
Y707520D01*
X2165700D02*
X2168700D01*
X2154700D02*
X2157700D01*
X2154700Y679520D02*
Y707520D01*
Y679520D02*
X2157700D01*
X2154380Y999520D02*
X2157380D01*
X2154380D02*
Y1027520D01*
X2157380D01*
X2165380D02*
X2168380D01*
Y999520D02*
Y1027520D01*
X2165380Y999520D02*
X2168380D01*
X2154380Y1013520D02*
X2168380D01*
X2154380Y1333520D02*
X2168380D01*
X2165380Y1319520D02*
X2168380D01*
Y1347520D01*
X2165380D02*
X2168380D01*
X2154380D02*
X2157380D01*
X2154380Y1319520D02*
Y1347520D01*
Y1319520D02*
X2157380D01*
X2297990Y750440D02*
Y764440D01*
X2283990Y750440D02*
Y753440D01*
Y750440D02*
X2311990D01*
Y753440D01*
Y761440D02*
Y764440D01*
X2283990D02*
X2311990D01*
X2283990Y761440D02*
Y764440D01*
X2283670Y1081440D02*
Y1084440D01*
X2311670D01*
Y1081440D02*
Y1084440D01*
Y1070440D02*
Y1073440D01*
X2283670Y1070440D02*
X2311670D01*
X2283670D02*
Y1073440D01*
X2297670Y1070440D02*
Y1084440D01*
Y1390440D02*
Y1404440D01*
X2283670Y1390440D02*
Y1393440D01*
Y1390440D02*
X2311670D01*
Y1393440D01*
Y1401440D02*
Y1404440D01*
X2283670D02*
X2311670D01*
X2283670Y1401440D02*
Y1404440D01*
X2228360Y734160D02*
X2242360D01*
X2239360Y720160D02*
X2242360D01*
Y748160D01*
X2239360D02*
X2242360D01*
X2228360D02*
X2231360D01*
X2228360Y720160D02*
Y748160D01*
Y720160D02*
X2231360D01*
X2228040Y1040160D02*
X2231040D01*
X2228040D02*
Y1068160D01*
X2231040D01*
X2239040D02*
X2242040D01*
Y1040160D02*
Y1068160D01*
X2239040Y1040160D02*
X2242040D01*
X2228040Y1054160D02*
X2242040D01*
X2228040Y1374160D02*
X2242040D01*
X2239040Y1360160D02*
X2242040D01*
Y1388160D01*
X2239040D02*
X2242040D01*
X2228040D02*
X2231040D01*
X2228040Y1360160D02*
Y1388160D01*
Y1360160D02*
X2231040D01*
X2171750Y625700D02*
Y629700D01*
Y625700D02*
X2205750D01*
Y629700D01*
Y639700D02*
Y643700D01*
X2171750D02*
X2205750D01*
X2171750Y639700D02*
Y643700D01*
X2188750Y625700D02*
Y643700D01*
X2188430Y945700D02*
Y963700D01*
X2171430Y959700D02*
Y963700D01*
X2205430D01*
Y959700D02*
Y963700D01*
Y945700D02*
Y949700D01*
X2171430Y945700D02*
X2205430D01*
X2171430D02*
Y949700D01*
Y1265700D02*
Y1269700D01*
Y1265700D02*
X2205430D01*
Y1269700D01*
Y1279700D02*
Y1283700D01*
X2171430D02*
X2205430D01*
X2171430Y1279700D02*
Y1283700D01*
X2188430Y1265700D02*
Y1283700D01*
X2253280Y638910D02*
Y641320D01*
X2207420D02*
X2253280D01*
X2206150D02*
X2207420D01*
X2206150Y634700D02*
Y641320D01*
Y634700D02*
X2207420D01*
Y641320D01*
Y623000D02*
Y629620D01*
X2206150D02*
X2207420D01*
X2206150Y623000D02*
Y629620D01*
Y623000D02*
X2207420D01*
X2253280D01*
Y625410D01*
X2252960Y943000D02*
Y945410D01*
X2207100Y943000D02*
X2252960D01*
X2205830D02*
X2207100D01*
X2205830D02*
Y949620D01*
X2207100D01*
Y943000D02*
Y949620D01*
Y954700D02*
Y961320D01*
X2205830Y954700D02*
X2207100D01*
X2205830D02*
Y961320D01*
X2207100D01*
X2252960D01*
Y958910D02*
Y961320D01*
Y1278910D02*
Y1281320D01*
X2207100D02*
X2252960D01*
X2205830D02*
X2207100D01*
X2205830Y1274700D02*
Y1281320D01*
Y1274700D02*
X2207100D01*
Y1281320D01*
Y1263000D02*
Y1269620D01*
X2205830D02*
X2207100D01*
X2205830Y1263000D02*
Y1269620D01*
Y1263000D02*
X2207100D01*
X2252960D01*
Y1265410D01*
X2278540Y615650D02*
X2281080Y613110D01*
X2278540Y615650D02*
X2281080Y618190D01*
Y613110D02*
Y618190D01*
X2276000Y615650D02*
X2278540D01*
Y606650D02*
Y624650D01*
X2259490Y606650D02*
Y613110D01*
Y606650D02*
X2298860D01*
Y608650D01*
X2259490Y618190D02*
Y624650D01*
X2298860D01*
Y622650D02*
Y624650D01*
X2258220Y613110D02*
X2259490D01*
X2258220Y606650D02*
Y613110D01*
Y606650D02*
X2259490D01*
X2258220Y624650D02*
X2259490D01*
X2258220Y618190D02*
Y624650D01*
Y618190D02*
X2259490D01*
X2257900Y938190D02*
X2259170D01*
X2257900D02*
Y944650D01*
X2259170D01*
X2257900Y926650D02*
X2259170D01*
X2257900D02*
Y933110D01*
X2259170D01*
X2298540Y942650D02*
Y944650D01*
X2259170D02*
X2298540D01*
X2259170Y938190D02*
Y944650D01*
X2298540Y926650D02*
Y928650D01*
X2259170Y926650D02*
X2298540D01*
X2259170D02*
Y933110D01*
X2278220Y926650D02*
Y944650D01*
X2275680Y935650D02*
X2278220D01*
X2280760Y933110D02*
Y938190D01*
X2278220Y935650D02*
X2280760Y938190D01*
X2278220Y935650D02*
X2280760Y933110D01*
X2278220Y1255650D02*
X2280760Y1253110D01*
X2278220Y1255650D02*
X2280760Y1258190D01*
Y1253110D02*
Y1258190D01*
X2275680Y1255650D02*
X2278220D01*
Y1246650D02*
Y1264650D01*
X2259170Y1246650D02*
Y1253110D01*
Y1246650D02*
X2298540D01*
Y1248650D01*
X2259170Y1258190D02*
Y1264650D01*
X2298540D01*
Y1262650D02*
Y1264650D01*
X2257900Y1253110D02*
X2259170D01*
X2257900Y1246650D02*
Y1253110D01*
Y1246650D02*
X2259170D01*
X2257900Y1264650D02*
X2259170D01*
X2257900Y1258190D02*
Y1264650D01*
Y1258190D02*
X2259170D01*
X2328220Y829010D02*
Y830930D01*
X2353620D01*
Y829010D02*
Y830930D01*
Y816930D02*
Y818850D01*
X2328220Y816930D02*
X2353620D01*
X2328220D02*
Y818850D01*
X2340920Y816930D02*
Y830930D01*
X2340600Y1136930D02*
Y1150930D01*
X2327900Y1136930D02*
Y1138850D01*
Y1136930D02*
X2353300D01*
Y1138850D01*
Y1149010D02*
Y1150930D01*
X2327900D02*
X2353300D01*
X2327900Y1149010D02*
Y1150930D01*
Y1469010D02*
Y1470930D01*
X2353300D01*
Y1469010D02*
Y1470930D01*
Y1456930D02*
Y1458850D01*
X2327900Y1456930D02*
X2353300D01*
X2327900D02*
Y1458850D01*
X2340600Y1456930D02*
Y1470930D01*
D19*
X1974500Y239500D02*
X2034500D01*
Y117500D02*
Y239500D01*
X1979500Y97500D02*
Y117500D01*
X2029500Y97500D02*
Y117500D01*
X1974500D02*
X2034500D01*
X1979500Y97500D02*
X2029500D01*
X1974500Y117500D02*
Y239500D01*
X2479340Y200180D02*
X2479340Y140180D01*
X2479340Y200180D02*
X2601340Y200180D01*
X2601340Y145180D02*
X2621340D01*
X2601340Y195180D02*
X2621340D01*
X2601340Y200180D02*
X2601340Y140180D01*
X2621340Y195180D02*
X2621340Y145180D01*
X2479340Y140180D02*
X2601340Y140180D01*
X1805544Y117140D02*
Y239140D01*
X1810544Y97140D02*
X1860544D01*
X1805544Y117140D02*
X1865544Y117140D01*
X1860544Y117140D02*
X1860544Y97140D01*
X1810544D02*
X1810544Y117140D01*
X1865544D02*
Y239140D01*
X1805544D02*
X1865544D01*
X1664539Y117140D02*
Y239140D01*
X1669539Y97140D02*
X1719539D01*
X1664539Y117140D02*
X1724539D01*
X1719539Y117140D02*
X1719539Y97140D01*
X1669539D02*
X1669539Y117140D01*
X1724539D02*
Y239140D01*
X1664539D02*
X1724539D01*
X1521539Y117140D02*
Y239140D01*
X1526539Y97140D02*
X1576539D01*
X1521539Y117140D02*
X1581539Y117140D01*
X1576539Y97140D02*
Y117140D01*
X1526539Y97140D02*
Y117140D01*
X1581539Y117140D02*
Y239140D01*
X1521539D02*
X1581539D01*
X1464000Y1441772D02*
Y1563772D01*
X1409000Y1583772D02*
X1459000D01*
X1404000Y1563772D02*
X1464000D01*
X1409000D02*
Y1583772D01*
X1459000Y1563772D02*
Y1583772D01*
X1404000Y1441772D02*
Y1563772D01*
Y1441772D02*
X1464000D01*
X2479340Y244320D02*
X2601340Y244320D01*
X2621340Y299320D02*
X2621340Y249320D01*
X2601340Y304320D02*
X2601340Y244320D01*
X2601340Y299320D02*
X2621340D01*
X2601340Y249320D02*
X2621340D01*
X2479340Y304320D02*
X2601340Y304320D01*
X2479340Y304320D02*
X2479340Y244320D01*
X2479340Y1090140D02*
X2601340Y1090140D01*
X2621340Y1095140D02*
Y1145140D01*
X2601340Y1090140D02*
X2601340Y1150140D01*
X2601340Y1145140D02*
X2621340Y1145140D01*
X2601340Y1095140D02*
X2621340D01*
X2479340Y1150140D02*
X2601340D01*
X2479340D02*
X2479340Y1090140D01*
X2479340Y879320D02*
X2601340Y879320D01*
X2621340Y934320D02*
X2621340Y884320D01*
X2601340Y939320D02*
X2601340Y879320D01*
X2601340Y934320D02*
X2621340D01*
X2601340Y884320D02*
X2621340D01*
X2479340Y939320D02*
X2601340Y939320D01*
X2479340Y939320D02*
X2479340Y879320D01*
X2479340Y460220D02*
X2601340Y460220D01*
X2621340Y515220D02*
X2621340Y465220D01*
X2601340Y520220D02*
X2601340Y460220D01*
X2601340Y515220D02*
X2621340D01*
X2601340Y465220D02*
X2621340D01*
X2479340Y520220D02*
X2601340Y520220D01*
X2479340Y520220D02*
X2479340Y460220D01*
Y564360D02*
X2601340Y564360D01*
X2621340Y619360D02*
X2621340Y569360D01*
X2601340Y624360D02*
X2601340Y564360D01*
X2601340Y619360D02*
X2621340D01*
X2601340Y569360D02*
X2621340D01*
X2479340Y624360D02*
X2601340Y624360D01*
X2479340Y624360D02*
X2479340Y564360D01*
Y775180D02*
X2601340Y775180D01*
X2621340Y830180D02*
X2621340Y780180D01*
X2601340Y835180D02*
X2601340Y775180D01*
X2601340Y830180D02*
X2621340D01*
X2601340Y780180D02*
X2621340D01*
X2479340Y835180D02*
X2601340Y835180D01*
X2479340Y835180D02*
X2479340Y775180D01*
X2479340Y1199360D02*
X2601340Y1199360D01*
X2621340Y1254360D02*
X2621340Y1204360D01*
X2601340Y1259360D02*
X2601340Y1199360D01*
X2601340Y1254360D02*
X2621340D01*
X2601340Y1204360D02*
X2621340D01*
X2479340Y1259360D02*
X2601340Y1259360D01*
X2479340Y1259360D02*
X2479340Y1199360D01*
D20*
X1733888Y1053402D02*
G03*
X1733888Y1059498I0J3048D01*
G01*
X1734142Y846392D02*
G03*
X1734142Y852488I0J3048D01*
G01*
X1733888Y652082D02*
G03*
X1733888Y658178I0J3048D01*
G01*
Y1033844D02*
X1735666D01*
X1830154Y1079056D02*
X1831932D01*
Y1033844D02*
Y1079056D01*
X1830154Y1033844D02*
X1831932D01*
X1733888D02*
Y1053402D01*
Y1059498D01*
Y1079056D01*
X1735666D01*
X1734142Y872046D02*
X1735920D01*
X1734142Y852488D02*
Y872046D01*
Y846392D02*
Y852488D01*
Y826834D02*
Y846392D01*
X1830408Y826834D02*
X1832186D01*
Y872046D01*
X1830408D02*
X1832186D01*
X1734142Y826834D02*
X1735920D01*
X1733888Y677736D02*
X1735666D01*
X1733888Y658178D02*
Y677736D01*
Y652082D02*
Y658178D01*
Y632524D02*
Y652082D01*
X1830154Y632524D02*
X1831932D01*
Y677736D01*
X1830154D02*
X1831932D01*
X1733888Y632524D02*
X1735666D01*
X1432306Y959813D02*
X1431341Y960778D01*
X1429411D01*
X1428446Y959813D01*
Y958848D01*
X1429411Y957884D01*
X1430376D01*
X1429411D01*
X1428446Y956919D01*
Y955954D01*
X1429411Y954989D01*
X1431341D01*
X1432306Y955954D01*
X1426517Y960778D02*
Y956919D01*
X1424587Y954989D01*
X1422657Y956919D01*
Y960778D01*
X1420727Y959813D02*
X1419763Y960778D01*
X1417833D01*
X1416868Y959813D01*
Y958848D01*
X1417833Y957884D01*
X1418798D01*
X1417833D01*
X1416868Y956919D01*
Y955954D01*
X1417833Y954989D01*
X1419763D01*
X1420727Y955954D01*
X1414938Y954024D02*
X1411078D01*
X1405289Y959813D02*
X1406254Y960778D01*
X1408184D01*
X1409149Y959813D01*
Y955954D01*
X1408184Y954989D01*
X1406254D01*
X1405289Y955954D01*
X1400465Y960778D02*
X1402395D01*
X1403359Y959813D01*
Y955954D01*
X1402395Y954989D01*
X1400465D01*
X1399500Y955954D01*
Y959813D01*
X1400465Y960778D01*
X1397570D02*
Y954989D01*
X1394675D01*
X1393710Y955954D01*
Y959813D01*
X1394675Y960778D01*
X1397570D01*
X1387921D02*
X1391781D01*
Y954989D01*
X1387921D01*
X1391781Y957884D02*
X1389851D01*
X1382132Y959813D02*
X1383097Y960778D01*
X1385027D01*
X1385991Y959813D01*
Y955954D01*
X1385027Y954989D01*
X1383097D01*
X1382132Y955954D01*
X1480566Y820113D02*
X1479601Y821078D01*
X1477671D01*
X1476706Y820113D01*
Y819148D01*
X1477671Y818184D01*
X1478636D01*
X1477671D01*
X1476706Y817219D01*
Y816254D01*
X1477671Y815289D01*
X1479601D01*
X1480566Y816254D01*
X1474777Y821078D02*
Y817219D01*
X1472847Y815289D01*
X1470917Y817219D01*
Y821078D01*
X1468987Y820113D02*
X1468022Y821078D01*
X1466093D01*
X1465128Y820113D01*
Y819148D01*
X1466093Y818184D01*
X1467058D01*
X1466093D01*
X1465128Y817219D01*
Y816254D01*
X1466093Y815289D01*
X1468022D01*
X1468987Y816254D01*
X1463198Y814324D02*
X1459339D01*
X1457409Y821078D02*
Y815289D01*
X1454514D01*
X1453549Y816254D01*
Y820113D01*
X1454514Y821078D01*
X1457409D01*
D155*
X1775290Y265620D02*
G03*
X1775290Y264620I0J-500D01*
G01*
D02*
G03*
X1775290Y265620I0J500D01*
G01*
X1630510Y264620D02*
G03*
X1630510Y265620I0J500D01*
G01*
D02*
G03*
X1630510Y264620I0J-500D01*
G01*
X1702900D02*
G03*
X1702900Y265620I0J500D01*
G01*
D02*
G03*
X1702900Y264620I0J-500D01*
G01*
X1695170Y543390D02*
G03*
X1695170Y543390I-500J0D01*
G01*
D156*
X2322407Y523578D02*
X2322830Y524001D01*
X2323677D01*
X2324100Y523578D01*
Y521885D01*
X2323677Y521462D01*
X2322830D01*
X2322407Y521885D01*
X2321561Y521462D02*
X2320714D01*
X2321138D01*
Y524001D01*
X2321561Y523578D01*
X2319445Y521039D02*
X2317752D01*
X2316906Y524001D02*
X2315213Y521462D01*
Y524001D02*
X2316906Y521462D01*
X2314366Y524001D02*
Y521462D01*
X2312674D01*
X2311827D02*
Y524001D01*
X2310558D01*
X2310134Y523578D01*
Y522732D01*
X2310558Y522308D01*
X2311827D01*
X2310981D02*
X2310134Y521462D01*
X2309288D02*
X2308442D01*
X2308865D01*
Y524001D01*
X2309288Y523578D01*
X2342981Y501226D02*
X2343404Y501649D01*
X2344251D01*
X2344674Y501226D01*
Y499533D01*
X2344251Y499110D01*
X2343404D01*
X2342981Y499533D01*
X2340442Y499110D02*
X2342135D01*
X2340442Y500803D01*
Y501226D01*
X2340865Y501649D01*
X2341712D01*
X2342135Y501226D01*
X2339596Y498687D02*
X2337903D01*
X2337056Y501649D02*
X2335364Y499110D01*
Y501649D02*
X2337056Y499110D01*
X2334517Y501649D02*
Y499110D01*
X2332825D01*
X2331978D02*
Y501649D01*
X2330708D01*
X2330285Y501226D01*
Y500380D01*
X2330708Y499956D01*
X2331978D01*
X2331132D02*
X2330285Y499110D01*
X2329439D02*
X2328593D01*
X2329016D01*
Y501649D01*
X2329439Y501226D01*
X2282021Y332062D02*
X2282444Y332485D01*
X2283291D01*
X2283714Y332062D01*
Y330369D01*
X2283291Y329946D01*
X2282444D01*
X2282021Y330369D01*
X2281175Y332062D02*
X2280752Y332485D01*
X2279905D01*
X2279482Y332062D01*
Y331639D01*
X2279905Y331216D01*
X2280328D01*
X2279905D01*
X2279482Y330792D01*
Y330369D01*
X2279905Y329946D01*
X2280752D01*
X2281175Y330369D01*
X2278636Y329523D02*
X2276943D01*
X2276096Y332485D02*
X2274404Y329946D01*
Y332485D02*
X2276096Y329946D01*
X2273557Y332485D02*
Y329946D01*
X2271864D01*
X2271018D02*
Y332485D01*
X2269749D01*
X2269325Y332062D01*
Y331216D01*
X2269749Y330792D01*
X2271018D01*
X2270172D02*
X2269325Y329946D01*
X2268479D02*
X2267632D01*
X2268056D01*
Y332485D01*
X2268479Y332062D01*
X2198201Y471762D02*
X2198624Y472185D01*
X2199471D01*
X2199894Y471762D01*
Y470069D01*
X2199471Y469646D01*
X2198624D01*
X2198201Y470069D01*
X2196085Y469646D02*
Y472185D01*
X2197355Y470916D01*
X2195662D01*
X2194816Y469223D02*
X2193123D01*
X2192276Y472185D02*
X2190584Y469646D01*
Y472185D02*
X2192276Y469646D01*
X2189737Y472185D02*
Y469646D01*
X2188044D01*
X2187198D02*
Y472185D01*
X2185928D01*
X2185505Y471762D01*
Y470916D01*
X2185928Y470492D01*
X2187198D01*
X2186352D02*
X2185505Y469646D01*
X2184659D02*
X2183813D01*
X2184236D01*
Y472185D01*
X2184659Y471762D01*
X2299801Y484462D02*
X2300224Y484885D01*
X2301071D01*
X2301494Y484462D01*
Y482769D01*
X2301071Y482346D01*
X2300224D01*
X2299801Y482769D01*
X2297262Y484885D02*
X2298955D01*
Y483616D01*
X2298108Y484039D01*
X2297685D01*
X2297262Y483616D01*
Y482769D01*
X2297685Y482346D01*
X2298532D01*
X2298955Y482769D01*
X2296416Y481923D02*
X2294723D01*
X2293876Y484885D02*
X2292184Y482346D01*
Y484885D02*
X2293876Y482346D01*
X2291337Y484885D02*
Y482346D01*
X2289644D01*
X2288798D02*
Y484885D01*
X2287529D01*
X2287105Y484462D01*
Y483616D01*
X2287529Y483192D01*
X2288798D01*
X2287952D02*
X2287105Y482346D01*
X2286259D02*
X2285412D01*
X2285836D01*
Y484885D01*
X2286259Y484462D01*
X2263479D02*
X2263902Y484885D01*
X2264749D01*
X2265172Y484462D01*
Y482769D01*
X2264749Y482346D01*
X2263902D01*
X2263479Y482769D01*
X2260940Y484885D02*
X2261786Y484462D01*
X2262633Y483616D01*
Y482769D01*
X2262210Y482346D01*
X2261363D01*
X2260940Y482769D01*
Y483192D01*
X2261363Y483616D01*
X2262633D01*
X2260094Y481923D02*
X2258401D01*
X2257554Y484885D02*
X2255862Y482346D01*
Y484885D02*
X2257554Y482346D01*
X2255015Y484885D02*
Y482346D01*
X2253322D01*
X2252476D02*
Y484885D01*
X2251207D01*
X2250783Y484462D01*
Y483616D01*
X2251207Y483192D01*
X2252476D01*
X2251630D02*
X2250783Y482346D01*
X2249937D02*
X2249091D01*
X2249514D01*
Y484885D01*
X2249937Y484462D01*
X2270845Y526880D02*
X2271268Y527303D01*
X2272115D01*
X2272538Y526880D01*
Y525187D01*
X2272115Y524764D01*
X2271268D01*
X2270845Y525187D01*
X2269999Y527303D02*
X2268306D01*
Y526880D01*
X2269999Y525187D01*
Y524764D01*
X2267460Y524341D02*
X2265767D01*
X2264920Y527303D02*
X2263228Y524764D01*
Y527303D02*
X2264920Y524764D01*
X2262381Y527303D02*
Y524764D01*
X2260688D01*
X2259842D02*
Y527303D01*
X2258573D01*
X2258149Y526880D01*
Y526034D01*
X2258573Y525610D01*
X2259842D01*
X2258996D02*
X2258149Y524764D01*
X2257303D02*
X2256456D01*
X2256880D01*
Y527303D01*
X2257303Y526880D01*
X2266781Y362542D02*
X2267204Y362965D01*
X2268051D01*
X2268474Y362542D01*
Y360849D01*
X2268051Y360426D01*
X2267204D01*
X2266781Y360849D01*
X2265935Y362542D02*
X2265512Y362965D01*
X2264665D01*
X2264242Y362542D01*
Y362119D01*
X2264665Y361696D01*
X2264242Y361272D01*
Y360849D01*
X2264665Y360426D01*
X2265512D01*
X2265935Y360849D01*
Y361272D01*
X2265512Y361696D01*
X2265935Y362119D01*
Y362542D01*
X2265512Y361696D02*
X2264665D01*
X2263396Y360003D02*
X2261703D01*
X2260856Y362965D02*
X2259164Y360426D01*
Y362965D02*
X2260856Y360426D01*
X2258317Y362965D02*
Y360426D01*
X2256624D01*
X2255778D02*
Y362965D01*
X2254509D01*
X2254085Y362542D01*
Y361696D01*
X2254509Y361272D01*
X2255778D01*
X2254932D02*
X2254085Y360426D01*
X2253239D02*
X2252392D01*
X2252816D01*
Y362965D01*
X2253239Y362542D01*
X2166705Y396578D02*
X2167128Y397001D01*
X2167975D01*
X2168398Y396578D01*
Y394885D01*
X2167975Y394462D01*
X2167128D01*
X2166705Y394885D01*
X2165859D02*
X2165436Y394462D01*
X2164589D01*
X2164166Y394885D01*
Y396578D01*
X2164589Y397001D01*
X2165436D01*
X2165859Y396578D01*
Y396155D01*
X2165436Y395732D01*
X2164166D01*
X2163320Y394039D02*
X2161627D01*
X2160780Y397001D02*
X2159088Y394462D01*
Y397001D02*
X2160780Y394462D01*
X2158241Y397001D02*
Y394462D01*
X2156548D01*
X2155702D02*
Y397001D01*
X2154433D01*
X2154009Y396578D01*
Y395732D01*
X2154433Y395308D01*
X2155702D01*
X2154856D02*
X2154009Y394462D01*
X2153163D02*
X2152316D01*
X2152740D01*
Y397001D01*
X2153163Y396578D01*
X2309961Y453474D02*
X2310384Y453897D01*
X2311231D01*
X2311654Y453474D01*
Y451781D01*
X2311231Y451358D01*
X2310384D01*
X2309961Y451781D01*
X2309115Y451358D02*
X2308268D01*
X2308692D01*
Y453897D01*
X2309115Y453474D01*
X2306999D02*
X2306576Y453897D01*
X2305729D01*
X2305306Y453474D01*
Y451781D01*
X2305729Y451358D01*
X2306576D01*
X2306999Y451781D01*
Y453474D01*
X2304460Y450935D02*
X2302767D01*
X2301920Y453897D02*
X2300228Y451358D01*
Y453897D02*
X2301920Y451358D01*
X2299381Y453897D02*
Y451358D01*
X2297688D01*
X2296842D02*
Y453897D01*
X2295573D01*
X2295149Y453474D01*
Y452628D01*
X2295573Y452204D01*
X2296842D01*
X2295996D02*
X2295149Y451358D01*
X2294303D02*
X2293457D01*
X2293880D01*
Y453897D01*
X2294303Y453474D01*
X2240365Y437218D02*
X2240788Y437641D01*
X2241635D01*
X2242058Y437218D01*
Y435525D01*
X2241635Y435102D01*
X2240788D01*
X2240365Y435525D01*
X2239519Y435102D02*
X2238672D01*
X2239096D01*
Y437641D01*
X2239519Y437218D01*
X2237403Y435102D02*
X2236556D01*
X2236980D01*
Y437641D01*
X2237403Y437218D01*
X2235287Y434679D02*
X2233594D01*
X2232748Y437641D02*
X2231055Y435102D01*
Y437641D02*
X2232748Y435102D01*
X2230208Y437641D02*
Y435102D01*
X2228516D01*
X2227669D02*
Y437641D01*
X2226400D01*
X2225977Y437218D01*
Y436372D01*
X2226400Y435948D01*
X2227669D01*
X2226823D02*
X2225977Y435102D01*
X2225130D02*
X2224284D01*
X2224707D01*
Y437641D01*
X2225130Y437218D01*
X2252980Y331215D02*
Y328676D01*
X2251710D01*
X2251287Y329099D01*
Y330792D01*
X2251710Y331215D01*
X2252980D01*
X2250441Y328676D02*
X2249594D01*
X2250018D01*
Y331215D01*
X2250441Y330792D01*
X2248325Y328253D02*
X2246632D01*
X2245786Y331215D02*
X2244093Y328676D01*
Y331215D02*
X2245786Y328676D01*
X2243246Y331215D02*
Y328676D01*
X2241554D01*
X2240707D02*
Y331215D01*
X2239438D01*
X2239014Y330792D01*
Y329946D01*
X2239438Y329522D01*
X2240707D01*
X2239861D02*
X2239014Y328676D01*
X2238168D02*
X2237322D01*
X2237745D01*
Y331215D01*
X2238168Y330792D01*
X2298446Y314197D02*
Y311658D01*
X2297176D01*
X2296753Y312081D01*
Y313774D01*
X2297176Y314197D01*
X2298446D01*
X2294214Y311658D02*
X2295907D01*
X2294214Y313351D01*
Y313774D01*
X2294637Y314197D01*
X2295484D01*
X2295907Y313774D01*
X2293368Y311235D02*
X2291675D01*
X2290828Y314197D02*
X2289136Y311658D01*
Y314197D02*
X2290828Y311658D01*
X2288289Y314197D02*
Y311658D01*
X2286597D01*
X2285750D02*
Y314197D01*
X2284480D01*
X2284057Y313774D01*
Y312928D01*
X2284480Y312504D01*
X2285750D01*
X2284904D02*
X2284057Y311658D01*
X2283211D02*
X2282365D01*
X2282788D01*
Y314197D01*
X2283211Y313774D01*
X2298954Y439673D02*
X2298108D01*
X2298531D01*
Y437134D01*
X2298954D01*
X2298108D01*
X2295145Y439250D02*
X2295568Y439673D01*
X2296415D01*
X2296838Y439250D01*
Y437557D01*
X2296415Y437134D01*
X2295568D01*
X2295145Y437557D01*
X2294299Y437134D02*
X2293452D01*
X2293876D01*
Y439673D01*
X2294299Y439250D01*
X2292183Y436711D02*
X2290490D01*
X2289644Y439673D02*
X2287951Y437134D01*
Y439673D02*
X2289644Y437134D01*
X2287104Y439673D02*
Y437134D01*
X2285412D01*
X2284565D02*
Y439673D01*
X2283296D01*
X2282872Y439250D01*
Y438404D01*
X2283296Y437980D01*
X2284565D01*
X2283719D02*
X2282872Y437134D01*
X2282026D02*
X2281180D01*
X2281603D01*
Y439673D01*
X2282026Y439250D01*
X2190378Y463499D02*
X2187839D01*
Y462230D01*
X2188262Y461806D01*
X2189108D01*
X2189532Y462230D01*
Y463499D01*
Y462653D02*
X2190378Y461806D01*
Y460960D02*
Y460114D01*
Y460537D01*
X2187839D01*
X2188262Y460960D01*
X2190801Y458844D02*
Y457151D01*
X2187839Y456305D02*
X2190378Y454612D01*
X2187839D02*
X2190378Y456305D01*
X2187839Y453766D02*
X2190378D01*
Y452073D01*
Y451227D02*
X2187839D01*
Y449957D01*
X2188262Y449534D01*
X2189108D01*
X2189532Y449957D01*
Y451227D01*
Y450380D02*
X2190378Y449534D01*
Y448687D02*
Y447841D01*
Y448264D01*
X2187839D01*
X2188262Y448687D01*
X2301748Y499618D02*
Y502157D01*
X2300478D01*
X2300055Y501734D01*
Y500888D01*
X2300478Y500464D01*
X2301748D01*
X2300902D02*
X2300055Y499618D01*
X2297516D02*
X2299209D01*
X2297516Y501311D01*
Y501734D01*
X2297939Y502157D01*
X2298786D01*
X2299209Y501734D01*
X2296670Y499195D02*
X2294977D01*
X2294130Y502157D02*
X2292438Y499618D01*
Y502157D02*
X2294130Y499618D01*
X2291591Y502157D02*
Y499618D01*
X2289899D01*
X2289052D02*
Y502157D01*
X2287782D01*
X2287359Y501734D01*
Y500888D01*
X2287782Y500464D01*
X2289052D01*
X2288206D02*
X2287359Y499618D01*
X2286513D02*
X2285667D01*
X2286090D01*
Y502157D01*
X2286513Y501734D01*
X2216150Y470916D02*
Y473455D01*
X2214880D01*
X2214457Y473032D01*
Y472186D01*
X2214880Y471762D01*
X2216150D01*
X2215304D02*
X2214457Y470916D01*
X2213611Y473032D02*
X2213188Y473455D01*
X2212341D01*
X2211918Y473032D01*
Y472609D01*
X2212341Y472186D01*
X2212764D01*
X2212341D01*
X2211918Y471762D01*
Y471339D01*
X2212341Y470916D01*
X2213188D01*
X2213611Y471339D01*
X2211072Y470493D02*
X2209379D01*
X2208532Y473455D02*
X2206840Y470916D01*
Y473455D02*
X2208532Y470916D01*
X2205993Y473455D02*
Y470916D01*
X2204301D01*
X2203454D02*
Y473455D01*
X2202184D01*
X2201761Y473032D01*
Y472186D01*
X2202184Y471762D01*
X2203454D01*
X2202608D02*
X2201761Y470916D01*
X2200915D02*
X2200069D01*
X2200492D01*
Y473455D01*
X2200915Y473032D01*
X2353564Y517906D02*
Y520445D01*
X2352294D01*
X2351871Y520022D01*
Y519176D01*
X2352294Y518752D01*
X2353564D01*
X2352718D02*
X2351871Y517906D01*
X2349755D02*
Y520445D01*
X2351025Y519176D01*
X2349332D01*
X2348486Y517483D02*
X2346793D01*
X2345946Y520445D02*
X2344254Y517906D01*
Y520445D02*
X2345946Y517906D01*
X2343407Y520445D02*
Y517906D01*
X2341714D01*
X2340868D02*
Y520445D01*
X2339599D01*
X2339175Y520022D01*
Y519176D01*
X2339599Y518752D01*
X2340868D01*
X2340022D02*
X2339175Y517906D01*
X2338329D02*
X2337482D01*
X2337906D01*
Y520445D01*
X2338329Y520022D01*
X2283968Y344678D02*
Y347217D01*
X2282698D01*
X2282275Y346794D01*
Y345948D01*
X2282698Y345524D01*
X2283968D01*
X2283122D02*
X2282275Y344678D01*
X2279736Y347217D02*
X2281429D01*
Y345948D01*
X2280582Y346371D01*
X2280159D01*
X2279736Y345948D01*
Y345101D01*
X2280159Y344678D01*
X2281006D01*
X2281429Y345101D01*
X2278890Y344255D02*
X2277197D01*
X2276350Y347217D02*
X2274658Y344678D01*
Y347217D02*
X2276350Y344678D01*
X2273811Y347217D02*
Y344678D01*
X2272119D01*
X2271272D02*
Y347217D01*
X2270002D01*
X2269579Y346794D01*
Y345948D01*
X2270002Y345524D01*
X2271272D01*
X2270426D02*
X2269579Y344678D01*
X2268733D02*
X2267887D01*
X2268310D01*
Y347217D01*
X2268733Y346794D01*
X2200402Y452628D02*
Y455167D01*
X2199132D01*
X2198709Y454744D01*
Y453898D01*
X2199132Y453474D01*
X2200402D01*
X2199556D02*
X2198709Y452628D01*
X2196170Y455167D02*
X2197016Y454744D01*
X2197863Y453898D01*
Y453051D01*
X2197440Y452628D01*
X2196593D01*
X2196170Y453051D01*
Y453474D01*
X2196593Y453898D01*
X2197863D01*
X2195324Y452205D02*
X2193631D01*
X2192784Y455167D02*
X2191092Y452628D01*
Y455167D02*
X2192784Y452628D01*
X2190245Y455167D02*
Y452628D01*
X2188553D01*
X2187706D02*
Y455167D01*
X2186436D01*
X2186013Y454744D01*
Y453898D01*
X2186436Y453474D01*
X2187706D01*
X2186860D02*
X2186013Y452628D01*
X2185167D02*
X2184321D01*
X2184744D01*
Y455167D01*
X2185167Y454744D01*
X2266950Y499618D02*
Y502157D01*
X2265680D01*
X2265257Y501734D01*
Y500888D01*
X2265680Y500464D01*
X2266950D01*
X2266104D02*
X2265257Y499618D01*
X2264411Y502157D02*
X2262718D01*
Y501734D01*
X2264411Y500041D01*
Y499618D01*
X2261872Y499195D02*
X2260179D01*
X2259332Y502157D02*
X2257640Y499618D01*
Y502157D02*
X2259332Y499618D01*
X2256793Y502157D02*
Y499618D01*
X2255101D01*
X2254254D02*
Y502157D01*
X2252984D01*
X2252561Y501734D01*
Y500888D01*
X2252984Y500464D01*
X2254254D01*
X2253408D02*
X2252561Y499618D01*
X2251715D02*
X2250869D01*
X2251292D01*
Y502157D01*
X2251715Y501734D01*
X2266188Y466598D02*
Y469137D01*
X2264918D01*
X2264495Y468714D01*
Y467868D01*
X2264918Y467444D01*
X2266188D01*
X2265342D02*
X2264495Y466598D01*
X2263649Y468714D02*
X2263226Y469137D01*
X2262379D01*
X2261956Y468714D01*
Y468291D01*
X2262379Y467868D01*
X2261956Y467444D01*
Y467021D01*
X2262379Y466598D01*
X2263226D01*
X2263649Y467021D01*
Y467444D01*
X2263226Y467868D01*
X2263649Y468291D01*
Y468714D01*
X2263226Y467868D02*
X2262379D01*
X2261110Y466175D02*
X2259417D01*
X2258570Y469137D02*
X2256878Y466598D01*
Y469137D02*
X2258570Y466598D01*
X2256031Y469137D02*
Y466598D01*
X2254339D01*
X2253492D02*
Y469137D01*
X2252222D01*
X2251799Y468714D01*
Y467868D01*
X2252222Y467444D01*
X2253492D01*
X2252646D02*
X2251799Y466598D01*
X2250953D02*
X2250107D01*
X2250530D01*
Y469137D01*
X2250953Y468714D01*
X2299970Y344678D02*
Y347217D01*
X2298700D01*
X2298277Y346794D01*
Y345948D01*
X2298700Y345524D01*
X2299970D01*
X2299124D02*
X2298277Y344678D01*
X2297431Y345101D02*
X2297008Y344678D01*
X2296161D01*
X2295738Y345101D01*
Y346794D01*
X2296161Y347217D01*
X2297008D01*
X2297431Y346794D01*
Y346371D01*
X2297008Y345948D01*
X2295738D01*
X2294892Y344255D02*
X2293199D01*
X2292352Y347217D02*
X2290660Y344678D01*
Y347217D02*
X2292352Y344678D01*
X2289813Y347217D02*
Y344678D01*
X2288121D01*
X2287274D02*
Y347217D01*
X2286004D01*
X2285581Y346794D01*
Y345948D01*
X2286004Y345524D01*
X2287274D01*
X2286428D02*
X2285581Y344678D01*
X2284735D02*
X2283889D01*
X2284312D01*
Y347217D01*
X2284735Y346794D01*
X2203450Y358648D02*
Y361187D01*
X2202180D01*
X2201757Y360764D01*
Y359918D01*
X2202180Y359494D01*
X2203450D01*
X2202604D02*
X2201757Y358648D01*
X2200911D02*
X2200064D01*
X2200488D01*
Y361187D01*
X2200911Y360764D01*
X2198795D02*
X2198372Y361187D01*
X2197525D01*
X2197102Y360764D01*
Y359071D01*
X2197525Y358648D01*
X2198372D01*
X2198795Y359071D01*
Y360764D01*
X2196256Y358225D02*
X2194563D01*
X2193716Y361187D02*
X2192024Y358648D01*
Y361187D02*
X2193716Y358648D01*
X2191177Y361187D02*
Y358648D01*
X2189485D01*
X2188638D02*
Y361187D01*
X2187368D01*
X2186945Y360764D01*
Y359918D01*
X2187368Y359494D01*
X2188638D01*
X2187792D02*
X2186945Y358648D01*
X2186099D02*
X2185253D01*
X2185676D01*
Y361187D01*
X2186099Y360764D01*
X2301748Y466598D02*
Y469137D01*
X2300478D01*
X2300055Y468714D01*
Y467868D01*
X2300478Y467444D01*
X2301748D01*
X2300902D02*
X2300055Y466598D01*
X2299209D02*
X2298362D01*
X2298786D01*
Y469137D01*
X2299209Y468714D01*
X2297093Y466598D02*
X2296246D01*
X2296670D01*
Y469137D01*
X2297093Y468714D01*
X2294977Y466175D02*
X2293284D01*
X2292438Y469137D02*
X2290745Y466598D01*
Y469137D02*
X2292438Y466598D01*
X2289899Y469137D02*
Y466598D01*
X2288206D01*
X2287359D02*
Y469137D01*
X2286090D01*
X2285667Y468714D01*
Y467868D01*
X2286090Y467444D01*
X2287359D01*
X2286513D02*
X2285667Y466598D01*
X2284820D02*
X2283974D01*
X2284397D01*
Y469137D01*
X2284820Y468714D01*
X2203789Y332824D02*
X2204212Y333247D01*
X2205059D01*
X2205482Y332824D01*
Y331131D01*
X2205059Y330708D01*
X2204212D01*
X2203789Y331131D01*
X2202943Y330708D02*
X2202096D01*
X2202520D01*
Y333247D01*
X2202943Y332824D01*
X2200827D02*
X2200404Y333247D01*
X2199557D01*
X2199134Y332824D01*
Y332401D01*
X2199557Y331978D01*
X2199980D01*
X2199557D01*
X2199134Y331554D01*
Y331131D01*
X2199557Y330708D01*
X2200404D01*
X2200827Y331131D01*
X2198288Y330285D02*
X2196595D01*
X2195748Y333247D02*
X2194056Y330708D01*
Y333247D02*
X2195748Y330708D01*
X2193209Y333247D02*
Y330708D01*
X2191517D01*
X2190670D02*
Y333247D01*
X2189400D01*
X2188977Y332824D01*
Y331978D01*
X2189400Y331554D01*
X2190670D01*
X2189824D02*
X2188977Y330708D01*
X2188131D02*
X2187285D01*
X2187708D01*
Y333247D01*
X2188131Y332824D01*
X2227665Y501480D02*
X2228088Y501903D01*
X2228935D01*
X2229358Y501480D01*
Y499787D01*
X2228935Y499364D01*
X2228088D01*
X2227665Y499787D01*
X2226819Y499364D02*
X2225972D01*
X2226396D01*
Y501903D01*
X2226819Y501480D01*
X2223433Y499364D02*
Y501903D01*
X2224703Y500634D01*
X2223010D01*
X2222164Y498941D02*
X2220471D01*
X2219624Y501903D02*
X2217932Y499364D01*
Y501903D02*
X2219624Y499364D01*
X2217085Y501903D02*
Y499364D01*
X2215392D01*
X2214546D02*
Y501903D01*
X2213277D01*
X2212853Y501480D01*
Y500634D01*
X2213277Y500210D01*
X2214546D01*
X2213700D02*
X2212853Y499364D01*
X2212007D02*
X2211160D01*
X2211584D01*
Y501903D01*
X2212007Y501480D01*
X2225294Y439673D02*
X2224448D01*
X2224871D01*
Y437134D01*
X2225294D01*
X2224448D01*
X2221485Y439250D02*
X2221908Y439673D01*
X2222755D01*
X2223178Y439250D01*
Y437557D01*
X2222755Y437134D01*
X2221908D01*
X2221485Y437557D01*
X2218946Y437134D02*
X2220639D01*
X2218946Y438827D01*
Y439250D01*
X2219369Y439673D01*
X2220216D01*
X2220639Y439250D01*
X2218100Y436711D02*
X2216407D01*
X2215560Y439673D02*
X2213868Y437134D01*
Y439673D02*
X2215560Y437134D01*
X2213021Y439673D02*
Y437134D01*
X2211328D01*
X2210482D02*
Y439673D01*
X2209212D01*
X2208789Y439250D01*
Y438404D01*
X2209212Y437980D01*
X2210482D01*
X2209636D02*
X2208789Y437134D01*
X2207943D02*
X2207097D01*
X2207520D01*
Y439673D01*
X2207943Y439250D01*
X2228850Y470916D02*
Y473455D01*
X2227580D01*
X2227157Y473032D01*
Y472186D01*
X2227580Y471762D01*
X2228850D01*
X2228004D02*
X2227157Y470916D01*
X2226311D02*
X2225464D01*
X2225888D01*
Y473455D01*
X2226311Y473032D01*
X2224195D02*
X2223772Y473455D01*
X2222925D01*
X2222502Y473032D01*
Y472609D01*
X2222925Y472186D01*
X2223348D01*
X2222925D01*
X2222502Y471762D01*
Y471339D01*
X2222925Y470916D01*
X2223772D01*
X2224195Y471339D01*
X2221656Y470493D02*
X2219963D01*
X2219117Y473455D02*
X2217424Y470916D01*
Y473455D02*
X2219117Y470916D01*
X2216577Y473455D02*
Y470916D01*
X2214884D01*
X2214038D02*
Y473455D01*
X2212769D01*
X2212345Y473032D01*
Y472186D01*
X2212769Y471762D01*
X2214038D01*
X2213192D02*
X2212345Y470916D01*
X2211499D02*
X2210652D01*
X2211076D01*
Y473455D01*
X2211499Y473032D01*
X2223770Y359918D02*
Y362457D01*
X2222500D01*
X2222077Y362034D01*
Y361188D01*
X2222500Y360764D01*
X2223770D01*
X2222924D02*
X2222077Y359918D01*
X2221231D02*
X2220384D01*
X2220808D01*
Y362457D01*
X2221231Y362034D01*
X2219115Y362457D02*
X2217422D01*
Y362034D01*
X2219115Y360341D01*
Y359918D01*
X2216576Y359495D02*
X2214883D01*
X2214037Y362457D02*
X2212344Y359918D01*
Y362457D02*
X2214037Y359918D01*
X2211497Y362457D02*
Y359918D01*
X2209805D01*
X2208958D02*
Y362457D01*
X2207688D01*
X2207265Y362034D01*
Y361188D01*
X2207688Y360764D01*
X2208958D01*
X2208112D02*
X2207265Y359918D01*
X2206419D02*
X2205573D01*
X2205996D01*
Y362457D01*
X2206419Y362034D01*
X2204212Y309118D02*
Y311657D01*
X2202942D01*
X2202519Y311234D01*
Y310388D01*
X2202942Y309964D01*
X2204212D01*
X2203366D02*
X2202519Y309118D01*
X2201673D02*
X2200826D01*
X2201250D01*
Y311657D01*
X2201673Y311234D01*
X2199557D02*
X2199134Y311657D01*
X2198287D01*
X2197864Y311234D01*
Y310811D01*
X2198287Y310388D01*
X2197864Y309964D01*
Y309541D01*
X2198287Y309118D01*
X2199134D01*
X2199557Y309541D01*
Y309964D01*
X2199134Y310388D01*
X2199557Y310811D01*
Y311234D01*
X2199134Y310388D02*
X2198287D01*
X2197018Y308695D02*
X2195325D01*
X2194478Y311657D02*
X2192786Y309118D01*
Y311657D02*
X2194478Y309118D01*
X2191939Y311657D02*
Y309118D01*
X2190246D01*
X2189400D02*
Y311657D01*
X2188130D01*
X2187707Y311234D01*
Y310388D01*
X2188130Y309964D01*
X2189400D01*
X2188554D02*
X2187707Y309118D01*
X2186861D02*
X2186015D01*
X2186438D01*
Y311657D01*
X2186861Y311234D01*
X2239010Y359918D02*
Y362457D01*
X2237740D01*
X2237317Y362034D01*
Y361188D01*
X2237740Y360764D01*
X2239010D01*
X2238164D02*
X2237317Y359918D01*
X2236471D02*
X2235624D01*
X2236048D01*
Y362457D01*
X2236471Y362034D01*
X2234355Y360341D02*
X2233932Y359918D01*
X2233085D01*
X2232662Y360341D01*
Y362034D01*
X2233085Y362457D01*
X2233932D01*
X2234355Y362034D01*
Y361611D01*
X2233932Y361188D01*
X2232662D01*
X2231816Y359495D02*
X2230123D01*
X2229276Y362457D02*
X2227584Y359918D01*
Y362457D02*
X2229276Y359918D01*
X2226737Y362457D02*
Y359918D01*
X2225045D01*
X2224198D02*
Y362457D01*
X2222928D01*
X2222505Y362034D01*
Y361188D01*
X2222928Y360764D01*
X2224198D01*
X2223352D02*
X2222505Y359918D01*
X2221659D02*
X2220813D01*
X2221236D01*
Y362457D01*
X2221659Y362034D01*
X2203450Y344678D02*
Y347217D01*
X2202180D01*
X2201757Y346794D01*
Y345948D01*
X2202180Y345524D01*
X2203450D01*
X2202604D02*
X2201757Y344678D01*
X2199218D02*
X2200911D01*
X2199218Y346371D01*
Y346794D01*
X2199641Y347217D01*
X2200488D01*
X2200911Y346794D01*
X2198372D02*
X2197948Y347217D01*
X2197102D01*
X2196679Y346794D01*
Y345101D01*
X2197102Y344678D01*
X2197948D01*
X2198372Y345101D01*
Y346794D01*
X2195832Y344255D02*
X2194140D01*
X2193293Y347217D02*
X2191600Y344678D01*
Y347217D02*
X2193293Y344678D01*
X2190754Y347217D02*
Y344678D01*
X2189061D01*
X2188215D02*
Y347217D01*
X2186945D01*
X2186522Y346794D01*
Y345948D01*
X2186945Y345524D01*
X2188215D01*
X2187368D02*
X2186522Y344678D01*
X2185676D02*
X2184829D01*
X2185253D01*
Y347217D01*
X2185676Y346794D01*
X2322915Y843618D02*
X2323338Y844041D01*
X2324185D01*
X2324608Y843618D01*
Y841925D01*
X2324185Y841502D01*
X2323338D01*
X2322915Y841925D01*
X2322069Y841502D02*
X2321222D01*
X2321646D01*
Y844041D01*
X2322069Y843618D01*
X2319953Y841079D02*
X2318260D01*
X2317414Y844041D02*
X2315721Y841502D01*
Y844041D02*
X2317414Y841502D01*
X2314875Y844041D02*
Y841502D01*
X2313182D01*
X2312335D02*
Y844041D01*
X2311066D01*
X2310643Y843618D01*
Y842772D01*
X2311066Y842348D01*
X2312335D01*
X2311489D02*
X2310643Y841502D01*
X2308103D02*
X2309796D01*
X2308103Y843195D01*
Y843618D01*
X2308526Y844041D01*
X2309373D01*
X2309796Y843618D01*
X2322407Y1163658D02*
X2322830Y1164081D01*
X2323677D01*
X2324100Y1163658D01*
Y1161965D01*
X2323677Y1161542D01*
X2322830D01*
X2322407Y1161965D01*
X2321561Y1161542D02*
X2320714D01*
X2321138D01*
Y1164081D01*
X2321561Y1163658D01*
X2319445Y1161119D02*
X2317752D01*
X2316906Y1164081D02*
X2315213Y1161542D01*
Y1164081D02*
X2316906Y1161542D01*
X2314366Y1164081D02*
Y1161542D01*
X2312674D01*
X2311827D02*
Y1164081D01*
X2310558D01*
X2310134Y1163658D01*
Y1162812D01*
X2310558Y1162388D01*
X2311827D01*
X2310981D02*
X2310134Y1161542D01*
X2309288Y1163658D02*
X2308865Y1164081D01*
X2308018D01*
X2307595Y1163658D01*
Y1163235D01*
X2308018Y1162812D01*
X2308442D01*
X2308018D01*
X2307595Y1162388D01*
Y1161965D01*
X2308018Y1161542D01*
X2308865D01*
X2309288Y1161965D01*
X2322407Y1483444D02*
X2322830Y1483867D01*
X2323677D01*
X2324100Y1483444D01*
Y1481751D01*
X2323677Y1481328D01*
X2322830D01*
X2322407Y1481751D01*
X2321561Y1481328D02*
X2320714D01*
X2321138D01*
Y1483867D01*
X2321561Y1483444D01*
X2319445Y1480905D02*
X2317752D01*
X2316906Y1483867D02*
X2315213Y1481328D01*
Y1483867D02*
X2316906Y1481328D01*
X2314366Y1483867D02*
Y1481328D01*
X2312674D01*
X2311827D02*
Y1483867D01*
X2310558D01*
X2310134Y1483444D01*
Y1482598D01*
X2310558Y1482174D01*
X2311827D01*
X2310981D02*
X2310134Y1481328D01*
X2308018D02*
Y1483867D01*
X2309288Y1482598D01*
X2307595D01*
X2343235Y821266D02*
X2343658Y821689D01*
X2344505D01*
X2344928Y821266D01*
Y819573D01*
X2344505Y819150D01*
X2343658D01*
X2343235Y819573D01*
X2340696Y819150D02*
X2342389D01*
X2340696Y820843D01*
Y821266D01*
X2341119Y821689D01*
X2341966D01*
X2342389Y821266D01*
X2339850Y818727D02*
X2338157D01*
X2337310Y821689D02*
X2335618Y819150D01*
Y821689D02*
X2337310Y819150D01*
X2334771Y821689D02*
Y819150D01*
X2333078D01*
X2332232D02*
Y821689D01*
X2330963D01*
X2330539Y821266D01*
Y820420D01*
X2330963Y819996D01*
X2332232D01*
X2331386D02*
X2330539Y819150D01*
X2328000D02*
X2329693D01*
X2328000Y820843D01*
Y821266D01*
X2328423Y821689D01*
X2329270D01*
X2329693Y821266D01*
X2342981Y1141306D02*
X2343404Y1141729D01*
X2344251D01*
X2344674Y1141306D01*
Y1139613D01*
X2344251Y1139190D01*
X2343404D01*
X2342981Y1139613D01*
X2340442Y1139190D02*
X2342135D01*
X2340442Y1140883D01*
Y1141306D01*
X2340865Y1141729D01*
X2341712D01*
X2342135Y1141306D01*
X2339596Y1138767D02*
X2337903D01*
X2337056Y1141729D02*
X2335364Y1139190D01*
Y1141729D02*
X2337056Y1139190D01*
X2334517Y1141729D02*
Y1139190D01*
X2332825D01*
X2331978D02*
Y1141729D01*
X2330708D01*
X2330285Y1141306D01*
Y1140460D01*
X2330708Y1140036D01*
X2331978D01*
X2331132D02*
X2330285Y1139190D01*
X2329439Y1141306D02*
X2329016Y1141729D01*
X2328169D01*
X2327746Y1141306D01*
Y1140883D01*
X2328169Y1140460D01*
X2328593D01*
X2328169D01*
X2327746Y1140036D01*
Y1139613D01*
X2328169Y1139190D01*
X2329016D01*
X2329439Y1139613D01*
X2342981Y1461346D02*
X2343404Y1461769D01*
X2344251D01*
X2344674Y1461346D01*
Y1459653D01*
X2344251Y1459230D01*
X2343404D01*
X2342981Y1459653D01*
X2340442Y1459230D02*
X2342135D01*
X2340442Y1460923D01*
Y1461346D01*
X2340865Y1461769D01*
X2341712D01*
X2342135Y1461346D01*
X2339596Y1458807D02*
X2337903D01*
X2337056Y1461769D02*
X2335364Y1459230D01*
Y1461769D02*
X2337056Y1459230D01*
X2334517Y1461769D02*
Y1459230D01*
X2332825D01*
X2331978D02*
Y1461769D01*
X2330708D01*
X2330285Y1461346D01*
Y1460500D01*
X2330708Y1460076D01*
X2331978D01*
X2331132D02*
X2330285Y1459230D01*
X2328169D02*
Y1461769D01*
X2329439Y1460500D01*
X2327746D01*
X2282275Y652102D02*
X2282698Y652525D01*
X2283545D01*
X2283968Y652102D01*
Y650409D01*
X2283545Y649986D01*
X2282698D01*
X2282275Y650409D01*
X2281429Y652102D02*
X2281006Y652525D01*
X2280159D01*
X2279736Y652102D01*
Y651679D01*
X2280159Y651256D01*
X2280582D01*
X2280159D01*
X2279736Y650832D01*
Y650409D01*
X2280159Y649986D01*
X2281006D01*
X2281429Y650409D01*
X2278890Y649563D02*
X2277197D01*
X2276350Y652525D02*
X2274658Y649986D01*
Y652525D02*
X2276350Y649986D01*
X2273811Y652525D02*
Y649986D01*
X2272119D01*
X2271272D02*
Y652525D01*
X2270002D01*
X2269579Y652102D01*
Y651256D01*
X2270002Y650832D01*
X2271272D01*
X2270426D02*
X2269579Y649986D01*
X2267040D02*
X2268733D01*
X2267040Y651679D01*
Y652102D01*
X2267463Y652525D01*
X2268310D01*
X2268733Y652102D01*
X2282021Y972142D02*
X2282444Y972565D01*
X2283291D01*
X2283714Y972142D01*
Y970449D01*
X2283291Y970026D01*
X2282444D01*
X2282021Y970449D01*
X2281175Y972142D02*
X2280752Y972565D01*
X2279905D01*
X2279482Y972142D01*
Y971719D01*
X2279905Y971296D01*
X2280328D01*
X2279905D01*
X2279482Y970872D01*
Y970449D01*
X2279905Y970026D01*
X2280752D01*
X2281175Y970449D01*
X2278636Y969603D02*
X2276943D01*
X2276096Y972565D02*
X2274404Y970026D01*
Y972565D02*
X2276096Y970026D01*
X2273557Y972565D02*
Y970026D01*
X2271864D01*
X2271018D02*
Y972565D01*
X2269749D01*
X2269325Y972142D01*
Y971296D01*
X2269749Y970872D01*
X2271018D01*
X2270172D02*
X2269325Y970026D01*
X2268479Y972142D02*
X2268056Y972565D01*
X2267209D01*
X2266786Y972142D01*
Y971719D01*
X2267209Y971296D01*
X2267632D01*
X2267209D01*
X2266786Y970872D01*
Y970449D01*
X2267209Y970026D01*
X2268056D01*
X2268479Y970449D01*
X2282021Y1292182D02*
X2282444Y1292605D01*
X2283291D01*
X2283714Y1292182D01*
Y1290489D01*
X2283291Y1290066D01*
X2282444D01*
X2282021Y1290489D01*
X2281175Y1292182D02*
X2280752Y1292605D01*
X2279905D01*
X2279482Y1292182D01*
Y1291759D01*
X2279905Y1291336D01*
X2280328D01*
X2279905D01*
X2279482Y1290912D01*
Y1290489D01*
X2279905Y1290066D01*
X2280752D01*
X2281175Y1290489D01*
X2278636Y1289643D02*
X2276943D01*
X2276096Y1292605D02*
X2274404Y1290066D01*
Y1292605D02*
X2276096Y1290066D01*
X2273557Y1292605D02*
Y1290066D01*
X2271864D01*
X2271018D02*
Y1292605D01*
X2269749D01*
X2269325Y1292182D01*
Y1291336D01*
X2269749Y1290912D01*
X2271018D01*
X2270172D02*
X2269325Y1290066D01*
X2267209D02*
Y1292605D01*
X2268479Y1291336D01*
X2266786D01*
X2198455Y791802D02*
X2198878Y792225D01*
X2199725D01*
X2200148Y791802D01*
Y790109D01*
X2199725Y789686D01*
X2198878D01*
X2198455Y790109D01*
X2196339Y789686D02*
Y792225D01*
X2197609Y790956D01*
X2195916D01*
X2195070Y789263D02*
X2193377D01*
X2192530Y792225D02*
X2190838Y789686D01*
Y792225D02*
X2192530Y789686D01*
X2189991Y792225D02*
Y789686D01*
X2188298D01*
X2187452D02*
Y792225D01*
X2186183D01*
X2185759Y791802D01*
Y790956D01*
X2186183Y790532D01*
X2187452D01*
X2186606D02*
X2185759Y789686D01*
X2183220D02*
X2184913D01*
X2183220Y791379D01*
Y791802D01*
X2183643Y792225D01*
X2184490D01*
X2184913Y791802D01*
X2198201Y1111842D02*
X2198624Y1112265D01*
X2199471D01*
X2199894Y1111842D01*
Y1110149D01*
X2199471Y1109726D01*
X2198624D01*
X2198201Y1110149D01*
X2196085Y1109726D02*
Y1112265D01*
X2197355Y1110996D01*
X2195662D01*
X2194816Y1109303D02*
X2193123D01*
X2192276Y1112265D02*
X2190584Y1109726D01*
Y1112265D02*
X2192276Y1109726D01*
X2189737Y1112265D02*
Y1109726D01*
X2188044D01*
X2187198D02*
Y1112265D01*
X2185928D01*
X2185505Y1111842D01*
Y1110996D01*
X2185928Y1110572D01*
X2187198D01*
X2186352D02*
X2185505Y1109726D01*
X2184659Y1111842D02*
X2184236Y1112265D01*
X2183389D01*
X2182966Y1111842D01*
Y1111419D01*
X2183389Y1110996D01*
X2183813D01*
X2183389D01*
X2182966Y1110572D01*
Y1110149D01*
X2183389Y1109726D01*
X2184236D01*
X2184659Y1110149D01*
X2198201Y1431882D02*
X2198624Y1432305D01*
X2199471D01*
X2199894Y1431882D01*
Y1430189D01*
X2199471Y1429766D01*
X2198624D01*
X2198201Y1430189D01*
X2196085Y1429766D02*
Y1432305D01*
X2197355Y1431036D01*
X2195662D01*
X2194816Y1429343D02*
X2193123D01*
X2192276Y1432305D02*
X2190584Y1429766D01*
Y1432305D02*
X2192276Y1429766D01*
X2189737Y1432305D02*
Y1429766D01*
X2188044D01*
X2187198D02*
Y1432305D01*
X2185928D01*
X2185505Y1431882D01*
Y1431036D01*
X2185928Y1430612D01*
X2187198D01*
X2186352D02*
X2185505Y1429766D01*
X2183389D02*
Y1432305D01*
X2184659Y1431036D01*
X2182966D01*
X2300055Y804502D02*
X2300478Y804925D01*
X2301325D01*
X2301748Y804502D01*
Y802809D01*
X2301325Y802386D01*
X2300478D01*
X2300055Y802809D01*
X2297516Y804925D02*
X2299209D01*
Y803656D01*
X2298362Y804079D01*
X2297939D01*
X2297516Y803656D01*
Y802809D01*
X2297939Y802386D01*
X2298786D01*
X2299209Y802809D01*
X2296670Y801963D02*
X2294977D01*
X2294130Y804925D02*
X2292438Y802386D01*
Y804925D02*
X2294130Y802386D01*
X2291591Y804925D02*
Y802386D01*
X2289899D01*
X2289052D02*
Y804925D01*
X2287782D01*
X2287359Y804502D01*
Y803656D01*
X2287782Y803232D01*
X2289052D01*
X2288206D02*
X2287359Y802386D01*
X2284820D02*
X2286513D01*
X2284820Y804079D01*
Y804502D01*
X2285243Y804925D01*
X2286090D01*
X2286513Y804502D01*
X2299801Y1124542D02*
X2300224Y1124965D01*
X2301071D01*
X2301494Y1124542D01*
Y1122849D01*
X2301071Y1122426D01*
X2300224D01*
X2299801Y1122849D01*
X2297262Y1124965D02*
X2298955D01*
Y1123696D01*
X2298108Y1124119D01*
X2297685D01*
X2297262Y1123696D01*
Y1122849D01*
X2297685Y1122426D01*
X2298532D01*
X2298955Y1122849D01*
X2296416Y1122003D02*
X2294723D01*
X2293876Y1124965D02*
X2292184Y1122426D01*
Y1124965D02*
X2293876Y1122426D01*
X2291337Y1124965D02*
Y1122426D01*
X2289644D01*
X2288798D02*
Y1124965D01*
X2287529D01*
X2287105Y1124542D01*
Y1123696D01*
X2287529Y1123272D01*
X2288798D01*
X2287952D02*
X2287105Y1122426D01*
X2286259Y1124542D02*
X2285836Y1124965D01*
X2284989D01*
X2284566Y1124542D01*
Y1124119D01*
X2284989Y1123696D01*
X2285412D01*
X2284989D01*
X2284566Y1123272D01*
Y1122849D01*
X2284989Y1122426D01*
X2285836D01*
X2286259Y1122849D01*
X2299801Y1444582D02*
X2300224Y1445005D01*
X2301071D01*
X2301494Y1444582D01*
Y1442889D01*
X2301071Y1442466D01*
X2300224D01*
X2299801Y1442889D01*
X2297262Y1445005D02*
X2298955D01*
Y1443736D01*
X2298108Y1444159D01*
X2297685D01*
X2297262Y1443736D01*
Y1442889D01*
X2297685Y1442466D01*
X2298532D01*
X2298955Y1442889D01*
X2296416Y1442043D02*
X2294723D01*
X2293876Y1445005D02*
X2292184Y1442466D01*
Y1445005D02*
X2293876Y1442466D01*
X2291337Y1445005D02*
Y1442466D01*
X2289644D01*
X2288798D02*
Y1445005D01*
X2287529D01*
X2287105Y1444582D01*
Y1443736D01*
X2287529Y1443312D01*
X2288798D01*
X2287952D02*
X2287105Y1442466D01*
X2284989D02*
Y1445005D01*
X2286259Y1443736D01*
X2284566D01*
X2263733Y804502D02*
X2264156Y804925D01*
X2265003D01*
X2265426Y804502D01*
Y802809D01*
X2265003Y802386D01*
X2264156D01*
X2263733Y802809D01*
X2261194Y804925D02*
X2262040Y804502D01*
X2262887Y803656D01*
Y802809D01*
X2262464Y802386D01*
X2261617D01*
X2261194Y802809D01*
Y803232D01*
X2261617Y803656D01*
X2262887D01*
X2260348Y801963D02*
X2258655D01*
X2257808Y804925D02*
X2256116Y802386D01*
Y804925D02*
X2257808Y802386D01*
X2255269Y804925D02*
Y802386D01*
X2253577D01*
X2252730D02*
Y804925D01*
X2251461D01*
X2251037Y804502D01*
Y803656D01*
X2251461Y803232D01*
X2252730D01*
X2251884D02*
X2251037Y802386D01*
X2248498D02*
X2250191D01*
X2248498Y804079D01*
Y804502D01*
X2248921Y804925D01*
X2249768D01*
X2250191Y804502D01*
X2263479Y1124542D02*
X2263902Y1124965D01*
X2264749D01*
X2265172Y1124542D01*
Y1122849D01*
X2264749Y1122426D01*
X2263902D01*
X2263479Y1122849D01*
X2260940Y1124965D02*
X2261786Y1124542D01*
X2262633Y1123696D01*
Y1122849D01*
X2262210Y1122426D01*
X2261363D01*
X2260940Y1122849D01*
Y1123272D01*
X2261363Y1123696D01*
X2262633D01*
X2260094Y1122003D02*
X2258401D01*
X2257554Y1124965D02*
X2255862Y1122426D01*
Y1124965D02*
X2257554Y1122426D01*
X2255015Y1124965D02*
Y1122426D01*
X2253322D01*
X2252476D02*
Y1124965D01*
X2251207D01*
X2250783Y1124542D01*
Y1123696D01*
X2251207Y1123272D01*
X2252476D01*
X2251630D02*
X2250783Y1122426D01*
X2249937Y1124542D02*
X2249514Y1124965D01*
X2248667D01*
X2248244Y1124542D01*
Y1124119D01*
X2248667Y1123696D01*
X2249091D01*
X2248667D01*
X2248244Y1123272D01*
Y1122849D01*
X2248667Y1122426D01*
X2249514D01*
X2249937Y1122849D01*
X2263479Y1444582D02*
X2263902Y1445005D01*
X2264749D01*
X2265172Y1444582D01*
Y1442889D01*
X2264749Y1442466D01*
X2263902D01*
X2263479Y1442889D01*
X2260940Y1445005D02*
X2261786Y1444582D01*
X2262633Y1443736D01*
Y1442889D01*
X2262210Y1442466D01*
X2261363D01*
X2260940Y1442889D01*
Y1443312D01*
X2261363Y1443736D01*
X2262633D01*
X2260094Y1442043D02*
X2258401D01*
X2257554Y1445005D02*
X2255862Y1442466D01*
Y1445005D02*
X2257554Y1442466D01*
X2255015Y1445005D02*
Y1442466D01*
X2253322D01*
X2252476D02*
Y1445005D01*
X2251207D01*
X2250783Y1444582D01*
Y1443736D01*
X2251207Y1443312D01*
X2252476D01*
X2251630D02*
X2250783Y1442466D01*
X2248667D02*
Y1445005D01*
X2249937Y1443736D01*
X2248244D01*
X2271099Y846920D02*
X2271522Y847343D01*
X2272369D01*
X2272792Y846920D01*
Y845227D01*
X2272369Y844804D01*
X2271522D01*
X2271099Y845227D01*
X2270253Y847343D02*
X2268560D01*
Y846920D01*
X2270253Y845227D01*
Y844804D01*
X2267714Y844381D02*
X2266021D01*
X2265174Y847343D02*
X2263482Y844804D01*
Y847343D02*
X2265174Y844804D01*
X2262635Y847343D02*
Y844804D01*
X2260943D01*
X2260096D02*
Y847343D01*
X2258826D01*
X2258403Y846920D01*
Y846074D01*
X2258826Y845650D01*
X2260096D01*
X2259250D02*
X2258403Y844804D01*
X2255864D02*
X2257557D01*
X2255864Y846497D01*
Y846920D01*
X2256287Y847343D01*
X2257134D01*
X2257557Y846920D01*
X2270845Y1166706D02*
X2271268Y1167129D01*
X2272115D01*
X2272538Y1166706D01*
Y1165013D01*
X2272115Y1164590D01*
X2271268D01*
X2270845Y1165013D01*
X2269999Y1167129D02*
X2268306D01*
Y1166706D01*
X2269999Y1165013D01*
Y1164590D01*
X2267460Y1164167D02*
X2265767D01*
X2264920Y1167129D02*
X2263228Y1164590D01*
Y1167129D02*
X2264920Y1164590D01*
X2262381Y1167129D02*
Y1164590D01*
X2260688D01*
X2259842D02*
Y1167129D01*
X2258573D01*
X2258149Y1166706D01*
Y1165860D01*
X2258573Y1165436D01*
X2259842D01*
X2258996D02*
X2258149Y1164590D01*
X2257303Y1166706D02*
X2256880Y1167129D01*
X2256033D01*
X2255610Y1166706D01*
Y1166283D01*
X2256033Y1165860D01*
X2256456D01*
X2256033D01*
X2255610Y1165436D01*
Y1165013D01*
X2256033Y1164590D01*
X2256880D01*
X2257303Y1165013D01*
X2270845Y1486746D02*
X2271268Y1487169D01*
X2272115D01*
X2272538Y1486746D01*
Y1485053D01*
X2272115Y1484630D01*
X2271268D01*
X2270845Y1485053D01*
X2269999Y1487169D02*
X2268306D01*
Y1486746D01*
X2269999Y1485053D01*
Y1484630D01*
X2267460Y1484207D02*
X2265767D01*
X2264920Y1487169D02*
X2263228Y1484630D01*
Y1487169D02*
X2264920Y1484630D01*
X2262381Y1487169D02*
Y1484630D01*
X2260688D01*
X2259842D02*
Y1487169D01*
X2258573D01*
X2258149Y1486746D01*
Y1485900D01*
X2258573Y1485476D01*
X2259842D01*
X2258996D02*
X2258149Y1484630D01*
X2256033D02*
Y1487169D01*
X2257303Y1485900D01*
X2255610D01*
X2267035Y682582D02*
X2267458Y683005D01*
X2268305D01*
X2268728Y682582D01*
Y680889D01*
X2268305Y680466D01*
X2267458D01*
X2267035Y680889D01*
X2266189Y682582D02*
X2265766Y683005D01*
X2264919D01*
X2264496Y682582D01*
Y682159D01*
X2264919Y681736D01*
X2264496Y681312D01*
Y680889D01*
X2264919Y680466D01*
X2265766D01*
X2266189Y680889D01*
Y681312D01*
X2265766Y681736D01*
X2266189Y682159D01*
Y682582D01*
X2265766Y681736D02*
X2264919D01*
X2263650Y680043D02*
X2261957D01*
X2261110Y683005D02*
X2259418Y680466D01*
Y683005D02*
X2261110Y680466D01*
X2258571Y683005D02*
Y680466D01*
X2256879D01*
X2256032D02*
Y683005D01*
X2254763D01*
X2254339Y682582D01*
Y681736D01*
X2254763Y681312D01*
X2256032D01*
X2255186D02*
X2254339Y680466D01*
X2251800D02*
X2253493D01*
X2251800Y682159D01*
Y682582D01*
X2252223Y683005D01*
X2253070D01*
X2253493Y682582D01*
X2266781Y1002622D02*
X2267204Y1003045D01*
X2268051D01*
X2268474Y1002622D01*
Y1000929D01*
X2268051Y1000506D01*
X2267204D01*
X2266781Y1000929D01*
X2265935Y1002622D02*
X2265512Y1003045D01*
X2264665D01*
X2264242Y1002622D01*
Y1002199D01*
X2264665Y1001776D01*
X2264242Y1001352D01*
Y1000929D01*
X2264665Y1000506D01*
X2265512D01*
X2265935Y1000929D01*
Y1001352D01*
X2265512Y1001776D01*
X2265935Y1002199D01*
Y1002622D01*
X2265512Y1001776D02*
X2264665D01*
X2263396Y1000083D02*
X2261703D01*
X2260856Y1003045D02*
X2259164Y1000506D01*
Y1003045D02*
X2260856Y1000506D01*
X2258317Y1003045D02*
Y1000506D01*
X2256624D01*
X2255778D02*
Y1003045D01*
X2254509D01*
X2254085Y1002622D01*
Y1001776D01*
X2254509Y1001352D01*
X2255778D01*
X2254932D02*
X2254085Y1000506D01*
X2253239Y1002622D02*
X2252816Y1003045D01*
X2251969D01*
X2251546Y1002622D01*
Y1002199D01*
X2251969Y1001776D01*
X2252392D01*
X2251969D01*
X2251546Y1001352D01*
Y1000929D01*
X2251969Y1000506D01*
X2252816D01*
X2253239Y1000929D01*
X2266781Y1322662D02*
X2267204Y1323085D01*
X2268051D01*
X2268474Y1322662D01*
Y1320969D01*
X2268051Y1320546D01*
X2267204D01*
X2266781Y1320969D01*
X2265935Y1322662D02*
X2265512Y1323085D01*
X2264665D01*
X2264242Y1322662D01*
Y1322239D01*
X2264665Y1321816D01*
X2264242Y1321392D01*
Y1320969D01*
X2264665Y1320546D01*
X2265512D01*
X2265935Y1320969D01*
Y1321392D01*
X2265512Y1321816D01*
X2265935Y1322239D01*
Y1322662D01*
X2265512Y1321816D02*
X2264665D01*
X2263396Y1320123D02*
X2261703D01*
X2260856Y1323085D02*
X2259164Y1320546D01*
Y1323085D02*
X2260856Y1320546D01*
X2258317Y1323085D02*
Y1320546D01*
X2256624D01*
X2255778D02*
Y1323085D01*
X2254509D01*
X2254085Y1322662D01*
Y1321816D01*
X2254509Y1321392D01*
X2255778D01*
X2254932D02*
X2254085Y1320546D01*
X2251969D02*
Y1323085D01*
X2253239Y1321816D01*
X2251546D01*
X2166959Y716618D02*
X2167382Y717041D01*
X2168229D01*
X2168652Y716618D01*
Y714925D01*
X2168229Y714502D01*
X2167382D01*
X2166959Y714925D01*
X2166113D02*
X2165690Y714502D01*
X2164843D01*
X2164420Y714925D01*
Y716618D01*
X2164843Y717041D01*
X2165690D01*
X2166113Y716618D01*
Y716195D01*
X2165690Y715772D01*
X2164420D01*
X2163574Y714079D02*
X2161881D01*
X2161034Y717041D02*
X2159342Y714502D01*
Y717041D02*
X2161034Y714502D01*
X2158495Y717041D02*
Y714502D01*
X2156803D01*
X2155956D02*
Y717041D01*
X2154686D01*
X2154263Y716618D01*
Y715772D01*
X2154686Y715348D01*
X2155956D01*
X2155110D02*
X2154263Y714502D01*
X2151724D02*
X2153417D01*
X2151724Y716195D01*
Y716618D01*
X2152147Y717041D01*
X2152994D01*
X2153417Y716618D01*
X2166705Y1036658D02*
X2167128Y1037081D01*
X2167975D01*
X2168398Y1036658D01*
Y1034965D01*
X2167975Y1034542D01*
X2167128D01*
X2166705Y1034965D01*
X2165859D02*
X2165436Y1034542D01*
X2164589D01*
X2164166Y1034965D01*
Y1036658D01*
X2164589Y1037081D01*
X2165436D01*
X2165859Y1036658D01*
Y1036235D01*
X2165436Y1035812D01*
X2164166D01*
X2163320Y1034119D02*
X2161627D01*
X2160780Y1037081D02*
X2159088Y1034542D01*
Y1037081D02*
X2160780Y1034542D01*
X2158241Y1037081D02*
Y1034542D01*
X2156548D01*
X2155702D02*
Y1037081D01*
X2154433D01*
X2154009Y1036658D01*
Y1035812D01*
X2154433Y1035388D01*
X2155702D01*
X2154856D02*
X2154009Y1034542D01*
X2153163Y1036658D02*
X2152740Y1037081D01*
X2151893D01*
X2151470Y1036658D01*
Y1036235D01*
X2151893Y1035812D01*
X2152316D01*
X2151893D01*
X2151470Y1035388D01*
Y1034965D01*
X2151893Y1034542D01*
X2152740D01*
X2153163Y1034965D01*
X2166705Y1356698D02*
X2167128Y1357121D01*
X2167975D01*
X2168398Y1356698D01*
Y1355005D01*
X2167975Y1354582D01*
X2167128D01*
X2166705Y1355005D01*
X2165859D02*
X2165436Y1354582D01*
X2164589D01*
X2164166Y1355005D01*
Y1356698D01*
X2164589Y1357121D01*
X2165436D01*
X2165859Y1356698D01*
Y1356275D01*
X2165436Y1355852D01*
X2164166D01*
X2163320Y1354159D02*
X2161627D01*
X2160780Y1357121D02*
X2159088Y1354582D01*
Y1357121D02*
X2160780Y1354582D01*
X2158241Y1357121D02*
Y1354582D01*
X2156548D01*
X2155702D02*
Y1357121D01*
X2154433D01*
X2154009Y1356698D01*
Y1355852D01*
X2154433Y1355428D01*
X2155702D01*
X2154856D02*
X2154009Y1354582D01*
X2151893D02*
Y1357121D01*
X2153163Y1355852D01*
X2151470D01*
X2310215Y773514D02*
X2310638Y773937D01*
X2311485D01*
X2311908Y773514D01*
Y771821D01*
X2311485Y771398D01*
X2310638D01*
X2310215Y771821D01*
X2309369Y771398D02*
X2308522D01*
X2308946D01*
Y773937D01*
X2309369Y773514D01*
X2307253D02*
X2306830Y773937D01*
X2305983D01*
X2305560Y773514D01*
Y771821D01*
X2305983Y771398D01*
X2306830D01*
X2307253Y771821D01*
Y773514D01*
X2304714Y770975D02*
X2303021D01*
X2302175Y773937D02*
X2300482Y771398D01*
Y773937D02*
X2302175Y771398D01*
X2299635Y773937D02*
Y771398D01*
X2297943D01*
X2297096D02*
Y773937D01*
X2295827D01*
X2295403Y773514D01*
Y772668D01*
X2295827Y772244D01*
X2297096D01*
X2296250D02*
X2295403Y771398D01*
X2292864D02*
X2294557D01*
X2292864Y773091D01*
Y773514D01*
X2293287Y773937D01*
X2294134D01*
X2294557Y773514D01*
X2309961Y1093554D02*
X2310384Y1093977D01*
X2311231D01*
X2311654Y1093554D01*
Y1091861D01*
X2311231Y1091438D01*
X2310384D01*
X2309961Y1091861D01*
X2309115Y1091438D02*
X2308268D01*
X2308692D01*
Y1093977D01*
X2309115Y1093554D01*
X2306999D02*
X2306576Y1093977D01*
X2305729D01*
X2305306Y1093554D01*
Y1091861D01*
X2305729Y1091438D01*
X2306576D01*
X2306999Y1091861D01*
Y1093554D01*
X2304460Y1091015D02*
X2302767D01*
X2301920Y1093977D02*
X2300228Y1091438D01*
Y1093977D02*
X2301920Y1091438D01*
X2299381Y1093977D02*
Y1091438D01*
X2297688D01*
X2296842D02*
Y1093977D01*
X2295573D01*
X2295149Y1093554D01*
Y1092708D01*
X2295573Y1092284D01*
X2296842D01*
X2295996D02*
X2295149Y1091438D01*
X2294303Y1093554D02*
X2293880Y1093977D01*
X2293033D01*
X2292610Y1093554D01*
Y1093131D01*
X2293033Y1092708D01*
X2293457D01*
X2293033D01*
X2292610Y1092284D01*
Y1091861D01*
X2293033Y1091438D01*
X2293880D01*
X2294303Y1091861D01*
X2309961Y1413594D02*
X2310384Y1414017D01*
X2311231D01*
X2311654Y1413594D01*
Y1411901D01*
X2311231Y1411478D01*
X2310384D01*
X2309961Y1411901D01*
X2309115Y1411478D02*
X2308268D01*
X2308692D01*
Y1414017D01*
X2309115Y1413594D01*
X2306999D02*
X2306576Y1414017D01*
X2305729D01*
X2305306Y1413594D01*
Y1411901D01*
X2305729Y1411478D01*
X2306576D01*
X2306999Y1411901D01*
Y1413594D01*
X2304460Y1411055D02*
X2302767D01*
X2301920Y1414017D02*
X2300228Y1411478D01*
Y1414017D02*
X2301920Y1411478D01*
X2299381Y1414017D02*
Y1411478D01*
X2297688D01*
X2296842D02*
Y1414017D01*
X2295573D01*
X2295149Y1413594D01*
Y1412748D01*
X2295573Y1412324D01*
X2296842D01*
X2295996D02*
X2295149Y1411478D01*
X2293033D02*
Y1414017D01*
X2294303Y1412748D01*
X2292610D01*
X2240619Y757258D02*
X2241042Y757681D01*
X2241889D01*
X2242312Y757258D01*
Y755565D01*
X2241889Y755142D01*
X2241042D01*
X2240619Y755565D01*
X2239773Y755142D02*
X2238926D01*
X2239350D01*
Y757681D01*
X2239773Y757258D01*
X2237657Y755142D02*
X2236810D01*
X2237234D01*
Y757681D01*
X2237657Y757258D01*
X2235541Y754719D02*
X2233848D01*
X2233002Y757681D02*
X2231309Y755142D01*
Y757681D02*
X2233002Y755142D01*
X2230462Y757681D02*
Y755142D01*
X2228770D01*
X2227923D02*
Y757681D01*
X2226654D01*
X2226230Y757258D01*
Y756412D01*
X2226654Y755988D01*
X2227923D01*
X2227077D02*
X2226230Y755142D01*
X2223691D02*
X2225384D01*
X2223691Y756835D01*
Y757258D01*
X2224115Y757681D01*
X2224961D01*
X2225384Y757258D01*
X2240365Y1077298D02*
X2240788Y1077721D01*
X2241635D01*
X2242058Y1077298D01*
Y1075605D01*
X2241635Y1075182D01*
X2240788D01*
X2240365Y1075605D01*
X2239519Y1075182D02*
X2238672D01*
X2239096D01*
Y1077721D01*
X2239519Y1077298D01*
X2237403Y1075182D02*
X2236556D01*
X2236980D01*
Y1077721D01*
X2237403Y1077298D01*
X2235287Y1074759D02*
X2233594D01*
X2232748Y1077721D02*
X2231055Y1075182D01*
Y1077721D02*
X2232748Y1075182D01*
X2230208Y1077721D02*
Y1075182D01*
X2228516D01*
X2227669D02*
Y1077721D01*
X2226400D01*
X2225977Y1077298D01*
Y1076452D01*
X2226400Y1076028D01*
X2227669D01*
X2226823D02*
X2225977Y1075182D01*
X2225130Y1077298D02*
X2224707Y1077721D01*
X2223860D01*
X2223437Y1077298D01*
Y1076875D01*
X2223860Y1076452D01*
X2224284D01*
X2223860D01*
X2223437Y1076028D01*
Y1075605D01*
X2223860Y1075182D01*
X2224707D01*
X2225130Y1075605D01*
X2240365Y1397338D02*
X2240788Y1397761D01*
X2241635D01*
X2242058Y1397338D01*
Y1395645D01*
X2241635Y1395222D01*
X2240788D01*
X2240365Y1395645D01*
X2239519Y1395222D02*
X2238672D01*
X2239096D01*
Y1397761D01*
X2239519Y1397338D01*
X2237403Y1395222D02*
X2236556D01*
X2236980D01*
Y1397761D01*
X2237403Y1397338D01*
X2235287Y1394799D02*
X2233594D01*
X2232748Y1397761D02*
X2231055Y1395222D01*
Y1397761D02*
X2232748Y1395222D01*
X2230208Y1397761D02*
Y1395222D01*
X2228516D01*
X2227669D02*
Y1397761D01*
X2226400D01*
X2225977Y1397338D01*
Y1396492D01*
X2226400Y1396068D01*
X2227669D01*
X2226823D02*
X2225977Y1395222D01*
X2223860D02*
Y1397761D01*
X2225130Y1396492D01*
X2223437D01*
X2204043Y652864D02*
X2204466Y653287D01*
X2205313D01*
X2205736Y652864D01*
Y651171D01*
X2205313Y650748D01*
X2204466D01*
X2204043Y651171D01*
X2203197Y650748D02*
X2202350D01*
X2202774D01*
Y653287D01*
X2203197Y652864D01*
X2201081D02*
X2200658Y653287D01*
X2199811D01*
X2199388Y652864D01*
Y652441D01*
X2199811Y652018D01*
X2200234D01*
X2199811D01*
X2199388Y651594D01*
Y651171D01*
X2199811Y650748D01*
X2200658D01*
X2201081Y651171D01*
X2198542Y650325D02*
X2196849D01*
X2196003Y653287D02*
X2194310Y650748D01*
Y653287D02*
X2196003Y650748D01*
X2193463Y653287D02*
Y650748D01*
X2191770D01*
X2190924D02*
Y653287D01*
X2189655D01*
X2189231Y652864D01*
Y652018D01*
X2189655Y651594D01*
X2190924D01*
X2190078D02*
X2189231Y650748D01*
X2186692D02*
X2188385D01*
X2186692Y652441D01*
Y652864D01*
X2187115Y653287D01*
X2187962D01*
X2188385Y652864D01*
X2203789Y972904D02*
X2204212Y973327D01*
X2205059D01*
X2205482Y972904D01*
Y971211D01*
X2205059Y970788D01*
X2204212D01*
X2203789Y971211D01*
X2202943Y970788D02*
X2202096D01*
X2202520D01*
Y973327D01*
X2202943Y972904D01*
X2200827D02*
X2200404Y973327D01*
X2199557D01*
X2199134Y972904D01*
Y972481D01*
X2199557Y972058D01*
X2199980D01*
X2199557D01*
X2199134Y971634D01*
Y971211D01*
X2199557Y970788D01*
X2200404D01*
X2200827Y971211D01*
X2198288Y970365D02*
X2196595D01*
X2195748Y973327D02*
X2194056Y970788D01*
Y973327D02*
X2195748Y970788D01*
X2193209Y973327D02*
Y970788D01*
X2191517D01*
X2190670D02*
Y973327D01*
X2189400D01*
X2188977Y972904D01*
Y972058D01*
X2189400Y971634D01*
X2190670D01*
X2189824D02*
X2188977Y970788D01*
X2188131Y972904D02*
X2187708Y973327D01*
X2186861D01*
X2186438Y972904D01*
Y972481D01*
X2186861Y972058D01*
X2187285D01*
X2186861D01*
X2186438Y971634D01*
Y971211D01*
X2186861Y970788D01*
X2187708D01*
X2188131Y971211D01*
X2203789Y1292944D02*
X2204212Y1293367D01*
X2205059D01*
X2205482Y1292944D01*
Y1291251D01*
X2205059Y1290828D01*
X2204212D01*
X2203789Y1291251D01*
X2202943Y1290828D02*
X2202096D01*
X2202520D01*
Y1293367D01*
X2202943Y1292944D01*
X2200827D02*
X2200404Y1293367D01*
X2199557D01*
X2199134Y1292944D01*
Y1292521D01*
X2199557Y1292098D01*
X2199980D01*
X2199557D01*
X2199134Y1291674D01*
Y1291251D01*
X2199557Y1290828D01*
X2200404D01*
X2200827Y1291251D01*
X2198288Y1290405D02*
X2196595D01*
X2195748Y1293367D02*
X2194056Y1290828D01*
Y1293367D02*
X2195748Y1290828D01*
X2193209Y1293367D02*
Y1290828D01*
X2191517D01*
X2190670D02*
Y1293367D01*
X2189400D01*
X2188977Y1292944D01*
Y1292098D01*
X2189400Y1291674D01*
X2190670D01*
X2189824D02*
X2188977Y1290828D01*
X2186861D02*
Y1293367D01*
X2188131Y1292098D01*
X2186438D01*
X2227919Y821520D02*
X2228342Y821943D01*
X2229189D01*
X2229612Y821520D01*
Y819827D01*
X2229189Y819404D01*
X2228342D01*
X2227919Y819827D01*
X2227073Y819404D02*
X2226226D01*
X2226650D01*
Y821943D01*
X2227073Y821520D01*
X2223687Y819404D02*
Y821943D01*
X2224957Y820674D01*
X2223264D01*
X2222418Y818981D02*
X2220725D01*
X2219879Y821943D02*
X2218186Y819404D01*
Y821943D02*
X2219879Y819404D01*
X2217339Y821943D02*
Y819404D01*
X2215647D01*
X2214800D02*
Y821943D01*
X2213530D01*
X2213107Y821520D01*
Y820674D01*
X2213530Y820250D01*
X2214800D01*
X2213954D02*
X2213107Y819404D01*
X2210568D02*
X2212261D01*
X2210568Y821097D01*
Y821520D01*
X2210991Y821943D01*
X2211838D01*
X2212261Y821520D01*
X2227665Y1141306D02*
X2228088Y1141729D01*
X2228935D01*
X2229358Y1141306D01*
Y1139613D01*
X2228935Y1139190D01*
X2228088D01*
X2227665Y1139613D01*
X2226819Y1139190D02*
X2225972D01*
X2226396D01*
Y1141729D01*
X2226819Y1141306D01*
X2223433Y1139190D02*
Y1141729D01*
X2224703Y1140460D01*
X2223010D01*
X2222164Y1138767D02*
X2220471D01*
X2219624Y1141729D02*
X2217932Y1139190D01*
Y1141729D02*
X2219624Y1139190D01*
X2217085Y1141729D02*
Y1139190D01*
X2215392D01*
X2214546D02*
Y1141729D01*
X2213277D01*
X2212853Y1141306D01*
Y1140460D01*
X2213277Y1140036D01*
X2214546D01*
X2213700D02*
X2212853Y1139190D01*
X2212007Y1141306D02*
X2211584Y1141729D01*
X2210737D01*
X2210314Y1141306D01*
Y1140883D01*
X2210737Y1140460D01*
X2211160D01*
X2210737D01*
X2210314Y1140036D01*
Y1139613D01*
X2210737Y1139190D01*
X2211584D01*
X2212007Y1139613D01*
X2227665Y1461346D02*
X2228088Y1461769D01*
X2228935D01*
X2229358Y1461346D01*
Y1459653D01*
X2228935Y1459230D01*
X2228088D01*
X2227665Y1459653D01*
X2226819Y1459230D02*
X2225972D01*
X2226396D01*
Y1461769D01*
X2226819Y1461346D01*
X2223433Y1459230D02*
Y1461769D01*
X2224703Y1460500D01*
X2223010D01*
X2222164Y1458807D02*
X2220471D01*
X2219624Y1461769D02*
X2217932Y1459230D01*
Y1461769D02*
X2219624Y1459230D01*
X2217085Y1461769D02*
Y1459230D01*
X2215392D01*
X2214546D02*
Y1461769D01*
X2213277D01*
X2212853Y1461346D01*
Y1460500D01*
X2213277Y1460076D01*
X2214546D01*
X2213700D02*
X2212853Y1459230D01*
X2210737D02*
Y1461769D01*
X2212007Y1460500D01*
X2210314D01*
X2253234Y651255D02*
Y648716D01*
X2251964D01*
X2251541Y649139D01*
Y650832D01*
X2251964Y651255D01*
X2253234D01*
X2250695Y648716D02*
X2249848D01*
X2250272D01*
Y651255D01*
X2250695Y650832D01*
X2248579Y648293D02*
X2246886D01*
X2246040Y651255D02*
X2244347Y648716D01*
Y651255D02*
X2246040Y648716D01*
X2243501Y651255D02*
Y648716D01*
X2241808D01*
X2240961D02*
Y651255D01*
X2239692D01*
X2239268Y650832D01*
Y649986D01*
X2239692Y649562D01*
X2240961D01*
X2240115D02*
X2239268Y648716D01*
X2236729D02*
X2238422D01*
X2236729Y650409D01*
Y650832D01*
X2237153Y651255D01*
X2237999D01*
X2238422Y650832D01*
X2252980Y971295D02*
Y968756D01*
X2251710D01*
X2251287Y969179D01*
Y970872D01*
X2251710Y971295D01*
X2252980D01*
X2250441Y968756D02*
X2249594D01*
X2250018D01*
Y971295D01*
X2250441Y970872D01*
X2248325Y968333D02*
X2246632D01*
X2245786Y971295D02*
X2244093Y968756D01*
Y971295D02*
X2245786Y968756D01*
X2243246Y971295D02*
Y968756D01*
X2241554D01*
X2240707D02*
Y971295D01*
X2239438D01*
X2239014Y970872D01*
Y970026D01*
X2239438Y969602D01*
X2240707D01*
X2239861D02*
X2239014Y968756D01*
X2238168Y970872D02*
X2237745Y971295D01*
X2236898D01*
X2236475Y970872D01*
Y970449D01*
X2236898Y970026D01*
X2237322D01*
X2236898D01*
X2236475Y969602D01*
Y969179D01*
X2236898Y968756D01*
X2237745D01*
X2238168Y969179D01*
X2252980Y1291335D02*
Y1288796D01*
X2251710D01*
X2251287Y1289219D01*
Y1290912D01*
X2251710Y1291335D01*
X2252980D01*
X2250441Y1288796D02*
X2249594D01*
X2250018D01*
Y1291335D01*
X2250441Y1290912D01*
X2248325Y1288373D02*
X2246632D01*
X2245786Y1291335D02*
X2244093Y1288796D01*
Y1291335D02*
X2245786Y1288796D01*
X2243246Y1291335D02*
Y1288796D01*
X2241554D01*
X2240707D02*
Y1291335D01*
X2239438D01*
X2239014Y1290912D01*
Y1290066D01*
X2239438Y1289642D01*
X2240707D01*
X2239861D02*
X2239014Y1288796D01*
X2236898D02*
Y1291335D01*
X2238168Y1290066D01*
X2236475D01*
X2298954Y634237D02*
Y631698D01*
X2297684D01*
X2297261Y632121D01*
Y633814D01*
X2297684Y634237D01*
X2298954D01*
X2294722Y631698D02*
X2296415D01*
X2294722Y633391D01*
Y633814D01*
X2295145Y634237D01*
X2295992D01*
X2296415Y633814D01*
X2293876Y631275D02*
X2292183D01*
X2291336Y634237D02*
X2289644Y631698D01*
Y634237D02*
X2291336Y631698D01*
X2288797Y634237D02*
Y631698D01*
X2287104D01*
X2286258D02*
Y634237D01*
X2284989D01*
X2284565Y633814D01*
Y632968D01*
X2284989Y632544D01*
X2286258D01*
X2285412D02*
X2284565Y631698D01*
X2282026D02*
X2283719D01*
X2282026Y633391D01*
Y633814D01*
X2282449Y634237D01*
X2283296D01*
X2283719Y633814D01*
X2298446Y954277D02*
Y951738D01*
X2297176D01*
X2296753Y952161D01*
Y953854D01*
X2297176Y954277D01*
X2298446D01*
X2294214Y951738D02*
X2295907D01*
X2294214Y953431D01*
Y953854D01*
X2294637Y954277D01*
X2295484D01*
X2295907Y953854D01*
X2293368Y951315D02*
X2291675D01*
X2290828Y954277D02*
X2289136Y951738D01*
Y954277D02*
X2290828Y951738D01*
X2288289Y954277D02*
Y951738D01*
X2286597D01*
X2285750D02*
Y954277D01*
X2284480D01*
X2284057Y953854D01*
Y953008D01*
X2284480Y952584D01*
X2285750D01*
X2284904D02*
X2284057Y951738D01*
X2283211Y953854D02*
X2282788Y954277D01*
X2281941D01*
X2281518Y953854D01*
Y953431D01*
X2281941Y953008D01*
X2282365D01*
X2281941D01*
X2281518Y952584D01*
Y952161D01*
X2281941Y951738D01*
X2282788D01*
X2283211Y952161D01*
X2298446Y1274317D02*
Y1271778D01*
X2297176D01*
X2296753Y1272201D01*
Y1273894D01*
X2297176Y1274317D01*
X2298446D01*
X2294214Y1271778D02*
X2295907D01*
X2294214Y1273471D01*
Y1273894D01*
X2294637Y1274317D01*
X2295484D01*
X2295907Y1273894D01*
X2293368Y1271355D02*
X2291675D01*
X2290828Y1274317D02*
X2289136Y1271778D01*
Y1274317D02*
X2290828Y1271778D01*
X2288289Y1274317D02*
Y1271778D01*
X2286597D01*
X2285750D02*
Y1274317D01*
X2284480D01*
X2284057Y1273894D01*
Y1273048D01*
X2284480Y1272624D01*
X2285750D01*
X2284904D02*
X2284057Y1271778D01*
X2281941D02*
Y1274317D01*
X2283211Y1273048D01*
X2281518D01*
X2299208Y759713D02*
X2298362D01*
X2298785D01*
Y757174D01*
X2299208D01*
X2298362D01*
X2295399Y759290D02*
X2295822Y759713D01*
X2296669D01*
X2297092Y759290D01*
Y757597D01*
X2296669Y757174D01*
X2295822D01*
X2295399Y757597D01*
X2294553Y757174D02*
X2293706D01*
X2294130D01*
Y759713D01*
X2294553Y759290D01*
X2292437Y756751D02*
X2290744D01*
X2289898Y759713D02*
X2288205Y757174D01*
Y759713D02*
X2289898Y757174D01*
X2287359Y759713D02*
Y757174D01*
X2285666D01*
X2284819D02*
Y759713D01*
X2283550D01*
X2283127Y759290D01*
Y758444D01*
X2283550Y758020D01*
X2284819D01*
X2283973D02*
X2283127Y757174D01*
X2280587D02*
X2282280D01*
X2280587Y758867D01*
Y759290D01*
X2281010Y759713D01*
X2281857D01*
X2282280Y759290D01*
X2298954Y1079753D02*
X2298108D01*
X2298531D01*
Y1077214D01*
X2298954D01*
X2298108D01*
X2295145Y1079330D02*
X2295568Y1079753D01*
X2296415D01*
X2296838Y1079330D01*
Y1077637D01*
X2296415Y1077214D01*
X2295568D01*
X2295145Y1077637D01*
X2294299Y1077214D02*
X2293452D01*
X2293876D01*
Y1079753D01*
X2294299Y1079330D01*
X2292183Y1076791D02*
X2290490D01*
X2289644Y1079753D02*
X2287951Y1077214D01*
Y1079753D02*
X2289644Y1077214D01*
X2287104Y1079753D02*
Y1077214D01*
X2285412D01*
X2284565D02*
Y1079753D01*
X2283296D01*
X2282872Y1079330D01*
Y1078484D01*
X2283296Y1078060D01*
X2284565D01*
X2283719D02*
X2282872Y1077214D01*
X2282026Y1079330D02*
X2281603Y1079753D01*
X2280757D01*
X2280333Y1079330D01*
Y1078907D01*
X2280757Y1078484D01*
X2281180D01*
X2280757D01*
X2280333Y1078060D01*
Y1077637D01*
X2280757Y1077214D01*
X2281603D01*
X2282026Y1077637D01*
X2298954Y1399793D02*
X2298108D01*
X2298531D01*
Y1397254D01*
X2298954D01*
X2298108D01*
X2295145Y1399370D02*
X2295568Y1399793D01*
X2296415D01*
X2296838Y1399370D01*
Y1397677D01*
X2296415Y1397254D01*
X2295568D01*
X2295145Y1397677D01*
X2294299Y1397254D02*
X2293452D01*
X2293876D01*
Y1399793D01*
X2294299Y1399370D01*
X2292183Y1396831D02*
X2290490D01*
X2289644Y1399793D02*
X2287951Y1397254D01*
Y1399793D02*
X2289644Y1397254D01*
X2287104Y1399793D02*
Y1397254D01*
X2285412D01*
X2284565D02*
Y1399793D01*
X2283296D01*
X2282872Y1399370D01*
Y1398524D01*
X2283296Y1398100D01*
X2284565D01*
X2283719D02*
X2282872Y1397254D01*
X2280757D02*
Y1399793D01*
X2282026Y1398524D01*
X2280333D01*
X2225548Y759713D02*
X2224702D01*
X2225125D01*
Y757174D01*
X2225548D01*
X2224702D01*
X2221739Y759290D02*
X2222162Y759713D01*
X2223009D01*
X2223432Y759290D01*
Y757597D01*
X2223009Y757174D01*
X2222162D01*
X2221739Y757597D01*
X2219200Y757174D02*
X2220893D01*
X2219200Y758867D01*
Y759290D01*
X2219623Y759713D01*
X2220470D01*
X2220893Y759290D01*
X2218354Y756751D02*
X2216661D01*
X2215815Y759713D02*
X2214122Y757174D01*
Y759713D02*
X2215815Y757174D01*
X2213275Y759713D02*
Y757174D01*
X2211582D01*
X2210736D02*
Y759713D01*
X2209467D01*
X2209043Y759290D01*
Y758444D01*
X2209467Y758020D01*
X2210736D01*
X2209890D02*
X2209043Y757174D01*
X2206504D02*
X2208197D01*
X2206504Y758867D01*
Y759290D01*
X2206927Y759713D01*
X2207774D01*
X2208197Y759290D01*
X2225294Y1079753D02*
X2224448D01*
X2224871D01*
Y1077214D01*
X2225294D01*
X2224448D01*
X2221485Y1079330D02*
X2221908Y1079753D01*
X2222755D01*
X2223178Y1079330D01*
Y1077637D01*
X2222755Y1077214D01*
X2221908D01*
X2221485Y1077637D01*
X2218946Y1077214D02*
X2220639D01*
X2218946Y1078907D01*
Y1079330D01*
X2219369Y1079753D01*
X2220216D01*
X2220639Y1079330D01*
X2218100Y1076791D02*
X2216407D01*
X2215560Y1079753D02*
X2213868Y1077214D01*
Y1079753D02*
X2215560Y1077214D01*
X2213021Y1079753D02*
Y1077214D01*
X2211328D01*
X2210482D02*
Y1079753D01*
X2209212D01*
X2208789Y1079330D01*
Y1078484D01*
X2209212Y1078060D01*
X2210482D01*
X2209636D02*
X2208789Y1077214D01*
X2207943Y1079330D02*
X2207520Y1079753D01*
X2206673D01*
X2206250Y1079330D01*
Y1078907D01*
X2206673Y1078484D01*
X2207097D01*
X2206673D01*
X2206250Y1078060D01*
Y1077637D01*
X2206673Y1077214D01*
X2207520D01*
X2207943Y1077637D01*
X2225294Y1399793D02*
X2224448D01*
X2224871D01*
Y1397254D01*
X2225294D01*
X2224448D01*
X2221485Y1399370D02*
X2221908Y1399793D01*
X2222755D01*
X2223178Y1399370D01*
Y1397677D01*
X2222755Y1397254D01*
X2221908D01*
X2221485Y1397677D01*
X2218946Y1397254D02*
X2220639D01*
X2218946Y1398947D01*
Y1399370D01*
X2219369Y1399793D01*
X2220216D01*
X2220639Y1399370D01*
X2218100Y1396831D02*
X2216407D01*
X2215560Y1399793D02*
X2213868Y1397254D01*
Y1399793D02*
X2215560Y1397254D01*
X2213021Y1399793D02*
Y1397254D01*
X2211328D01*
X2210482D02*
Y1399793D01*
X2209212D01*
X2208789Y1399370D01*
Y1398524D01*
X2209212Y1398100D01*
X2210482D01*
X2209636D02*
X2208789Y1397254D01*
X2206673D02*
Y1399793D01*
X2207943Y1398524D01*
X2206250D01*
X2190698Y783499D02*
X2188159D01*
Y782230D01*
X2188582Y781806D01*
X2189428D01*
X2189852Y782230D01*
Y783499D01*
Y782653D02*
X2190698Y781806D01*
Y780960D02*
Y780114D01*
Y780537D01*
X2188159D01*
X2188582Y780960D01*
X2191121Y778844D02*
Y777151D01*
X2188159Y776305D02*
X2190698Y774612D01*
X2188159D02*
X2190698Y776305D01*
X2188159Y773766D02*
X2190698D01*
Y772073D01*
Y771226D02*
X2188159D01*
Y769957D01*
X2188582Y769534D01*
X2189428D01*
X2189852Y769957D01*
Y771226D01*
Y770380D02*
X2190698Y769534D01*
Y766994D02*
Y768687D01*
X2189005Y766994D01*
X2188582D01*
X2188159Y767418D01*
Y768264D01*
X2188582Y768687D01*
X2190378Y1103499D02*
X2187839D01*
Y1102230D01*
X2188262Y1101806D01*
X2189108D01*
X2189532Y1102230D01*
Y1103499D01*
Y1102653D02*
X2190378Y1101806D01*
Y1100960D02*
Y1100114D01*
Y1100537D01*
X2187839D01*
X2188262Y1100960D01*
X2190801Y1098844D02*
Y1097151D01*
X2187839Y1096305D02*
X2190378Y1094612D01*
X2187839D02*
X2190378Y1096305D01*
X2187839Y1093766D02*
X2190378D01*
Y1092073D01*
Y1091226D02*
X2187839D01*
Y1089957D01*
X2188262Y1089534D01*
X2189108D01*
X2189532Y1089957D01*
Y1091226D01*
Y1090380D02*
X2190378Y1089534D01*
X2188262Y1088687D02*
X2187839Y1088264D01*
Y1087418D01*
X2188262Y1086994D01*
X2188685D01*
X2189108Y1087418D01*
Y1087841D01*
Y1087418D01*
X2189532Y1086994D01*
X2189955D01*
X2190378Y1087418D01*
Y1088264D01*
X2189955Y1088687D01*
X2190378Y1423499D02*
X2187839D01*
Y1422230D01*
X2188262Y1421806D01*
X2189108D01*
X2189532Y1422230D01*
Y1423499D01*
Y1422653D02*
X2190378Y1421806D01*
Y1420960D02*
Y1420114D01*
Y1420537D01*
X2187839D01*
X2188262Y1420960D01*
X2190801Y1418844D02*
Y1417151D01*
X2187839Y1416305D02*
X2190378Y1414612D01*
X2187839D02*
X2190378Y1416305D01*
X2187839Y1413766D02*
X2190378D01*
Y1412073D01*
Y1411226D02*
X2187839D01*
Y1409957D01*
X2188262Y1409534D01*
X2189108D01*
X2189532Y1409957D01*
Y1411226D01*
Y1410380D02*
X2190378Y1409534D01*
Y1407418D02*
X2187839D01*
X2189108Y1408687D01*
Y1406994D01*
X2302002Y819658D02*
Y822197D01*
X2300732D01*
X2300309Y821774D01*
Y820928D01*
X2300732Y820504D01*
X2302002D01*
X2301156D02*
X2300309Y819658D01*
X2297770D02*
X2299463D01*
X2297770Y821351D01*
Y821774D01*
X2298193Y822197D01*
X2299040D01*
X2299463Y821774D01*
X2296924Y819235D02*
X2295231D01*
X2294384Y822197D02*
X2292692Y819658D01*
Y822197D02*
X2294384Y819658D01*
X2291845Y822197D02*
Y819658D01*
X2290152D01*
X2289306D02*
Y822197D01*
X2288036D01*
X2287613Y821774D01*
Y820928D01*
X2288036Y820504D01*
X2289306D01*
X2288460D02*
X2287613Y819658D01*
X2285074D02*
X2286767D01*
X2285074Y821351D01*
Y821774D01*
X2285497Y822197D01*
X2286344D01*
X2286767Y821774D01*
X2301748Y1139698D02*
Y1142237D01*
X2300478D01*
X2300055Y1141814D01*
Y1140968D01*
X2300478Y1140544D01*
X2301748D01*
X2300902D02*
X2300055Y1139698D01*
X2297516D02*
X2299209D01*
X2297516Y1141391D01*
Y1141814D01*
X2297939Y1142237D01*
X2298786D01*
X2299209Y1141814D01*
X2296670Y1139275D02*
X2294977D01*
X2294130Y1142237D02*
X2292438Y1139698D01*
Y1142237D02*
X2294130Y1139698D01*
X2291591Y1142237D02*
Y1139698D01*
X2289899D01*
X2289052D02*
Y1142237D01*
X2287782D01*
X2287359Y1141814D01*
Y1140968D01*
X2287782Y1140544D01*
X2289052D01*
X2288206D02*
X2287359Y1139698D01*
X2286513Y1141814D02*
X2286090Y1142237D01*
X2285243D01*
X2284820Y1141814D01*
Y1141391D01*
X2285243Y1140968D01*
X2285667D01*
X2285243D01*
X2284820Y1140544D01*
Y1140121D01*
X2285243Y1139698D01*
X2286090D01*
X2286513Y1140121D01*
X2301748Y1459738D02*
Y1462277D01*
X2300478D01*
X2300055Y1461854D01*
Y1461008D01*
X2300478Y1460584D01*
X2301748D01*
X2300902D02*
X2300055Y1459738D01*
X2297516D02*
X2299209D01*
X2297516Y1461431D01*
Y1461854D01*
X2297939Y1462277D01*
X2298786D01*
X2299209Y1461854D01*
X2296670Y1459315D02*
X2294977D01*
X2294130Y1462277D02*
X2292438Y1459738D01*
Y1462277D02*
X2294130Y1459738D01*
X2291591Y1462277D02*
Y1459738D01*
X2289899D01*
X2289052D02*
Y1462277D01*
X2287782D01*
X2287359Y1461854D01*
Y1461008D01*
X2287782Y1460584D01*
X2289052D01*
X2288206D02*
X2287359Y1459738D01*
X2285243D02*
Y1462277D01*
X2286513Y1461008D01*
X2284820D01*
X2216404Y790956D02*
Y793495D01*
X2215134D01*
X2214711Y793072D01*
Y792226D01*
X2215134Y791802D01*
X2216404D01*
X2215558D02*
X2214711Y790956D01*
X2213865Y793072D02*
X2213442Y793495D01*
X2212595D01*
X2212172Y793072D01*
Y792649D01*
X2212595Y792226D01*
X2213018D01*
X2212595D01*
X2212172Y791802D01*
Y791379D01*
X2212595Y790956D01*
X2213442D01*
X2213865Y791379D01*
X2211326Y790533D02*
X2209633D01*
X2208786Y793495D02*
X2207094Y790956D01*
Y793495D02*
X2208786Y790956D01*
X2206247Y793495D02*
Y790956D01*
X2204554D01*
X2203708D02*
Y793495D01*
X2202439D01*
X2202015Y793072D01*
Y792226D01*
X2202439Y791802D01*
X2203708D01*
X2202862D02*
X2202015Y790956D01*
X2199476D02*
X2201169D01*
X2199476Y792649D01*
Y793072D01*
X2199899Y793495D01*
X2200746D01*
X2201169Y793072D01*
X2216150Y1110996D02*
Y1113535D01*
X2214880D01*
X2214457Y1113112D01*
Y1112266D01*
X2214880Y1111842D01*
X2216150D01*
X2215304D02*
X2214457Y1110996D01*
X2213611Y1113112D02*
X2213188Y1113535D01*
X2212341D01*
X2211918Y1113112D01*
Y1112689D01*
X2212341Y1112266D01*
X2212764D01*
X2212341D01*
X2211918Y1111842D01*
Y1111419D01*
X2212341Y1110996D01*
X2213188D01*
X2213611Y1111419D01*
X2211072Y1110573D02*
X2209379D01*
X2208532Y1113535D02*
X2206840Y1110996D01*
Y1113535D02*
X2208532Y1110996D01*
X2205993Y1113535D02*
Y1110996D01*
X2204301D01*
X2203454D02*
Y1113535D01*
X2202184D01*
X2201761Y1113112D01*
Y1112266D01*
X2202184Y1111842D01*
X2203454D01*
X2202608D02*
X2201761Y1110996D01*
X2200915Y1113112D02*
X2200492Y1113535D01*
X2199645D01*
X2199222Y1113112D01*
Y1112689D01*
X2199645Y1112266D01*
X2200069D01*
X2199645D01*
X2199222Y1111842D01*
Y1111419D01*
X2199645Y1110996D01*
X2200492D01*
X2200915Y1111419D01*
X2216150Y1431036D02*
Y1433575D01*
X2214880D01*
X2214457Y1433152D01*
Y1432306D01*
X2214880Y1431882D01*
X2216150D01*
X2215304D02*
X2214457Y1431036D01*
X2213611Y1433152D02*
X2213188Y1433575D01*
X2212341D01*
X2211918Y1433152D01*
Y1432729D01*
X2212341Y1432306D01*
X2212764D01*
X2212341D01*
X2211918Y1431882D01*
Y1431459D01*
X2212341Y1431036D01*
X2213188D01*
X2213611Y1431459D01*
X2211072Y1430613D02*
X2209379D01*
X2208532Y1433575D02*
X2206840Y1431036D01*
Y1433575D02*
X2208532Y1431036D01*
X2205993Y1433575D02*
Y1431036D01*
X2204301D01*
X2203454D02*
Y1433575D01*
X2202184D01*
X2201761Y1433152D01*
Y1432306D01*
X2202184Y1431882D01*
X2203454D01*
X2202608D02*
X2201761Y1431036D01*
X2199645D02*
Y1433575D01*
X2200915Y1432306D01*
X2199222D01*
X2353818Y837946D02*
Y840485D01*
X2352548D01*
X2352125Y840062D01*
Y839216D01*
X2352548Y838792D01*
X2353818D01*
X2352972D02*
X2352125Y837946D01*
X2350009D02*
Y840485D01*
X2351279Y839216D01*
X2349586D01*
X2348740Y837523D02*
X2347047D01*
X2346200Y840485D02*
X2344508Y837946D01*
Y840485D02*
X2346200Y837946D01*
X2343661Y840485D02*
Y837946D01*
X2341969D01*
X2341122D02*
Y840485D01*
X2339852D01*
X2339429Y840062D01*
Y839216D01*
X2339852Y838792D01*
X2341122D01*
X2340276D02*
X2339429Y837946D01*
X2336890D02*
X2338583D01*
X2336890Y839639D01*
Y840062D01*
X2337313Y840485D01*
X2338160D01*
X2338583Y840062D01*
X2353564Y1157986D02*
Y1160525D01*
X2352294D01*
X2351871Y1160102D01*
Y1159256D01*
X2352294Y1158832D01*
X2353564D01*
X2352718D02*
X2351871Y1157986D01*
X2349755D02*
Y1160525D01*
X2351025Y1159256D01*
X2349332D01*
X2348486Y1157563D02*
X2346793D01*
X2345946Y1160525D02*
X2344254Y1157986D01*
Y1160525D02*
X2345946Y1157986D01*
X2343407Y1160525D02*
Y1157986D01*
X2341714D01*
X2340868D02*
Y1160525D01*
X2339599D01*
X2339175Y1160102D01*
Y1159256D01*
X2339599Y1158832D01*
X2340868D01*
X2340022D02*
X2339175Y1157986D01*
X2338329Y1160102D02*
X2337906Y1160525D01*
X2337059D01*
X2336636Y1160102D01*
Y1159679D01*
X2337059Y1159256D01*
X2337482D01*
X2337059D01*
X2336636Y1158832D01*
Y1158409D01*
X2337059Y1157986D01*
X2337906D01*
X2338329Y1158409D01*
X2353564Y1478026D02*
Y1480565D01*
X2352294D01*
X2351871Y1480142D01*
Y1479296D01*
X2352294Y1478872D01*
X2353564D01*
X2352718D02*
X2351871Y1478026D01*
X2349755D02*
Y1480565D01*
X2351025Y1479296D01*
X2349332D01*
X2348486Y1477603D02*
X2346793D01*
X2345946Y1480565D02*
X2344254Y1478026D01*
Y1480565D02*
X2345946Y1478026D01*
X2343407Y1480565D02*
Y1478026D01*
X2341714D01*
X2340868D02*
Y1480565D01*
X2339599D01*
X2339175Y1480142D01*
Y1479296D01*
X2339599Y1478872D01*
X2340868D01*
X2340022D02*
X2339175Y1478026D01*
X2337059D02*
Y1480565D01*
X2338329Y1479296D01*
X2336636D01*
X2284222Y664718D02*
Y667257D01*
X2282952D01*
X2282529Y666834D01*
Y665988D01*
X2282952Y665564D01*
X2284222D01*
X2283376D02*
X2282529Y664718D01*
X2279990Y667257D02*
X2281683D01*
Y665988D01*
X2280836Y666411D01*
X2280413D01*
X2279990Y665988D01*
Y665141D01*
X2280413Y664718D01*
X2281260D01*
X2281683Y665141D01*
X2279144Y664295D02*
X2277451D01*
X2276604Y667257D02*
X2274912Y664718D01*
Y667257D02*
X2276604Y664718D01*
X2274065Y667257D02*
Y664718D01*
X2272372D01*
X2271526D02*
Y667257D01*
X2270257D01*
X2269833Y666834D01*
Y665988D01*
X2270257Y665564D01*
X2271526D01*
X2270680D02*
X2269833Y664718D01*
X2267294D02*
X2268987D01*
X2267294Y666411D01*
Y666834D01*
X2267717Y667257D01*
X2268564D01*
X2268987Y666834D01*
X2283968Y984758D02*
Y987297D01*
X2282698D01*
X2282275Y986874D01*
Y986028D01*
X2282698Y985604D01*
X2283968D01*
X2283122D02*
X2282275Y984758D01*
X2279736Y987297D02*
X2281429D01*
Y986028D01*
X2280582Y986451D01*
X2280159D01*
X2279736Y986028D01*
Y985181D01*
X2280159Y984758D01*
X2281006D01*
X2281429Y985181D01*
X2278890Y984335D02*
X2277197D01*
X2276350Y987297D02*
X2274658Y984758D01*
Y987297D02*
X2276350Y984758D01*
X2273811Y987297D02*
Y984758D01*
X2272119D01*
X2271272D02*
Y987297D01*
X2270002D01*
X2269579Y986874D01*
Y986028D01*
X2270002Y985604D01*
X2271272D01*
X2270426D02*
X2269579Y984758D01*
X2268733Y986874D02*
X2268310Y987297D01*
X2267463D01*
X2267040Y986874D01*
Y986451D01*
X2267463Y986028D01*
X2267887D01*
X2267463D01*
X2267040Y985604D01*
Y985181D01*
X2267463Y984758D01*
X2268310D01*
X2268733Y985181D01*
X2283968Y1304798D02*
Y1307337D01*
X2282698D01*
X2282275Y1306914D01*
Y1306068D01*
X2282698Y1305644D01*
X2283968D01*
X2283122D02*
X2282275Y1304798D01*
X2279736Y1307337D02*
X2281429D01*
Y1306068D01*
X2280582Y1306491D01*
X2280159D01*
X2279736Y1306068D01*
Y1305221D01*
X2280159Y1304798D01*
X2281006D01*
X2281429Y1305221D01*
X2278890Y1304375D02*
X2277197D01*
X2276350Y1307337D02*
X2274658Y1304798D01*
Y1307337D02*
X2276350Y1304798D01*
X2273811Y1307337D02*
Y1304798D01*
X2272119D01*
X2271272D02*
Y1307337D01*
X2270002D01*
X2269579Y1306914D01*
Y1306068D01*
X2270002Y1305644D01*
X2271272D01*
X2270426D02*
X2269579Y1304798D01*
X2267463D02*
Y1307337D01*
X2268733Y1306068D01*
X2267040D01*
X2200910Y772668D02*
Y775207D01*
X2199640D01*
X2199217Y774784D01*
Y773938D01*
X2199640Y773514D01*
X2200910D01*
X2200064D02*
X2199217Y772668D01*
X2196678Y775207D02*
X2197524Y774784D01*
X2198371Y773938D01*
Y773091D01*
X2197948Y772668D01*
X2197101D01*
X2196678Y773091D01*
Y773514D01*
X2197101Y773938D01*
X2198371D01*
X2195832Y772245D02*
X2194139D01*
X2193292Y775207D02*
X2191600Y772668D01*
Y775207D02*
X2193292Y772668D01*
X2190753Y775207D02*
Y772668D01*
X2189061D01*
X2188214D02*
Y775207D01*
X2186944D01*
X2186521Y774784D01*
Y773938D01*
X2186944Y773514D01*
X2188214D01*
X2187368D02*
X2186521Y772668D01*
X2183982D02*
X2185675D01*
X2183982Y774361D01*
Y774784D01*
X2184405Y775207D01*
X2185252D01*
X2185675Y774784D01*
X2200402Y1092708D02*
Y1095247D01*
X2199132D01*
X2198709Y1094824D01*
Y1093978D01*
X2199132Y1093554D01*
X2200402D01*
X2199556D02*
X2198709Y1092708D01*
X2196170Y1095247D02*
X2197016Y1094824D01*
X2197863Y1093978D01*
Y1093131D01*
X2197440Y1092708D01*
X2196593D01*
X2196170Y1093131D01*
Y1093554D01*
X2196593Y1093978D01*
X2197863D01*
X2195324Y1092285D02*
X2193631D01*
X2192784Y1095247D02*
X2191092Y1092708D01*
Y1095247D02*
X2192784Y1092708D01*
X2190245Y1095247D02*
Y1092708D01*
X2188553D01*
X2187706D02*
Y1095247D01*
X2186436D01*
X2186013Y1094824D01*
Y1093978D01*
X2186436Y1093554D01*
X2187706D01*
X2186860D02*
X2186013Y1092708D01*
X2185167Y1094824D02*
X2184744Y1095247D01*
X2183897D01*
X2183474Y1094824D01*
Y1094401D01*
X2183897Y1093978D01*
X2184321D01*
X2183897D01*
X2183474Y1093554D01*
Y1093131D01*
X2183897Y1092708D01*
X2184744D01*
X2185167Y1093131D01*
X2200402Y1412748D02*
Y1415287D01*
X2199132D01*
X2198709Y1414864D01*
Y1414018D01*
X2199132Y1413594D01*
X2200402D01*
X2199556D02*
X2198709Y1412748D01*
X2196170Y1415287D02*
X2197016Y1414864D01*
X2197863Y1414018D01*
Y1413171D01*
X2197440Y1412748D01*
X2196593D01*
X2196170Y1413171D01*
Y1413594D01*
X2196593Y1414018D01*
X2197863D01*
X2195324Y1412325D02*
X2193631D01*
X2192784Y1415287D02*
X2191092Y1412748D01*
Y1415287D02*
X2192784Y1412748D01*
X2190245Y1415287D02*
Y1412748D01*
X2188553D01*
X2187706D02*
Y1415287D01*
X2186436D01*
X2186013Y1414864D01*
Y1414018D01*
X2186436Y1413594D01*
X2187706D01*
X2186860D02*
X2186013Y1412748D01*
X2183897D02*
Y1415287D01*
X2185167Y1414018D01*
X2183474D01*
X2267204Y819658D02*
Y822197D01*
X2265934D01*
X2265511Y821774D01*
Y820928D01*
X2265934Y820504D01*
X2267204D01*
X2266358D02*
X2265511Y819658D01*
X2264665Y822197D02*
X2262972D01*
Y821774D01*
X2264665Y820081D01*
Y819658D01*
X2262126Y819235D02*
X2260433D01*
X2259586Y822197D02*
X2257894Y819658D01*
Y822197D02*
X2259586Y819658D01*
X2257047Y822197D02*
Y819658D01*
X2255354D01*
X2254508D02*
Y822197D01*
X2253239D01*
X2252815Y821774D01*
Y820928D01*
X2253239Y820504D01*
X2254508D01*
X2253662D02*
X2252815Y819658D01*
X2250276D02*
X2251969D01*
X2250276Y821351D01*
Y821774D01*
X2250699Y822197D01*
X2251546D01*
X2251969Y821774D01*
X2266950Y1139698D02*
Y1142237D01*
X2265680D01*
X2265257Y1141814D01*
Y1140968D01*
X2265680Y1140544D01*
X2266950D01*
X2266104D02*
X2265257Y1139698D01*
X2264411Y1142237D02*
X2262718D01*
Y1141814D01*
X2264411Y1140121D01*
Y1139698D01*
X2261872Y1139275D02*
X2260179D01*
X2259332Y1142237D02*
X2257640Y1139698D01*
Y1142237D02*
X2259332Y1139698D01*
X2256793Y1142237D02*
Y1139698D01*
X2255101D01*
X2254254D02*
Y1142237D01*
X2252984D01*
X2252561Y1141814D01*
Y1140968D01*
X2252984Y1140544D01*
X2254254D01*
X2253408D02*
X2252561Y1139698D01*
X2251715Y1141814D02*
X2251292Y1142237D01*
X2250445D01*
X2250022Y1141814D01*
Y1141391D01*
X2250445Y1140968D01*
X2250869D01*
X2250445D01*
X2250022Y1140544D01*
Y1140121D01*
X2250445Y1139698D01*
X2251292D01*
X2251715Y1140121D01*
X2266950Y1459738D02*
Y1462277D01*
X2265680D01*
X2265257Y1461854D01*
Y1461008D01*
X2265680Y1460584D01*
X2266950D01*
X2266104D02*
X2265257Y1459738D01*
X2264411Y1462277D02*
X2262718D01*
Y1461854D01*
X2264411Y1460161D01*
Y1459738D01*
X2261872Y1459315D02*
X2260179D01*
X2259332Y1462277D02*
X2257640Y1459738D01*
Y1462277D02*
X2259332Y1459738D01*
X2256793Y1462277D02*
Y1459738D01*
X2255101D01*
X2254254D02*
Y1462277D01*
X2252984D01*
X2252561Y1461854D01*
Y1461008D01*
X2252984Y1460584D01*
X2254254D01*
X2253408D02*
X2252561Y1459738D01*
X2250445D02*
Y1462277D01*
X2251715Y1461008D01*
X2250022D01*
X2266442Y786638D02*
Y789177D01*
X2265172D01*
X2264749Y788754D01*
Y787908D01*
X2265172Y787484D01*
X2266442D01*
X2265596D02*
X2264749Y786638D01*
X2263903Y788754D02*
X2263480Y789177D01*
X2262633D01*
X2262210Y788754D01*
Y788331D01*
X2262633Y787908D01*
X2262210Y787484D01*
Y787061D01*
X2262633Y786638D01*
X2263480D01*
X2263903Y787061D01*
Y787484D01*
X2263480Y787908D01*
X2263903Y788331D01*
Y788754D01*
X2263480Y787908D02*
X2262633D01*
X2261364Y786215D02*
X2259671D01*
X2258824Y789177D02*
X2257132Y786638D01*
Y789177D02*
X2258824Y786638D01*
X2256285Y789177D02*
Y786638D01*
X2254592D01*
X2253746D02*
Y789177D01*
X2252477D01*
X2252053Y788754D01*
Y787908D01*
X2252477Y787484D01*
X2253746D01*
X2252900D02*
X2252053Y786638D01*
X2249514D02*
X2251207D01*
X2249514Y788331D01*
Y788754D01*
X2249937Y789177D01*
X2250784D01*
X2251207Y788754D01*
X2266188Y1106678D02*
Y1109217D01*
X2264918D01*
X2264495Y1108794D01*
Y1107948D01*
X2264918Y1107524D01*
X2266188D01*
X2265342D02*
X2264495Y1106678D01*
X2263649Y1108794D02*
X2263226Y1109217D01*
X2262379D01*
X2261956Y1108794D01*
Y1108371D01*
X2262379Y1107948D01*
X2261956Y1107524D01*
Y1107101D01*
X2262379Y1106678D01*
X2263226D01*
X2263649Y1107101D01*
Y1107524D01*
X2263226Y1107948D01*
X2263649Y1108371D01*
Y1108794D01*
X2263226Y1107948D02*
X2262379D01*
X2261110Y1106255D02*
X2259417D01*
X2258570Y1109217D02*
X2256878Y1106678D01*
Y1109217D02*
X2258570Y1106678D01*
X2256031Y1109217D02*
Y1106678D01*
X2254339D01*
X2253492D02*
Y1109217D01*
X2252222D01*
X2251799Y1108794D01*
Y1107948D01*
X2252222Y1107524D01*
X2253492D01*
X2252646D02*
X2251799Y1106678D01*
X2250953Y1108794D02*
X2250530Y1109217D01*
X2249683D01*
X2249260Y1108794D01*
Y1108371D01*
X2249683Y1107948D01*
X2250107D01*
X2249683D01*
X2249260Y1107524D01*
Y1107101D01*
X2249683Y1106678D01*
X2250530D01*
X2250953Y1107101D01*
X2266188Y1426718D02*
Y1429257D01*
X2264918D01*
X2264495Y1428834D01*
Y1427988D01*
X2264918Y1427564D01*
X2266188D01*
X2265342D02*
X2264495Y1426718D01*
X2263649Y1428834D02*
X2263226Y1429257D01*
X2262379D01*
X2261956Y1428834D01*
Y1428411D01*
X2262379Y1427988D01*
X2261956Y1427564D01*
Y1427141D01*
X2262379Y1426718D01*
X2263226D01*
X2263649Y1427141D01*
Y1427564D01*
X2263226Y1427988D01*
X2263649Y1428411D01*
Y1428834D01*
X2263226Y1427988D02*
X2262379D01*
X2261110Y1426295D02*
X2259417D01*
X2258570Y1429257D02*
X2256878Y1426718D01*
Y1429257D02*
X2258570Y1426718D01*
X2256031Y1429257D02*
Y1426718D01*
X2254339D01*
X2253492D02*
Y1429257D01*
X2252222D01*
X2251799Y1428834D01*
Y1427988D01*
X2252222Y1427564D01*
X2253492D01*
X2252646D02*
X2251799Y1426718D01*
X2249683D02*
Y1429257D01*
X2250953Y1427988D01*
X2249260D01*
X2300224Y664718D02*
Y667257D01*
X2298954D01*
X2298531Y666834D01*
Y665988D01*
X2298954Y665564D01*
X2300224D01*
X2299378D02*
X2298531Y664718D01*
X2297685Y665141D02*
X2297262Y664718D01*
X2296415D01*
X2295992Y665141D01*
Y666834D01*
X2296415Y667257D01*
X2297262D01*
X2297685Y666834D01*
Y666411D01*
X2297262Y665988D01*
X2295992D01*
X2295146Y664295D02*
X2293453D01*
X2292606Y667257D02*
X2290914Y664718D01*
Y667257D02*
X2292606Y664718D01*
X2290067Y667257D02*
Y664718D01*
X2288374D01*
X2287528D02*
Y667257D01*
X2286259D01*
X2285835Y666834D01*
Y665988D01*
X2286259Y665564D01*
X2287528D01*
X2286682D02*
X2285835Y664718D01*
X2283296D02*
X2284989D01*
X2283296Y666411D01*
Y666834D01*
X2283719Y667257D01*
X2284566D01*
X2284989Y666834D01*
X2299970Y984758D02*
Y987297D01*
X2298700D01*
X2298277Y986874D01*
Y986028D01*
X2298700Y985604D01*
X2299970D01*
X2299124D02*
X2298277Y984758D01*
X2297431Y985181D02*
X2297008Y984758D01*
X2296161D01*
X2295738Y985181D01*
Y986874D01*
X2296161Y987297D01*
X2297008D01*
X2297431Y986874D01*
Y986451D01*
X2297008Y986028D01*
X2295738D01*
X2294892Y984335D02*
X2293199D01*
X2292352Y987297D02*
X2290660Y984758D01*
Y987297D02*
X2292352Y984758D01*
X2289813Y987297D02*
Y984758D01*
X2288121D01*
X2287274D02*
Y987297D01*
X2286004D01*
X2285581Y986874D01*
Y986028D01*
X2286004Y985604D01*
X2287274D01*
X2286428D02*
X2285581Y984758D01*
X2284735Y986874D02*
X2284312Y987297D01*
X2283465D01*
X2283042Y986874D01*
Y986451D01*
X2283465Y986028D01*
X2283889D01*
X2283465D01*
X2283042Y985604D01*
Y985181D01*
X2283465Y984758D01*
X2284312D01*
X2284735Y985181D01*
X2299970Y1304798D02*
Y1307337D01*
X2298700D01*
X2298277Y1306914D01*
Y1306068D01*
X2298700Y1305644D01*
X2299970D01*
X2299124D02*
X2298277Y1304798D01*
X2297431Y1305221D02*
X2297008Y1304798D01*
X2296161D01*
X2295738Y1305221D01*
Y1306914D01*
X2296161Y1307337D01*
X2297008D01*
X2297431Y1306914D01*
Y1306491D01*
X2297008Y1306068D01*
X2295738D01*
X2294892Y1304375D02*
X2293199D01*
X2292352Y1307337D02*
X2290660Y1304798D01*
Y1307337D02*
X2292352Y1304798D01*
X2289813Y1307337D02*
Y1304798D01*
X2288121D01*
X2287274D02*
Y1307337D01*
X2286004D01*
X2285581Y1306914D01*
Y1306068D01*
X2286004Y1305644D01*
X2287274D01*
X2286428D02*
X2285581Y1304798D01*
X2283465D02*
Y1307337D01*
X2284735Y1306068D01*
X2283042D01*
X2203704Y678688D02*
Y681227D01*
X2202434D01*
X2202011Y680804D01*
Y679958D01*
X2202434Y679534D01*
X2203704D01*
X2202858D02*
X2202011Y678688D01*
X2201165D02*
X2200318D01*
X2200742D01*
Y681227D01*
X2201165Y680804D01*
X2199049D02*
X2198626Y681227D01*
X2197779D01*
X2197356Y680804D01*
Y679111D01*
X2197779Y678688D01*
X2198626D01*
X2199049Y679111D01*
Y680804D01*
X2196510Y678265D02*
X2194817D01*
X2193970Y681227D02*
X2192278Y678688D01*
Y681227D02*
X2193970Y678688D01*
X2191431Y681227D02*
Y678688D01*
X2189738D01*
X2188892D02*
Y681227D01*
X2187623D01*
X2187199Y680804D01*
Y679958D01*
X2187623Y679534D01*
X2188892D01*
X2188046D02*
X2187199Y678688D01*
X2184660D02*
X2186353D01*
X2184660Y680381D01*
Y680804D01*
X2185083Y681227D01*
X2185930D01*
X2186353Y680804D01*
X2203450Y998728D02*
Y1001267D01*
X2202180D01*
X2201757Y1000844D01*
Y999998D01*
X2202180Y999574D01*
X2203450D01*
X2202604D02*
X2201757Y998728D01*
X2200911D02*
X2200064D01*
X2200488D01*
Y1001267D01*
X2200911Y1000844D01*
X2198795D02*
X2198372Y1001267D01*
X2197525D01*
X2197102Y1000844D01*
Y999151D01*
X2197525Y998728D01*
X2198372D01*
X2198795Y999151D01*
Y1000844D01*
X2196256Y998305D02*
X2194563D01*
X2193716Y1001267D02*
X2192024Y998728D01*
Y1001267D02*
X2193716Y998728D01*
X2191177Y1001267D02*
Y998728D01*
X2189485D01*
X2188638D02*
Y1001267D01*
X2187368D01*
X2186945Y1000844D01*
Y999998D01*
X2187368Y999574D01*
X2188638D01*
X2187792D02*
X2186945Y998728D01*
X2186099Y1000844D02*
X2185676Y1001267D01*
X2184829D01*
X2184406Y1000844D01*
Y1000421D01*
X2184829Y999998D01*
X2185253D01*
X2184829D01*
X2184406Y999574D01*
Y999151D01*
X2184829Y998728D01*
X2185676D01*
X2186099Y999151D01*
X2203450Y1318768D02*
Y1321307D01*
X2202180D01*
X2201757Y1320884D01*
Y1320038D01*
X2202180Y1319614D01*
X2203450D01*
X2202604D02*
X2201757Y1318768D01*
X2200911D02*
X2200064D01*
X2200488D01*
Y1321307D01*
X2200911Y1320884D01*
X2198795D02*
X2198372Y1321307D01*
X2197525D01*
X2197102Y1320884D01*
Y1319191D01*
X2197525Y1318768D01*
X2198372D01*
X2198795Y1319191D01*
Y1320884D01*
X2196256Y1318345D02*
X2194563D01*
X2193716Y1321307D02*
X2192024Y1318768D01*
Y1321307D02*
X2193716Y1318768D01*
X2191177Y1321307D02*
Y1318768D01*
X2189485D01*
X2188638D02*
Y1321307D01*
X2187368D01*
X2186945Y1320884D01*
Y1320038D01*
X2187368Y1319614D01*
X2188638D01*
X2187792D02*
X2186945Y1318768D01*
X2184829D02*
Y1321307D01*
X2186099Y1320038D01*
X2184406D01*
X2302002Y786638D02*
Y789177D01*
X2300732D01*
X2300309Y788754D01*
Y787908D01*
X2300732Y787484D01*
X2302002D01*
X2301156D02*
X2300309Y786638D01*
X2299463D02*
X2298616D01*
X2299040D01*
Y789177D01*
X2299463Y788754D01*
X2297347Y786638D02*
X2296500D01*
X2296924D01*
Y789177D01*
X2297347Y788754D01*
X2295231Y786215D02*
X2293538D01*
X2292692Y789177D02*
X2290999Y786638D01*
Y789177D02*
X2292692Y786638D01*
X2290152Y789177D02*
Y786638D01*
X2288460D01*
X2287613D02*
Y789177D01*
X2286344D01*
X2285921Y788754D01*
Y787908D01*
X2286344Y787484D01*
X2287613D01*
X2286767D02*
X2285921Y786638D01*
X2283381D02*
X2285074D01*
X2283381Y788331D01*
Y788754D01*
X2283804Y789177D01*
X2284651D01*
X2285074Y788754D01*
X2301748Y1106678D02*
Y1109217D01*
X2300478D01*
X2300055Y1108794D01*
Y1107948D01*
X2300478Y1107524D01*
X2301748D01*
X2300902D02*
X2300055Y1106678D01*
X2299209D02*
X2298362D01*
X2298786D01*
Y1109217D01*
X2299209Y1108794D01*
X2297093Y1106678D02*
X2296246D01*
X2296670D01*
Y1109217D01*
X2297093Y1108794D01*
X2294977Y1106255D02*
X2293284D01*
X2292438Y1109217D02*
X2290745Y1106678D01*
Y1109217D02*
X2292438Y1106678D01*
X2289899Y1109217D02*
Y1106678D01*
X2288206D01*
X2287359D02*
Y1109217D01*
X2286090D01*
X2285667Y1108794D01*
Y1107948D01*
X2286090Y1107524D01*
X2287359D01*
X2286513D02*
X2285667Y1106678D01*
X2284820Y1108794D02*
X2284397Y1109217D01*
X2283551D01*
X2283127Y1108794D01*
Y1108371D01*
X2283551Y1107948D01*
X2283974D01*
X2283551D01*
X2283127Y1107524D01*
Y1107101D01*
X2283551Y1106678D01*
X2284397D01*
X2284820Y1107101D01*
X2301748Y1426718D02*
Y1429257D01*
X2300478D01*
X2300055Y1428834D01*
Y1427988D01*
X2300478Y1427564D01*
X2301748D01*
X2300902D02*
X2300055Y1426718D01*
X2299209D02*
X2298362D01*
X2298786D01*
Y1429257D01*
X2299209Y1428834D01*
X2297093Y1426718D02*
X2296246D01*
X2296670D01*
Y1429257D01*
X2297093Y1428834D01*
X2294977Y1426295D02*
X2293284D01*
X2292438Y1429257D02*
X2290745Y1426718D01*
Y1429257D02*
X2292438Y1426718D01*
X2289899Y1429257D02*
Y1426718D01*
X2288206D01*
X2287359D02*
Y1429257D01*
X2286090D01*
X2285667Y1428834D01*
Y1427988D01*
X2286090Y1427564D01*
X2287359D01*
X2286513D02*
X2285667Y1426718D01*
X2283551D02*
Y1429257D01*
X2284820Y1427988D01*
X2283127D01*
X2229104Y790956D02*
Y793495D01*
X2227834D01*
X2227411Y793072D01*
Y792226D01*
X2227834Y791802D01*
X2229104D01*
X2228258D02*
X2227411Y790956D01*
X2226565D02*
X2225718D01*
X2226142D01*
Y793495D01*
X2226565Y793072D01*
X2224449D02*
X2224026Y793495D01*
X2223179D01*
X2222756Y793072D01*
Y792649D01*
X2223179Y792226D01*
X2223602D01*
X2223179D01*
X2222756Y791802D01*
Y791379D01*
X2223179Y790956D01*
X2224026D01*
X2224449Y791379D01*
X2221910Y790533D02*
X2220217D01*
X2219371Y793495D02*
X2217678Y790956D01*
Y793495D02*
X2219371Y790956D01*
X2216831Y793495D02*
Y790956D01*
X2215139D01*
X2214292D02*
Y793495D01*
X2213022D01*
X2212599Y793072D01*
Y792226D01*
X2213022Y791802D01*
X2214292D01*
X2213446D02*
X2212599Y790956D01*
X2210060D02*
X2211753D01*
X2210060Y792649D01*
Y793072D01*
X2210483Y793495D01*
X2211330D01*
X2211753Y793072D01*
X2228850Y1110996D02*
Y1113535D01*
X2227580D01*
X2227157Y1113112D01*
Y1112266D01*
X2227580Y1111842D01*
X2228850D01*
X2228004D02*
X2227157Y1110996D01*
X2226311D02*
X2225464D01*
X2225888D01*
Y1113535D01*
X2226311Y1113112D01*
X2224195D02*
X2223772Y1113535D01*
X2222925D01*
X2222502Y1113112D01*
Y1112689D01*
X2222925Y1112266D01*
X2223348D01*
X2222925D01*
X2222502Y1111842D01*
Y1111419D01*
X2222925Y1110996D01*
X2223772D01*
X2224195Y1111419D01*
X2221656Y1110573D02*
X2219963D01*
X2219117Y1113535D02*
X2217424Y1110996D01*
Y1113535D02*
X2219117Y1110996D01*
X2216577Y1113535D02*
Y1110996D01*
X2214884D01*
X2214038D02*
Y1113535D01*
X2212769D01*
X2212345Y1113112D01*
Y1112266D01*
X2212769Y1111842D01*
X2214038D01*
X2213192D02*
X2212345Y1110996D01*
X2211499Y1113112D02*
X2211076Y1113535D01*
X2210229D01*
X2209806Y1113112D01*
Y1112689D01*
X2210229Y1112266D01*
X2210652D01*
X2210229D01*
X2209806Y1111842D01*
Y1111419D01*
X2210229Y1110996D01*
X2211076D01*
X2211499Y1111419D01*
X2228850Y1431036D02*
Y1433575D01*
X2227580D01*
X2227157Y1433152D01*
Y1432306D01*
X2227580Y1431882D01*
X2228850D01*
X2228004D02*
X2227157Y1431036D01*
X2226311D02*
X2225464D01*
X2225888D01*
Y1433575D01*
X2226311Y1433152D01*
X2224195D02*
X2223772Y1433575D01*
X2222925D01*
X2222502Y1433152D01*
Y1432729D01*
X2222925Y1432306D01*
X2223348D01*
X2222925D01*
X2222502Y1431882D01*
Y1431459D01*
X2222925Y1431036D01*
X2223772D01*
X2224195Y1431459D01*
X2221656Y1430613D02*
X2219963D01*
X2219117Y1433575D02*
X2217424Y1431036D01*
Y1433575D02*
X2219117Y1431036D01*
X2216577Y1433575D02*
Y1431036D01*
X2214884D01*
X2214038D02*
Y1433575D01*
X2212769D01*
X2212345Y1433152D01*
Y1432306D01*
X2212769Y1431882D01*
X2214038D01*
X2213192D02*
X2212345Y1431036D01*
X2210229D02*
Y1433575D01*
X2211499Y1432306D01*
X2209806D01*
X2224024Y679958D02*
Y682497D01*
X2222754D01*
X2222331Y682074D01*
Y681228D01*
X2222754Y680804D01*
X2224024D01*
X2223178D02*
X2222331Y679958D01*
X2221485D02*
X2220638D01*
X2221062D01*
Y682497D01*
X2221485Y682074D01*
X2219369Y682497D02*
X2217676D01*
Y682074D01*
X2219369Y680381D01*
Y679958D01*
X2216830Y679535D02*
X2215137D01*
X2214290Y682497D02*
X2212598Y679958D01*
Y682497D02*
X2214290Y679958D01*
X2211751Y682497D02*
Y679958D01*
X2210058D01*
X2209212D02*
Y682497D01*
X2207943D01*
X2207519Y682074D01*
Y681228D01*
X2207943Y680804D01*
X2209212D01*
X2208366D02*
X2207519Y679958D01*
X2204980D02*
X2206673D01*
X2204980Y681651D01*
Y682074D01*
X2205403Y682497D01*
X2206250D01*
X2206673Y682074D01*
X2223770Y999998D02*
Y1002537D01*
X2222500D01*
X2222077Y1002114D01*
Y1001268D01*
X2222500Y1000844D01*
X2223770D01*
X2222924D02*
X2222077Y999998D01*
X2221231D02*
X2220384D01*
X2220808D01*
Y1002537D01*
X2221231Y1002114D01*
X2219115Y1002537D02*
X2217422D01*
Y1002114D01*
X2219115Y1000421D01*
Y999998D01*
X2216576Y999575D02*
X2214883D01*
X2214037Y1002537D02*
X2212344Y999998D01*
Y1002537D02*
X2214037Y999998D01*
X2211497Y1002537D02*
Y999998D01*
X2209805D01*
X2208958D02*
Y1002537D01*
X2207688D01*
X2207265Y1002114D01*
Y1001268D01*
X2207688Y1000844D01*
X2208958D01*
X2208112D02*
X2207265Y999998D01*
X2206419Y1002114D02*
X2205996Y1002537D01*
X2205149D01*
X2204726Y1002114D01*
Y1001691D01*
X2205149Y1001268D01*
X2205573D01*
X2205149D01*
X2204726Y1000844D01*
Y1000421D01*
X2205149Y999998D01*
X2205996D01*
X2206419Y1000421D01*
X2223770Y1320038D02*
Y1322577D01*
X2222500D01*
X2222077Y1322154D01*
Y1321308D01*
X2222500Y1320884D01*
X2223770D01*
X2222924D02*
X2222077Y1320038D01*
X2221231D02*
X2220384D01*
X2220808D01*
Y1322577D01*
X2221231Y1322154D01*
X2219115Y1322577D02*
X2217422D01*
Y1322154D01*
X2219115Y1320461D01*
Y1320038D01*
X2216576Y1319615D02*
X2214883D01*
X2214037Y1322577D02*
X2212344Y1320038D01*
Y1322577D02*
X2214037Y1320038D01*
X2211497Y1322577D02*
Y1320038D01*
X2209805D01*
X2208958D02*
Y1322577D01*
X2207688D01*
X2207265Y1322154D01*
Y1321308D01*
X2207688Y1320884D01*
X2208958D01*
X2208112D02*
X2207265Y1320038D01*
X2205149D02*
Y1322577D01*
X2206419Y1321308D01*
X2204726D01*
X2204720Y629158D02*
Y631697D01*
X2203450D01*
X2203027Y631274D01*
Y630428D01*
X2203450Y630004D01*
X2204720D01*
X2203874D02*
X2203027Y629158D01*
X2202181D02*
X2201334D01*
X2201758D01*
Y631697D01*
X2202181Y631274D01*
X2200065D02*
X2199642Y631697D01*
X2198795D01*
X2198372Y631274D01*
Y630851D01*
X2198795Y630428D01*
X2198372Y630004D01*
Y629581D01*
X2198795Y629158D01*
X2199642D01*
X2200065Y629581D01*
Y630004D01*
X2199642Y630428D01*
X2200065Y630851D01*
Y631274D01*
X2199642Y630428D02*
X2198795D01*
X2197526Y628735D02*
X2195833D01*
X2194987Y631697D02*
X2193294Y629158D01*
Y631697D02*
X2194987Y629158D01*
X2192447Y631697D02*
Y629158D01*
X2190755D01*
X2189908D02*
Y631697D01*
X2188638D01*
X2188215Y631274D01*
Y630428D01*
X2188638Y630004D01*
X2189908D01*
X2189062D02*
X2188215Y629158D01*
X2185676D02*
X2187369D01*
X2185676Y630851D01*
Y631274D01*
X2186099Y631697D01*
X2186946D01*
X2187369Y631274D01*
X2204212Y949198D02*
Y951737D01*
X2202942D01*
X2202519Y951314D01*
Y950468D01*
X2202942Y950044D01*
X2204212D01*
X2203366D02*
X2202519Y949198D01*
X2201673D02*
X2200826D01*
X2201250D01*
Y951737D01*
X2201673Y951314D01*
X2199557D02*
X2199134Y951737D01*
X2198287D01*
X2197864Y951314D01*
Y950891D01*
X2198287Y950468D01*
X2197864Y950044D01*
Y949621D01*
X2198287Y949198D01*
X2199134D01*
X2199557Y949621D01*
Y950044D01*
X2199134Y950468D01*
X2199557Y950891D01*
Y951314D01*
X2199134Y950468D02*
X2198287D01*
X2197018Y948775D02*
X2195325D01*
X2194478Y951737D02*
X2192786Y949198D01*
Y951737D02*
X2194478Y949198D01*
X2191939Y951737D02*
Y949198D01*
X2190246D01*
X2189400D02*
Y951737D01*
X2188130D01*
X2187707Y951314D01*
Y950468D01*
X2188130Y950044D01*
X2189400D01*
X2188554D02*
X2187707Y949198D01*
X2186861Y951314D02*
X2186438Y951737D01*
X2185591D01*
X2185168Y951314D01*
Y950891D01*
X2185591Y950468D01*
X2186015D01*
X2185591D01*
X2185168Y950044D01*
Y949621D01*
X2185591Y949198D01*
X2186438D01*
X2186861Y949621D01*
X2204212Y1269238D02*
Y1271777D01*
X2202942D01*
X2202519Y1271354D01*
Y1270508D01*
X2202942Y1270084D01*
X2204212D01*
X2203366D02*
X2202519Y1269238D01*
X2201673D02*
X2200826D01*
X2201250D01*
Y1271777D01*
X2201673Y1271354D01*
X2199557D02*
X2199134Y1271777D01*
X2198287D01*
X2197864Y1271354D01*
Y1270931D01*
X2198287Y1270508D01*
X2197864Y1270084D01*
Y1269661D01*
X2198287Y1269238D01*
X2199134D01*
X2199557Y1269661D01*
Y1270084D01*
X2199134Y1270508D01*
X2199557Y1270931D01*
Y1271354D01*
X2199134Y1270508D02*
X2198287D01*
X2197018Y1268815D02*
X2195325D01*
X2194478Y1271777D02*
X2192786Y1269238D01*
Y1271777D02*
X2194478Y1269238D01*
X2191939Y1271777D02*
Y1269238D01*
X2190246D01*
X2189400D02*
Y1271777D01*
X2188130D01*
X2187707Y1271354D01*
Y1270508D01*
X2188130Y1270084D01*
X2189400D01*
X2188554D02*
X2187707Y1269238D01*
X2185591D02*
Y1271777D01*
X2186861Y1270508D01*
X2185168D01*
X2239264Y679958D02*
Y682497D01*
X2237994D01*
X2237571Y682074D01*
Y681228D01*
X2237994Y680804D01*
X2239264D01*
X2238418D02*
X2237571Y679958D01*
X2236725D02*
X2235878D01*
X2236302D01*
Y682497D01*
X2236725Y682074D01*
X2234609Y680381D02*
X2234186Y679958D01*
X2233339D01*
X2232916Y680381D01*
Y682074D01*
X2233339Y682497D01*
X2234186D01*
X2234609Y682074D01*
Y681651D01*
X2234186Y681228D01*
X2232916D01*
X2232070Y679535D02*
X2230377D01*
X2229530Y682497D02*
X2227838Y679958D01*
Y682497D02*
X2229530Y679958D01*
X2226991Y682497D02*
Y679958D01*
X2225298D01*
X2224452D02*
Y682497D01*
X2223183D01*
X2222759Y682074D01*
Y681228D01*
X2223183Y680804D01*
X2224452D01*
X2223606D02*
X2222759Y679958D01*
X2220220D02*
X2221913D01*
X2220220Y681651D01*
Y682074D01*
X2220643Y682497D01*
X2221490D01*
X2221913Y682074D01*
X2239010Y999998D02*
Y1002537D01*
X2237740D01*
X2237317Y1002114D01*
Y1001268D01*
X2237740Y1000844D01*
X2239010D01*
X2238164D02*
X2237317Y999998D01*
X2236471D02*
X2235624D01*
X2236048D01*
Y1002537D01*
X2236471Y1002114D01*
X2234355Y1000421D02*
X2233932Y999998D01*
X2233085D01*
X2232662Y1000421D01*
Y1002114D01*
X2233085Y1002537D01*
X2233932D01*
X2234355Y1002114D01*
Y1001691D01*
X2233932Y1001268D01*
X2232662D01*
X2231816Y999575D02*
X2230123D01*
X2229276Y1002537D02*
X2227584Y999998D01*
Y1002537D02*
X2229276Y999998D01*
X2226737Y1002537D02*
Y999998D01*
X2225045D01*
X2224198D02*
Y1002537D01*
X2222928D01*
X2222505Y1002114D01*
Y1001268D01*
X2222928Y1000844D01*
X2224198D01*
X2223352D02*
X2222505Y999998D01*
X2221659Y1002114D02*
X2221236Y1002537D01*
X2220389D01*
X2219966Y1002114D01*
Y1001691D01*
X2220389Y1001268D01*
X2220813D01*
X2220389D01*
X2219966Y1000844D01*
Y1000421D01*
X2220389Y999998D01*
X2221236D01*
X2221659Y1000421D01*
X2239010Y1320038D02*
Y1322577D01*
X2237740D01*
X2237317Y1322154D01*
Y1321308D01*
X2237740Y1320884D01*
X2239010D01*
X2238164D02*
X2237317Y1320038D01*
X2236471D02*
X2235624D01*
X2236048D01*
Y1322577D01*
X2236471Y1322154D01*
X2234355Y1320461D02*
X2233932Y1320038D01*
X2233085D01*
X2232662Y1320461D01*
Y1322154D01*
X2233085Y1322577D01*
X2233932D01*
X2234355Y1322154D01*
Y1321731D01*
X2233932Y1321308D01*
X2232662D01*
X2231816Y1319615D02*
X2230123D01*
X2229276Y1322577D02*
X2227584Y1320038D01*
Y1322577D02*
X2229276Y1320038D01*
X2226737Y1322577D02*
Y1320038D01*
X2225045D01*
X2224198D02*
Y1322577D01*
X2222928D01*
X2222505Y1322154D01*
Y1321308D01*
X2222928Y1320884D01*
X2224198D01*
X2223352D02*
X2222505Y1320038D01*
X2220389D02*
Y1322577D01*
X2221659Y1321308D01*
X2219966D01*
X2203704Y664718D02*
Y667257D01*
X2202434D01*
X2202011Y666834D01*
Y665988D01*
X2202434Y665564D01*
X2203704D01*
X2202858D02*
X2202011Y664718D01*
X2199472D02*
X2201165D01*
X2199472Y666411D01*
Y666834D01*
X2199895Y667257D01*
X2200742D01*
X2201165Y666834D01*
X2198626D02*
X2198202Y667257D01*
X2197356D01*
X2196933Y666834D01*
Y665141D01*
X2197356Y664718D01*
X2198202D01*
X2198626Y665141D01*
Y666834D01*
X2196086Y664295D02*
X2194394D01*
X2193547Y667257D02*
X2191855Y664718D01*
Y667257D02*
X2193547Y664718D01*
X2191008Y667257D02*
Y664718D01*
X2189315D01*
X2188469D02*
Y667257D01*
X2187199D01*
X2186776Y666834D01*
Y665988D01*
X2187199Y665564D01*
X2188469D01*
X2187623D02*
X2186776Y664718D01*
X2184237D02*
X2185930D01*
X2184237Y666411D01*
Y666834D01*
X2184660Y667257D01*
X2185506D01*
X2185930Y666834D01*
X2203450Y984758D02*
Y987297D01*
X2202180D01*
X2201757Y986874D01*
Y986028D01*
X2202180Y985604D01*
X2203450D01*
X2202604D02*
X2201757Y984758D01*
X2199218D02*
X2200911D01*
X2199218Y986451D01*
Y986874D01*
X2199641Y987297D01*
X2200488D01*
X2200911Y986874D01*
X2198372D02*
X2197948Y987297D01*
X2197102D01*
X2196679Y986874D01*
Y985181D01*
X2197102Y984758D01*
X2197948D01*
X2198372Y985181D01*
Y986874D01*
X2195832Y984335D02*
X2194140D01*
X2193293Y987297D02*
X2191600Y984758D01*
Y987297D02*
X2193293Y984758D01*
X2190754Y987297D02*
Y984758D01*
X2189061D01*
X2188215D02*
Y987297D01*
X2186945D01*
X2186522Y986874D01*
Y986028D01*
X2186945Y985604D01*
X2188215D01*
X2187368D02*
X2186522Y984758D01*
X2185676Y986874D02*
X2185253Y987297D01*
X2184406D01*
X2183983Y986874D01*
Y986451D01*
X2184406Y986028D01*
X2184829D01*
X2184406D01*
X2183983Y985604D01*
Y985181D01*
X2184406Y984758D01*
X2185253D01*
X2185676Y985181D01*
X2203450Y1304798D02*
Y1307337D01*
X2202180D01*
X2201757Y1306914D01*
Y1306068D01*
X2202180Y1305644D01*
X2203450D01*
X2202604D02*
X2201757Y1304798D01*
X2199218D02*
X2200911D01*
X2199218Y1306491D01*
Y1306914D01*
X2199641Y1307337D01*
X2200488D01*
X2200911Y1306914D01*
X2198372D02*
X2197948Y1307337D01*
X2197102D01*
X2196679Y1306914D01*
Y1305221D01*
X2197102Y1304798D01*
X2197948D01*
X2198372Y1305221D01*
Y1306914D01*
X2195832Y1304375D02*
X2194140D01*
X2193293Y1307337D02*
X2191600Y1304798D01*
Y1307337D02*
X2193293Y1304798D01*
X2190754Y1307337D02*
Y1304798D01*
X2189061D01*
X2188215D02*
Y1307337D01*
X2186945D01*
X2186522Y1306914D01*
Y1306068D01*
X2186945Y1305644D01*
X2188215D01*
X2187368D02*
X2186522Y1304798D01*
X2184406D02*
Y1307337D01*
X2185676Y1306068D01*
X2183983D01*
X2221315Y573870D02*
X2221738Y574293D01*
X2222585D01*
X2223008Y573870D01*
Y572177D01*
X2222585Y571754D01*
X2221738D01*
X2221315Y572177D01*
X2220469Y571754D02*
X2219622D01*
X2220046D01*
Y574293D01*
X2220469Y573870D01*
X2216660Y571754D02*
X2218353D01*
X2216660Y573447D01*
Y573870D01*
X2217083Y574293D01*
X2217930D01*
X2218353Y573870D01*
X2215814Y571331D02*
X2214121D01*
X2213275Y574293D02*
X2211582Y571754D01*
Y574293D02*
X2213275Y571754D01*
X2210735Y574293D02*
Y571754D01*
X2209043D01*
X2208196D02*
Y574293D01*
X2206927D01*
X2206503Y573870D01*
Y573024D01*
X2206927Y572600D01*
X2208196D01*
X2207350D02*
X2206503Y571754D01*
X2205657D02*
X2204810D01*
X2205234D01*
Y574293D01*
X2205657Y573870D01*
X2201672Y544830D02*
Y547369D01*
X2200402D01*
X2199979Y546946D01*
Y546100D01*
X2200402Y545676D01*
X2201672D01*
X2200826D02*
X2199979Y544830D01*
X2199133D02*
X2198286D01*
X2198710D01*
Y547369D01*
X2199133Y546946D01*
X2195747Y544830D02*
Y547369D01*
X2197017Y546100D01*
X2195324D01*
X2194478Y544407D02*
X2192785D01*
X2191938Y547369D02*
X2190246Y544830D01*
Y547369D02*
X2191938Y544830D01*
X2189399Y547369D02*
Y544830D01*
X2187706D01*
X2186860D02*
Y547369D01*
X2185591D01*
X2185167Y546946D01*
Y546100D01*
X2185591Y545676D01*
X2186860D01*
X2186014D02*
X2185167Y544830D01*
X2184321D02*
X2183474D01*
X2183898D01*
Y547369D01*
X2184321Y546946D01*
X2200910Y528320D02*
Y530859D01*
X2199640D01*
X2199217Y530436D01*
Y529590D01*
X2199640Y529166D01*
X2200910D01*
X2200064D02*
X2199217Y528320D01*
X2198371D02*
X2197524D01*
X2197948D01*
Y530859D01*
X2198371Y530436D01*
X2194562Y530859D02*
X2196255D01*
Y529590D01*
X2195408Y530013D01*
X2194985D01*
X2194562Y529590D01*
Y528743D01*
X2194985Y528320D01*
X2195832D01*
X2196255Y528743D01*
X2193716Y527897D02*
X2192023D01*
X2191176Y530859D02*
X2189484Y528320D01*
Y530859D02*
X2191176Y528320D01*
X2188637Y530859D02*
Y528320D01*
X2186944D01*
X2186098D02*
Y530859D01*
X2184828D01*
X2184405Y530436D01*
Y529590D01*
X2184828Y529166D01*
X2186098D01*
X2185252D02*
X2184405Y528320D01*
X2183559D02*
X2182713D01*
X2183136D01*
Y530859D01*
X2183559Y530436D01*
X2200910Y511810D02*
Y514349D01*
X2199640D01*
X2199217Y513926D01*
Y513080D01*
X2199640Y512656D01*
X2200910D01*
X2200064D02*
X2199217Y511810D01*
X2198371D02*
X2197524D01*
X2197948D01*
Y514349D01*
X2198371Y513926D01*
X2194562Y514349D02*
X2195408Y513926D01*
X2196255Y513080D01*
Y512233D01*
X2195832Y511810D01*
X2194985D01*
X2194562Y512233D01*
Y512656D01*
X2194985Y513080D01*
X2196255D01*
X2193716Y511387D02*
X2192023D01*
X2191176Y514349D02*
X2189484Y511810D01*
Y514349D02*
X2191176Y511810D01*
X2188637Y514349D02*
Y511810D01*
X2186944D01*
X2186098D02*
Y514349D01*
X2184828D01*
X2184405Y513926D01*
Y513080D01*
X2184828Y512656D01*
X2186098D01*
X2185252D02*
X2184405Y511810D01*
X2183559D02*
X2182713D01*
X2183136D01*
Y514349D01*
X2183559Y513926D01*
X2221569Y893910D02*
X2221992Y894333D01*
X2222839D01*
X2223262Y893910D01*
Y892217D01*
X2222839Y891794D01*
X2221992D01*
X2221569Y892217D01*
X2220723Y891794D02*
X2219876D01*
X2220300D01*
Y894333D01*
X2220723Y893910D01*
X2216914Y891794D02*
X2218607D01*
X2216914Y893487D01*
Y893910D01*
X2217337Y894333D01*
X2218184D01*
X2218607Y893910D01*
X2216068Y891371D02*
X2214375D01*
X2213528Y894333D02*
X2211836Y891794D01*
Y894333D02*
X2213528Y891794D01*
X2210989Y894333D02*
Y891794D01*
X2209297D01*
X2208450D02*
Y894333D01*
X2207180D01*
X2206757Y893910D01*
Y893064D01*
X2207180Y892640D01*
X2208450D01*
X2207604D02*
X2206757Y891794D01*
X2204218D02*
X2205911D01*
X2204218Y893487D01*
Y893910D01*
X2204641Y894333D01*
X2205488D01*
X2205911Y893910D01*
X2221315Y1213950D02*
X2221738Y1214373D01*
X2222585D01*
X2223008Y1213950D01*
Y1212257D01*
X2222585Y1211834D01*
X2221738D01*
X2221315Y1212257D01*
X2220469Y1211834D02*
X2219622D01*
X2220046D01*
Y1214373D01*
X2220469Y1213950D01*
X2216660Y1211834D02*
X2218353D01*
X2216660Y1213527D01*
Y1213950D01*
X2217083Y1214373D01*
X2217930D01*
X2218353Y1213950D01*
X2215814Y1211411D02*
X2214121D01*
X2213275Y1214373D02*
X2211582Y1211834D01*
Y1214373D02*
X2213275Y1211834D01*
X2210735Y1214373D02*
Y1211834D01*
X2209043D01*
X2208196D02*
Y1214373D01*
X2206927D01*
X2206503Y1213950D01*
Y1213104D01*
X2206927Y1212680D01*
X2208196D01*
X2207350D02*
X2206503Y1211834D01*
X2205657Y1213950D02*
X2205234Y1214373D01*
X2204387D01*
X2203964Y1213950D01*
Y1213527D01*
X2204387Y1213104D01*
X2204810D01*
X2204387D01*
X2203964Y1212680D01*
Y1212257D01*
X2204387Y1211834D01*
X2205234D01*
X2205657Y1212257D01*
X2221315Y1533990D02*
X2221738Y1534413D01*
X2222585D01*
X2223008Y1533990D01*
Y1532297D01*
X2222585Y1531874D01*
X2221738D01*
X2221315Y1532297D01*
X2220469Y1531874D02*
X2219622D01*
X2220046D01*
Y1534413D01*
X2220469Y1533990D01*
X2216660Y1531874D02*
X2218353D01*
X2216660Y1533567D01*
Y1533990D01*
X2217083Y1534413D01*
X2217930D01*
X2218353Y1533990D01*
X2215814Y1531451D02*
X2214121D01*
X2213275Y1534413D02*
X2211582Y1531874D01*
Y1534413D02*
X2213275Y1531874D01*
X2210735Y1534413D02*
Y1531874D01*
X2209043D01*
X2208196D02*
Y1534413D01*
X2206927D01*
X2206503Y1533990D01*
Y1533144D01*
X2206927Y1532720D01*
X2208196D01*
X2207350D02*
X2206503Y1531874D01*
X2204387D02*
Y1534413D01*
X2205657Y1533144D01*
X2203964D01*
X2201926Y864870D02*
Y867409D01*
X2200656D01*
X2200233Y866986D01*
Y866140D01*
X2200656Y865716D01*
X2201926D01*
X2201080D02*
X2200233Y864870D01*
X2199387D02*
X2198540D01*
X2198964D01*
Y867409D01*
X2199387Y866986D01*
X2196001Y864870D02*
Y867409D01*
X2197271Y866140D01*
X2195578D01*
X2194732Y864447D02*
X2193039D01*
X2192193Y867409D02*
X2190500Y864870D01*
Y867409D02*
X2192193Y864870D01*
X2189653Y867409D02*
Y864870D01*
X2187961D01*
X2187114D02*
Y867409D01*
X2185845D01*
X2185421Y866986D01*
Y866140D01*
X2185845Y865716D01*
X2187114D01*
X2186268D02*
X2185421Y864870D01*
X2182882D02*
X2184575D01*
X2182882Y866563D01*
Y866986D01*
X2183305Y867409D01*
X2184152D01*
X2184575Y866986D01*
X2201672Y1184910D02*
Y1187449D01*
X2200402D01*
X2199979Y1187026D01*
Y1186180D01*
X2200402Y1185756D01*
X2201672D01*
X2200826D02*
X2199979Y1184910D01*
X2199133D02*
X2198286D01*
X2198710D01*
Y1187449D01*
X2199133Y1187026D01*
X2195747Y1184910D02*
Y1187449D01*
X2197017Y1186180D01*
X2195324D01*
X2194478Y1184487D02*
X2192785D01*
X2191938Y1187449D02*
X2190246Y1184910D01*
Y1187449D02*
X2191938Y1184910D01*
X2189399Y1187449D02*
Y1184910D01*
X2187706D01*
X2186860D02*
Y1187449D01*
X2185591D01*
X2185167Y1187026D01*
Y1186180D01*
X2185591Y1185756D01*
X2186860D01*
X2186014D02*
X2185167Y1184910D01*
X2184321Y1187026D02*
X2183898Y1187449D01*
X2183051D01*
X2182628Y1187026D01*
Y1186603D01*
X2183051Y1186180D01*
X2183474D01*
X2183051D01*
X2182628Y1185756D01*
Y1185333D01*
X2183051Y1184910D01*
X2183898D01*
X2184321Y1185333D01*
X2201672Y1504950D02*
Y1507489D01*
X2200402D01*
X2199979Y1507066D01*
Y1506220D01*
X2200402Y1505796D01*
X2201672D01*
X2200826D02*
X2199979Y1504950D01*
X2199133D02*
X2198286D01*
X2198710D01*
Y1507489D01*
X2199133Y1507066D01*
X2195747Y1504950D02*
Y1507489D01*
X2197017Y1506220D01*
X2195324D01*
X2194478Y1504527D02*
X2192785D01*
X2191938Y1507489D02*
X2190246Y1504950D01*
Y1507489D02*
X2191938Y1504950D01*
X2189399Y1507489D02*
Y1504950D01*
X2187706D01*
X2186860D02*
Y1507489D01*
X2185591D01*
X2185167Y1507066D01*
Y1506220D01*
X2185591Y1505796D01*
X2186860D01*
X2186014D02*
X2185167Y1504950D01*
X2183051D02*
Y1507489D01*
X2184321Y1506220D01*
X2182628D01*
X2201164Y848360D02*
Y850899D01*
X2199894D01*
X2199471Y850476D01*
Y849630D01*
X2199894Y849206D01*
X2201164D01*
X2200318D02*
X2199471Y848360D01*
X2198625D02*
X2197778D01*
X2198202D01*
Y850899D01*
X2198625Y850476D01*
X2194816Y850899D02*
X2196509D01*
Y849630D01*
X2195662Y850053D01*
X2195239D01*
X2194816Y849630D01*
Y848783D01*
X2195239Y848360D01*
X2196086D01*
X2196509Y848783D01*
X2193970Y847937D02*
X2192277D01*
X2191431Y850899D02*
X2189738Y848360D01*
Y850899D02*
X2191431Y848360D01*
X2188891Y850899D02*
Y848360D01*
X2187198D01*
X2186352D02*
Y850899D01*
X2185083D01*
X2184659Y850476D01*
Y849630D01*
X2185083Y849206D01*
X2186352D01*
X2185506D02*
X2184659Y848360D01*
X2182120D02*
X2183813D01*
X2182120Y850053D01*
Y850476D01*
X2182543Y850899D01*
X2183390D01*
X2183813Y850476D01*
X2200910Y1168400D02*
Y1170939D01*
X2199640D01*
X2199217Y1170516D01*
Y1169670D01*
X2199640Y1169246D01*
X2200910D01*
X2200064D02*
X2199217Y1168400D01*
X2198371D02*
X2197524D01*
X2197948D01*
Y1170939D01*
X2198371Y1170516D01*
X2194562Y1170939D02*
X2196255D01*
Y1169670D01*
X2195408Y1170093D01*
X2194985D01*
X2194562Y1169670D01*
Y1168823D01*
X2194985Y1168400D01*
X2195832D01*
X2196255Y1168823D01*
X2193716Y1167977D02*
X2192023D01*
X2191176Y1170939D02*
X2189484Y1168400D01*
Y1170939D02*
X2191176Y1168400D01*
X2188637Y1170939D02*
Y1168400D01*
X2186944D01*
X2186098D02*
Y1170939D01*
X2184828D01*
X2184405Y1170516D01*
Y1169670D01*
X2184828Y1169246D01*
X2186098D01*
X2185252D02*
X2184405Y1168400D01*
X2183559Y1170516D02*
X2183136Y1170939D01*
X2182289D01*
X2181866Y1170516D01*
Y1170093D01*
X2182289Y1169670D01*
X2182713D01*
X2182289D01*
X2181866Y1169246D01*
Y1168823D01*
X2182289Y1168400D01*
X2183136D01*
X2183559Y1168823D01*
X2200910Y1488440D02*
Y1490979D01*
X2199640D01*
X2199217Y1490556D01*
Y1489710D01*
X2199640Y1489286D01*
X2200910D01*
X2200064D02*
X2199217Y1488440D01*
X2198371D02*
X2197524D01*
X2197948D01*
Y1490979D01*
X2198371Y1490556D01*
X2194562Y1490979D02*
X2196255D01*
Y1489710D01*
X2195408Y1490133D01*
X2194985D01*
X2194562Y1489710D01*
Y1488863D01*
X2194985Y1488440D01*
X2195832D01*
X2196255Y1488863D01*
X2193716Y1488017D02*
X2192023D01*
X2191176Y1490979D02*
X2189484Y1488440D01*
Y1490979D02*
X2191176Y1488440D01*
X2188637Y1490979D02*
Y1488440D01*
X2186944D01*
X2186098D02*
Y1490979D01*
X2184828D01*
X2184405Y1490556D01*
Y1489710D01*
X2184828Y1489286D01*
X2186098D01*
X2185252D02*
X2184405Y1488440D01*
X2182289D02*
Y1490979D01*
X2183559Y1489710D01*
X2181866D01*
X2201164Y831850D02*
Y834389D01*
X2199894D01*
X2199471Y833966D01*
Y833120D01*
X2199894Y832696D01*
X2201164D01*
X2200318D02*
X2199471Y831850D01*
X2198625D02*
X2197778D01*
X2198202D01*
Y834389D01*
X2198625Y833966D01*
X2194816Y834389D02*
X2195662Y833966D01*
X2196509Y833120D01*
Y832273D01*
X2196086Y831850D01*
X2195239D01*
X2194816Y832273D01*
Y832696D01*
X2195239Y833120D01*
X2196509D01*
X2193970Y831427D02*
X2192277D01*
X2191431Y834389D02*
X2189738Y831850D01*
Y834389D02*
X2191431Y831850D01*
X2188891Y834389D02*
Y831850D01*
X2187198D01*
X2186352D02*
Y834389D01*
X2185083D01*
X2184659Y833966D01*
Y833120D01*
X2185083Y832696D01*
X2186352D01*
X2185506D02*
X2184659Y831850D01*
X2182120D02*
X2183813D01*
X2182120Y833543D01*
Y833966D01*
X2182543Y834389D01*
X2183390D01*
X2183813Y833966D01*
X2200910Y1151890D02*
Y1154429D01*
X2199640D01*
X2199217Y1154006D01*
Y1153160D01*
X2199640Y1152736D01*
X2200910D01*
X2200064D02*
X2199217Y1151890D01*
X2198371D02*
X2197524D01*
X2197948D01*
Y1154429D01*
X2198371Y1154006D01*
X2194562Y1154429D02*
X2195408Y1154006D01*
X2196255Y1153160D01*
Y1152313D01*
X2195832Y1151890D01*
X2194985D01*
X2194562Y1152313D01*
Y1152736D01*
X2194985Y1153160D01*
X2196255D01*
X2193716Y1151467D02*
X2192023D01*
X2191176Y1154429D02*
X2189484Y1151890D01*
Y1154429D02*
X2191176Y1151890D01*
X2188637Y1154429D02*
Y1151890D01*
X2186944D01*
X2186098D02*
Y1154429D01*
X2184828D01*
X2184405Y1154006D01*
Y1153160D01*
X2184828Y1152736D01*
X2186098D01*
X2185252D02*
X2184405Y1151890D01*
X2183559Y1154006D02*
X2183136Y1154429D01*
X2182289D01*
X2181866Y1154006D01*
Y1153583D01*
X2182289Y1153160D01*
X2182713D01*
X2182289D01*
X2181866Y1152736D01*
Y1152313D01*
X2182289Y1151890D01*
X2183136D01*
X2183559Y1152313D01*
X2200910Y1471930D02*
Y1474469D01*
X2199640D01*
X2199217Y1474046D01*
Y1473200D01*
X2199640Y1472776D01*
X2200910D01*
X2200064D02*
X2199217Y1471930D01*
X2198371D02*
X2197524D01*
X2197948D01*
Y1474469D01*
X2198371Y1474046D01*
X2194562Y1474469D02*
X2195408Y1474046D01*
X2196255Y1473200D01*
Y1472353D01*
X2195832Y1471930D01*
X2194985D01*
X2194562Y1472353D01*
Y1472776D01*
X2194985Y1473200D01*
X2196255D01*
X2193716Y1471507D02*
X2192023D01*
X2191176Y1474469D02*
X2189484Y1471930D01*
Y1474469D02*
X2191176Y1471930D01*
X2188637Y1474469D02*
Y1471930D01*
X2186944D01*
X2186098D02*
Y1474469D01*
X2184828D01*
X2184405Y1474046D01*
Y1473200D01*
X2184828Y1472776D01*
X2186098D01*
X2185252D02*
X2184405Y1471930D01*
X2182289D02*
Y1474469D01*
X2183559Y1473200D01*
X2181866D01*
D157*
X2061004Y303654D02*
D03*
X1886265Y436513D02*
D03*
D158*
X2072732Y303484D02*
D03*
D159*
X1897996Y436346D02*
D03*
D160*
X2041001Y345895D02*
D03*
X2040999Y306649D02*
D03*
X1971998Y252649D02*
D03*
X1972002Y291895D02*
D03*
D161*
X2000791Y1031989D02*
D03*
X2000623Y1020258D02*
D03*
X2000791Y979919D02*
D03*
X2000623Y968188D02*
D03*
X2000790Y885940D02*
D03*
X2000624Y874208D02*
D03*
X1993170Y732930D02*
D03*
X1993004Y721199D02*
D03*
X2000790Y832600D02*
D03*
X2000623Y820868D02*
D03*
X1992701Y680859D02*
D03*
X1992534Y669128D02*
D03*
X2272690Y509930D02*
D03*
X2272523Y498198D02*
D03*
X2265970Y497930D02*
D03*
X2266136Y509662D02*
D03*
X2222790Y472530D02*
D03*
X2222957Y484262D02*
D03*
X2273010Y829930D02*
D03*
X2272843Y818198D02*
D03*
X2272523Y1138198D02*
D03*
X2272690Y1149930D02*
D03*
Y1469930D02*
D03*
X2272523Y1458198D02*
D03*
X2266290Y817930D02*
D03*
X2266457Y829662D02*
D03*
X2266137Y1149662D02*
D03*
X2265970Y1137930D02*
D03*
Y1457930D02*
D03*
X2266137Y1469662D02*
D03*
X2223110Y792530D02*
D03*
X2223277Y804262D02*
D03*
X2222957Y1124262D02*
D03*
X2222790Y1112530D02*
D03*
Y1432530D02*
D03*
X2222957Y1444262D02*
D03*
X2171303Y548548D02*
D03*
X2171470Y560280D02*
D03*
X2171623Y868548D02*
D03*
X2171790Y880280D02*
D03*
X2171303Y1188548D02*
D03*
X2171470Y1200280D02*
D03*
X2171303Y1508548D02*
D03*
X2171470Y1520280D02*
D03*
M02*
