G04*
G04 #@! TF.GenerationSoftware,Altium Limited,Altium Designer,20.2.7 (254)*
G04*
G04 Layer_Color=8421504*
%FSLAX44Y44*%
%MOMM*%
G71*
G04*
G04 #@! TF.SameCoordinates,F75D2D2C-83ED-4C86-80AB-8EBB9ED98378*
G04*
G04*
G04 #@! TF.FilePolarity,Positive*
G04*
G01*
G75*
%ADD22R,0.9000X0.8000*%
%ADD23R,2.5400X1.5240*%
%ADD24R,3.0480X1.5240*%
%ADD25R,1.0000X0.5000*%
%ADD26R,0.6000X1.4500*%
%ADD27R,0.3000X1.4500*%
%ADD28R,0.5000X1.0000*%
%ADD29R,1.8000X2.2300*%
%ADD30R,1.4000X1.3000*%
%ADD31R,0.9500X0.8500*%
%ADD32R,5.5000X2.5000*%
%ADD33R,0.8500X0.9500*%
%ADD34R,0.7500X0.6000*%
%ADD35R,2.9000X5.4000*%
%ADD36R,2.1500X2.4500*%
%ADD37R,1.5250X0.6500*%
%ADD38R,2.5000X5.5000*%
%ADD39R,0.9000X1.0000*%
%ADD40R,0.6000X0.6400*%
%ADD41R,4.9000X5.8500*%
%ADD42R,1.0000X2.1000*%
G04:AMPARAMS|DCode=43|XSize=1.21mm|YSize=0.59mm|CornerRadius=0.1475mm|HoleSize=0mm|Usage=FLASHONLY|Rotation=0.000|XOffset=0mm|YOffset=0mm|HoleType=Round|Shape=RoundedRectangle|*
%AMROUNDEDRECTD43*
21,1,1.2100,0.2950,0,0,0.0*
21,1,0.9150,0.5900,0,0,0.0*
1,1,0.2950,0.4575,-0.1475*
1,1,0.2950,-0.4575,-0.1475*
1,1,0.2950,-0.4575,0.1475*
1,1,0.2950,0.4575,0.1475*
%
%ADD43ROUNDEDRECTD43*%
%ADD44R,2.2860X0.5080*%
%ADD45R,0.9000X0.8000*%
%ADD46R,1.6500X0.6500*%
%ADD47R,1.0000X0.9000*%
%ADD48R,1.7500X0.6500*%
D22*
X495400Y1478120D02*
D03*
X478400D02*
D03*
X495400Y1158080D02*
D03*
X478400D02*
D03*
X495400Y838040D02*
D03*
X478400D02*
D03*
X495400Y518000D02*
D03*
X478400D02*
D03*
D23*
X1871044Y143640D02*
D03*
X1871044Y213640D02*
D03*
X1800044Y135640D02*
D03*
X1800044Y171640D02*
D03*
X1587039Y143640D02*
D03*
X1587039Y213640D02*
D03*
X1516039Y135640D02*
D03*
Y171640D02*
D03*
X1730039Y143640D02*
D03*
Y213640D02*
D03*
X1659039Y135640D02*
D03*
Y171640D02*
D03*
X2040000Y144000D02*
D03*
Y214000D02*
D03*
X1969000Y136000D02*
D03*
X1969000Y172000D02*
D03*
D24*
X1802184Y231820D02*
D03*
X1518179Y231820D02*
D03*
X1661179D02*
D03*
X1971140Y232180D02*
D03*
D25*
X939800Y1472580D02*
D03*
X939800Y1465580D02*
D03*
X754380Y1158240D02*
D03*
Y1151240D02*
D03*
D26*
X907300Y1492100D02*
D03*
X915300D02*
D03*
X964300D02*
D03*
X972300D02*
D03*
D27*
X922300D02*
D03*
X927300D02*
D03*
X932300D02*
D03*
X937300D02*
D03*
X957300D02*
D03*
X952300D02*
D03*
X947300D02*
D03*
X942300D02*
D03*
D28*
X2113280Y835660D02*
D03*
X2120280D02*
D03*
X1784970Y1055370D02*
D03*
X1791970Y1055370D02*
D03*
X1784350Y651510D02*
D03*
X1791350Y651510D02*
D03*
X1784350Y850900D02*
D03*
X1791350Y850900D02*
D03*
X1343000Y1481000D02*
D03*
X1350000Y1481000D02*
D03*
D29*
X1840200Y1426000D02*
D03*
X1811000D02*
D03*
X1784800Y1493000D02*
D03*
X1755600Y1493000D02*
D03*
X1590000Y1467000D02*
D03*
X1619200D02*
D03*
X1604600Y1425000D02*
D03*
X1575400Y1425000D02*
D03*
X1823000Y1466000D02*
D03*
X1852200D02*
D03*
X1647260Y1400460D02*
D03*
X1676460D02*
D03*
X1548800Y1492000D02*
D03*
X1519600Y1492000D02*
D03*
X1879800Y1399000D02*
D03*
X1909000D02*
D03*
D30*
X1728600Y1486000D02*
D03*
X1728600Y1502000D02*
D03*
X1703000Y1407000D02*
D03*
X1703000Y1391000D02*
D03*
X1492600Y1485000D02*
D03*
X1492600Y1501000D02*
D03*
X1936000Y1406000D02*
D03*
X1936000Y1390000D02*
D03*
X1999000Y1332000D02*
D03*
X1999000Y1348000D02*
D03*
X2019000Y1332000D02*
D03*
X2019000Y1348000D02*
D03*
X799400Y1068530D02*
D03*
Y1052530D02*
D03*
X707960Y1115270D02*
D03*
X707960Y1131270D02*
D03*
D31*
X1787600Y1453000D02*
D03*
X1787600Y1466000D02*
D03*
X2072000Y1378000D02*
D03*
X2072000Y1365000D02*
D03*
X2072000Y1406000D02*
D03*
Y1393000D02*
D03*
D32*
X1749600Y1420000D02*
D03*
Y1458100D02*
D03*
X1682000Y1473000D02*
D03*
Y1434900D02*
D03*
X1513600Y1419000D02*
D03*
Y1457100D02*
D03*
X1915000Y1472000D02*
D03*
Y1433900D02*
D03*
D33*
X1644000Y1440000D02*
D03*
X1631000Y1440000D02*
D03*
X1551350Y1452000D02*
D03*
X1564350D02*
D03*
X1877000Y1439000D02*
D03*
X1864000Y1439000D02*
D03*
X1101960Y1240490D02*
D03*
X1088960Y1240490D02*
D03*
X799100Y1263350D02*
D03*
X812100D02*
D03*
X732940Y1353820D02*
D03*
X719940D02*
D03*
X721360Y1297940D02*
D03*
X734360Y1297940D02*
D03*
X722480Y1224280D02*
D03*
X735480D02*
D03*
D34*
X1589371Y695746D02*
D03*
X1577870D02*
D03*
X1589371Y709296D02*
D03*
X1577870D02*
D03*
X1589371Y723846D02*
D03*
X1577870D02*
D03*
X1589371Y737395D02*
D03*
X1577870D02*
D03*
X1588080Y582740D02*
D03*
X1576580D02*
D03*
X1588080Y595440D02*
D03*
X1576580D02*
D03*
X1588080Y608140D02*
D03*
X1576580D02*
D03*
X1588080Y620840D02*
D03*
X1576580D02*
D03*
X1588080Y470240D02*
D03*
X1576580D02*
D03*
X1588080Y484790D02*
D03*
X1576580D02*
D03*
X1588080Y498340D02*
D03*
X1576580D02*
D03*
X1588080Y512890D02*
D03*
X1576580D02*
D03*
X1588080Y350590D02*
D03*
X1576580D02*
D03*
X1588080Y365140D02*
D03*
X1576580D02*
D03*
X1588080Y378690D02*
D03*
X1576580D02*
D03*
X1588080Y392240D02*
D03*
X1576580D02*
D03*
X1588230Y810490D02*
D03*
X1576730D02*
D03*
X1588230Y830390D02*
D03*
X1576730D02*
D03*
X1588230Y841940D02*
D03*
X1576730D02*
D03*
X1588230Y853490D02*
D03*
X1576730D02*
D03*
D35*
X1976500Y1486000D02*
D03*
X2073500D02*
D03*
D36*
X1967000Y1405000D02*
D03*
Y1362000D02*
D03*
D37*
X1998880Y1366950D02*
D03*
Y1379650D02*
D03*
Y1392350D02*
D03*
Y1405050D02*
D03*
X2053120D02*
D03*
Y1392350D02*
D03*
Y1379650D02*
D03*
Y1366950D02*
D03*
D38*
X1345000Y1521000D02*
D03*
X1306900D02*
D03*
D39*
X794220Y769620D02*
D03*
X807720D02*
D03*
D40*
X1011400Y1095710D02*
D03*
X1002600Y1095710D02*
D03*
X1013630Y1286520D02*
D03*
X1004830Y1286520D02*
D03*
X1013940Y1334470D02*
D03*
X1005140Y1334470D02*
D03*
X826160Y1273510D02*
D03*
X834960Y1273510D02*
D03*
X826940Y1310830D02*
D03*
X835740Y1310830D02*
D03*
X826160Y1359870D02*
D03*
X834960Y1359870D02*
D03*
X826160Y1375110D02*
D03*
X834960Y1375110D02*
D03*
X826300Y928210D02*
D03*
X835100Y928210D02*
D03*
X821080Y1032210D02*
D03*
X829880Y1032210D02*
D03*
X821080Y1072850D02*
D03*
X829880Y1072850D02*
D03*
X821080Y1121110D02*
D03*
X829880Y1121110D02*
D03*
X821080Y1136350D02*
D03*
X829880Y1136350D02*
D03*
X826160Y1166830D02*
D03*
X834960Y1166830D02*
D03*
X1012080Y1047450D02*
D03*
X1003280Y1047450D02*
D03*
D41*
X753620Y1073430D02*
D03*
D42*
X730820Y1141430D02*
D03*
X776420D02*
D03*
D43*
X1292710Y1431900D02*
D03*
Y1412900D02*
D03*
X1267610D02*
D03*
Y1422400D02*
D03*
Y1431900D02*
D03*
X1292710Y1472540D02*
D03*
Y1453540D02*
D03*
X1267610D02*
D03*
Y1463040D02*
D03*
Y1472540D02*
D03*
D44*
X976010Y944210D02*
D03*
X859010Y960210D02*
D03*
Y1016210D02*
D03*
X976010Y968210D02*
D03*
X859010D02*
D03*
Y1064210D02*
D03*
X976010Y1056210D02*
D03*
X859010Y1008210D02*
D03*
Y936210D02*
D03*
X976010Y1128210D02*
D03*
X859010Y1024210D02*
D03*
Y952210D02*
D03*
Y1000210D02*
D03*
X976010Y952210D02*
D03*
X859010Y1056210D02*
D03*
X976010Y1064210D02*
D03*
Y1136210D02*
D03*
X859010Y1096210D02*
D03*
X976010Y1120210D02*
D03*
X859010Y1048210D02*
D03*
X976010Y1072210D02*
D03*
Y1032210D02*
D03*
Y928210D02*
D03*
Y1000210D02*
D03*
Y936210D02*
D03*
Y976210D02*
D03*
X859010Y1040210D02*
D03*
X976010Y1080210D02*
D03*
X859010Y1128210D02*
D03*
Y1112210D02*
D03*
Y1088210D02*
D03*
Y984210D02*
D03*
Y992210D02*
D03*
X976010Y960210D02*
D03*
Y984210D02*
D03*
X859010Y1080210D02*
D03*
X976010Y1040210D02*
D03*
Y1088210D02*
D03*
X859010Y1104210D02*
D03*
X976010Y1016210D02*
D03*
X859010Y944210D02*
D03*
X976010Y1112210D02*
D03*
X859010Y976210D02*
D03*
X976010Y1008210D02*
D03*
X859010Y1120210D02*
D03*
Y1136210D02*
D03*
Y1072210D02*
D03*
Y1032210D02*
D03*
Y928210D02*
D03*
X976010Y1096210D02*
D03*
Y1048210D02*
D03*
Y1104210D02*
D03*
Y1024210D02*
D03*
Y992210D02*
D03*
X977200Y1230830D02*
D03*
Y1262830D02*
D03*
Y1342830D02*
D03*
Y1286830D02*
D03*
Y1334830D02*
D03*
X860200Y1166830D02*
D03*
Y1270830D02*
D03*
Y1310830D02*
D03*
Y1374830D02*
D03*
Y1358830D02*
D03*
X977200Y1246830D02*
D03*
X860200Y1214830D02*
D03*
X977200Y1350830D02*
D03*
X860200Y1182830D02*
D03*
X977200Y1254830D02*
D03*
X860200Y1342830D02*
D03*
X977200Y1326830D02*
D03*
Y1278830D02*
D03*
X860200Y1318830D02*
D03*
X977200Y1222830D02*
D03*
Y1198830D02*
D03*
X860200Y1230830D02*
D03*
Y1222830D02*
D03*
Y1326830D02*
D03*
Y1350830D02*
D03*
Y1366830D02*
D03*
X977200Y1318830D02*
D03*
X860200Y1278830D02*
D03*
X977200Y1214830D02*
D03*
Y1174830D02*
D03*
Y1238830D02*
D03*
Y1166830D02*
D03*
Y1270830D02*
D03*
Y1310830D02*
D03*
X860200Y1286830D02*
D03*
X977200Y1358830D02*
D03*
X860200Y1334830D02*
D03*
X977200Y1374830D02*
D03*
Y1302830D02*
D03*
X860200Y1294830D02*
D03*
X977200Y1190830D02*
D03*
X860200Y1238830D02*
D03*
Y1190830D02*
D03*
Y1262830D02*
D03*
X977200Y1366830D02*
D03*
X860200Y1174830D02*
D03*
Y1246830D02*
D03*
X977200Y1294830D02*
D03*
X860200Y1302830D02*
D03*
Y1206830D02*
D03*
X977200D02*
D03*
X860200Y1254830D02*
D03*
Y1198830D02*
D03*
X977200Y1182830D02*
D03*
D45*
X718980Y1335380D02*
D03*
Y1316380D02*
D03*
X738980Y1325880D02*
D03*
X736600Y1242060D02*
D03*
Y1261060D02*
D03*
X716600Y1251560D02*
D03*
D46*
X881120Y787100D02*
D03*
Y799800D02*
D03*
Y812500D02*
D03*
Y825200D02*
D03*
X809120D02*
D03*
Y812500D02*
D03*
Y799800D02*
D03*
Y787100D02*
D03*
D47*
X1534700Y792500D02*
D03*
Y779000D02*
D03*
X1392460Y800990D02*
D03*
Y787490D02*
D03*
X1533990Y334220D02*
D03*
Y320720D02*
D03*
X1391750Y342710D02*
D03*
Y329210D02*
D03*
X1533990Y448720D02*
D03*
Y435220D02*
D03*
X1391750Y457210D02*
D03*
Y443710D02*
D03*
X1533990Y563020D02*
D03*
Y549520D02*
D03*
X1391750Y571510D02*
D03*
Y558010D02*
D03*
X1534700Y678200D02*
D03*
Y664700D02*
D03*
X1392460Y686690D02*
D03*
Y673190D02*
D03*
D48*
X1417860Y761620D02*
D03*
X1417860Y748920D02*
D03*
X1417860Y736220D02*
D03*
X1417860Y723520D02*
D03*
X1417860Y710820D02*
D03*
X1417860Y698120D02*
D03*
X1417860Y685420D02*
D03*
X1417860Y672720D02*
D03*
X1513360Y672720D02*
D03*
Y685420D02*
D03*
Y698120D02*
D03*
Y710820D02*
D03*
Y723520D02*
D03*
X1513360Y736220D02*
D03*
X1513360Y748920D02*
D03*
Y761620D02*
D03*
X1417150Y646440D02*
D03*
Y633740D02*
D03*
X1417150Y621040D02*
D03*
X1417150Y608340D02*
D03*
X1417150Y595640D02*
D03*
X1417150Y582940D02*
D03*
X1417150Y570240D02*
D03*
X1417150Y557540D02*
D03*
X1512650Y557540D02*
D03*
X1512650Y570240D02*
D03*
Y582940D02*
D03*
X1512650Y595640D02*
D03*
X1512650Y608340D02*
D03*
X1512650Y621040D02*
D03*
X1512650Y633740D02*
D03*
X1512650Y646440D02*
D03*
X1417150Y532140D02*
D03*
X1417150Y519440D02*
D03*
X1417150Y506740D02*
D03*
Y494040D02*
D03*
Y481340D02*
D03*
Y468640D02*
D03*
X1417150Y455940D02*
D03*
X1417150Y443240D02*
D03*
X1512650Y443240D02*
D03*
Y455940D02*
D03*
X1512650Y468640D02*
D03*
X1512650Y481340D02*
D03*
Y494040D02*
D03*
Y506740D02*
D03*
Y519440D02*
D03*
X1512650Y532140D02*
D03*
X1417150Y417640D02*
D03*
Y404940D02*
D03*
X1417150Y392240D02*
D03*
X1417150Y379540D02*
D03*
X1417150Y366840D02*
D03*
X1417150Y354140D02*
D03*
X1417150Y341440D02*
D03*
X1417150Y328740D02*
D03*
X1512650Y328740D02*
D03*
Y341440D02*
D03*
X1512650Y354140D02*
D03*
X1512650Y366840D02*
D03*
X1512650Y379540D02*
D03*
X1512650Y392240D02*
D03*
Y404940D02*
D03*
Y417640D02*
D03*
X1417860Y875920D02*
D03*
X1417860Y863220D02*
D03*
X1417860Y850520D02*
D03*
Y837820D02*
D03*
Y825120D02*
D03*
Y812420D02*
D03*
X1417860Y799720D02*
D03*
X1417860Y787020D02*
D03*
X1513360Y787020D02*
D03*
X1513360Y799720D02*
D03*
Y812420D02*
D03*
X1513360Y825120D02*
D03*
Y837820D02*
D03*
Y850520D02*
D03*
X1513360Y863220D02*
D03*
Y875920D02*
D03*
M02*
