M48
;Layer_Color=9474304
;FILE_FORMAT=2:5
INCH,LZ
;TYPE=PLATED
T3F00S00C0.04724
%
G90
G05
T03
G00X0678445Y0271398
M15
G01X0683169
M16
G00X0678445Y0289901
M15
G01X0683169
M16
G00X0678445Y0308405
M15
G01X0683169
M16
G00X0698917Y0308405
M15
G01X0703642
M16
G00X0698917Y0289901
M15
G01X0703642
M16
G00X0698917Y0271398
M15
G01X0703642
M16
G00X071939Y0271398
M15
G01X0724114
M16
G00X071939Y0289901
M15
G01X0724114
M16
G00X071939Y0308405
M15
G01X0724114
M16
G00X0191831Y0308405
M15
G01X0196555
M16
G00X0191831Y0289901
M15
G01X0196555
M16
G00X0191831Y0271398
M15
G01X0196555
M16
G00X0171358Y0271398
M15
G01X0176083
M16
G00X0171358Y0289901
M15
G01X0176083
M16
G00X0171358Y0308405
M15
G01X0176083
M16
G00X0150886Y0308405
M15
G01X015561
M16
G00X0150886Y0289901
M15
G01X015561
M16
G00X0150886Y0271398
M15
G01X015561
M16
M17
M30
