G04*
G04 #@! TF.GenerationSoftware,Altium Limited,Altium Designer,21.8.1 (53)*
G04*
G04 Layer_Physical_Order=1*
G04 Layer_Color=255*
%FSLAX25Y25*%
%MOIN*%
G70*
G04*
G04 #@! TF.SameCoordinates,D46EA3DB-D9D9-43A1-922E-71BBC497A689*
G04*
G04*
G04 #@! TF.FilePolarity,Positive*
G04*
G01*
G75*
%ADD18O,0.04331X0.06299*%
G04:AMPARAMS|DCode=19|XSize=78.74mil|YSize=125.98mil|CornerRadius=23.62mil|HoleSize=0mil|Usage=FLASHONLY|Rotation=270.000|XOffset=0mil|YOffset=0mil|HoleType=Round|Shape=RoundedRectangle|*
%AMROUNDEDRECTD19*
21,1,0.07874,0.07874,0,0,270.0*
21,1,0.03150,0.12598,0,0,270.0*
1,1,0.04724,-0.03937,-0.01575*
1,1,0.04724,-0.03937,0.01575*
1,1,0.04724,0.03937,0.01575*
1,1,0.04724,0.03937,-0.01575*
%
%ADD19ROUNDEDRECTD19*%
%ADD20C,0.07087*%
%ADD21P,0.07671X8X292.5*%
%ADD22C,0.15748*%
D18*
X242689Y314500D02*
D03*
X248594D02*
D03*
X254500D02*
D03*
X260405D02*
D03*
X266311D02*
D03*
X272217D02*
D03*
D19*
X194193Y289901D02*
D03*
Y271398D02*
D03*
Y308405D02*
D03*
X173721Y289901D02*
D03*
Y271398D02*
D03*
Y308405D02*
D03*
X153248Y289901D02*
D03*
Y271398D02*
D03*
Y308405D02*
D03*
X680807D02*
D03*
X680807Y271398D02*
D03*
X680807Y289901D02*
D03*
X701279Y308405D02*
D03*
Y271398D02*
D03*
Y289901D02*
D03*
X721752Y308405D02*
D03*
X721752Y271398D02*
D03*
X721752Y289901D02*
D03*
D20*
X298054Y285211D02*
D03*
Y295211D02*
D03*
Y305211D02*
D03*
D21*
Y315211D02*
D03*
D22*
X571375Y250598D02*
D03*
X299726Y249038D02*
D03*
M02*
