G04*
G04 #@! TF.GenerationSoftware,Altium Limited,Altium Designer,21.8.1 (53)*
G04*
G04 Layer_Color=8388736*
%FSLAX25Y25*%
%MOIN*%
G70*
G04*
G04 #@! TF.SameCoordinates,D46EA3DB-D9D9-43A1-922E-71BBC497A689*
G04*
G04*
G04 #@! TF.FilePolarity,Negative*
G04*
G01*
G75*
%ADD13O,0.05131X0.07099*%
G04:AMPARAMS|DCode=14|XSize=86.74mil|YSize=133.98mil|CornerRadius=27.62mil|HoleSize=0mil|Usage=FLASHONLY|Rotation=270.000|XOffset=0mil|YOffset=0mil|HoleType=Round|Shape=RoundedRectangle|*
%AMROUNDEDRECTD14*
21,1,0.08674,0.07874,0,0,270.0*
21,1,0.03150,0.13398,0,0,270.0*
1,1,0.05524,-0.03937,-0.01575*
1,1,0.05524,-0.03937,0.01575*
1,1,0.05524,0.03937,0.01575*
1,1,0.05524,0.03937,-0.01575*
%
%ADD14ROUNDEDRECTD14*%
%ADD15C,0.07887*%
%ADD16P,0.08537X8X292.5*%
%ADD17C,0.16548*%
D13*
X242689Y314500D02*
D03*
X248594D02*
D03*
X254500D02*
D03*
X260405D02*
D03*
X266311D02*
D03*
X272217D02*
D03*
D14*
X194193Y289901D02*
D03*
Y271398D02*
D03*
Y308405D02*
D03*
X173721Y289901D02*
D03*
Y271398D02*
D03*
Y308405D02*
D03*
X153248Y289901D02*
D03*
Y271398D02*
D03*
Y308405D02*
D03*
X680807D02*
D03*
X680807Y271398D02*
D03*
X680807Y289901D02*
D03*
X701279Y308405D02*
D03*
Y271398D02*
D03*
Y289901D02*
D03*
X721752Y308405D02*
D03*
X721752Y271398D02*
D03*
X721752Y289901D02*
D03*
D15*
X298054Y285211D02*
D03*
Y295211D02*
D03*
Y305211D02*
D03*
D16*
Y315211D02*
D03*
D17*
X571375Y250598D02*
D03*
X299726Y249038D02*
D03*
M02*
