M48
;Layer_Color=9474304
;FILE_FORMAT=2:5
INCH,LZ
;TYPE=PLATED
T2F00S00C0.03150
%
G90
G05
T02
G00X0330835Y0197508
M15
G01X0335953
M16
G00X0355638Y0197508
M15
G01X0360756
M16
G00X0380441Y0197508
M15
G01X0385559
M16
G00X037985Y02605
M15
G01X038615
M16
G00X0380444Y02775
M15
G01X0385562
M16
G00X0355641Y02775
M15
G01X0360759
M16
G00X0355047Y02605
M15
G01X0361347
M16
G00X0330244Y02605
M15
G01X0336544
M16
G00X0330838Y02775
M15
G01X0335956
M16
G00X0330247Y0340492
M15
G01X0336547
M16
G00X0330835Y03574
M15
G01X0335953
M16
G00X0355638Y03574
M15
G01X0360756
M16
G00X035505Y0340492
M15
G01X036135
M16
G00X0379853Y0340492
M15
G01X0386153
M16
G00X0380441Y03574
M15
G01X0385559
M16
G00X037985Y0420392
M15
G01X038615
M16
G00X0355047Y0420392
M15
G01X0361347
M16
G00X0330244Y0420392
M15
G01X0336544
M16
M17
M30
