G04*
G04 #@! TF.GenerationSoftware,Altium Limited,Altium Designer,21.8.1 (53)*
G04*
G04 Layer_Physical_Order=2*
G04 Layer_Color=16711680*
%FSLAX25Y25*%
%MOIN*%
G70*
G04*
G04 #@! TF.SameCoordinates,10585E3A-A503-4201-9872-C8A2A9F9218C*
G04*
G04*
G04 #@! TF.FilePolarity,Positive*
G04*
G01*
G75*
%ADD15C,0.03937*%
%ADD16O,0.12598X0.06299*%
%ADD17O,0.06299X0.04331*%
D15*
X398582Y348718D02*
X406278Y341022D01*
X367600Y357400D02*
X376282Y348718D01*
X398582D01*
X400358Y269258D02*
X412400Y281300D01*
X375574Y269258D02*
X400358D01*
X367333Y277500D02*
X375574Y269258D01*
X358200Y277500D02*
X367333D01*
X358197Y357400D02*
X367600D01*
X419400Y306200D02*
X430600Y317400D01*
X333397Y277500D02*
X333497Y277400D01*
X419400Y276000D02*
Y306200D01*
X346200Y258300D02*
X353400Y251100D01*
X430600Y317400D02*
X436000D01*
X346200Y258300D02*
Y274800D01*
X333497Y277400D02*
X343600D01*
X346200Y274800D01*
X353400Y251100D02*
X394500D01*
X419400Y276000D01*
X412400Y309500D02*
X426205Y323306D01*
X436000D01*
X412400Y281300D02*
Y309500D01*
X396100Y277500D02*
X404500Y285900D01*
Y311800D01*
X421911Y329211D02*
X436000D01*
X383003Y277500D02*
X396100D01*
X404500Y311800D02*
X421911Y329211D01*
X404900Y329700D02*
X410317Y335117D01*
X346500Y335900D02*
Y352400D01*
X352700Y329700D02*
X404900D01*
X346500Y335900D02*
X352700Y329700D01*
X333394Y357400D02*
X341500D01*
X346500Y352400D01*
X410317Y335117D02*
X436000D01*
X406278Y341022D02*
X436000D01*
X413772Y346927D02*
X436000D01*
X403300Y357400D02*
X413772Y346927D01*
X383000Y357400D02*
X403300D01*
D16*
X333394D02*
D03*
Y420392D02*
D03*
X358197Y357400D02*
D03*
X383000D02*
D03*
Y420392D02*
D03*
X358197D02*
D03*
X333397Y277500D02*
D03*
Y340492D02*
D03*
X358200Y277500D02*
D03*
X383003D02*
D03*
Y340492D02*
D03*
X358200D02*
D03*
X333394Y197508D02*
D03*
Y260500D02*
D03*
X358197Y197508D02*
D03*
X383000D02*
D03*
Y260500D02*
D03*
X358197D02*
D03*
D17*
X435900Y301200D02*
D03*
Y295294D02*
D03*
Y289389D02*
D03*
Y283484D02*
D03*
Y277578D02*
D03*
Y271673D02*
D03*
X436000Y346927D02*
D03*
Y341022D02*
D03*
Y335117D02*
D03*
Y329211D02*
D03*
Y323306D02*
D03*
Y317400D02*
D03*
M02*
