G04*
G04 #@! TF.GenerationSoftware,Altium Limited,Altium Designer,21.8.1 (53)*
G04*
G04 Layer_Color=32896*
%FSLAX25Y25*%
%MOIN*%
G70*
G04*
G04 #@! TF.SameCoordinates,10585E3A-A503-4201-9872-C8A2A9F9218C*
G04*
G04*
G04 #@! TF.FilePolarity,Positive*
G04*
G01*
G75*
%ADD11C,0.01000*%
%ADD12C,0.00800*%
D11*
X317000Y189750D02*
X399500D01*
Y268250D01*
X317000D02*
X399500D01*
X317000Y189750D02*
Y268250D01*
X399500Y246750D02*
X411500D01*
Y211750D02*
Y246750D01*
X400000Y211750D02*
X411500D01*
X399500Y211250D02*
X400000Y211750D01*
X411500D02*
X413621Y223666D01*
X413649Y234763D01*
X413500Y234750D02*
X413649Y234763D01*
X411500Y246750D02*
X413500Y234750D01*
X317000Y269750D02*
X399500D01*
Y348250D01*
X317000D02*
X399500D01*
X317000Y269750D02*
Y348250D01*
X399500Y326750D02*
X411500D01*
Y291750D02*
Y326750D01*
X400000Y291750D02*
X411500D01*
X399500Y291250D02*
X400000Y291750D01*
X411500D02*
X413621Y303666D01*
X413649Y314763D01*
X413500Y314750D02*
X413649Y314763D01*
X411500Y326750D02*
X413500Y314750D01*
X411500Y406500D02*
X413500Y394500D01*
X413649Y394513D01*
X413621Y383416D02*
X413649Y394513D01*
X411500Y371500D02*
X413621Y383416D01*
X399500Y371000D02*
X400000Y371500D01*
X411500D01*
Y406500D01*
X399500D02*
X411500D01*
X317000Y349500D02*
Y428000D01*
X399500D01*
Y349500D02*
Y428000D01*
X317000Y349500D02*
X399500D01*
X427300Y352600D02*
X441300D01*
Y311700D02*
Y352600D01*
X440900Y311300D02*
X441300Y311700D01*
X427600Y311300D02*
X440900D01*
X427300Y311600D02*
X427600Y311300D01*
X427300Y311600D02*
Y352600D01*
Y349300D02*
Y349700D01*
X429900Y352300D02*
X430000D01*
X427300Y349700D02*
X429900Y352300D01*
X434300Y350500D02*
Y352600D01*
Y350500D02*
X434400Y350400D01*
X438800D01*
Y352000D01*
X439100Y352300D01*
X434250Y311300D02*
Y313850D01*
X434300Y313800D01*
X439000D01*
X439100Y313700D01*
Y311300D02*
Y313700D01*
X439000Y265700D02*
Y268100D01*
X438900Y268200D02*
X439000Y268100D01*
X434200Y268200D02*
X438900D01*
X434150Y268250D02*
X434200Y268200D01*
X434150Y265700D02*
Y268250D01*
X438700Y306400D02*
X439000Y306700D01*
X438700Y304800D02*
Y306400D01*
X434300Y304800D02*
X438700D01*
X434200Y304900D02*
X434300Y304800D01*
X434200Y304900D02*
Y307000D01*
X427200Y304100D02*
X429800Y306700D01*
X429900D01*
X427200Y303700D02*
Y304100D01*
Y266000D02*
Y307000D01*
Y266000D02*
X427500Y265700D01*
X440800D01*
X441200Y266100D01*
Y307000D01*
X427200D02*
X441200D01*
D12*
X371200Y394799D02*
X369867D01*
X370534D01*
Y390800D01*
X371200D01*
X369867D01*
X367868D02*
Y394799D01*
X365202Y390800D01*
Y394799D01*
X359870Y390800D02*
X358537D01*
X359204D01*
Y394799D01*
X359870Y394132D01*
X356538Y392799D02*
X353872D01*
X349873Y390800D02*
X352539D01*
X349873Y393466D01*
Y394132D01*
X350540Y394799D01*
X351873D01*
X352539Y394132D01*
X371203Y314899D02*
X369870D01*
X370536D01*
Y310900D01*
X371203D01*
X369870D01*
X367871D02*
Y314899D01*
X365205Y310900D01*
Y314899D01*
X359873Y314232D02*
X359207Y314899D01*
X357874D01*
X357207Y314232D01*
Y313566D01*
X357874Y312899D01*
X358540D01*
X357874D01*
X357207Y312233D01*
Y311566D01*
X357874Y310900D01*
X359207D01*
X359873Y311566D01*
X355875Y312899D02*
X353209D01*
X349876Y310900D02*
Y314899D01*
X351876Y312899D01*
X349210D01*
X371200Y234907D02*
X369867D01*
X370534D01*
Y230908D01*
X371200D01*
X369867D01*
X367868D02*
Y234907D01*
X365202Y230908D01*
Y234907D01*
X357205D02*
X359870D01*
Y232907D01*
X358537Y233574D01*
X357871D01*
X357205Y232907D01*
Y231574D01*
X357871Y230908D01*
X359204D01*
X359870Y231574D01*
X355872Y232907D02*
X353206D01*
X349207Y234907D02*
X350540Y234240D01*
X351873Y232907D01*
Y231574D01*
X351206Y230908D01*
X349873D01*
X349207Y231574D01*
Y232241D01*
X349873Y232907D01*
X351873D01*
X418535Y358034D02*
X417868Y358701D01*
Y360034D01*
X418535Y360700D01*
X419201D01*
X419868Y360034D01*
Y358701D01*
X420534Y358034D01*
X421201D01*
X421867Y358701D01*
Y360034D01*
X421201Y360700D01*
X421867Y356035D02*
Y354702D01*
X421201Y354035D01*
X419868D01*
X419201Y354702D01*
Y356035D01*
X419868Y356701D01*
X421201D01*
X421867Y356035D01*
Y352703D02*
Y351370D01*
Y352036D01*
X417868D01*
Y352703D01*
Y346705D02*
X421867D01*
Y348704D01*
X421201Y349370D01*
X419868D01*
X419201Y348704D01*
Y346705D01*
X421867Y343372D02*
Y344705D01*
X421201Y345372D01*
X419868D01*
X419201Y344705D01*
Y343372D01*
X419868Y342706D01*
X420534D01*
Y345372D01*
X419201Y341373D02*
X421867D01*
X420534D01*
X419868Y340706D01*
X419201Y340040D01*
Y339373D01*
X421867Y333376D02*
Y331376D01*
X421201Y330710D01*
X420534Y331376D01*
Y332709D01*
X419868Y333376D01*
X419201Y332709D01*
Y330710D01*
X421867Y329377D02*
Y328044D01*
Y328710D01*
X419201D01*
Y329377D01*
X417868Y323379D02*
X421867D01*
Y325378D01*
X421201Y326045D01*
X419868D01*
X419201Y325378D01*
Y323379D01*
X421867Y320046D02*
Y321379D01*
X421201Y322046D01*
X419868D01*
X419201Y321379D01*
Y320046D01*
X419868Y319380D01*
X420534D01*
Y322046D01*
X417868Y314048D02*
X421867D01*
X419868D01*
X419201Y313382D01*
Y312049D01*
X419868Y311383D01*
X421867D01*
Y308050D02*
Y309383D01*
X421201Y310050D01*
X419868D01*
X419201Y309383D01*
Y308050D01*
X419868Y307384D01*
X420534D01*
Y310050D01*
X419201Y306051D02*
X421867D01*
X420534D01*
X419868Y305384D01*
X419201Y304718D01*
Y304052D01*
X421867Y300053D02*
Y301386D01*
X421201Y302052D01*
X419868D01*
X419201Y301386D01*
Y300053D01*
X419868Y299387D01*
X420534D01*
Y302052D01*
X421867Y293388D02*
X418535D01*
X419868D01*
Y294055D01*
Y292722D01*
Y293388D01*
X418535D01*
X417868Y292722D01*
X421867Y290056D02*
Y288723D01*
X421201Y288057D01*
X419868D01*
X419201Y288723D01*
Y290056D01*
X419868Y290723D01*
X421201D01*
X421867Y290056D01*
X419201Y286724D02*
X421867D01*
X420534D01*
X419868Y286057D01*
X419201Y285391D01*
Y284724D01*
X417868Y278726D02*
Y277394D01*
Y278060D01*
X421867D01*
Y278726D01*
Y277394D01*
Y275394D02*
X419201D01*
Y273395D01*
X419868Y272728D01*
X421867D01*
X423200Y271395D02*
X419201D01*
Y269396D01*
X419868Y268730D01*
X421201D01*
X421867Y269396D01*
Y271395D01*
X419201Y267397D02*
X421201D01*
X421867Y266730D01*
Y264731D01*
X419201D01*
X418535Y262732D02*
X419201D01*
Y263398D01*
Y262065D01*
Y262732D01*
X421201D01*
X421867Y262065D01*
Y260066D02*
Y258066D01*
X421201Y257400D01*
X420534Y258066D01*
Y259399D01*
X419868Y260066D01*
X419201Y259399D01*
Y257400D01*
M02*
