G04*
G04 #@! TF.GenerationSoftware,Altium Limited,Altium Designer,21.8.1 (53)*
G04*
G04 Layer_Color=65535*
%FSLAX25Y25*%
%MOIN*%
G70*
G04*
G04 #@! TF.SameCoordinates,10585E3A-A503-4201-9872-C8A2A9F9218C*
G04*
G04*
G04 #@! TF.FilePolarity,Positive*
G04*
G01*
G75*
%ADD10C,0.00500*%
%ADD11C,0.01000*%
%ADD12C,0.00800*%
D10*
X316857Y388897D02*
X399534D01*
X316860Y308997D02*
X399537D01*
X316857Y229005D02*
X399534D01*
D11*
X316857Y428267D02*
X399534D01*
X316857Y349527D02*
Y428267D01*
Y349527D02*
X399534D01*
Y428267D01*
X283392Y410550D02*
X316857D01*
X283392Y367243D02*
X316857Y367243D01*
X411345Y406417D02*
X413707Y394409D01*
X411345Y371377D02*
X413707Y383385D01*
X399534Y406417D02*
X411345D01*
X399534Y371377D02*
X411345D01*
X413707Y383385D02*
Y394409D01*
X411345Y371377D02*
Y406417D01*
X283392Y367243D02*
Y410550D01*
X291266D02*
X295203Y367243D01*
X283392Y410550D02*
X287329Y367243D01*
Y410550D02*
X291266Y367243D01*
X295203Y410550D02*
X299140Y367243D01*
Y410550D02*
X303077Y367243D01*
Y410550D02*
X307014Y367243D01*
Y410550D02*
X310951Y367243D01*
X310951Y410550D02*
X314888Y367243D01*
X433380Y265767D02*
Y268208D01*
X438975D01*
Y265767D02*
Y268208D01*
X438975Y304664D02*
Y307105D01*
X433380Y304664D02*
X438975D01*
X433380D02*
Y307105D01*
X427239D02*
X441412D01*
X427239Y265767D02*
Y307105D01*
Y265767D02*
X441412D01*
Y307027D01*
X316860Y348367D02*
X399537D01*
X316860Y269627D02*
Y348367D01*
Y269627D02*
X399537D01*
Y348367D01*
X283395Y330650D02*
X316860D01*
X283395Y287343D02*
X316860D01*
X411348Y326517D02*
X413710Y314509D01*
X411348Y291477D02*
X413710Y303485D01*
X399537Y326517D02*
X411348D01*
X399537Y291477D02*
X411348D01*
X413710Y303485D02*
Y314509D01*
X411348Y291477D02*
Y326517D01*
X283395Y287343D02*
Y330650D01*
X291269D02*
X295206Y287343D01*
X283395Y330650D02*
X287332Y287343D01*
Y330650D02*
X291269Y287343D01*
X295206Y330650D02*
X299143Y287343D01*
Y330650D02*
X303080Y287343D01*
Y330650D02*
X307017Y287343D01*
Y330650D02*
X310954Y287343D01*
X310954Y330650D02*
X314891Y287343D01*
X433480Y311495D02*
Y313936D01*
X439075D01*
Y311495D02*
Y313936D01*
X439075Y350392D02*
Y352833D01*
X433480Y350392D02*
X439075D01*
X433480D02*
Y352833D01*
X427339D02*
X441512D01*
X427339Y311494D02*
Y352833D01*
Y311494D02*
X441512D01*
Y352754D01*
X316857Y268375D02*
X399534D01*
X316857Y189635D02*
Y268375D01*
Y189635D02*
X399534D01*
Y268375D01*
X283392Y250658D02*
X316857D01*
X283392Y207351D02*
X316857D01*
X411345Y246524D02*
X413707Y234516D01*
X411345Y211485D02*
X413707Y223493D01*
X399534Y246524D02*
X411345D01*
X399534Y211485D02*
X411345D01*
X413707Y223493D02*
Y234516D01*
X411345Y211485D02*
Y246524D01*
X283392Y207351D02*
Y250658D01*
X291266D02*
X295203Y207351D01*
X283392Y250658D02*
X287329Y207351D01*
Y250658D02*
X291266Y207351D01*
X295203Y250658D02*
X299140Y207351D01*
Y250658D02*
X303077Y207351D01*
Y250658D02*
X307014Y207351D01*
Y250658D02*
X310951Y207351D01*
X310951Y250658D02*
X314888Y207351D01*
D12*
X427400Y303700D02*
Y304200D01*
X430400Y307200D01*
X427500Y349428D02*
Y349927D01*
X430500Y352927D01*
X346799Y394799D02*
X345466D01*
X344800Y394132D01*
Y391466D01*
X345466Y390800D01*
X346799D01*
X347466Y391466D01*
Y394132D01*
X346799Y394799D01*
X348799D02*
Y391466D01*
X349465Y390800D01*
X350798D01*
X351465Y391466D01*
Y394799D01*
X352797D02*
X355463D01*
X354130D01*
Y390800D01*
X360795D02*
X362128D01*
X361461D01*
Y394799D01*
X360795Y394132D01*
X364127Y392799D02*
X366793D01*
X370792Y390800D02*
X368126D01*
X370792Y393466D01*
Y394132D01*
X370125Y394799D01*
X368792D01*
X368126Y394132D01*
X346802Y314899D02*
X345469D01*
X344803Y314232D01*
Y311566D01*
X345469Y310900D01*
X346802D01*
X347469Y311566D01*
Y314232D01*
X346802Y314899D01*
X348802D02*
Y311566D01*
X349468Y310900D01*
X350801D01*
X351467Y311566D01*
Y314899D01*
X352800D02*
X355466D01*
X354133D01*
Y310900D01*
X360798Y314232D02*
X361464Y314899D01*
X362797D01*
X363464Y314232D01*
Y313566D01*
X362797Y312899D01*
X362131D01*
X362797D01*
X363464Y312233D01*
Y311566D01*
X362797Y310900D01*
X361464D01*
X360798Y311566D01*
X364796Y312899D02*
X367462D01*
X370795Y310900D02*
Y314899D01*
X368795Y312899D01*
X371461D01*
X346799Y234907D02*
X345466D01*
X344800Y234240D01*
Y231574D01*
X345466Y230908D01*
X346799D01*
X347466Y231574D01*
Y234240D01*
X346799Y234907D01*
X348799D02*
Y231574D01*
X349465Y230908D01*
X350798D01*
X351465Y231574D01*
Y234907D01*
X352797D02*
X355463D01*
X354130D01*
Y230908D01*
X363461Y234907D02*
X360795D01*
Y232907D01*
X362128Y233574D01*
X362794D01*
X363461Y232907D01*
Y231574D01*
X362794Y230908D01*
X361461D01*
X360795Y231574D01*
X364794Y232907D02*
X367459D01*
X371458Y234907D02*
X370125Y234240D01*
X368792Y232907D01*
Y231574D01*
X369459Y230908D01*
X370792D01*
X371458Y231574D01*
Y232241D01*
X370792Y232907D01*
X368792D01*
X418835Y256766D02*
X418168Y256099D01*
Y254766D01*
X418835Y254100D01*
X419501D01*
X420168Y254766D01*
Y256099D01*
X420834Y256766D01*
X421501D01*
X422167Y256099D01*
Y254766D01*
X421501Y254100D01*
X422167Y258765D02*
Y260098D01*
X421501Y260765D01*
X420168D01*
X419501Y260098D01*
Y258765D01*
X420168Y258099D01*
X421501D01*
X422167Y258765D01*
Y262097D02*
Y263430D01*
Y262764D01*
X418168D01*
Y262097D01*
Y268095D02*
X422167D01*
Y266096D01*
X421501Y265430D01*
X420168D01*
X419501Y266096D01*
Y268095D01*
X422167Y271428D02*
Y270095D01*
X421501Y269428D01*
X420168D01*
X419501Y270095D01*
Y271428D01*
X420168Y272094D01*
X420834D01*
Y269428D01*
X419501Y273427D02*
X422167D01*
X420834D01*
X420168Y274094D01*
X419501Y274760D01*
Y275427D01*
X422167Y281424D02*
Y283424D01*
X421501Y284090D01*
X420834Y283424D01*
Y282091D01*
X420168Y281424D01*
X419501Y282091D01*
Y284090D01*
X422167Y285423D02*
Y286756D01*
Y286090D01*
X419501D01*
Y285423D01*
X418168Y291421D02*
X422167D01*
Y289422D01*
X421501Y288755D01*
X420168D01*
X419501Y289422D01*
Y291421D01*
X422167Y294754D02*
Y293421D01*
X421501Y292754D01*
X420168D01*
X419501Y293421D01*
Y294754D01*
X420168Y295420D01*
X420834D01*
Y292754D01*
X418168Y300752D02*
X422167D01*
X420168D01*
X419501Y301418D01*
Y302751D01*
X420168Y303417D01*
X422167D01*
Y306750D02*
Y305417D01*
X421501Y304750D01*
X420168D01*
X419501Y305417D01*
Y306750D01*
X420168Y307416D01*
X420834D01*
Y304750D01*
X419501Y308749D02*
X422167D01*
X420834D01*
X420168Y309416D01*
X419501Y310082D01*
Y310748D01*
X422167Y314747D02*
Y313414D01*
X421501Y312748D01*
X420168D01*
X419501Y313414D01*
Y314747D01*
X420168Y315413D01*
X420834D01*
Y312748D01*
X422167Y321412D02*
X418835D01*
X420168D01*
Y320745D01*
Y322078D01*
Y321412D01*
X418835D01*
X418168Y322078D01*
X422167Y324744D02*
Y326077D01*
X421501Y326743D01*
X420168D01*
X419501Y326077D01*
Y324744D01*
X420168Y324077D01*
X421501D01*
X422167Y324744D01*
X419501Y328076D02*
X422167D01*
X420834D01*
X420168Y328743D01*
X419501Y329409D01*
Y330076D01*
X418168Y338073D02*
Y336740D01*
X418835Y336074D01*
X421501D01*
X422167Y336740D01*
Y338073D01*
X421501Y338739D01*
X418835D01*
X418168Y338073D01*
X419501Y340072D02*
X421501D01*
X422167Y340739D01*
Y342738D01*
X419501D01*
X418835Y344737D02*
X419501D01*
Y344071D01*
Y345404D01*
Y344737D01*
X421501D01*
X422167Y345404D01*
X423500Y347403D02*
X419501D01*
Y349403D01*
X420168Y350069D01*
X421501D01*
X422167Y349403D01*
Y347403D01*
X419501Y351402D02*
X421501D01*
X422167Y352068D01*
Y354068D01*
X419501D01*
X418835Y356067D02*
X419501D01*
Y355401D01*
Y356734D01*
Y356067D01*
X421501D01*
X422167Y356734D01*
Y358733D02*
Y360732D01*
X421501Y361399D01*
X420834Y360732D01*
Y359399D01*
X420168Y358733D01*
X419501Y359399D01*
Y361399D01*
M02*
