ISO-10303-21;
HEADER;
FILE_DESCRIPTION(('STEP AP242'),
    '1');
FILE_NAME('18650 Li Ion Battery_1',
    '',
    ('UNSPECIFIED'),
    ('UNSPECIFIED'),
    'C3D Converter',
    'C3D Toolkit',
    '');
FILE_SCHEMA(('AP242_MANAGED_MODEL_BASED_3D_ENGINEERING_MIM_LF { 1 0 10303 442 1 1 4 }'));
ENDSEC;

DATA;
#1=SHAPE_REPRESENTATION('NONE',(#2),#6);
#2=AXIS2_PLACEMENT_3D('',#3,#4,#5);
#3=CARTESIAN_POINT('',(0.,0.,0.));
#4=DIRECTION('',(0.,0.,1.));
#5=DIRECTION('',(1.,0.,0.));
#6=(GEOMETRIC_REPRESENTATION_CONTEXT(3)GLOBAL_UNCERTAINTY_ASSIGNED_CONTEXT((#8))
GLOBAL_UNIT_ASSIGNED_CONTEXT((#7,#9,#10))REPRESENTATION_CONTEXT('NONE','NONE'));
#7=(LENGTH_UNIT()NAMED_UNIT(*)SI_UNIT(.MILLI.,.METRE.));
#8=UNCERTAINTY_MEASURE_WITH_UNIT(LENGTH_MEASURE(1.E-5),#7,'NONE','NONE');
#9=(NAMED_UNIT(*)PLANE_ANGLE_UNIT()SI_UNIT($,.RADIAN.));
#10=(NAMED_UNIT(*)SI_UNIT($,.STERADIAN.)SOLID_ANGLE_UNIT());
#11=SHAPE_DEFINITION_REPRESENTATION(#12,#1);
#12=PRODUCT_DEFINITION_SHAPE('NONE','NONE',#13);
#13=PRODUCT_DEFINITION('','UNSPECIFIED',#14,#22);
#14=PRODUCT_DEFINITION_FORMATION_WITH_SPECIFIED_SOURCE('ANY','UNSPECIFIED',#15,.NOT_KNOWN.);
#15=PRODUCT('18650 Li Ion Battery','18650 Li Ion Battery','NONE',(#25));
#16=PERSON('UNSPECIFIED','rorka','UNSPECIFIED',('UNSPECIFIED'),('UNSPECIFIED'),(
'UNSPECIFIED'));
#17=ORGANIZATION('UNSPECIFIED','UNSPECIFIED','UNSPECIFIED');
#18=PERSON_AND_ORGANIZATION(#16,#17);
#19=PERSON_AND_ORGANIZATION_ROLE('design_owner');
#20=CC_DESIGN_PERSON_AND_ORGANIZATION_ASSIGNMENT(#18,#19,(#15));
#21=PRODUCT_RELATED_PRODUCT_CATEGORY('detail','',(#15));
#22=DESIGN_CONTEXT('detailed design',#23,'design');
#23=APPLICATION_CONTEXT('configuration controlled 3d designs of mechanical parts and assemblies');
#24=APPLICATION_PROTOCOL_DEFINITION('international standard','config_control_design',
1994,#23);
#25=MECHANICAL_CONTEXT('NONE',#23,'mechanical');
#26=CC_DESIGN_DATE_AND_TIME_ASSIGNMENT(#27,#31,(#13));
#27=DATE_AND_TIME(#28,#29);
#28=CALENDAR_DATE(0,1,1);
#29=LOCAL_TIME(0,0,0.,#30);
#30=COORDINATED_UNIVERSAL_TIME_OFFSET(0,0,.AHEAD.);
#31=DATE_TIME_ROLE('creation_date');
#32=CC_DESIGN_APPROVAL(#33,(#13));
#33=APPROVAL(#34,'UNSPECIFIED');
#34=APPROVAL_STATUS('not_yet_approved');
#35=APPROVAL_DATE_TIME(#36,#33);
#36=DATE_AND_TIME(#37,#38);
#37=CALENDAR_DATE(0,1,1);
#38=LOCAL_TIME(0,0,0.,#39);
#39=COORDINATED_UNIVERSAL_TIME_OFFSET(0,0,.AHEAD.);
#40=MANIFOLD_SOLID_BREP('',#41);
#41=CLOSED_SHELL('',(#53,#62,#71,#80,#89,#98,#107,#116,#125,#134,#143,#152,#161,
#170,#179,#188,#197,#206,#215,#224,#233,#242,#251,#260,#269,#278,#287,#296,#305,
#314,#323,#332,#341,#350,#359,#368,#377,#386,#395,#404,#413));
#42=COLOUR_RGB('',0.792156862745098,0.815686274509804,0.929411764705882);
#43=FILL_AREA_STYLE_COLOUR('',#42);
#44=FILL_AREA_STYLE($,(#43));
#45=SURFACE_STYLE_FILL_AREA(#44);
#46=SURFACE_SIDE_STYLE('',(#45));
#47=SURFACE_STYLE_USAGE(.BOTH.,#46);
#48=PRESENTATION_STYLE_ASSIGNMENT((#47));
#49=MECHANICAL_DESIGN_GEOMETRIC_PRESENTATION_REPRESENTATION('NONE',(#50,#61,#70,
#79,#88,#97,#106,#115,#124,#133,#142,#151,#160,#169,#178,#187,#196,#205,#214,#223,
#232,#241,#250,#259,#268,#277,#286,#295,#304,#313,#322,#331,#340,#349,#358,#367,
#376,#385,#394,#403,#412,#421),#6);
#50=STYLED_ITEM('',(#48),#40);
#51=ADVANCED_BREP_SHAPE_REPRESENTATION('NONE',(#40),#6);
#52=SHAPE_REPRESENTATION_RELATIONSHIP('','',#1,#51);
#53=ADVANCED_FACE('',(#422,#424),#426,.F.);
#54=COLOUR_RGB('',0.52156862745098,0.949019607843137,0.2);
#55=FILL_AREA_STYLE_COLOUR('',#54);
#56=FILL_AREA_STYLE($,(#55));
#57=SURFACE_STYLE_FILL_AREA(#56);
#58=SURFACE_SIDE_STYLE('',(#57));
#59=SURFACE_STYLE_USAGE(.BOTH.,#58);
#60=PRESENTATION_STYLE_ASSIGNMENT((#59));
#61=STYLED_ITEM('',(#60),#53);
#62=ADVANCED_FACE('',(#431,#433),#435,.T.);
#63=COLOUR_RGB('',0.52156862745098,0.949019607843137,0.2);
#64=FILL_AREA_STYLE_COLOUR('',#63);
#65=FILL_AREA_STYLE($,(#64));
#66=SURFACE_STYLE_FILL_AREA(#65);
#67=SURFACE_SIDE_STYLE('',(#66));
#68=SURFACE_STYLE_USAGE(.BOTH.,#67);
#69=PRESENTATION_STYLE_ASSIGNMENT((#68));
#70=STYLED_ITEM('',(#69),#62);
#71=ADVANCED_FACE('',(#440,#442),#444,.T.);
#72=COLOUR_RGB('',0.52156862745098,0.949019607843137,0.2);
#73=FILL_AREA_STYLE_COLOUR('',#72);
#74=FILL_AREA_STYLE($,(#73));
#75=SURFACE_STYLE_FILL_AREA(#74);
#76=SURFACE_SIDE_STYLE('',(#75));
#77=SURFACE_STYLE_USAGE(.BOTH.,#76);
#78=PRESENTATION_STYLE_ASSIGNMENT((#77));
#79=STYLED_ITEM('',(#78),#71);
#80=ADVANCED_FACE('',(#449,#451),#453,.T.);
#81=COLOUR_RGB('',0.52156862745098,0.949019607843137,0.2);
#82=FILL_AREA_STYLE_COLOUR('',#81);
#83=FILL_AREA_STYLE($,(#82));
#84=SURFACE_STYLE_FILL_AREA(#83);
#85=SURFACE_SIDE_STYLE('',(#84));
#86=SURFACE_STYLE_USAGE(.BOTH.,#85);
#87=PRESENTATION_STYLE_ASSIGNMENT((#86));
#88=STYLED_ITEM('',(#87),#80);
#89=ADVANCED_FACE('',(#458,#460),#462,.T.);
#90=COLOUR_RGB('',0.52156862745098,0.949019607843137,0.2);
#91=FILL_AREA_STYLE_COLOUR('',#90);
#92=FILL_AREA_STYLE($,(#91));
#93=SURFACE_STYLE_FILL_AREA(#92);
#94=SURFACE_SIDE_STYLE('',(#93));
#95=SURFACE_STYLE_USAGE(.BOTH.,#94);
#96=PRESENTATION_STYLE_ASSIGNMENT((#95));
#97=STYLED_ITEM('',(#96),#89);
#98=ADVANCED_FACE('',(#467,#469),#471,.T.);
#99=COLOUR_RGB('',0.52156862745098,0.949019607843137,0.2);
#100=FILL_AREA_STYLE_COLOUR('',#99);
#101=FILL_AREA_STYLE($,(#100));
#102=SURFACE_STYLE_FILL_AREA(#101);
#103=SURFACE_SIDE_STYLE('',(#102));
#104=SURFACE_STYLE_USAGE(.BOTH.,#103);
#105=PRESENTATION_STYLE_ASSIGNMENT((#104));
#106=STYLED_ITEM('',(#105),#98);
#107=ADVANCED_FACE('',(#476,#478),#480,.F.);
#108=COLOUR_RGB('',0.52156862745098,0.949019607843137,0.2);
#109=FILL_AREA_STYLE_COLOUR('',#108);
#110=FILL_AREA_STYLE($,(#109));
#111=SURFACE_STYLE_FILL_AREA(#110);
#112=SURFACE_SIDE_STYLE('',(#111));
#113=SURFACE_STYLE_USAGE(.BOTH.,#112);
#114=PRESENTATION_STYLE_ASSIGNMENT((#113));
#115=STYLED_ITEM('',(#114),#107);
#116=ADVANCED_FACE('',(#485),#487,.F.);
#117=COLOUR_RGB('',0.662745098039216,0.698039215686275,0.764705882352941);
#118=FILL_AREA_STYLE_COLOUR('',#117);
#119=FILL_AREA_STYLE($,(#118));
#120=SURFACE_STYLE_FILL_AREA(#119);
#121=SURFACE_SIDE_STYLE('',(#120));
#122=SURFACE_STYLE_USAGE(.BOTH.,#121);
#123=PRESENTATION_STYLE_ASSIGNMENT((#122));
#124=STYLED_ITEM('',(#123),#116);
#125=ADVANCED_FACE('',(#492),#494,.T.);
#126=COLOUR_RGB('',0.662745098039216,0.698039215686275,0.764705882352941);
#127=FILL_AREA_STYLE_COLOUR('',#126);
#128=FILL_AREA_STYLE($,(#127));
#129=SURFACE_STYLE_FILL_AREA(#128);
#130=SURFACE_SIDE_STYLE('',(#129));
#131=SURFACE_STYLE_USAGE(.BOTH.,#130);
#132=PRESENTATION_STYLE_ASSIGNMENT((#131));
#133=STYLED_ITEM('',(#132),#125);
#134=ADVANCED_FACE('',(#499,#501),#503,.F.);
#135=COLOUR_RGB('',0.,0.,0.);
#136=FILL_AREA_STYLE_COLOUR('',#135);
#137=FILL_AREA_STYLE($,(#136));
#138=SURFACE_STYLE_FILL_AREA(#137);
#139=SURFACE_SIDE_STYLE('',(#138));
#140=SURFACE_STYLE_USAGE(.BOTH.,#139);
#141=PRESENTATION_STYLE_ASSIGNMENT((#140));
#142=STYLED_ITEM('',(#141),#134);
#143=ADVANCED_FACE('',(#508,#510),#512,.F.);
#144=COLOUR_RGB('',0.52156862745098,0.949019607843137,0.2);
#145=FILL_AREA_STYLE_COLOUR('',#144);
#146=FILL_AREA_STYLE($,(#145));
#147=SURFACE_STYLE_FILL_AREA(#146);
#148=SURFACE_SIDE_STYLE('',(#147));
#149=SURFACE_STYLE_USAGE(.BOTH.,#148);
#150=PRESENTATION_STYLE_ASSIGNMENT((#149));
#151=STYLED_ITEM('',(#150),#143);
#152=ADVANCED_FACE('',(#517,#519),#521,.T.);
#153=COLOUR_RGB('',0.52156862745098,0.949019607843137,0.2);
#154=FILL_AREA_STYLE_COLOUR('',#153);
#155=FILL_AREA_STYLE($,(#154));
#156=SURFACE_STYLE_FILL_AREA(#155);
#157=SURFACE_SIDE_STYLE('',(#156));
#158=SURFACE_STYLE_USAGE(.BOTH.,#157);
#159=PRESENTATION_STYLE_ASSIGNMENT((#158));
#160=STYLED_ITEM('',(#159),#152);
#161=ADVANCED_FACE('',(#526),#528,.F.);
#162=COLOUR_RGB('',0.662745098039216,0.698039215686275,0.764705882352941);
#163=FILL_AREA_STYLE_COLOUR('',#162);
#164=FILL_AREA_STYLE($,(#163));
#165=SURFACE_STYLE_FILL_AREA(#164);
#166=SURFACE_SIDE_STYLE('',(#165));
#167=SURFACE_STYLE_USAGE(.BOTH.,#166);
#168=PRESENTATION_STYLE_ASSIGNMENT((#167));
#169=STYLED_ITEM('',(#168),#161);
#170=ADVANCED_FACE('',(#533),#535,.F.);
#171=COLOUR_RGB('',0.662745098039216,0.698039215686275,0.764705882352941);
#172=FILL_AREA_STYLE_COLOUR('',#171);
#173=FILL_AREA_STYLE($,(#172));
#174=SURFACE_STYLE_FILL_AREA(#173);
#175=SURFACE_SIDE_STYLE('',(#174));
#176=SURFACE_STYLE_USAGE(.BOTH.,#175);
#177=PRESENTATION_STYLE_ASSIGNMENT((#176));
#178=STYLED_ITEM('',(#177),#170);
#179=ADVANCED_FACE('',(#540),#542,.F.);
#180=COLOUR_RGB('',0.662745098039216,0.698039215686275,0.764705882352941);
#181=FILL_AREA_STYLE_COLOUR('',#180);
#182=FILL_AREA_STYLE($,(#181));
#183=SURFACE_STYLE_FILL_AREA(#182);
#184=SURFACE_SIDE_STYLE('',(#183));
#185=SURFACE_STYLE_USAGE(.BOTH.,#184);
#186=PRESENTATION_STYLE_ASSIGNMENT((#185));
#187=STYLED_ITEM('',(#186),#179);
#188=ADVANCED_FACE('',(#547,#549,#551,#553),#555,.T.);
#189=COLOUR_RGB('',0.,0.,0.);
#190=FILL_AREA_STYLE_COLOUR('',#189);
#191=FILL_AREA_STYLE($,(#190));
#192=SURFACE_STYLE_FILL_AREA(#191);
#193=SURFACE_SIDE_STYLE('',(#192));
#194=SURFACE_STYLE_USAGE(.BOTH.,#193);
#195=PRESENTATION_STYLE_ASSIGNMENT((#194));
#196=STYLED_ITEM('',(#195),#188);
#197=ADVANCED_FACE('',(#560,#562),#564,.F.);
#198=COLOUR_RGB('',0.52156862745098,0.949019607843137,0.2);
#199=FILL_AREA_STYLE_COLOUR('',#198);
#200=FILL_AREA_STYLE($,(#199));
#201=SURFACE_STYLE_FILL_AREA(#200);
#202=SURFACE_SIDE_STYLE('',(#201));
#203=SURFACE_STYLE_USAGE(.BOTH.,#202);
#204=PRESENTATION_STYLE_ASSIGNMENT((#203));
#205=STYLED_ITEM('',(#204),#197);
#206=ADVANCED_FACE('',(#569,#571),#573,.T.);
#207=COLOUR_RGB('',1.,1.,1.);
#208=FILL_AREA_STYLE_COLOUR('',#207);
#209=FILL_AREA_STYLE($,(#208));
#210=SURFACE_STYLE_FILL_AREA(#209);
#211=SURFACE_SIDE_STYLE('',(#210));
#212=SURFACE_STYLE_USAGE(.BOTH.,#211);
#213=PRESENTATION_STYLE_ASSIGNMENT((#212));
#214=STYLED_ITEM('',(#213),#206);
#215=ADVANCED_FACE('',(#578),#580,.T.);
#216=COLOUR_RGB('',0.662745098039216,0.698039215686275,0.764705882352941);
#217=FILL_AREA_STYLE_COLOUR('',#216);
#218=FILL_AREA_STYLE($,(#217));
#219=SURFACE_STYLE_FILL_AREA(#218);
#220=SURFACE_SIDE_STYLE('',(#219));
#221=SURFACE_STYLE_USAGE(.BOTH.,#220);
#222=PRESENTATION_STYLE_ASSIGNMENT((#221));
#223=STYLED_ITEM('',(#222),#215);
#224=ADVANCED_FACE('',(#585),#587,.F.);
#225=COLOUR_RGB('',0.662745098039216,0.698039215686275,0.764705882352941);
#226=FILL_AREA_STYLE_COLOUR('',#225);
#227=FILL_AREA_STYLE($,(#226));
#228=SURFACE_STYLE_FILL_AREA(#227);
#229=SURFACE_SIDE_STYLE('',(#228));
#230=SURFACE_STYLE_USAGE(.BOTH.,#229);
#231=PRESENTATION_STYLE_ASSIGNMENT((#230));
#232=STYLED_ITEM('',(#231),#224);
#233=ADVANCED_FACE('',(#592),#594,.F.);
#234=COLOUR_RGB('',0.662745098039216,0.698039215686275,0.764705882352941);
#235=FILL_AREA_STYLE_COLOUR('',#234);
#236=FILL_AREA_STYLE($,(#235));
#237=SURFACE_STYLE_FILL_AREA(#236);
#238=SURFACE_SIDE_STYLE('',(#237));
#239=SURFACE_STYLE_USAGE(.BOTH.,#238);
#240=PRESENTATION_STYLE_ASSIGNMENT((#239));
#241=STYLED_ITEM('',(#240),#233);
#242=ADVANCED_FACE('',(#599),#601,.T.);
#243=COLOUR_RGB('',0.662745098039216,0.698039215686275,0.764705882352941);
#244=FILL_AREA_STYLE_COLOUR('',#243);
#245=FILL_AREA_STYLE($,(#244));
#246=SURFACE_STYLE_FILL_AREA(#245);
#247=SURFACE_SIDE_STYLE('',(#246));
#248=SURFACE_STYLE_USAGE(.BOTH.,#247);
#249=PRESENTATION_STYLE_ASSIGNMENT((#248));
#250=STYLED_ITEM('',(#249),#242);
#251=ADVANCED_FACE('',(#606),#608,.T.);
#252=COLOUR_RGB('',0.662745098039216,0.698039215686275,0.764705882352941);
#253=FILL_AREA_STYLE_COLOUR('',#252);
#254=FILL_AREA_STYLE($,(#253));
#255=SURFACE_STYLE_FILL_AREA(#254);
#256=SURFACE_SIDE_STYLE('',(#255));
#257=SURFACE_STYLE_USAGE(.BOTH.,#256);
#258=PRESENTATION_STYLE_ASSIGNMENT((#257));
#259=STYLED_ITEM('',(#258),#251);
#260=ADVANCED_FACE('',(#613),#615,.F.);
#261=COLOUR_RGB('',0.662745098039216,0.698039215686275,0.764705882352941);
#262=FILL_AREA_STYLE_COLOUR('',#261);
#263=FILL_AREA_STYLE($,(#262));
#264=SURFACE_STYLE_FILL_AREA(#263);
#265=SURFACE_SIDE_STYLE('',(#264));
#266=SURFACE_STYLE_USAGE(.BOTH.,#265);
#267=PRESENTATION_STYLE_ASSIGNMENT((#266));
#268=STYLED_ITEM('',(#267),#260);
#269=ADVANCED_FACE('',(#620),#622,.F.);
#270=COLOUR_RGB('',0.662745098039216,0.698039215686275,0.764705882352941);
#271=FILL_AREA_STYLE_COLOUR('',#270);
#272=FILL_AREA_STYLE($,(#271));
#273=SURFACE_STYLE_FILL_AREA(#272);
#274=SURFACE_SIDE_STYLE('',(#273));
#275=SURFACE_STYLE_USAGE(.BOTH.,#274);
#276=PRESENTATION_STYLE_ASSIGNMENT((#275));
#277=STYLED_ITEM('',(#276),#269);
#278=ADVANCED_FACE('',(#627),#629,.T.);
#279=COLOUR_RGB('',0.662745098039216,0.698039215686275,0.764705882352941);
#280=FILL_AREA_STYLE_COLOUR('',#279);
#281=FILL_AREA_STYLE($,(#280));
#282=SURFACE_STYLE_FILL_AREA(#281);
#283=SURFACE_SIDE_STYLE('',(#282));
#284=SURFACE_STYLE_USAGE(.BOTH.,#283);
#285=PRESENTATION_STYLE_ASSIGNMENT((#284));
#286=STYLED_ITEM('',(#285),#278);
#287=ADVANCED_FACE('',(#634),#636,.F.);
#288=COLOUR_RGB('',0.662745098039216,0.698039215686275,0.764705882352941);
#289=FILL_AREA_STYLE_COLOUR('',#288);
#290=FILL_AREA_STYLE($,(#289));
#291=SURFACE_STYLE_FILL_AREA(#290);
#292=SURFACE_SIDE_STYLE('',(#291));
#293=SURFACE_STYLE_USAGE(.BOTH.,#292);
#294=PRESENTATION_STYLE_ASSIGNMENT((#293));
#295=STYLED_ITEM('',(#294),#287);
#296=ADVANCED_FACE('',(#641),#643,.F.);
#297=COLOUR_RGB('',0.662745098039216,0.698039215686275,0.764705882352941);
#298=FILL_AREA_STYLE_COLOUR('',#297);
#299=FILL_AREA_STYLE($,(#298));
#300=SURFACE_STYLE_FILL_AREA(#299);
#301=SURFACE_SIDE_STYLE('',(#300));
#302=SURFACE_STYLE_USAGE(.BOTH.,#301);
#303=PRESENTATION_STYLE_ASSIGNMENT((#302));
#304=STYLED_ITEM('',(#303),#296);
#305=ADVANCED_FACE('',(#648),#650,.T.);
#306=COLOUR_RGB('',0.662745098039216,0.698039215686275,0.764705882352941);
#307=FILL_AREA_STYLE_COLOUR('',#306);
#308=FILL_AREA_STYLE($,(#307));
#309=SURFACE_STYLE_FILL_AREA(#308);
#310=SURFACE_SIDE_STYLE('',(#309));
#311=SURFACE_STYLE_USAGE(.BOTH.,#310);
#312=PRESENTATION_STYLE_ASSIGNMENT((#311));
#313=STYLED_ITEM('',(#312),#305);
#314=ADVANCED_FACE('',(#655),#657,.T.);
#315=COLOUR_RGB('',0.662745098039216,0.698039215686275,0.764705882352941);
#316=FILL_AREA_STYLE_COLOUR('',#315);
#317=FILL_AREA_STYLE($,(#316));
#318=SURFACE_STYLE_FILL_AREA(#317);
#319=SURFACE_SIDE_STYLE('',(#318));
#320=SURFACE_STYLE_USAGE(.BOTH.,#319);
#321=PRESENTATION_STYLE_ASSIGNMENT((#320));
#322=STYLED_ITEM('',(#321),#314);
#323=ADVANCED_FACE('',(#662),#664,.F.);
#324=COLOUR_RGB('',0.662745098039216,0.698039215686275,0.764705882352941);
#325=FILL_AREA_STYLE_COLOUR('',#324);
#326=FILL_AREA_STYLE($,(#325));
#327=SURFACE_STYLE_FILL_AREA(#326);
#328=SURFACE_SIDE_STYLE('',(#327));
#329=SURFACE_STYLE_USAGE(.BOTH.,#328);
#330=PRESENTATION_STYLE_ASSIGNMENT((#329));
#331=STYLED_ITEM('',(#330),#323);
#332=ADVANCED_FACE('',(#669),#671,.T.);
#333=COLOUR_RGB('',0.662745098039216,0.698039215686275,0.764705882352941);
#334=FILL_AREA_STYLE_COLOUR('',#333);
#335=FILL_AREA_STYLE($,(#334));
#336=SURFACE_STYLE_FILL_AREA(#335);
#337=SURFACE_SIDE_STYLE('',(#336));
#338=SURFACE_STYLE_USAGE(.BOTH.,#337);
#339=PRESENTATION_STYLE_ASSIGNMENT((#338));
#340=STYLED_ITEM('',(#339),#332);
#341=ADVANCED_FACE('',(#676),#678,.T.);
#342=COLOUR_RGB('',0.662745098039216,0.698039215686275,0.764705882352941);
#343=FILL_AREA_STYLE_COLOUR('',#342);
#344=FILL_AREA_STYLE($,(#343));
#345=SURFACE_STYLE_FILL_AREA(#344);
#346=SURFACE_SIDE_STYLE('',(#345));
#347=SURFACE_STYLE_USAGE(.BOTH.,#346);
#348=PRESENTATION_STYLE_ASSIGNMENT((#347));
#349=STYLED_ITEM('',(#348),#341);
#350=ADVANCED_FACE('',(#683),#685,.T.);
#351=COLOUR_RGB('',0.662745098039216,0.698039215686275,0.764705882352941);
#352=FILL_AREA_STYLE_COLOUR('',#351);
#353=FILL_AREA_STYLE($,(#352));
#354=SURFACE_STYLE_FILL_AREA(#353);
#355=SURFACE_SIDE_STYLE('',(#354));
#356=SURFACE_STYLE_USAGE(.BOTH.,#355);
#357=PRESENTATION_STYLE_ASSIGNMENT((#356));
#358=STYLED_ITEM('',(#357),#350);
#359=ADVANCED_FACE('',(#690),#692,.F.);
#360=COLOUR_RGB('',0.662745098039216,0.698039215686275,0.764705882352941);
#361=FILL_AREA_STYLE_COLOUR('',#360);
#362=FILL_AREA_STYLE($,(#361));
#363=SURFACE_STYLE_FILL_AREA(#362);
#364=SURFACE_SIDE_STYLE('',(#363));
#365=SURFACE_STYLE_USAGE(.BOTH.,#364);
#366=PRESENTATION_STYLE_ASSIGNMENT((#365));
#367=STYLED_ITEM('',(#366),#359);
#368=ADVANCED_FACE('',(#697),#699,.F.);
#369=COLOUR_RGB('',0.662745098039216,0.698039215686275,0.764705882352941);
#370=FILL_AREA_STYLE_COLOUR('',#369);
#371=FILL_AREA_STYLE($,(#370));
#372=SURFACE_STYLE_FILL_AREA(#371);
#373=SURFACE_SIDE_STYLE('',(#372));
#374=SURFACE_STYLE_USAGE(.BOTH.,#373);
#375=PRESENTATION_STYLE_ASSIGNMENT((#374));
#376=STYLED_ITEM('',(#375),#368);
#377=ADVANCED_FACE('',(#704),#706,.F.);
#378=COLOUR_RGB('',0.662745098039216,0.698039215686275,0.764705882352941);
#379=FILL_AREA_STYLE_COLOUR('',#378);
#380=FILL_AREA_STYLE($,(#379));
#381=SURFACE_STYLE_FILL_AREA(#380);
#382=SURFACE_SIDE_STYLE('',(#381));
#383=SURFACE_STYLE_USAGE(.BOTH.,#382);
#384=PRESENTATION_STYLE_ASSIGNMENT((#383));
#385=STYLED_ITEM('',(#384),#377);
#386=ADVANCED_FACE('',(#711),#713,.F.);
#387=COLOUR_RGB('',0.662745098039216,0.698039215686275,0.764705882352941);
#388=FILL_AREA_STYLE_COLOUR('',#387);
#389=FILL_AREA_STYLE($,(#388));
#390=SURFACE_STYLE_FILL_AREA(#389);
#391=SURFACE_SIDE_STYLE('',(#390));
#392=SURFACE_STYLE_USAGE(.BOTH.,#391);
#393=PRESENTATION_STYLE_ASSIGNMENT((#392));
#394=STYLED_ITEM('',(#393),#386);
#395=ADVANCED_FACE('',(#718),#720,.F.);
#396=COLOUR_RGB('',0.662745098039216,0.698039215686275,0.764705882352941);
#397=FILL_AREA_STYLE_COLOUR('',#396);
#398=FILL_AREA_STYLE($,(#397));
#399=SURFACE_STYLE_FILL_AREA(#398);
#400=SURFACE_SIDE_STYLE('',(#399));
#401=SURFACE_STYLE_USAGE(.BOTH.,#400);
#402=PRESENTATION_STYLE_ASSIGNMENT((#401));
#403=STYLED_ITEM('',(#402),#395);
#404=ADVANCED_FACE('',(#725),#727,.T.);
#405=COLOUR_RGB('',1.,1.,1.);
#406=FILL_AREA_STYLE_COLOUR('',#405);
#407=FILL_AREA_STYLE($,(#406));
#408=SURFACE_STYLE_FILL_AREA(#407);
#409=SURFACE_SIDE_STYLE('',(#408));
#410=SURFACE_STYLE_USAGE(.BOTH.,#409);
#411=PRESENTATION_STYLE_ASSIGNMENT((#410));
#412=STYLED_ITEM('',(#411),#404);
#413=ADVANCED_FACE('',(#732,#734),#736,.T.);
#414=COLOUR_RGB('',0.52156862745098,0.949019607843137,0.2);
#415=FILL_AREA_STYLE_COLOUR('',#414);
#416=FILL_AREA_STYLE($,(#415));
#417=SURFACE_STYLE_FILL_AREA(#416);
#418=SURFACE_SIDE_STYLE('',(#417));
#419=SURFACE_STYLE_USAGE(.BOTH.,#418);
#420=PRESENTATION_STYLE_ASSIGNMENT((#419));
#421=STYLED_ITEM('',(#420),#413);
#422=FACE_BOUND('',#423,.T.);
#423=EDGE_LOOP('',(#741,#742));
#424=FACE_BOUND('',#425,.T.);
#425=EDGE_LOOP('',(#743,#744));
#426=TOROIDAL_SURFACE('',#427,11.8284271247462,3.);
#427=AXIS2_PLACEMENT_3D('',#428,#429,#430);
#428=CARTESIAN_POINT('',(0.,0.,3.8));
#429=DIRECTION('',(-1.22464679914735E-16,0.,-1.));
#430=DIRECTION('',(-1.,0.,1.22464679914735E-16));
#431=FACE_BOUND('',#432,.T.);
#432=EDGE_LOOP('',(#745,#746));
#433=FACE_BOUND('',#434,.T.);
#434=EDGE_LOOP('',(#747,#748));
#435=TOROIDAL_SURFACE('',#436,7.,2.);
#436=AXIS2_PLACEMENT_3D('',#437,#438,#439);
#437=CARTESIAN_POINT('',(-1.96547072617677E-15,0.,2.50142712910856));
#438=DIRECTION('',(6.12323399573677E-17,0.,1.));
#439=DIRECTION('',(-1.,1.22464679914735E-16,6.12323399573677E-17));
#440=FACE_BOUND('',#441,.T.);
#441=EDGE_LOOP('',(#749,#750));
#442=FACE_BOUND('',#443,.T.);
#443=EDGE_LOOP('',(#751,#752));
#444=TOROIDAL_SURFACE('',#445,7.,2.);
#445=AXIS2_PLACEMENT_3D('',#446,#447,#448);
#446=CARTESIAN_POINT('',(-1.80644141519709E-15,0.,5.09857287089145));
#447=DIRECTION('',(6.12323399573677E-17,0.,1.));
#448=DIRECTION('',(-1.,1.22464679914735E-16,6.12323399573677E-17));
#449=FACE_BOUND('',#450,.T.);
#450=EDGE_LOOP('',(#753,#754));
#451=FACE_OUTER_BOUND('',#452,.T.);
#452=EDGE_LOOP('',(#755));
#453=TOROIDAL_SURFACE('',#454,8.6,0.4);
#454=AXIS2_PLACEMENT_3D('',#455,#456,#457);
#455=CARTESIAN_POINT('',(0.,0.,0.399999999999998));
#456=DIRECTION('',(0.,0.,1.));
#457=DIRECTION('',(-1.,1.22464679914735E-16,0.));
#458=FACE_BOUND('',#459,.T.);
#459=EDGE_LOOP('',(#756,#757));
#460=FACE_OUTER_BOUND('',#461,.T.);
#461=EDGE_LOOP('',(#758));
#462=TOROIDAL_SURFACE('',#463,8.6,0.4);
#463=AXIS2_PLACEMENT_3D('',#464,#465,#466);
#464=CARTESIAN_POINT('',(0.,0.,65.));
#465=DIRECTION('',(0.,0.,1.));
#466=DIRECTION('',(-1.,1.22464679914735E-16,0.));
#467=FACE_BOUND('',#468,.T.);
#468=EDGE_LOOP('',(#759,#760));
#469=FACE_BOUND('',#470,.T.);
#470=EDGE_LOOP('',(#761,#762));
#471=CYLINDRICAL_SURFACE('',#472,9.);
#472=AXIS2_PLACEMENT_3D('',#473,#474,#475);
#473=CARTESIAN_POINT('',(0.,0.,65.4));
#474=DIRECTION('',(0.,0.,-1.));
#475=DIRECTION('',(-1.,0.,0.));
#476=FACE_OUTER_BOUND('',#477,.T.);
#477=EDGE_LOOP('',(#763));
#478=FACE_OUTER_BOUND('',#479,.T.);
#479=EDGE_LOOP('',(#764));
#480=CYLINDRICAL_SURFACE('',#481,7.);
#481=AXIS2_PLACEMENT_3D('',#482,#483,#484);
#482=CARTESIAN_POINT('',(0.,0.,65.28));
#483=DIRECTION('',(0.,0.,1.));
#484=DIRECTION('',(-1.,1.22464679914735E-16,0.));
#485=FACE_BOUND('',#486,.T.);
#486=EDGE_LOOP('',(#765,#766,#767,#768,#769));
#487=CYLINDRICAL_SURFACE('',#488,0.5);
#488=AXIS2_PLACEMENT_3D('',#489,#490,#491);
#489=CARTESIAN_POINT('',(0.996801860192632,-5.15450153278826,0.12));
#490=DIRECTION('',(0.,0.,-1.));
#491=DIRECTION('',(-1.,0.,0.));
#492=FACE_BOUND('',#493,.T.);
#493=EDGE_LOOP('',(#770,#771,#772,#773));
#494=CYLINDRICAL_SURFACE('',#495,4.75);
#495=AXIS2_PLACEMENT_3D('',#496,#497,#498);
#496=CARTESIAN_POINT('',(0.,0.,0.12));
#497=DIRECTION('',(0.,0.,-1.));
#498=DIRECTION('',(-1.,0.,0.));
#499=FACE_OUTER_BOUND('',#500,.T.);
#500=EDGE_LOOP('',(#774));
#501=FACE_OUTER_BOUND('',#502,.T.);
#502=EDGE_LOOP('',(#775));
#503=CYLINDRICAL_SURFACE('',#504,5.5);
#504=AXIS2_PLACEMENT_3D('',#505,#506,#507);
#505=CARTESIAN_POINT('',(0.,0.,1.12));
#506=DIRECTION('',(0.,0.,-1.));
#507=DIRECTION('',(-1.,0.,0.));
#508=FACE_OUTER_BOUND('',#509,.T.);
#509=EDGE_LOOP('',(#776));
#510=FACE_OUTER_BOUND('',#511,.T.);
#511=EDGE_LOOP('',(#777));
#512=CYLINDRICAL_SURFACE('',#513,7.325);
#513=AXIS2_PLACEMENT_3D('',#514,#515,#516);
#514=CARTESIAN_POINT('',(0.,0.,0.12));
#515=DIRECTION('',(0.,0.,-1.));
#516=DIRECTION('',(-1.,0.,0.));
#517=FACE_BOUND('',#518,.T.);
#518=EDGE_LOOP('',(#778,#779));
#519=FACE_BOUND('',#520,.T.);
#520=EDGE_LOOP('',(#780,#781));
#521=CYLINDRICAL_SURFACE('',#522,9.);
#522=AXIS2_PLACEMENT_3D('',#523,#524,#525);
#523=CARTESIAN_POINT('',(0.,0.,65.4));
#524=DIRECTION('',(0.,0.,-1.));
#525=DIRECTION('',(-1.,0.,0.));
#526=FACE_BOUND('',#527,.T.);
#527=EDGE_LOOP('',(#782,#783,#784,#785));
#528=CYLINDRICAL_SURFACE('',#529,4.75);
#529=AXIS2_PLACEMENT_3D('',#530,#531,#532);
#530=CARTESIAN_POINT('',(0.,0.,-0.38));
#531=DIRECTION('',(0.,0.,1.));
#532=DIRECTION('',(1.,0.,0.));
#533=FACE_BOUND('',#534,.T.);
#534=EDGE_LOOP('',(#786,#787,#788,#789));
#535=CYLINDRICAL_SURFACE('',#536,4.75);
#536=AXIS2_PLACEMENT_3D('',#537,#538,#539);
#537=CARTESIAN_POINT('',(0.,0.,-0.38));
#538=DIRECTION('',(0.,0.,1.));
#539=DIRECTION('',(1.,0.,0.));
#540=FACE_BOUND('',#541,.T.);
#541=EDGE_LOOP('',(#790,#791,#792,#793));
#542=CYLINDRICAL_SURFACE('',#543,4.75);
#543=AXIS2_PLACEMENT_3D('',#544,#545,#546);
#544=CARTESIAN_POINT('',(0.,0.,-0.38));
#545=DIRECTION('',(0.,0.,1.));
#546=DIRECTION('',(1.,0.,0.));
#547=FACE_BOUND('',#548,.T.);
#548=EDGE_LOOP('',(#794));
#549=FACE_BOUND('',#550,.T.);
#550=EDGE_LOOP('',(#795,#796,#797,#798));
#551=FACE_BOUND('',#552,.T.);
#552=EDGE_LOOP('',(#799,#800,#801,#802));
#553=FACE_BOUND('',#554,.T.);
#554=EDGE_LOOP('',(#803,#804,#805,#806));
#555=PLANE('',#556);
#556=AXIS2_PLACEMENT_3D('',#557,#558,#559);
#557=CARTESIAN_POINT('',(0.,0.,1.12));
#558=DIRECTION('',(0.,0.,-1.));
#559=DIRECTION('',(-1.,0.,0.));
#560=FACE_BOUND('',#561,.T.);
#561=EDGE_LOOP('',(#807));
#562=FACE_BOUND('',#563,.T.);
#563=EDGE_LOOP('',(#808));
#564=PLANE('',#565);
#565=AXIS2_PLACEMENT_3D('',#566,#567,#568);
#566=CARTESIAN_POINT('',(0.,0.,0.));
#567=DIRECTION('',(0.,0.,1.));
#568=DIRECTION('',(1.,0.,0.));
#569=FACE_BOUND('',#570,.T.);
#570=EDGE_LOOP('',(#809));
#571=FACE_BOUND('',#572,.T.);
#572=EDGE_LOOP('',(#810));
#573=PLANE('',#574);
#574=AXIS2_PLACEMENT_3D('',#575,#576,#577);
#575=CARTESIAN_POINT('',(0.,0.,0.12));
#576=DIRECTION('',(0.,0.,-1.));
#577=DIRECTION('',(-1.,0.,0.));
#578=FACE_BOUND('',#579,.T.);
#579=EDGE_LOOP('',(#811,#812,#813,#814));
#580=CYLINDRICAL_SURFACE('',#581,5.2510998845731);
#581=AXIS2_PLACEMENT_3D('',#582,#583,#584);
#582=CARTESIAN_POINT('',(0.,0.,-0.38));
#583=DIRECTION('',(0.,0.,1.));
#584=DIRECTION('',(1.,0.,0.));
#585=FACE_BOUND('',#586,.T.);
#586=EDGE_LOOP('',(#815,#816,#817,#818,#819,#820));
#587=PLANE('',#588);
#588=AXIS2_PLACEMENT_3D('',#589,#590,#591);
#589=CARTESIAN_POINT('',(-2.62554994228651,4.54758589784986,-0.38));
#590=DIRECTION('',(-0.866025403784444,-0.499999999999991,0.));
#591=DIRECTION('',(0.499999999999991,-0.866025403784444,0.));
#592=FACE_BOUND('',#593,.T.);
#593=EDGE_LOOP('',(#821,#822,#823,#824,#825,#826));
#594=PLANE('',#595);
#595=AXIS2_PLACEMENT_3D('',#596,#597,#598);
#596=CARTESIAN_POINT('',(-4.77753710909727,2.17926344643371,-0.38));
#597=DIRECTION('',(0.41501085379009,0.909816460192066,0.));
#598=DIRECTION('',(-0.909816460192066,0.41501085379009,0.));
#599=FACE_BOUND('',#600,.T.);
#600=EDGE_LOOP('',(#827,#828,#829,#830,#831,#832,#833,#834,#835,#836,#837,#838));
#601=PLANE('',#602);
#602=AXIS2_PLACEMENT_3D('',#603,#604,#605);
#603=CARTESIAN_POINT('',(0.,0.,-0.38));
#604=DIRECTION('',(0.,0.,-1.));
#605=DIRECTION('',(-1.,0.,0.));
#606=FACE_BOUND('',#607,.T.);
#607=EDGE_LOOP('',(#839,#840,#841,#842));
#608=CYLINDRICAL_SURFACE('',#609,5.2510998845731);
#609=AXIS2_PLACEMENT_3D('',#610,#611,#612);
#610=CARTESIAN_POINT('',(0.,0.,-0.38));
#611=DIRECTION('',(0.,0.,1.));
#612=DIRECTION('',(1.,0.,0.));
#613=FACE_BOUND('',#614,.T.);
#614=EDGE_LOOP('',(#843,#844,#845,#846,#847,#848));
#615=PLANE('',#616);
#616=AXIS2_PLACEMENT_3D('',#617,#618,#619);
#617=CARTESIAN_POINT('',(-2.62554994228657,-4.54758589784982,-0.38));
#618=DIRECTION('',(0.866025403784436,-0.500000000000005,0.));
#619=DIRECTION('',(0.500000000000005,0.866025403784436,0.));
#620=FACE_BOUND('',#621,.T.);
#621=EDGE_LOOP('',(#849,#850,#851,#852,#853,#854));
#622=PLANE('',#623);
#623=AXIS2_PLACEMENT_3D('',#624,#625,#626);
#624=CARTESIAN_POINT('',(0.501471048398235,-5.22710022721795,-0.38));
#625=DIRECTION('',(-0.995429594202607,-0.0954982878675528,0.));
#626=DIRECTION('',(0.0954982878675528,-0.995429594202607,0.));
#627=FACE_BOUND('',#628,.T.);
#628=EDGE_LOOP('',(#855,#856,#857,#858));
#629=CYLINDRICAL_SURFACE('',#630,5.2510998845731);
#630=AXIS2_PLACEMENT_3D('',#631,#632,#633);
#631=CARTESIAN_POINT('',(0.,0.,-0.38));
#632=DIRECTION('',(0.,0.,1.));
#633=DIRECTION('',(1.,0.,0.));
#634=FACE_BOUND('',#635,.T.);
#635=EDGE_LOOP('',(#859,#860,#861,#862,#863,#864));
#636=PLANE('',#637);
#637=AXIS2_PLACEMENT_3D('',#638,#639,#640);
#638=CARTESIAN_POINT('',(4.75,0.,-0.38));
#639=DIRECTION('',(-1.2833255132605E-15,1.,0.));
#640=DIRECTION('',(-1.,-1.2833255132605E-15,0.));
#641=FACE_BOUND('',#642,.T.);
#642=EDGE_LOOP('',(#865,#866,#867,#868,#869,#870));
#643=PLANE('',#644);
#644=AXIS2_PLACEMENT_3D('',#645,#646,#647);
#645=CARTESIAN_POINT('',(4.27606606069903,3.04783678078428,-0.38));
#646=DIRECTION('',(0.580418740412527,-0.814318172324514,0.));
#647=DIRECTION('',(0.814318172324514,0.580418740412527,0.));
#648=FACE_BOUND('',#649,.T.);
#649=EDGE_LOOP('',(#871,#872,#873,#874));
#650=CYLINDRICAL_SURFACE('',#651,4.75);
#651=AXIS2_PLACEMENT_3D('',#652,#653,#654);
#652=CARTESIAN_POINT('',(0.,0.,0.12));
#653=DIRECTION('',(0.,0.,-1.));
#654=DIRECTION('',(-1.,0.,0.));
#655=FACE_BOUND('',#656,.T.);
#656=EDGE_LOOP('',(#875,#876,#877,#878));
#657=CYLINDRICAL_SURFACE('',#658,4.75);
#658=AXIS2_PLACEMENT_3D('',#659,#660,#661);
#659=CARTESIAN_POINT('',(0.,0.,0.12));
#660=DIRECTION('',(0.,0.,-1.));
#661=DIRECTION('',(-1.,0.,0.));
#662=FACE_BOUND('',#663,.T.);
#663=EDGE_LOOP('',(#879,#880,#881,#882,#883,#884,#885,#886,#887,#888,#889,#890,#891,
#892,#893,#894,#895,#896));
#664=PLANE('',#665);
#665=AXIS2_PLACEMENT_3D('',#666,#667,#668);
#666=CARTESIAN_POINT('',(0.,0.,0.12));
#667=DIRECTION('',(0.,0.,-1.));
#668=DIRECTION('',(-1.,0.,0.));
#669=FACE_BOUND('',#670,.T.);
#670=EDGE_LOOP('',(#897,#898,#899,#900,#901,#902));
#671=TOROIDAL_SURFACE('',#672,4.7510998845731,0.5);
#672=AXIS2_PLACEMENT_3D('',#673,#674,#675);
#673=CARTESIAN_POINT('',(0.,0.,0.12));
#674=DIRECTION('',(0.,0.,-1.));
#675=DIRECTION('',(-1.,0.,0.));
#676=FACE_BOUND('',#677,.T.);
#677=EDGE_LOOP('',(#903,#904,#905,#906,#907,#908));
#678=TOROIDAL_SURFACE('',#679,4.7510998845731,0.5);
#679=AXIS2_PLACEMENT_3D('',#680,#681,#682);
#680=CARTESIAN_POINT('',(0.,0.,0.12));
#681=DIRECTION('',(0.,0.,-1.));
#682=DIRECTION('',(-1.,0.,0.));
#683=FACE_BOUND('',#684,.T.);
#684=EDGE_LOOP('',(#909,#910,#911,#912,#913,#914));
#685=TOROIDAL_SURFACE('',#686,4.7510998845731,0.5);
#686=AXIS2_PLACEMENT_3D('',#687,#688,#689);
#687=CARTESIAN_POINT('',(0.,0.,0.12));
#688=DIRECTION('',(0.,0.,-1.));
#689=DIRECTION('',(-1.,0.,0.));
#690=FACE_BOUND('',#691,.T.);
#691=EDGE_LOOP('',(#915,#916,#917,#918,#919));
#692=CYLINDRICAL_SURFACE('',#693,0.5);
#693=AXIS2_PLACEMENT_3D('',#694,#695,#696);
#694=CARTESIAN_POINT('',(3.96552834114413,3.44050649986055,0.12));
#695=DIRECTION('',(0.,0.,-1.));
#696=DIRECTION('',(-1.,0.,0.));
#697=FACE_BOUND('',#698,.T.);
#698=EDGE_LOOP('',(#920,#921,#922,#923,#924));
#699=CYLINDRICAL_SURFACE('',#700,0.500000000000001);
#700=AXIS2_PLACEMENT_3D('',#701,#702,#703);
#701=CARTESIAN_POINT('',(5.22613624009172,-0.499999999999999,0.12));
#702=DIRECTION('',(0.,0.,-1.));
#703=DIRECTION('',(-1.,0.,0.));
#704=FACE_BOUND('',#705,.T.);
#705=EDGE_LOOP('',(#925,#926,#927,#928,#929));
#706=CYLINDRICAL_SURFACE('',#707,0.5);
#707=AXIS2_PLACEMENT_3D('',#708,#709,#710);
#708=CARTESIAN_POINT('',(-3.0460808219381,-4.2759667475579,0.12));
#709=DIRECTION('',(0.,0.,-1.));
#710=DIRECTION('',(-1.,0.,0.));
#711=FACE_BOUND('',#712,.T.);
#712=EDGE_LOOP('',(#930,#931,#932,#933,#934));
#713=CYLINDRICAL_SURFACE('',#714,0.5);
#714=AXIS2_PLACEMENT_3D('',#715,#716,#717);
#715=CARTESIAN_POINT('',(-4.96233020133677,1.71399503292775,0.12));
#716=DIRECTION('',(0.,0.,-1.));
#717=DIRECTION('',(-1.,0.,0.));
#718=FACE_BOUND('',#719,.T.);
#719=EDGE_LOOP('',(#935,#936,#937,#938,#939));
#720=CYLINDRICAL_SURFACE('',#721,0.5);
#721=AXIS2_PLACEMENT_3D('',#722,#723,#724);
#722=CARTESIAN_POINT('',(-2.1800554181536,4.77596674755794,0.12));
#723=DIRECTION('',(0.,0.,-1.));
#724=DIRECTION('',(-1.,0.,0.));
#725=FACE_BOUND('',#726,.T.);
#726=EDGE_LOOP('',(#940));
#727=PLANE('',#728);
#728=AXIS2_PLACEMENT_3D('',#729,#730,#731);
#729=CARTESIAN_POINT('',(0.,0.,65.28));
#730=DIRECTION('',(0.,0.,1.));
#731=DIRECTION('',(1.,0.,0.));
#732=FACE_BOUND('',#733,.T.);
#733=EDGE_LOOP('',(#941));
#734=FACE_BOUND('',#735,.T.);
#735=EDGE_LOOP('',(#942));
#736=PLANE('',#737);
#737=AXIS2_PLACEMENT_3D('',#738,#739,#740);
#738=CARTESIAN_POINT('',(0.,0.,65.4));
#739=DIRECTION('',(0.,0.,1.));
#740=DIRECTION('',(1.,0.,0.));
#741=ORIENTED_EDGE('',*,*,#943,.T.);
#742=ORIENTED_EDGE('',*,*,#944,.T.);
#743=ORIENTED_EDGE('',*,*,#945,.T.);
#744=ORIENTED_EDGE('',*,*,#946,.T.);
#745=ORIENTED_EDGE('',*,*,#947,.F.);
#746=ORIENTED_EDGE('',*,*,#948,.F.);
#747=ORIENTED_EDGE('',*,*,#946,.F.);
#748=ORIENTED_EDGE('',*,*,#945,.F.);
#749=ORIENTED_EDGE('',*,*,#949,.F.);
#750=ORIENTED_EDGE('',*,*,#950,.F.);
#751=ORIENTED_EDGE('',*,*,#944,.F.);
#752=ORIENTED_EDGE('',*,*,#943,.F.);
#753=ORIENTED_EDGE('',*,*,#951,.F.);
#754=ORIENTED_EDGE('',*,*,#952,.F.);
#755=ORIENTED_EDGE('',*,*,#953,.F.);
#756=ORIENTED_EDGE('',*,*,#954,.F.);
#757=ORIENTED_EDGE('',*,*,#955,.F.);
#758=ORIENTED_EDGE('',*,*,#956,.F.);
#759=ORIENTED_EDGE('',*,*,#955,.T.);
#760=ORIENTED_EDGE('',*,*,#954,.T.);
#761=ORIENTED_EDGE('',*,*,#950,.T.);
#762=ORIENTED_EDGE('',*,*,#949,.T.);
#763=ORIENTED_EDGE('',*,*,#957,.T.);
#764=ORIENTED_EDGE('',*,*,#958,.F.);
#765=ORIENTED_EDGE('',*,*,#959,.F.);
#766=ORIENTED_EDGE('',*,*,#960,.F.);
#767=ORIENTED_EDGE('',*,*,#961,.F.);
#768=ORIENTED_EDGE('',*,*,#962,.F.);
#769=ORIENTED_EDGE('',*,*,#963,.F.);
#770=ORIENTED_EDGE('',*,*,#964,.T.);
#771=ORIENTED_EDGE('',*,*,#965,.F.);
#772=ORIENTED_EDGE('',*,*,#966,.T.);
#773=ORIENTED_EDGE('',*,*,#967,.T.);
#774=ORIENTED_EDGE('',*,*,#968,.F.);
#775=ORIENTED_EDGE('',*,*,#969,.T.);
#776=ORIENTED_EDGE('',*,*,#970,.F.);
#777=ORIENTED_EDGE('',*,*,#971,.T.);
#778=ORIENTED_EDGE('',*,*,#948,.T.);
#779=ORIENTED_EDGE('',*,*,#947,.T.);
#780=ORIENTED_EDGE('',*,*,#952,.T.);
#781=ORIENTED_EDGE('',*,*,#951,.T.);
#782=ORIENTED_EDGE('',*,*,#972,.T.);
#783=ORIENTED_EDGE('',*,*,#973,.T.);
#784=ORIENTED_EDGE('',*,*,#974,.T.);
#785=ORIENTED_EDGE('',*,*,#975,.F.);
#786=ORIENTED_EDGE('',*,*,#976,.T.);
#787=ORIENTED_EDGE('',*,*,#977,.T.);
#788=ORIENTED_EDGE('',*,*,#978,.T.);
#789=ORIENTED_EDGE('',*,*,#979,.F.);
#790=ORIENTED_EDGE('',*,*,#980,.T.);
#791=ORIENTED_EDGE('',*,*,#981,.T.);
#792=ORIENTED_EDGE('',*,*,#982,.T.);
#793=ORIENTED_EDGE('',*,*,#983,.F.);
#794=ORIENTED_EDGE('',*,*,#968,.T.);
#795=ORIENTED_EDGE('',*,*,#984,.F.);
#796=ORIENTED_EDGE('',*,*,#985,.F.);
#797=ORIENTED_EDGE('',*,*,#986,.F.);
#798=ORIENTED_EDGE('',*,*,#974,.F.);
#799=ORIENTED_EDGE('',*,*,#987,.F.);
#800=ORIENTED_EDGE('',*,*,#988,.F.);
#801=ORIENTED_EDGE('',*,*,#989,.F.);
#802=ORIENTED_EDGE('',*,*,#978,.F.);
#803=ORIENTED_EDGE('',*,*,#990,.F.);
#804=ORIENTED_EDGE('',*,*,#991,.F.);
#805=ORIENTED_EDGE('',*,*,#992,.F.);
#806=ORIENTED_EDGE('',*,*,#982,.F.);
#807=ORIENTED_EDGE('',*,*,#953,.T.);
#808=ORIENTED_EDGE('',*,*,#971,.F.);
#809=ORIENTED_EDGE('',*,*,#970,.T.);
#810=ORIENTED_EDGE('',*,*,#969,.F.);
#811=ORIENTED_EDGE('',*,*,#993,.F.);
#812=ORIENTED_EDGE('',*,*,#994,.T.);
#813=ORIENTED_EDGE('',*,*,#995,.T.);
#814=ORIENTED_EDGE('',*,*,#985,.T.);
#815=ORIENTED_EDGE('',*,*,#973,.F.);
#816=ORIENTED_EDGE('',*,*,#996,.T.);
#817=ORIENTED_EDGE('',*,*,#997,.T.);
#818=ORIENTED_EDGE('',*,*,#998,.T.);
#819=ORIENTED_EDGE('',*,*,#993,.T.);
#820=ORIENTED_EDGE('',*,*,#984,.T.);
#821=ORIENTED_EDGE('',*,*,#999,.T.);
#822=ORIENTED_EDGE('',*,*,#1000,.T.);
#823=ORIENTED_EDGE('',*,*,#1001,.T.);
#824=ORIENTED_EDGE('',*,*,#975,.T.);
#825=ORIENTED_EDGE('',*,*,#986,.T.);
#826=ORIENTED_EDGE('',*,*,#995,.F.);
#827=ORIENTED_EDGE('',*,*,#965,.T.);
#828=ORIENTED_EDGE('',*,*,#1002,.T.);
#829=ORIENTED_EDGE('',*,*,#1003,.T.);
#830=ORIENTED_EDGE('',*,*,#1004,.T.);
#831=ORIENTED_EDGE('',*,*,#1005,.T.);
#832=ORIENTED_EDGE('',*,*,#1006,.T.);
#833=ORIENTED_EDGE('',*,*,#1007,.T.);
#834=ORIENTED_EDGE('',*,*,#1008,.T.);
#835=ORIENTED_EDGE('',*,*,#1009,.T.);
#836=ORIENTED_EDGE('',*,*,#961,.T.);
#837=ORIENTED_EDGE('',*,*,#1010,.T.);
#838=ORIENTED_EDGE('',*,*,#1011,.T.);
#839=ORIENTED_EDGE('',*,*,#1012,.F.);
#840=ORIENTED_EDGE('',*,*,#1013,.T.);
#841=ORIENTED_EDGE('',*,*,#1014,.T.);
#842=ORIENTED_EDGE('',*,*,#988,.T.);
#843=ORIENTED_EDGE('',*,*,#977,.F.);
#844=ORIENTED_EDGE('',*,*,#1015,.T.);
#845=ORIENTED_EDGE('',*,*,#1016,.T.);
#846=ORIENTED_EDGE('',*,*,#1017,.T.);
#847=ORIENTED_EDGE('',*,*,#1012,.T.);
#848=ORIENTED_EDGE('',*,*,#987,.T.);
#849=ORIENTED_EDGE('',*,*,#1018,.T.);
#850=ORIENTED_EDGE('',*,*,#959,.T.);
#851=ORIENTED_EDGE('',*,*,#1019,.T.);
#852=ORIENTED_EDGE('',*,*,#979,.T.);
#853=ORIENTED_EDGE('',*,*,#989,.T.);
#854=ORIENTED_EDGE('',*,*,#1014,.F.);
#855=ORIENTED_EDGE('',*,*,#1020,.F.);
#856=ORIENTED_EDGE('',*,*,#1021,.T.);
#857=ORIENTED_EDGE('',*,*,#1022,.T.);
#858=ORIENTED_EDGE('',*,*,#991,.T.);
#859=ORIENTED_EDGE('',*,*,#981,.F.);
#860=ORIENTED_EDGE('',*,*,#1023,.T.);
#861=ORIENTED_EDGE('',*,*,#1024,.T.);
#862=ORIENTED_EDGE('',*,*,#1025,.T.);
#863=ORIENTED_EDGE('',*,*,#1020,.T.);
#864=ORIENTED_EDGE('',*,*,#990,.T.);
#865=ORIENTED_EDGE('',*,*,#1026,.T.);
#866=ORIENTED_EDGE('',*,*,#1027,.T.);
#867=ORIENTED_EDGE('',*,*,#1028,.T.);
#868=ORIENTED_EDGE('',*,*,#983,.T.);
#869=ORIENTED_EDGE('',*,*,#992,.T.);
#870=ORIENTED_EDGE('',*,*,#1022,.F.);
#871=ORIENTED_EDGE('',*,*,#1029,.T.);
#872=ORIENTED_EDGE('',*,*,#1030,.T.);
#873=ORIENTED_EDGE('',*,*,#1005,.F.);
#874=ORIENTED_EDGE('',*,*,#1031,.T.);
#875=ORIENTED_EDGE('',*,*,#1009,.F.);
#876=ORIENTED_EDGE('',*,*,#1032,.T.);
#877=ORIENTED_EDGE('',*,*,#1033,.T.);
#878=ORIENTED_EDGE('',*,*,#962,.T.);
#879=ORIENTED_EDGE('',*,*,#972,.F.);
#880=ORIENTED_EDGE('',*,*,#1001,.F.);
#881=ORIENTED_EDGE('',*,*,#1034,.T.);
#882=ORIENTED_EDGE('',*,*,#967,.F.);
#883=ORIENTED_EDGE('',*,*,#1035,.T.);
#884=ORIENTED_EDGE('',*,*,#1015,.F.);
#885=ORIENTED_EDGE('',*,*,#976,.F.);
#886=ORIENTED_EDGE('',*,*,#1019,.F.);
#887=ORIENTED_EDGE('',*,*,#963,.T.);
#888=ORIENTED_EDGE('',*,*,#1033,.F.);
#889=ORIENTED_EDGE('',*,*,#1036,.T.);
#890=ORIENTED_EDGE('',*,*,#1023,.F.);
#891=ORIENTED_EDGE('',*,*,#980,.F.);
#892=ORIENTED_EDGE('',*,*,#1028,.F.);
#893=ORIENTED_EDGE('',*,*,#1037,.T.);
#894=ORIENTED_EDGE('',*,*,#1029,.F.);
#895=ORIENTED_EDGE('',*,*,#1038,.T.);
#896=ORIENTED_EDGE('',*,*,#996,.F.);
#897=ORIENTED_EDGE('',*,*,#999,.F.);
#898=ORIENTED_EDGE('',*,*,#994,.F.);
#899=ORIENTED_EDGE('',*,*,#998,.F.);
#900=ORIENTED_EDGE('',*,*,#1039,.T.);
#901=ORIENTED_EDGE('',*,*,#1003,.F.);
#902=ORIENTED_EDGE('',*,*,#1040,.T.);
#903=ORIENTED_EDGE('',*,*,#1018,.F.);
#904=ORIENTED_EDGE('',*,*,#1013,.F.);
#905=ORIENTED_EDGE('',*,*,#1017,.F.);
#906=ORIENTED_EDGE('',*,*,#1041,.T.);
#907=ORIENTED_EDGE('',*,*,#1010,.F.);
#908=ORIENTED_EDGE('',*,*,#960,.T.);
#909=ORIENTED_EDGE('',*,*,#1026,.F.);
#910=ORIENTED_EDGE('',*,*,#1021,.F.);
#911=ORIENTED_EDGE('',*,*,#1025,.F.);
#912=ORIENTED_EDGE('',*,*,#1042,.T.);
#913=ORIENTED_EDGE('',*,*,#1007,.F.);
#914=ORIENTED_EDGE('',*,*,#1043,.T.);
#915=ORIENTED_EDGE('',*,*,#1006,.F.);
#916=ORIENTED_EDGE('',*,*,#1030,.F.);
#917=ORIENTED_EDGE('',*,*,#1037,.F.);
#918=ORIENTED_EDGE('',*,*,#1027,.F.);
#919=ORIENTED_EDGE('',*,*,#1043,.F.);
#920=ORIENTED_EDGE('',*,*,#1042,.F.);
#921=ORIENTED_EDGE('',*,*,#1024,.F.);
#922=ORIENTED_EDGE('',*,*,#1036,.F.);
#923=ORIENTED_EDGE('',*,*,#1032,.F.);
#924=ORIENTED_EDGE('',*,*,#1008,.F.);
#925=ORIENTED_EDGE('',*,*,#1041,.F.);
#926=ORIENTED_EDGE('',*,*,#1016,.F.);
#927=ORIENTED_EDGE('',*,*,#1035,.F.);
#928=ORIENTED_EDGE('',*,*,#966,.F.);
#929=ORIENTED_EDGE('',*,*,#1011,.F.);
#930=ORIENTED_EDGE('',*,*,#1002,.F.);
#931=ORIENTED_EDGE('',*,*,#964,.F.);
#932=ORIENTED_EDGE('',*,*,#1034,.F.);
#933=ORIENTED_EDGE('',*,*,#1000,.F.);
#934=ORIENTED_EDGE('',*,*,#1040,.F.);
#935=ORIENTED_EDGE('',*,*,#1039,.F.);
#936=ORIENTED_EDGE('',*,*,#997,.F.);
#937=ORIENTED_EDGE('',*,*,#1038,.F.);
#938=ORIENTED_EDGE('',*,*,#1031,.F.);
#939=ORIENTED_EDGE('',*,*,#1004,.F.);
#940=ORIENTED_EDGE('',*,*,#958,.T.);
#941=ORIENTED_EDGE('',*,*,#956,.T.);
#942=ORIENTED_EDGE('',*,*,#957,.F.);
#943=EDGE_CURVE('',#1044,#1045,#1046,.T.);
#944=EDGE_CURVE('',#1045,#1044,#1047,.T.);
#945=EDGE_CURVE('',#1048,#1049,#1050,.T.);
#946=EDGE_CURVE('',#1049,#1048,#1051,.T.);
#947=EDGE_CURVE('',#1052,#1053,#1054,.T.);
#948=EDGE_CURVE('',#1053,#1052,#1055,.T.);
#949=EDGE_CURVE('',#1056,#1057,#1058,.T.);
#950=EDGE_CURVE('',#1057,#1056,#1059,.T.);
#951=EDGE_CURVE('',#1060,#1061,#1062,.T.);
#952=EDGE_CURVE('',#1061,#1060,#1063,.T.);
#953=EDGE_CURVE('',#1064,#1064,#1065,.T.);
#954=EDGE_CURVE('',#1066,#1067,#1068,.T.);
#955=EDGE_CURVE('',#1067,#1066,#1069,.T.);
#956=EDGE_CURVE('',#1070,#1070,#1071,.T.);
#957=EDGE_CURVE('',#1072,#1072,#1073,.T.);
#958=EDGE_CURVE('',#1074,#1074,#1075,.T.);
#959=EDGE_CURVE('',#1076,#1077,#1078,.T.);
#960=EDGE_CURVE('',#1079,#1076,#1080,.T.);
#961=EDGE_CURVE('',#1081,#1079,#1082,.T.);
#962=EDGE_CURVE('',#1083,#1081,#1084,.T.);
#963=EDGE_CURVE('',#1077,#1083,#1085,.T.);
#964=EDGE_CURVE('',#1086,#1087,#1088,.T.);
#965=EDGE_CURVE('',#1089,#1087,#1090,.T.);
#966=EDGE_CURVE('',#1089,#1091,#1092,.T.);
#967=EDGE_CURVE('',#1091,#1086,#1093,.T.);
#968=EDGE_CURVE('',#1094,#1094,#1095,.T.);
#969=EDGE_CURVE('',#1096,#1096,#1097,.T.);
#970=EDGE_CURVE('',#1098,#1098,#1099,.T.);
#971=EDGE_CURVE('',#1100,#1100,#1101,.T.);
#972=EDGE_CURVE('',#1102,#1103,#1104,.T.);
#973=EDGE_CURVE('',#1103,#1105,#1106,.T.);
#974=EDGE_CURVE('',#1105,#1107,#1108,.T.);
#975=EDGE_CURVE('',#1102,#1107,#1109,.T.);
#976=EDGE_CURVE('',#1110,#1111,#1112,.T.);
#977=EDGE_CURVE('',#1111,#1113,#1114,.T.);
#978=EDGE_CURVE('',#1113,#1115,#1116,.T.);
#979=EDGE_CURVE('',#1110,#1115,#1117,.T.);
#980=EDGE_CURVE('',#1118,#1119,#1120,.T.);
#981=EDGE_CURVE('',#1119,#1121,#1122,.T.);
#982=EDGE_CURVE('',#1121,#1123,#1124,.T.);
#983=EDGE_CURVE('',#1118,#1123,#1125,.T.);
#984=EDGE_CURVE('',#1126,#1105,#1127,.T.);
#985=EDGE_CURVE('',#1128,#1126,#1129,.T.);
#986=EDGE_CURVE('',#1107,#1128,#1130,.T.);
#987=EDGE_CURVE('',#1131,#1113,#1132,.T.);
#988=EDGE_CURVE('',#1133,#1131,#1134,.T.);
#989=EDGE_CURVE('',#1115,#1133,#1135,.T.);
#990=EDGE_CURVE('',#1136,#1121,#1137,.T.);
#991=EDGE_CURVE('',#1138,#1136,#1139,.T.);
#992=EDGE_CURVE('',#1123,#1138,#1140,.T.);
#993=EDGE_CURVE('',#1141,#1126,#1142,.T.);
#994=EDGE_CURVE('',#1141,#1143,#1144,.T.);
#995=EDGE_CURVE('',#1143,#1128,#1145,.T.);
#996=EDGE_CURVE('',#1103,#1146,#1147,.T.);
#997=EDGE_CURVE('',#1146,#1148,#1149,.T.);
#998=EDGE_CURVE('',#1148,#1141,#1150,.T.);
#999=EDGE_CURVE('',#1143,#1151,#1152,.T.);
#1000=EDGE_CURVE('',#1151,#1153,#1154,.T.);
#1001=EDGE_CURVE('',#1153,#1102,#1155,.T.);
#1002=EDGE_CURVE('',#1087,#1156,#1157,.T.);
#1003=EDGE_CURVE('',#1156,#1158,#1159,.T.);
#1004=EDGE_CURVE('',#1158,#1160,#1161,.T.);
#1005=EDGE_CURVE('',#1160,#1162,#1163,.T.);
#1006=EDGE_CURVE('',#1162,#1164,#1165,.T.);
#1007=EDGE_CURVE('',#1164,#1166,#1167,.T.);
#1008=EDGE_CURVE('',#1166,#1168,#1169,.T.);
#1009=EDGE_CURVE('',#1168,#1081,#1170,.T.);
#1010=EDGE_CURVE('',#1079,#1171,#1172,.T.);
#1011=EDGE_CURVE('',#1171,#1089,#1173,.T.);
#1012=EDGE_CURVE('',#1174,#1131,#1175,.T.);
#1013=EDGE_CURVE('',#1174,#1176,#1177,.T.);
#1014=EDGE_CURVE('',#1176,#1133,#1178,.T.);
#1015=EDGE_CURVE('',#1111,#1179,#1180,.T.);
#1016=EDGE_CURVE('',#1179,#1181,#1182,.T.);
#1017=EDGE_CURVE('',#1181,#1174,#1183,.T.);
#1018=EDGE_CURVE('',#1176,#1076,#1184,.T.);
#1019=EDGE_CURVE('',#1077,#1110,#1185,.T.);
#1020=EDGE_CURVE('',#1186,#1136,#1187,.T.);
#1021=EDGE_CURVE('',#1186,#1188,#1189,.T.);
#1022=EDGE_CURVE('',#1188,#1138,#1190,.T.);
#1023=EDGE_CURVE('',#1119,#1191,#1192,.T.);
#1024=EDGE_CURVE('',#1191,#1193,#1194,.T.);
#1025=EDGE_CURVE('',#1193,#1186,#1195,.T.);
#1026=EDGE_CURVE('',#1188,#1196,#1197,.T.);
#1027=EDGE_CURVE('',#1196,#1198,#1199,.T.);
#1028=EDGE_CURVE('',#1198,#1118,#1200,.T.);
#1029=EDGE_CURVE('',#1201,#1202,#1203,.T.);
#1030=EDGE_CURVE('',#1202,#1162,#1204,.T.);
#1031=EDGE_CURVE('',#1160,#1201,#1205,.T.);
#1032=EDGE_CURVE('',#1168,#1206,#1207,.T.);
#1033=EDGE_CURVE('',#1206,#1083,#1208,.T.);
#1034=EDGE_CURVE('',#1153,#1086,#1209,.T.);
#1035=EDGE_CURVE('',#1091,#1179,#1210,.T.);
#1036=EDGE_CURVE('',#1206,#1191,#1211,.T.);
#1037=EDGE_CURVE('',#1198,#1202,#1212,.T.);
#1038=EDGE_CURVE('',#1201,#1146,#1213,.T.);
#1039=EDGE_CURVE('',#1148,#1158,#1214,.T.);
#1040=EDGE_CURVE('',#1156,#1151,#1215,.T.);
#1041=EDGE_CURVE('',#1181,#1171,#1216,.T.);
#1042=EDGE_CURVE('',#1193,#1166,#1217,.T.);
#1043=EDGE_CURVE('',#1164,#1196,#1218,.T.);
#1044=VERTEX_POINT('',#1219);
#1045=VERTEX_POINT('',#1220);
#1046=CIRCLE('',#1221,8.93137084989847);
#1047=CIRCLE('',#1225,8.93137084989847);
#1048=VERTEX_POINT('',#1229);
#1049=VERTEX_POINT('',#1230);
#1050=CIRCLE('',#1231,8.93137084989847);
#1051=CIRCLE('',#1235,8.93137084989847);
#1052=VERTEX_POINT('',#1239);
#1053=VERTEX_POINT('',#1240);
#1054=CIRCLE('',#1241,9.);
#1055=CIRCLE('',#1245,9.);
#1056=VERTEX_POINT('',#1249);
#1057=VERTEX_POINT('',#1250);
#1058=CIRCLE('',#1251,9.);
#1059=CIRCLE('',#1255,9.);
#1060=VERTEX_POINT('',#1259);
#1061=VERTEX_POINT('',#1260);
#1062=CIRCLE('',#1261,9.);
#1063=CIRCLE('',#1265,9.);
#1064=VERTEX_POINT('',#1269);
#1065=CIRCLE('',#1270,8.6);
#1066=VERTEX_POINT('',#1274);
#1067=VERTEX_POINT('',#1275);
#1068=CIRCLE('',#1276,9.);
#1069=CIRCLE('',#1280,9.);
#1070=VERTEX_POINT('',#1284);
#1071=CIRCLE('',#1285,8.6);
#1072=VERTEX_POINT('',#1289);
#1073=CIRCLE('',#1290,7.);
#1074=VERTEX_POINT('',#1294);
#1075=CIRCLE('',#1295,7.);
#1076=VERTEX_POINT('',#1299);
#1077=VERTEX_POINT('',#1300);
#1078=LINE('',#1301,#1302);
#1079=VERTEX_POINT('',#1304);
#1080=B_SPLINE_CURVE_WITH_KNOTS('',3,
(#1305,#1306,#1307,#1308,#1309,#1310,#1311,#1312,#1313,#1314,#1315,#1316,#1317,#1318,
#1319,#1320,#1321,#1322,#1323,#1324,#1325,#1326,#1327,#1328,#1329,#1330,#1331,#1332,
#1333),
.UNSPECIFIED.,.F.,.F.,
(4,1,1,1,1,1,1,1,1,1,1,1,1,1,1,1,1,1,1,1,1,1,1,1,1,1,4),
(0.,0.0166783759477621,0.0336772748654646,0.051331104169421,0.0793103217172015,0.119725571024458,
0.17276402723862,0.230991794518885,0.292453757733325,0.356239884122782,0.419591399750556,
0.480936930186258,0.540384780660764,0.599603135230816,0.660363559429509,0.724188048620987,
0.789991596546677,0.851731868597105,0.865993913777754,0.902623025669089,0.9349405595019,
0.953601857691945,0.963718328403525,0.973505740616412,0.982638945553019,0.99146867744562,
1.),
.UNSPECIFIED.);
#1081=VERTEX_POINT('',#1334);
#1082=CIRCLE('',#1335,0.5);
#1083=VERTEX_POINT('',#1339);
#1084=LINE('',#1340,#1341);
#1085=CIRCLE('',#1343,0.5);
#1086=VERTEX_POINT('',#1347);
#1087=VERTEX_POINT('',#1348);
#1088=LINE('',#1349,#1350);
#1089=VERTEX_POINT('',#1352);
#1090=CIRCLE('',#1353,4.75);
#1091=VERTEX_POINT('',#1357);
#1092=LINE('',#1358,#1359);
#1093=CIRCLE('',#1361,4.75);
#1094=VERTEX_POINT('',#1365);
#1095=CIRCLE('',#1366,5.5);
#1096=VERTEX_POINT('',#1370);
#1097=CIRCLE('',#1371,5.5);
#1098=VERTEX_POINT('',#1375);
#1099=CIRCLE('',#1376,7.325);
#1100=VERTEX_POINT('',#1380);
#1101=CIRCLE('',#1381,7.325);
#1102=VERTEX_POINT('',#1385);
#1103=VERTEX_POINT('',#1386);
#1104=CIRCLE('',#1387,4.75);
#1105=VERTEX_POINT('',#1391);
#1106=LINE('',#1392,#1393);
#1107=VERTEX_POINT('',#1395);
#1108=CIRCLE('',#1396,4.75);
#1109=LINE('',#1400,#1401);
#1110=VERTEX_POINT('',#1403);
#1111=VERTEX_POINT('',#1404);
#1112=CIRCLE('',#1405,4.75);
#1113=VERTEX_POINT('',#1409);
#1114=LINE('',#1410,#1411);
#1115=VERTEX_POINT('',#1413);
#1116=CIRCLE('',#1414,4.75);
#1117=LINE('',#1418,#1419);
#1118=VERTEX_POINT('',#1421);
#1119=VERTEX_POINT('',#1422);
#1120=CIRCLE('',#1423,4.75);
#1121=VERTEX_POINT('',#1427);
#1122=LINE('',#1428,#1429);
#1123=VERTEX_POINT('',#1431);
#1124=CIRCLE('',#1432,4.75);
#1125=LINE('',#1436,#1437);
#1126=VERTEX_POINT('',#1439);
#1127=LINE('',#1440,#1441);
#1128=VERTEX_POINT('',#1443);
#1129=CIRCLE('',#1444,5.2510998845731);
#1130=LINE('',#1448,#1449);
#1131=VERTEX_POINT('',#1451);
#1132=LINE('',#1452,#1453);
#1133=VERTEX_POINT('',#1455);
#1134=CIRCLE('',#1456,5.2510998845731);
#1135=LINE('',#1460,#1461);
#1136=VERTEX_POINT('',#1463);
#1137=LINE('',#1464,#1465);
#1138=VERTEX_POINT('',#1467);
#1139=CIRCLE('',#1468,5.2510998845731);
#1140=LINE('',#1472,#1473);
#1141=VERTEX_POINT('',#1475);
#1142=LINE('',#1476,#1477);
#1143=VERTEX_POINT('',#1479);
#1144=CIRCLE('',#1480,5.2510998845731);
#1145=LINE('',#1484,#1485);
#1146=VERTEX_POINT('',#1487);
#1147=LINE('',#1488,#1489);
#1148=VERTEX_POINT('',#1491);
#1149=LINE('',#1492,#1493);
#1150=CIRCLE('',#1495,0.5);
#1151=VERTEX_POINT('',#1499);
#1152=CIRCLE('',#1500,0.5);
#1153=VERTEX_POINT('',#1504);
#1154=LINE('',#1505,#1506);
#1155=LINE('',#1508,#1509);
#1156=VERTEX_POINT('',#1511);
#1157=CIRCLE('',#1512,0.5);
#1158=VERTEX_POINT('',#1516);
#1159=CIRCLE('',#1517,4.7510998845731);
#1160=VERTEX_POINT('',#1521);
#1161=CIRCLE('',#1522,0.5);
#1162=VERTEX_POINT('',#1526);
#1163=CIRCLE('',#1527,4.75);
#1164=VERTEX_POINT('',#1531);
#1165=CIRCLE('',#1532,0.5);
#1166=VERTEX_POINT('',#1536);
#1167=CIRCLE('',#1537,4.7510998845731);
#1168=VERTEX_POINT('',#1541);
#1169=CIRCLE('',#1542,0.500000000000001);
#1170=CIRCLE('',#1546,4.75);
#1171=VERTEX_POINT('',#1550);
#1172=CIRCLE('',#1551,4.7510998845731);
#1173=CIRCLE('',#1555,0.5);
#1174=VERTEX_POINT('',#1559);
#1175=LINE('',#1560,#1561);
#1176=VERTEX_POINT('',#1563);
#1177=CIRCLE('',#1564,5.2510998845731);
#1178=LINE('',#1568,#1569);
#1179=VERTEX_POINT('',#1571);
#1180=LINE('',#1572,#1573);
#1181=VERTEX_POINT('',#1575);
#1182=LINE('',#1576,#1577);
#1183=CIRCLE('',#1579,0.5);
#1184=CIRCLE('',#1583,0.5);
#1185=LINE('',#1587,#1588);
#1186=VERTEX_POINT('',#1590);
#1187=LINE('',#1591,#1592);
#1188=VERTEX_POINT('',#1594);
#1189=CIRCLE('',#1595,5.2510998845731);
#1190=LINE('',#1599,#1600);
#1191=VERTEX_POINT('',#1602);
#1192=LINE('',#1603,#1604);
#1193=VERTEX_POINT('',#1606);
#1194=LINE('',#1607,#1608);
#1195=CIRCLE('',#1610,0.500000000000001);
#1196=VERTEX_POINT('',#1614);
#1197=CIRCLE('',#1615,0.5);
#1198=VERTEX_POINT('',#1619);
#1199=LINE('',#1620,#1621);
#1200=LINE('',#1623,#1624);
#1201=VERTEX_POINT('',#1626);
#1202=VERTEX_POINT('',#1627);
#1203=CIRCLE('',#1628,4.75);
#1204=LINE('',#1632,#1633);
#1205=LINE('',#1635,#1636);
#1206=VERTEX_POINT('',#1638);
#1207=LINE('',#1639,#1640);
#1208=CIRCLE('',#1642,4.75);
#1209=CIRCLE('',#1646,0.5);
#1210=CIRCLE('',#1650,0.5);
#1211=CIRCLE('',#1654,0.500000000000001);
#1212=CIRCLE('',#1658,0.5);
#1213=CIRCLE('',#1662,0.5);
#1214=B_SPLINE_CURVE_WITH_KNOTS('',3,
(#1666,#1667,#1668,#1669,#1670,#1671,#1672,#1673,#1674,#1675,#1676,#1677,#1678,#1679,
#1680,#1681,#1682,#1683,#1684,#1685,#1686,#1687),
.UNSPECIFIED.,.F.,.F.,
(4,1,1,1,1,1,1,1,1,1,1,1,1,1,1,1,1,1,1,4),
(0.,0.0365961680937026,0.0852192325102209,0.14503083236485,0.214763707940147,0.28129500176881,
0.345129839603595,0.406852787253962,0.466879027888925,0.525841427143706,0.574940474212169,
0.614801286463377,0.656004115480188,0.709842361933778,0.777454366789821,0.786698998060136,
0.849555565248967,0.91155087932329,0.962197320692441,1.),
.UNSPECIFIED.);
#1215=B_SPLINE_CURVE_WITH_KNOTS('',3,
(#1688,#1689,#1690,#1691,#1692,#1693,#1694,#1695,#1696,#1697,#1698,#1699,#1700,#1701,
#1702,#1703,#1704,#1705,#1706,#1707,#1708,#1709),
.UNSPECIFIED.,.F.,.F.,
(4,1,1,1,1,1,1,1,1,1,1,1,1,1,1,1,1,1,1,4),
(0.,0.0611951421315113,0.118133411370154,0.157609498413107,0.170811297028154,0.226723315208897,
0.289329929465543,0.357784158691998,0.412912590257277,0.455466841246331,0.495354642630811,
0.544330845803449,0.603017361229069,0.663023144156,0.724591029727475,0.788236630250493,
0.855108737669356,0.91356620221666,0.962449145543058,1.),
.UNSPECIFIED.);
#1216=B_SPLINE_CURVE_WITH_KNOTS('',3,
(#1710,#1711,#1712,#1713,#1714,#1715,#1716,#1717,#1718,#1719,#1720,#1721,#1722,#1723,
#1724,#1725,#1726,#1727,#1728,#1729,#1730,#1731),
.UNSPECIFIED.,.F.,.F.,
(4,1,1,1,1,1,1,1,1,1,1,1,1,1,1,1,1,1,1,4),
(0.,0.0365961680937032,0.0852192325102208,0.145030832364851,0.214763707940148,0.28129500176881,
0.345129839603593,0.406852787253962,0.466879027888924,0.472832359869796,0.5258414271437,
0.574940474212164,0.614801286463368,0.656004115480182,0.709842361933773,0.777454366789811,
0.849555565248955,0.911550879323283,0.962197320692434,1.),
.UNSPECIFIED.);
#1217=B_SPLINE_CURVE_WITH_KNOTS('',3,
(#1732,#1733,#1734,#1735,#1736,#1737,#1738,#1739,#1740,#1741,#1742,#1743,#1744,#1745,
#1746,#1747,#1748,#1749,#1750,#1751,#1752),
.UNSPECIFIED.,.F.,.F.,
(4,1,1,1,1,1,1,1,1,1,1,1,1,1,1,1,1,1,4),
(0.,0.0365961680937021,0.08521923251022,0.14503083236485,0.214763707940147,0.281295001768813,
0.345129839603598,0.406852787253965,0.466879027888926,0.525841427143704,0.574940474212171,
0.614801286463376,0.656004115480188,0.709842361933778,0.777454366789817,0.849555565248961,
0.911550879323285,0.962197320692436,1.),
.UNSPECIFIED.);
#1218=B_SPLINE_CURVE_WITH_KNOTS('',3,
(#1753,#1754,#1755,#1756,#1757,#1758,#1759,#1760,#1761,#1762,#1763,#1764,#1765,#1766,
#1767,#1768,#1769,#1770,#1771,#1772,#1773,#1774),
.UNSPECIFIED.,.F.,.F.,
(4,1,1,1,1,1,1,1,1,1,1,1,1,1,1,1,1,1,1,4),
(0.,0.0611951421315084,0.118133411370148,0.170811297028149,0.226723315208895,0.289329929465538,
0.357784158691993,0.412912590257273,0.455466841246327,0.469172943092135,0.495354642630808,
0.544330845803447,0.603017361229065,0.663023144155992,0.724591029727468,0.788236630250484,
0.855108737669349,0.913566202216656,0.962449145543055,1.),
.UNSPECIFIED.);
#1219=CARTESIAN_POINT('',(8.93137084989847,-1.82296245388769E-15,4.57914372253487));
#1220=CARTESIAN_POINT('',(-8.93137084989847,3.64592490777538E-16,4.57914372253487));
#1221=AXIS2_PLACEMENT_3D('',#1222,#1223,#1224);
#1222=CARTESIAN_POINT('',(9.54175865878082E-17,0.,4.57914372253487));
#1223=DIRECTION('',(-1.22464679914735E-16,0.,-1.));
#1224=DIRECTION('',(1.,1.22464679914735E-16,-1.22464679914735E-16));
#1225=AXIS2_PLACEMENT_3D('',#1226,#1227,#1228);
#1226=CARTESIAN_POINT('',(9.5417586587808E-17,0.,4.57914372253487));
#1227=DIRECTION('',(-1.22464679914735E-16,0.,-1.));
#1228=DIRECTION('',(-1.,0.,1.22464679914735E-16));
#1229=CARTESIAN_POINT('',(8.93137084989847,-1.82296245388769E-15,3.02085627746514));
#1230=CARTESIAN_POINT('',(-8.93137084989847,3.64592490777538E-16,3.02085627746514));
#1231=AXIS2_PLACEMENT_3D('',#1232,#1233,#1234);
#1232=CARTESIAN_POINT('',(-9.54175865878079E-17,0.,3.02085627746514));
#1233=DIRECTION('',(1.22464679914735E-16,0.,1.));
#1234=DIRECTION('',(1.,1.22464679914735E-16,-1.22464679914735E-16));
#1235=AXIS2_PLACEMENT_3D('',#1236,#1237,#1238);
#1236=CARTESIAN_POINT('',(-9.54175865878081E-17,0.,3.02085627746514));
#1237=DIRECTION('',(1.22464679914735E-16,0.,1.));
#1238=DIRECTION('',(-1.,-2.44929359829471E-16,1.22464679914735E-16));
#1239=CARTESIAN_POINT('',(-9.,3.67394039744206E-16,2.50142712910856));
#1240=CARTESIAN_POINT('',(9.,-1.83697019872103E-15,2.50142712910856));
#1241=AXIS2_PLACEMENT_3D('',#1242,#1243,#1244);
#1242=CARTESIAN_POINT('',(0.,0.,2.50142712910856));
#1243=DIRECTION('',(0.,0.,-1.));
#1244=DIRECTION('',(-1.,0.,0.));
#1245=AXIS2_PLACEMENT_3D('',#1246,#1247,#1248);
#1246=CARTESIAN_POINT('',(0.,0.,2.50142712910856));
#1247=DIRECTION('',(0.,0.,-1.));
#1248=DIRECTION('',(1.,1.22464679914735E-16,0.));
#1249=CARTESIAN_POINT('',(-9.,3.67394039744206E-16,5.09857287089145));
#1250=CARTESIAN_POINT('',(9.,-1.83697019872103E-15,5.09857287089145));
#1251=AXIS2_PLACEMENT_3D('',#1252,#1253,#1254);
#1252=CARTESIAN_POINT('',(0.,0.,5.09857287089145));
#1253=DIRECTION('',(0.,0.,1.));
#1254=DIRECTION('',(-1.,-2.44929359829471E-16,0.));
#1255=AXIS2_PLACEMENT_3D('',#1256,#1257,#1258);
#1256=CARTESIAN_POINT('',(0.,0.,5.09857287089145));
#1257=DIRECTION('',(0.,0.,1.));
#1258=DIRECTION('',(1.,1.22464679914735E-16,0.));
#1259=CARTESIAN_POINT('',(-9.,3.67394039744206E-16,0.399999999999989));
#1260=CARTESIAN_POINT('',(9.,-1.83697019872103E-15,0.399999999999995));
#1261=AXIS2_PLACEMENT_3D('',#1262,#1263,#1264);
#1262=CARTESIAN_POINT('',(0.,0.,0.399999999999991));
#1263=DIRECTION('',(0.,0.,1.));
#1264=DIRECTION('',(-1.,-2.44929359829471E-16,0.));
#1265=AXIS2_PLACEMENT_3D('',#1266,#1267,#1268);
#1266=CARTESIAN_POINT('',(0.,0.,0.399999999999991));
#1267=DIRECTION('',(0.,0.,1.));
#1268=DIRECTION('',(1.,1.22464679914735E-16,0.));
#1269=CARTESIAN_POINT('',(8.6,-1.75532707877787E-15,-1.66533453693773E-15));
#1270=AXIS2_PLACEMENT_3D('',#1271,#1272,#1273);
#1271=CARTESIAN_POINT('',(0.,0.,0.));
#1272=DIRECTION('',(0.,0.,-1.));
#1273=DIRECTION('',(-1.,-1.22464679914735E-16,0.));
#1274=CARTESIAN_POINT('',(-9.,3.67394039744206E-16,65.));
#1275=CARTESIAN_POINT('',(9.,-1.83697019872103E-15,65.));
#1276=AXIS2_PLACEMENT_3D('',#1277,#1278,#1279);
#1277=CARTESIAN_POINT('',(0.,0.,65.));
#1278=DIRECTION('',(0.,0.,-1.));
#1279=DIRECTION('',(-1.,0.,0.));
#1280=AXIS2_PLACEMENT_3D('',#1281,#1282,#1283);
#1281=CARTESIAN_POINT('',(0.,0.,65.));
#1282=DIRECTION('',(0.,0.,-1.));
#1283=DIRECTION('',(1.,1.22464679914735E-16,0.));
#1284=CARTESIAN_POINT('',(8.6,-2.45745791028902E-15,65.4));
#1285=AXIS2_PLACEMENT_3D('',#1286,#1287,#1288);
#1286=CARTESIAN_POINT('',(0.,0.,65.4));
#1287=DIRECTION('',(0.,0.,1.));
#1288=DIRECTION('',(1.,0.,0.));
#1289=CARTESIAN_POINT('',(7.,-2.00025643860734E-15,65.4));
#1290=AXIS2_PLACEMENT_3D('',#1291,#1292,#1293);
#1291=CARTESIAN_POINT('',(0.,0.,65.4));
#1292=DIRECTION('',(0.,0.,1.));
#1293=DIRECTION('',(-1.,1.22464679914735E-16,0.));
#1294=CARTESIAN_POINT('',(7.,-2.00025643860734E-15,65.28));
#1295=AXIS2_PLACEMENT_3D('',#1296,#1297,#1298);
#1296=CARTESIAN_POINT('',(0.,0.,65.28));
#1297=DIRECTION('',(0.,0.,1.));
#1298=DIRECTION('',(-1.,1.22464679914735E-16,0.));
#1299=CARTESIAN_POINT('',(0.499087063091329,-5.20225067672203,-0.0360142972153086));
#1300=CARTESIAN_POINT('',(0.499087063091329,-5.20225067672203,0.12));
#1301=CARTESIAN_POINT('',(0.499087063091329,-5.20225067672203,-0.0360142972153086));
#1302=VECTOR('',#1303,1.);
#1303=DIRECTION('',(7.11616207258869E-16,0.,1.));
#1304=CARTESIAN_POINT('',(0.871099022487732,-4.67056063082489,-0.38));
#1305=CARTESIAN_POINT('',(0.871099003074958,-4.67056063586742,-0.38));
#1306=CARTESIAN_POINT('',(0.866507545852694,-4.67175322540012,-0.379999902762497));
#1307=CARTESIAN_POINT('',(0.857269515733923,-4.67429369331914,-0.379999416279871));
#1308=CARTESIAN_POINT('',(0.843302872127535,-4.67856980889479,-0.379993100127183));
#1309=CARTESIAN_POINT('',(0.826420033715653,-4.68429018257772,-0.379972928976421));
#1310=CARTESIAN_POINT('',(0.803541003230026,-4.69304971636798,-0.379908629444403));
#1311=CARTESIAN_POINT('',(0.772016711831868,-4.70728099133313,-0.379681860075608));
#1312=CARTESIAN_POINT('',(0.73417151459862,-4.72814631886252,-0.378977365851484));
#1313=CARTESIAN_POINT('',(0.693544470673144,-4.75587271051442,-0.37716935658627));
#1314=CARTESIAN_POINT('',(0.653674691438766,-4.78952039981996,-0.373432894346958));
#1315=CARTESIAN_POINT('',(0.616781599734738,-4.82808718334746,-0.366785650459431));
#1316=CARTESIAN_POINT('',(0.584618458058974,-4.86989432534231,-0.356369085157558));
#1317=CARTESIAN_POINT('',(0.558161177709757,-4.91285816460496,-0.341786065206033));
#1318=CARTESIAN_POINT('',(0.537230985131747,-4.95574300318993,-0.322820652768418));
#1319=CARTESIAN_POINT('',(0.521193348165489,-4.99815053418505,-0.299066812435874));
#1320=CARTESIAN_POINT('',(0.509468491325059,-5.04001532616217,-0.269761831513938));
#1321=CARTESIAN_POINT('',(0.501773398901262,-5.08049695659138,-0.234397925128527));
#1322=CARTESIAN_POINT('',(0.497803609996584,-5.11717536508116,-0.194166978211452));
#1323=CARTESIAN_POINT('',(0.49687340867077,-5.14088765844536,-0.161445583302763));
#1324=CARTESIAN_POINT('',(0.496767405904665,-5.15792884082692,-0.134299076709846));
#1325=CARTESIAN_POINT('',(0.496968135462004,-5.16961969727604,-0.113695468817335));
#1326=CARTESIAN_POINT('',(0.497456154485109,-5.18060407236095,-0.0913075808604523));
#1327=CARTESIAN_POINT('',(0.497888606438588,-5.18756532744788,-0.0753773535173327));
#1328=CARTESIAN_POINT('',(0.498184755175307,-5.1917074557709,-0.0652173765267104));
#1329=CARTESIAN_POINT('',(0.498417184719043,-5.19469417831568,-0.0575157893841875));
#1330=CARTESIAN_POINT('',(0.498645675483006,-5.19742797724817,-0.0501106314156951));
#1331=CARTESIAN_POINT('',(0.498867770945241,-5.19992824874812,-0.0430018656869492));
#1332=CARTESIAN_POINT('',(0.499014743385343,-5.2014968047878,-0.0383202523926629));
#1333=CARTESIAN_POINT('',(0.49908706309133,-5.20225067672203,-0.0360142972153089));
#1334=CARTESIAN_POINT('',(0.901868349698096,-4.66359662490366,-0.38));
#1335=AXIS2_PLACEMENT_3D('',#1336,#1337,#1338);
#1336=CARTESIAN_POINT('',(0.996801860192632,-5.15450153278826,-0.38));
#1337=DIRECTION('',(0.,0.,1.));
#1338=DIRECTION('',(-0.189867020989072,0.981809815769192,0.));
#1339=CARTESIAN_POINT('',(0.901868349698096,-4.66359662490366,0.12));
#1340=CARTESIAN_POINT('',(0.901868349698098,-4.66359662490366,0.12));
#1341=VECTOR('',#1342,1.);
#1342=DIRECTION('',(0.,0.,-1.));
#1343=AXIS2_PLACEMENT_3D('',#1344,#1345,#1346);
#1344=CARTESIAN_POINT('',(0.996801860192632,-5.15450153278826,0.12));
#1345=DIRECTION('',(0.,0.,-1.));
#1346=DIRECTION('',(-0.995429594202607,-0.0954982878675512,0.));
#1347=CARTESIAN_POINT('',(-4.48972732501898,1.55075741074415,0.12));
#1348=CARTESIAN_POINT('',(-4.48972732501898,1.55075741074415,-0.38));
#1349=CARTESIAN_POINT('',(-4.48972732501898,1.55075741074415,0.12));
#1350=VECTOR('',#1351,1.);
#1351=DIRECTION('',(0.,0.,-1.));
#1352=CARTESIAN_POINT('',(-2.75597788651542,-3.86873181921906,-0.38));
#1353=AXIS2_PLACEMENT_3D('',#1354,#1355,#1356);
#1354=CARTESIAN_POINT('',(0.,0.,-0.38));
#1355=DIRECTION('',(0.,0.,-1.));
#1356=DIRECTION('',(-0.580205870845352,-0.814469856677696,0.));
#1357=CARTESIAN_POINT('',(-2.75597788651542,-3.86873181921906,0.12));
#1358=CARTESIAN_POINT('',(-2.75597788651542,-3.86873181921905,-0.38));
#1359=VECTOR('',#1360,1.);
#1360=DIRECTION('',(0.,0.,1.));
#1361=AXIS2_PLACEMENT_3D('',#1362,#1363,#1364);
#1362=CARTESIAN_POINT('',(0.,0.,0.12));
#1363=DIRECTION('',(0.,0.,-1.));
#1364=DIRECTION('',(-0.580205870845352,-0.814469856677696,0.));
#1365=CARTESIAN_POINT('',(-5.5,-6.73555739531044E-16,1.12));
#1366=AXIS2_PLACEMENT_3D('',#1367,#1368,#1369);
#1367=CARTESIAN_POINT('',(0.,0.,1.12));
#1368=DIRECTION('',(0.,0.,-1.));
#1369=DIRECTION('',(1.,1.22464679914735E-16,0.));
#1370=CARTESIAN_POINT('',(-5.5,-6.73555739531044E-16,0.12));
#1371=AXIS2_PLACEMENT_3D('',#1372,#1373,#1374);
#1372=CARTESIAN_POINT('',(0.,0.,0.12));
#1373=DIRECTION('',(0.,0.,-1.));
#1374=DIRECTION('',(1.,1.22464679914735E-16,0.));
#1375=CARTESIAN_POINT('',(-7.325,-8.97053780375436E-16,0.12));
#1376=AXIS2_PLACEMENT_3D('',#1377,#1378,#1379);
#1377=CARTESIAN_POINT('',(0.,0.,0.12));
#1378=DIRECTION('',(0.,0.,-1.));
#1379=DIRECTION('',(1.,1.22464679914735E-16,0.));
#1380=CARTESIAN_POINT('',(-7.325,-8.97053780375436E-16,0.));
#1381=AXIS2_PLACEMENT_3D('',#1382,#1383,#1384);
#1382=CARTESIAN_POINT('',(0.,0.,0.));
#1383=DIRECTION('',(0.,0.,-1.));
#1384=DIRECTION('',(1.,1.22464679914735E-16,0.));
#1385=CARTESIAN_POINT('',(-4.32162818591232,1.97130155550292,0.12));
#1386=CARTESIAN_POINT('',(-2.37499999999996,4.1136206679761,0.12));
#1387=AXIS2_PLACEMENT_3D('',#1388,#1389,#1390);
#1388=CARTESIAN_POINT('',(0.,0.,0.12));
#1389=DIRECTION('',(0.,0.,-1.));
#1390=DIRECTION('',(-0.909816460192067,0.415010853790087,0.));
#1391=CARTESIAN_POINT('',(-2.37499999999996,4.11362066797611,1.12));
#1392=CARTESIAN_POINT('',(-2.37499999999996,4.11362066797611,0.12));
#1393=VECTOR('',#1394,1.);
#1394=DIRECTION('',(0.,0.,1.));
#1395=CARTESIAN_POINT('',(-4.32162818591232,1.97130155550293,1.12));
#1396=AXIS2_PLACEMENT_3D('',#1397,#1398,#1399);
#1397=CARTESIAN_POINT('',(0.,0.,1.12));
#1398=DIRECTION('',(0.,0.,1.));
#1399=DIRECTION('',(-0.499999999999992,0.866025403784443,0.));
#1400=CARTESIAN_POINT('',(-4.32162818591232,1.97130155550292,0.12));
#1401=VECTOR('',#1402,1.);
#1402=DIRECTION('',(0.,0.,1.));
#1403=CARTESIAN_POINT('',(0.453616867370876,-4.72829057246238,0.12));
#1404=CARTESIAN_POINT('',(-2.37500000000002,-4.11362066797607,0.12));
#1405=AXIS2_PLACEMENT_3D('',#1406,#1407,#1408);
#1406=CARTESIAN_POINT('',(0.,0.,0.12));
#1407=DIRECTION('',(0.,0.,-1.));
#1408=DIRECTION('',(0.0954982878675531,-0.995429594202606,0.));
#1409=CARTESIAN_POINT('',(-2.37500000000002,-4.11362066797607,1.12));
#1410=CARTESIAN_POINT('',(-2.37500000000002,-4.11362066797607,0.12));
#1411=VECTOR('',#1412,1.);
#1412=DIRECTION('',(0.,0.,1.));
#1413=CARTESIAN_POINT('',(0.453616867370876,-4.72829057246238,1.12));
#1414=AXIS2_PLACEMENT_3D('',#1415,#1416,#1417);
#1415=CARTESIAN_POINT('',(0.,0.,1.12));
#1416=DIRECTION('',(0.,0.,1.));
#1417=DIRECTION('',(-0.500000000000004,-0.866025403784436,0.));
#1418=CARTESIAN_POINT('',(0.453616867370876,-4.72829057246238,0.12));
#1419=VECTOR('',#1420,1.);
#1420=DIRECTION('',(0.,0.,1.));
#1421=CARTESIAN_POINT('',(3.86801131854144,2.7569890169595,0.12));
#1422=CARTESIAN_POINT('',(4.75,5.81707229594993E-16,0.12));
#1423=AXIS2_PLACEMENT_3D('',#1424,#1425,#1426);
#1424=CARTESIAN_POINT('',(0.,0.,0.12));
#1425=DIRECTION('',(0.,0.,-1.));
#1426=DIRECTION('',(0.814318172324513,0.580418740412527,0.));
#1427=CARTESIAN_POINT('',(4.75,5.81707229594993E-16,1.12));
#1428=CARTESIAN_POINT('',(4.75,0.,0.12));
#1429=VECTOR('',#1430,1.);
#1430=DIRECTION('',(0.,5.69911013164282E-31,1.));
#1431=CARTESIAN_POINT('',(3.86801131854144,2.7569890169595,1.12));
#1432=AXIS2_PLACEMENT_3D('',#1433,#1434,#1435);
#1433=CARTESIAN_POINT('',(0.,0.,1.12));
#1434=DIRECTION('',(0.,0.,1.));
#1435=DIRECTION('',(1.,-1.22464679914735E-16,0.));
#1436=CARTESIAN_POINT('',(3.86801131854144,2.7569890169595,0.12));
#1437=VECTOR('',#1438,1.);
#1438=DIRECTION('',(4.44089209850063E-16,4.44089209850063E-16,1.));
#1439=CARTESIAN_POINT('',(-2.62554994228651,4.54758589784986,1.12));
#1440=CARTESIAN_POINT('',(-2.62554994228651,4.54758589784986,1.12));
#1441=VECTOR('',#1442,1.);
#1442=DIRECTION('',(0.499999999999991,-0.866025403784444,0.));
#1443=CARTESIAN_POINT('',(-4.77753710909727,2.17926344643371,1.12));
#1444=AXIS2_PLACEMENT_3D('',#1445,#1446,#1447);
#1445=CARTESIAN_POINT('',(0.,0.,1.12));
#1446=DIRECTION('',(0.,0.,-1.));
#1447=DIRECTION('',(-0.909816460192067,0.415010853790088,0.));
#1448=CARTESIAN_POINT('',(-4.32162818591232,1.97130155550292,1.12));
#1449=VECTOR('',#1450,1.);
#1450=DIRECTION('',(-0.909816460192066,0.41501085379009,-4.43114460331997E-16));
#1451=CARTESIAN_POINT('',(-2.62554994228657,-4.54758589784982,1.12));
#1452=CARTESIAN_POINT('',(-2.62554994228657,-4.54758589784982,1.12));
#1453=VECTOR('',#1454,1.);
#1454=DIRECTION('',(0.500000000000004,0.866025403784436,0.));
#1455=CARTESIAN_POINT('',(0.501471048398235,-5.22710022721795,1.12));
#1456=AXIS2_PLACEMENT_3D('',#1457,#1458,#1459);
#1457=CARTESIAN_POINT('',(0.,0.,1.12));
#1458=DIRECTION('',(0.,0.,-1.));
#1459=DIRECTION('',(0.0954982878675531,-0.995429594202607,0.));
#1460=CARTESIAN_POINT('',(0.453616867370876,-4.72829057246238,1.12));
#1461=VECTOR('',#1462,1.);
#1462=DIRECTION('',(0.0954982878675528,-0.995429594202606,-4.43114460331992E-16));
#1463=CARTESIAN_POINT('',(5.2510998845731,6.43074266564547E-16,1.12));
#1464=CARTESIAN_POINT('',(5.2510998845731,6.43074266564547E-16,1.12));
#1465=VECTOR('',#1466,1.);
#1466=DIRECTION('',(-1.,-1.2833255132605E-15,-4.43114460331992E-16));
#1467=CARTESIAN_POINT('',(4.27606606069903,3.04783678078428,1.12));
#1468=AXIS2_PLACEMENT_3D('',#1469,#1470,#1471);
#1469=CARTESIAN_POINT('',(0.,0.,1.12));
#1470=DIRECTION('',(0.,0.,-1.));
#1471=DIRECTION('',(0.814318172324513,0.580418740412527,0.));
#1472=CARTESIAN_POINT('',(3.86801131854143,2.7569890169595,1.12));
#1473=VECTOR('',#1474,1.);
#1474=DIRECTION('',(0.814318172324514,0.580418740412527,-4.4311446033199E-16));
#1475=CARTESIAN_POINT('',(-2.62554994228651,4.54758589784986,0.12));
#1476=CARTESIAN_POINT('',(-2.62554994228651,4.54758589784986,0.12));
#1477=VECTOR('',#1478,1.);
#1478=DIRECTION('',(0.,0.,1.));
#1479=CARTESIAN_POINT('',(-4.77753710909727,2.17926344643371,0.12));
#1480=AXIS2_PLACEMENT_3D('',#1481,#1482,#1483);
#1481=CARTESIAN_POINT('',(0.,0.,0.12));
#1482=DIRECTION('',(0.,0.,1.));
#1483=DIRECTION('',(-0.499999999999992,0.866025403784443,0.));
#1484=CARTESIAN_POINT('',(-4.77753710909727,2.17926344643371,0.12));
#1485=VECTOR('',#1486,1.);
#1486=DIRECTION('',(-8.88178419700125E-16,0.,1.));
#1487=CARTESIAN_POINT('',(-2.61306812004582,4.52596674755794,0.12));
#1488=CARTESIAN_POINT('',(-2.37499999999996,4.11362066797611,0.12));
#1489=VECTOR('',#1490,1.);
#1490=DIRECTION('',(-0.499999999999991,0.866025403784444,0.));
#1491=CARTESIAN_POINT('',(-2.61306812004581,4.52596674755795,-0.0360142972153118));
#1492=CARTESIAN_POINT('',(-2.61306812004582,4.52596674755794,0.12));
#1493=VECTOR('',#1494,1.);
#1494=DIRECTION('',(0.,0.,-1.));
#1495=AXIS2_PLACEMENT_3D('',#1496,#1497,#1498);
#1496=CARTESIAN_POINT('',(-2.37554994228651,4.11457319595764,0.12));
#1497=DIRECTION('',(0.866025403784444,0.499999999999991,0.));
#1498=DIRECTION('',(-0.475036355518611,0.822787103200607,-0.312028594430624));
#1499=CARTESIAN_POINT('',(-4.75482477444172,2.16890326302379,-0.0360142972153156));
#1500=AXIS2_PLACEMENT_3D('',#1501,#1502,#1503);
#1501=CARTESIAN_POINT('',(-4.32262887900123,1.97175801953867,0.12));
#1502=DIRECTION('',(-0.41501085379009,-0.909816460192066,0.));
#1503=DIRECTION('',(-0.909816460192066,0.41501085379009,0.));
#1504=CARTESIAN_POINT('',(-4.75482477444172,2.16890326302378,0.12));
#1505=CARTESIAN_POINT('',(-4.75482477444172,2.16890326302378,-0.0360142972153155));
#1506=VECTOR('',#1507,1.);
#1507=DIRECTION('',(0.,0.,1.));
#1508=CARTESIAN_POINT('',(-4.75482477444172,2.16890326302379,0.12));
#1509=VECTOR('',#1510,1.);
#1510=DIRECTION('',(0.909816460192066,-0.41501085379009,0.));
#1511=CARTESIAN_POINT('',(-4.48037366745368,1.58088643272632,-0.38));
#1512=AXIS2_PLACEMENT_3D('',#1513,#1514,#1515);
#1513=CARTESIAN_POINT('',(-4.96233020133677,1.71399503292775,-0.38));
#1514=DIRECTION('',(0.,0.,1.));
#1515=DIRECTION('',(0.945205752635575,-0.32647524436719,0.));
#1516=CARTESIAN_POINT('',(-2.0015291544578,4.30892459403108,-0.38));
#1517=AXIS2_PLACEMENT_3D('',#1518,#1519,#1520);
#1518=CARTESIAN_POINT('',(0.,0.,-0.38));
#1519=DIRECTION('',(0.,0.,-1.));
#1520=DIRECTION('',(-0.943018201322505,0.332741148604238,0.));
#1521=CARTESIAN_POINT('',(-1.97243109261516,4.32111277160004,-0.38));
#1522=AXIS2_PLACEMENT_3D('',#1523,#1524,#1525);
#1523=CARTESIAN_POINT('',(-2.1800554181536,4.77596674755794,-0.38));
#1524=DIRECTION('',(0.,0.,1.));
#1525=DIRECTION('',(0.357052527391461,-0.934084307053368,0.));
#1526=CARTESIAN_POINT('',(3.58785897532088,3.11283921415955,-0.38));
#1527=AXIS2_PLACEMENT_3D('',#1528,#1529,#1530);
#1528=CARTESIAN_POINT('',(0.,0.,-0.38));
#1529=DIRECTION('',(0.,0.,-1.));
#1530=DIRECTION('',(-0.415248651076875,0.909707951915798,0.));
#1531=CARTESIAN_POINT('',(3.60927464496596,3.08967419809862,-0.38));
#1532=AXIS2_PLACEMENT_3D('',#1533,#1534,#1535);
#1533=CARTESIAN_POINT('',(3.96552834114413,3.44050649986055,-0.38));
#1534=DIRECTION('',(0.,0.,1.));
#1535=DIRECTION('',(-0.755338731646501,-0.655334571402009,0.));
#1536=CARTESIAN_POINT('',(4.73240273865137,-0.421087202839872,-0.38));
#1537=AXIS2_PLACEMENT_3D('',#1538,#1539,#1540);
#1538=CARTESIAN_POINT('',(0.,0.,-0.38));
#1539=DIRECTION('',(0.,0.,-1.));
#1540=DIRECTION('',(0.759671388236929,0.650307144274286,0.));
#1541=CARTESIAN_POINT('',(4.7284089791306,-0.452380952380952,-0.38));
#1542=AXIS2_PLACEMENT_3D('',#1543,#1544,#1545);
#1543=CARTESIAN_POINT('',(5.22613624009172,-0.499999999999999,-0.38));
#1544=DIRECTION('',(0.,0.,1.));
#1545=DIRECTION('',(-0.987467002880338,0.157825594320197,0.));
#1546=AXIS2_PLACEMENT_3D('',#1547,#1548,#1549);
#1547=CARTESIAN_POINT('',(0.,0.,-0.38));
#1548=DIRECTION('',(0.,0.,-1.));
#1549=DIRECTION('',(0.995454521922232,-0.0952380952380949,0.));
#1550=CARTESIAN_POINT('',(-2.73087358419356,-3.88783739119119,-0.38));
#1551=AXIS2_PLACEMENT_3D('',#1552,#1553,#1554);
#1552=CARTESIAN_POINT('',(0.,0.,-0.38));
#1553=DIRECTION('',(0.,0.,-1.));
#1554=DIRECTION('',(0.183346813085577,-0.983048292878515,0.));
#1555=AXIS2_PLACEMENT_3D('',#1556,#1557,#1558);
#1556=CARTESIAN_POINT('',(-3.0460808219381,-4.2759667475579,-0.38));
#1557=DIRECTION('',(0.,0.,1.));
#1558=DIRECTION('',(0.630414475488846,0.776258712733147,0.));
#1559=CARTESIAN_POINT('',(-2.62554994228657,-4.54758589784982,0.12));
#1560=CARTESIAN_POINT('',(-2.62554994228657,-4.54758589784982,0.12));
#1561=VECTOR('',#1562,1.);
#1562=DIRECTION('',(0.,0.,1.));
#1563=CARTESIAN_POINT('',(0.501471048398235,-5.22710022721795,0.12));
#1564=AXIS2_PLACEMENT_3D('',#1565,#1566,#1567);
#1565=CARTESIAN_POINT('',(0.,0.,0.12));
#1566=DIRECTION('',(0.,0.,1.));
#1567=DIRECTION('',(-0.500000000000004,-0.866025403784436,0.));
#1568=CARTESIAN_POINT('',(0.501471048398235,-5.22710022721795,0.12));
#1569=VECTOR('',#1570,1.);
#1570=DIRECTION('',(0.,0.,1.));
#1571=CARTESIAN_POINT('',(-2.61306812004588,-4.52596674755791,0.12));
#1572=CARTESIAN_POINT('',(-2.37500000000002,-4.11362066797607,0.12));
#1573=VECTOR('',#1574,1.);
#1574=DIRECTION('',(-0.500000000000005,-0.866025403784436,0.));
#1575=CARTESIAN_POINT('',(-2.61306812004588,-4.5259667475579,-0.0360142972153104));
#1576=CARTESIAN_POINT('',(-2.61306812004588,-4.52596674755791,0.12));
#1577=VECTOR('',#1578,1.);
#1578=DIRECTION('',(0.,0.,-1.));
#1579=AXIS2_PLACEMENT_3D('',#1580,#1581,#1582);
#1580=CARTESIAN_POINT('',(-2.37554994228657,-4.1145731959576,0.12));
#1581=DIRECTION('',(-0.866025403784436,0.500000000000005,2.77555756156289E-17));
#1582=DIRECTION('',(-0.475036355518624,-0.8227871032006,-0.31202859443062));
#1583=AXIS2_PLACEMENT_3D('',#1584,#1585,#1586);
#1584=CARTESIAN_POINT('',(0.453721904464459,-4.72938543011665,0.12));
#1585=DIRECTION('',(0.995429594202607,0.0954982878675528,0.));
#1586=DIRECTION('',(0.0954982878675528,-0.995429594202607,0.));
#1587=CARTESIAN_POINT('',(0.499087063091329,-5.20225067672203,0.12));
#1588=VECTOR('',#1589,1.);
#1589=DIRECTION('',(-0.0954982878675527,0.995429594202607,0.));
#1590=CARTESIAN_POINT('',(5.2510998845731,6.43074266564547E-16,0.12));
#1591=CARTESIAN_POINT('',(5.2510998845731,3.21537133282273E-16,0.12));
#1592=VECTOR('',#1593,1.);
#1593=DIRECTION('',(0.,0.,1.));
#1594=CARTESIAN_POINT('',(4.27606606069903,3.04783678078428,0.12));
#1595=AXIS2_PLACEMENT_3D('',#1596,#1597,#1598);
#1596=CARTESIAN_POINT('',(0.,0.,0.12));
#1597=DIRECTION('',(0.,0.,1.));
#1598=DIRECTION('',(1.,0.,0.));
#1599=CARTESIAN_POINT('',(4.27606606069902,3.04783678078428,0.12));
#1600=VECTOR('',#1601,1.);
#1601=DIRECTION('',(0.,0.,1.));
#1602=CARTESIAN_POINT('',(5.22613624009172,6.11037784697628E-16,0.12));
#1603=CARTESIAN_POINT('',(4.75,3.04789809399369E-15,0.12));
#1604=VECTOR('',#1605,1.);
#1605=DIRECTION('',(1.,1.2833255132605E-15,0.));
#1606=CARTESIAN_POINT('',(5.22613624009172,6.70683397268501E-15,-0.0360142972153092));
#1607=CARTESIAN_POINT('',(5.22613624009172,9.43897131508279E-16,0.12));
#1608=VECTOR('',#1609,1.);
#1609=DIRECTION('',(0.,0.,-1.));
#1610=AXIS2_PLACEMENT_3D('',#1611,#1612,#1613);
#1611=CARTESIAN_POINT('',(4.7510998845731,1.41150993429753E-18,0.12));
#1612=DIRECTION('',(1.2833255132605E-15,-1.,0.));
#1613=DIRECTION('',(0.950072711037241,1.21925254952666E-15,-0.312028594430618));
#1614=CARTESIAN_POINT('',(4.25573771135039,3.03334741369829,-0.0360142972153132));
#1615=AXIS2_PLACEMENT_3D('',#1616,#1617,#1618);
#1616=CARTESIAN_POINT('',(3.86890697453677,2.75762741057802,0.12));
#1617=DIRECTION('',(-0.580418740412527,0.814318172324514,0.));
#1618=DIRECTION('',(0.814318172324514,0.580418740412527,0.));
#1619=CARTESIAN_POINT('',(4.25573771135039,3.0333474136983,0.12));
#1620=CARTESIAN_POINT('',(4.25573771135039,3.0333474136983,-0.0360142972153132));
#1621=VECTOR('',#1622,1.);
#1622=DIRECTION('',(0.,0.,1.));
#1623=CARTESIAN_POINT('',(4.25573771135039,3.03334741369829,0.12));
#1624=VECTOR('',#1625,1.);
#1625=DIRECTION('',(-0.814318172324514,-0.580418740412527,0.));
#1626=CARTESIAN_POINT('',(-1.97243109261516,4.32111277160004,0.12));
#1627=CARTESIAN_POINT('',(3.58785897532088,3.11283921415955,0.12));
#1628=AXIS2_PLACEMENT_3D('',#1629,#1630,#1631);
#1629=CARTESIAN_POINT('',(0.,0.,0.12));
#1630=DIRECTION('',(0.,0.,-1.));
#1631=DIRECTION('',(-0.415248651076875,0.909707951915798,0.));
#1632=CARTESIAN_POINT('',(3.58785897532088,3.11283921415955,0.12));
#1633=VECTOR('',#1634,1.);
#1634=DIRECTION('',(0.,0.,-1.));
#1635=CARTESIAN_POINT('',(-1.97243109261516,4.32111277160004,-0.38));
#1636=VECTOR('',#1637,1.);
#1637=DIRECTION('',(0.,0.,1.));
#1638=CARTESIAN_POINT('',(4.7284089791306,-0.452380952380952,0.12));
#1639=CARTESIAN_POINT('',(4.7284089791306,-0.452380952380951,-0.38));
#1640=VECTOR('',#1641,1.);
#1641=DIRECTION('',(0.,0.,1.));
#1642=AXIS2_PLACEMENT_3D('',#1643,#1644,#1645);
#1643=CARTESIAN_POINT('',(0.,0.,0.12));
#1644=DIRECTION('',(0.,0.,-1.));
#1645=DIRECTION('',(0.995454521922232,-0.0952380952380949,0.));
#1646=AXIS2_PLACEMENT_3D('',#1647,#1648,#1649);
#1647=CARTESIAN_POINT('',(-4.96233020133677,1.71399503292775,0.12));
#1648=DIRECTION('',(0.,0.,-1.));
#1649=DIRECTION('',(0.415010853790088,0.909816460192066,0.));
#1650=AXIS2_PLACEMENT_3D('',#1651,#1652,#1653);
#1651=CARTESIAN_POINT('',(-3.0460808219381,-4.2759667475579,0.12));
#1652=DIRECTION('',(0.,0.,-1.));
#1653=DIRECTION('',(0.580205870845352,0.814469856677696,0.));
#1654=AXIS2_PLACEMENT_3D('',#1655,#1656,#1657);
#1655=CARTESIAN_POINT('',(5.22613624009172,-0.499999999999999,0.12));
#1656=DIRECTION('',(0.,0.,-1.));
#1657=DIRECTION('',(-0.995454521922232,0.0952380952380948,0.));
#1658=AXIS2_PLACEMENT_3D('',#1659,#1660,#1661);
#1659=CARTESIAN_POINT('',(3.96552834114413,3.44050649986055,0.12));
#1660=DIRECTION('',(0.,0.,-1.));
#1661=DIRECTION('',(0.580418740412526,-0.814318172324514,0.));
#1662=AXIS2_PLACEMENT_3D('',#1663,#1664,#1665);
#1663=CARTESIAN_POINT('',(-2.1800554181536,4.77596674755794,0.12));
#1664=DIRECTION('',(0.,0.,-1.));
#1665=DIRECTION('',(0.415248651076877,-0.909707951915797,0.));
#1666=CARTESIAN_POINT('',(-2.61306812004581,4.52596674755794,-0.0360142972153117));
#1667=CARTESIAN_POINT('',(-2.61143033486493,4.52313318599197,-0.0459833316057693));
#1668=CARTESIAN_POINT('',(-2.60719427165106,4.51593984722173,-0.068928618921722));
#1669=CARTESIAN_POINT('',(-2.59818496862859,4.50154151047098,-0.10673737864959));
#1670=CARTESIAN_POINT('',(-2.58404979785376,4.48087361391002,-0.150876080602081));
#1671=CARTESIAN_POINT('',(-2.56400523687319,4.45497497128851,-0.195847477914618));
#1672=CARTESIAN_POINT('',(-2.53814872417483,4.42623988087985,-0.23725245904092));
#1673=CARTESIAN_POINT('',(-2.50779622067876,4.39754620685719,-0.27244636158206));
#1674=CARTESIAN_POINT('',(-2.47325523487699,4.37012524240369,-0.301543507342332));
#1675=CARTESIAN_POINT('',(-2.43497718171719,4.3450000165403,-0.324899158688589));
#1676=CARTESIAN_POINT('',(-2.3955519676489,4.32407702238419,-0.342119946544711));
#1677=CARTESIAN_POINT('',(-2.35824462035565,4.30830708396034,-0.353885978984412));
#1678=CARTESIAN_POINT('',(-2.32385648639507,4.29668677343428,-0.362000688913614));
#1679=CARTESIAN_POINT('',(-2.2870495677637,4.28698882878052,-0.368502937014387));
#1680=CARTESIAN_POINT('',(-2.24152431903942,4.2788557412261,-0.373989483938342));
#1681=CARTESIAN_POINT('',(-2.20450039889649,4.27613870317383,-0.3765030139465));
#1682=CARTESIAN_POINT('',(-2.16483509855111,4.2758261136318,-0.378355465024887));
#1683=CARTESIAN_POINT('',(-2.12672073424784,4.27786613462595,-0.379427872524575));
#1684=CARTESIAN_POINT('',(-2.0772672201998,4.28585023269543,-0.379906417274894));
#1685=CARTESIAN_POINT('',(-2.03563358262192,4.29677314805842,-0.379999046860935));
#1686=CARTESIAN_POINT('',(-2.01166124091861,4.30505076405875,-0.379996479853263));
#1687=CARTESIAN_POINT('',(-2.0015291657276,4.30892458951821,-0.380000000003857));
#1688=CARTESIAN_POINT('',(-4.48037366742157,1.5808864328514,-0.380000000000055));
#1689=CARTESIAN_POINT('',(-4.47569840098265,1.59780887371129,-0.379987224968009));
#1690=CARTESIAN_POINT('',(-4.4684299548347,1.63084124028726,-0.380002705610789));
#1691=CARTESIAN_POINT('',(-4.46324809309826,1.67544262412265,-0.379784928534221));
#1692=CARTESIAN_POINT('',(-4.46220453825539,1.70654879196658,-0.379332712472331));
#1693=CARTESIAN_POINT('',(-4.46255019174318,1.73732810268016,-0.378624157550547));
#1694=CARTESIAN_POINT('',(-4.46516226315234,1.77456315107861,-0.377299301890778));
#1695=CARTESIAN_POINT('',(-4.47414288288548,1.82672045153883,-0.373661179321296));
#1696=CARTESIAN_POINT('',(-4.48879961688463,1.87733173088975,-0.367183247329406));
#1697=CARTESIAN_POINT('',(-4.50627926327781,1.92031203456341,-0.358173057624571));
#1698=CARTESIAN_POINT('',(-4.52325297647391,1.95396611929174,-0.348234039976851));
#1699=CARTESIAN_POINT('',(-4.54121183487424,1.9843251313899,-0.336549925890602));
#1700=CARTESIAN_POINT('',(-4.56316001805414,2.016059188749,-0.320595892693894));
#1701=CARTESIAN_POINT('',(-4.59002399376043,2.04869549352025,-0.298249322519355));
#1702=CARTESIAN_POINT('',(-4.61997001296119,2.07918721569373,-0.269255709749663));
#1703=CARTESIAN_POINT('',(-4.65048913863685,2.10547278872449,-0.234624399491896));
#1704=CARTESIAN_POINT('',(-4.68049736771687,2.12750265782935,-0.194238479519403));
#1705=CARTESIAN_POINT('',(-4.70726273448676,2.14436168126896,-0.150606163888054));
#1706=CARTESIAN_POINT('',(-4.72879827664549,2.15626593648018,-0.107358076331444));
#1707=CARTESIAN_POINT('',(-4.74406429868302,2.16391073801039,-0.0695567659391049));
#1708=CARTESIAN_POINT('',(-4.75176538912325,2.16750573006115,-0.0462584152212491));
#1709=CARTESIAN_POINT('',(-4.75482477444172,2.16890326302379,-0.0360142972153155));
#1710=CARTESIAN_POINT('',(-2.61306812004588,-4.5259667475579,-0.0360142972153102));
#1711=CARTESIAN_POINT('',(-2.61143307632873,-4.52313160320488,-0.0459833316116269));
#1712=CARTESIAN_POINT('',(-2.60732149380336,-4.51586639547044,-0.0689286189412237));
#1713=CARTESIAN_POINT('',(-2.59935682011235,-4.50086494174683,-0.10673737853009));
#1714=CARTESIAN_POINT('',(-2.58852548102189,-4.47828957680042,-0.150876081200692));
#1715=CARTESIAN_POINT('',(-2.57611888355999,-4.44798115509331,-0.195847475337172));
#1716=CARTESIAN_POINT('',(-2.56416180540532,-4.41122121803466,-0.237252467965478));
#1717=CARTESIAN_POINT('',(-2.55448866342233,-4.37058832441267,-0.2724463301817));
#1718=CARTESIAN_POINT('',(-2.54801170254186,-4.32696453317792,-0.301543619075268));
#1719=CARTESIAN_POINT('',(-2.54616071222485,-4.29466104554861,-0.318047873236052));
#1720=CARTESIAN_POINT('',(-2.54601659806313,-4.26374350621207,-0.331659138802877));
#1721=CARTESIAN_POINT('',(-2.54718582219365,-4.23502965581688,-0.342593370155928));
#1722=CARTESIAN_POINT('',(-2.551981035482,-4.19645330037823,-0.353886001756905));
#1723=CARTESIAN_POINT('',(-2.55911167096672,-4.16086214075148,-0.362000686359682));
#1724=CARTESIAN_POINT('',(-2.5691164101681,-4.1241374201373,-0.368502923992368));
#1725=CARTESIAN_POINT('',(-2.58483580427803,-4.08064498867817,-0.373989567943023));
#1726=CARTESIAN_POINT('',(-2.60876510883521,-4.03114803283945,-0.377711459176142));
#1727=CARTESIAN_POINT('',(-2.63971329905719,-3.98277278981562,-0.379402516297391));
#1728=CARTESIAN_POINT('',(-2.67302163545309,-3.94189133983335,-0.379906447061771));
#1729=CARTESIAN_POINT('',(-2.70329789831603,-3.91129696284067,-0.379999042035352));
#1730=CARTESIAN_POINT('',(-2.72245270253632,-3.89467511851644,-0.379996478408373));
#1731=CARTESIAN_POINT('',(-2.7308735746504,-3.88783739869469,-0.380000000003857));
#1732=CARTESIAN_POINT('',(5.22613624005809,-6.98281699691401E-14,-0.0360142973125154));
#1733=CARTESIAN_POINT('',(5.22286341118735,-1.58278962917674E-6,-0.0459833316480015));
#1734=CARTESIAN_POINT('',(5.21451576549103,-7.34517597191007E-5,-0.068928618895564));
#1735=CARTESIAN_POINT('',(5.19754178856887,-0.000676568672171982,-0.106737378659343));
#1736=CARTESIAN_POINT('',(5.17257527972192,-0.00258403736978552,-0.15087608059888));
#1737=CARTESIAN_POINT('',(5.14012411679421,-0.00699381507470386,-0.195847477914769));
#1738=CARTESIAN_POINT('',(5.10231054217937,-0.0150186667248067,-0.237252459043352));
#1739=CARTESIAN_POINT('',(5.06228483977205,-0.0269578687941914,-0.272446361572775));
#1740=CARTESIAN_POINT('',(5.02126709515631,-0.0431607577980038,-0.301543507375586));
#1741=CARTESIAN_POINT('',(4.98036898435092,-0.0637479111146903,-0.324899158568998));
#1742=CARTESIAN_POINT('',(4.94253653406703,-0.0874296516427215,-0.3421199469518));
#1743=CARTESIAN_POINT('',(4.91022568955967,-0.11185379095265,-0.353885977841175));
#1744=CARTESIAN_POINT('',(4.88296814903713,-0.135824639158703,-0.362000692362499));
#1745=CARTESIAN_POINT('',(4.8561659803411,-0.162851369557213,-0.368502921811212));
#1746=CARTESIAN_POINT('',(4.82636012588509,-0.198210975578389,-0.373989568775582));
#1747=CARTESIAN_POINT('',(4.79545915735922,-0.243682840717414,-0.377711458912679));
#1748=CARTESIAN_POINT('',(4.76903906298994,-0.294672380694359,-0.37940251635918));
#1749=CARTESIAN_POINT('',(4.7502888569842,-0.343958971269003,-0.379906447049351));
#1750=CARTESIAN_POINT('',(4.73893148072229,-0.385476172515514,-0.379999042037364));
#1751=CARTESIAN_POINT('',(4.73411394339037,-0.410375641738951,-0.379996478408975));
#1752=CARTESIAN_POINT('',(4.73240274037801,-0.421087190823503,-0.380000000003857));
#1753=CARTESIAN_POINT('',(3.60927464505823,3.08967419800827,-0.380000000000055));
#1754=CARTESIAN_POINT('',(3.62159217327577,3.07716398170673,-0.379986343117613));
#1755=CARTESIAN_POINT('',(3.64656495717552,3.0543532642208,-0.380003061496961));
#1756=CARTESIAN_POINT('',(3.68561832556016,3.02532108944305,-0.379766674524598));
#1757=CARTESIAN_POINT('',(3.72578985413905,3.00091950379838,-0.379021373103671));
#1758=CARTESIAN_POINT('',(3.76939788594381,2.97966235465786,-0.377299250093438));
#1759=CARTESIAN_POINT('',(3.81905776503989,2.96136117186222,-0.373661202469359));
#1760=CARTESIAN_POINT('',(3.8702167686314,2.94874865752709,-0.367183215588813));
#1761=CARTESIAN_POINT('',(3.91617866102638,2.94239623838038,-0.358173133190782));
#1762=CARTESIAN_POINT('',(3.94664878179556,2.94067392502203,-0.350125430053875));
#1763=CARTESIAN_POINT('',(3.96891046943203,2.9404285596883,-0.343232273174676));
#1764=CARTESIAN_POINT('',(3.99265411171847,2.94093410787995,-0.335067796286232));
#1765=CARTESIAN_POINT('',(4.02753850092262,2.94378285317457,-0.320595951527581));
#1766=CARTESIAN_POINT('',(4.0692343333104,2.95072965045366,-0.298249305164119));
#1767=CARTESIAN_POINT('',(4.11061395604545,2.96141778403111,-0.269255714574017));
#1768=CARTESIAN_POINT('',(4.14863749089553,2.97470534086295,-0.234624398137793));
#1769=CARTESIAN_POINT('',(4.18272003228304,2.98967829354499,-0.194238479909957));
#1770=CARTESIAN_POINT('',(4.21070305809442,3.00442826979702,-0.150606163795432));
#1771=CARTESIAN_POINT('',(4.23178021663577,3.01712646869079,-0.107358076350685));
#1772=CARTESIAN_POINT('',(4.24603381997937,3.02652483084389,-0.069556765935845));
#1773=CARTESIAN_POINT('',(4.25299771964257,3.03139667477468,-0.0462584152202604));
#1774=CARTESIAN_POINT('',(4.25573771135039,3.03334741369829,-0.0360142972153134));
ENDSEC;
END-ISO-10303-21;
