ISO-10303-21;
HEADER;
FILE_DESCRIPTION(('STEP AP242'),
    '1');
FILE_NAME('encoder_washer',
    '',
    ('UNSPECIFIED'),
    ('UNSPECIFIED'),
    'C3D Converter',
    'C3D Toolkit',
    '');
FILE_SCHEMA(('AP242_MANAGED_MODEL_BASED_3D_ENGINEERING_MIM_LF { 1 0 10303 442 1 1 4 }'));
ENDSEC;

DATA;
#1=SHAPE_REPRESENTATION('NONE',(#2),#6);
#2=AXIS2_PLACEMENT_3D('',#3,#4,#5);
#3=CARTESIAN_POINT('',(0.,0.,0.));
#4=DIRECTION('',(0.,0.,1.));
#5=DIRECTION('',(1.,0.,0.));
#6=(GEOMETRIC_REPRESENTATION_CONTEXT(3)GLOBAL_UNCERTAINTY_ASSIGNED_CONTEXT((#8))
GLOBAL_UNIT_ASSIGNED_CONTEXT((#7,#9,#10))REPRESENTATION_CONTEXT('NONE','NONE'));
#7=(LENGTH_UNIT()NAMED_UNIT(*)SI_UNIT(.MILLI.,.METRE.));
#8=UNCERTAINTY_MEASURE_WITH_UNIT(LENGTH_MEASURE(1.E-5),#7,'NONE','NONE');
#9=(NAMED_UNIT(*)PLANE_ANGLE_UNIT()SI_UNIT($,.RADIAN.));
#10=(NAMED_UNIT(*)SI_UNIT($,.STERADIAN.)SOLID_ANGLE_UNIT());
#11=SHAPE_DEFINITION_REPRESENTATION(#12,#1);
#12=PRODUCT_DEFINITION_SHAPE('NONE','NONE',#13);
#13=PRODUCT_DEFINITION('','UNSPECIFIED',#14,#17);
#14=PRODUCT_DEFINITION_FORMATION_WITH_SPECIFIED_SOURCE('ANY','UNSPECIFIED',#15,.NOT_KNOWN.);
#15=PRODUCT('','Part','NONE',(#20));
#16=PRODUCT_RELATED_PRODUCT_CATEGORY('detail','',(#15));
#17=DESIGN_CONTEXT('detailed design',#18,'design');
#18=APPLICATION_CONTEXT('configuration controlled 3d designs of mechanical parts and assemblies');
#19=APPLICATION_PROTOCOL_DEFINITION('international standard','config_control_design',
1994,#18);
#20=MECHANICAL_CONTEXT('NONE',#18,'mechanical');
#21=CC_DESIGN_DATE_AND_TIME_ASSIGNMENT(#22,#26,(#13));
#22=DATE_AND_TIME(#23,#24);
#23=CALENDAR_DATE(0,1,1);
#24=LOCAL_TIME(0,0,0.,#25);
#25=COORDINATED_UNIVERSAL_TIME_OFFSET(0,0,.AHEAD.);
#26=DATE_TIME_ROLE('creation_date');
#27=CC_DESIGN_APPROVAL(#28,(#13));
#28=APPROVAL(#29,'UNSPECIFIED');
#29=APPROVAL_STATUS('not_yet_approved');
#30=APPROVAL_DATE_TIME(#31,#28);
#31=DATE_AND_TIME(#32,#33);
#32=CALENDAR_DATE(0,1,1);
#33=LOCAL_TIME(0,0,0.,#34);
#34=COORDINATED_UNIVERSAL_TIME_OFFSET(0,0,.AHEAD.);
#35=MANIFOLD_SOLID_BREP('',#36);
#36=CLOSED_SHELL('',(#48,#57,#66,#75,#84,#93,#102,#111,#120,#129,#138,#147,#156,
#165,#174,#183,#192,#201,#210,#219,#228,#237,#246,#255,#264));
#37=COLOUR_RGB('',1.,0.698039215686275,0.4);
#38=FILL_AREA_STYLE_COLOUR('',#37);
#39=FILL_AREA_STYLE($,(#38));
#40=SURFACE_STYLE_FILL_AREA(#39);
#41=SURFACE_SIDE_STYLE('',(#40));
#42=SURFACE_STYLE_USAGE(.BOTH.,#41);
#43=PRESENTATION_STYLE_ASSIGNMENT((#42));
#44=MECHANICAL_DESIGN_GEOMETRIC_PRESENTATION_REPRESENTATION('NONE',(#45,#56,#65,
#74,#83,#92,#101,#110,#119,#128,#137,#146,#155,#164,#173,#182,#191,#200,#209,#218,
#227,#236,#245,#254,#263,#272),#6);
#45=STYLED_ITEM('',(#43),#35);
#46=ADVANCED_BREP_SHAPE_REPRESENTATION('NONE',(#35),#6);
#47=SHAPE_REPRESENTATION_RELATIONSHIP('','',#1,#46);
#48=ADVANCED_FACE('',(#273),#275,.F.);
#49=COLOUR_RGB('',1.,0.698039215686275,0.4);
#50=FILL_AREA_STYLE_COLOUR('',#49);
#51=FILL_AREA_STYLE($,(#50));
#52=SURFACE_STYLE_FILL_AREA(#51);
#53=SURFACE_SIDE_STYLE('',(#52));
#54=SURFACE_STYLE_USAGE(.BOTH.,#53);
#55=PRESENTATION_STYLE_ASSIGNMENT((#54));
#56=STYLED_ITEM('',(#55),#48);
#57=ADVANCED_FACE('',(#280),#282,.F.);
#58=COLOUR_RGB('',1.,0.698039215686275,0.4);
#59=FILL_AREA_STYLE_COLOUR('',#58);
#60=FILL_AREA_STYLE($,(#59));
#61=SURFACE_STYLE_FILL_AREA(#60);
#62=SURFACE_SIDE_STYLE('',(#61));
#63=SURFACE_STYLE_USAGE(.BOTH.,#62);
#64=PRESENTATION_STYLE_ASSIGNMENT((#63));
#65=STYLED_ITEM('',(#64),#57);
#66=ADVANCED_FACE('',(#287),#289,.F.);
#67=COLOUR_RGB('',1.,0.698039215686275,0.4);
#68=FILL_AREA_STYLE_COLOUR('',#67);
#69=FILL_AREA_STYLE($,(#68));
#70=SURFACE_STYLE_FILL_AREA(#69);
#71=SURFACE_SIDE_STYLE('',(#70));
#72=SURFACE_STYLE_USAGE(.BOTH.,#71);
#73=PRESENTATION_STYLE_ASSIGNMENT((#72));
#74=STYLED_ITEM('',(#73),#66);
#75=ADVANCED_FACE('',(#294),#296,.F.);
#76=COLOUR_RGB('',1.,0.698039215686275,0.4);
#77=FILL_AREA_STYLE_COLOUR('',#76);
#78=FILL_AREA_STYLE($,(#77));
#79=SURFACE_STYLE_FILL_AREA(#78);
#80=SURFACE_SIDE_STYLE('',(#79));
#81=SURFACE_STYLE_USAGE(.BOTH.,#80);
#82=PRESENTATION_STYLE_ASSIGNMENT((#81));
#83=STYLED_ITEM('',(#82),#75);
#84=ADVANCED_FACE('',(#301),#303,.F.);
#85=COLOUR_RGB('',1.,0.698039215686275,0.4);
#86=FILL_AREA_STYLE_COLOUR('',#85);
#87=FILL_AREA_STYLE($,(#86));
#88=SURFACE_STYLE_FILL_AREA(#87);
#89=SURFACE_SIDE_STYLE('',(#88));
#90=SURFACE_STYLE_USAGE(.BOTH.,#89);
#91=PRESENTATION_STYLE_ASSIGNMENT((#90));
#92=STYLED_ITEM('',(#91),#84);
#93=ADVANCED_FACE('',(#308),#310,.F.);
#94=COLOUR_RGB('',1.,0.698039215686275,0.4);
#95=FILL_AREA_STYLE_COLOUR('',#94);
#96=FILL_AREA_STYLE($,(#95));
#97=SURFACE_STYLE_FILL_AREA(#96);
#98=SURFACE_SIDE_STYLE('',(#97));
#99=SURFACE_STYLE_USAGE(.BOTH.,#98);
#100=PRESENTATION_STYLE_ASSIGNMENT((#99));
#101=STYLED_ITEM('',(#100),#93);
#102=ADVANCED_FACE('',(#315),#317,.F.);
#103=COLOUR_RGB('',1.,0.698039215686275,0.4);
#104=FILL_AREA_STYLE_COLOUR('',#103);
#105=FILL_AREA_STYLE($,(#104));
#106=SURFACE_STYLE_FILL_AREA(#105);
#107=SURFACE_SIDE_STYLE('',(#106));
#108=SURFACE_STYLE_USAGE(.BOTH.,#107);
#109=PRESENTATION_STYLE_ASSIGNMENT((#108));
#110=STYLED_ITEM('',(#109),#102);
#111=ADVANCED_FACE('',(#322),#324,.F.);
#112=COLOUR_RGB('',1.,0.698039215686275,0.4);
#113=FILL_AREA_STYLE_COLOUR('',#112);
#114=FILL_AREA_STYLE($,(#113));
#115=SURFACE_STYLE_FILL_AREA(#114);
#116=SURFACE_SIDE_STYLE('',(#115));
#117=SURFACE_STYLE_USAGE(.BOTH.,#116);
#118=PRESENTATION_STYLE_ASSIGNMENT((#117));
#119=STYLED_ITEM('',(#118),#111);
#120=ADVANCED_FACE('',(#329,#331),#333,.T.);
#121=COLOUR_RGB('',1.,0.698039215686275,0.4);
#122=FILL_AREA_STYLE_COLOUR('',#121);
#123=FILL_AREA_STYLE($,(#122));
#124=SURFACE_STYLE_FILL_AREA(#123);
#125=SURFACE_SIDE_STYLE('',(#124));
#126=SURFACE_STYLE_USAGE(.BOTH.,#125);
#127=PRESENTATION_STYLE_ASSIGNMENT((#126));
#128=STYLED_ITEM('',(#127),#120);
#129=ADVANCED_FACE('',(#338,#340),#342,.F.);
#130=COLOUR_RGB('',1.,0.698039215686275,0.4);
#131=FILL_AREA_STYLE_COLOUR('',#130);
#132=FILL_AREA_STYLE($,(#131));
#133=SURFACE_STYLE_FILL_AREA(#132);
#134=SURFACE_SIDE_STYLE('',(#133));
#135=SURFACE_STYLE_USAGE(.BOTH.,#134);
#136=PRESENTATION_STYLE_ASSIGNMENT((#135));
#137=STYLED_ITEM('',(#136),#129);
#138=ADVANCED_FACE('',(#347,#349),#351,.F.);
#139=COLOUR_RGB('',1.,0.698039215686275,0.4);
#140=FILL_AREA_STYLE_COLOUR('',#139);
#141=FILL_AREA_STYLE($,(#140));
#142=SURFACE_STYLE_FILL_AREA(#141);
#143=SURFACE_SIDE_STYLE('',(#142));
#144=SURFACE_STYLE_USAGE(.BOTH.,#143);
#145=PRESENTATION_STYLE_ASSIGNMENT((#144));
#146=STYLED_ITEM('',(#145),#138);
#147=ADVANCED_FACE('',(#356,#358,#360),#362,.T.);
#148=COLOUR_RGB('',1.,0.698039215686275,0.4);
#149=FILL_AREA_STYLE_COLOUR('',#148);
#150=FILL_AREA_STYLE($,(#149));
#151=SURFACE_STYLE_FILL_AREA(#150);
#152=SURFACE_SIDE_STYLE('',(#151));
#153=SURFACE_STYLE_USAGE(.BOTH.,#152);
#154=PRESENTATION_STYLE_ASSIGNMENT((#153));
#155=STYLED_ITEM('',(#154),#147);
#156=ADVANCED_FACE('',(#367,#369),#371,.T.);
#157=COLOUR_RGB('',1.,0.698039215686275,0.4);
#158=FILL_AREA_STYLE_COLOUR('',#157);
#159=FILL_AREA_STYLE($,(#158));
#160=SURFACE_STYLE_FILL_AREA(#159);
#161=SURFACE_SIDE_STYLE('',(#160));
#162=SURFACE_STYLE_USAGE(.BOTH.,#161);
#163=PRESENTATION_STYLE_ASSIGNMENT((#162));
#164=STYLED_ITEM('',(#163),#156);
#165=ADVANCED_FACE('',(#376,#378),#380,.F.);
#166=COLOUR_RGB('',1.,0.698039215686275,0.4);
#167=FILL_AREA_STYLE_COLOUR('',#166);
#168=FILL_AREA_STYLE($,(#167));
#169=SURFACE_STYLE_FILL_AREA(#168);
#170=SURFACE_SIDE_STYLE('',(#169));
#171=SURFACE_STYLE_USAGE(.BOTH.,#170);
#172=PRESENTATION_STYLE_ASSIGNMENT((#171));
#173=STYLED_ITEM('',(#172),#165);
#174=ADVANCED_FACE('',(#385,#387),#389,.T.);
#175=COLOUR_RGB('',1.,0.698039215686275,0.4);
#176=FILL_AREA_STYLE_COLOUR('',#175);
#177=FILL_AREA_STYLE($,(#176));
#178=SURFACE_STYLE_FILL_AREA(#177);
#179=SURFACE_SIDE_STYLE('',(#178));
#180=SURFACE_STYLE_USAGE(.BOTH.,#179);
#181=PRESENTATION_STYLE_ASSIGNMENT((#180));
#182=STYLED_ITEM('',(#181),#174);
#183=ADVANCED_FACE('',(#394,#396),#398,.F.);
#184=COLOUR_RGB('',1.,0.698039215686275,0.4);
#185=FILL_AREA_STYLE_COLOUR('',#184);
#186=FILL_AREA_STYLE($,(#185));
#187=SURFACE_STYLE_FILL_AREA(#186);
#188=SURFACE_SIDE_STYLE('',(#187));
#189=SURFACE_STYLE_USAGE(.BOTH.,#188);
#190=PRESENTATION_STYLE_ASSIGNMENT((#189));
#191=STYLED_ITEM('',(#190),#183);
#192=ADVANCED_FACE('',(#403,#405),#407,.F.);
#193=COLOUR_RGB('',1.,0.698039215686275,0.4);
#194=FILL_AREA_STYLE_COLOUR('',#193);
#195=FILL_AREA_STYLE($,(#194));
#196=SURFACE_STYLE_FILL_AREA(#195);
#197=SURFACE_SIDE_STYLE('',(#196));
#198=SURFACE_STYLE_USAGE(.BOTH.,#197);
#199=PRESENTATION_STYLE_ASSIGNMENT((#198));
#200=STYLED_ITEM('',(#199),#192);
#201=ADVANCED_FACE('',(#412),#414,.F.);
#202=COLOUR_RGB('',1.,0.698039215686275,0.4);
#203=FILL_AREA_STYLE_COLOUR('',#202);
#204=FILL_AREA_STYLE($,(#203));
#205=SURFACE_STYLE_FILL_AREA(#204);
#206=SURFACE_SIDE_STYLE('',(#205));
#207=SURFACE_STYLE_USAGE(.BOTH.,#206);
#208=PRESENTATION_STYLE_ASSIGNMENT((#207));
#209=STYLED_ITEM('',(#208),#201);
#210=ADVANCED_FACE('',(#419),#421,.T.);
#211=COLOUR_RGB('',1.,0.698039215686275,0.4);
#212=FILL_AREA_STYLE_COLOUR('',#211);
#213=FILL_AREA_STYLE($,(#212));
#214=SURFACE_STYLE_FILL_AREA(#213);
#215=SURFACE_SIDE_STYLE('',(#214));
#216=SURFACE_STYLE_USAGE(.BOTH.,#215);
#217=PRESENTATION_STYLE_ASSIGNMENT((#216));
#218=STYLED_ITEM('',(#217),#210);
#219=ADVANCED_FACE('',(#426),#428,.F.);
#220=COLOUR_RGB('',1.,0.698039215686275,0.4);
#221=FILL_AREA_STYLE_COLOUR('',#220);
#222=FILL_AREA_STYLE($,(#221));
#223=SURFACE_STYLE_FILL_AREA(#222);
#224=SURFACE_SIDE_STYLE('',(#223));
#225=SURFACE_STYLE_USAGE(.BOTH.,#224);
#226=PRESENTATION_STYLE_ASSIGNMENT((#225));
#227=STYLED_ITEM('',(#226),#219);
#228=ADVANCED_FACE('',(#433),#435,.T.);
#229=COLOUR_RGB('',1.,0.698039215686275,0.4);
#230=FILL_AREA_STYLE_COLOUR('',#229);
#231=FILL_AREA_STYLE($,(#230));
#232=SURFACE_STYLE_FILL_AREA(#231);
#233=SURFACE_SIDE_STYLE('',(#232));
#234=SURFACE_STYLE_USAGE(.BOTH.,#233);
#235=PRESENTATION_STYLE_ASSIGNMENT((#234));
#236=STYLED_ITEM('',(#235),#228);
#237=ADVANCED_FACE('',(#440),#442,.F.);
#238=COLOUR_RGB('',1.,0.698039215686275,0.4);
#239=FILL_AREA_STYLE_COLOUR('',#238);
#240=FILL_AREA_STYLE($,(#239));
#241=SURFACE_STYLE_FILL_AREA(#240);
#242=SURFACE_SIDE_STYLE('',(#241));
#243=SURFACE_STYLE_USAGE(.BOTH.,#242);
#244=PRESENTATION_STYLE_ASSIGNMENT((#243));
#245=STYLED_ITEM('',(#244),#237);
#246=ADVANCED_FACE('',(#447),#449,.T.);
#247=COLOUR_RGB('',1.,0.698039215686275,0.4);
#248=FILL_AREA_STYLE_COLOUR('',#247);
#249=FILL_AREA_STYLE($,(#248));
#250=SURFACE_STYLE_FILL_AREA(#249);
#251=SURFACE_SIDE_STYLE('',(#250));
#252=SURFACE_STYLE_USAGE(.BOTH.,#251);
#253=PRESENTATION_STYLE_ASSIGNMENT((#252));
#254=STYLED_ITEM('',(#253),#246);
#255=ADVANCED_FACE('',(#454),#456,.F.);
#256=COLOUR_RGB('',1.,0.698039215686275,0.4);
#257=FILL_AREA_STYLE_COLOUR('',#256);
#258=FILL_AREA_STYLE($,(#257));
#259=SURFACE_STYLE_FILL_AREA(#258);
#260=SURFACE_SIDE_STYLE('',(#259));
#261=SURFACE_STYLE_USAGE(.BOTH.,#260);
#262=PRESENTATION_STYLE_ASSIGNMENT((#261));
#263=STYLED_ITEM('',(#262),#255);
#264=ADVANCED_FACE('',(#461),#463,.T.);
#265=COLOUR_RGB('',1.,0.698039215686275,0.4);
#266=FILL_AREA_STYLE_COLOUR('',#265);
#267=FILL_AREA_STYLE($,(#266));
#268=SURFACE_STYLE_FILL_AREA(#267);
#269=SURFACE_SIDE_STYLE('',(#268));
#270=SURFACE_STYLE_USAGE(.BOTH.,#269);
#271=PRESENTATION_STYLE_ASSIGNMENT((#270));
#272=STYLED_ITEM('',(#271),#264);
#273=FACE_BOUND('',#274,.T.);
#274=EDGE_LOOP('',(#468,#469,#470,#471));
#275=CYLINDRICAL_SURFACE('',#276,0.300000001490116);
#276=AXIS2_PLACEMENT_3D('',#277,#278,#279);
#277=CARTESIAN_POINT('',(-0.800000542021281,-6.19999993006178,0.));
#278=DIRECTION('',(0.,0.,1.));
#279=DIRECTION('',(-0.999999999999996,8.74227768538259E-8,0.));
#280=FACE_BOUND('',#281,.T.);
#281=EDGE_LOOP('',(#472,#473,#474,#475));
#282=PLANE('',#283);
#283=AXIS2_PLACEMENT_3D('',#284,#285,#286);
#284=CARTESIAN_POINT('',(-1.10000050854228,-5.79999990383494,0.));
#285=DIRECTION('',(-0.999999999999996,8.74227623626211E-8,0.));
#286=DIRECTION('',(-8.74227623626211E-8,-0.999999999999996,0.));
#287=FACE_BOUND('',#288,.T.);
#288=EDGE_LOOP('',(#476,#477,#478,#479));
#289=CYLINDRICAL_SURFACE('',#290,0.300000001490116);
#290=AXIS2_PLACEMENT_3D('',#291,#292,#293);
#291=CARTESIAN_POINT('',(-0.800000507052147,-5.79999993006178,0.));
#292=DIRECTION('',(0.,0.,1.));
#293=DIRECTION('',(8.74227768538257E-8,0.999999999999996,0.));
#294=FACE_BOUND('',#295,.T.);
#295=EDGE_LOOP('',(#480,#481,#482,#483));
#296=PLANE('',#297);
#297=AXIS2_PLACEMENT_3D('',#298,#299,#300);
#298=CARTESIAN_POINT('',(0.799999519174677,-5.5000000684481,0.));
#299=DIRECTION('',(8.74227779057435E-8,0.999999999999996,0.));
#300=DIRECTION('',(-0.999999999999996,8.74227779057435E-8,0.));
#301=FACE_BOUND('',#302,.T.);
#302=EDGE_LOOP('',(#484,#485,#486,#487));
#303=CYLINDRICAL_SURFACE('',#304,0.300000001490116);
#304=AXIS2_PLACEMENT_3D('',#305,#306,#307);
#305=CARTESIAN_POINT('',(0.799999492947847,-5.80000006993822,0.));
#306=DIRECTION('',(0.,0.,1.));
#307=DIRECTION('',(0.999999999999996,-8.74227768538259E-8,0.));
#308=FACE_BOUND('',#309,.T.);
#309=EDGE_LOOP('',(#488,#489,#490,#491));
#310=PLANE('',#311);
#311=AXIS2_PLACEMENT_3D('',#312,#313,#314);
#312=CARTESIAN_POINT('',(1.09999945946885,-6.20000009616505,0.));
#313=DIRECTION('',(0.999999999999996,-8.74227623626211E-8,0.));
#314=DIRECTION('',(8.74227623626211E-8,0.999999999999996,0.));
#315=FACE_BOUND('',#316,.T.);
#316=EDGE_LOOP('',(#492,#493,#494,#495));
#317=CYLINDRICAL_SURFACE('',#318,0.300000001490116);
#318=AXIS2_PLACEMENT_3D('',#319,#320,#321);
#319=CARTESIAN_POINT('',(0.799999457978713,-6.20000006993822,0.));
#320=DIRECTION('',(0.,0.,1.));
#321=DIRECTION('',(-8.74227764837514E-8,-0.999999999999996,0.));
#322=FACE_BOUND('',#323,.T.);
#323=EDGE_LOOP('',(#496,#497,#498,#499));
#324=PLANE('',#325);
#325=AXIS2_PLACEMENT_3D('',#326,#327,#328);
#326=CARTESIAN_POINT('',(-0.800000568248111,-6.49999993155189,0.));
#327=DIRECTION('',(-8.74227779057435E-8,-0.999999999999996,0.));
#328=DIRECTION('',(0.999999999999996,-8.74227779057435E-8,0.));
#329=FACE_OUTER_BOUND('',#330,.T.);
#330=EDGE_LOOP('',(#500));
#331=FACE_OUTER_BOUND('',#332,.T.);
#332=EDGE_LOOP('',(#501));
#333=CYLINDRICAL_SURFACE('',#334,8.1);
#334=AXIS2_PLACEMENT_3D('',#335,#336,#337);
#335=CARTESIAN_POINT('',(0.,0.,0.));
#336=DIRECTION('',(0.,0.,1.));
#337=DIRECTION('',(-1.,1.22464679914735E-16,0.));
#338=FACE_BOUND('',#339,.T.);
#339=EDGE_LOOP('',(#502));
#340=FACE_BOUND('',#341,.T.);
#341=EDGE_LOOP('',(#503));
#342=PLANE('',#343);
#343=AXIS2_PLACEMENT_3D('',#344,#345,#346);
#344=CARTESIAN_POINT('',(0.,0.,0.));
#345=DIRECTION('',(0.,0.,1.));
#346=DIRECTION('',(-1.,1.22464679914735E-16,0.));
#347=FACE_OUTER_BOUND('',#348,.T.);
#348=EDGE_LOOP('',(#504));
#349=FACE_OUTER_BOUND('',#350,.T.);
#350=EDGE_LOOP('',(#505));
#351=CYLINDRICAL_SURFACE('',#352,5.1);
#352=AXIS2_PLACEMENT_3D('',#353,#354,#355);
#353=CARTESIAN_POINT('',(0.,0.,0.));
#354=DIRECTION('',(0.,0.,-1.));
#355=DIRECTION('',(1.,1.22464679914735E-16,0.));
#356=FACE_BOUND('',#357,.T.);
#357=EDGE_LOOP('',(#506));
#358=FACE_BOUND('',#359,.T.);
#359=EDGE_LOOP('',(#507));
#360=FACE_BOUND('',#361,.T.);
#361=EDGE_LOOP('',(#508,#509,#510,#511,#512,#513,#514,#515));
#362=PLANE('',#363);
#363=AXIS2_PLACEMENT_3D('',#364,#365,#366);
#364=CARTESIAN_POINT('',(0.,0.,1.5));
#365=DIRECTION('',(0.,0.,1.));
#366=DIRECTION('',(-1.,1.22464679914735E-16,0.));
#367=FACE_BOUND('',#368,.T.);
#368=EDGE_LOOP('',(#516));
#369=FACE_BOUND('',#370,.T.);
#370=EDGE_LOOP('',(#517,#518,#519,#520,#521,#522,#523,#524,#525));
#371=PLANE('',#372);
#372=AXIS2_PLACEMENT_3D('',#373,#374,#375);
#373=CARTESIAN_POINT('',(0.,0.,-0.8));
#374=DIRECTION('',(0.,0.,-1.));
#375=DIRECTION('',(1.,1.22464679914735E-16,0.));
#376=FACE_OUTER_BOUND('',#377,.T.);
#377=EDGE_LOOP('',(#526));
#378=FACE_OUTER_BOUND('',#379,.T.);
#379=EDGE_LOOP('',(#527));
#380=CYLINDRICAL_SURFACE('',#381,3.75);
#381=AXIS2_PLACEMENT_3D('',#382,#383,#384);
#382=CARTESIAN_POINT('',(0.,0.,0.));
#383=DIRECTION('',(0.,0.,1.));
#384=DIRECTION('',(-1.,1.22464679914735E-16,0.));
#385=FACE_OUTER_BOUND('',#386,.T.);
#386=EDGE_LOOP('',(#528));
#387=FACE_OUTER_BOUND('',#388,.T.);
#388=EDGE_LOOP('',(#529));
#389=CONICAL_SURFACE('',#390,7.95,0.785398163397448);
#390=AXIS2_PLACEMENT_3D('',#391,#392,#393);
#391=CARTESIAN_POINT('',(0.,0.,-0.65));
#392=DIRECTION('',(0.,0.,1.));
#393=DIRECTION('',(1.,-6.70089758024024E-17,0.));
#394=FACE_BOUND('',#395,.T.);
#395=EDGE_LOOP('',(#530,#531,#532,#533,#534));
#396=FACE_OUTER_BOUND('',#397,.T.);
#397=EDGE_LOOP('',(#535));
#398=CONICAL_SURFACE('',#399,5.25,0.785398163397448);
#399=AXIS2_PLACEMENT_3D('',#400,#401,#402);
#400=CARTESIAN_POINT('',(0.,0.,-0.65));
#401=DIRECTION('',(0.,0.,-1.));
#402=DIRECTION('',(1.,1.22464679914735E-16,0.));
#403=FACE_OUTER_BOUND('',#404,.T.);
#404=EDGE_LOOP('',(#536));
#405=FACE_OUTER_BOUND('',#406,.T.);
#406=EDGE_LOOP('',(#537));
#407=CONICAL_SURFACE('',#408,3.9,0.785398163397448);
#408=AXIS2_PLACEMENT_3D('',#409,#410,#411);
#409=CARTESIAN_POINT('',(0.,0.,0.15));
#410=DIRECTION('',(0.,0.,-1.));
#411=DIRECTION('',(1.,-1.22464679914735E-16,0.));
#412=FACE_BOUND('',#413,.T.);
#413=EDGE_LOOP('',(#538,#539,#540,#541,#542));
#414=CONICAL_SURFACE('',#415,0.450000001490117,0.78539816339745);
#415=AXIS2_PLACEMENT_3D('',#416,#417,#418);
#416=CARTESIAN_POINT('',(0.799999492947847,-5.80000006993822,-0.65));
#417=DIRECTION('',(0.,0.,-1.));
#418=DIRECTION('',(-0.707106719369307,0.707106843003783,0.));
#419=FACE_BOUND('',#420,.T.);
#420=EDGE_LOOP('',(#543,#544,#545,#546));
#421=PLANE('',#422);
#422=AXIS2_PLACEMENT_3D('',#423,#424,#425);
#423=CARTESIAN_POINT('',(-2.00000045459848,-5.19999982366432,-0.8));
#424=DIRECTION('',(-6.18172392443258E-8,-0.707106781186544,-0.707106781186549));
#425=DIRECTION('',(0.999999999999996,-8.74227781277881E-8,9.35848032643663E-24));
#426=FACE_BOUND('',#427,.T.);
#427=EDGE_LOOP('',(#547,#548,#549,#550,#551));
#428=CONICAL_SURFACE('',#429,0.450000001490116,0.785398163397447);
#429=AXIS2_PLACEMENT_3D('',#430,#431,#432);
#430=CARTESIAN_POINT('',(-0.800000507052147,-5.79999993006178,-0.65));
#431=DIRECTION('',(0.,0.,-1.));
#432=DIRECTION('',(-0.707106843003782,-0.707106719369308,0.));
#433=FACE_BOUND('',#434,.T.);
#434=EDGE_LOOP('',(#552,#553,#554,#555));
#435=PLANE('',#436);
#436=AXIS2_PLACEMENT_3D('',#437,#438,#439);
#437=CARTESIAN_POINT('',(-1.4000006484187,-7.39999987760811,-0.8));
#438=DIRECTION('',(0.707106781186545,-6.18172280405947E-8,-0.707106781186548));
#439=DIRECTION('',(8.74227622833195E-8,0.999999999999996,0.));
#440=FACE_BOUND('',#441,.T.);
#441=EDGE_LOOP('',(#556,#557,#558,#559));
#442=CONICAL_SURFACE('',#443,0.450000001490116,0.78539816339745);
#443=AXIS2_PLACEMENT_3D('',#444,#445,#446);
#444=CARTESIAN_POINT('',(-0.800000542021281,-6.19999993006178,-0.65));
#445=DIRECTION('',(0.,0.,-1.));
#446=DIRECTION('',(0.707106719369307,-0.707106843003783,0.));
#447=FACE_BOUND('',#448,.T.);
#448=EDGE_LOOP('',(#560,#561,#562,#563));
#449=PLANE('',#450);
#450=AXIS2_PLACEMENT_3D('',#451,#452,#453);
#451=CARTESIAN_POINT('',(1.99999940552505,-6.80000017633567,-0.8));
#452=DIRECTION('',(6.18172390873167E-8,0.707106781186545,-0.707106781186548));
#453=DIRECTION('',(-0.999999999999996,8.74227779057435E-8,0.));
#454=FACE_BOUND('',#455,.T.);
#455=EDGE_LOOP('',(#564,#565,#566,#567));
#456=CONICAL_SURFACE('',#457,0.450000001490116,0.785398163397448);
#457=AXIS2_PLACEMENT_3D('',#458,#459,#460);
#458=CARTESIAN_POINT('',(0.799999457978713,-6.20000006993822,-0.65));
#459=DIRECTION('',(0.,0.,-1.));
#460=DIRECTION('',(0.707106843003782,0.707106719369307,0.));
#461=FACE_BOUND('',#462,.T.);
#462=EDGE_LOOP('',(#568,#569,#570,#571));
#463=PLANE('',#464);
#464=AXIS2_PLACEMENT_3D('',#465,#466,#467);
#465=CARTESIAN_POINT('',(1.39999959934526,-4.60000012239188,-0.8));
#466=DIRECTION('',(-0.707106781186544,6.18172280405947E-8,-0.707106781186548));
#467=DIRECTION('',(-8.74227622833195E-8,-0.999999999999996,0.));
#468=ORIENTED_EDGE('',*,*,#572,.F.);
#469=ORIENTED_EDGE('',*,*,#573,.T.);
#470=ORIENTED_EDGE('',*,*,#574,.F.);
#471=ORIENTED_EDGE('',*,*,#575,.F.);
#472=ORIENTED_EDGE('',*,*,#576,.F.);
#473=ORIENTED_EDGE('',*,*,#577,.T.);
#474=ORIENTED_EDGE('',*,*,#578,.F.);
#475=ORIENTED_EDGE('',*,*,#573,.F.);
#476=ORIENTED_EDGE('',*,*,#579,.F.);
#477=ORIENTED_EDGE('',*,*,#580,.T.);
#478=ORIENTED_EDGE('',*,*,#581,.F.);
#479=ORIENTED_EDGE('',*,*,#577,.F.);
#480=ORIENTED_EDGE('',*,*,#582,.F.);
#481=ORIENTED_EDGE('',*,*,#583,.T.);
#482=ORIENTED_EDGE('',*,*,#584,.F.);
#483=ORIENTED_EDGE('',*,*,#580,.F.);
#484=ORIENTED_EDGE('',*,*,#585,.F.);
#485=ORIENTED_EDGE('',*,*,#586,.T.);
#486=ORIENTED_EDGE('',*,*,#587,.F.);
#487=ORIENTED_EDGE('',*,*,#583,.F.);
#488=ORIENTED_EDGE('',*,*,#588,.F.);
#489=ORIENTED_EDGE('',*,*,#589,.T.);
#490=ORIENTED_EDGE('',*,*,#590,.F.);
#491=ORIENTED_EDGE('',*,*,#586,.F.);
#492=ORIENTED_EDGE('',*,*,#591,.F.);
#493=ORIENTED_EDGE('',*,*,#592,.T.);
#494=ORIENTED_EDGE('',*,*,#593,.F.);
#495=ORIENTED_EDGE('',*,*,#589,.F.);
#496=ORIENTED_EDGE('',*,*,#594,.F.);
#497=ORIENTED_EDGE('',*,*,#575,.T.);
#498=ORIENTED_EDGE('',*,*,#595,.F.);
#499=ORIENTED_EDGE('',*,*,#592,.F.);
#500=ORIENTED_EDGE('',*,*,#596,.F.);
#501=ORIENTED_EDGE('',*,*,#597,.F.);
#502=ORIENTED_EDGE('',*,*,#598,.F.);
#503=ORIENTED_EDGE('',*,*,#599,.T.);
#504=ORIENTED_EDGE('',*,*,#598,.T.);
#505=ORIENTED_EDGE('',*,*,#600,.F.);
#506=ORIENTED_EDGE('',*,*,#596,.T.);
#507=ORIENTED_EDGE('',*,*,#601,.T.);
#508=ORIENTED_EDGE('',*,*,#595,.T.);
#509=ORIENTED_EDGE('',*,*,#574,.T.);
#510=ORIENTED_EDGE('',*,*,#578,.T.);
#511=ORIENTED_EDGE('',*,*,#581,.T.);
#512=ORIENTED_EDGE('',*,*,#584,.T.);
#513=ORIENTED_EDGE('',*,*,#587,.T.);
#514=ORIENTED_EDGE('',*,*,#590,.T.);
#515=ORIENTED_EDGE('',*,*,#593,.T.);
#516=ORIENTED_EDGE('',*,*,#602,.T.);
#517=ORIENTED_EDGE('',*,*,#603,.T.);
#518=ORIENTED_EDGE('',*,*,#604,.T.);
#519=ORIENTED_EDGE('',*,*,#605,.T.);
#520=ORIENTED_EDGE('',*,*,#606,.T.);
#521=ORIENTED_EDGE('',*,*,#607,.T.);
#522=ORIENTED_EDGE('',*,*,#608,.T.);
#523=ORIENTED_EDGE('',*,*,#609,.T.);
#524=ORIENTED_EDGE('',*,*,#610,.T.);
#525=ORIENTED_EDGE('',*,*,#611,.T.);
#526=ORIENTED_EDGE('',*,*,#601,.F.);
#527=ORIENTED_EDGE('',*,*,#612,.F.);
#528=ORIENTED_EDGE('',*,*,#602,.F.);
#529=ORIENTED_EDGE('',*,*,#597,.T.);
#530=ORIENTED_EDGE('',*,*,#604,.F.);
#531=ORIENTED_EDGE('',*,*,#613,.T.);
#532=ORIENTED_EDGE('',*,*,#614,.T.);
#533=ORIENTED_EDGE('',*,*,#615,.F.);
#534=ORIENTED_EDGE('',*,*,#605,.F.);
#535=ORIENTED_EDGE('',*,*,#600,.T.);
#536=ORIENTED_EDGE('',*,*,#612,.T.);
#537=ORIENTED_EDGE('',*,*,#599,.F.);
#538=ORIENTED_EDGE('',*,*,#603,.F.);
#539=ORIENTED_EDGE('',*,*,#616,.F.);
#540=ORIENTED_EDGE('',*,*,#585,.T.);
#541=ORIENTED_EDGE('',*,*,#617,.T.);
#542=ORIENTED_EDGE('',*,*,#613,.F.);
#543=ORIENTED_EDGE('',*,*,#582,.T.);
#544=ORIENTED_EDGE('',*,*,#618,.T.);
#545=ORIENTED_EDGE('',*,*,#614,.F.);
#546=ORIENTED_EDGE('',*,*,#617,.F.);
#547=ORIENTED_EDGE('',*,*,#606,.F.);
#548=ORIENTED_EDGE('',*,*,#615,.T.);
#549=ORIENTED_EDGE('',*,*,#618,.F.);
#550=ORIENTED_EDGE('',*,*,#579,.T.);
#551=ORIENTED_EDGE('',*,*,#619,.T.);
#552=ORIENTED_EDGE('',*,*,#607,.F.);
#553=ORIENTED_EDGE('',*,*,#619,.F.);
#554=ORIENTED_EDGE('',*,*,#576,.T.);
#555=ORIENTED_EDGE('',*,*,#620,.T.);
#556=ORIENTED_EDGE('',*,*,#608,.F.);
#557=ORIENTED_EDGE('',*,*,#620,.F.);
#558=ORIENTED_EDGE('',*,*,#572,.T.);
#559=ORIENTED_EDGE('',*,*,#621,.T.);
#560=ORIENTED_EDGE('',*,*,#609,.F.);
#561=ORIENTED_EDGE('',*,*,#621,.F.);
#562=ORIENTED_EDGE('',*,*,#594,.T.);
#563=ORIENTED_EDGE('',*,*,#622,.T.);
#564=ORIENTED_EDGE('',*,*,#610,.F.);
#565=ORIENTED_EDGE('',*,*,#622,.F.);
#566=ORIENTED_EDGE('',*,*,#591,.T.);
#567=ORIENTED_EDGE('',*,*,#623,.T.);
#568=ORIENTED_EDGE('',*,*,#611,.F.);
#569=ORIENTED_EDGE('',*,*,#623,.F.);
#570=ORIENTED_EDGE('',*,*,#588,.T.);
#571=ORIENTED_EDGE('',*,*,#616,.T.);
#572=EDGE_CURVE('',#624,#625,#626,.F.);
#573=EDGE_CURVE('',#624,#627,#628,.T.);
#574=EDGE_CURVE('',#629,#627,#630,.F.);
#575=EDGE_CURVE('',#625,#629,#631,.T.);
#576=EDGE_CURVE('',#632,#624,#633,.F.);
#577=EDGE_CURVE('',#632,#634,#635,.T.);
#578=EDGE_CURVE('',#627,#634,#636,.F.);
#579=EDGE_CURVE('',#637,#632,#638,.F.);
#580=EDGE_CURVE('',#637,#639,#640,.T.);
#581=EDGE_CURVE('',#634,#639,#641,.F.);
#582=EDGE_CURVE('',#642,#637,#643,.F.);
#583=EDGE_CURVE('',#642,#644,#645,.T.);
#584=EDGE_CURVE('',#639,#644,#646,.F.);
#585=EDGE_CURVE('',#647,#642,#648,.F.);
#586=EDGE_CURVE('',#647,#649,#650,.T.);
#587=EDGE_CURVE('',#644,#649,#651,.F.);
#588=EDGE_CURVE('',#652,#647,#653,.F.);
#589=EDGE_CURVE('',#652,#654,#655,.T.);
#590=EDGE_CURVE('',#649,#654,#656,.F.);
#591=EDGE_CURVE('',#657,#652,#658,.F.);
#592=EDGE_CURVE('',#657,#659,#660,.T.);
#593=EDGE_CURVE('',#654,#659,#661,.F.);
#594=EDGE_CURVE('',#625,#657,#662,.F.);
#595=EDGE_CURVE('',#659,#629,#663,.F.);
#596=EDGE_CURVE('',#664,#664,#665,.T.);
#597=EDGE_CURVE('',#666,#666,#667,.T.);
#598=EDGE_CURVE('',#668,#668,#669,.F.);
#599=EDGE_CURVE('',#670,#670,#671,.T.);
#600=EDGE_CURVE('',#672,#672,#673,.F.);
#601=EDGE_CURVE('',#674,#674,#675,.F.);
#602=EDGE_CURVE('',#676,#676,#677,.T.);
#603=EDGE_CURVE('',#678,#679,#680,.F.);
#604=EDGE_CURVE('',#679,#681,#682,.F.);
#605=EDGE_CURVE('',#681,#683,#684,.F.);
#606=EDGE_CURVE('',#683,#685,#686,.F.);
#607=EDGE_CURVE('',#685,#687,#688,.F.);
#608=EDGE_CURVE('',#687,#689,#690,.F.);
#609=EDGE_CURVE('',#689,#691,#692,.F.);
#610=EDGE_CURVE('',#691,#693,#694,.F.);
#611=EDGE_CURVE('',#693,#678,#695,.F.);
#612=EDGE_CURVE('',#696,#696,#697,.T.);
#613=EDGE_CURVE('',#679,#698,#699,.T.);
#614=EDGE_CURVE('',#698,#700,#701,.T.);
#615=EDGE_CURVE('',#683,#700,#702,.T.);
#616=EDGE_CURVE('',#647,#678,#703,.F.);
#617=EDGE_CURVE('',#642,#698,#704,.F.);
#618=EDGE_CURVE('',#637,#700,#705,.F.);
#619=EDGE_CURVE('',#632,#685,#706,.F.);
#620=EDGE_CURVE('',#624,#687,#707,.F.);
#621=EDGE_CURVE('',#625,#689,#708,.F.);
#622=EDGE_CURVE('',#657,#691,#709,.F.);
#623=EDGE_CURVE('',#652,#693,#710,.F.);
#624=VERTEX_POINT('',#711);
#625=VERTEX_POINT('',#712);
#626=CIRCLE('',#713,0.300000001490116);
#627=VERTEX_POINT('',#717);
#628=LINE('',#718,#719);
#629=VERTEX_POINT('',#721);
#630=CIRCLE('',#722,0.300000001490116);
#631=LINE('',#726,#727);
#632=VERTEX_POINT('',#729);
#633=LINE('',#730,#731);
#634=VERTEX_POINT('',#733);
#635=LINE('',#734,#735);
#636=LINE('',#737,#738);
#637=VERTEX_POINT('',#740);
#638=CIRCLE('',#741,0.300000001490116);
#639=VERTEX_POINT('',#745);
#640=LINE('',#746,#747);
#641=CIRCLE('',#749,0.300000001490116);
#642=VERTEX_POINT('',#753);
#643=LINE('',#754,#755);
#644=VERTEX_POINT('',#757);
#645=LINE('',#758,#759);
#646=LINE('',#761,#762);
#647=VERTEX_POINT('',#764);
#648=CIRCLE('',#765,0.300000001490116);
#649=VERTEX_POINT('',#769);
#650=LINE('',#770,#771);
#651=CIRCLE('',#773,0.300000001490116);
#652=VERTEX_POINT('',#777);
#653=LINE('',#778,#779);
#654=VERTEX_POINT('',#781);
#655=LINE('',#782,#783);
#656=LINE('',#785,#786);
#657=VERTEX_POINT('',#788);
#658=CIRCLE('',#789,0.300000001490116);
#659=VERTEX_POINT('',#793);
#660=LINE('',#794,#795);
#661=CIRCLE('',#797,0.300000001490116);
#662=LINE('',#801,#802);
#663=LINE('',#804,#805);
#664=VERTEX_POINT('',#807);
#665=CIRCLE('',#808,8.1);
#666=VERTEX_POINT('',#812);
#667=CIRCLE('',#813,8.1);
#668=VERTEX_POINT('',#817);
#669=CIRCLE('',#818,5.1);
#670=VERTEX_POINT('',#822);
#671=CIRCLE('',#823,4.05);
#672=VERTEX_POINT('',#827);
#673=CIRCLE('',#828,5.1);
#674=VERTEX_POINT('',#832);
#675=CIRCLE('',#833,3.75);
#676=VERTEX_POINT('',#837);
#677=CIRCLE('',#838,7.8);
#678=VERTEX_POINT('',#842);
#679=VERTEX_POINT('',#843);
#680=CIRCLE('',#844,0.600000001490117);
#681=VERTEX_POINT('',#848);
#682=CIRCLE('',#849,5.4);
#683=VERTEX_POINT('',#853);
#684=CIRCLE('',#854,5.4);
#685=VERTEX_POINT('',#858);
#686=CIRCLE('',#859,0.600000001490116);
#687=VERTEX_POINT('',#863);
#688=LINE('',#864,#865);
#689=VERTEX_POINT('',#867);
#690=CIRCLE('',#868,0.600000001490117);
#691=VERTEX_POINT('',#872);
#692=LINE('',#873,#874);
#693=VERTEX_POINT('',#876);
#694=CIRCLE('',#877,0.600000001490116);
#695=LINE('',#881,#882);
#696=VERTEX_POINT('',#884);
#697=CIRCLE('',#885,3.75);
#698=VERTEX_POINT('',#889);
#699=B_SPLINE_CURVE_WITH_KNOTS('',3,
(#890,#891,#892,#893,#894,#895,#896,#897,#898,#899,#900,#901,#902,#903,#904,#905,
#906,#907,#908,#909,#910,#911,#912,#913,#914),
.UNSPECIFIED.,.F.,.F.,
(4,1,1,1,1,1,1,1,1,1,1,1,1,1,1,1,1,1,1,1,1,1,4),
(0.,0.0329446987575566,0.0664818296872038,0.10051768387451,0.135318668797058,0.170557497530193,
0.206881970835549,0.243800391209409,0.294211839914176,0.345759051727815,0.398426250705501,
0.453922498512476,0.525844761275548,0.599664799275009,0.660284300682826,0.706042007694625,
0.714069555613973,0.751208778077585,0.79642958406431,0.842187871633165,0.890917424714099,
0.943129279846468,1.),
.UNSPECIFIED.);
#700=VERTEX_POINT('',#915);
#701=B_SPLINE_CURVE_WITH_KNOTS('',3,
(#916,#917,#918,#919,#920,#921,#922,#923,#924,#925,#926,#927,#928,#929,#930,#931,
#932,#933,#934,#935),
.UNSPECIFIED.,.F.,.F.,
(4,1,1,1,1,1,1,1,1,1,1,1,1,1,1,1,1,4),
(0.,0.0520622642006437,0.106675772061765,0.163449165811206,0.223229971411282,0.285494731705581,
0.3510048537267,0.417574449819413,0.485655961853155,0.49817264171111,0.55448883125152,
0.623148041030037,0.69068199286057,0.756323322556096,0.820763155278246,0.882422644315105,
0.942326021651271,1.),
.UNSPECIFIED.);
#702=B_SPLINE_CURVE_WITH_KNOTS('',3,
(#936,#937,#938,#939,#940,#941,#942,#943,#944,#945,#946,#947,#948,#949,#950,#951,
#952,#953,#954,#955),
.UNSPECIFIED.,.F.,.F.,
(4,1,1,1,1,1,1,1,1,1,1,1,1,1,1,1,1,4),
(0.,0.0566667465167911,0.114520052828484,0.173250991728485,0.233364371080639,0.293809321112537,
0.355377443270919,0.417616000017537,0.480734835734433,0.544236617683229,0.608653926927218,
0.673395962942117,0.714950293056106,0.738565886599646,0.80400101253132,0.869559016474427,
0.934640038811051,1.),
.UNSPECIFIED.);
#703=LINE('',#956,#957);
#704=LINE('',#959,#960);
#705=LINE('',#962,#963);
#706=LINE('',#965,#966);
#707=LINE('',#968,#969);
#708=LINE('',#971,#972);
#709=LINE('',#974,#975);
#710=LINE('',#977,#978);
#711=CARTESIAN_POINT('',(-1.10000054351139,-6.19999990383494,-0.5));
#712=CARTESIAN_POINT('',(-0.800000568248113,-6.49999993155189,-0.5));
#713=AXIS2_PLACEMENT_3D('',#714,#715,#716);
#714=CARTESIAN_POINT('',(-0.800000542021281,-6.19999993006178,-0.5));
#715=DIRECTION('',(0.,0.,-1.));
#716=DIRECTION('',(-8.74227772366827E-8,-0.999999999999996,0.));
#717=CARTESIAN_POINT('',(-1.1000005435114,-6.19999990383494,1.5));
#718=CARTESIAN_POINT('',(-1.10000054351139,-6.19999990383494,-0.5));
#719=VECTOR('',#720,1.);
#720=DIRECTION('',(0.,0.,1.));
#721=CARTESIAN_POINT('',(-0.800000568248111,-6.49999993155189,1.5));
#722=AXIS2_PLACEMENT_3D('',#723,#724,#725);
#723=CARTESIAN_POINT('',(-0.800000542021281,-6.19999993006178,1.5));
#724=DIRECTION('',(0.,0.,1.));
#725=DIRECTION('',(-0.999999999999996,8.74227767313611E-8,0.));
#726=CARTESIAN_POINT('',(-0.800000568248113,-6.49999993155189,-0.5));
#727=VECTOR('',#728,1.);
#728=DIRECTION('',(-5.55111512312578E-17,0.,1.));
#729=CARTESIAN_POINT('',(-1.10000050854227,-5.79999990383494,-0.5));
#730=CARTESIAN_POINT('',(-1.10000054351138,-6.19999990383494,-0.5));
#731=VECTOR('',#732,1.);
#732=DIRECTION('',(8.74227612523981E-8,0.999999999999996,0.));
#733=CARTESIAN_POINT('',(-1.10000050854228,-5.79999990383494,1.5));
#734=CARTESIAN_POINT('',(-1.10000050854227,-5.79999990383494,-0.5));
#735=VECTOR('',#736,1.);
#736=DIRECTION('',(0.,0.,1.));
#737=CARTESIAN_POINT('',(-1.10000050854228,-5.79999990383494,1.5));
#738=VECTOR('',#739,1.);
#739=DIRECTION('',(-8.74227623626211E-8,-0.999999999999996,0.));
#740=CARTESIAN_POINT('',(-0.800000480825316,-5.49999992857166,-0.5));
#741=AXIS2_PLACEMENT_3D('',#742,#743,#744);
#742=CARTESIAN_POINT('',(-0.800000507052147,-5.79999993006178,-0.5));
#743=DIRECTION('',(0.,0.,-1.));
#744=DIRECTION('',(-0.999999999999996,8.74227769406231E-8,0.));
#745=CARTESIAN_POINT('',(-0.800000480825314,-5.49999992857166,1.5));
#746=CARTESIAN_POINT('',(-0.800000480825316,-5.49999992857166,-0.5));
#747=VECTOR('',#748,1.);
#748=DIRECTION('',(1.11022302462516E-16,0.,1.));
#749=AXIS2_PLACEMENT_3D('',#750,#751,#752);
#750=CARTESIAN_POINT('',(-0.800000507052147,-5.79999993006178,1.5));
#751=DIRECTION('',(0.,0.,1.));
#752=DIRECTION('',(8.7422776731361E-8,0.999999999999996,0.));
#753=CARTESIAN_POINT('',(0.799999519174679,-5.5000000684481,-0.5));
#754=CARTESIAN_POINT('',(-0.800000480825317,-5.49999992857166,-0.5));
#755=VECTOR('',#756,1.);
#756=DIRECTION('',(0.999999999999996,-8.74227779057435E-8,-1.38777878078145E-16));
#757=CARTESIAN_POINT('',(0.799999519174677,-5.5000000684481,1.5));
#758=CARTESIAN_POINT('',(0.799999519174678,-5.5000000684481,-0.5));
#759=VECTOR('',#760,1.);
#760=DIRECTION('',(1.11022302462516E-16,0.,1.));
#761=CARTESIAN_POINT('',(0.799999519174677,-5.5000000684481,1.5));
#762=VECTOR('',#763,1.);
#763=DIRECTION('',(-0.999999999999996,8.74227779057435E-8,0.));
#764=CARTESIAN_POINT('',(1.09999949443796,-5.80000009616505,-0.5));
#765=AXIS2_PLACEMENT_3D('',#766,#767,#768);
#766=CARTESIAN_POINT('',(0.799999492947847,-5.80000006993822,-0.5));
#767=DIRECTION('',(0.,0.,-1.));
#768=DIRECTION('',(8.74227772366827E-8,0.999999999999996,0.));
#769=CARTESIAN_POINT('',(1.09999949443796,-5.80000009616505,1.5));
#770=CARTESIAN_POINT('',(1.09999949443796,-5.80000009616505,-0.5));
#771=VECTOR('',#772,1.);
#772=DIRECTION('',(0.,0.,1.));
#773=AXIS2_PLACEMENT_3D('',#774,#775,#776);
#774=CARTESIAN_POINT('',(0.799999492947847,-5.80000006993822,1.5));
#775=DIRECTION('',(0.,0.,1.));
#776=DIRECTION('',(0.999999999999996,-8.74227767313612E-8,0.));
#777=CARTESIAN_POINT('',(1.09999945946884,-6.20000009616505,-0.5));
#778=CARTESIAN_POINT('',(1.09999949443795,-5.80000009616505,-0.5));
#779=VECTOR('',#780,1.);
#780=DIRECTION('',(-8.74227612523981E-8,-0.999999999999996,0.));
#781=CARTESIAN_POINT('',(1.09999945946885,-6.20000009616505,1.5));
#782=CARTESIAN_POINT('',(1.09999945946884,-6.20000009616505,-0.5));
#783=VECTOR('',#784,1.);
#784=DIRECTION('',(0.,0.,1.));
#785=CARTESIAN_POINT('',(1.09999945946885,-6.20000009616505,1.5));
#786=VECTOR('',#787,1.);
#787=DIRECTION('',(8.74227623626211E-8,0.999999999999996,0.));
#788=CARTESIAN_POINT('',(0.799999431751882,-6.50000007142833,-0.5));
#789=AXIS2_PLACEMENT_3D('',#790,#791,#792);
#790=CARTESIAN_POINT('',(0.799999457978713,-6.20000006993822,-0.5));
#791=DIRECTION('',(0.,0.,-1.));
#792=DIRECTION('',(0.999999999999996,-8.7422776422519E-8,0.));
#793=CARTESIAN_POINT('',(0.79999943175188,-6.50000007142833,1.5));
#794=CARTESIAN_POINT('',(0.799999431751882,-6.50000007142833,-0.5));
#795=VECTOR('',#796,1.);
#796=DIRECTION('',(-1.66533453693773E-16,0.,1.));
#797=AXIS2_PLACEMENT_3D('',#798,#799,#800);
#798=CARTESIAN_POINT('',(0.799999457978713,-6.20000006993822,1.5));
#799=DIRECTION('',(0.,0.,1.));
#800=DIRECTION('',(-8.74227763612867E-8,-0.999999999999996,0.));
#801=CARTESIAN_POINT('',(0.799999431751883,-6.50000007142834,-0.5));
#802=VECTOR('',#803,1.);
#803=DIRECTION('',(-0.999999999999996,8.74227779057435E-8,-6.93889390390723E-17));
#804=CARTESIAN_POINT('',(-0.800000568248111,-6.49999993155189,1.5));
#805=VECTOR('',#806,1.);
#806=DIRECTION('',(0.999999999999996,-8.74227779057435E-8,0.));
#807=CARTESIAN_POINT('',(-8.1,9.91963907309356E-16,1.5));
#808=AXIS2_PLACEMENT_3D('',#809,#810,#811);
#809=CARTESIAN_POINT('',(0.,0.,1.5));
#810=DIRECTION('',(0.,0.,1.));
#811=DIRECTION('',(-1.,1.22464679914735E-16,0.));
#812=CARTESIAN_POINT('',(-8.1,1.66664895560078E-15,-0.5));
#813=AXIS2_PLACEMENT_3D('',#814,#815,#816);
#814=CARTESIAN_POINT('',(0.,0.,-0.5));
#815=DIRECTION('',(0.,0.,-1.));
#816=DIRECTION('',(-1.,3.67394039744206E-16,0.));
#817=CARTESIAN_POINT('',(5.1,6.2456986756515E-16,0.));
#818=AXIS2_PLACEMENT_3D('',#819,#820,#821);
#819=CARTESIAN_POINT('',(0.,0.,0.));
#820=DIRECTION('',(0.,0.,-1.));
#821=DIRECTION('',(1.,1.22464679914735E-16,0.));
#822=CARTESIAN_POINT('',(-4.05,9.91963907309356E-16,0.));
#823=AXIS2_PLACEMENT_3D('',#824,#825,#826);
#824=CARTESIAN_POINT('',(0.,0.,0.));
#825=DIRECTION('',(0.,0.,1.));
#826=DIRECTION('',(-1.,1.22464679914735E-16,0.));
#827=CARTESIAN_POINT('',(5.1,1.2491397351303E-15,-0.5));
#828=AXIS2_PLACEMENT_3D('',#829,#830,#831);
#829=CARTESIAN_POINT('',(0.,0.,-0.5));
#830=DIRECTION('',(0.,0.,-1.));
#831=DIRECTION('',(1.,1.22464679914735E-16,0.));
#832=CARTESIAN_POINT('',(-3.75,4.59242549680257E-16,1.5));
#833=AXIS2_PLACEMENT_3D('',#834,#835,#836);
#834=CARTESIAN_POINT('',(0.,0.,1.5));
#835=DIRECTION('',(0.,0.,1.));
#836=DIRECTION('',(-1.,1.22464679914735E-16,0.));
#837=CARTESIAN_POINT('',(-7.8,-1.24359416471907E-15,-0.8));
#838=AXIS2_PLACEMENT_3D('',#839,#840,#841);
#839=CARTESIAN_POINT('',(0.,0.,-0.8));
#840=DIRECTION('',(0.,0.,-1.));
#841=DIRECTION('',(-1.,-2.44929359829471E-16,0.));
#842=CARTESIAN_POINT('',(1.39999949443796,-5.80000012239188,-0.8));
#843=CARTESIAN_POINT('',(1.10802267934797,-5.28510035307283,-0.8));
#844=AXIS2_PLACEMENT_3D('',#845,#846,#847);
#845=CARTESIAN_POINT('',(0.799999492947847,-5.80000006993822,-0.8));
#846=DIRECTION('',(0.,0.,-1.));
#847=DIRECTION('',(0.513371976058559,0.858166192644368,0.));
#848=CARTESIAN_POINT('',(5.4,1.32261854307914E-15,-0.8));
#849=AXIS2_PLACEMENT_3D('',#850,#851,#852);
#850=CARTESIAN_POINT('',(0.,0.,-0.8));
#851=DIRECTION('',(0.,0.,-1.));
#852=DIRECTION('',(1.,1.22464679914735E-16,0.));
#853=CARTESIAN_POINT('',(-1.10802360342431,-5.2851001593399,-0.8));
#854=AXIS2_PLACEMENT_3D('',#855,#856,#857);
#855=CARTESIAN_POINT('',(0.,0.,-0.8));
#856=DIRECTION('',(0.,0.,-1.));
#857=DIRECTION('',(-0.205189556189687,-0.978722251729611,0.));
#858=CARTESIAN_POINT('',(-1.40000050854227,-5.79999987760811,-0.8));
#859=AXIS2_PLACEMENT_3D('',#860,#861,#862);
#860=CARTESIAN_POINT('',(-0.800000507052147,-5.79999993006178,-0.8));
#861=DIRECTION('',(0.,0.,-1.));
#862=DIRECTION('',(-0.999999999999996,8.7422776948478E-8,0.));
#863=CARTESIAN_POINT('',(-1.40000054351139,-6.19999987760811,-0.8));
#864=CARTESIAN_POINT('',(-1.40000054351138,-6.19999987760811,-0.8));
#865=VECTOR('',#866,1.);
#866=DIRECTION('',(8.74227618075096E-8,0.999999999999996,0.));
#867=CARTESIAN_POINT('',(-0.800000594474946,-6.79999993155189,-0.8));
#868=AXIS2_PLACEMENT_3D('',#869,#870,#871);
#869=CARTESIAN_POINT('',(-0.800000542021281,-6.19999993006178,-0.8));
#870=DIRECTION('',(0.,0.,-1.));
#871=DIRECTION('',(-8.74227771335151E-8,-0.999999999999996,0.));
#872=CARTESIAN_POINT('',(0.799999405525049,-6.80000007142833,-0.8));
#873=CARTESIAN_POINT('',(0.799999405525049,-6.80000007142833,-0.8));
#874=VECTOR('',#875,1.);
#875=DIRECTION('',(-0.999999999999996,8.74227779057435E-8,0.));
#876=CARTESIAN_POINT('',(1.39999945946884,-6.20000012239188,-0.8));
#877=AXIS2_PLACEMENT_3D('',#878,#879,#880);
#878=CARTESIAN_POINT('',(0.799999457978713,-6.20000006993822,-0.8));
#879=DIRECTION('',(0.,0.,-1.));
#880=DIRECTION('',(0.999999999999996,-8.7422776948478E-8,0.));
#881=CARTESIAN_POINT('',(1.39999949443795,-5.80000012239188,-0.8));
#882=VECTOR('',#883,1.);
#883=DIRECTION('',(-8.74227618075096E-8,-0.999999999999996,0.));
#884=CARTESIAN_POINT('',(-3.75,9.18485099360515E-16,0.3));
#885=AXIS2_PLACEMENT_3D('',#886,#887,#888);
#886=CARTESIAN_POINT('',(0.,0.,0.3));
#887=DIRECTION('',(0.,0.,1.));
#888=DIRECTION('',(-1.,1.22464679914735E-16,0.));
#889=CARTESIAN_POINT('',(0.799999539289907,-5.26981139000094,-0.730188678334475));
#890=CARTESIAN_POINT('',(1.10802267934797,-5.28510035307283,-0.8));
#891=CARTESIAN_POINT('',(1.10478966118019,-5.2845579348738,-0.798805741981463));
#892=CARTESIAN_POINT('',(1.09825241176469,-5.28348390840328,-0.796418419101176));
#893=CARTESIAN_POINT('',(1.08832935750305,-5.28192418638185,-0.79287991363942));
#894=CARTESIAN_POINT('',(1.0781835903898,-5.28040357558656,-0.78935154879141));
#895=CARTESIAN_POINT('',(1.06782929518666,-5.27892958046384,-0.785844756555485));
#896=CARTESIAN_POINT('',(1.05720689355033,-5.27749956865175,-0.782346426443332));
#897=CARTESIAN_POINT('',(1.04633202315601,-5.27612241119394,-0.778869883910395));
#898=CARTESIAN_POINT('',(1.03388967297068,-5.27464954345818,-0.77501644499049));
#899=CARTESIAN_POINT('',(1.01985517041364,-5.27312784951441,-0.770838649174669));
#900=CARTESIAN_POINT('',(1.00415398174282,-5.27161059134264,-0.766388432407097));
#901=CARTESIAN_POINT('',(0.987860997589867,-5.27023534300029,-0.762011178334318));
#902=CARTESIAN_POINT('',(0.969405782753247,-5.26891508946288,-0.757340004766017));
#903=CARTESIAN_POINT('',(0.948679351315483,-5.26775099200068,-0.752478983930537));
#904=CARTESIAN_POINT('',(0.927314444765223,-5.26693377887558,-0.74793070255623));
#905=CARTESIAN_POINT('',(0.9085780128456,-5.26653236457534,-0.744322923595758));
#906=CARTESIAN_POINT('',(0.896645566837908,-5.26643777804758,-0.74221989179855));
#907=CARTESIAN_POINT('',(0.887148300399382,-5.26642799377562,-0.740625192399449));
#908=CARTESIAN_POINT('',(0.877695733167108,-5.26647299472604,-0.73910414167453));
#909=CARTESIAN_POINT('',(0.864269801949219,-5.26667987858063,-0.737116472549822));
#910=CARTESIAN_POINT('',(0.849598868059452,-5.26708014406388,-0.7351549725821));
#911=CARTESIAN_POINT('',(0.83416363625716,-5.2676932907988,-0.733323321225274));
#912=CARTESIAN_POINT('',(0.817528268328421,-5.26857724722296,-0.731618875685961));
#913=CARTESIAN_POINT('',(0.806009490904355,-5.26935778337154,-0.730642228522669));
#914=CARTESIAN_POINT('',(0.799999539274344,-5.26981138986259,-0.730188678402342));
#915=CARTESIAN_POINT('',(-0.800000460693077,-5.26981125012449,-0.730188678334482));
#916=CARTESIAN_POINT('',(0.799999539285654,-5.26981138994459,-0.730188678334475));
#917=CARTESIAN_POINT('',(0.772031571878817,-5.27192217800191,-0.72807788793461));
#918=CARTESIAN_POINT('',(0.714746171294101,-5.27601879489035,-0.723981266137075));
#919=CARTESIAN_POINT('',(0.627039569231521,-5.28158016856449,-0.718419884753735));
#920=CARTESIAN_POINT('',(0.535264089894352,-5.28662359432868,-0.713376450978177));
#921=CARTESIAN_POINT('',(0.439466140526488,-5.29104121870666,-0.708958818221849));
#922=CARTESIAN_POINT('',(0.339075740722437,-5.2947421570405,-0.705257871112587));
#923=CARTESIAN_POINT('',(0.235147820540126,-5.29756810385266,-0.702431915214472));
#924=CARTESIAN_POINT('',(0.128212584026757,-5.29940750943064,-0.700592500288001));
#925=CARTESIAN_POINT('',(0.0496669121568919,-5.29995939070843,-0.700040612143507));
#926=CARTESIAN_POINT('',(-0.0233626285073682,-5.30002837355856,-0.69997162290894));
#927=CARTESIAN_POINT('',(-0.0966627212715948,-5.29971669048074,-0.700283299578671));
#928=CARTESIAN_POINT('',(-0.199199077511657,-5.29831425554461,-0.701685725550721));
#929=CARTESIAN_POINT('',(-0.306594870153604,-5.29574348547302,-0.704256486233725));
#930=CARTESIAN_POINT('',(-0.411643509586717,-5.29217604044528,-0.707823922076912));
#931=CARTESIAN_POINT('',(-0.513473377799959,-5.28772196212786,-0.712277991495344));
#932=CARTESIAN_POINT('',(-0.612165918519215,-5.28247028263073,-0.717529662352982));
#933=CARTESIAN_POINT('',(-0.707185173029694,-5.27654717881762,-0.723452757900144));
#934=CARTESIAN_POINT('',(-0.76946407345099,-5.27211588477405,-0.727884046400959));
#935=CARTESIAN_POINT('',(-0.800000460688825,-5.26981125006814,-0.730188678334482));
#936=CARTESIAN_POINT('',(-1.10802360342431,-5.2851001593399,-0.8));
#937=CARTESIAN_POINT('',(-1.10240234567322,-5.28415707162496,-0.797923558805225));
#938=CARTESIAN_POINT('',(-1.09102468223605,-5.28231705795666,-0.793803930540151));
#939=CARTESIAN_POINT('',(-1.07375609317428,-5.27973907251892,-0.787810764837439));
#940=CARTESIAN_POINT('',(-1.0560830063194,-5.27732767692991,-0.781951478857971));
#941=CARTESIAN_POINT('',(-1.03808495395394,-5.27511112644737,-0.776273469759951));
#942=CARTESIAN_POINT('',(-1.01973149842201,-5.27310202593163,-0.77078689547024));
#943=CARTESIAN_POINT('',(-1.00108651234295,-5.27132327394416,-0.765530070526902));
#944=CARTESIAN_POINT('',(-0.982085796155785,-5.26978606465938,-0.76050582129028));
#945=CARTESIAN_POINT('',(-0.962795837809412,-5.26851315378851,-0.755752725576284));
#946=CARTESIAN_POINT('',(-0.943182718437577,-5.26751922129407,-0.75128286852478));
#947=CARTESIAN_POINT('',(-0.923301517757747,-5.2668242402988,-0.747129564284191));
#948=CARTESIAN_POINT('',(-0.905595297127528,-5.26649086434602,-0.743775696369607));
#949=CARTESIAN_POINT('',(-0.892065255074422,-5.26641872009668,-0.741433513630537));
#950=CARTESIAN_POINT('',(-0.878428818654178,-5.26645993923825,-0.739210579248106));
#951=CARTESIAN_POINT('',(-0.862231089053556,-5.26669442109052,-0.736794288170941));
#952=CARTESIAN_POINT('',(-0.841585489850214,-5.26734700778952,-0.734141895040429));
#953=CARTESIAN_POINT('',(-0.820843515325069,-5.26836237076713,-0.731911794010928));
#954=CARTESIAN_POINT('',(-0.806969746666878,-5.26928526994082,-0.730714667590048));
#955=CARTESIAN_POINT('',(-0.8000004606775,-5.26981124998604,-0.730188678402429));
#956=CARTESIAN_POINT('',(1.39999949443796,-5.80000012239188,-0.8));
#957=VECTOR('',#958,1.);
#958=DIRECTION('',(-0.707106781186546,6.18172343770393E-8,0.707106781186547));
#959=CARTESIAN_POINT('',(0.799999539298412,-5.26981139011363,-0.730188678334475));
#960=VECTOR('',#961,1.);
#961=DIRECTION('',(-6.18172390166091E-8,-0.707106781186546,0.707106781186547));
#962=CARTESIAN_POINT('',(-0.800000460701583,-5.26981125023718,-0.730188678334482));
#963=VECTOR('',#964,1.);
#964=DIRECTION('',(-6.18172379934732E-8,-0.707106781186545,0.707106781186547));
#965=CARTESIAN_POINT('',(-1.40000050854227,-5.79999987760811,-0.8));
#966=VECTOR('',#967,1.);
#967=DIRECTION('',(0.707106781186544,-6.18172322835828E-8,0.707106781186548));
#968=CARTESIAN_POINT('',(-1.40000054351139,-6.19999987760811,-0.8));
#969=VECTOR('',#970,1.);
#970=DIRECTION('',(0.707106781186545,-6.18172322835827E-8,0.707106781186547));
#971=CARTESIAN_POINT('',(-0.800000594474946,-6.79999993155189,-0.8));
#972=VECTOR('',#973,1.);
#973=DIRECTION('',(6.18172385639525E-8,0.707106781186545,0.707106781186547));
#974=CARTESIAN_POINT('',(0.799999405525049,-6.80000007142833,-0.8));
#975=VECTOR('',#976,1.);
#976=DIRECTION('',(6.18172377789063E-8,0.707106781186545,0.707106781186547));
#977=CARTESIAN_POINT('',(1.39999945946884,-6.20000012239188,-0.8));
#978=VECTOR('',#979,1.);
#979=DIRECTION('',(-0.707106781186545,6.18172322835827E-8,0.707106781186548));
ENDSEC;
END-ISO-10303-21;
