ISO-10303-21;
HEADER;
FILE_DESCRIPTION(('STEP AP242'),
    '1');
FILE_NAME('glass',
    '',
    ('UNSPECIFIED'),
    ('UNSPECIFIED'),
    'C3D Converter',
    'C3D Toolkit',
    '');
FILE_SCHEMA(('AP242_MANAGED_MODEL_BASED_3D_ENGINEERING_MIM_LF { 1 0 10303 442 1 1 4 }'));
ENDSEC;

DATA;
#1=SHAPE_REPRESENTATION('NONE',(#2),#6);
#2=AXIS2_PLACEMENT_3D('',#3,#4,#5);
#3=CARTESIAN_POINT('',(0.,0.,0.));
#4=DIRECTION('',(0.,0.,1.));
#5=DIRECTION('',(1.,0.,0.));
#6=(GEOMETRIC_REPRESENTATION_CONTEXT(3)GLOBAL_UNCERTAINTY_ASSIGNED_CONTEXT((#8))
GLOBAL_UNIT_ASSIGNED_CONTEXT((#7,#9,#10))REPRESENTATION_CONTEXT('NONE','NONE'));
#7=(LENGTH_UNIT()NAMED_UNIT(*)SI_UNIT(.MILLI.,.METRE.));
#8=UNCERTAINTY_MEASURE_WITH_UNIT(LENGTH_MEASURE(1.E-5),#7,'NONE','NONE');
#9=(NAMED_UNIT(*)PLANE_ANGLE_UNIT()SI_UNIT($,.RADIAN.));
#10=(NAMED_UNIT(*)SI_UNIT($,.STERADIAN.)SOLID_ANGLE_UNIT());
#11=SHAPE_DEFINITION_REPRESENTATION(#12,#1);
#12=PRODUCT_DEFINITION_SHAPE('NONE','NONE',#13);
#13=PRODUCT_DEFINITION('','UNSPECIFIED',#14,#22);
#14=PRODUCT_DEFINITION_FORMATION_WITH_SPECIFIED_SOURCE('ANY','UNSPECIFIED',#15,.NOT_KNOWN.);
#15=PRODUCT('','\X2\0414043504420430043B044C\X0\','NONE',(#25));
#16=PERSON('UNSPECIFIED','rorka','UNSPECIFIED',('UNSPECIFIED'),('UNSPECIFIED'),(
'UNSPECIFIED'));
#17=ORGANIZATION('UNSPECIFIED','UNSPECIFIED','UNSPECIFIED');
#18=PERSON_AND_ORGANIZATION(#16,#17);
#19=PERSON_AND_ORGANIZATION_ROLE('design_owner');
#20=CC_DESIGN_PERSON_AND_ORGANIZATION_ASSIGNMENT(#18,#19,(#15));
#21=PRODUCT_RELATED_PRODUCT_CATEGORY('detail','',(#15));
#22=DESIGN_CONTEXT('detailed design',#23,'design');
#23=APPLICATION_CONTEXT('configuration controlled 3d designs of mechanical parts and assemblies');
#24=APPLICATION_PROTOCOL_DEFINITION('international standard','config_control_design',
1994,#23);
#25=MECHANICAL_CONTEXT('NONE',#23,'mechanical');
#26=CC_DESIGN_DATE_AND_TIME_ASSIGNMENT(#27,#31,(#13));
#27=DATE_AND_TIME(#28,#29);
#28=CALENDAR_DATE(0,1,1);
#29=LOCAL_TIME(0,0,0.,#30);
#30=COORDINATED_UNIVERSAL_TIME_OFFSET(0,0,.AHEAD.);
#31=DATE_TIME_ROLE('creation_date');
#32=CC_DESIGN_APPROVAL(#33,(#13));
#33=APPROVAL(#34,'UNSPECIFIED');
#34=APPROVAL_STATUS('not_yet_approved');
#35=APPROVAL_DATE_TIME(#36,#33);
#36=DATE_AND_TIME(#37,#38);
#37=CALENDAR_DATE(0,1,1);
#38=LOCAL_TIME(0,0,0.,#39);
#39=COORDINATED_UNIVERSAL_TIME_OFFSET(0,0,.AHEAD.);
#40=MANIFOLD_SOLID_BREP('',#41);
#41=CLOSED_SHELL('',(#53,#62,#71,#80,#89,#98,#107,#116,#125,#134));
#42=COLOUR_RGB('',0.6,0.8,1.);
#43=FILL_AREA_STYLE_COLOUR('',#42);
#44=FILL_AREA_STYLE($,(#43));
#45=SURFACE_STYLE_FILL_AREA(#44);
#46=SURFACE_SIDE_STYLE('',(#45));
#47=SURFACE_STYLE_USAGE(.BOTH.,#46);
#48=PRESENTATION_STYLE_ASSIGNMENT((#47));
#49=MECHANICAL_DESIGN_GEOMETRIC_PRESENTATION_REPRESENTATION('NONE',(#50,#61,#70,
#79,#88,#97,#106,#115,#124,#133,#142),#6);
#50=STYLED_ITEM('',(#48),#40);
#51=ADVANCED_BREP_SHAPE_REPRESENTATION('NONE',(#40),#6);
#52=SHAPE_REPRESENTATION_RELATIONSHIP('','',#1,#51);
#53=ADVANCED_FACE('',(#143),#145,.T.);
#54=COLOUR_RGB('',0.6,0.8,1.);
#55=FILL_AREA_STYLE_COLOUR('',#54);
#56=FILL_AREA_STYLE($,(#55));
#57=SURFACE_STYLE_FILL_AREA(#56);
#58=SURFACE_SIDE_STYLE('',(#57));
#59=SURFACE_STYLE_USAGE(.BOTH.,#58);
#60=PRESENTATION_STYLE_ASSIGNMENT((#59));
#61=STYLED_ITEM('',(#60),#53);
#62=ADVANCED_FACE('',(#150),#152,.T.);
#63=COLOUR_RGB('',0.6,0.8,1.);
#64=FILL_AREA_STYLE_COLOUR('',#63);
#65=FILL_AREA_STYLE($,(#64));
#66=SURFACE_STYLE_FILL_AREA(#65);
#67=SURFACE_SIDE_STYLE('',(#66));
#68=SURFACE_STYLE_USAGE(.BOTH.,#67);
#69=PRESENTATION_STYLE_ASSIGNMENT((#68));
#70=STYLED_ITEM('',(#69),#62);
#71=ADVANCED_FACE('',(#157),#159,.T.);
#72=COLOUR_RGB('',0.6,0.8,1.);
#73=FILL_AREA_STYLE_COLOUR('',#72);
#74=FILL_AREA_STYLE($,(#73));
#75=SURFACE_STYLE_FILL_AREA(#74);
#76=SURFACE_SIDE_STYLE('',(#75));
#77=SURFACE_STYLE_USAGE(.BOTH.,#76);
#78=PRESENTATION_STYLE_ASSIGNMENT((#77));
#79=STYLED_ITEM('',(#78),#71);
#80=ADVANCED_FACE('',(#164),#166,.T.);
#81=COLOUR_RGB('',0.6,0.8,1.);
#82=FILL_AREA_STYLE_COLOUR('',#81);
#83=FILL_AREA_STYLE($,(#82));
#84=SURFACE_STYLE_FILL_AREA(#83);
#85=SURFACE_SIDE_STYLE('',(#84));
#86=SURFACE_STYLE_USAGE(.BOTH.,#85);
#87=PRESENTATION_STYLE_ASSIGNMENT((#86));
#88=STYLED_ITEM('',(#87),#80);
#89=ADVANCED_FACE('',(#171),#173,.T.);
#90=COLOUR_RGB('',0.6,0.8,1.);
#91=FILL_AREA_STYLE_COLOUR('',#90);
#92=FILL_AREA_STYLE($,(#91));
#93=SURFACE_STYLE_FILL_AREA(#92);
#94=SURFACE_SIDE_STYLE('',(#93));
#95=SURFACE_STYLE_USAGE(.BOTH.,#94);
#96=PRESENTATION_STYLE_ASSIGNMENT((#95));
#97=STYLED_ITEM('',(#96),#89);
#98=ADVANCED_FACE('',(#178),#180,.T.);
#99=COLOUR_RGB('',0.6,0.8,1.);
#100=FILL_AREA_STYLE_COLOUR('',#99);
#101=FILL_AREA_STYLE($,(#100));
#102=SURFACE_STYLE_FILL_AREA(#101);
#103=SURFACE_SIDE_STYLE('',(#102));
#104=SURFACE_STYLE_USAGE(.BOTH.,#103);
#105=PRESENTATION_STYLE_ASSIGNMENT((#104));
#106=STYLED_ITEM('',(#105),#98);
#107=ADVANCED_FACE('',(#185),#187,.T.);
#108=COLOUR_RGB('',0.6,0.8,1.);
#109=FILL_AREA_STYLE_COLOUR('',#108);
#110=FILL_AREA_STYLE($,(#109));
#111=SURFACE_STYLE_FILL_AREA(#110);
#112=SURFACE_SIDE_STYLE('',(#111));
#113=SURFACE_STYLE_USAGE(.BOTH.,#112);
#114=PRESENTATION_STYLE_ASSIGNMENT((#113));
#115=STYLED_ITEM('',(#114),#107);
#116=ADVANCED_FACE('',(#192),#194,.T.);
#117=COLOUR_RGB('',0.6,0.8,1.);
#118=FILL_AREA_STYLE_COLOUR('',#117);
#119=FILL_AREA_STYLE($,(#118));
#120=SURFACE_STYLE_FILL_AREA(#119);
#121=SURFACE_SIDE_STYLE('',(#120));
#122=SURFACE_STYLE_USAGE(.BOTH.,#121);
#123=PRESENTATION_STYLE_ASSIGNMENT((#122));
#124=STYLED_ITEM('',(#123),#116);
#125=ADVANCED_FACE('',(#199),#201,.T.);
#126=COLOUR_RGB('',0.6,0.8,1.);
#127=FILL_AREA_STYLE_COLOUR('',#126);
#128=FILL_AREA_STYLE($,(#127));
#129=SURFACE_STYLE_FILL_AREA(#128);
#130=SURFACE_SIDE_STYLE('',(#129));
#131=SURFACE_STYLE_USAGE(.BOTH.,#130);
#132=PRESENTATION_STYLE_ASSIGNMENT((#131));
#133=STYLED_ITEM('',(#132),#125);
#134=ADVANCED_FACE('',(#206),#208,.F.);
#135=COLOUR_RGB('',0.6,0.8,1.);
#136=FILL_AREA_STYLE_COLOUR('',#135);
#137=FILL_AREA_STYLE($,(#136));
#138=SURFACE_STYLE_FILL_AREA(#137);
#139=SURFACE_SIDE_STYLE('',(#138));
#140=SURFACE_STYLE_USAGE(.BOTH.,#139);
#141=PRESENTATION_STYLE_ASSIGNMENT((#140));
#142=STYLED_ITEM('',(#141),#134);
#143=FACE_BOUND('',#144,.T.);
#144=EDGE_LOOP('',(#213,#214,#215,#216));
#145=PLANE('',#146);
#146=AXIS2_PLACEMENT_3D('',#147,#148,#149);
#147=CARTESIAN_POINT('',(-33.522498206658,-25.712499627044,0.));
#148=DIRECTION('',(-1.02383679495544E-16,-1.,0.));
#149=DIRECTION('',(1.,-1.02383679495544E-16,0.));
#150=FACE_BOUND('',#151,.T.);
#151=EDGE_LOOP('',(#217,#218,#219,#220));
#152=CYLINDRICAL_SURFACE('',#153,1.89999999850988);
#153=AXIS2_PLACEMENT_3D('',#154,#155,#156);
#154=CARTESIAN_POINT('',(35.8775017993025,-23.8124996285341,0.));
#155=DIRECTION('',(0.,0.,1.));
#156=DIRECTION('',(-1.22464679914735E-16,-1.,0.));
#157=FACE_BOUND('',#158,.T.);
#158=EDGE_LOOP('',(#221,#222,#223,#224));
#159=PLANE('',#160);
#160=AXIS2_PLACEMENT_3D('',#161,#162,#163);
#161=CARTESIAN_POINT('',(37.7775017978123,-23.8124996285341,0.));
#162=DIRECTION('',(1.,-2.81961403046059E-16,0.));
#163=DIRECTION('',(2.81961403046059E-16,1.,0.));
#164=FACE_BOUND('',#165,.T.);
#165=EDGE_LOOP('',(#225,#226,#227,#228));
#166=CYLINDRICAL_SURFACE('',#167,1.89999999850988);
#167=AXIS2_PLACEMENT_3D('',#168,#169,#170);
#168=CARTESIAN_POINT('',(35.8775017993025,26.5875003774264,0.));
#169=DIRECTION('',(0.,0.,1.));
#170=DIRECTION('',(1.,-1.22464679914735E-16,0.));
#171=FACE_BOUND('',#172,.T.);
#172=EDGE_LOOP('',(#229,#230,#231,#232));
#173=PLANE('',#174);
#174=AXIS2_PLACEMENT_3D('',#175,#176,#177);
#175=CARTESIAN_POINT('',(35.8775017993025,28.4875003759363,0.));
#176=DIRECTION('',(5.1191839747772E-17,1.,0.));
#177=DIRECTION('',(-1.,5.1191839747772E-17,0.));
#178=FACE_BOUND('',#179,.T.);
#179=EDGE_LOOP('',(#233,#234,#235,#236));
#180=CYLINDRICAL_SURFACE('',#181,1.89999999850988);
#181=AXIS2_PLACEMENT_3D('',#182,#183,#184);
#182=CARTESIAN_POINT('',(-33.522498206658,26.5875003774264,0.));
#183=DIRECTION('',(0.,0.,1.));
#184=DIRECTION('',(1.22464679914735E-16,1.,0.));
#185=FACE_BOUND('',#186,.T.);
#186=EDGE_LOOP('',(#237,#238,#239,#240));
#187=PLANE('',#188);
#188=AXIS2_PLACEMENT_3D('',#189,#190,#191);
#189=CARTESIAN_POINT('',(-35.4224982051679,26.5875003774264,0.));
#190=DIRECTION('',(-1.,0.,0.));
#191=DIRECTION('',(0.,-1.,0.));
#192=FACE_BOUND('',#193,.T.);
#193=EDGE_LOOP('',(#241,#242,#243,#244));
#194=CYLINDRICAL_SURFACE('',#195,1.89999999850988);
#195=AXIS2_PLACEMENT_3D('',#196,#197,#198);
#196=CARTESIAN_POINT('',(-33.522498206658,-23.8124996285341,0.));
#197=DIRECTION('',(0.,0.,1.));
#198=DIRECTION('',(-1.,1.22464679914735E-16,0.));
#199=FACE_BOUND('',#200,.T.);
#200=EDGE_LOOP('',(#245,#246,#247,#248,#249,#250,#251,#252));
#201=PLANE('',#202);
#202=AXIS2_PLACEMENT_3D('',#203,#204,#205);
#203=CARTESIAN_POINT('',(0.,0.,1.2));
#204=DIRECTION('',(0.,0.,1.));
#205=DIRECTION('',(-1.,1.22464679914735E-16,0.));
#206=FACE_BOUND('',#207,.T.);
#207=EDGE_LOOP('',(#253,#254,#255,#256,#257,#258,#259,#260));
#208=PLANE('',#209);
#209=AXIS2_PLACEMENT_3D('',#210,#211,#212);
#210=CARTESIAN_POINT('',(0.,0.,0.));
#211=DIRECTION('',(0.,0.,1.));
#212=DIRECTION('',(-1.,1.22464679914735E-16,0.));
#213=ORIENTED_EDGE('',*,*,#261,.T.);
#214=ORIENTED_EDGE('',*,*,#262,.T.);
#215=ORIENTED_EDGE('',*,*,#263,.F.);
#216=ORIENTED_EDGE('',*,*,#264,.F.);
#217=ORIENTED_EDGE('',*,*,#265,.T.);
#218=ORIENTED_EDGE('',*,*,#266,.T.);
#219=ORIENTED_EDGE('',*,*,#267,.F.);
#220=ORIENTED_EDGE('',*,*,#262,.F.);
#221=ORIENTED_EDGE('',*,*,#268,.T.);
#222=ORIENTED_EDGE('',*,*,#269,.T.);
#223=ORIENTED_EDGE('',*,*,#270,.F.);
#224=ORIENTED_EDGE('',*,*,#266,.F.);
#225=ORIENTED_EDGE('',*,*,#271,.T.);
#226=ORIENTED_EDGE('',*,*,#272,.T.);
#227=ORIENTED_EDGE('',*,*,#273,.F.);
#228=ORIENTED_EDGE('',*,*,#269,.F.);
#229=ORIENTED_EDGE('',*,*,#274,.T.);
#230=ORIENTED_EDGE('',*,*,#275,.T.);
#231=ORIENTED_EDGE('',*,*,#276,.F.);
#232=ORIENTED_EDGE('',*,*,#272,.F.);
#233=ORIENTED_EDGE('',*,*,#277,.T.);
#234=ORIENTED_EDGE('',*,*,#278,.T.);
#235=ORIENTED_EDGE('',*,*,#279,.F.);
#236=ORIENTED_EDGE('',*,*,#275,.F.);
#237=ORIENTED_EDGE('',*,*,#280,.T.);
#238=ORIENTED_EDGE('',*,*,#281,.T.);
#239=ORIENTED_EDGE('',*,*,#282,.F.);
#240=ORIENTED_EDGE('',*,*,#278,.F.);
#241=ORIENTED_EDGE('',*,*,#283,.T.);
#242=ORIENTED_EDGE('',*,*,#264,.T.);
#243=ORIENTED_EDGE('',*,*,#284,.F.);
#244=ORIENTED_EDGE('',*,*,#281,.F.);
#245=ORIENTED_EDGE('',*,*,#263,.T.);
#246=ORIENTED_EDGE('',*,*,#267,.T.);
#247=ORIENTED_EDGE('',*,*,#270,.T.);
#248=ORIENTED_EDGE('',*,*,#273,.T.);
#249=ORIENTED_EDGE('',*,*,#276,.T.);
#250=ORIENTED_EDGE('',*,*,#279,.T.);
#251=ORIENTED_EDGE('',*,*,#282,.T.);
#252=ORIENTED_EDGE('',*,*,#284,.T.);
#253=ORIENTED_EDGE('',*,*,#283,.F.);
#254=ORIENTED_EDGE('',*,*,#280,.F.);
#255=ORIENTED_EDGE('',*,*,#277,.F.);
#256=ORIENTED_EDGE('',*,*,#274,.F.);
#257=ORIENTED_EDGE('',*,*,#271,.F.);
#258=ORIENTED_EDGE('',*,*,#268,.F.);
#259=ORIENTED_EDGE('',*,*,#265,.F.);
#260=ORIENTED_EDGE('',*,*,#261,.F.);
#261=EDGE_CURVE('',#285,#286,#287,.T.);
#262=EDGE_CURVE('',#286,#288,#289,.T.);
#263=EDGE_CURVE('',#290,#288,#291,.T.);
#264=EDGE_CURVE('',#285,#290,#292,.T.);
#265=EDGE_CURVE('',#286,#293,#294,.T.);
#266=EDGE_CURVE('',#293,#295,#296,.T.);
#267=EDGE_CURVE('',#288,#295,#297,.T.);
#268=EDGE_CURVE('',#293,#298,#299,.T.);
#269=EDGE_CURVE('',#298,#300,#301,.T.);
#270=EDGE_CURVE('',#295,#300,#302,.T.);
#271=EDGE_CURVE('',#298,#303,#304,.T.);
#272=EDGE_CURVE('',#303,#305,#306,.T.);
#273=EDGE_CURVE('',#300,#305,#307,.T.);
#274=EDGE_CURVE('',#303,#308,#309,.T.);
#275=EDGE_CURVE('',#308,#310,#311,.T.);
#276=EDGE_CURVE('',#305,#310,#312,.T.);
#277=EDGE_CURVE('',#308,#313,#314,.T.);
#278=EDGE_CURVE('',#313,#315,#316,.T.);
#279=EDGE_CURVE('',#310,#315,#317,.T.);
#280=EDGE_CURVE('',#313,#318,#319,.T.);
#281=EDGE_CURVE('',#318,#320,#321,.T.);
#282=EDGE_CURVE('',#315,#320,#322,.T.);
#283=EDGE_CURVE('',#318,#285,#323,.T.);
#284=EDGE_CURVE('',#320,#290,#324,.T.);
#285=VERTEX_POINT('',#325);
#286=VERTEX_POINT('',#326);
#287=LINE('',#327,#328);
#288=VERTEX_POINT('',#330);
#289=LINE('',#331,#332);
#290=VERTEX_POINT('',#334);
#291=LINE('',#335,#336);
#292=LINE('',#338,#339);
#293=VERTEX_POINT('',#341);
#294=CIRCLE('',#342,1.89999999850988);
#295=VERTEX_POINT('',#346);
#296=LINE('',#347,#348);
#297=CIRCLE('',#350,1.89999999850988);
#298=VERTEX_POINT('',#354);
#299=LINE('',#355,#356);
#300=VERTEX_POINT('',#358);
#301=LINE('',#359,#360);
#302=LINE('',#362,#363);
#303=VERTEX_POINT('',#365);
#304=CIRCLE('',#366,1.89999999850988);
#305=VERTEX_POINT('',#370);
#306=LINE('',#371,#372);
#307=CIRCLE('',#374,1.89999999850988);
#308=VERTEX_POINT('',#378);
#309=LINE('',#379,#380);
#310=VERTEX_POINT('',#382);
#311=LINE('',#383,#384);
#312=LINE('',#386,#387);
#313=VERTEX_POINT('',#389);
#314=CIRCLE('',#390,1.89999999850988);
#315=VERTEX_POINT('',#394);
#316=LINE('',#395,#396);
#317=CIRCLE('',#398,1.89999999850988);
#318=VERTEX_POINT('',#402);
#319=LINE('',#403,#404);
#320=VERTEX_POINT('',#406);
#321=LINE('',#407,#408);
#322=LINE('',#410,#411);
#323=CIRCLE('',#413,1.89999999850988);
#324=CIRCLE('',#417,1.89999999850988);
#325=CARTESIAN_POINT('',(-33.522498206658,-25.712499627044,0.));
#326=CARTESIAN_POINT('',(35.8775017993025,-25.712499627044,0.));
#327=CARTESIAN_POINT('',(-33.522498206658,-25.712499627044,0.));
#328=VECTOR('',#329,1.);
#329=DIRECTION('',(1.,-1.02383679495544E-16,0.));
#330=CARTESIAN_POINT('',(35.8775017993025,-25.712499627044,1.2));
#331=CARTESIAN_POINT('',(35.8775017993025,-25.712499627044,0.));
#332=VECTOR('',#333,1.);
#333=DIRECTION('',(0.,0.,1.));
#334=CARTESIAN_POINT('',(-33.522498206658,-25.712499627044,1.2));
#335=CARTESIAN_POINT('',(-33.522498206658,-25.712499627044,1.2));
#336=VECTOR('',#337,1.);
#337=DIRECTION('',(1.,-1.02383679495544E-16,0.));
#338=CARTESIAN_POINT('',(-33.522498206658,-25.712499627044,0.));
#339=VECTOR('',#340,1.);
#340=DIRECTION('',(0.,0.,1.));
#341=CARTESIAN_POINT('',(37.7775017978123,-23.8124996285341,0.));
#342=AXIS2_PLACEMENT_3D('',#343,#344,#345);
#343=CARTESIAN_POINT('',(35.8775017993025,-23.8124996285341,0.));
#344=DIRECTION('',(0.,0.,1.));
#345=DIRECTION('',(0.,-1.,0.));
#346=CARTESIAN_POINT('',(37.7775017978123,-23.8124996285341,1.2));
#347=CARTESIAN_POINT('',(37.7775017978123,-23.8124996285341,0.));
#348=VECTOR('',#349,1.);
#349=DIRECTION('',(0.,0.,1.));
#350=AXIS2_PLACEMENT_3D('',#351,#352,#353);
#351=CARTESIAN_POINT('',(35.8775017993025,-23.8124996285341,1.2));
#352=DIRECTION('',(0.,0.,1.));
#353=DIRECTION('',(0.,-1.,0.));
#354=CARTESIAN_POINT('',(37.7775017978123,26.5875003774264,0.));
#355=CARTESIAN_POINT('',(37.7775017978123,-23.8124996285341,0.));
#356=VECTOR('',#357,1.);
#357=DIRECTION('',(2.81961403046059E-16,1.,0.));
#358=CARTESIAN_POINT('',(37.7775017978123,26.5875003774264,1.2));
#359=CARTESIAN_POINT('',(37.7775017978123,26.5875003774264,0.));
#360=VECTOR('',#361,1.);
#361=DIRECTION('',(0.,0.,1.));
#362=CARTESIAN_POINT('',(37.7775017978123,-23.8124996285341,1.2));
#363=VECTOR('',#364,1.);
#364=DIRECTION('',(2.81961403046059E-16,1.,0.));
#365=CARTESIAN_POINT('',(35.8775017993025,28.4875003759363,0.));
#366=AXIS2_PLACEMENT_3D('',#367,#368,#369);
#367=CARTESIAN_POINT('',(35.8775017993025,26.5875003774264,0.));
#368=DIRECTION('',(0.,0.,1.));
#369=DIRECTION('',(1.,0.,0.));
#370=CARTESIAN_POINT('',(35.8775017993025,28.4875003759363,1.2));
#371=CARTESIAN_POINT('',(35.8775017993025,28.4875003759363,0.));
#372=VECTOR('',#373,1.);
#373=DIRECTION('',(0.,0.,1.));
#374=AXIS2_PLACEMENT_3D('',#375,#376,#377);
#375=CARTESIAN_POINT('',(35.8775017993025,26.5875003774264,1.2));
#376=DIRECTION('',(0.,0.,1.));
#377=DIRECTION('',(1.,0.,0.));
#378=CARTESIAN_POINT('',(-33.522498206658,28.4875003759363,0.));
#379=CARTESIAN_POINT('',(35.8775017993025,28.4875003759363,0.));
#380=VECTOR('',#381,1.);
#381=DIRECTION('',(-1.,5.1191839747772E-17,0.));
#382=CARTESIAN_POINT('',(-33.522498206658,28.4875003759363,1.2));
#383=CARTESIAN_POINT('',(-33.522498206658,28.4875003759363,0.));
#384=VECTOR('',#385,1.);
#385=DIRECTION('',(0.,0.,1.));
#386=CARTESIAN_POINT('',(35.8775017993025,28.4875003759363,1.2));
#387=VECTOR('',#388,1.);
#388=DIRECTION('',(-1.,5.1191839747772E-17,0.));
#389=CARTESIAN_POINT('',(-35.4224982051679,26.5875003774264,0.));
#390=AXIS2_PLACEMENT_3D('',#391,#392,#393);
#391=CARTESIAN_POINT('',(-33.522498206658,26.5875003774264,0.));
#392=DIRECTION('',(0.,0.,1.));
#393=DIRECTION('',(0.,1.,0.));
#394=CARTESIAN_POINT('',(-35.4224982051679,26.5875003774264,1.2));
#395=CARTESIAN_POINT('',(-35.4224982051679,26.5875003774264,0.));
#396=VECTOR('',#397,1.);
#397=DIRECTION('',(0.,0.,1.));
#398=AXIS2_PLACEMENT_3D('',#399,#400,#401);
#399=CARTESIAN_POINT('',(-33.522498206658,26.5875003774264,1.2));
#400=DIRECTION('',(0.,0.,1.));
#401=DIRECTION('',(0.,1.,0.));
#402=CARTESIAN_POINT('',(-35.4224982051679,-23.8124996285341,0.));
#403=CARTESIAN_POINT('',(-35.4224982051679,26.5875003774264,0.));
#404=VECTOR('',#405,1.);
#405=DIRECTION('',(0.,-1.,0.));
#406=CARTESIAN_POINT('',(-35.4224982051679,-23.8124996285341,1.2));
#407=CARTESIAN_POINT('',(-35.4224982051679,-23.8124996285341,0.));
#408=VECTOR('',#409,1.);
#409=DIRECTION('',(0.,0.,1.));
#410=CARTESIAN_POINT('',(-35.4224982051679,26.5875003774264,1.2));
#411=VECTOR('',#412,1.);
#412=DIRECTION('',(0.,-1.,0.));
#413=AXIS2_PLACEMENT_3D('',#414,#415,#416);
#414=CARTESIAN_POINT('',(-33.522498206658,-23.8124996285341,0.));
#415=DIRECTION('',(0.,0.,1.));
#416=DIRECTION('',(-1.,0.,0.));
#417=AXIS2_PLACEMENT_3D('',#418,#419,#420);
#418=CARTESIAN_POINT('',(-33.522498206658,-23.8124996285341,1.2));
#419=DIRECTION('',(0.,0.,1.));
#420=DIRECTION('',(-1.,0.,0.));
ENDSEC;
END-ISO-10303-21;
