ISO-10303-21;
HEADER;
FILE_DESCRIPTION(('STEP AP242'),
    '1');
FILE_NAME('Kailh LP Choc PC Keycap',
    '',
    ('UNSPECIFIED'),
    ('UNSPECIFIED'),
    'C3D Converter',
    'C3D Toolkit',
    '');
FILE_SCHEMA(('AP242_MANAGED_MODEL_BASED_3D_ENGINEERING_MIM_LF { 1 0 10303 442 1 1 4 }'));
ENDSEC;

DATA;
#1=SHAPE_REPRESENTATION('NONE',(#2),#6);
#2=AXIS2_PLACEMENT_3D('',#3,#4,#5);
#3=CARTESIAN_POINT('',(0.,0.,0.));
#4=DIRECTION('',(0.,0.,1.));
#5=DIRECTION('',(1.,0.,0.));
#6=(GEOMETRIC_REPRESENTATION_CONTEXT(3)GLOBAL_UNCERTAINTY_ASSIGNED_CONTEXT((#8))
GLOBAL_UNIT_ASSIGNED_CONTEXT((#7,#9,#10))REPRESENTATION_CONTEXT('NONE','NONE'));
#7=(LENGTH_UNIT()NAMED_UNIT(*)SI_UNIT(.MILLI.,.METRE.));
#8=UNCERTAINTY_MEASURE_WITH_UNIT(LENGTH_MEASURE(1.E-5),#7,'NONE','NONE');
#9=(NAMED_UNIT(*)PLANE_ANGLE_UNIT()SI_UNIT($,.RADIAN.));
#10=(NAMED_UNIT(*)SI_UNIT($,.STERADIAN.)SOLID_ANGLE_UNIT());
#11=SHAPE_DEFINITION_REPRESENTATION(#12,#1);
#12=PRODUCT_DEFINITION_SHAPE('NONE','NONE',#13);
#13=PRODUCT_DEFINITION('','UNSPECIFIED',#14,#17);
#14=PRODUCT_DEFINITION_FORMATION_WITH_SPECIFIED_SOURCE('ANY','UNSPECIFIED',#15,.NOT_KNOWN.);
#15=PRODUCT('Document','Document','NONE',(#20));
#16=PRODUCT_RELATED_PRODUCT_CATEGORY('detail','',(#15));
#17=DESIGN_CONTEXT('detailed design',#18,'design');
#18=APPLICATION_CONTEXT('configuration controlled 3d designs of mechanical parts and assemblies');
#19=APPLICATION_PROTOCOL_DEFINITION('international standard','config_control_design',
1994,#18);
#20=MECHANICAL_CONTEXT('NONE',#18,'mechanical');
#21=CC_DESIGN_DATE_AND_TIME_ASSIGNMENT(#22,#26,(#13));
#22=DATE_AND_TIME(#23,#24);
#23=CALENDAR_DATE(0,1,1);
#24=LOCAL_TIME(0,0,0.,#25);
#25=COORDINATED_UNIVERSAL_TIME_OFFSET(0,0,.AHEAD.);
#26=DATE_TIME_ROLE('creation_date');
#27=CC_DESIGN_APPROVAL(#28,(#13));
#28=APPROVAL(#29,'UNSPECIFIED');
#29=APPROVAL_STATUS('not_yet_approved');
#30=APPROVAL_DATE_TIME(#31,#28);
#31=DATE_AND_TIME(#32,#33);
#32=CALENDAR_DATE(0,1,1);
#33=LOCAL_TIME(0,0,0.,#34);
#34=COORDINATED_UNIVERSAL_TIME_OFFSET(0,0,.AHEAD.);
#35=MANIFOLD_SOLID_BREP('',#36);
#36=CLOSED_SHELL('',(#48,#57,#66,#75,#84,#93,#102,#111,#120,#129,#138,#147,#156,
#165,#174,#183,#192,#201,#210,#219,#228,#237,#246,#255,#264,#273,#282,#291,#300,
#309,#318,#327,#336,#345,#354,#363,#372,#381,#390,#399,#408,#417,#426,#435,#444,
#453,#462,#471,#480,#489,#498,#507,#516,#525));
#37=COLOUR_RGB('',0.901960784313725,0.901960784313725,0.901960784313725);
#38=FILL_AREA_STYLE_COLOUR('',#37);
#39=FILL_AREA_STYLE($,(#38));
#40=SURFACE_STYLE_FILL_AREA(#39);
#41=SURFACE_SIDE_STYLE('',(#40));
#42=SURFACE_STYLE_USAGE(.BOTH.,#41);
#43=PRESENTATION_STYLE_ASSIGNMENT((#42));
#44=MECHANICAL_DESIGN_GEOMETRIC_PRESENTATION_REPRESENTATION('NONE',(#45,#56,#65,
#74,#83,#92,#101,#110,#119,#128,#137,#146,#155,#164,#173,#182,#191,#200,#209,#218,
#227,#236,#245,#254,#263,#272,#281,#290,#299,#308,#317,#326,#335,#344,#353,#362,
#371,#380,#389,#398,#407,#416,#425,#434,#443,#452,#461,#470,#479,#488,#497,#506,
#515,#524,#533),#6);
#45=STYLED_ITEM('',(#43),#35);
#46=ADVANCED_BREP_SHAPE_REPRESENTATION('NONE',(#35),#6);
#47=SHAPE_REPRESENTATION_RELATIONSHIP('','',#1,#46);
#48=ADVANCED_FACE('',(#534,#536,#538,#540),#542,.F.);
#49=COLOUR_RGB('',0.901960784313725,0.901960784313725,0.901960784313725);
#50=FILL_AREA_STYLE_COLOUR('',#49);
#51=FILL_AREA_STYLE($,(#50));
#52=SURFACE_STYLE_FILL_AREA(#51);
#53=SURFACE_SIDE_STYLE('',(#52));
#54=SURFACE_STYLE_USAGE(.BOTH.,#53);
#55=PRESENTATION_STYLE_ASSIGNMENT((#54));
#56=STYLED_ITEM('',(#55),#48);
#57=ADVANCED_FACE('',(#547,#549),#551,.F.);
#58=COLOUR_RGB('',0.901960784313725,0.901960784313725,0.901960784313725);
#59=FILL_AREA_STYLE_COLOUR('',#58);
#60=FILL_AREA_STYLE($,(#59));
#61=SURFACE_STYLE_FILL_AREA(#60);
#62=SURFACE_SIDE_STYLE('',(#61));
#63=SURFACE_STYLE_USAGE(.BOTH.,#62);
#64=PRESENTATION_STYLE_ASSIGNMENT((#63));
#65=STYLED_ITEM('',(#64),#57);
#66=ADVANCED_FACE('',(#556),#558,.T.);
#67=COLOUR_RGB('',0.901960784313725,0.901960784313725,0.901960784313725);
#68=FILL_AREA_STYLE_COLOUR('',#67);
#69=FILL_AREA_STYLE($,(#68));
#70=SURFACE_STYLE_FILL_AREA(#69);
#71=SURFACE_SIDE_STYLE('',(#70));
#72=SURFACE_STYLE_USAGE(.BOTH.,#71);
#73=PRESENTATION_STYLE_ASSIGNMENT((#72));
#74=STYLED_ITEM('',(#73),#66);
#75=ADVANCED_FACE('',(#563),#565,.T.);
#76=COLOUR_RGB('',0.901960784313725,0.901960784313725,0.901960784313725);
#77=FILL_AREA_STYLE_COLOUR('',#76);
#78=FILL_AREA_STYLE($,(#77));
#79=SURFACE_STYLE_FILL_AREA(#78);
#80=SURFACE_SIDE_STYLE('',(#79));
#81=SURFACE_STYLE_USAGE(.BOTH.,#80);
#82=PRESENTATION_STYLE_ASSIGNMENT((#81));
#83=STYLED_ITEM('',(#82),#75);
#84=ADVANCED_FACE('',(#570),#572,.T.);
#85=COLOUR_RGB('',0.901960784313725,0.901960784313725,0.901960784313725);
#86=FILL_AREA_STYLE_COLOUR('',#85);
#87=FILL_AREA_STYLE($,(#86));
#88=SURFACE_STYLE_FILL_AREA(#87);
#89=SURFACE_SIDE_STYLE('',(#88));
#90=SURFACE_STYLE_USAGE(.BOTH.,#89);
#91=PRESENTATION_STYLE_ASSIGNMENT((#90));
#92=STYLED_ITEM('',(#91),#84);
#93=ADVANCED_FACE('',(#577),#579,.T.);
#94=COLOUR_RGB('',0.901960784313725,0.901960784313725,0.901960784313725);
#95=FILL_AREA_STYLE_COLOUR('',#94);
#96=FILL_AREA_STYLE($,(#95));
#97=SURFACE_STYLE_FILL_AREA(#96);
#98=SURFACE_SIDE_STYLE('',(#97));
#99=SURFACE_STYLE_USAGE(.BOTH.,#98);
#100=PRESENTATION_STYLE_ASSIGNMENT((#99));
#101=STYLED_ITEM('',(#100),#93);
#102=ADVANCED_FACE('',(#584),#586,.T.);
#103=COLOUR_RGB('',0.901960784313725,0.901960784313725,0.901960784313725);
#104=FILL_AREA_STYLE_COLOUR('',#103);
#105=FILL_AREA_STYLE($,(#104));
#106=SURFACE_STYLE_FILL_AREA(#105);
#107=SURFACE_SIDE_STYLE('',(#106));
#108=SURFACE_STYLE_USAGE(.BOTH.,#107);
#109=PRESENTATION_STYLE_ASSIGNMENT((#108));
#110=STYLED_ITEM('',(#109),#102);
#111=ADVANCED_FACE('',(#591),#593,.T.);
#112=COLOUR_RGB('',0.901960784313725,0.901960784313725,0.901960784313725);
#113=FILL_AREA_STYLE_COLOUR('',#112);
#114=FILL_AREA_STYLE($,(#113));
#115=SURFACE_STYLE_FILL_AREA(#114);
#116=SURFACE_SIDE_STYLE('',(#115));
#117=SURFACE_STYLE_USAGE(.BOTH.,#116);
#118=PRESENTATION_STYLE_ASSIGNMENT((#117));
#119=STYLED_ITEM('',(#118),#111);
#120=ADVANCED_FACE('',(#598),#600,.T.);
#121=COLOUR_RGB('',0.901960784313725,0.901960784313725,0.901960784313725);
#122=FILL_AREA_STYLE_COLOUR('',#121);
#123=FILL_AREA_STYLE($,(#122));
#124=SURFACE_STYLE_FILL_AREA(#123);
#125=SURFACE_SIDE_STYLE('',(#124));
#126=SURFACE_STYLE_USAGE(.BOTH.,#125);
#127=PRESENTATION_STYLE_ASSIGNMENT((#126));
#128=STYLED_ITEM('',(#127),#120);
#129=ADVANCED_FACE('',(#605),#607,.T.);
#130=COLOUR_RGB('',0.901960784313725,0.901960784313725,0.901960784313725);
#131=FILL_AREA_STYLE_COLOUR('',#130);
#132=FILL_AREA_STYLE($,(#131));
#133=SURFACE_STYLE_FILL_AREA(#132);
#134=SURFACE_SIDE_STYLE('',(#133));
#135=SURFACE_STYLE_USAGE(.BOTH.,#134);
#136=PRESENTATION_STYLE_ASSIGNMENT((#135));
#137=STYLED_ITEM('',(#136),#129);
#138=ADVANCED_FACE('',(#612),#614,.T.);
#139=COLOUR_RGB('',0.901960784313725,0.901960784313725,0.901960784313725);
#140=FILL_AREA_STYLE_COLOUR('',#139);
#141=FILL_AREA_STYLE($,(#140));
#142=SURFACE_STYLE_FILL_AREA(#141);
#143=SURFACE_SIDE_STYLE('',(#142));
#144=SURFACE_STYLE_USAGE(.BOTH.,#143);
#145=PRESENTATION_STYLE_ASSIGNMENT((#144));
#146=STYLED_ITEM('',(#145),#138);
#147=ADVANCED_FACE('',(#619),#621,.T.);
#148=COLOUR_RGB('',0.901960784313725,0.901960784313725,0.901960784313725);
#149=FILL_AREA_STYLE_COLOUR('',#148);
#150=FILL_AREA_STYLE($,(#149));
#151=SURFACE_STYLE_FILL_AREA(#150);
#152=SURFACE_SIDE_STYLE('',(#151));
#153=SURFACE_STYLE_USAGE(.BOTH.,#152);
#154=PRESENTATION_STYLE_ASSIGNMENT((#153));
#155=STYLED_ITEM('',(#154),#147);
#156=ADVANCED_FACE('',(#626),#628,.T.);
#157=COLOUR_RGB('',0.901960784313725,0.901960784313725,0.901960784313725);
#158=FILL_AREA_STYLE_COLOUR('',#157);
#159=FILL_AREA_STYLE($,(#158));
#160=SURFACE_STYLE_FILL_AREA(#159);
#161=SURFACE_SIDE_STYLE('',(#160));
#162=SURFACE_STYLE_USAGE(.BOTH.,#161);
#163=PRESENTATION_STYLE_ASSIGNMENT((#162));
#164=STYLED_ITEM('',(#163),#156);
#165=ADVANCED_FACE('',(#633),#635,.T.);
#166=COLOUR_RGB('',0.901960784313725,0.901960784313725,0.901960784313725);
#167=FILL_AREA_STYLE_COLOUR('',#166);
#168=FILL_AREA_STYLE($,(#167));
#169=SURFACE_STYLE_FILL_AREA(#168);
#170=SURFACE_SIDE_STYLE('',(#169));
#171=SURFACE_STYLE_USAGE(.BOTH.,#170);
#172=PRESENTATION_STYLE_ASSIGNMENT((#171));
#173=STYLED_ITEM('',(#172),#165);
#174=ADVANCED_FACE('',(#640),#642,.T.);
#175=COLOUR_RGB('',0.901960784313725,0.901960784313725,0.901960784313725);
#176=FILL_AREA_STYLE_COLOUR('',#175);
#177=FILL_AREA_STYLE($,(#176));
#178=SURFACE_STYLE_FILL_AREA(#177);
#179=SURFACE_SIDE_STYLE('',(#178));
#180=SURFACE_STYLE_USAGE(.BOTH.,#179);
#181=PRESENTATION_STYLE_ASSIGNMENT((#180));
#182=STYLED_ITEM('',(#181),#174);
#183=ADVANCED_FACE('',(#647),#649,.T.);
#184=COLOUR_RGB('',0.901960784313725,0.901960784313725,0.901960784313725);
#185=FILL_AREA_STYLE_COLOUR('',#184);
#186=FILL_AREA_STYLE($,(#185));
#187=SURFACE_STYLE_FILL_AREA(#186);
#188=SURFACE_SIDE_STYLE('',(#187));
#189=SURFACE_STYLE_USAGE(.BOTH.,#188);
#190=PRESENTATION_STYLE_ASSIGNMENT((#189));
#191=STYLED_ITEM('',(#190),#183);
#192=ADVANCED_FACE('',(#654),#656,.T.);
#193=COLOUR_RGB('',0.901960784313725,0.901960784313725,0.901960784313725);
#194=FILL_AREA_STYLE_COLOUR('',#193);
#195=FILL_AREA_STYLE($,(#194));
#196=SURFACE_STYLE_FILL_AREA(#195);
#197=SURFACE_SIDE_STYLE('',(#196));
#198=SURFACE_STYLE_USAGE(.BOTH.,#197);
#199=PRESENTATION_STYLE_ASSIGNMENT((#198));
#200=STYLED_ITEM('',(#199),#192);
#201=ADVANCED_FACE('',(#661),#663,.T.);
#202=COLOUR_RGB('',0.901960784313725,0.901960784313725,0.901960784313725);
#203=FILL_AREA_STYLE_COLOUR('',#202);
#204=FILL_AREA_STYLE($,(#203));
#205=SURFACE_STYLE_FILL_AREA(#204);
#206=SURFACE_SIDE_STYLE('',(#205));
#207=SURFACE_STYLE_USAGE(.BOTH.,#206);
#208=PRESENTATION_STYLE_ASSIGNMENT((#207));
#209=STYLED_ITEM('',(#208),#201);
#210=ADVANCED_FACE('',(#668),#670,.T.);
#211=COLOUR_RGB('',0.901960784313725,0.901960784313725,0.901960784313725);
#212=FILL_AREA_STYLE_COLOUR('',#211);
#213=FILL_AREA_STYLE($,(#212));
#214=SURFACE_STYLE_FILL_AREA(#213);
#215=SURFACE_SIDE_STYLE('',(#214));
#216=SURFACE_STYLE_USAGE(.BOTH.,#215);
#217=PRESENTATION_STYLE_ASSIGNMENT((#216));
#218=STYLED_ITEM('',(#217),#210);
#219=ADVANCED_FACE('',(#675),#677,.T.);
#220=COLOUR_RGB('',0.901960784313725,0.901960784313725,0.901960784313725);
#221=FILL_AREA_STYLE_COLOUR('',#220);
#222=FILL_AREA_STYLE($,(#221));
#223=SURFACE_STYLE_FILL_AREA(#222);
#224=SURFACE_SIDE_STYLE('',(#223));
#225=SURFACE_STYLE_USAGE(.BOTH.,#224);
#226=PRESENTATION_STYLE_ASSIGNMENT((#225));
#227=STYLED_ITEM('',(#226),#219);
#228=ADVANCED_FACE('',(#682),#684,.T.);
#229=COLOUR_RGB('',0.901960784313725,0.901960784313725,0.901960784313725);
#230=FILL_AREA_STYLE_COLOUR('',#229);
#231=FILL_AREA_STYLE($,(#230));
#232=SURFACE_STYLE_FILL_AREA(#231);
#233=SURFACE_SIDE_STYLE('',(#232));
#234=SURFACE_STYLE_USAGE(.BOTH.,#233);
#235=PRESENTATION_STYLE_ASSIGNMENT((#234));
#236=STYLED_ITEM('',(#235),#228);
#237=ADVANCED_FACE('',(#689),#691,.T.);
#238=COLOUR_RGB('',0.901960784313725,0.901960784313725,0.901960784313725);
#239=FILL_AREA_STYLE_COLOUR('',#238);
#240=FILL_AREA_STYLE($,(#239));
#241=SURFACE_STYLE_FILL_AREA(#240);
#242=SURFACE_SIDE_STYLE('',(#241));
#243=SURFACE_STYLE_USAGE(.BOTH.,#242);
#244=PRESENTATION_STYLE_ASSIGNMENT((#243));
#245=STYLED_ITEM('',(#244),#237);
#246=ADVANCED_FACE('',(#696),#698,.T.);
#247=COLOUR_RGB('',0.901960784313725,0.901960784313725,0.901960784313725);
#248=FILL_AREA_STYLE_COLOUR('',#247);
#249=FILL_AREA_STYLE($,(#248));
#250=SURFACE_STYLE_FILL_AREA(#249);
#251=SURFACE_SIDE_STYLE('',(#250));
#252=SURFACE_STYLE_USAGE(.BOTH.,#251);
#253=PRESENTATION_STYLE_ASSIGNMENT((#252));
#254=STYLED_ITEM('',(#253),#246);
#255=ADVANCED_FACE('',(#703),#705,.T.);
#256=COLOUR_RGB('',0.901960784313725,0.901960784313725,0.901960784313725);
#257=FILL_AREA_STYLE_COLOUR('',#256);
#258=FILL_AREA_STYLE($,(#257));
#259=SURFACE_STYLE_FILL_AREA(#258);
#260=SURFACE_SIDE_STYLE('',(#259));
#261=SURFACE_STYLE_USAGE(.BOTH.,#260);
#262=PRESENTATION_STYLE_ASSIGNMENT((#261));
#263=STYLED_ITEM('',(#262),#255);
#264=ADVANCED_FACE('',(#710),#712,.T.);
#265=COLOUR_RGB('',0.901960784313725,0.901960784313725,0.901960784313725);
#266=FILL_AREA_STYLE_COLOUR('',#265);
#267=FILL_AREA_STYLE($,(#266));
#268=SURFACE_STYLE_FILL_AREA(#267);
#269=SURFACE_SIDE_STYLE('',(#268));
#270=SURFACE_STYLE_USAGE(.BOTH.,#269);
#271=PRESENTATION_STYLE_ASSIGNMENT((#270));
#272=STYLED_ITEM('',(#271),#264);
#273=ADVANCED_FACE('',(#717),#719,.T.);
#274=COLOUR_RGB('',0.901960784313725,0.901960784313725,0.901960784313725);
#275=FILL_AREA_STYLE_COLOUR('',#274);
#276=FILL_AREA_STYLE($,(#275));
#277=SURFACE_STYLE_FILL_AREA(#276);
#278=SURFACE_SIDE_STYLE('',(#277));
#279=SURFACE_STYLE_USAGE(.BOTH.,#278);
#280=PRESENTATION_STYLE_ASSIGNMENT((#279));
#281=STYLED_ITEM('',(#280),#273);
#282=ADVANCED_FACE('',(#724),#726,.T.);
#283=COLOUR_RGB('',0.901960784313725,0.901960784313725,0.901960784313725);
#284=FILL_AREA_STYLE_COLOUR('',#283);
#285=FILL_AREA_STYLE($,(#284));
#286=SURFACE_STYLE_FILL_AREA(#285);
#287=SURFACE_SIDE_STYLE('',(#286));
#288=SURFACE_STYLE_USAGE(.BOTH.,#287);
#289=PRESENTATION_STYLE_ASSIGNMENT((#288));
#290=STYLED_ITEM('',(#289),#282);
#291=ADVANCED_FACE('',(#731),#733,.T.);
#292=COLOUR_RGB('',0.901960784313725,0.901960784313725,0.901960784313725);
#293=FILL_AREA_STYLE_COLOUR('',#292);
#294=FILL_AREA_STYLE($,(#293));
#295=SURFACE_STYLE_FILL_AREA(#294);
#296=SURFACE_SIDE_STYLE('',(#295));
#297=SURFACE_STYLE_USAGE(.BOTH.,#296);
#298=PRESENTATION_STYLE_ASSIGNMENT((#297));
#299=STYLED_ITEM('',(#298),#291);
#300=ADVANCED_FACE('',(#738),#740,.T.);
#301=COLOUR_RGB('',0.901960784313725,0.901960784313725,0.901960784313725);
#302=FILL_AREA_STYLE_COLOUR('',#301);
#303=FILL_AREA_STYLE($,(#302));
#304=SURFACE_STYLE_FILL_AREA(#303);
#305=SURFACE_SIDE_STYLE('',(#304));
#306=SURFACE_STYLE_USAGE(.BOTH.,#305);
#307=PRESENTATION_STYLE_ASSIGNMENT((#306));
#308=STYLED_ITEM('',(#307),#300);
#309=ADVANCED_FACE('',(#745),#747,.T.);
#310=COLOUR_RGB('',0.901960784313725,0.901960784313725,0.901960784313725);
#311=FILL_AREA_STYLE_COLOUR('',#310);
#312=FILL_AREA_STYLE($,(#311));
#313=SURFACE_STYLE_FILL_AREA(#312);
#314=SURFACE_SIDE_STYLE('',(#313));
#315=SURFACE_STYLE_USAGE(.BOTH.,#314);
#316=PRESENTATION_STYLE_ASSIGNMENT((#315));
#317=STYLED_ITEM('',(#316),#309);
#318=ADVANCED_FACE('',(#752),#754,.T.);
#319=COLOUR_RGB('',0.901960784313725,0.901960784313725,0.901960784313725);
#320=FILL_AREA_STYLE_COLOUR('',#319);
#321=FILL_AREA_STYLE($,(#320));
#322=SURFACE_STYLE_FILL_AREA(#321);
#323=SURFACE_SIDE_STYLE('',(#322));
#324=SURFACE_STYLE_USAGE(.BOTH.,#323);
#325=PRESENTATION_STYLE_ASSIGNMENT((#324));
#326=STYLED_ITEM('',(#325),#318);
#327=ADVANCED_FACE('',(#759),#761,.T.);
#328=COLOUR_RGB('',0.901960784313725,0.901960784313725,0.901960784313725);
#329=FILL_AREA_STYLE_COLOUR('',#328);
#330=FILL_AREA_STYLE($,(#329));
#331=SURFACE_STYLE_FILL_AREA(#330);
#332=SURFACE_SIDE_STYLE('',(#331));
#333=SURFACE_STYLE_USAGE(.BOTH.,#332);
#334=PRESENTATION_STYLE_ASSIGNMENT((#333));
#335=STYLED_ITEM('',(#334),#327);
#336=ADVANCED_FACE('',(#766),#768,.T.);
#337=COLOUR_RGB('',0.901960784313725,0.901960784313725,0.901960784313725);
#338=FILL_AREA_STYLE_COLOUR('',#337);
#339=FILL_AREA_STYLE($,(#338));
#340=SURFACE_STYLE_FILL_AREA(#339);
#341=SURFACE_SIDE_STYLE('',(#340));
#342=SURFACE_STYLE_USAGE(.BOTH.,#341);
#343=PRESENTATION_STYLE_ASSIGNMENT((#342));
#344=STYLED_ITEM('',(#343),#336);
#345=ADVANCED_FACE('',(#773),#775,.T.);
#346=COLOUR_RGB('',0.901960784313725,0.901960784313725,0.901960784313725);
#347=FILL_AREA_STYLE_COLOUR('',#346);
#348=FILL_AREA_STYLE($,(#347));
#349=SURFACE_STYLE_FILL_AREA(#348);
#350=SURFACE_SIDE_STYLE('',(#349));
#351=SURFACE_STYLE_USAGE(.BOTH.,#350);
#352=PRESENTATION_STYLE_ASSIGNMENT((#351));
#353=STYLED_ITEM('',(#352),#345);
#354=ADVANCED_FACE('',(#780),#782,.T.);
#355=COLOUR_RGB('',0.901960784313725,0.901960784313725,0.901960784313725);
#356=FILL_AREA_STYLE_COLOUR('',#355);
#357=FILL_AREA_STYLE($,(#356));
#358=SURFACE_STYLE_FILL_AREA(#357);
#359=SURFACE_SIDE_STYLE('',(#358));
#360=SURFACE_STYLE_USAGE(.BOTH.,#359);
#361=PRESENTATION_STYLE_ASSIGNMENT((#360));
#362=STYLED_ITEM('',(#361),#354);
#363=ADVANCED_FACE('',(#787),#789,.T.);
#364=COLOUR_RGB('',0.901960784313725,0.901960784313725,0.901960784313725);
#365=FILL_AREA_STYLE_COLOUR('',#364);
#366=FILL_AREA_STYLE($,(#365));
#367=SURFACE_STYLE_FILL_AREA(#366);
#368=SURFACE_SIDE_STYLE('',(#367));
#369=SURFACE_STYLE_USAGE(.BOTH.,#368);
#370=PRESENTATION_STYLE_ASSIGNMENT((#369));
#371=STYLED_ITEM('',(#370),#363);
#372=ADVANCED_FACE('',(#794),#796,.T.);
#373=COLOUR_RGB('',0.901960784313725,0.901960784313725,0.901960784313725);
#374=FILL_AREA_STYLE_COLOUR('',#373);
#375=FILL_AREA_STYLE($,(#374));
#376=SURFACE_STYLE_FILL_AREA(#375);
#377=SURFACE_SIDE_STYLE('',(#376));
#378=SURFACE_STYLE_USAGE(.BOTH.,#377);
#379=PRESENTATION_STYLE_ASSIGNMENT((#378));
#380=STYLED_ITEM('',(#379),#372);
#381=ADVANCED_FACE('',(#801),#803,.T.);
#382=COLOUR_RGB('',0.901960784313725,0.901960784313725,0.901960784313725);
#383=FILL_AREA_STYLE_COLOUR('',#382);
#384=FILL_AREA_STYLE($,(#383));
#385=SURFACE_STYLE_FILL_AREA(#384);
#386=SURFACE_SIDE_STYLE('',(#385));
#387=SURFACE_STYLE_USAGE(.BOTH.,#386);
#388=PRESENTATION_STYLE_ASSIGNMENT((#387));
#389=STYLED_ITEM('',(#388),#381);
#390=ADVANCED_FACE('',(#808),#810,.T.);
#391=COLOUR_RGB('',0.901960784313725,0.901960784313725,0.901960784313725);
#392=FILL_AREA_STYLE_COLOUR('',#391);
#393=FILL_AREA_STYLE($,(#392));
#394=SURFACE_STYLE_FILL_AREA(#393);
#395=SURFACE_SIDE_STYLE('',(#394));
#396=SURFACE_STYLE_USAGE(.BOTH.,#395);
#397=PRESENTATION_STYLE_ASSIGNMENT((#396));
#398=STYLED_ITEM('',(#397),#390);
#399=ADVANCED_FACE('',(#815),#817,.T.);
#400=COLOUR_RGB('',0.901960784313725,0.901960784313725,0.901960784313725);
#401=FILL_AREA_STYLE_COLOUR('',#400);
#402=FILL_AREA_STYLE($,(#401));
#403=SURFACE_STYLE_FILL_AREA(#402);
#404=SURFACE_SIDE_STYLE('',(#403));
#405=SURFACE_STYLE_USAGE(.BOTH.,#404);
#406=PRESENTATION_STYLE_ASSIGNMENT((#405));
#407=STYLED_ITEM('',(#406),#399);
#408=ADVANCED_FACE('',(#822),#824,.T.);
#409=COLOUR_RGB('',0.901960784313725,0.901960784313725,0.901960784313725);
#410=FILL_AREA_STYLE_COLOUR('',#409);
#411=FILL_AREA_STYLE($,(#410));
#412=SURFACE_STYLE_FILL_AREA(#411);
#413=SURFACE_SIDE_STYLE('',(#412));
#414=SURFACE_STYLE_USAGE(.BOTH.,#413);
#415=PRESENTATION_STYLE_ASSIGNMENT((#414));
#416=STYLED_ITEM('',(#415),#408);
#417=ADVANCED_FACE('',(#829),#831,.T.);
#418=COLOUR_RGB('',0.901960784313725,0.901960784313725,0.901960784313725);
#419=FILL_AREA_STYLE_COLOUR('',#418);
#420=FILL_AREA_STYLE($,(#419));
#421=SURFACE_STYLE_FILL_AREA(#420);
#422=SURFACE_SIDE_STYLE('',(#421));
#423=SURFACE_STYLE_USAGE(.BOTH.,#422);
#424=PRESENTATION_STYLE_ASSIGNMENT((#423));
#425=STYLED_ITEM('',(#424),#417);
#426=ADVANCED_FACE('',(#836),#838,.T.);
#427=COLOUR_RGB('',0.901960784313725,0.901960784313725,0.901960784313725);
#428=FILL_AREA_STYLE_COLOUR('',#427);
#429=FILL_AREA_STYLE($,(#428));
#430=SURFACE_STYLE_FILL_AREA(#429);
#431=SURFACE_SIDE_STYLE('',(#430));
#432=SURFACE_STYLE_USAGE(.BOTH.,#431);
#433=PRESENTATION_STYLE_ASSIGNMENT((#432));
#434=STYLED_ITEM('',(#433),#426);
#435=ADVANCED_FACE('',(#843),#845,.T.);
#436=COLOUR_RGB('',0.901960784313725,0.901960784313725,0.901960784313725);
#437=FILL_AREA_STYLE_COLOUR('',#436);
#438=FILL_AREA_STYLE($,(#437));
#439=SURFACE_STYLE_FILL_AREA(#438);
#440=SURFACE_SIDE_STYLE('',(#439));
#441=SURFACE_STYLE_USAGE(.BOTH.,#440);
#442=PRESENTATION_STYLE_ASSIGNMENT((#441));
#443=STYLED_ITEM('',(#442),#435);
#444=ADVANCED_FACE('',(#850),#852,.T.);
#445=COLOUR_RGB('',0.901960784313725,0.901960784313725,0.901960784313725);
#446=FILL_AREA_STYLE_COLOUR('',#445);
#447=FILL_AREA_STYLE($,(#446));
#448=SURFACE_STYLE_FILL_AREA(#447);
#449=SURFACE_SIDE_STYLE('',(#448));
#450=SURFACE_STYLE_USAGE(.BOTH.,#449);
#451=PRESENTATION_STYLE_ASSIGNMENT((#450));
#452=STYLED_ITEM('',(#451),#444);
#453=ADVANCED_FACE('',(#857),#859,.T.);
#454=COLOUR_RGB('',0.901960784313725,0.901960784313725,0.901960784313725);
#455=FILL_AREA_STYLE_COLOUR('',#454);
#456=FILL_AREA_STYLE($,(#455));
#457=SURFACE_STYLE_FILL_AREA(#456);
#458=SURFACE_SIDE_STYLE('',(#457));
#459=SURFACE_STYLE_USAGE(.BOTH.,#458);
#460=PRESENTATION_STYLE_ASSIGNMENT((#459));
#461=STYLED_ITEM('',(#460),#453);
#462=ADVANCED_FACE('',(#864),#866,.T.);
#463=COLOUR_RGB('',0.901960784313725,0.901960784313725,0.901960784313725);
#464=FILL_AREA_STYLE_COLOUR('',#463);
#465=FILL_AREA_STYLE($,(#464));
#466=SURFACE_STYLE_FILL_AREA(#465);
#467=SURFACE_SIDE_STYLE('',(#466));
#468=SURFACE_STYLE_USAGE(.BOTH.,#467);
#469=PRESENTATION_STYLE_ASSIGNMENT((#468));
#470=STYLED_ITEM('',(#469),#462);
#471=ADVANCED_FACE('',(#871),#873,.T.);
#472=COLOUR_RGB('',0.901960784313725,0.901960784313725,0.901960784313725);
#473=FILL_AREA_STYLE_COLOUR('',#472);
#474=FILL_AREA_STYLE($,(#473));
#475=SURFACE_STYLE_FILL_AREA(#474);
#476=SURFACE_SIDE_STYLE('',(#475));
#477=SURFACE_STYLE_USAGE(.BOTH.,#476);
#478=PRESENTATION_STYLE_ASSIGNMENT((#477));
#479=STYLED_ITEM('',(#478),#471);
#480=ADVANCED_FACE('',(#878),#880,.T.);
#481=COLOUR_RGB('',0.901960784313725,0.901960784313725,0.901960784313725);
#482=FILL_AREA_STYLE_COLOUR('',#481);
#483=FILL_AREA_STYLE($,(#482));
#484=SURFACE_STYLE_FILL_AREA(#483);
#485=SURFACE_SIDE_STYLE('',(#484));
#486=SURFACE_STYLE_USAGE(.BOTH.,#485);
#487=PRESENTATION_STYLE_ASSIGNMENT((#486));
#488=STYLED_ITEM('',(#487),#480);
#489=ADVANCED_FACE('',(#885),#887,.T.);
#490=COLOUR_RGB('',0.901960784313725,0.901960784313725,0.901960784313725);
#491=FILL_AREA_STYLE_COLOUR('',#490);
#492=FILL_AREA_STYLE($,(#491));
#493=SURFACE_STYLE_FILL_AREA(#492);
#494=SURFACE_SIDE_STYLE('',(#493));
#495=SURFACE_STYLE_USAGE(.BOTH.,#494);
#496=PRESENTATION_STYLE_ASSIGNMENT((#495));
#497=STYLED_ITEM('',(#496),#489);
#498=ADVANCED_FACE('',(#892),#894,.T.);
#499=COLOUR_RGB('',0.901960784313725,0.901960784313725,0.901960784313725);
#500=FILL_AREA_STYLE_COLOUR('',#499);
#501=FILL_AREA_STYLE($,(#500));
#502=SURFACE_STYLE_FILL_AREA(#501);
#503=SURFACE_SIDE_STYLE('',(#502));
#504=SURFACE_STYLE_USAGE(.BOTH.,#503);
#505=PRESENTATION_STYLE_ASSIGNMENT((#504));
#506=STYLED_ITEM('',(#505),#498);
#507=ADVANCED_FACE('',(#899),#901,.T.);
#508=COLOUR_RGB('',0.901960784313725,0.901960784313725,0.901960784313725);
#509=FILL_AREA_STYLE_COLOUR('',#508);
#510=FILL_AREA_STYLE($,(#509));
#511=SURFACE_STYLE_FILL_AREA(#510);
#512=SURFACE_SIDE_STYLE('',(#511));
#513=SURFACE_STYLE_USAGE(.BOTH.,#512);
#514=PRESENTATION_STYLE_ASSIGNMENT((#513));
#515=STYLED_ITEM('',(#514),#507);
#516=ADVANCED_FACE('',(#906),#908,.T.);
#517=COLOUR_RGB('',0.901960784313725,0.901960784313725,0.901960784313725);
#518=FILL_AREA_STYLE_COLOUR('',#517);
#519=FILL_AREA_STYLE($,(#518));
#520=SURFACE_STYLE_FILL_AREA(#519);
#521=SURFACE_SIDE_STYLE('',(#520));
#522=SURFACE_STYLE_USAGE(.BOTH.,#521);
#523=PRESENTATION_STYLE_ASSIGNMENT((#522));
#524=STYLED_ITEM('',(#523),#516);
#525=ADVANCED_FACE('',(#913),#915,.T.);
#526=COLOUR_RGB('',0.901960784313725,0.901960784313725,0.901960784313725);
#527=FILL_AREA_STYLE_COLOUR('',#526);
#528=FILL_AREA_STYLE($,(#527));
#529=SURFACE_STYLE_FILL_AREA(#528);
#530=SURFACE_SIDE_STYLE('',(#529));
#531=SURFACE_STYLE_USAGE(.BOTH.,#530);
#532=PRESENTATION_STYLE_ASSIGNMENT((#531));
#533=STYLED_ITEM('',(#532),#525);
#534=FACE_BOUND('',#535,.T.);
#535=EDGE_LOOP('',(#920,#921,#922,#923,#924,#925,#926,#927));
#536=FACE_BOUND('',#537,.T.);
#537=EDGE_LOOP('',(#928));
#538=FACE_BOUND('',#539,.T.);
#539=EDGE_LOOP('',(#929,#930,#931,#932,#933,#934,#935,#936));
#540=FACE_BOUND('',#541,.T.);
#541=EDGE_LOOP('',(#937,#938,#939,#940,#941,#942,#943,#944));
#542=PLANE('',#543);
#543=AXIS2_PLACEMENT_3D('',#544,#545,#546);
#544=CARTESIAN_POINT('',(0.,0.,5.8));
#545=DIRECTION('',(0.,0.,1.));
#546=DIRECTION('',(-1.,1.22464679914735E-16,0.));
#547=FACE_OUTER_BOUND('',#548,.T.);
#548=EDGE_LOOP('',(#945));
#549=FACE_OUTER_BOUND('',#550,.T.);
#550=EDGE_LOOP('',(#946));
#551=CYLINDRICAL_SURFACE('',#552,1.);
#552=AXIS2_PLACEMENT_3D('',#553,#554,#555);
#553=CARTESIAN_POINT('',(0.,0.,6.8));
#554=DIRECTION('',(0.,0.,-1.));
#555=DIRECTION('',(-1.,0.,0.));
#556=FACE_BOUND('',#557,.T.);
#557=EDGE_LOOP('',(#947,#948,#949,#950));
#558=PLANE('',#559);
#559=AXIS2_PLACEMENT_3D('',#560,#561,#562);
#560=CARTESIAN_POINT('',(6.25,7.25,5.8));
#561=DIRECTION('',(1.4210854715202E-16,1.,0.));
#562=DIRECTION('',(-1.,1.4210854715202E-16,0.));
#563=FACE_BOUND('',#564,.T.);
#564=EDGE_LOOP('',(#951,#952,#953,#954));
#565=CYLINDRICAL_SURFACE('',#566,1.);
#566=AXIS2_PLACEMENT_3D('',#567,#568,#569);
#567=CARTESIAN_POINT('',(6.25,6.25,5.8));
#568=DIRECTION('',(0.,0.,1.));
#569=DIRECTION('',(1.,-1.22464679914735E-16,0.));
#570=FACE_BOUND('',#571,.T.);
#571=EDGE_LOOP('',(#955,#956,#957,#958));
#572=PLANE('',#573);
#573=AXIS2_PLACEMENT_3D('',#574,#575,#576);
#574=CARTESIAN_POINT('',(7.25,-6.25,5.8));
#575=DIRECTION('',(1.,-4.2632564145606E-16,0.));
#576=DIRECTION('',(4.2632564145606E-16,1.,0.));
#577=FACE_BOUND('',#578,.T.);
#578=EDGE_LOOP('',(#959,#960,#961,#962));
#579=CYLINDRICAL_SURFACE('',#580,1.);
#580=AXIS2_PLACEMENT_3D('',#581,#582,#583);
#581=CARTESIAN_POINT('',(6.25,-6.25,5.8));
#582=DIRECTION('',(0.,0.,1.));
#583=DIRECTION('',(-1.22464679914735E-16,-1.,0.));
#584=FACE_BOUND('',#585,.T.);
#585=EDGE_LOOP('',(#963,#964,#965,#966));
#586=PLANE('',#587);
#587=AXIS2_PLACEMENT_3D('',#588,#589,#590);
#588=CARTESIAN_POINT('',(-6.25,-7.25,5.8));
#589=DIRECTION('',(-1.4210854715202E-16,-1.,0.));
#590=DIRECTION('',(1.,-1.4210854715202E-16,0.));
#591=FACE_BOUND('',#592,.T.);
#592=EDGE_LOOP('',(#967,#968,#969,#970));
#593=CYLINDRICAL_SURFACE('',#594,1.);
#594=AXIS2_PLACEMENT_3D('',#595,#596,#597);
#595=CARTESIAN_POINT('',(-6.25,-6.25,5.8));
#596=DIRECTION('',(0.,0.,1.));
#597=DIRECTION('',(-1.,1.22464679914735E-16,0.));
#598=FACE_BOUND('',#599,.T.);
#599=EDGE_LOOP('',(#971,#972,#973,#974));
#600=PLANE('',#601);
#601=AXIS2_PLACEMENT_3D('',#602,#603,#604);
#602=CARTESIAN_POINT('',(-7.25,6.25,5.8));
#603=DIRECTION('',(-1.,4.2632564145606E-16,0.));
#604=DIRECTION('',(-4.2632564145606E-16,-1.,0.));
#605=FACE_BOUND('',#606,.T.);
#606=EDGE_LOOP('',(#975,#976,#977,#978));
#607=CYLINDRICAL_SURFACE('',#608,1.);
#608=AXIS2_PLACEMENT_3D('',#609,#610,#611);
#609=CARTESIAN_POINT('',(-6.25,6.25,5.8));
#610=DIRECTION('',(0.,0.,1.));
#611=DIRECTION('',(1.22464679914735E-16,1.,0.));
#612=FACE_BOUND('',#613,.T.);
#613=EDGE_LOOP('',(#979,#980,#981,#982));
#614=PLANE('',#615);
#615=AXIS2_PLACEMENT_3D('',#616,#617,#618);
#616=CARTESIAN_POINT('',(-2.25000000000001,1.3,6.38058282745583));
#617=DIRECTION('',(0.707106781186503,0.707106781186592,-1.11869087681212E-15));
#618=DIRECTION('',(7.77156117237609E-16,7.77156117237609E-16,1.));
#619=FACE_BOUND('',#620,.T.);
#620=EDGE_LOOP('',(#983,#984,#985,#986));
#621=PLANE('',#622);
#622=AXIS2_PLACEMENT_3D('',#623,#624,#625);
#623=CARTESIAN_POINT('',(-2.45000000000002,1.5,2.2));
#624=DIRECTION('',(0.,1.,0.));
#625=DIRECTION('',(0.,0.,1.));
#626=FACE_BOUND('',#627,.T.);
#627=EDGE_LOOP('',(#987,#988,#989,#990));
#628=PLANE('',#629);
#629=AXIS2_PLACEMENT_3D('',#630,#631,#632);
#630=CARTESIAN_POINT('',(-3.45000000000001,1.3,2.2));
#631=DIRECTION('',(-0.707106781186544,0.707106781186551,3.92523114670942E-17));
#632=DIRECTION('',(0.,0.,1.));
#633=FACE_BOUND('',#634,.T.);
#634=EDGE_LOOP('',(#991,#992,#993,#994));
#635=PLANE('',#636);
#636=AXIS2_PLACEMENT_3D('',#637,#638,#639);
#637=CARTESIAN_POINT('',(-3.45000000000001,1.3,2.2));
#638=DIRECTION('',(-1.,0.,0.));
#639=DIRECTION('',(0.,0.,1.));
#640=FACE_BOUND('',#641,.T.);
#641=EDGE_LOOP('',(#995,#996,#997,#998));
#642=PLANE('',#643);
#643=AXIS2_PLACEMENT_3D('',#644,#645,#646);
#644=CARTESIAN_POINT('',(-3.45000000000002,-1.3,6.39754238491595));
#645=DIRECTION('',(-0.707106781186507,-0.707106781186588,-1.09906472107858E-15));
#646=DIRECTION('',(-7.77156117237609E-16,-7.77156117237609E-16,1.));
#647=FACE_BOUND('',#648,.T.);
#648=EDGE_LOOP('',(#999,#1000,#1001,#1002));
#649=PLANE('',#650);
#650=AXIS2_PLACEMENT_3D('',#651,#652,#653);
#651=CARTESIAN_POINT('',(-3.25000000000101,-1.5,2.2));
#652=DIRECTION('',(0.,-1.,0.));
#653=DIRECTION('',(0.,0.,1.));
#654=FACE_BOUND('',#655,.T.);
#655=EDGE_LOOP('',(#1003,#1004,#1005,#1006));
#656=PLANE('',#657);
#657=AXIS2_PLACEMENT_3D('',#658,#659,#660);
#658=CARTESIAN_POINT('',(-2.45,-1.5,6.27582052118817));
#659=DIRECTION('',(0.707106781186544,-0.707106781186551,9.81307786677364E-17));
#660=DIRECTION('',(0.,0.,1.));
#661=FACE_BOUND('',#662,.T.);
#662=EDGE_LOOP('',(#1007,#1008,#1009,#1010));
#663=PLANE('',#664);
#664=AXIS2_PLACEMENT_3D('',#665,#666,#667);
#665=CARTESIAN_POINT('',(-2.25000000000001,-1.3,2.2));
#666=DIRECTION('',(1.,0.,0.));
#667=DIRECTION('',(0.,0.,1.));
#668=FACE_BOUND('',#669,.T.);
#669=EDGE_LOOP('',(#1011,#1012,#1013,#1014));
#670=PLANE('',#671);
#671=AXIS2_PLACEMENT_3D('',#672,#673,#674);
#672=CARTESIAN_POINT('',(3.24999999999998,-1.5,6.39754238491596));
#673=DIRECTION('',(0.70710678118652,-0.707106781186575,-1.9626155733551E-17));
#674=DIRECTION('',(0.,0.,1.));
#675=FACE_BOUND('',#676,.T.);
#676=EDGE_LOOP('',(#1015,#1016,#1017,#1018));
#677=PLANE('',#678);
#678=AXIS2_PLACEMENT_3D('',#679,#680,#681);
#679=CARTESIAN_POINT('',(3.45,-1.3,2.2));
#680=DIRECTION('',(1.,0.,0.));
#681=DIRECTION('',(0.,0.,1.));
#682=FACE_BOUND('',#683,.T.);
#683=EDGE_LOOP('',(#1019,#1020,#1021,#1022));
#684=PLANE('',#685);
#685=AXIS2_PLACEMENT_3D('',#686,#687,#688);
#686=CARTESIAN_POINT('',(3.24999999999997,1.5,2.2));
#687=DIRECTION('',(0.707106781186513,0.707106781186582,-6.47663139207035E-16));
#688=DIRECTION('',(4.44089209850062E-16,4.44089209850062E-16,1.));
#689=FACE_BOUND('',#690,.T.);
#690=EDGE_LOOP('',(#1023,#1024,#1025,#1026));
#691=PLANE('',#692);
#692=AXIS2_PLACEMENT_3D('',#693,#694,#695);
#693=CARTESIAN_POINT('',(3.24999999999999,1.5,2.2));
#694=DIRECTION('',(0.,1.,0.));
#695=DIRECTION('',(0.,0.,1.));
#696=FACE_BOUND('',#697,.T.);
#697=EDGE_LOOP('',(#1027,#1028,#1029,#1030));
#698=PLANE('',#699);
#699=AXIS2_PLACEMENT_3D('',#700,#701,#702);
#700=CARTESIAN_POINT('',(2.45000000000002,1.5,6.3805828273585));
#701=DIRECTION('',(-0.707106781186517,0.707106781186578,-3.92523114670893E-17));
#702=DIRECTION('',(0.,0.,1.));
#703=FACE_BOUND('',#704,.T.);
#704=EDGE_LOOP('',(#1031,#1032,#1033,#1034));
#705=PLANE('',#706);
#706=AXIS2_PLACEMENT_3D('',#707,#708,#709);
#707=CARTESIAN_POINT('',(2.24999999999999,1.3,2.2));
#708=DIRECTION('',(-1.,0.,0.));
#709=DIRECTION('',(0.,0.,1.));
#710=FACE_BOUND('',#711,.T.);
#711=EDGE_LOOP('',(#1035,#1036,#1037,#1038));
#712=PLANE('',#713);
#713=AXIS2_PLACEMENT_3D('',#714,#715,#716);
#714=CARTESIAN_POINT('',(2.25,-1.3,6.27582052128974));
#715=DIRECTION('',(-0.707106781186501,-0.707106781186594,-1.78598017175269E-15));
#716=DIRECTION('',(-1.22124532708767E-15,-1.22124532708767E-15,1.));
#717=FACE_BOUND('',#718,.T.);
#718=EDGE_LOOP('',(#1039,#1040,#1041,#1042));
#719=PLANE('',#720);
#720=AXIS2_PLACEMENT_3D('',#721,#722,#723);
#721=CARTESIAN_POINT('',(2.45,-1.5,2.2));
#722=DIRECTION('',(0.,-1.,0.));
#723=DIRECTION('',(0.,0.,1.));
#724=FACE_BOUND('',#725,.T.);
#725=EDGE_LOOP('',(#1043));
#726=PLANE('',#727);
#727=AXIS2_PLACEMENT_3D('',#728,#729,#730);
#728=CARTESIAN_POINT('',(0.,0.,6.8));
#729=DIRECTION('',(0.,0.,-1.));
#730=DIRECTION('',(-1.,0.,0.));
#731=FACE_BOUND('',#732,.T.);
#732=EDGE_LOOP('',(#1044,#1045,#1046,#1047));
#733=PLANE('',#734);
#734=AXIS2_PLACEMENT_3D('',#735,#736,#737);
#735=CARTESIAN_POINT('',(10.25,7.25,9.3));
#736=DIRECTION('',(1.22543801653368E-16,0.707106781186548,0.707106781186547));
#737=DIRECTION('',(-1.,1.73303106282951E-16,0.));
#738=FACE_BOUND('',#739,.T.);
#739=EDGE_LOOP('',(#1048,#1049,#1050));
#740=CONICAL_SURFACE('',#741,0.5,0.785398163397448);
#741=AXIS2_PLACEMENT_3D('',#742,#743,#744);
#742=CARTESIAN_POINT('',(6.25,6.25,9.8));
#743=DIRECTION('',(0.,0.,-1.));
#744=DIRECTION('',(-1.,0.,0.));
#745=FACE_BOUND('',#746,.T.);
#746=EDGE_LOOP('',(#1051,#1052,#1053,#1054));
#747=PLANE('',#748);
#748=AXIS2_PLACEMENT_3D('',#749,#750,#751);
#749=CARTESIAN_POINT('',(7.24999999999999,-10.25,9.3));
#750=DIRECTION('',(0.707106781186547,-3.0635950413342E-16,0.707106781186547));
#751=DIRECTION('',(4.33257765707378E-16,1.,0.));
#752=FACE_BOUND('',#753,.T.);
#753=EDGE_LOOP('',(#1055,#1056,#1057));
#754=CONICAL_SURFACE('',#755,0.5,0.785398163397448);
#755=AXIS2_PLACEMENT_3D('',#756,#757,#758);
#756=CARTESIAN_POINT('',(6.25,-6.25,9.8));
#757=DIRECTION('',(0.,0.,-1.));
#758=DIRECTION('',(0.,1.,0.));
#759=FACE_BOUND('',#760,.T.);
#760=EDGE_LOOP('',(#1058,#1059,#1060,#1061));
#761=PLANE('',#762);
#762=AXIS2_PLACEMENT_3D('',#763,#764,#765);
#763=CARTESIAN_POINT('',(-10.25,-7.25,9.3));
#764=DIRECTION('',(-1.22543801653368E-16,-0.707106781186548,0.707106781186547));
#765=DIRECTION('',(1.,-1.73303106282951E-16,0.));
#766=FACE_BOUND('',#767,.T.);
#767=EDGE_LOOP('',(#1062,#1063,#1064));
#768=CONICAL_SURFACE('',#769,0.5,0.785398163397448);
#769=AXIS2_PLACEMENT_3D('',#770,#771,#772);
#770=CARTESIAN_POINT('',(-6.25,-6.25,9.8));
#771=DIRECTION('',(0.,0.,-1.));
#772=DIRECTION('',(1.,0.,0.));
#773=FACE_BOUND('',#774,.T.);
#774=EDGE_LOOP('',(#1065,#1066,#1067,#1068));
#775=PLANE('',#776);
#776=AXIS2_PLACEMENT_3D('',#777,#778,#779);
#777=CARTESIAN_POINT('',(-7.25,10.25,9.3));
#778=DIRECTION('',(-0.707106781186547,3.0635950413342E-16,0.707106781186547));
#779=DIRECTION('',(-4.33257765707378E-16,-1.,0.));
#780=FACE_BOUND('',#781,.T.);
#781=EDGE_LOOP('',(#1069,#1070,#1071));
#782=CONICAL_SURFACE('',#783,0.5,0.785398163397448);
#783=AXIS2_PLACEMENT_3D('',#784,#785,#786);
#784=CARTESIAN_POINT('',(-6.25,6.25,9.8));
#785=DIRECTION('',(0.,0.,-1.));
#786=DIRECTION('',(0.,-1.,0.));
#787=FACE_BOUND('',#788,.T.);
#788=EDGE_LOOP('',(#1072,#1073,#1074));
#789=B_SPLINE_SURFACE_WITH_KNOTS('',1,1,(
(#790,#791),
(#792,#793)),
.UNSPECIFIED.,.F.,.F.,.F.,
(2,2),
(2,2),
(0.,0.282842712474622),
(0.,0.282842712474651),
.UNSPECIFIED.);
#790=CARTESIAN_POINT('',(-2.25000000000001,1.3,2.2));
#791=CARTESIAN_POINT('',(-2.45,1.50000000000001,2.2));
#792=CARTESIAN_POINT('',(-2.45000000000004,1.3,2.));
#793=CARTESIAN_POINT('',(-2.45,1.50000000000001,2.2));
#794=FACE_BOUND('',#795,.T.);
#795=EDGE_LOOP('',(#1075,#1076,#1077,#1078));
#796=PLANE('',#797);
#797=AXIS2_PLACEMENT_3D('',#798,#799,#800);
#798=CARTESIAN_POINT('',(-2.44999999999999,1.50000000000001,2.2));
#799=DIRECTION('',(0.,0.707106781186544,-0.707106781186552));
#800=DIRECTION('',(1.,-3.33066907387547E-16,3.33066907387547E-16));
#801=FACE_BOUND('',#802,.T.);
#802=EDGE_LOOP('',(#1079,#1080,#1081));
#803=B_SPLINE_SURFACE_WITH_KNOTS('',1,1,(
(#804,#805),
(#806,#807)),
.UNSPECIFIED.,.F.,.F.,.F.,
(2,2),
(2,2),
(0.,0.282842712474631),
(0.,0.282842712474622),
.UNSPECIFIED.);
#804=CARTESIAN_POINT('',(-3.25000000000001,1.3,2.));
#805=CARTESIAN_POINT('',(-3.24999999999998,1.5,2.2));
#806=CARTESIAN_POINT('',(-3.45000000000001,1.3,2.2));
#807=CARTESIAN_POINT('',(-3.24999999999998,1.5,2.2));
#808=FACE_BOUND('',#809,.T.);
#809=EDGE_LOOP('',(#1082,#1083,#1084,#1085));
#810=PLANE('',#811);
#811=AXIS2_PLACEMENT_3D('',#812,#813,#814);
#812=CARTESIAN_POINT('',(-3.45,1.3,2.2));
#813=DIRECTION('',(-0.707106781186541,3.92523114670948E-17,-0.707106781186554));
#814=DIRECTION('',(0.,1.,0.));
#815=FACE_BOUND('',#816,.T.);
#816=EDGE_LOOP('',(#1086,#1087,#1088));
#817=B_SPLINE_SURFACE_WITH_KNOTS('',1,1,(
(#818,#819),
(#820,#821)),
.UNSPECIFIED.,.F.,.F.,.F.,
(2,2),
(2,2),
(0.,0.282842712474631),
(0.,0.282842712474642),
.UNSPECIFIED.);
#818=CARTESIAN_POINT('',(-3.45000000000001,-1.3,2.2));
#819=CARTESIAN_POINT('',(-3.25000000000001,-1.5,2.2));
#820=CARTESIAN_POINT('',(-3.24999999999998,-1.29999999999999,2.));
#821=CARTESIAN_POINT('',(-3.25000000000001,-1.5,2.2));
#822=FACE_BOUND('',#823,.T.);
#823=EDGE_LOOP('',(#1089,#1090,#1091,#1092));
#824=PLANE('',#825);
#825=AXIS2_PLACEMENT_3D('',#826,#827,#828);
#826=CARTESIAN_POINT('',(-3.25000000000001,-1.5,2.2));
#827=DIRECTION('',(4.71027737605127E-16,-0.707106781186536,-0.707106781186559));
#828=DIRECTION('',(1.,3.33066907387547E-16,3.33066907387547E-16));
#829=FACE_BOUND('',#830,.T.);
#830=EDGE_LOOP('',(#1093,#1094,#1095));
#831=B_SPLINE_SURFACE_WITH_KNOTS('',1,1,(
(#832,#833),
(#834,#835)),
.UNSPECIFIED.,.F.,.F.,.F.,
(2,2),
(2,2),
(0.,0.282842712474624),
(0.,0.282842712474632),
.UNSPECIFIED.);
#832=CARTESIAN_POINT('',(-2.45000000000001,-1.5,2.2));
#833=CARTESIAN_POINT('',(-2.25000000000001,-1.3,2.2));
#834=CARTESIAN_POINT('',(-2.45000000000001,-1.3,2.));
#835=CARTESIAN_POINT('',(-2.25000000000001,-1.3,2.2));
#836=FACE_BOUND('',#837,.T.);
#837=EDGE_LOOP('',(#1096,#1097,#1098,#1099));
#838=PLANE('',#839);
#839=AXIS2_PLACEMENT_3D('',#840,#841,#842);
#840=CARTESIAN_POINT('',(-2.25000000000001,-1.3,2.2));
#841=DIRECTION('',(0.707106781186543,0.,-0.707106781186552));
#842=DIRECTION('',(0.,1.,0.));
#843=FACE_BOUND('',#844,.T.);
#844=EDGE_LOOP('',(#1100,#1101,#1102));
#845=B_SPLINE_SURFACE_WITH_KNOTS('',1,1,(
(#846,#847),
(#848,#849)),
.UNSPECIFIED.,.F.,.F.,.F.,
(2,2),
(2,2),
(0.,0.282842712474617),
(0.,0.282842712474631),
.UNSPECIFIED.);
#846=CARTESIAN_POINT('',(3.25,-1.5,2.2));
#847=CARTESIAN_POINT('',(3.44999999999999,-1.3,2.2));
#848=CARTESIAN_POINT('',(3.24999999999999,-1.3,2.));
#849=CARTESIAN_POINT('',(3.44999999999999,-1.3,2.2));
#850=FACE_BOUND('',#851,.T.);
#851=EDGE_LOOP('',(#1103,#1104,#1105,#1106));
#852=PLANE('',#853);
#853=AXIS2_PLACEMENT_3D('',#854,#855,#856);
#854=CARTESIAN_POINT('',(3.44999999999998,-1.3,2.2));
#855=DIRECTION('',(0.707106781186568,-1.1775693440128E-16,-0.707106781186527));
#856=DIRECTION('',(1.11022302462516E-16,1.,-1.11022302462516E-16));
#857=FACE_BOUND('',#858,.T.);
#858=EDGE_LOOP('',(#1107,#1108,#1109));
#859=B_SPLINE_SURFACE_WITH_KNOTS('',1,1,(
(#860,#861),
(#862,#863)),
.UNSPECIFIED.,.F.,.F.,.F.,
(2,2),
(2,2),
(0.,0.28284271247462),
(0.,0.282842712474622),
.UNSPECIFIED.);
#860=CARTESIAN_POINT('',(3.25,1.3,2.));
#861=CARTESIAN_POINT('',(3.44999999999999,1.3,2.2));
#862=CARTESIAN_POINT('',(3.24999999999999,1.5,2.2));
#863=CARTESIAN_POINT('',(3.44999999999999,1.3,2.2));
#864=FACE_BOUND('',#865,.T.);
#865=EDGE_LOOP('',(#1110,#1111,#1112,#1113));
#866=PLANE('',#867);
#867=AXIS2_PLACEMENT_3D('',#868,#869,#870);
#868=CARTESIAN_POINT('',(3.25,1.5,2.2));
#869=DIRECTION('',(9.42055475210266E-16,0.707106781186549,-0.707106781186546));
#870=DIRECTION('',(1.,-6.66133814775095E-16,6.66133814775095E-16));
#871=FACE_BOUND('',#872,.T.);
#872=EDGE_LOOP('',(#1114,#1115,#1116));
#873=B_SPLINE_SURFACE_WITH_KNOTS('',1,1,(
(#874,#875),
(#876,#877)),
.UNSPECIFIED.,.F.,.F.,.F.,
(2,2),
(2,2),
(0.,0.28284271247462),
(0.,0.282842712474647),
.UNSPECIFIED.);
#874=CARTESIAN_POINT('',(2.45000000000001,1.5,2.2));
#875=CARTESIAN_POINT('',(2.24999999999999,1.3,2.2));
#876=CARTESIAN_POINT('',(2.45,1.3,2.));
#877=CARTESIAN_POINT('',(2.24999999999999,1.3,2.2));
#878=FACE_BOUND('',#879,.T.);
#879=EDGE_LOOP('',(#1117,#1118,#1119,#1120));
#880=PLANE('',#881);
#881=AXIS2_PLACEMENT_3D('',#882,#883,#884);
#882=CARTESIAN_POINT('',(2.25000000000001,1.3,2.2));
#883=DIRECTION('',(-0.707106781186529,1.17756934401282E-16,-0.707106781186565));
#884=DIRECTION('',(-1.11022302462516E-16,1.,-1.11022302462516E-16));
#885=FACE_BOUND('',#886,.T.);
#886=EDGE_LOOP('',(#1121,#1122,#1123));
#887=B_SPLINE_SURFACE_WITH_KNOTS('',1,1,(
(#888,#889),
(#890,#891)),
.UNSPECIFIED.,.F.,.F.,.F.,
(2,2),
(2,2),
(0.,0.282842712474656),
(0.,0.282842712474652),
.UNSPECIFIED.);
#888=CARTESIAN_POINT('',(2.24999999999999,-1.3,2.2));
#889=CARTESIAN_POINT('',(2.45000000000002,-1.5,2.2));
#890=CARTESIAN_POINT('',(2.44999999999999,-1.3,2.));
#891=CARTESIAN_POINT('',(2.45000000000002,-1.5,2.2));
#892=FACE_BOUND('',#893,.T.);
#893=EDGE_LOOP('',(#1124,#1125,#1126,#1127));
#894=PLANE('',#895);
#895=AXIS2_PLACEMENT_3D('',#896,#897,#898);
#896=CARTESIAN_POINT('',(2.45000000000001,-1.5,2.2));
#897=DIRECTION('',(9.42055475210269E-16,-0.707106781186556,-0.707106781186539));
#898=DIRECTION('',(1.,6.66133814775095E-16,6.66133814775095E-16));
#899=FACE_BOUND('',#900,.T.);
#900=EDGE_LOOP('',(#1128,#1129,#1130,#1131));
#901=PLANE('',#902);
#902=AXIS2_PLACEMENT_3D('',#903,#904,#905);
#903=CARTESIAN_POINT('',(0.,0.,10.3));
#904=DIRECTION('',(0.,0.,1.));
#905=DIRECTION('',(-1.,1.22464679914735E-16,0.));
#906=FACE_BOUND('',#907,.T.);
#907=EDGE_LOOP('',(#1132,#1133,#1134,#1135));
#908=PLANE('',#909);
#909=AXIS2_PLACEMENT_3D('',#910,#911,#912);
#910=CARTESIAN_POINT('',(-2.45000000000001,1.3,2.));
#911=DIRECTION('',(0.,0.,-1.));
#912=DIRECTION('',(0.,1.,0.));
#913=FACE_BOUND('',#914,.T.);
#914=EDGE_LOOP('',(#1136,#1137,#1138,#1139));
#915=PLANE('',#916);
#916=AXIS2_PLACEMENT_3D('',#917,#918,#919);
#917=CARTESIAN_POINT('',(3.25,1.3,2.));
#918=DIRECTION('',(0.,0.,-1.));
#919=DIRECTION('',(0.,1.,0.));
#920=ORIENTED_EDGE('',*,*,#1140,.F.);
#921=ORIENTED_EDGE('',*,*,#1141,.F.);
#922=ORIENTED_EDGE('',*,*,#1142,.F.);
#923=ORIENTED_EDGE('',*,*,#1143,.F.);
#924=ORIENTED_EDGE('',*,*,#1144,.F.);
#925=ORIENTED_EDGE('',*,*,#1145,.F.);
#926=ORIENTED_EDGE('',*,*,#1146,.F.);
#927=ORIENTED_EDGE('',*,*,#1147,.F.);
#928=ORIENTED_EDGE('',*,*,#1148,.T.);
#929=ORIENTED_EDGE('',*,*,#1149,.T.);
#930=ORIENTED_EDGE('',*,*,#1150,.T.);
#931=ORIENTED_EDGE('',*,*,#1151,.T.);
#932=ORIENTED_EDGE('',*,*,#1152,.T.);
#933=ORIENTED_EDGE('',*,*,#1153,.T.);
#934=ORIENTED_EDGE('',*,*,#1154,.T.);
#935=ORIENTED_EDGE('',*,*,#1155,.T.);
#936=ORIENTED_EDGE('',*,*,#1156,.T.);
#937=ORIENTED_EDGE('',*,*,#1157,.T.);
#938=ORIENTED_EDGE('',*,*,#1158,.T.);
#939=ORIENTED_EDGE('',*,*,#1159,.T.);
#940=ORIENTED_EDGE('',*,*,#1160,.T.);
#941=ORIENTED_EDGE('',*,*,#1161,.T.);
#942=ORIENTED_EDGE('',*,*,#1162,.T.);
#943=ORIENTED_EDGE('',*,*,#1163,.T.);
#944=ORIENTED_EDGE('',*,*,#1164,.T.);
#945=ORIENTED_EDGE('',*,*,#1165,.F.);
#946=ORIENTED_EDGE('',*,*,#1148,.F.);
#947=ORIENTED_EDGE('',*,*,#1166,.F.);
#948=ORIENTED_EDGE('',*,*,#1167,.F.);
#949=ORIENTED_EDGE('',*,*,#1140,.T.);
#950=ORIENTED_EDGE('',*,*,#1168,.T.);
#951=ORIENTED_EDGE('',*,*,#1169,.F.);
#952=ORIENTED_EDGE('',*,*,#1170,.F.);
#953=ORIENTED_EDGE('',*,*,#1141,.T.);
#954=ORIENTED_EDGE('',*,*,#1167,.T.);
#955=ORIENTED_EDGE('',*,*,#1171,.F.);
#956=ORIENTED_EDGE('',*,*,#1172,.F.);
#957=ORIENTED_EDGE('',*,*,#1142,.T.);
#958=ORIENTED_EDGE('',*,*,#1170,.T.);
#959=ORIENTED_EDGE('',*,*,#1173,.F.);
#960=ORIENTED_EDGE('',*,*,#1174,.F.);
#961=ORIENTED_EDGE('',*,*,#1143,.T.);
#962=ORIENTED_EDGE('',*,*,#1172,.T.);
#963=ORIENTED_EDGE('',*,*,#1175,.F.);
#964=ORIENTED_EDGE('',*,*,#1176,.F.);
#965=ORIENTED_EDGE('',*,*,#1144,.T.);
#966=ORIENTED_EDGE('',*,*,#1174,.T.);
#967=ORIENTED_EDGE('',*,*,#1177,.F.);
#968=ORIENTED_EDGE('',*,*,#1178,.F.);
#969=ORIENTED_EDGE('',*,*,#1145,.T.);
#970=ORIENTED_EDGE('',*,*,#1176,.T.);
#971=ORIENTED_EDGE('',*,*,#1179,.F.);
#972=ORIENTED_EDGE('',*,*,#1180,.F.);
#973=ORIENTED_EDGE('',*,*,#1146,.T.);
#974=ORIENTED_EDGE('',*,*,#1178,.T.);
#975=ORIENTED_EDGE('',*,*,#1181,.F.);
#976=ORIENTED_EDGE('',*,*,#1168,.F.);
#977=ORIENTED_EDGE('',*,*,#1147,.T.);
#978=ORIENTED_EDGE('',*,*,#1180,.T.);
#979=ORIENTED_EDGE('',*,*,#1149,.F.);
#980=ORIENTED_EDGE('',*,*,#1182,.T.);
#981=ORIENTED_EDGE('',*,*,#1183,.T.);
#982=ORIENTED_EDGE('',*,*,#1184,.F.);
#983=ORIENTED_EDGE('',*,*,#1150,.F.);
#984=ORIENTED_EDGE('',*,*,#1184,.T.);
#985=ORIENTED_EDGE('',*,*,#1185,.T.);
#986=ORIENTED_EDGE('',*,*,#1186,.T.);
#987=ORIENTED_EDGE('',*,*,#1151,.F.);
#988=ORIENTED_EDGE('',*,*,#1186,.F.);
#989=ORIENTED_EDGE('',*,*,#1187,.F.);
#990=ORIENTED_EDGE('',*,*,#1188,.T.);
#991=ORIENTED_EDGE('',*,*,#1152,.F.);
#992=ORIENTED_EDGE('',*,*,#1188,.F.);
#993=ORIENTED_EDGE('',*,*,#1189,.T.);
#994=ORIENTED_EDGE('',*,*,#1190,.F.);
#995=ORIENTED_EDGE('',*,*,#1153,.F.);
#996=ORIENTED_EDGE('',*,*,#1190,.T.);
#997=ORIENTED_EDGE('',*,*,#1191,.F.);
#998=ORIENTED_EDGE('',*,*,#1192,.F.);
#999=ORIENTED_EDGE('',*,*,#1154,.F.);
#1000=ORIENTED_EDGE('',*,*,#1192,.T.);
#1001=ORIENTED_EDGE('',*,*,#1193,.T.);
#1002=ORIENTED_EDGE('',*,*,#1194,.F.);
#1003=ORIENTED_EDGE('',*,*,#1155,.F.);
#1004=ORIENTED_EDGE('',*,*,#1194,.T.);
#1005=ORIENTED_EDGE('',*,*,#1195,.F.);
#1006=ORIENTED_EDGE('',*,*,#1196,.F.);
#1007=ORIENTED_EDGE('',*,*,#1156,.F.);
#1008=ORIENTED_EDGE('',*,*,#1196,.T.);
#1009=ORIENTED_EDGE('',*,*,#1197,.T.);
#1010=ORIENTED_EDGE('',*,*,#1182,.F.);
#1011=ORIENTED_EDGE('',*,*,#1157,.F.);
#1012=ORIENTED_EDGE('',*,*,#1198,.T.);
#1013=ORIENTED_EDGE('',*,*,#1199,.F.);
#1014=ORIENTED_EDGE('',*,*,#1200,.F.);
#1015=ORIENTED_EDGE('',*,*,#1158,.F.);
#1016=ORIENTED_EDGE('',*,*,#1200,.T.);
#1017=ORIENTED_EDGE('',*,*,#1201,.T.);
#1018=ORIENTED_EDGE('',*,*,#1202,.T.);
#1019=ORIENTED_EDGE('',*,*,#1159,.F.);
#1020=ORIENTED_EDGE('',*,*,#1202,.F.);
#1021=ORIENTED_EDGE('',*,*,#1203,.T.);
#1022=ORIENTED_EDGE('',*,*,#1204,.T.);
#1023=ORIENTED_EDGE('',*,*,#1160,.F.);
#1024=ORIENTED_EDGE('',*,*,#1204,.F.);
#1025=ORIENTED_EDGE('',*,*,#1205,.T.);
#1026=ORIENTED_EDGE('',*,*,#1206,.F.);
#1027=ORIENTED_EDGE('',*,*,#1161,.F.);
#1028=ORIENTED_EDGE('',*,*,#1206,.T.);
#1029=ORIENTED_EDGE('',*,*,#1207,.F.);
#1030=ORIENTED_EDGE('',*,*,#1208,.F.);
#1031=ORIENTED_EDGE('',*,*,#1162,.F.);
#1032=ORIENTED_EDGE('',*,*,#1208,.T.);
#1033=ORIENTED_EDGE('',*,*,#1209,.T.);
#1034=ORIENTED_EDGE('',*,*,#1210,.F.);
#1035=ORIENTED_EDGE('',*,*,#1163,.F.);
#1036=ORIENTED_EDGE('',*,*,#1210,.T.);
#1037=ORIENTED_EDGE('',*,*,#1211,.F.);
#1038=ORIENTED_EDGE('',*,*,#1212,.F.);
#1039=ORIENTED_EDGE('',*,*,#1164,.F.);
#1040=ORIENTED_EDGE('',*,*,#1212,.T.);
#1041=ORIENTED_EDGE('',*,*,#1213,.T.);
#1042=ORIENTED_EDGE('',*,*,#1198,.F.);
#1043=ORIENTED_EDGE('',*,*,#1165,.T.);
#1044=ORIENTED_EDGE('',*,*,#1166,.T.);
#1045=ORIENTED_EDGE('',*,*,#1214,.T.);
#1046=ORIENTED_EDGE('',*,*,#1215,.F.);
#1047=ORIENTED_EDGE('',*,*,#1216,.F.);
#1048=ORIENTED_EDGE('',*,*,#1169,.T.);
#1049=ORIENTED_EDGE('',*,*,#1216,.T.);
#1050=ORIENTED_EDGE('',*,*,#1217,.F.);
#1051=ORIENTED_EDGE('',*,*,#1171,.T.);
#1052=ORIENTED_EDGE('',*,*,#1217,.T.);
#1053=ORIENTED_EDGE('',*,*,#1218,.F.);
#1054=ORIENTED_EDGE('',*,*,#1219,.F.);
#1055=ORIENTED_EDGE('',*,*,#1219,.T.);
#1056=ORIENTED_EDGE('',*,*,#1220,.F.);
#1057=ORIENTED_EDGE('',*,*,#1173,.T.);
#1058=ORIENTED_EDGE('',*,*,#1175,.T.);
#1059=ORIENTED_EDGE('',*,*,#1220,.T.);
#1060=ORIENTED_EDGE('',*,*,#1221,.F.);
#1061=ORIENTED_EDGE('',*,*,#1222,.F.);
#1062=ORIENTED_EDGE('',*,*,#1223,.F.);
#1063=ORIENTED_EDGE('',*,*,#1177,.T.);
#1064=ORIENTED_EDGE('',*,*,#1222,.T.);
#1065=ORIENTED_EDGE('',*,*,#1179,.T.);
#1066=ORIENTED_EDGE('',*,*,#1223,.T.);
#1067=ORIENTED_EDGE('',*,*,#1224,.F.);
#1068=ORIENTED_EDGE('',*,*,#1225,.F.);
#1069=ORIENTED_EDGE('',*,*,#1181,.T.);
#1070=ORIENTED_EDGE('',*,*,#1225,.T.);
#1071=ORIENTED_EDGE('',*,*,#1214,.F.);
#1072=ORIENTED_EDGE('',*,*,#1226,.T.);
#1073=ORIENTED_EDGE('',*,*,#1227,.T.);
#1074=ORIENTED_EDGE('',*,*,#1183,.F.);
#1075=ORIENTED_EDGE('',*,*,#1227,.F.);
#1076=ORIENTED_EDGE('',*,*,#1228,.T.);
#1077=ORIENTED_EDGE('',*,*,#1229,.F.);
#1078=ORIENTED_EDGE('',*,*,#1185,.F.);
#1079=ORIENTED_EDGE('',*,*,#1229,.T.);
#1080=ORIENTED_EDGE('',*,*,#1230,.T.);
#1081=ORIENTED_EDGE('',*,*,#1187,.T.);
#1082=ORIENTED_EDGE('',*,*,#1230,.F.);
#1083=ORIENTED_EDGE('',*,*,#1231,.T.);
#1084=ORIENTED_EDGE('',*,*,#1232,.F.);
#1085=ORIENTED_EDGE('',*,*,#1189,.F.);
#1086=ORIENTED_EDGE('',*,*,#1233,.T.);
#1087=ORIENTED_EDGE('',*,*,#1191,.T.);
#1088=ORIENTED_EDGE('',*,*,#1232,.T.);
#1089=ORIENTED_EDGE('',*,*,#1233,.F.);
#1090=ORIENTED_EDGE('',*,*,#1234,.T.);
#1091=ORIENTED_EDGE('',*,*,#1235,.F.);
#1092=ORIENTED_EDGE('',*,*,#1193,.F.);
#1093=ORIENTED_EDGE('',*,*,#1195,.T.);
#1094=ORIENTED_EDGE('',*,*,#1235,.T.);
#1095=ORIENTED_EDGE('',*,*,#1236,.T.);
#1096=ORIENTED_EDGE('',*,*,#1236,.F.);
#1097=ORIENTED_EDGE('',*,*,#1237,.T.);
#1098=ORIENTED_EDGE('',*,*,#1226,.F.);
#1099=ORIENTED_EDGE('',*,*,#1197,.F.);
#1100=ORIENTED_EDGE('',*,*,#1199,.T.);
#1101=ORIENTED_EDGE('',*,*,#1238,.T.);
#1102=ORIENTED_EDGE('',*,*,#1239,.T.);
#1103=ORIENTED_EDGE('',*,*,#1239,.F.);
#1104=ORIENTED_EDGE('',*,*,#1240,.T.);
#1105=ORIENTED_EDGE('',*,*,#1241,.F.);
#1106=ORIENTED_EDGE('',*,*,#1201,.F.);
#1107=ORIENTED_EDGE('',*,*,#1241,.T.);
#1108=ORIENTED_EDGE('',*,*,#1242,.T.);
#1109=ORIENTED_EDGE('',*,*,#1203,.F.);
#1110=ORIENTED_EDGE('',*,*,#1242,.F.);
#1111=ORIENTED_EDGE('',*,*,#1243,.T.);
#1112=ORIENTED_EDGE('',*,*,#1244,.F.);
#1113=ORIENTED_EDGE('',*,*,#1205,.F.);
#1114=ORIENTED_EDGE('',*,*,#1244,.T.);
#1115=ORIENTED_EDGE('',*,*,#1245,.T.);
#1116=ORIENTED_EDGE('',*,*,#1207,.T.);
#1117=ORIENTED_EDGE('',*,*,#1245,.F.);
#1118=ORIENTED_EDGE('',*,*,#1246,.T.);
#1119=ORIENTED_EDGE('',*,*,#1247,.F.);
#1120=ORIENTED_EDGE('',*,*,#1209,.F.);
#1121=ORIENTED_EDGE('',*,*,#1248,.T.);
#1122=ORIENTED_EDGE('',*,*,#1211,.T.);
#1123=ORIENTED_EDGE('',*,*,#1247,.T.);
#1124=ORIENTED_EDGE('',*,*,#1248,.F.);
#1125=ORIENTED_EDGE('',*,*,#1249,.T.);
#1126=ORIENTED_EDGE('',*,*,#1238,.F.);
#1127=ORIENTED_EDGE('',*,*,#1213,.F.);
#1128=ORIENTED_EDGE('',*,*,#1224,.T.);
#1129=ORIENTED_EDGE('',*,*,#1221,.T.);
#1130=ORIENTED_EDGE('',*,*,#1218,.T.);
#1131=ORIENTED_EDGE('',*,*,#1215,.T.);
#1132=ORIENTED_EDGE('',*,*,#1234,.F.);
#1133=ORIENTED_EDGE('',*,*,#1231,.F.);
#1134=ORIENTED_EDGE('',*,*,#1228,.F.);
#1135=ORIENTED_EDGE('',*,*,#1237,.F.);
#1136=ORIENTED_EDGE('',*,*,#1243,.F.);
#1137=ORIENTED_EDGE('',*,*,#1240,.F.);
#1138=ORIENTED_EDGE('',*,*,#1249,.F.);
#1139=ORIENTED_EDGE('',*,*,#1246,.F.);
#1140=EDGE_CURVE('',#1250,#1251,#1252,.T.);
#1141=EDGE_CURVE('',#1253,#1250,#1254,.T.);
#1142=EDGE_CURVE('',#1255,#1253,#1256,.T.);
#1143=EDGE_CURVE('',#1257,#1255,#1258,.T.);
#1144=EDGE_CURVE('',#1259,#1257,#1260,.T.);
#1145=EDGE_CURVE('',#1261,#1259,#1262,.T.);
#1146=EDGE_CURVE('',#1263,#1261,#1264,.T.);
#1147=EDGE_CURVE('',#1251,#1263,#1265,.T.);
#1148=EDGE_CURVE('',#1266,#1266,#1267,.F.);
#1149=EDGE_CURVE('',#1268,#1269,#1270,.F.);
#1150=EDGE_CURVE('',#1269,#1271,#1272,.F.);
#1151=EDGE_CURVE('',#1271,#1273,#1274,.F.);
#1152=EDGE_CURVE('',#1273,#1275,#1276,.F.);
#1153=EDGE_CURVE('',#1275,#1277,#1278,.F.);
#1154=EDGE_CURVE('',#1277,#1279,#1280,.F.);
#1155=EDGE_CURVE('',#1279,#1281,#1282,.F.);
#1156=EDGE_CURVE('',#1281,#1268,#1283,.F.);
#1157=EDGE_CURVE('',#1284,#1285,#1286,.F.);
#1158=EDGE_CURVE('',#1285,#1287,#1288,.F.);
#1159=EDGE_CURVE('',#1287,#1289,#1290,.F.);
#1160=EDGE_CURVE('',#1289,#1291,#1292,.F.);
#1161=EDGE_CURVE('',#1291,#1293,#1294,.F.);
#1162=EDGE_CURVE('',#1293,#1295,#1296,.F.);
#1163=EDGE_CURVE('',#1295,#1297,#1298,.F.);
#1164=EDGE_CURVE('',#1297,#1284,#1299,.F.);
#1165=EDGE_CURVE('',#1300,#1300,#1301,.T.);
#1166=EDGE_CURVE('',#1302,#1303,#1304,.T.);
#1167=EDGE_CURVE('',#1250,#1302,#1305,.T.);
#1168=EDGE_CURVE('',#1251,#1303,#1306,.T.);
#1169=EDGE_CURVE('',#1307,#1302,#1308,.T.);
#1170=EDGE_CURVE('',#1253,#1307,#1309,.T.);
#1171=EDGE_CURVE('',#1310,#1307,#1311,.T.);
#1172=EDGE_CURVE('',#1255,#1310,#1312,.T.);
#1173=EDGE_CURVE('',#1313,#1310,#1314,.T.);
#1174=EDGE_CURVE('',#1257,#1313,#1315,.T.);
#1175=EDGE_CURVE('',#1316,#1313,#1317,.T.);
#1176=EDGE_CURVE('',#1259,#1316,#1318,.T.);
#1177=EDGE_CURVE('',#1319,#1316,#1320,.T.);
#1178=EDGE_CURVE('',#1261,#1319,#1321,.T.);
#1179=EDGE_CURVE('',#1322,#1319,#1323,.T.);
#1180=EDGE_CURVE('',#1263,#1322,#1324,.T.);
#1181=EDGE_CURVE('',#1303,#1322,#1325,.T.);
#1182=EDGE_CURVE('',#1268,#1326,#1327,.T.);
#1183=EDGE_CURVE('',#1326,#1328,#1329,.T.);
#1184=EDGE_CURVE('',#1269,#1328,#1330,.T.);
#1185=EDGE_CURVE('',#1328,#1331,#1332,.T.);
#1186=EDGE_CURVE('',#1331,#1271,#1333,.T.);
#1187=EDGE_CURVE('',#1334,#1331,#1335,.T.);
#1188=EDGE_CURVE('',#1334,#1273,#1336,.T.);
#1189=EDGE_CURVE('',#1334,#1337,#1338,.T.);
#1190=EDGE_CURVE('',#1275,#1337,#1339,.T.);
#1191=EDGE_CURVE('',#1340,#1337,#1341,.T.);
#1192=EDGE_CURVE('',#1277,#1340,#1342,.T.);
#1193=EDGE_CURVE('',#1340,#1343,#1344,.T.);
#1194=EDGE_CURVE('',#1279,#1343,#1345,.T.);
#1195=EDGE_CURVE('',#1346,#1343,#1347,.T.);
#1196=EDGE_CURVE('',#1281,#1346,#1348,.T.);
#1197=EDGE_CURVE('',#1346,#1326,#1349,.T.);
#1198=EDGE_CURVE('',#1284,#1350,#1351,.T.);
#1199=EDGE_CURVE('',#1352,#1350,#1353,.T.);
#1200=EDGE_CURVE('',#1285,#1352,#1354,.T.);
#1201=EDGE_CURVE('',#1352,#1355,#1356,.T.);
#1202=EDGE_CURVE('',#1355,#1287,#1357,.T.);
#1203=EDGE_CURVE('',#1355,#1358,#1359,.T.);
#1204=EDGE_CURVE('',#1358,#1289,#1360,.T.);
#1205=EDGE_CURVE('',#1358,#1361,#1362,.T.);
#1206=EDGE_CURVE('',#1291,#1361,#1363,.T.);
#1207=EDGE_CURVE('',#1364,#1361,#1365,.T.);
#1208=EDGE_CURVE('',#1293,#1364,#1366,.T.);
#1209=EDGE_CURVE('',#1364,#1367,#1368,.T.);
#1210=EDGE_CURVE('',#1295,#1367,#1369,.T.);
#1211=EDGE_CURVE('',#1370,#1367,#1371,.T.);
#1212=EDGE_CURVE('',#1297,#1370,#1372,.T.);
#1213=EDGE_CURVE('',#1370,#1350,#1373,.T.);
#1214=EDGE_CURVE('',#1303,#1374,#1375,.T.);
#1215=EDGE_CURVE('',#1376,#1374,#1377,.T.);
#1216=EDGE_CURVE('',#1302,#1376,#1378,.T.);
#1217=EDGE_CURVE('',#1307,#1376,#1379,.T.);
#1218=EDGE_CURVE('',#1380,#1376,#1381,.T.);
#1219=EDGE_CURVE('',#1310,#1380,#1382,.T.);
#1220=EDGE_CURVE('',#1313,#1380,#1383,.T.);
#1221=EDGE_CURVE('',#1384,#1380,#1385,.T.);
#1222=EDGE_CURVE('',#1316,#1384,#1386,.T.);
#1223=EDGE_CURVE('',#1319,#1384,#1387,.T.);
#1224=EDGE_CURVE('',#1374,#1384,#1388,.T.);
#1225=EDGE_CURVE('',#1322,#1374,#1389,.T.);
#1226=EDGE_CURVE('',#1326,#1390,#1391,.T.);
#1227=EDGE_CURVE('',#1390,#1328,#1392,.T.);
#1228=EDGE_CURVE('',#1390,#1393,#1394,.T.);
#1229=EDGE_CURVE('',#1331,#1393,#1395,.T.);
#1230=EDGE_CURVE('',#1393,#1334,#1396,.T.);
#1231=EDGE_CURVE('',#1393,#1397,#1398,.T.);
#1232=EDGE_CURVE('',#1337,#1397,#1399,.T.);
#1233=EDGE_CURVE('',#1397,#1340,#1400,.T.);
#1234=EDGE_CURVE('',#1397,#1401,#1402,.T.);
#1235=EDGE_CURVE('',#1343,#1401,#1403,.T.);
#1236=EDGE_CURVE('',#1401,#1346,#1404,.T.);
#1237=EDGE_CURVE('',#1401,#1390,#1405,.T.);
#1238=EDGE_CURVE('',#1350,#1406,#1407,.T.);
#1239=EDGE_CURVE('',#1406,#1352,#1408,.T.);
#1240=EDGE_CURVE('',#1406,#1409,#1410,.T.);
#1241=EDGE_CURVE('',#1355,#1409,#1411,.T.);
#1242=EDGE_CURVE('',#1409,#1358,#1412,.T.);
#1243=EDGE_CURVE('',#1409,#1413,#1414,.T.);
#1244=EDGE_CURVE('',#1361,#1413,#1415,.T.);
#1245=EDGE_CURVE('',#1413,#1364,#1416,.T.);
#1246=EDGE_CURVE('',#1413,#1417,#1418,.T.);
#1247=EDGE_CURVE('',#1367,#1417,#1419,.T.);
#1248=EDGE_CURVE('',#1417,#1370,#1420,.T.);
#1249=EDGE_CURVE('',#1417,#1406,#1421,.T.);
#1250=VERTEX_POINT('',#1422);
#1251=VERTEX_POINT('',#1423);
#1252=LINE('',#1424,#1425);
#1253=VERTEX_POINT('',#1427);
#1254=CIRCLE('',#1428,1.);
#1255=VERTEX_POINT('',#1432);
#1256=LINE('',#1433,#1434);
#1257=VERTEX_POINT('',#1436);
#1258=CIRCLE('',#1437,1.);
#1259=VERTEX_POINT('',#1441);
#1260=LINE('',#1442,#1443);
#1261=VERTEX_POINT('',#1445);
#1262=CIRCLE('',#1446,1.);
#1263=VERTEX_POINT('',#1450);
#1264=LINE('',#1451,#1452);
#1265=CIRCLE('',#1454,1.);
#1266=VERTEX_POINT('',#1458);
#1267=CIRCLE('',#1459,1.);
#1268=VERTEX_POINT('',#1463);
#1269=VERTEX_POINT('',#1464);
#1270=LINE('',#1465,#1466);
#1271=VERTEX_POINT('',#1468);
#1272=LINE('',#1469,#1470);
#1273=VERTEX_POINT('',#1472);
#1274=LINE('',#1473,#1474);
#1275=VERTEX_POINT('',#1476);
#1276=LINE('',#1477,#1478);
#1277=VERTEX_POINT('',#1480);
#1278=LINE('',#1481,#1482);
#1279=VERTEX_POINT('',#1484);
#1280=LINE('',#1485,#1486);
#1281=VERTEX_POINT('',#1488);
#1282=LINE('',#1489,#1490);
#1283=LINE('',#1492,#1493);
#1284=VERTEX_POINT('',#1495);
#1285=VERTEX_POINT('',#1496);
#1286=LINE('',#1497,#1498);
#1287=VERTEX_POINT('',#1500);
#1288=LINE('',#1501,#1502);
#1289=VERTEX_POINT('',#1504);
#1290=LINE('',#1505,#1506);
#1291=VERTEX_POINT('',#1508);
#1292=LINE('',#1509,#1510);
#1293=VERTEX_POINT('',#1512);
#1294=LINE('',#1513,#1514);
#1295=VERTEX_POINT('',#1516);
#1296=LINE('',#1517,#1518);
#1297=VERTEX_POINT('',#1520);
#1298=LINE('',#1521,#1522);
#1299=LINE('',#1524,#1525);
#1300=VERTEX_POINT('',#1527);
#1301=CIRCLE('',#1528,1.);
#1302=VERTEX_POINT('',#1532);
#1303=VERTEX_POINT('',#1533);
#1304=LINE('',#1534,#1535);
#1305=LINE('',#1537,#1538);
#1306=LINE('',#1540,#1541);
#1307=VERTEX_POINT('',#1543);
#1308=CIRCLE('',#1544,1.);
#1309=LINE('',#1548,#1549);
#1310=VERTEX_POINT('',#1551);
#1311=LINE('',#1552,#1553);
#1312=LINE('',#1555,#1556);
#1313=VERTEX_POINT('',#1558);
#1314=CIRCLE('',#1559,1.);
#1315=LINE('',#1563,#1564);
#1316=VERTEX_POINT('',#1566);
#1317=LINE('',#1567,#1568);
#1318=LINE('',#1570,#1571);
#1319=VERTEX_POINT('',#1573);
#1320=CIRCLE('',#1574,1.);
#1321=LINE('',#1578,#1579);
#1322=VERTEX_POINT('',#1581);
#1323=LINE('',#1582,#1583);
#1324=LINE('',#1585,#1586);
#1325=CIRCLE('',#1588,1.);
#1326=VERTEX_POINT('',#1592);
#1327=LINE('',#1593,#1594);
#1328=VERTEX_POINT('',#1596);
#1329=LINE('',#1597,#1598);
#1330=LINE('',#1600,#1601);
#1331=VERTEX_POINT('',#1603);
#1332=LINE('',#1604,#1605);
#1333=LINE('',#1607,#1608);
#1334=VERTEX_POINT('',#1610);
#1335=LINE('',#1611,#1612);
#1336=LINE('',#1614,#1615);
#1337=VERTEX_POINT('',#1617);
#1338=LINE('',#1618,#1619);
#1339=LINE('',#1621,#1622);
#1340=VERTEX_POINT('',#1624);
#1341=B_SPLINE_CURVE_WITH_KNOTS('',3,
(#1625,#1626,#1627,#1628,#1629,#1630,#1631),
.UNSPECIFIED.,.F.,.F.,
(4,1,1,1,4),
(0.,0.249994141850857,0.5,0.750004055577125,1.),
.UNSPECIFIED.);
#1342=LINE('',#1632,#1633);
#1343=VERTEX_POINT('',#1635);
#1344=LINE('',#1636,#1637);
#1345=LINE('',#1639,#1640);
#1346=VERTEX_POINT('',#1642);
#1347=B_SPLINE_CURVE_WITH_KNOTS('',3,
(#1643,#1644,#1645,#1646,#1647,#1648,#1649),
.UNSPECIFIED.,.F.,.F.,
(4,1,1,1,4),
(0.,0.249994141853088,0.5,0.750004055575542,1.),
.UNSPECIFIED.);
#1348=LINE('',#1650,#1651);
#1349=LINE('',#1653,#1654);
#1350=VERTEX_POINT('',#1656);
#1351=LINE('',#1657,#1658);
#1352=VERTEX_POINT('',#1660);
#1353=B_SPLINE_CURVE_WITH_KNOTS('',3,
(#1661,#1662,#1663,#1664,#1665,#1666,#1667),
.UNSPECIFIED.,.F.,.F.,
(4,1,1,1,4),
(0.,0.249994141874821,0.5,0.750004055560535,1.),
.UNSPECIFIED.);
#1354=LINE('',#1668,#1669);
#1355=VERTEX_POINT('',#1671);
#1356=LINE('',#1672,#1673);
#1357=LINE('',#1675,#1676);
#1358=VERTEX_POINT('',#1678);
#1359=B_SPLINE_CURVE_WITH_KNOTS('',3,
(#1679,#1680,#1681,#1682,#1683,#1684,#1685),
.UNSPECIFIED.,.F.,.F.,
(4,1,1,1,4),
(0.,0.249994141855638,0.5,0.750004055573824,1.),
.UNSPECIFIED.);
#1360=LINE('',#1686,#1687);
#1361=VERTEX_POINT('',#1689);
#1362=LINE('',#1690,#1691);
#1363=LINE('',#1693,#1694);
#1364=VERTEX_POINT('',#1696);
#1365=B_SPLINE_CURVE_WITH_KNOTS('',3,
(#1697,#1698,#1699,#1700,#1701,#1702,#1703),
.UNSPECIFIED.,.F.,.F.,
(4,1,1,1,4),
(0.,0.249994141852805,0.5,0.750004055575783,1.),
.UNSPECIFIED.);
#1366=LINE('',#1704,#1705);
#1367=VERTEX_POINT('',#1707);
#1368=LINE('',#1708,#1709);
#1369=LINE('',#1711,#1712);
#1370=VERTEX_POINT('',#1714);
#1371=B_SPLINE_CURVE_WITH_KNOTS('',3,
(#1715,#1716,#1717,#1718,#1719,#1720,#1721),
.UNSPECIFIED.,.F.,.F.,
(4,1,1,1,4),
(0.,0.249994141855795,0.5,0.750004055573728,1.),
.UNSPECIFIED.);
#1372=LINE('',#1722,#1723);
#1373=LINE('',#1725,#1726);
#1374=VERTEX_POINT('',#1728);
#1375=LINE('',#1729,#1730);
#1376=VERTEX_POINT('',#1732);
#1377=LINE('',#1733,#1734);
#1378=LINE('',#1736,#1737);
#1379=LINE('',#1739,#1740);
#1380=VERTEX_POINT('',#1742);
#1381=LINE('',#1743,#1744);
#1382=LINE('',#1746,#1747);
#1383=LINE('',#1749,#1750);
#1384=VERTEX_POINT('',#1752);
#1385=LINE('',#1753,#1754);
#1386=LINE('',#1756,#1757);
#1387=LINE('',#1759,#1760);
#1388=LINE('',#1762,#1763);
#1389=LINE('',#1765,#1766);
#1390=VERTEX_POINT('',#1768);
#1391=LINE('',#1769,#1770);
#1392=LINE('',#1772,#1773);
#1393=VERTEX_POINT('',#1775);
#1394=LINE('',#1776,#1777);
#1395=B_SPLINE_CURVE_WITH_KNOTS('',3,
(#1779,#1780,#1781,#1782,#1783,#1784,#1785),
.UNSPECIFIED.,.F.,.F.,
(4,1,1,1,4),
(0.,0.249994141850717,0.5,0.750004055577187,1.),
.UNSPECIFIED.);
#1396=LINE('',#1786,#1787);
#1397=VERTEX_POINT('',#1789);
#1398=LINE('',#1790,#1791);
#1399=LINE('',#1793,#1794);
#1400=LINE('',#1796,#1797);
#1401=VERTEX_POINT('',#1799);
#1402=LINE('',#1800,#1801);
#1403=LINE('',#1803,#1804);
#1404=LINE('',#1806,#1807);
#1405=LINE('',#1809,#1810);
#1406=VERTEX_POINT('',#1812);
#1407=LINE('',#1813,#1814);
#1408=LINE('',#1816,#1817);
#1409=VERTEX_POINT('',#1819);
#1410=LINE('',#1820,#1821);
#1411=B_SPLINE_CURVE_WITH_KNOTS('',3,
(#1823,#1824,#1825,#1826,#1827,#1828,#1829),
.UNSPECIFIED.,.F.,.F.,
(4,1,1,1,4),
(0.,0.249994141853934,0.5,0.750004055574995,1.),
.UNSPECIFIED.);
#1412=LINE('',#1830,#1831);
#1413=VERTEX_POINT('',#1833);
#1414=LINE('',#1834,#1835);
#1415=LINE('',#1837,#1838);
#1416=LINE('',#1840,#1841);
#1417=VERTEX_POINT('',#1843);
#1418=LINE('',#1844,#1845);
#1419=LINE('',#1847,#1848);
#1420=LINE('',#1850,#1851);
#1421=LINE('',#1853,#1854);
#1422=CARTESIAN_POINT('',(6.25,7.25,5.8));
#1423=CARTESIAN_POINT('',(-6.25,7.25,5.8));
#1424=CARTESIAN_POINT('',(6.25,7.25,5.8));
#1425=VECTOR('',#1426,1.);
#1426=DIRECTION('',(-1.,1.4210854715202E-16,0.));
#1427=CARTESIAN_POINT('',(7.25,6.25,5.8));
#1428=AXIS2_PLACEMENT_3D('',#1429,#1430,#1431);
#1429=CARTESIAN_POINT('',(6.25,6.25,5.8));
#1430=DIRECTION('',(0.,0.,1.));
#1431=DIRECTION('',(1.,0.,0.));
#1432=CARTESIAN_POINT('',(7.25,-6.25,5.8));
#1433=CARTESIAN_POINT('',(7.25,-6.25,5.8));
#1434=VECTOR('',#1435,1.);
#1435=DIRECTION('',(4.2632564145606E-16,1.,0.));
#1436=CARTESIAN_POINT('',(6.25,-7.25,5.8));
#1437=AXIS2_PLACEMENT_3D('',#1438,#1439,#1440);
#1438=CARTESIAN_POINT('',(6.25,-6.25,5.8));
#1439=DIRECTION('',(0.,0.,1.));
#1440=DIRECTION('',(0.,-1.,0.));
#1441=CARTESIAN_POINT('',(-6.25,-7.25,5.8));
#1442=CARTESIAN_POINT('',(-6.25,-7.25,5.8));
#1443=VECTOR('',#1444,1.);
#1444=DIRECTION('',(1.,-1.4210854715202E-16,0.));
#1445=CARTESIAN_POINT('',(-7.25,-6.25,5.8));
#1446=AXIS2_PLACEMENT_3D('',#1447,#1448,#1449);
#1447=CARTESIAN_POINT('',(-6.25,-6.25,5.8));
#1448=DIRECTION('',(0.,0.,1.));
#1449=DIRECTION('',(-1.,0.,0.));
#1450=CARTESIAN_POINT('',(-7.25,6.25,5.8));
#1451=CARTESIAN_POINT('',(-7.25,6.25,5.8));
#1452=VECTOR('',#1453,1.);
#1453=DIRECTION('',(-4.2632564145606E-16,-1.,0.));
#1454=AXIS2_PLACEMENT_3D('',#1455,#1456,#1457);
#1455=CARTESIAN_POINT('',(-6.25,6.25,5.8));
#1456=DIRECTION('',(0.,0.,1.));
#1457=DIRECTION('',(0.,1.,0.));
#1458=CARTESIAN_POINT('',(-1.,0.,5.8));
#1459=AXIS2_PLACEMENT_3D('',#1460,#1461,#1462);
#1460=CARTESIAN_POINT('',(0.,0.,5.8));
#1461=DIRECTION('',(0.,0.,-1.));
#1462=DIRECTION('',(-1.,0.,0.));
#1463=CARTESIAN_POINT('',(-2.25000000000001,1.3,5.8));
#1464=CARTESIAN_POINT('',(-2.44999999104697,1.49999999701564,5.8));
#1465=CARTESIAN_POINT('',(-2.45000000000002,1.49999999999999,5.8));
#1466=VECTOR('',#1467,1.);
#1467=DIRECTION('',(0.707106781186591,-0.707106781186503,0.));
#1468=CARTESIAN_POINT('',(-3.24999998827571,1.5000000039081,5.8));
#1469=CARTESIAN_POINT('',(-3.24999999999998,1.5,5.8));
#1470=VECTOR('',#1471,1.);
#1471=DIRECTION('',(1.,0.,0.));
#1472=CARTESIAN_POINT('',(-3.45000000000001,1.3,5.8));
#1473=CARTESIAN_POINT('',(-3.45000000000001,1.3,5.8));
#1474=VECTOR('',#1475,1.);
#1475=DIRECTION('',(0.707106781186551,0.707106781186544,0.));
#1476=CARTESIAN_POINT('',(-3.45000000000001,-1.3,5.8));
#1477=CARTESIAN_POINT('',(-3.45000000000001,-1.3,5.8));
#1478=VECTOR('',#1479,1.);
#1479=DIRECTION('',(0.,1.,0.));
#1480=CARTESIAN_POINT('',(-3.24999998812672,-1.50000000395776,5.8));
#1481=CARTESIAN_POINT('',(-3.24999998692577,-1.50000001307423,5.8));
#1482=VECTOR('',#1483,1.);
#1483=DIRECTION('',(-0.707106781186588,0.707106781186507,0.));
#1484=CARTESIAN_POINT('',(-2.44999999092896,-1.49999999697632,5.8));
#1485=CARTESIAN_POINT('',(-2.4499999817257,-1.5,5.8));
#1486=VECTOR('',#1487,1.);
#1487=DIRECTION('',(-1.,0.,0.));
#1488=CARTESIAN_POINT('',(-2.25000000000001,-1.3,5.8));
#1489=CARTESIAN_POINT('',(-2.25,-1.30000000000001,5.8));
#1490=VECTOR('',#1491,1.);
#1491=DIRECTION('',(-0.707106781186551,-0.707106781186544,0.));
#1492=CARTESIAN_POINT('',(-2.25000000000001,1.3,5.8));
#1493=VECTOR('',#1494,1.);
#1494=DIRECTION('',(0.,-1.,0.));
#1495=CARTESIAN_POINT('',(3.24999998813365,-1.50000000395544,5.8));
#1496=CARTESIAN_POINT('',(3.45,-1.3,5.8));
#1497=CARTESIAN_POINT('',(3.45,-1.3,5.8));
#1498=VECTOR('',#1499,1.);
#1499=DIRECTION('',(-0.707106781186575,-0.707106781186521,0.));
#1500=CARTESIAN_POINT('',(3.45,1.3,5.8));
#1501=CARTESIAN_POINT('',(3.45,1.3,5.8));
#1502=VECTOR('',#1503,1.);
#1503=DIRECTION('',(0.,-1.,0.));
#1504=CARTESIAN_POINT('',(3.24999998826919,1.50000000391026,5.8));
#1505=CARTESIAN_POINT('',(3.24999998847144,1.50000001152854,5.8));
#1506=VECTOR('',#1507,1.);
#1507=DIRECTION('',(0.707106781186582,-0.707106781186513,0.));
#1508=CARTESIAN_POINT('',(2.44999999104186,1.49999999701395,5.8));
#1509=CARTESIAN_POINT('',(2.44999998149309,1.5,5.8));
#1510=VECTOR('',#1511,1.);
#1511=DIRECTION('',(1.,0.,0.));
#1512=CARTESIAN_POINT('',(2.24999999999999,1.3,5.8));
#1513=CARTESIAN_POINT('',(2.25,1.29999999999999,5.8));
#1514=VECTOR('',#1515,1.);
#1515=DIRECTION('',(0.707106781186578,0.707106781186517,0.));
#1516=CARTESIAN_POINT('',(2.24999999999999,-1.3,5.8));
#1517=CARTESIAN_POINT('',(2.24999999999999,-1.3,5.8));
#1518=VECTOR('',#1519,1.);
#1519=DIRECTION('',(0.,1.,0.));
#1520=CARTESIAN_POINT('',(2.44999999093441,-1.49999999697813,5.8));
#1521=CARTESIAN_POINT('',(2.45000000000002,-1.5,5.8));
#1522=VECTOR('',#1523,1.);
#1523=DIRECTION('',(-0.707106781186594,0.707106781186501,0.));
#1524=CARTESIAN_POINT('',(3.25000000000001,-1.5,5.8));
#1525=VECTOR('',#1526,1.);
#1526=DIRECTION('',(-1.,0.,0.));
#1527=CARTESIAN_POINT('',(-1.,0.,6.8));
#1528=AXIS2_PLACEMENT_3D('',#1529,#1530,#1531);
#1529=CARTESIAN_POINT('',(0.,0.,6.8));
#1530=DIRECTION('',(0.,0.,-1.));
#1531=DIRECTION('',(-1.,0.,0.));
#1532=CARTESIAN_POINT('',(6.25,7.25,9.3));
#1533=CARTESIAN_POINT('',(-6.25,7.25,9.3));
#1534=CARTESIAN_POINT('',(6.25,7.25,9.3));
#1535=VECTOR('',#1536,1.);
#1536=DIRECTION('',(-1.,1.4210854715202E-16,0.));
#1537=CARTESIAN_POINT('',(6.25,7.25,5.8));
#1538=VECTOR('',#1539,1.);
#1539=DIRECTION('',(0.,0.,1.));
#1540=CARTESIAN_POINT('',(-6.25,7.25,5.8));
#1541=VECTOR('',#1542,1.);
#1542=DIRECTION('',(0.,0.,1.));
#1543=CARTESIAN_POINT('',(7.25,6.25,9.3));
#1544=AXIS2_PLACEMENT_3D('',#1545,#1546,#1547);
#1545=CARTESIAN_POINT('',(6.25,6.25,9.3));
#1546=DIRECTION('',(0.,0.,1.));
#1547=DIRECTION('',(1.,0.,0.));
#1548=CARTESIAN_POINT('',(7.25,6.25,5.8));
#1549=VECTOR('',#1550,1.);
#1550=DIRECTION('',(0.,0.,1.));
#1551=CARTESIAN_POINT('',(7.25,-6.25,9.3));
#1552=CARTESIAN_POINT('',(7.25,-6.25,9.3));
#1553=VECTOR('',#1554,1.);
#1554=DIRECTION('',(4.2632564145606E-16,1.,0.));
#1555=CARTESIAN_POINT('',(7.25,-6.25,5.8));
#1556=VECTOR('',#1557,1.);
#1557=DIRECTION('',(0.,0.,1.));
#1558=CARTESIAN_POINT('',(6.25,-7.25,9.3));
#1559=AXIS2_PLACEMENT_3D('',#1560,#1561,#1562);
#1560=CARTESIAN_POINT('',(6.25,-6.25,9.3));
#1561=DIRECTION('',(0.,0.,1.));
#1562=DIRECTION('',(0.,-1.,0.));
#1563=CARTESIAN_POINT('',(6.25,-7.25,5.8));
#1564=VECTOR('',#1565,1.);
#1565=DIRECTION('',(2.53765262771464E-16,0.,1.));
#1566=CARTESIAN_POINT('',(-6.25,-7.25,9.3));
#1567=CARTESIAN_POINT('',(-6.25,-7.25,9.3));
#1568=VECTOR('',#1569,1.);
#1569=DIRECTION('',(1.,-1.4210854715202E-16,0.));
#1570=CARTESIAN_POINT('',(-6.25,-7.25,5.8));
#1571=VECTOR('',#1572,1.);
#1572=DIRECTION('',(0.,0.,1.));
#1573=CARTESIAN_POINT('',(-7.25,-6.25,9.3));
#1574=AXIS2_PLACEMENT_3D('',#1575,#1576,#1577);
#1575=CARTESIAN_POINT('',(-6.25,-6.25,9.3));
#1576=DIRECTION('',(0.,0.,1.));
#1577=DIRECTION('',(-1.,0.,0.));
#1578=CARTESIAN_POINT('',(-7.25,-6.25,5.8));
#1579=VECTOR('',#1580,1.);
#1580=DIRECTION('',(0.,0.,1.));
#1581=CARTESIAN_POINT('',(-7.25,6.25,9.3));
#1582=CARTESIAN_POINT('',(-7.25,6.25,9.3));
#1583=VECTOR('',#1584,1.);
#1584=DIRECTION('',(-4.2632564145606E-16,-1.,0.));
#1585=CARTESIAN_POINT('',(-7.25,6.25,5.8));
#1586=VECTOR('',#1587,1.);
#1587=DIRECTION('',(0.,0.,1.));
#1588=AXIS2_PLACEMENT_3D('',#1589,#1590,#1591);
#1589=CARTESIAN_POINT('',(-6.25,6.25,9.3));
#1590=DIRECTION('',(0.,0.,1.));
#1591=DIRECTION('',(0.,1.,0.));
#1592=CARTESIAN_POINT('',(-2.25000000000001,1.3,2.2));
#1593=CARTESIAN_POINT('',(-2.25000000000001,1.3,5.8));
#1594=VECTOR('',#1595,1.);
#1595=DIRECTION('',(-4.93432455388959E-16,-3.70074341541719E-16,-1.));
#1596=CARTESIAN_POINT('',(-2.45000000000001,1.5,2.2));
#1597=CARTESIAN_POINT('',(-2.25000000000001,1.3,2.2));
#1598=VECTOR('',#1599,1.);
#1599=DIRECTION('',(-0.707106781186552,0.707106781186543,0.));
#1600=CARTESIAN_POINT('',(-2.44999999104697,1.49999999701564,5.8));
#1601=VECTOR('',#1602,1.);
#1602=DIRECTION('',(-2.48695854033877E-9,8.28985707240154E-10,-1.));
#1603=CARTESIAN_POINT('',(-3.24999999999998,1.5,2.2));
#1604=CARTESIAN_POINT('',(-2.45000000000001,1.5,2.2));
#1605=VECTOR('',#1606,1.);
#1606=DIRECTION('',(-1.,0.,0.));
#1607=CARTESIAN_POINT('',(-3.24999999999999,1.50000000000001,2.2));
#1608=VECTOR('',#1609,1.);
#1609=DIRECTION('',(3.25674265333475E-9,1.08558088444492E-9,1.));
#1610=CARTESIAN_POINT('',(-3.45000000000001,1.3,2.2));
#1611=CARTESIAN_POINT('',(-3.45000000000001,1.3,2.2));
#1612=VECTOR('',#1613,1.);
#1613=DIRECTION('',(0.707106781186576,0.707106781186519,0.));
#1614=CARTESIAN_POINT('',(-3.45000000000001,1.3,2.2));
#1615=VECTOR('',#1616,1.);
#1616=DIRECTION('',(0.,0.,1.));
#1617=CARTESIAN_POINT('',(-3.45000000000001,-1.3,2.2));
#1618=CARTESIAN_POINT('',(-3.45000000000001,1.3,2.2));
#1619=VECTOR('',#1620,1.);
#1620=DIRECTION('',(0.,-1.,0.));
#1621=CARTESIAN_POINT('',(-3.45000000000001,-1.3,5.8));
#1622=VECTOR('',#1623,1.);
#1623=DIRECTION('',(4.93432455388959E-16,4.31753398465339E-16,-1.));
#1624=CARTESIAN_POINT('',(-3.25000000000001,-1.5,2.2));
#1625=CARTESIAN_POINT('',(-3.25000000000001,-1.5,2.2));
#1626=CARTESIAN_POINT('',(-3.26666627621946,-1.48333372408491,2.20000000030437));
#1627=CARTESIAN_POINT('',(-3.2999996093856,-1.45000039075275,2.20000000013835));
#1628=CARTESIAN_POINT('',(-3.34999987917573,-1.40000011988343,2.19999999905915));
#1629=CARTESIAN_POINT('',(-3.40000027030074,-1.34999972983766,2.20000000013839));
#1630=CARTESIAN_POINT('',(-3.43333360380122,-1.31666639650308,2.20000000030429));
#1631=CARTESIAN_POINT('',(-3.44999999999996,-1.29999999999985,2.1999999999998));
#1632=CARTESIAN_POINT('',(-3.24999998812672,-1.50000000395776,5.8));
#1633=VECTOR('',#1634,1.);
#1634=DIRECTION('',(-3.29813583851054E-9,1.0993791062693E-9,-1.));
#1635=CARTESIAN_POINT('',(-2.45000000000002,-1.5,2.2));
#1636=CARTESIAN_POINT('',(-3.25000000000001,-1.5,2.2));
#1637=VECTOR('',#1638,1.);
#1638=DIRECTION('',(1.,0.,0.));
#1639=CARTESIAN_POINT('',(-2.44999999092896,-1.49999999697632,5.8));
#1640=VECTOR('',#1641,1.);
#1641=DIRECTION('',(-2.51973725835026E-9,-8.39912460569457E-10,-1.));
#1642=CARTESIAN_POINT('',(-2.25000000000001,-1.3,2.2));
#1643=CARTESIAN_POINT('',(-2.25000000000001,-1.3,2.2));
#1644=CARTESIAN_POINT('',(-2.26666627591524,-1.3166662762196,2.20000000030437));
#1645=CARTESIAN_POINT('',(-2.2999996092474,-1.34999960938575,2.20000000013835));
#1646=CARTESIAN_POINT('',(-2.34999988011662,-1.39999987917577,2.19999999905915));
#1647=CARTESIAN_POINT('',(-2.40000027016224,-1.45000027030063,2.20000000013839));
#1648=CARTESIAN_POINT('',(-2.43333360349683,-1.48333360380111,2.20000000030429));
#1649=CARTESIAN_POINT('',(-2.45000000000017,-1.49999999999996,2.19999999999979));
#1650=CARTESIAN_POINT('',(-2.25000000000001,-1.3,5.8));
#1651=VECTOR('',#1652,1.);
#1652=DIRECTION('',(0.,0.,-1.));
#1653=CARTESIAN_POINT('',(-2.25000000000001,-1.3,2.2));
#1654=VECTOR('',#1655,1.);
#1655=DIRECTION('',(0.,1.,0.));
#1656=CARTESIAN_POINT('',(3.25000000000001,-1.5,2.2));
#1657=CARTESIAN_POINT('',(3.24999998813365,-1.50000000395544,5.8));
#1658=VECTOR('',#1659,1.);
#1659=DIRECTION('',(3.29620923148847E-9,1.09873641049616E-9,-1.));
#1660=CARTESIAN_POINT('',(3.45,-1.3,2.2));
#1661=CARTESIAN_POINT('',(3.44999999999999,-1.3,2.2));
#1662=CARTESIAN_POINT('',(3.43333372408331,-1.31666627622105,2.20000000030436));
#1663=CARTESIAN_POINT('',(3.40000039075115,-1.34999960938719,2.20000000013835));
#1664=CARTESIAN_POINT('',(3.35000011988294,-1.39999987917621,2.19999999905916));
#1665=CARTESIAN_POINT('',(3.29999972983877,-1.45000027029961,2.20000000013839));
#1666=CARTESIAN_POINT('',(3.26666639650419,-1.48333360380009,2.20000000030429));
#1667=CARTESIAN_POINT('',(3.24999999999985,-1.49999999999994,2.1999999999998));
#1668=CARTESIAN_POINT('',(3.45,-1.3,5.8));
#1669=VECTOR('',#1670,1.);
#1670=DIRECTION('',(7.40148683083438E-16,6.16790569236198E-16,-1.));
#1671=CARTESIAN_POINT('',(3.44999999999999,1.3,2.2));
#1672=CARTESIAN_POINT('',(3.45,-1.3,2.20000000000001));
#1673=VECTOR('',#1674,1.);
#1674=DIRECTION('',(-8.5401771125012E-16,1.,-1.19562479575017E-15));
#1675=CARTESIAN_POINT('',(3.44999999999999,1.3,2.2));
#1676=VECTOR('',#1677,1.);
#1677=DIRECTION('',(8.63506796930677E-16,-3.70074341541719E-16,1.));
#1678=CARTESIAN_POINT('',(3.24999999999999,1.5,2.2));
#1679=CARTESIAN_POINT('',(3.44999999999999,1.3,2.2));
#1680=CARTESIAN_POINT('',(3.43333372408458,1.31666627621977,2.20000000030437));
#1681=CARTESIAN_POINT('',(3.40000039075243,1.34999960938591,2.20000000013835));
#1682=CARTESIAN_POINT('',(3.35000011988332,1.39999987917582,2.19999999905915));
#1683=CARTESIAN_POINT('',(3.29999972983787,1.4500002703005,2.20000000013839));
#1684=CARTESIAN_POINT('',(3.26666639650329,1.48333360380098,2.20000000030429));
#1685=CARTESIAN_POINT('',(3.24999999999983,1.49999999999995,2.1999999999998));
#1686=CARTESIAN_POINT('',(3.24999999999998,1.49999999999999,2.2));
#1687=VECTOR('',#1688,1.);
#1688=DIRECTION('',(-3.25855540081774E-9,1.08618552423994E-9,1.));
#1689=CARTESIAN_POINT('',(2.45000000000001,1.5,2.2));
#1690=CARTESIAN_POINT('',(3.24999999999999,1.5,2.2));
#1691=VECTOR('',#1692,1.);
#1692=DIRECTION('',(-1.,2.77555756156296E-16,0.));
#1693=CARTESIAN_POINT('',(2.44999999104186,1.49999999701395,5.8));
#1694=VECTOR('',#1695,1.);
#1695=DIRECTION('',(2.48837543163442E-9,8.29458477211473E-10,-1.));
#1696=CARTESIAN_POINT('',(2.24999999999999,1.3,2.2));
#1697=CARTESIAN_POINT('',(2.24999999999999,1.3,2.2));
#1698=CARTESIAN_POINT('',(2.26666627591521,1.31666627621958,2.20000000030437));
#1699=CARTESIAN_POINT('',(2.29999960924737,1.34999960938572,2.20000000013835));
#1700=CARTESIAN_POINT('',(2.34999988011662,1.39999987917576,2.19999999905915));
#1701=CARTESIAN_POINT('',(2.40000027016225,1.45000027030063,2.20000000013839));
#1702=CARTESIAN_POINT('',(2.43333360349684,1.48333360380112,2.20000000030429));
#1703=CARTESIAN_POINT('',(2.45000000000017,1.49999999999995,2.1999999999998));
#1704=CARTESIAN_POINT('',(2.24999999999999,1.3,5.8));
#1705=VECTOR('',#1706,1.);
#1706=DIRECTION('',(0.,0.,-1.));
#1707=CARTESIAN_POINT('',(2.24999999999999,-1.3,2.2));
#1708=CARTESIAN_POINT('',(2.25,1.3,2.20000000000001));
#1709=VECTOR('',#1710,1.);
#1710=DIRECTION('',(1.70803542250024E-16,-1.,1.70803542250024E-16));
#1711=CARTESIAN_POINT('',(2.24999999999999,-1.3,5.8));
#1712=VECTOR('',#1713,1.);
#1713=DIRECTION('',(6.16790569236198E-16,5.55111512312578E-16,-1.));
#1714=CARTESIAN_POINT('',(2.45000000000002,-1.5,2.2));
#1715=CARTESIAN_POINT('',(2.45000000000002,-1.5,2.2));
#1716=CARTESIAN_POINT('',(2.43333372378024,-1.48333372408458,2.20000000030436));
#1717=CARTESIAN_POINT('',(2.40000039061409,-1.45000039075242,2.20000000013835));
#1718=CARTESIAN_POINT('',(2.35000012082419,-1.40000011988332,2.19999999905915));
#1719=CARTESIAN_POINT('',(2.2999997296995,-1.34999972983788,2.20000000013839));
#1720=CARTESIAN_POINT('',(2.26666639619901,-1.3166663965033,2.20000000030429));
#1721=CARTESIAN_POINT('',(2.25000000000004,-1.29999999999984,2.1999999999998));
#1722=CARTESIAN_POINT('',(2.44999999093441,-1.49999999697813,5.8));
#1723=VECTOR('',#1724,1.);
#1724=DIRECTION('',(2.51822538130695E-9,-8.39407679167594E-10,-1.));
#1725=CARTESIAN_POINT('',(2.45000000000002,-1.5,2.2));
#1726=VECTOR('',#1727,1.);
#1727=DIRECTION('',(1.,2.77555756156293E-16,0.));
#1728=CARTESIAN_POINT('',(-6.25,6.25,10.3));
#1729=CARTESIAN_POINT('',(-6.25,7.25,9.3));
#1730=VECTOR('',#1731,1.);
#1731=DIRECTION('',(0.,-0.707106781186547,0.707106781186547));
#1732=CARTESIAN_POINT('',(6.25,6.25,10.3));
#1733=CARTESIAN_POINT('',(6.25,6.25,10.3));
#1734=VECTOR('',#1735,1.);
#1735=DIRECTION('',(-1.,7.105427357601E-17,0.));
#1736=CARTESIAN_POINT('',(6.25,7.25,9.3));
#1737=VECTOR('',#1738,1.);
#1738=DIRECTION('',(0.,-0.707106781186547,0.707106781186547));
#1739=CARTESIAN_POINT('',(7.25,6.25,9.3));
#1740=VECTOR('',#1741,1.);
#1741=DIRECTION('',(-0.707106781186548,0.,0.707106781186547));
#1742=CARTESIAN_POINT('',(6.24999999999999,-6.25,10.3));
#1743=CARTESIAN_POINT('',(6.24999999999999,-6.25,10.3));
#1744=VECTOR('',#1745,1.);
#1745=DIRECTION('',(4.2632564145606E-16,1.,0.));
#1746=CARTESIAN_POINT('',(7.25,-6.25,9.3));
#1747=VECTOR('',#1748,1.);
#1748=DIRECTION('',(-0.707106781186548,0.,0.707106781186547));
#1749=CARTESIAN_POINT('',(6.24999999999999,-7.25,9.3));
#1750=VECTOR('',#1751,1.);
#1751=DIRECTION('',(0.,0.707106781186547,0.707106781186547));
#1752=CARTESIAN_POINT('',(-6.25,-6.25,10.3));
#1753=CARTESIAN_POINT('',(-6.25,-6.25,10.3));
#1754=VECTOR('',#1755,1.);
#1755=DIRECTION('',(1.,-7.105427357601E-17,0.));
#1756=CARTESIAN_POINT('',(-6.25,-7.25,9.3));
#1757=VECTOR('',#1758,1.);
#1758=DIRECTION('',(0.,0.707106781186547,0.707106781186547));
#1759=CARTESIAN_POINT('',(-7.25,-6.25,9.3));
#1760=VECTOR('',#1761,1.);
#1761=DIRECTION('',(0.707106781186547,0.,0.707106781186547));
#1762=CARTESIAN_POINT('',(-6.25,6.25,10.3));
#1763=VECTOR('',#1764,1.);
#1764=DIRECTION('',(-4.2632564145606E-16,-1.,0.));
#1765=CARTESIAN_POINT('',(-7.25,6.25,9.3));
#1766=VECTOR('',#1767,1.);
#1767=DIRECTION('',(0.707106781186547,0.,0.707106781186547));
#1768=CARTESIAN_POINT('',(-2.45000000000002,1.3,2.));
#1769=CARTESIAN_POINT('',(-2.25000000000001,1.3,2.2));
#1770=VECTOR('',#1771,1.);
#1771=DIRECTION('',(-0.707106781186571,-1.09906472107861E-14,-0.707106781186524));
#1772=CARTESIAN_POINT('',(-2.45000000000003,1.3,2.));
#1773=VECTOR('',#1774,1.);
#1774=DIRECTION('',(8.94952701449741E-14,0.707106781186558,0.707106781186536));
#1775=CARTESIAN_POINT('',(-3.25000000000001,1.3,2.));
#1776=CARTESIAN_POINT('',(-2.45000000000002,1.3,2.));
#1777=VECTOR('',#1778,1.);
#1778=DIRECTION('',(-1.,0.,-5.55111512312585E-16));
#1779=CARTESIAN_POINT('',(-3.24999999999998,1.5,2.2));
#1780=CARTESIAN_POINT('',(-3.24999999969563,1.48333372408493,2.18333372378055));
#1781=CARTESIAN_POINT('',(-3.24999999986165,1.45000039075277,2.15000039061441));
#1782=CARTESIAN_POINT('',(-3.25000000094084,1.40000011988344,2.10000012082428));
#1783=CARTESIAN_POINT('',(-3.24999999986162,1.34999972983766,2.04999972969927));
#1784=CARTESIAN_POINT('',(-3.24999999969572,1.31666639650308,2.01666639619878));
#1785=CARTESIAN_POINT('',(-3.25000000000021,1.29999999999985,2.00000000000005));
#1786=CARTESIAN_POINT('',(-3.25000000000001,1.3,2.));
#1787=VECTOR('',#1788,1.);
#1788=DIRECTION('',(-0.707106781186551,0.,0.707106781186544));
#1789=CARTESIAN_POINT('',(-3.24999999999999,-1.29999999999999,2.));
#1790=CARTESIAN_POINT('',(-3.25000000000001,1.3,2.));
#1791=VECTOR('',#1792,1.);
#1792=DIRECTION('',(5.63651689425082E-15,-1.,-2.0496425070003E-15));
#1793=CARTESIAN_POINT('',(-3.45000000000001,-1.3,2.2));
#1794=VECTOR('',#1795,1.);
#1795=DIRECTION('',(0.707106781186573,4.39625888431435E-14,-0.707106781186523));
#1796=CARTESIAN_POINT('',(-3.24999999999998,-1.29999999999999,2.));
#1797=VECTOR('',#1798,1.);
#1798=DIRECTION('',(-8.79251776862892E-14,-0.707106781186562,0.707106781186533));
#1799=CARTESIAN_POINT('',(-2.45000000000002,-1.3,2.));
#1800=CARTESIAN_POINT('',(-3.24999999999999,-1.29999999999999,2.));
#1801=VECTOR('',#1802,1.);
#1802=DIRECTION('',(1.,-9.43689570931418E-15,3.33066907387559E-15));
#1803=CARTESIAN_POINT('',(-2.45000000000002,-1.5,2.2));
#1804=VECTOR('',#1805,1.);
#1805=DIRECTION('',(-1.25607396694702E-14,0.707106781186547,-0.707106781186547));
#1806=CARTESIAN_POINT('',(-2.45000000000001,-1.3,2.));
#1807=VECTOR('',#1808,1.);
#1808=DIRECTION('',(0.70710678118655,0.,0.707106781186545));
#1809=CARTESIAN_POINT('',(-2.45000000000002,-1.3,2.));
#1810=VECTOR('',#1811,1.);
#1811=DIRECTION('',(0.,1.,0.));
#1812=CARTESIAN_POINT('',(3.24999999999999,-1.3,2.));
#1813=CARTESIAN_POINT('',(3.25,-1.5,2.2));
#1814=VECTOR('',#1815,1.);
#1815=DIRECTION('',(-5.18130511365646E-14,0.707106781186544,-0.707106781186551));
#1816=CARTESIAN_POINT('',(3.24999999999999,-1.3,2.));
#1817=VECTOR('',#1818,1.);
#1818=DIRECTION('',(0.707106781186536,7.85046229341878E-16,0.707106781186558));
#1819=CARTESIAN_POINT('',(3.24999999999999,1.3,2.));
#1820=CARTESIAN_POINT('',(3.24999999999999,-1.3,2.));
#1821=VECTOR('',#1822,1.);
#1822=DIRECTION('',(0.,1.,-1.70803542250024E-16));
#1823=CARTESIAN_POINT('',(3.44999999999999,1.3,2.2));
#1824=CARTESIAN_POINT('',(3.4333337240847,1.29999999969563,2.18333372378034));
#1825=CARTESIAN_POINT('',(3.40000039075254,1.29999999986165,2.1500003906142));
#1826=CARTESIAN_POINT('',(3.35000011988335,1.30000000094085,2.10000012082422));
#1827=CARTESIAN_POINT('',(3.2999997298378,1.29999999986161,2.04999972969941));
#1828=CARTESIAN_POINT('',(3.26666639650322,1.29999999969571,2.01666639619893));
#1829=CARTESIAN_POINT('',(3.24999999999984,1.30000000000021,2.00000000000005));
#1830=CARTESIAN_POINT('',(3.25,1.3,2.));
#1831=VECTOR('',#1832,1.);
#1832=DIRECTION('',(-1.72710170455215E-14,0.707106781186546,0.707106781186549));
#1833=CARTESIAN_POINT('',(2.45,1.3,2.));
#1834=CARTESIAN_POINT('',(3.24999999999999,1.3,2.));
#1835=VECTOR('',#1836,1.);
#1836=DIRECTION('',(-1.,2.77555756156293E-16,-5.55111512312585E-16));
#1837=CARTESIAN_POINT('',(2.45000000000001,1.5,2.2));
#1838=VECTOR('',#1839,1.);
#1839=DIRECTION('',(-3.4542034091043E-14,-0.707106781186546,-0.707106781186549));
#1840=CARTESIAN_POINT('',(2.45000000000001,1.3,2.));
#1841=VECTOR('',#1842,1.);
#1842=DIRECTION('',(-0.707106781186564,7.85046229341869E-16,0.707106781186531));
#1843=CARTESIAN_POINT('',(2.45,-1.3,2.));
#1844=CARTESIAN_POINT('',(2.45000000000001,1.3,2.));
#1845=VECTOR('',#1846,1.);
#1846=DIRECTION('',(0.,-1.,1.70803542250024E-16));
#1847=CARTESIAN_POINT('',(2.25,-1.3,2.20000000000001));
#1848=VECTOR('',#1849,1.);
#1849=DIRECTION('',(0.707106781186555,0.,-0.70710678118654));
#1850=CARTESIAN_POINT('',(2.44999999999999,-1.3,2.));
#1851=VECTOR('',#1852,1.);
#1852=DIRECTION('',(8.94952701449752E-14,-0.707106781186543,0.707106781186552));
#1853=CARTESIAN_POINT('',(2.45,-1.3,2.));
#1854=VECTOR('',#1855,1.);
#1855=DIRECTION('',(1.,0.,2.77555756156293E-16));
ENDSEC;
END-ISO-10303-21;
