ISO-10303-21;
HEADER;
FILE_DESCRIPTION(('STEP AP242'),
    '1');
FILE_NAME('knob push button header',
    '',
    ('UNSPECIFIED'),
    ('UNSPECIFIED'),
    'C3D Converter',
    'C3D Toolkit',
    '');
FILE_SCHEMA(('AP242_MANAGED_MODEL_BASED_3D_ENGINEERING_MIM_LF { 1 0 10303 442 1 1 4 }'));
ENDSEC;

DATA;
#1=SHAPE_REPRESENTATION('NONE',(#2),#6);
#2=AXIS2_PLACEMENT_3D('',#3,#4,#5);
#3=CARTESIAN_POINT('',(0.,0.,0.));
#4=DIRECTION('',(0.,0.,1.));
#5=DIRECTION('',(1.,0.,0.));
#6=(GEOMETRIC_REPRESENTATION_CONTEXT(3)GLOBAL_UNCERTAINTY_ASSIGNED_CONTEXT((#8))
GLOBAL_UNIT_ASSIGNED_CONTEXT((#7,#9,#10))REPRESENTATION_CONTEXT('NONE','NONE'));
#7=(LENGTH_UNIT()NAMED_UNIT(*)SI_UNIT(.MILLI.,.METRE.));
#8=UNCERTAINTY_MEASURE_WITH_UNIT(LENGTH_MEASURE(1.E-5),#7,'NONE','NONE');
#9=(NAMED_UNIT(*)PLANE_ANGLE_UNIT()SI_UNIT($,.RADIAN.));
#10=(NAMED_UNIT(*)SI_UNIT($,.STERADIAN.)SOLID_ANGLE_UNIT());
#11=SHAPE_DEFINITION_REPRESENTATION(#12,#1);
#12=PRODUCT_DEFINITION_SHAPE('NONE','NONE',#13);
#13=PRODUCT_DEFINITION('','UNSPECIFIED',#14,#17);
#14=PRODUCT_DEFINITION_FORMATION_WITH_SPECIFIED_SOURCE('ANY','UNSPECIFIED',#15,.NOT_KNOWN.);
#15=PRODUCT('knob push button header','knob push button header','NONE',(#20));
#16=PRODUCT_RELATED_PRODUCT_CATEGORY('detail','',(#15));
#17=DESIGN_CONTEXT('detailed design',#18,'design');
#18=APPLICATION_CONTEXT('configuration controlled 3d designs of mechanical parts and assemblies');
#19=APPLICATION_PROTOCOL_DEFINITION('international standard','config_control_design',
1994,#18);
#20=MECHANICAL_CONTEXT('NONE',#18,'mechanical');
#21=CC_DESIGN_DATE_AND_TIME_ASSIGNMENT(#22,#26,(#13));
#22=DATE_AND_TIME(#23,#24);
#23=CALENDAR_DATE(0,1,1);
#24=LOCAL_TIME(0,0,0.,#25);
#25=COORDINATED_UNIVERSAL_TIME_OFFSET(0,0,.AHEAD.);
#26=DATE_TIME_ROLE('creation_date');
#27=CC_DESIGN_APPROVAL(#28,(#13));
#28=APPROVAL(#29,'UNSPECIFIED');
#29=APPROVAL_STATUS('not_yet_approved');
#30=APPROVAL_DATE_TIME(#31,#28);
#31=DATE_AND_TIME(#32,#33);
#32=CALENDAR_DATE(0,1,1);
#33=LOCAL_TIME(0,0,0.,#34);
#34=COORDINATED_UNIVERSAL_TIME_OFFSET(0,0,.AHEAD.);
#35=MANIFOLD_SOLID_BREP('',#36);
#36=CLOSED_SHELL('',(#48,#57,#66,#75,#84,#93,#102,#111,#120,#129,#138,#147,#156,
#165,#174,#183));
#37=COLOUR_RGB('',0.564705882352941,0.564705882352941,0.564705882352941);
#38=FILL_AREA_STYLE_COLOUR('',#37);
#39=FILL_AREA_STYLE($,(#38));
#40=SURFACE_STYLE_FILL_AREA(#39);
#41=SURFACE_SIDE_STYLE('',(#40));
#42=SURFACE_STYLE_USAGE(.BOTH.,#41);
#43=PRESENTATION_STYLE_ASSIGNMENT((#42));
#44=MECHANICAL_DESIGN_GEOMETRIC_PRESENTATION_REPRESENTATION('NONE',(#45,#56,#65,
#74,#83,#92,#101,#110,#119,#128,#137,#146,#155,#164,#173,#182,#191),#6);
#45=STYLED_ITEM('',(#43),#35);
#46=ADVANCED_BREP_SHAPE_REPRESENTATION('NONE',(#35),#6);
#47=SHAPE_REPRESENTATION_RELATIONSHIP('','',#1,#46);
#48=ADVANCED_FACE('',(#192,#194),#196,.T.);
#49=COLOUR_RGB('',0.564705882352941,0.564705882352941,0.564705882352941);
#50=FILL_AREA_STYLE_COLOUR('',#49);
#51=FILL_AREA_STYLE($,(#50));
#52=SURFACE_STYLE_FILL_AREA(#51);
#53=SURFACE_SIDE_STYLE('',(#52));
#54=SURFACE_STYLE_USAGE(.BOTH.,#53);
#55=PRESENTATION_STYLE_ASSIGNMENT((#54));
#56=STYLED_ITEM('',(#55),#48);
#57=ADVANCED_FACE('',(#201),#203,.F.);
#58=COLOUR_RGB('',0.564705882352941,0.564705882352941,0.564705882352941);
#59=FILL_AREA_STYLE_COLOUR('',#58);
#60=FILL_AREA_STYLE($,(#59));
#61=SURFACE_STYLE_FILL_AREA(#60);
#62=SURFACE_SIDE_STYLE('',(#61));
#63=SURFACE_STYLE_USAGE(.BOTH.,#62);
#64=PRESENTATION_STYLE_ASSIGNMENT((#63));
#65=STYLED_ITEM('',(#64),#57);
#66=ADVANCED_FACE('',(#208),#210,.F.);
#67=COLOUR_RGB('',0.564705882352941,0.564705882352941,0.564705882352941);
#68=FILL_AREA_STYLE_COLOUR('',#67);
#69=FILL_AREA_STYLE($,(#68));
#70=SURFACE_STYLE_FILL_AREA(#69);
#71=SURFACE_SIDE_STYLE('',(#70));
#72=SURFACE_STYLE_USAGE(.BOTH.,#71);
#73=PRESENTATION_STYLE_ASSIGNMENT((#72));
#74=STYLED_ITEM('',(#73),#66);
#75=ADVANCED_FACE('',(#215),#217,.F.);
#76=COLOUR_RGB('',0.564705882352941,0.564705882352941,0.564705882352941);
#77=FILL_AREA_STYLE_COLOUR('',#76);
#78=FILL_AREA_STYLE($,(#77));
#79=SURFACE_STYLE_FILL_AREA(#78);
#80=SURFACE_SIDE_STYLE('',(#79));
#81=SURFACE_STYLE_USAGE(.BOTH.,#80);
#82=PRESENTATION_STYLE_ASSIGNMENT((#81));
#83=STYLED_ITEM('',(#82),#75);
#84=ADVANCED_FACE('',(#222),#224,.F.);
#85=COLOUR_RGB('',0.564705882352941,0.564705882352941,0.564705882352941);
#86=FILL_AREA_STYLE_COLOUR('',#85);
#87=FILL_AREA_STYLE($,(#86));
#88=SURFACE_STYLE_FILL_AREA(#87);
#89=SURFACE_SIDE_STYLE('',(#88));
#90=SURFACE_STYLE_USAGE(.BOTH.,#89);
#91=PRESENTATION_STYLE_ASSIGNMENT((#90));
#92=STYLED_ITEM('',(#91),#84);
#93=ADVANCED_FACE('',(#229),#231,.F.);
#94=COLOUR_RGB('',0.564705882352941,0.564705882352941,0.564705882352941);
#95=FILL_AREA_STYLE_COLOUR('',#94);
#96=FILL_AREA_STYLE($,(#95));
#97=SURFACE_STYLE_FILL_AREA(#96);
#98=SURFACE_SIDE_STYLE('',(#97));
#99=SURFACE_STYLE_USAGE(.BOTH.,#98);
#100=PRESENTATION_STYLE_ASSIGNMENT((#99));
#101=STYLED_ITEM('',(#100),#93);
#102=ADVANCED_FACE('',(#236),#238,.F.);
#103=COLOUR_RGB('',0.564705882352941,0.564705882352941,0.564705882352941);
#104=FILL_AREA_STYLE_COLOUR('',#103);
#105=FILL_AREA_STYLE($,(#104));
#106=SURFACE_STYLE_FILL_AREA(#105);
#107=SURFACE_SIDE_STYLE('',(#106));
#108=SURFACE_STYLE_USAGE(.BOTH.,#107);
#109=PRESENTATION_STYLE_ASSIGNMENT((#108));
#110=STYLED_ITEM('',(#109),#102);
#111=ADVANCED_FACE('',(#243),#245,.F.);
#112=COLOUR_RGB('',0.564705882352941,0.564705882352941,0.564705882352941);
#113=FILL_AREA_STYLE_COLOUR('',#112);
#114=FILL_AREA_STYLE($,(#113));
#115=SURFACE_STYLE_FILL_AREA(#114);
#116=SURFACE_SIDE_STYLE('',(#115));
#117=SURFACE_STYLE_USAGE(.BOTH.,#116);
#118=PRESENTATION_STYLE_ASSIGNMENT((#117));
#119=STYLED_ITEM('',(#118),#111);
#120=ADVANCED_FACE('',(#250),#252,.T.);
#121=COLOUR_RGB('',0.564705882352941,0.564705882352941,0.564705882352941);
#122=FILL_AREA_STYLE_COLOUR('',#121);
#123=FILL_AREA_STYLE($,(#122));
#124=SURFACE_STYLE_FILL_AREA(#123);
#125=SURFACE_SIDE_STYLE('',(#124));
#126=SURFACE_STYLE_USAGE(.BOTH.,#125);
#127=PRESENTATION_STYLE_ASSIGNMENT((#126));
#128=STYLED_ITEM('',(#127),#120);
#129=ADVANCED_FACE('',(#257),#259,.F.);
#130=COLOUR_RGB('',0.564705882352941,0.564705882352941,0.564705882352941);
#131=FILL_AREA_STYLE_COLOUR('',#130);
#132=FILL_AREA_STYLE($,(#131));
#133=SURFACE_STYLE_FILL_AREA(#132);
#134=SURFACE_SIDE_STYLE('',(#133));
#135=SURFACE_STYLE_USAGE(.BOTH.,#134);
#136=PRESENTATION_STYLE_ASSIGNMENT((#135));
#137=STYLED_ITEM('',(#136),#129);
#138=ADVANCED_FACE('',(#264),#266,.F.);
#139=COLOUR_RGB('',0.564705882352941,0.564705882352941,0.564705882352941);
#140=FILL_AREA_STYLE_COLOUR('',#139);
#141=FILL_AREA_STYLE($,(#140));
#142=SURFACE_STYLE_FILL_AREA(#141);
#143=SURFACE_SIDE_STYLE('',(#142));
#144=SURFACE_STYLE_USAGE(.BOTH.,#143);
#145=PRESENTATION_STYLE_ASSIGNMENT((#144));
#146=STYLED_ITEM('',(#145),#138);
#147=ADVANCED_FACE('',(#271),#273,.F.);
#148=COLOUR_RGB('',0.564705882352941,0.564705882352941,0.564705882352941);
#149=FILL_AREA_STYLE_COLOUR('',#148);
#150=FILL_AREA_STYLE($,(#149));
#151=SURFACE_STYLE_FILL_AREA(#150);
#152=SURFACE_SIDE_STYLE('',(#151));
#153=SURFACE_STYLE_USAGE(.BOTH.,#152);
#154=PRESENTATION_STYLE_ASSIGNMENT((#153));
#155=STYLED_ITEM('',(#154),#147);
#156=ADVANCED_FACE('',(#278),#280,.T.);
#157=COLOUR_RGB('',0.564705882352941,0.564705882352941,0.564705882352941);
#158=FILL_AREA_STYLE_COLOUR('',#157);
#159=FILL_AREA_STYLE($,(#158));
#160=SURFACE_STYLE_FILL_AREA(#159);
#161=SURFACE_SIDE_STYLE('',(#160));
#162=SURFACE_STYLE_USAGE(.BOTH.,#161);
#163=PRESENTATION_STYLE_ASSIGNMENT((#162));
#164=STYLED_ITEM('',(#163),#156);
#165=ADVANCED_FACE('',(#285),#287,.F.);
#166=COLOUR_RGB('',0.564705882352941,0.564705882352941,0.564705882352941);
#167=FILL_AREA_STYLE_COLOUR('',#166);
#168=FILL_AREA_STYLE($,(#167));
#169=SURFACE_STYLE_FILL_AREA(#168);
#170=SURFACE_SIDE_STYLE('',(#169));
#171=SURFACE_STYLE_USAGE(.BOTH.,#170);
#172=PRESENTATION_STYLE_ASSIGNMENT((#171));
#173=STYLED_ITEM('',(#172),#165);
#174=ADVANCED_FACE('',(#292),#294,.T.);
#175=COLOUR_RGB('',0.564705882352941,0.564705882352941,0.564705882352941);
#176=FILL_AREA_STYLE_COLOUR('',#175);
#177=FILL_AREA_STYLE($,(#176));
#178=SURFACE_STYLE_FILL_AREA(#177);
#179=SURFACE_SIDE_STYLE('',(#178));
#180=SURFACE_STYLE_USAGE(.BOTH.,#179);
#181=PRESENTATION_STYLE_ASSIGNMENT((#180));
#182=STYLED_ITEM('',(#181),#174);
#183=ADVANCED_FACE('',(#299,#301),#303,.T.);
#184=COLOUR_RGB('',0.564705882352941,0.564705882352941,0.564705882352941);
#185=FILL_AREA_STYLE_COLOUR('',#184);
#186=FILL_AREA_STYLE($,(#185));
#187=SURFACE_STYLE_FILL_AREA(#186);
#188=SURFACE_SIDE_STYLE('',(#187));
#189=SURFACE_STYLE_USAGE(.BOTH.,#188);
#190=PRESENTATION_STYLE_ASSIGNMENT((#189));
#191=STYLED_ITEM('',(#190),#183);
#192=FACE_BOUND('',#193,.T.);
#193=EDGE_LOOP('',(#308,#309,#310,#311,#312,#313,#314,#315,#316));
#194=FACE_OUTER_BOUND('',#195,.T.);
#195=EDGE_LOOP('',(#317));
#196=CYLINDRICAL_SURFACE('',#197,2.5);
#197=AXIS2_PLACEMENT_3D('',#198,#199,#200);
#198=CARTESIAN_POINT('',(0.,9.,0.));
#199=DIRECTION('',(0.,-1.,0.));
#200=DIRECTION('',(0.,0.,-1.));
#201=FACE_BOUND('',#202,.T.);
#202=EDGE_LOOP('',(#318,#319,#320,#321,#322,#323,#324,#325));
#203=PLANE('',#204);
#204=AXIS2_PLACEMENT_3D('',#205,#206,#207);
#205=CARTESIAN_POINT('',(1.35,7.,1.35));
#206=DIRECTION('',(1.,0.,2.4093381610789E-16));
#207=DIRECTION('',(2.4093381610789E-16,0.,-1.));
#208=FACE_BOUND('',#209,.T.);
#209=EDGE_LOOP('',(#326,#327,#328,#329));
#210=PLANE('',#211);
#211=AXIS2_PLACEMENT_3D('',#212,#213,#214);
#212=CARTESIAN_POINT('',(-1.35,7.,-1.35));
#213=DIRECTION('',(0.,0.,-1.));
#214=DIRECTION('',(-1.,0.,0.));
#215=FACE_BOUND('',#216,.T.);
#216=EDGE_LOOP('',(#330,#331,#332,#333,#334,#335,#336,#337));
#217=PLANE('',#218);
#218=AXIS2_PLACEMENT_3D('',#219,#220,#221);
#219=CARTESIAN_POINT('',(-1.35,7.,1.35));
#220=DIRECTION('',(-1.,0.,-1.60622544071927E-16));
#221=DIRECTION('',(-1.60622544071927E-16,0.,1.));
#222=FACE_BOUND('',#223,.T.);
#223=EDGE_LOOP('',(#338,#339,#340,#341));
#224=PLANE('',#225);
#225=AXIS2_PLACEMENT_3D('',#226,#227,#228);
#226=CARTESIAN_POINT('',(-1.35,7.,1.35));
#227=DIRECTION('',(0.,0.,1.));
#228=DIRECTION('',(1.,0.,0.));
#229=FACE_BOUND('',#230,.T.);
#230=EDGE_LOOP('',(#342,#343,#344,#345));
#231=PLANE('',#232);
#232=AXIS2_PLACEMENT_3D('',#233,#234,#235);
#233=CARTESIAN_POINT('',(0.,6.,7.75393858468362E-17));
#234=DIRECTION('',(0.,1.,0.));
#235=DIRECTION('',(-1.,0.,-1.22464679914735E-16));
#236=FACE_BOUND('',#237,.T.);
#237=EDGE_LOOP('',(#346,#347,#348,#349,#350,#351,#352));
#238=PLANE('',#239);
#239=AXIS2_PLACEMENT_3D('',#240,#241,#242);
#240=CARTESIAN_POINT('',(0.,0.,0.));
#241=DIRECTION('',(0.,1.,0.));
#242=DIRECTION('',(0.,0.,1.));
#243=FACE_BOUND('',#244,.T.);
#244=EDGE_LOOP('',(#353,#354,#355,#356));
#245=PLANE('',#246);
#246=AXIS2_PLACEMENT_3D('',#247,#248,#249);
#247=CARTESIAN_POINT('',(-2.5,3.,-0.25));
#248=DIRECTION('',(0.,0.,-1.));
#249=DIRECTION('',(-1.,0.,0.));
#250=FACE_BOUND('',#251,.T.);
#251=EDGE_LOOP('',(#357,#358,#359,#360));
#252=PLANE('',#253);
#253=AXIS2_PLACEMENT_3D('',#254,#255,#256);
#254=CARTESIAN_POINT('',(0.,3.,0.));
#255=DIRECTION('',(0.,-1.,0.));
#256=DIRECTION('',(0.,0.,-1.));
#257=FACE_BOUND('',#258,.T.);
#258=EDGE_LOOP('',(#361,#362,#363,#364));
#259=PLANE('',#260);
#260=AXIS2_PLACEMENT_3D('',#261,#262,#263);
#261=CARTESIAN_POINT('',(-2.5,3.,0.25));
#262=DIRECTION('',(0.,0.,1.));
#263=DIRECTION('',(1.,0.,0.));
#264=FACE_BOUND('',#265,.T.);
#265=EDGE_LOOP('',(#365,#366,#367,#368,#369,#370));
#266=PLANE('',#267);
#267=AXIS2_PLACEMENT_3D('',#268,#269,#270);
#268=CARTESIAN_POINT('',(0.,0.,0.));
#269=DIRECTION('',(0.,1.,0.));
#270=DIRECTION('',(0.,0.,1.));
#271=FACE_BOUND('',#272,.T.);
#272=EDGE_LOOP('',(#371,#372,#373,#374));
#273=PLANE('',#274);
#274=AXIS2_PLACEMENT_3D('',#275,#276,#277);
#275=CARTESIAN_POINT('',(-2.5,3.,0.25));
#276=DIRECTION('',(0.,0.,1.));
#277=DIRECTION('',(1.,0.,0.));
#278=FACE_BOUND('',#279,.T.);
#279=EDGE_LOOP('',(#375,#376,#377,#378));
#280=PLANE('',#281);
#281=AXIS2_PLACEMENT_3D('',#282,#283,#284);
#282=CARTESIAN_POINT('',(0.,3.,0.));
#283=DIRECTION('',(0.,-1.,0.));
#284=DIRECTION('',(0.,0.,-1.));
#285=FACE_BOUND('',#286,.T.);
#286=EDGE_LOOP('',(#379,#380,#381,#382));
#287=PLANE('',#288);
#288=AXIS2_PLACEMENT_3D('',#289,#290,#291);
#289=CARTESIAN_POINT('',(-2.5,3.,-0.25));
#290=DIRECTION('',(0.,0.,-1.));
#291=DIRECTION('',(-1.,0.,0.));
#292=FACE_BOUND('',#293,.T.);
#293=EDGE_LOOP('',(#383));
#294=PLANE('',#295);
#295=AXIS2_PLACEMENT_3D('',#296,#297,#298);
#296=CARTESIAN_POINT('',(0.,7.,7.75393858468362E-17));
#297=DIRECTION('',(0.,1.,0.));
#298=DIRECTION('',(-1.,0.,-1.22464679914735E-16));
#299=FACE_OUTER_BOUND('',#300,.T.);
#300=EDGE_LOOP('',(#384));
#301=FACE_OUTER_BOUND('',#302,.T.);
#302=EDGE_LOOP('',(#385));
#303=TOROIDAL_SURFACE('',#304,1.7,0.8);
#304=AXIS2_PLACEMENT_3D('',#305,#306,#307);
#305=CARTESIAN_POINT('',(0.,6.2,0.));
#306=DIRECTION('',(0.,1.,0.));
#307=DIRECTION('',(-5.75583995599256E-17,0.,-1.));
#308=ORIENTED_EDGE('',*,*,#386,.F.);
#309=ORIENTED_EDGE('',*,*,#387,.T.);
#310=ORIENTED_EDGE('',*,*,#388,.T.);
#311=ORIENTED_EDGE('',*,*,#389,.T.);
#312=ORIENTED_EDGE('',*,*,#390,.T.);
#313=ORIENTED_EDGE('',*,*,#391,.F.);
#314=ORIENTED_EDGE('',*,*,#392,.T.);
#315=ORIENTED_EDGE('',*,*,#393,.T.);
#316=ORIENTED_EDGE('',*,*,#394,.T.);
#317=ORIENTED_EDGE('',*,*,#395,.F.);
#318=ORIENTED_EDGE('',*,*,#396,.F.);
#319=ORIENTED_EDGE('',*,*,#397,.T.);
#320=ORIENTED_EDGE('',*,*,#398,.T.);
#321=ORIENTED_EDGE('',*,*,#399,.T.);
#322=ORIENTED_EDGE('',*,*,#400,.F.);
#323=ORIENTED_EDGE('',*,*,#401,.T.);
#324=ORIENTED_EDGE('',*,*,#402,.T.);
#325=ORIENTED_EDGE('',*,*,#403,.F.);
#326=ORIENTED_EDGE('',*,*,#404,.F.);
#327=ORIENTED_EDGE('',*,*,#405,.T.);
#328=ORIENTED_EDGE('',*,*,#406,.T.);
#329=ORIENTED_EDGE('',*,*,#397,.F.);
#330=ORIENTED_EDGE('',*,*,#407,.F.);
#331=ORIENTED_EDGE('',*,*,#408,.T.);
#332=ORIENTED_EDGE('',*,*,#409,.T.);
#333=ORIENTED_EDGE('',*,*,#410,.T.);
#334=ORIENTED_EDGE('',*,*,#411,.F.);
#335=ORIENTED_EDGE('',*,*,#412,.T.);
#336=ORIENTED_EDGE('',*,*,#413,.T.);
#337=ORIENTED_EDGE('',*,*,#405,.F.);
#338=ORIENTED_EDGE('',*,*,#414,.F.);
#339=ORIENTED_EDGE('',*,*,#403,.T.);
#340=ORIENTED_EDGE('',*,*,#415,.T.);
#341=ORIENTED_EDGE('',*,*,#408,.F.);
#342=ORIENTED_EDGE('',*,*,#414,.T.);
#343=ORIENTED_EDGE('',*,*,#407,.T.);
#344=ORIENTED_EDGE('',*,*,#404,.T.);
#345=ORIENTED_EDGE('',*,*,#396,.T.);
#346=ORIENTED_EDGE('',*,*,#388,.F.);
#347=ORIENTED_EDGE('',*,*,#416,.F.);
#348=ORIENTED_EDGE('',*,*,#398,.F.);
#349=ORIENTED_EDGE('',*,*,#406,.F.);
#350=ORIENTED_EDGE('',*,*,#413,.F.);
#351=ORIENTED_EDGE('',*,*,#417,.F.);
#352=ORIENTED_EDGE('',*,*,#389,.F.);
#353=ORIENTED_EDGE('',*,*,#417,.T.);
#354=ORIENTED_EDGE('',*,*,#412,.F.);
#355=ORIENTED_EDGE('',*,*,#418,.F.);
#356=ORIENTED_EDGE('',*,*,#390,.F.);
#357=ORIENTED_EDGE('',*,*,#391,.T.);
#358=ORIENTED_EDGE('',*,*,#418,.T.);
#359=ORIENTED_EDGE('',*,*,#411,.T.);
#360=ORIENTED_EDGE('',*,*,#419,.T.);
#361=ORIENTED_EDGE('',*,*,#419,.F.);
#362=ORIENTED_EDGE('',*,*,#410,.F.);
#363=ORIENTED_EDGE('',*,*,#420,.T.);
#364=ORIENTED_EDGE('',*,*,#392,.F.);
#365=ORIENTED_EDGE('',*,*,#420,.F.);
#366=ORIENTED_EDGE('',*,*,#409,.F.);
#367=ORIENTED_EDGE('',*,*,#415,.F.);
#368=ORIENTED_EDGE('',*,*,#402,.F.);
#369=ORIENTED_EDGE('',*,*,#421,.F.);
#370=ORIENTED_EDGE('',*,*,#393,.F.);
#371=ORIENTED_EDGE('',*,*,#421,.T.);
#372=ORIENTED_EDGE('',*,*,#401,.F.);
#373=ORIENTED_EDGE('',*,*,#422,.F.);
#374=ORIENTED_EDGE('',*,*,#394,.F.);
#375=ORIENTED_EDGE('',*,*,#386,.T.);
#376=ORIENTED_EDGE('',*,*,#422,.T.);
#377=ORIENTED_EDGE('',*,*,#400,.T.);
#378=ORIENTED_EDGE('',*,*,#423,.T.);
#379=ORIENTED_EDGE('',*,*,#423,.F.);
#380=ORIENTED_EDGE('',*,*,#399,.F.);
#381=ORIENTED_EDGE('',*,*,#416,.T.);
#382=ORIENTED_EDGE('',*,*,#387,.F.);
#383=ORIENTED_EDGE('',*,*,#424,.T.);
#384=ORIENTED_EDGE('',*,*,#424,.F.);
#385=ORIENTED_EDGE('',*,*,#395,.T.);
#386=EDGE_CURVE('',#425,#426,#427,.T.);
#387=EDGE_CURVE('',#425,#428,#429,.T.);
#388=EDGE_CURVE('',#428,#430,#431,.T.);
#389=EDGE_CURVE('',#430,#432,#433,.T.);
#390=EDGE_CURVE('',#432,#434,#435,.T.);
#391=EDGE_CURVE('',#436,#434,#437,.T.);
#392=EDGE_CURVE('',#436,#438,#439,.T.);
#393=EDGE_CURVE('',#438,#440,#441,.T.);
#394=EDGE_CURVE('',#440,#426,#442,.T.);
#395=EDGE_CURVE('',#443,#443,#444,.T.);
#396=EDGE_CURVE('',#445,#446,#447,.T.);
#397=EDGE_CURVE('',#445,#448,#449,.T.);
#398=EDGE_CURVE('',#448,#450,#451,.T.);
#399=EDGE_CURVE('',#450,#452,#453,.T.);
#400=EDGE_CURVE('',#454,#452,#455,.T.);
#401=EDGE_CURVE('',#454,#456,#457,.T.);
#402=EDGE_CURVE('',#456,#458,#459,.T.);
#403=EDGE_CURVE('',#446,#458,#460,.T.);
#404=EDGE_CURVE('',#461,#445,#462,.T.);
#405=EDGE_CURVE('',#461,#463,#464,.T.);
#406=EDGE_CURVE('',#463,#448,#465,.T.);
#407=EDGE_CURVE('',#466,#461,#467,.T.);
#408=EDGE_CURVE('',#466,#468,#469,.T.);
#409=EDGE_CURVE('',#468,#470,#471,.T.);
#410=EDGE_CURVE('',#470,#472,#473,.T.);
#411=EDGE_CURVE('',#474,#472,#475,.T.);
#412=EDGE_CURVE('',#474,#476,#477,.T.);
#413=EDGE_CURVE('',#476,#463,#478,.T.);
#414=EDGE_CURVE('',#446,#466,#479,.T.);
#415=EDGE_CURVE('',#458,#468,#480,.T.);
#416=EDGE_CURVE('',#450,#428,#481,.T.);
#417=EDGE_CURVE('',#432,#476,#482,.T.);
#418=EDGE_CURVE('',#434,#474,#483,.T.);
#419=EDGE_CURVE('',#472,#436,#484,.T.);
#420=EDGE_CURVE('',#470,#438,#485,.T.);
#421=EDGE_CURVE('',#440,#456,#486,.T.);
#422=EDGE_CURVE('',#426,#454,#487,.T.);
#423=EDGE_CURVE('',#452,#425,#488,.T.);
#424=EDGE_CURVE('',#489,#489,#490,.T.);
#425=VERTEX_POINT('',#491);
#426=VERTEX_POINT('',#492);
#427=CIRCLE('',#493,2.5);
#428=VERTEX_POINT('',#497);
#429=LINE('',#498,#499);
#430=VERTEX_POINT('',#501);
#431=CIRCLE('',#502,2.5);
#432=VERTEX_POINT('',#506);
#433=CIRCLE('',#507,2.5);
#434=VERTEX_POINT('',#511);
#435=LINE('',#512,#513);
#436=VERTEX_POINT('',#515);
#437=CIRCLE('',#516,2.5);
#438=VERTEX_POINT('',#520);
#439=LINE('',#521,#522);
#440=VERTEX_POINT('',#524);
#441=CIRCLE('',#525,2.5);
#442=LINE('',#529,#530);
#443=VERTEX_POINT('',#532);
#444=CIRCLE('',#533,2.5);
#445=VERTEX_POINT('',#537);
#446=VERTEX_POINT('',#538);
#447=LINE('',#539,#540);
#448=VERTEX_POINT('',#542);
#449=LINE('',#543,#544);
#450=VERTEX_POINT('',#546);
#451=LINE('',#547,#548);
#452=VERTEX_POINT('',#550);
#453=LINE('',#551,#552);
#454=VERTEX_POINT('',#554);
#455=LINE('',#555,#556);
#456=VERTEX_POINT('',#558);
#457=LINE('',#559,#560);
#458=VERTEX_POINT('',#562);
#459=LINE('',#563,#564);
#460=LINE('',#566,#567);
#461=VERTEX_POINT('',#569);
#462=LINE('',#570,#571);
#463=VERTEX_POINT('',#573);
#464=LINE('',#574,#575);
#465=LINE('',#577,#578);
#466=VERTEX_POINT('',#580);
#467=LINE('',#581,#582);
#468=VERTEX_POINT('',#584);
#469=LINE('',#585,#586);
#470=VERTEX_POINT('',#588);
#471=LINE('',#589,#590);
#472=VERTEX_POINT('',#592);
#473=LINE('',#593,#594);
#474=VERTEX_POINT('',#596);
#475=LINE('',#597,#598);
#476=VERTEX_POINT('',#600);
#477=LINE('',#601,#602);
#478=LINE('',#604,#605);
#479=LINE('',#607,#608);
#480=LINE('',#610,#611);
#481=LINE('',#613,#614);
#482=LINE('',#616,#617);
#483=LINE('',#619,#620);
#484=LINE('',#622,#623);
#485=LINE('',#625,#626);
#486=LINE('',#628,#629);
#487=LINE('',#631,#632);
#488=LINE('',#634,#635);
#489=VERTEX_POINT('',#637);
#490=CIRCLE('',#638,1.7);
#491=CARTESIAN_POINT('',(2.48746859276655,3.,-0.25));
#492=CARTESIAN_POINT('',(2.48746859276655,3.,0.25));
#493=AXIS2_PLACEMENT_3D('',#494,#495,#496);
#494=CARTESIAN_POINT('',(0.,3.,0.));
#495=DIRECTION('',(0.,-1.,0.));
#496=DIRECTION('',(0.99498743710662,0.,-0.1));
#497=CARTESIAN_POINT('',(2.48746859276655,0.,-0.25));
#498=CARTESIAN_POINT('',(2.48746859276655,3.,-0.25));
#499=VECTOR('',#500,1.);
#500=DIRECTION('',(0.,-1.,0.));
#501=CARTESIAN_POINT('',(-1.02195627931433E-16,5.9211894646675E-16,-2.5));
#502=AXIS2_PLACEMENT_3D('',#503,#504,#505);
#503=CARTESIAN_POINT('',(0.,0.,0.));
#504=DIRECTION('',(0.,1.,0.));
#505=DIRECTION('',(0.99498743710662,0.,-0.1));
#506=CARTESIAN_POINT('',(-2.48746859276655,0.,-0.25));
#507=AXIS2_PLACEMENT_3D('',#508,#509,#510);
#508=CARTESIAN_POINT('',(0.,0.,0.));
#509=DIRECTION('',(0.,1.,0.));
#510=DIRECTION('',(1.22464679914735E-16,0.,-1.));
#511=CARTESIAN_POINT('',(-2.48746859276655,3.,-0.25));
#512=CARTESIAN_POINT('',(-2.48746859276655,0.,-0.25));
#513=VECTOR('',#514,1.);
#514=DIRECTION('',(0.,1.,0.));
#515=CARTESIAN_POINT('',(-2.48746859276655,3.,0.25));
#516=AXIS2_PLACEMENT_3D('',#517,#518,#519);
#517=CARTESIAN_POINT('',(0.,3.,0.));
#518=DIRECTION('',(0.,-1.,0.));
#519=DIRECTION('',(-0.99498743710662,0.,0.1));
#520=CARTESIAN_POINT('',(-2.48746859276655,0.,0.25));
#521=CARTESIAN_POINT('',(-2.48746859276655,3.,0.25));
#522=VECTOR('',#523,1.);
#523=DIRECTION('',(0.,-1.,0.));
#524=CARTESIAN_POINT('',(2.48746859276655,0.,0.25));
#525=AXIS2_PLACEMENT_3D('',#526,#527,#528);
#526=CARTESIAN_POINT('',(0.,0.,0.));
#527=DIRECTION('',(0.,1.,0.));
#528=DIRECTION('',(-0.99498743710662,0.,0.0999999999999998));
#529=CARTESIAN_POINT('',(2.48746859276655,0.,0.25));
#530=VECTOR('',#531,1.);
#531=DIRECTION('',(0.,1.,0.));
#532=CARTESIAN_POINT('',(-7.1947999449907E-17,6.2,-2.5));
#533=AXIS2_PLACEMENT_3D('',#534,#535,#536);
#534=CARTESIAN_POINT('',(0.,6.2,0.));
#535=DIRECTION('',(0.,1.,0.));
#536=DIRECTION('',(-2.44929359829471E-16,0.,-1.));
#537=CARTESIAN_POINT('',(1.35,6.,-1.35));
#538=CARTESIAN_POINT('',(1.35,6.,1.35));
#539=CARTESIAN_POINT('',(1.35,6.,-1.35));
#540=VECTOR('',#541,1.);
#541=DIRECTION('',(-2.46716227694479E-16,0.,1.));
#542=CARTESIAN_POINT('',(1.35,0.,-1.35));
#543=CARTESIAN_POINT('',(1.35,6.,-1.35));
#544=VECTOR('',#545,1.);
#545=DIRECTION('',(0.,-1.,0.));
#546=CARTESIAN_POINT('',(1.35,0.,-0.25));
#547=CARTESIAN_POINT('',(1.35,0.,-1.35));
#548=VECTOR('',#549,1.);
#549=DIRECTION('',(0.,0.,1.));
#550=CARTESIAN_POINT('',(1.35,3.,-0.25));
#551=CARTESIAN_POINT('',(1.35,-8.88178419700125E-16,-0.25));
#552=VECTOR('',#553,1.);
#553=DIRECTION('',(0.,1.,0.));
#554=CARTESIAN_POINT('',(1.35,3.,0.25));
#555=CARTESIAN_POINT('',(1.35,3.,0.25));
#556=VECTOR('',#557,1.);
#557=DIRECTION('',(4.44089209850062E-16,0.,-1.));
#558=CARTESIAN_POINT('',(1.35,0.,0.25));
#559=CARTESIAN_POINT('',(1.35,3.,0.25));
#560=VECTOR('',#561,1.);
#561=DIRECTION('',(0.,-1.,0.));
#562=CARTESIAN_POINT('',(1.35,0.,1.35));
#563=CARTESIAN_POINT('',(1.35,0.,0.25));
#564=VECTOR('',#565,1.);
#565=DIRECTION('',(-4.03717463500057E-16,0.,1.));
#566=CARTESIAN_POINT('',(1.35,6.,1.35));
#567=VECTOR('',#568,1.);
#568=DIRECTION('',(0.,-1.,0.));
#569=CARTESIAN_POINT('',(-1.35,6.,-1.35));
#570=CARTESIAN_POINT('',(-1.35,6.,-1.35));
#571=VECTOR('',#572,1.);
#572=DIRECTION('',(1.,0.,0.));
#573=CARTESIAN_POINT('',(-1.35,0.,-1.35));
#574=CARTESIAN_POINT('',(-1.35,6.,-1.35));
#575=VECTOR('',#576,1.);
#576=DIRECTION('',(0.,-1.,0.));
#577=CARTESIAN_POINT('',(-1.35,0.,-1.35));
#578=VECTOR('',#579,1.);
#579=DIRECTION('',(1.,0.,0.));
#580=CARTESIAN_POINT('',(-1.35,6.,1.35));
#581=CARTESIAN_POINT('',(-1.35,6.,1.35));
#582=VECTOR('',#583,1.);
#583=DIRECTION('',(1.64477485129653E-16,0.,-1.));
#584=CARTESIAN_POINT('',(-1.35,0.,1.35));
#585=CARTESIAN_POINT('',(-1.35,6.,1.35));
#586=VECTOR('',#587,1.);
#587=DIRECTION('',(0.,-1.,0.));
#588=CARTESIAN_POINT('',(-1.35,0.,0.25));
#589=CARTESIAN_POINT('',(-1.35,0.,1.35));
#590=VECTOR('',#591,1.);
#591=DIRECTION('',(2.01858731750028E-16,0.,-1.));
#592=CARTESIAN_POINT('',(-1.35,3.,0.25));
#593=CARTESIAN_POINT('',(-1.35,-8.88178419700125E-16,0.25));
#594=VECTOR('',#595,1.);
#595=DIRECTION('',(0.,1.,0.));
#596=CARTESIAN_POINT('',(-1.35,3.,-0.25));
#597=CARTESIAN_POINT('',(-1.35,3.,-0.25));
#598=VECTOR('',#599,1.);
#599=DIRECTION('',(0.,0.,1.));
#600=CARTESIAN_POINT('',(-1.35,0.,-0.25));
#601=CARTESIAN_POINT('',(-1.35,3.,-0.25));
#602=VECTOR('',#603,1.);
#603=DIRECTION('',(0.,-1.,0.));
#604=CARTESIAN_POINT('',(-1.35,0.,-0.25));
#605=VECTOR('',#606,1.);
#606=DIRECTION('',(0.,0.,-1.));
#607=CARTESIAN_POINT('',(1.35,6.,1.35));
#608=VECTOR('',#609,1.);
#609=DIRECTION('',(-1.,0.,0.));
#610=CARTESIAN_POINT('',(1.35,0.,1.35));
#611=VECTOR('',#612,1.);
#612=DIRECTION('',(-1.,0.,0.));
#613=CARTESIAN_POINT('',(1.35,0.,-0.25));
#614=VECTOR('',#615,1.);
#615=DIRECTION('',(1.,0.,0.));
#616=CARTESIAN_POINT('',(-2.48746859276655,0.,-0.25));
#617=VECTOR('',#618,1.);
#618=DIRECTION('',(1.,0.,0.));
#619=CARTESIAN_POINT('',(-2.48746859276655,3.,-0.25));
#620=VECTOR('',#621,1.);
#621=DIRECTION('',(1.,0.,0.));
#622=CARTESIAN_POINT('',(-1.35,3.,0.25));
#623=VECTOR('',#624,1.);
#624=DIRECTION('',(-1.,0.,0.));
#625=CARTESIAN_POINT('',(-1.35,0.,0.25));
#626=VECTOR('',#627,1.);
#627=DIRECTION('',(-1.,0.,0.));
#628=CARTESIAN_POINT('',(2.48746859276655,0.,0.25));
#629=VECTOR('',#630,1.);
#630=DIRECTION('',(-1.,0.,0.));
#631=CARTESIAN_POINT('',(2.48746859276655,3.,0.25));
#632=VECTOR('',#633,1.);
#633=DIRECTION('',(-1.,0.,0.));
#634=CARTESIAN_POINT('',(1.35,3.,-0.25));
#635=VECTOR('',#636,1.);
#636=DIRECTION('',(1.,0.,0.));
#637=CARTESIAN_POINT('',(3.16448732899676E-16,7.,-1.7));
#638=AXIS2_PLACEMENT_3D('',#639,#640,#641);
#639=CARTESIAN_POINT('',(0.,7.,0.));
#640=DIRECTION('',(0.,1.,0.));
#641=DIRECTION('',(3.06161699786838E-16,0.,-1.));
ENDSEC;
END-ISO-10303-21;
