ISO-10303-21;
HEADER;
FILE_DESCRIPTION(('STEP AP242'),
    '1');
FILE_NAME('Knob_big',
    '',
    ('UNSPECIFIED'),
    ('UNSPECIFIED'),
    'C3D Converter',
    'C3D Toolkit',
    '');
FILE_SCHEMA(('AP242_MANAGED_MODEL_BASED_3D_ENGINEERING_MIM_LF { 1 0 10303 442 1 1 4 }'));
ENDSEC;

DATA;
#1=SHAPE_REPRESENTATION('NONE',(#2),#6);
#2=AXIS2_PLACEMENT_3D('',#3,#4,#5);
#3=CARTESIAN_POINT('',(0.,0.,0.));
#4=DIRECTION('',(0.,0.,1.));
#5=DIRECTION('',(1.,0.,0.));
#6=(GEOMETRIC_REPRESENTATION_CONTEXT(3)GLOBAL_UNCERTAINTY_ASSIGNED_CONTEXT((#8))
GLOBAL_UNIT_ASSIGNED_CONTEXT((#7,#9,#10))REPRESENTATION_CONTEXT('NONE','NONE'));
#7=(LENGTH_UNIT()NAMED_UNIT(*)SI_UNIT(.MILLI.,.METRE.));
#8=UNCERTAINTY_MEASURE_WITH_UNIT(LENGTH_MEASURE(1.E-5),#7,'NONE','NONE');
#9=(NAMED_UNIT(*)PLANE_ANGLE_UNIT()SI_UNIT($,.RADIAN.));
#10=(NAMED_UNIT(*)SI_UNIT($,.STERADIAN.)SOLID_ANGLE_UNIT());
#11=SHAPE_DEFINITION_REPRESENTATION(#12,#1);
#12=PRODUCT_DEFINITION_SHAPE('NONE','NONE',#13);
#13=PRODUCT_DEFINITION('','UNSPECIFIED',#14,#17);
#14=PRODUCT_DEFINITION_FORMATION_WITH_SPECIFIED_SOURCE('ANY','UNSPECIFIED',#15,.NOT_KNOWN.);
#15=PRODUCT('','Part','NONE',(#20));
#16=PRODUCT_RELATED_PRODUCT_CATEGORY('detail','',(#15));
#17=DESIGN_CONTEXT('detailed design',#18,'design');
#18=APPLICATION_CONTEXT('configuration controlled 3d designs of mechanical parts and assemblies');
#19=APPLICATION_PROTOCOL_DEFINITION('international standard','config_control_design',
1994,#18);
#20=MECHANICAL_CONTEXT('NONE',#18,'mechanical');
#21=CC_DESIGN_DATE_AND_TIME_ASSIGNMENT(#22,#26,(#13));
#22=DATE_AND_TIME(#23,#24);
#23=CALENDAR_DATE(0,1,1);
#24=LOCAL_TIME(0,0,0.,#25);
#25=COORDINATED_UNIVERSAL_TIME_OFFSET(0,0,.AHEAD.);
#26=DATE_TIME_ROLE('creation_date');
#27=CC_DESIGN_APPROVAL(#28,(#13));
#28=APPROVAL(#29,'UNSPECIFIED');
#29=APPROVAL_STATUS('not_yet_approved');
#30=APPROVAL_DATE_TIME(#31,#28);
#31=DATE_AND_TIME(#32,#33);
#32=CALENDAR_DATE(0,1,1);
#33=LOCAL_TIME(0,0,0.,#34);
#34=COORDINATED_UNIVERSAL_TIME_OFFSET(0,0,.AHEAD.);
#35=MANIFOLD_SOLID_BREP('',#36);
#36=CLOSED_SHELL('',(#48,#57,#66,#75,#84,#93,#102,#111,#120,#129,#138));
#37=COLOUR_RGB('',1.,1.,1.);
#38=FILL_AREA_STYLE_COLOUR('',#37);
#39=FILL_AREA_STYLE($,(#38));
#40=SURFACE_STYLE_FILL_AREA(#39);
#41=SURFACE_SIDE_STYLE('',(#40));
#42=SURFACE_STYLE_USAGE(.BOTH.,#41);
#43=PRESENTATION_STYLE_ASSIGNMENT((#42));
#44=MECHANICAL_DESIGN_GEOMETRIC_PRESENTATION_REPRESENTATION('NONE',(#45,#56,#65,
#74,#83,#92,#101,#110,#119,#128,#137,#146),#6);
#45=STYLED_ITEM('',(#43),#35);
#46=ADVANCED_BREP_SHAPE_REPRESENTATION('NONE',(#35),#6);
#47=SHAPE_REPRESENTATION_RELATIONSHIP('','',#1,#46);
#48=ADVANCED_FACE('',(#147,#149),#151,.F.);
#49=COLOUR_RGB('',1.,1.,1.);
#50=FILL_AREA_STYLE_COLOUR('',#49);
#51=FILL_AREA_STYLE($,(#50));
#52=SURFACE_STYLE_FILL_AREA(#51);
#53=SURFACE_SIDE_STYLE('',(#52));
#54=SURFACE_STYLE_USAGE(.BOTH.,#53);
#55=PRESENTATION_STYLE_ASSIGNMENT((#54));
#56=STYLED_ITEM('',(#55),#48);
#57=ADVANCED_FACE('',(#156),#158,.F.);
#58=COLOUR_RGB('',1.,1.,1.);
#59=FILL_AREA_STYLE_COLOUR('',#58);
#60=FILL_AREA_STYLE($,(#59));
#61=SURFACE_STYLE_FILL_AREA(#60);
#62=SURFACE_SIDE_STYLE('',(#61));
#63=SURFACE_STYLE_USAGE(.BOTH.,#62);
#64=PRESENTATION_STYLE_ASSIGNMENT((#63));
#65=STYLED_ITEM('',(#64),#57);
#66=ADVANCED_FACE('',(#163),#165,.F.);
#67=COLOUR_RGB('',1.,1.,1.);
#68=FILL_AREA_STYLE_COLOUR('',#67);
#69=FILL_AREA_STYLE($,(#68));
#70=SURFACE_STYLE_FILL_AREA(#69);
#71=SURFACE_SIDE_STYLE('',(#70));
#72=SURFACE_STYLE_USAGE(.BOTH.,#71);
#73=PRESENTATION_STYLE_ASSIGNMENT((#72));
#74=STYLED_ITEM('',(#73),#66);
#75=ADVANCED_FACE('',(#170),#172,.T.);
#76=COLOUR_RGB('',1.,1.,1.);
#77=FILL_AREA_STYLE_COLOUR('',#76);
#78=FILL_AREA_STYLE($,(#77));
#79=SURFACE_STYLE_FILL_AREA(#78);
#80=SURFACE_SIDE_STYLE('',(#79));
#81=SURFACE_STYLE_USAGE(.BOTH.,#80);
#82=PRESENTATION_STYLE_ASSIGNMENT((#81));
#83=STYLED_ITEM('',(#82),#75);
#84=ADVANCED_FACE('',(#177),#179,.F.);
#85=COLOUR_RGB('',1.,1.,1.);
#86=FILL_AREA_STYLE_COLOUR('',#85);
#87=FILL_AREA_STYLE($,(#86));
#88=SURFACE_STYLE_FILL_AREA(#87);
#89=SURFACE_SIDE_STYLE('',(#88));
#90=SURFACE_STYLE_USAGE(.BOTH.,#89);
#91=PRESENTATION_STYLE_ASSIGNMENT((#90));
#92=STYLED_ITEM('',(#91),#84);
#93=ADVANCED_FACE('',(#184,#186),#188,.F.);
#94=COLOUR_RGB('',1.,1.,1.);
#95=FILL_AREA_STYLE_COLOUR('',#94);
#96=FILL_AREA_STYLE($,(#95));
#97=SURFACE_STYLE_FILL_AREA(#96);
#98=SURFACE_SIDE_STYLE('',(#97));
#99=SURFACE_STYLE_USAGE(.BOTH.,#98);
#100=PRESENTATION_STYLE_ASSIGNMENT((#99));
#101=STYLED_ITEM('',(#100),#93);
#102=ADVANCED_FACE('',(#193,#195),#197,.F.);
#103=COLOUR_RGB('',1.,1.,1.);
#104=FILL_AREA_STYLE_COLOUR('',#103);
#105=FILL_AREA_STYLE($,(#104));
#106=SURFACE_STYLE_FILL_AREA(#105);
#107=SURFACE_SIDE_STYLE('',(#106));
#108=SURFACE_STYLE_USAGE(.BOTH.,#107);
#109=PRESENTATION_STYLE_ASSIGNMENT((#108));
#110=STYLED_ITEM('',(#109),#102);
#111=ADVANCED_FACE('',(#202),#204,.F.);
#112=COLOUR_RGB('',1.,1.,1.);
#113=FILL_AREA_STYLE_COLOUR('',#112);
#114=FILL_AREA_STYLE($,(#113));
#115=SURFACE_STYLE_FILL_AREA(#114);
#116=SURFACE_SIDE_STYLE('',(#115));
#117=SURFACE_STYLE_USAGE(.BOTH.,#116);
#118=PRESENTATION_STYLE_ASSIGNMENT((#117));
#119=STYLED_ITEM('',(#118),#111);
#120=ADVANCED_FACE('',(#209,#211),#213,.T.);
#121=COLOUR_RGB('',1.,1.,1.);
#122=FILL_AREA_STYLE_COLOUR('',#121);
#123=FILL_AREA_STYLE($,(#122));
#124=SURFACE_STYLE_FILL_AREA(#123);
#125=SURFACE_SIDE_STYLE('',(#124));
#126=SURFACE_STYLE_USAGE(.BOTH.,#125);
#127=PRESENTATION_STYLE_ASSIGNMENT((#126));
#128=STYLED_ITEM('',(#127),#120);
#129=ADVANCED_FACE('',(#218,#220),#222,.T.);
#130=COLOUR_RGB('',1.,1.,1.);
#131=FILL_AREA_STYLE_COLOUR('',#130);
#132=FILL_AREA_STYLE($,(#131));
#133=SURFACE_STYLE_FILL_AREA(#132);
#134=SURFACE_SIDE_STYLE('',(#133));
#135=SURFACE_STYLE_USAGE(.BOTH.,#134);
#136=PRESENTATION_STYLE_ASSIGNMENT((#135));
#137=STYLED_ITEM('',(#136),#129);
#138=ADVANCED_FACE('',(#227),#229,.T.);
#139=COLOUR_RGB('',1.,1.,1.);
#140=FILL_AREA_STYLE_COLOUR('',#139);
#141=FILL_AREA_STYLE($,(#140));
#142=SURFACE_STYLE_FILL_AREA(#141);
#143=SURFACE_SIDE_STYLE('',(#142));
#144=SURFACE_STYLE_USAGE(.BOTH.,#143);
#145=PRESENTATION_STYLE_ASSIGNMENT((#144));
#146=STYLED_ITEM('',(#145),#138);
#147=FACE_OUTER_BOUND('',#148,.T.);
#148=EDGE_LOOP('',(#234));
#149=FACE_OUTER_BOUND('',#150,.T.);
#150=EDGE_LOOP('',(#235));
#151=CYLINDRICAL_SURFACE('',#152,6.5);
#152=AXIS2_PLACEMENT_3D('',#153,#154,#155);
#153=CARTESIAN_POINT('',(0.,7.,4.28626379701574E-16));
#154=DIRECTION('',(0.,1.,6.12323399573676E-17));
#155=DIRECTION('',(-1.,7.49879891330929E-33,-1.22464679914735E-16));
#156=FACE_BOUND('',#157,.T.);
#157=EDGE_LOOP('',(#236,#237,#238,#239));
#158=CYLINDRICAL_SURFACE('',#159,3.);
#159=AXIS2_PLACEMENT_3D('',#160,#161,#162);
#160=CARTESIAN_POINT('',(0.,0.,0.));
#161=DIRECTION('',(0.,1.,6.12323399573677E-17));
#162=DIRECTION('',(-0.714142842854284,4.28626379701574E-17,-0.700000000000001));
#163=FACE_BOUND('',#164,.T.);
#164=EDGE_LOOP('',(#240,#241,#242,#243));
#165=PLANE('',#166);
#166=AXIS2_PLACEMENT_3D('',#167,#168,#169);
#167=CARTESIAN_POINT('',(-0.385264119871124,1.28587913910472E-16,-2.1));
#168=DIRECTION('',(0.,6.34413156928661E-17,-1.));
#169=DIRECTION('',(-1.,0.,0.));
#170=FACE_BOUND('',#171,.T.);
#171=EDGE_LOOP('',(#244,#245,#246,#247));
#172=CYLINDRICAL_SURFACE('',#173,0.613897094094305);
#173=AXIS2_PLACEMENT_3D('',#174,#175,#176);
#174=CARTESIAN_POINT('',(7.8755324731066E-16,1.57854230922484E-16,-2.57795522810966));
#175=DIRECTION('',(0.,-1.,-6.12323399573677E-17));
#176=DIRECTION('',(0.627571173698928,-4.76730013768664E-17,0.778559196170818));
#177=FACE_BOUND('',#178,.T.);
#178=EDGE_LOOP('',(#248,#249,#250,#251));
#179=PLANE('',#180);
#180=AXIS2_PLACEMENT_3D('',#181,#182,#183);
#181=CARTESIAN_POINT('',(2.14242852856286,1.28587913910472E-16,-2.1));
#182=DIRECTION('',(-2.5273059689429E-16,6.34413156928661E-17,-1.));
#183=DIRECTION('',(-1.,-1.4029366384965E-32,2.5273059689429E-16));
#184=FACE_BOUND('',#185,.T.);
#185=EDGE_LOOP('',(#252));
#186=FACE_BOUND('',#187,.T.);
#187=EDGE_LOOP('',(#253,#254,#255,#256));
#188=PLANE('',#189);
#189=AXIS2_PLACEMENT_3D('',#190,#191,#192);
#190=CARTESIAN_POINT('',(-3.05253203810614E-6,7.95299890496031,-1.2031613543168E-5));
#191=DIRECTION('',(7.53771221650246E-16,-1.,-1.37257480737993E-8));
#192=DIRECTION('',(0.999999999999999,1.3983779152448E-15,-4.69633196040533E-8));
#193=FACE_BOUND('',#194,.T.);
#194=EDGE_LOOP('',(#257));
#195=FACE_BOUND('',#196,.T.);
#196=EDGE_LOOP('',(#258));
#197=PLANE('',#198);
#198=AXIS2_PLACEMENT_3D('',#199,#200,#201);
#199=CARTESIAN_POINT('',(0.,12.,7.34788079488412E-16));
#200=DIRECTION('',(0.,-1.,-6.12323399573677E-17));
#201=DIRECTION('',(6.12323399573677E-17,-6.12323399573677E-17,1.));
#202=FACE_BOUND('',#203,.T.);
#203=EDGE_LOOP('',(#259,#260,#261,#262));
#204=PLANE('',#205);
#205=AXIS2_PLACEMENT_3D('',#206,#207,#208);
#206=CARTESIAN_POINT('',(-3.05253203363525E-6,1.45299890496031,-1.21208309043728E-5));
#207=DIRECTION('',(7.53771221650246E-16,-1.,-1.37257480737993E-8));
#208=DIRECTION('',(-4.69633196040539E-8,1.37257480737992E-8,-0.999999999999999));
#209=FACE_OUTER_BOUND('',#210,.T.);
#210=EDGE_LOOP('',(#263));
#211=FACE_OUTER_BOUND('',#212,.T.);
#212=EDGE_LOOP('',(#264));
#213=CYLINDRICAL_SURFACE('',#214,11.);
#214=AXIS2_PLACEMENT_3D('',#215,#216,#217);
#215=CARTESIAN_POINT('',(0.,10.,6.12323399573677E-16));
#216=DIRECTION('',(0.,-1.,-6.12323399573677E-17));
#217=DIRECTION('',(6.12323399573677E-17,-6.12323399573677E-17,1.));
#218=FACE_OUTER_BOUND('',#219,.T.);
#219=EDGE_LOOP('',(#265));
#220=FACE_OUTER_BOUND('',#221,.T.);
#221=EDGE_LOOP('',(#266));
#222=TOROIDAL_SURFACE('',#223,10.,1.);
#223=AXIS2_PLACEMENT_3D('',#224,#225,#226);
#224=CARTESIAN_POINT('',(0.,-1.77635683940025E-15,-9.86076131526265E-32));
#225=DIRECTION('',(0.,-1.,-6.12323399573677E-17));
#226=DIRECTION('',(6.12323399573677E-17,-6.12323399573677E-17,1.));
#227=FACE_BOUND('',#228,.T.);
#228=EDGE_LOOP('',(#267));
#229=PLANE('',#230);
#230=AXIS2_PLACEMENT_3D('',#231,#232,#233);
#231=CARTESIAN_POINT('',(0.,-1.,-6.12323399573677E-17));
#232=DIRECTION('',(0.,-1.,-6.12323399573677E-17));
#233=DIRECTION('',(6.12323399573677E-17,-6.12323399573677E-17,1.));
#234=ORIENTED_EDGE('',*,*,#268,.F.);
#235=ORIENTED_EDGE('',*,*,#269,.T.);
#236=ORIENTED_EDGE('',*,*,#270,.T.);
#237=ORIENTED_EDGE('',*,*,#271,.F.);
#238=ORIENTED_EDGE('',*,*,#272,.F.);
#239=ORIENTED_EDGE('',*,*,#273,.T.);
#240=ORIENTED_EDGE('',*,*,#274,.T.);
#241=ORIENTED_EDGE('',*,*,#273,.F.);
#242=ORIENTED_EDGE('',*,*,#275,.F.);
#243=ORIENTED_EDGE('',*,*,#276,.T.);
#244=ORIENTED_EDGE('',*,*,#277,.T.);
#245=ORIENTED_EDGE('',*,*,#276,.F.);
#246=ORIENTED_EDGE('',*,*,#278,.F.);
#247=ORIENTED_EDGE('',*,*,#279,.T.);
#248=ORIENTED_EDGE('',*,*,#280,.T.);
#249=ORIENTED_EDGE('',*,*,#279,.F.);
#250=ORIENTED_EDGE('',*,*,#281,.F.);
#251=ORIENTED_EDGE('',*,*,#271,.T.);
#252=ORIENTED_EDGE('',*,*,#269,.F.);
#253=ORIENTED_EDGE('',*,*,#280,.F.);
#254=ORIENTED_EDGE('',*,*,#270,.F.);
#255=ORIENTED_EDGE('',*,*,#274,.F.);
#256=ORIENTED_EDGE('',*,*,#277,.F.);
#257=ORIENTED_EDGE('',*,*,#282,.F.);
#258=ORIENTED_EDGE('',*,*,#268,.T.);
#259=ORIENTED_EDGE('',*,*,#272,.T.);
#260=ORIENTED_EDGE('',*,*,#281,.T.);
#261=ORIENTED_EDGE('',*,*,#278,.T.);
#262=ORIENTED_EDGE('',*,*,#275,.T.);
#263=ORIENTED_EDGE('',*,*,#282,.T.);
#264=ORIENTED_EDGE('',*,*,#283,.F.);
#265=ORIENTED_EDGE('',*,*,#283,.T.);
#266=ORIENTED_EDGE('',*,*,#284,.F.);
#267=ORIENTED_EDGE('',*,*,#284,.T.);
#268=EDGE_CURVE('',#285,#285,#286,.T.);
#269=EDGE_CURVE('',#287,#287,#288,.T.);
#270=EDGE_CURVE('',#289,#290,#291,.T.);
#271=EDGE_CURVE('',#292,#290,#293,.T.);
#272=EDGE_CURVE('',#294,#292,#295,.T.);
#273=EDGE_CURVE('',#294,#289,#296,.T.);
#274=EDGE_CURVE('',#297,#289,#298,.T.);
#275=EDGE_CURVE('',#299,#294,#300,.T.);
#276=EDGE_CURVE('',#299,#297,#301,.T.);
#277=EDGE_CURVE('',#302,#297,#303,.T.);
#278=EDGE_CURVE('',#304,#299,#305,.T.);
#279=EDGE_CURVE('',#304,#302,#306,.T.);
#280=EDGE_CURVE('',#290,#302,#307,.T.);
#281=EDGE_CURVE('',#292,#304,#308,.T.);
#282=EDGE_CURVE('',#309,#309,#310,.T.);
#283=EDGE_CURVE('',#311,#311,#312,.T.);
#284=EDGE_CURVE('',#313,#313,#314,.T.);
#285=VERTEX_POINT('',#315);
#286=CIRCLE('',#316,6.5);
#287=VERTEX_POINT('',#320);
#288=CIRCLE('',#321,6.5);
#289=VERTEX_POINT('',#325);
#290=VERTEX_POINT('',#326);
#291=CIRCLE('',#327,3.);
#292=VERTEX_POINT('',#331);
#293=LINE('',#332,#333);
#294=VERTEX_POINT('',#335);
#295=CIRCLE('',#336,3.);
#296=LINE('',#340,#341);
#297=VERTEX_POINT('',#343);
#298=LINE('',#344,#345);
#299=VERTEX_POINT('',#347);
#300=LINE('',#348,#349);
#301=LINE('',#351,#352);
#302=VERTEX_POINT('',#354);
#303=CIRCLE('',#355,0.613897094094305);
#304=VERTEX_POINT('',#359);
#305=CIRCLE('',#360,0.613897094094305);
#306=LINE('',#364,#365);
#307=LINE('',#367,#368);
#308=LINE('',#370,#371);
#309=VERTEX_POINT('',#373);
#310=CIRCLE('',#374,11.);
#311=VERTEX_POINT('',#378);
#312=CIRCLE('',#379,11.);
#313=VERTEX_POINT('',#383);
#314=CIRCLE('',#384,10.);
#315=CARTESIAN_POINT('',(-6.5,12.,-6.12323399573676E-17));
#316=AXIS2_PLACEMENT_3D('',#317,#318,#319);
#317=CARTESIAN_POINT('',(0.,12.,7.34788079488412E-16));
#318=DIRECTION('',(0.,-1.,-6.12323399573677E-17));
#319=DIRECTION('',(-1.,7.49879891330929E-33,-1.22464679914735E-16));
#320=CARTESIAN_POINT('',(-6.5,7.95299890496014,-6.86287431532585E-9));
#321=AXIS2_PLACEMENT_3D('',#322,#323,#324);
#322=CARTESIAN_POINT('',(3.76885615814906E-16,7.95299890496015,-6.86287351930594E-9));
#323=DIRECTION('',(7.53771221650246E-16,-1.,-1.37257480737993E-8));
#324=DIRECTION('',(-1.,-7.53771219969327E-16,-1.22464685258517E-16));
#325=CARTESIAN_POINT('',(-2.14242852856285,7.95299893378422,-2.1));
#326=CARTESIAN_POINT('',(2.14242852856285,7.95299893378422,-2.1));
#327=AXIS2_PLACEMENT_3D('',#328,#329,#330);
#328=CARTESIAN_POINT('',(0.,7.95299890496015,4.86977876101337E-16));
#329=DIRECTION('',(-7.53771220876465E-16,1.,1.37257480737993E-8));
#330=DIRECTION('',(-0.714142842854284,9.60802311335919E-9,-0.700000000000001));
#331=CARTESIAN_POINT('',(2.14242852856285,1.45299893378422,-2.1));
#332=CARTESIAN_POINT('',(2.14242852856285,1.45299893378422,-2.1));
#333=VECTOR('',#334,1.);
#334=DIRECTION('',(0.,1.,6.83214169000096E-17));
#335=CARTESIAN_POINT('',(-2.14242852856285,1.45299893378421,-2.1));
#336=AXIS2_PLACEMENT_3D('',#337,#338,#339);
#337=CARTESIAN_POINT('',(0.,1.45299890496014,8.89672585819082E-17));
#338=DIRECTION('',(-7.53771220876465E-16,1.,1.37257480737993E-8));
#339=DIRECTION('',(-0.714142842854284,9.60802311335919E-9,-0.700000000000001));
#340=CARTESIAN_POINT('',(-2.14242852856285,1.45299893378421,-2.1));
#341=VECTOR('',#342,1.);
#342=DIRECTION('',(0.,1.,6.83214169000096E-17));
#343=CARTESIAN_POINT('',(-0.385264119871124,7.95299893378422,-2.1));
#344=CARTESIAN_POINT('',(-0.385264119871124,7.95299893378422,-2.1));
#345=VECTOR('',#346,1.);
#346=DIRECTION('',(-1.,-5.05461193788579E-16,0.));
#347=CARTESIAN_POINT('',(-0.385264119871124,1.45299893378421,-2.1));
#348=CARTESIAN_POINT('',(-0.385264119871124,1.45299893378421,-2.1));
#349=VECTOR('',#350,1.);
#350=DIRECTION('',(-1.,-7.58191790682868E-16,-2.52730596894289E-16));
#351=CARTESIAN_POINT('',(-0.385264119871124,1.45299893378421,-2.1));
#352=VECTOR('',#353,1.);
#353=DIRECTION('',(0.,1.,6.83214169000096E-17));
#354=CARTESIAN_POINT('',(0.385264119871125,7.95299893378422,-2.1));
#355=AXIS2_PLACEMENT_3D('',#356,#357,#358);
#356=CARTESIAN_POINT('',(7.87553446665156E-16,7.95299894034451,-2.57795522810966));
#357=DIRECTION('',(7.53771221703646E-16,-1.,-1.37257480737993E-8));
#358=DIRECTION('',(0.627571173698928,-1.06863069141352E-8,0.778559196170817));
#359=CARTESIAN_POINT('',(0.385264119871125,1.45299893378422,-2.1));
#360=AXIS2_PLACEMENT_3D('',#361,#362,#363);
#361=CARTESIAN_POINT('',(7.87553446665156E-16,1.45299894034451,-2.57795522810966));
#362=DIRECTION('',(7.53771221703646E-16,-1.,-1.37257480737993E-8));
#363=DIRECTION('',(0.627571173698928,-1.06863069141352E-8,0.778559196170817));
#364=CARTESIAN_POINT('',(0.385264119871125,1.45299893378422,-2.1));
#365=VECTOR('',#366,1.);
#366=DIRECTION('',(1.70803542250024E-17,1.,1.36642833800019E-16));
#367=CARTESIAN_POINT('',(2.14242852856286,7.95299893378422,-2.1));
#368=VECTOR('',#369,1.);
#369=DIRECTION('',(-1.,0.,5.05461193788579E-16));
#370=CARTESIAN_POINT('',(2.14242852856286,1.45299893378422,-2.1));
#371=VECTOR('',#372,1.);
#372=DIRECTION('',(-1.,-7.58191790682868E-16,0.));
#373=CARTESIAN_POINT('',(6.73555739531044E-16,12.,11.));
#374=AXIS2_PLACEMENT_3D('',#375,#376,#377);
#375=CARTESIAN_POINT('',(0.,12.,7.34788079488412E-16));
#376=DIRECTION('',(0.,-1.,-6.12323399573677E-17));
#377=DIRECTION('',(6.12323399573677E-17,-6.12323399573677E-17,1.));
#378=CARTESIAN_POINT('',(2.02066721859313E-15,-2.36007429534338E-15,11.));
#379=AXIS2_PLACEMENT_3D('',#380,#381,#382);
#380=CARTESIAN_POINT('',(0.,-1.77635683940025E-15,-9.86076131526265E-32));
#381=DIRECTION('',(0.,-1.,-6.12323399573677E-17));
#382=DIRECTION('',(6.12323399573677E-17,-6.12323399573677E-17,1.));
#383=CARTESIAN_POINT('',(1.83697019872103E-15,-1.,10.));
#384=AXIS2_PLACEMENT_3D('',#385,#386,#387);
#385=CARTESIAN_POINT('',(-5.47382212626882E-48,-1.,-6.12323399573677E-17));
#386=DIRECTION('',(0.,-1.,-6.12323399573677E-17));
#387=DIRECTION('',(6.12323399573677E-17,-6.12323399573677E-17,1.));
ENDSEC;
END-ISO-10303-21;
