ISO-10303-21;
HEADER;
FILE_DESCRIPTION(('STEP AP242'),
    '1');
FILE_NAME('LightGuide_GREEN',
    '',
    ('UNSPECIFIED'),
    ('UNSPECIFIED'),
    'C3D Converter',
    'C3D Toolkit',
    '');
FILE_SCHEMA(('AP242_MANAGED_MODEL_BASED_3D_ENGINEERING_MIM_LF { 1 0 10303 442 1 1 4 }'));
ENDSEC;

DATA;
#1=SHAPE_REPRESENTATION('NONE',(#2),#6);
#2=AXIS2_PLACEMENT_3D('',#3,#4,#5);
#3=CARTESIAN_POINT('',(0.,0.,0.));
#4=DIRECTION('',(0.,0.,1.));
#5=DIRECTION('',(1.,0.,0.));
#6=(GEOMETRIC_REPRESENTATION_CONTEXT(3)GLOBAL_UNCERTAINTY_ASSIGNED_CONTEXT((#8))
GLOBAL_UNIT_ASSIGNED_CONTEXT((#7,#9,#10))REPRESENTATION_CONTEXT('NONE','NONE'));
#7=(LENGTH_UNIT()NAMED_UNIT(*)SI_UNIT(.MILLI.,.METRE.));
#8=UNCERTAINTY_MEASURE_WITH_UNIT(LENGTH_MEASURE(1.E-5),#7,'NONE','NONE');
#9=(NAMED_UNIT(*)PLANE_ANGLE_UNIT()SI_UNIT($,.RADIAN.));
#10=(NAMED_UNIT(*)SI_UNIT($,.STERADIAN.)SOLID_ANGLE_UNIT());
#11=SHAPE_DEFINITION_REPRESENTATION(#12,#1);
#12=PRODUCT_DEFINITION_SHAPE('NONE','NONE',#13);
#13=PRODUCT_DEFINITION('','UNSPECIFIED',#14,#17);
#14=PRODUCT_DEFINITION_FORMATION_WITH_SPECIFIED_SOURCE('ANY','UNSPECIFIED',#15,.NOT_KNOWN.);
#15=PRODUCT('','Part','NONE',(#20));
#16=PRODUCT_RELATED_PRODUCT_CATEGORY('detail','',(#15));
#17=DESIGN_CONTEXT('detailed design',#18,'design');
#18=APPLICATION_CONTEXT('configuration controlled 3d designs of mechanical parts and assemblies');
#19=APPLICATION_PROTOCOL_DEFINITION('international standard','config_control_design',
1994,#18);
#20=MECHANICAL_CONTEXT('NONE',#18,'mechanical');
#21=CC_DESIGN_DATE_AND_TIME_ASSIGNMENT(#22,#26,(#13));
#22=DATE_AND_TIME(#23,#24);
#23=CALENDAR_DATE(0,1,1);
#24=LOCAL_TIME(0,0,0.,#25);
#25=COORDINATED_UNIVERSAL_TIME_OFFSET(0,0,.AHEAD.);
#26=DATE_TIME_ROLE('creation_date');
#27=CC_DESIGN_APPROVAL(#28,(#13));
#28=APPROVAL(#29,'UNSPECIFIED');
#29=APPROVAL_STATUS('not_yet_approved');
#30=APPROVAL_DATE_TIME(#31,#28);
#31=DATE_AND_TIME(#32,#33);
#32=CALENDAR_DATE(0,1,1);
#33=LOCAL_TIME(0,0,0.,#34);
#34=COORDINATED_UNIVERSAL_TIME_OFFSET(0,0,.AHEAD.);
#35=MANIFOLD_SOLID_BREP('',#36);
#36=CLOSED_SHELL('',(#48,#57,#66,#75,#84,#93,#102,#111,#120,#129));
#37=COLOUR_RGB('',0.6,1.,0.2);
#38=FILL_AREA_STYLE_COLOUR('',#37);
#39=FILL_AREA_STYLE($,(#38));
#40=SURFACE_STYLE_FILL_AREA(#39);
#41=SURFACE_SIDE_STYLE('',(#40));
#42=SURFACE_STYLE_USAGE(.BOTH.,#41);
#43=PRESENTATION_STYLE_ASSIGNMENT((#42));
#44=MECHANICAL_DESIGN_GEOMETRIC_PRESENTATION_REPRESENTATION('NONE',(#45,#56,#65,
#74,#83,#92,#101,#110,#119,#128,#137),#6);
#45=STYLED_ITEM('',(#43),#35);
#46=ADVANCED_BREP_SHAPE_REPRESENTATION('NONE',(#35),#6);
#47=SHAPE_REPRESENTATION_RELATIONSHIP('','',#1,#46);
#48=ADVANCED_FACE('',(#138),#140,.T.);
#49=COLOUR_RGB('',0.6,1.,0.2);
#50=FILL_AREA_STYLE_COLOUR('',#49);
#51=FILL_AREA_STYLE($,(#50));
#52=SURFACE_STYLE_FILL_AREA(#51);
#53=SURFACE_SIDE_STYLE('',(#52));
#54=SURFACE_STYLE_USAGE(.BOTH.,#53);
#55=PRESENTATION_STYLE_ASSIGNMENT((#54));
#56=STYLED_ITEM('',(#55),#48);
#57=ADVANCED_FACE('',(#145),#147,.T.);
#58=COLOUR_RGB('',0.6,1.,0.2);
#59=FILL_AREA_STYLE_COLOUR('',#58);
#60=FILL_AREA_STYLE($,(#59));
#61=SURFACE_STYLE_FILL_AREA(#60);
#62=SURFACE_SIDE_STYLE('',(#61));
#63=SURFACE_STYLE_USAGE(.BOTH.,#62);
#64=PRESENTATION_STYLE_ASSIGNMENT((#63));
#65=STYLED_ITEM('',(#64),#57);
#66=ADVANCED_FACE('',(#152),#154,.T.);
#67=COLOUR_RGB('',0.6,1.,0.2);
#68=FILL_AREA_STYLE_COLOUR('',#67);
#69=FILL_AREA_STYLE($,(#68));
#70=SURFACE_STYLE_FILL_AREA(#69);
#71=SURFACE_SIDE_STYLE('',(#70));
#72=SURFACE_STYLE_USAGE(.BOTH.,#71);
#73=PRESENTATION_STYLE_ASSIGNMENT((#72));
#74=STYLED_ITEM('',(#73),#66);
#75=ADVANCED_FACE('',(#159),#161,.T.);
#76=COLOUR_RGB('',0.6,1.,0.2);
#77=FILL_AREA_STYLE_COLOUR('',#76);
#78=FILL_AREA_STYLE($,(#77));
#79=SURFACE_STYLE_FILL_AREA(#78);
#80=SURFACE_SIDE_STYLE('',(#79));
#81=SURFACE_STYLE_USAGE(.BOTH.,#80);
#82=PRESENTATION_STYLE_ASSIGNMENT((#81));
#83=STYLED_ITEM('',(#82),#75);
#84=ADVANCED_FACE('',(#166),#168,.F.);
#85=COLOUR_RGB('',0.6,1.,0.2);
#86=FILL_AREA_STYLE_COLOUR('',#85);
#87=FILL_AREA_STYLE($,(#86));
#88=SURFACE_STYLE_FILL_AREA(#87);
#89=SURFACE_SIDE_STYLE('',(#88));
#90=SURFACE_STYLE_USAGE(.BOTH.,#89);
#91=PRESENTATION_STYLE_ASSIGNMENT((#90));
#92=STYLED_ITEM('',(#91),#84);
#93=ADVANCED_FACE('',(#173),#175,.T.);
#94=COLOUR_RGB('',0.6,1.,0.2);
#95=FILL_AREA_STYLE_COLOUR('',#94);
#96=FILL_AREA_STYLE($,(#95));
#97=SURFACE_STYLE_FILL_AREA(#96);
#98=SURFACE_SIDE_STYLE('',(#97));
#99=SURFACE_STYLE_USAGE(.BOTH.,#98);
#100=PRESENTATION_STYLE_ASSIGNMENT((#99));
#101=STYLED_ITEM('',(#100),#93);
#102=ADVANCED_FACE('',(#180),#182,.T.);
#103=COLOUR_RGB('',0.6,1.,0.2);
#104=FILL_AREA_STYLE_COLOUR('',#103);
#105=FILL_AREA_STYLE($,(#104));
#106=SURFACE_STYLE_FILL_AREA(#105);
#107=SURFACE_SIDE_STYLE('',(#106));
#108=SURFACE_STYLE_USAGE(.BOTH.,#107);
#109=PRESENTATION_STYLE_ASSIGNMENT((#108));
#110=STYLED_ITEM('',(#109),#102);
#111=ADVANCED_FACE('',(#187),#189,.T.);
#112=COLOUR_RGB('',0.6,1.,0.2);
#113=FILL_AREA_STYLE_COLOUR('',#112);
#114=FILL_AREA_STYLE($,(#113));
#115=SURFACE_STYLE_FILL_AREA(#114);
#116=SURFACE_SIDE_STYLE('',(#115));
#117=SURFACE_STYLE_USAGE(.BOTH.,#116);
#118=PRESENTATION_STYLE_ASSIGNMENT((#117));
#119=STYLED_ITEM('',(#118),#111);
#120=ADVANCED_FACE('',(#194),#196,.T.);
#121=COLOUR_RGB('',0.6,1.,0.2);
#122=FILL_AREA_STYLE_COLOUR('',#121);
#123=FILL_AREA_STYLE($,(#122));
#124=SURFACE_STYLE_FILL_AREA(#123);
#125=SURFACE_SIDE_STYLE('',(#124));
#126=SURFACE_STYLE_USAGE(.BOTH.,#125);
#127=PRESENTATION_STYLE_ASSIGNMENT((#126));
#128=STYLED_ITEM('',(#127),#120);
#129=ADVANCED_FACE('',(#201),#203,.T.);
#130=COLOUR_RGB('',0.6,1.,0.2);
#131=FILL_AREA_STYLE_COLOUR('',#130);
#132=FILL_AREA_STYLE($,(#131));
#133=SURFACE_STYLE_FILL_AREA(#132);
#134=SURFACE_SIDE_STYLE('',(#133));
#135=SURFACE_STYLE_USAGE(.BOTH.,#134);
#136=PRESENTATION_STYLE_ASSIGNMENT((#135));
#137=STYLED_ITEM('',(#136),#129);
#138=FACE_BOUND('',#139,.T.);
#139=EDGE_LOOP('',(#208,#209,#210,#211,#212,#213,#214,#215));
#140=PLANE('',#141);
#141=AXIS2_PLACEMENT_3D('',#142,#143,#144);
#142=CARTESIAN_POINT('',(18.4534479390486,-9.18492417448208E-18,0.150001195134417));
#143=DIRECTION('',(1.13545537224649E-16,6.93889390390723E-17,-1.));
#144=DIRECTION('',(-1.,7.70371981929235E-33,-1.13545537224649E-16));
#145=FACE_BOUND('',#146,.T.);
#146=EDGE_LOOP('',(#216,#217,#218,#219));
#147=PLANE('',#148);
#148=AXIS2_PLACEMENT_3D('',#149,#150,#151);
#149=CARTESIAN_POINT('',(18.4534479390486,-7.04172634019034E-17,1.15000118321349));
#150=DIRECTION('',(1.,0.,0.));
#151=DIRECTION('',(0.,6.12323399573677E-17,-1.));
#152=FACE_BOUND('',#153,.T.);
#153=EDGE_LOOP('',(#220,#221,#222,#223));
#154=PLANE('',#155);
#155=AXIS2_PLACEMENT_3D('',#156,#157,#158);
#156=CARTESIAN_POINT('',(16.2534479509695,-7.04172634019034E-17,1.15000118321349));
#157=DIRECTION('',(-1.00929366421911E-16,-1.11022302462516E-16,1.));
#158=DIRECTION('',(1.,-5.60270532312171E-33,1.00929366421911E-16));
#159=FACE_BOUND('',#160,.T.);
#160=EDGE_LOOP('',(#224,#225,#226,#227));
#161=PLANE('',#162);
#162=AXIS2_PLACEMENT_3D('',#163,#164,#165);
#163=CARTESIAN_POINT('',(16.2534479509695,-9.18492417448208E-18,0.150001195134417));
#164=DIRECTION('',(-1.,0.,0.));
#165=DIRECTION('',(0.,-6.12323399573677E-17,1.));
#166=FACE_BOUND('',#167,.T.);
#167=EDGE_LOOP('',(#228,#229,#230,#231,#232,#233,#234,#235));
#168=PLANE('',#169);
#169=AXIS2_PLACEMENT_3D('',#170,#171,#172);
#170=CARTESIAN_POINT('',(0.,0.,0.));
#171=DIRECTION('',(0.,-1.,-6.12323399573677E-17));
#172=DIRECTION('',(6.12323399573677E-17,-6.12323399573677E-17,1.));
#173=FACE_BOUND('',#174,.T.);
#174=EDGE_LOOP('',(#236,#237,#238,#239));
#175=PLANE('',#176);
#176=AXIS2_PLACEMENT_3D('',#177,#178,#179);
#177=CARTESIAN_POINT('',(0.,2.,1.22464679914735E-16));
#178=DIRECTION('',(0.,1.,6.12323399573677E-17));
#179=DIRECTION('',(-1.,7.49879891330929E-33,-1.22464679914735E-16));
#180=FACE_BOUND('',#181,.T.);
#181=EDGE_LOOP('',(#240,#241,#242,#243));
#182=PLANE('',#183);
#183=AXIS2_PLACEMENT_3D('',#184,#185,#186);
#184=CARTESIAN_POINT('',(18.6445125203344,-9.18492417448207E-18,0.150001195134417));
#185=DIRECTION('',(1.,0.,0.));
#186=DIRECTION('',(0.,-6.12323399573677E-17,1.));
#187=FACE_BOUND('',#188,.T.);
#188=EDGE_LOOP('',(#244,#245,#246,#247));
#189=PLANE('',#190);
#190=AXIS2_PLACEMENT_3D('',#191,#192,#193);
#191=CARTESIAN_POINT('',(0.,-1.,-6.12323399573677E-17));
#192=DIRECTION('',(0.,-1.,-6.12323399573677E-17));
#193=DIRECTION('',(6.12323399573677E-17,-6.12323399573677E-17,1.));
#194=FACE_BOUND('',#195,.T.);
#195=EDGE_LOOP('',(#248,#249,#250,#251));
#196=PLANE('',#197);
#197=AXIS2_PLACEMENT_3D('',#198,#199,#200);
#198=CARTESIAN_POINT('',(16.0445125203344,-8.26637321233233E-17,1.35000119513442));
#199=DIRECTION('',(-1.,0.,0.));
#200=DIRECTION('',(0.,6.12323399573677E-17,-1.));
#201=FACE_BOUND('',#202,.T.);
#202=EDGE_LOOP('',(#252,#253,#254,#255));
#203=PLANE('',#204);
#204=AXIS2_PLACEMENT_3D('',#205,#206,#207);
#205=CARTESIAN_POINT('',(18.6445125203344,-8.26637321233233E-17,1.35000119513442));
#206=DIRECTION('',(8.5401771125012E-17,7.59645419660784E-65,1.));
#207=DIRECTION('',(-1.,-4.74075063233781E-33,8.5401771125012E-17));
#208=ORIENTED_EDGE('',*,*,#256,.T.);
#209=ORIENTED_EDGE('',*,*,#257,.F.);
#210=ORIENTED_EDGE('',*,*,#258,.F.);
#211=ORIENTED_EDGE('',*,*,#259,.T.);
#212=ORIENTED_EDGE('',*,*,#260,.T.);
#213=ORIENTED_EDGE('',*,*,#261,.F.);
#214=ORIENTED_EDGE('',*,*,#262,.F.);
#215=ORIENTED_EDGE('',*,*,#263,.T.);
#216=ORIENTED_EDGE('',*,*,#264,.F.);
#217=ORIENTED_EDGE('',*,*,#258,.T.);
#218=ORIENTED_EDGE('',*,*,#265,.F.);
#219=ORIENTED_EDGE('',*,*,#266,.F.);
#220=ORIENTED_EDGE('',*,*,#267,.F.);
#221=ORIENTED_EDGE('',*,*,#266,.T.);
#222=ORIENTED_EDGE('',*,*,#268,.F.);
#223=ORIENTED_EDGE('',*,*,#269,.F.);
#224=ORIENTED_EDGE('',*,*,#270,.F.);
#225=ORIENTED_EDGE('',*,*,#269,.T.);
#226=ORIENTED_EDGE('',*,*,#271,.F.);
#227=ORIENTED_EDGE('',*,*,#256,.F.);
#228=ORIENTED_EDGE('',*,*,#270,.T.);
#229=ORIENTED_EDGE('',*,*,#263,.F.);
#230=ORIENTED_EDGE('',*,*,#272,.F.);
#231=ORIENTED_EDGE('',*,*,#273,.F.);
#232=ORIENTED_EDGE('',*,*,#274,.F.);
#233=ORIENTED_EDGE('',*,*,#259,.F.);
#234=ORIENTED_EDGE('',*,*,#264,.T.);
#235=ORIENTED_EDGE('',*,*,#267,.T.);
#236=ORIENTED_EDGE('',*,*,#271,.T.);
#237=ORIENTED_EDGE('',*,*,#268,.T.);
#238=ORIENTED_EDGE('',*,*,#265,.T.);
#239=ORIENTED_EDGE('',*,*,#257,.T.);
#240=ORIENTED_EDGE('',*,*,#274,.T.);
#241=ORIENTED_EDGE('',*,*,#275,.T.);
#242=ORIENTED_EDGE('',*,*,#276,.F.);
#243=ORIENTED_EDGE('',*,*,#260,.F.);
#244=ORIENTED_EDGE('',*,*,#277,.T.);
#245=ORIENTED_EDGE('',*,*,#261,.T.);
#246=ORIENTED_EDGE('',*,*,#276,.T.);
#247=ORIENTED_EDGE('',*,*,#278,.T.);
#248=ORIENTED_EDGE('',*,*,#272,.T.);
#249=ORIENTED_EDGE('',*,*,#262,.T.);
#250=ORIENTED_EDGE('',*,*,#277,.F.);
#251=ORIENTED_EDGE('',*,*,#279,.F.);
#252=ORIENTED_EDGE('',*,*,#273,.T.);
#253=ORIENTED_EDGE('',*,*,#279,.T.);
#254=ORIENTED_EDGE('',*,*,#278,.F.);
#255=ORIENTED_EDGE('',*,*,#275,.F.);
#256=EDGE_CURVE('',#280,#281,#282,.T.);
#257=EDGE_CURVE('',#283,#281,#284,.T.);
#258=EDGE_CURVE('',#285,#283,#286,.T.);
#259=EDGE_CURVE('',#285,#287,#288,.T.);
#260=EDGE_CURVE('',#287,#289,#290,.T.);
#261=EDGE_CURVE('',#291,#289,#292,.T.);
#262=EDGE_CURVE('',#293,#291,#294,.T.);
#263=EDGE_CURVE('',#293,#280,#295,.T.);
#264=EDGE_CURVE('',#285,#296,#297,.F.);
#265=EDGE_CURVE('',#298,#283,#299,.T.);
#266=EDGE_CURVE('',#296,#298,#300,.T.);
#267=EDGE_CURVE('',#296,#301,#302,.F.);
#268=EDGE_CURVE('',#303,#298,#304,.T.);
#269=EDGE_CURVE('',#301,#303,#305,.T.);
#270=EDGE_CURVE('',#301,#280,#306,.F.);
#271=EDGE_CURVE('',#281,#303,#307,.T.);
#272=EDGE_CURVE('',#308,#293,#309,.T.);
#273=EDGE_CURVE('',#310,#308,#311,.T.);
#274=EDGE_CURVE('',#287,#310,#312,.T.);
#275=EDGE_CURVE('',#310,#313,#314,.T.);
#276=EDGE_CURVE('',#289,#313,#315,.T.);
#277=EDGE_CURVE('',#316,#291,#317,.T.);
#278=EDGE_CURVE('',#313,#316,#318,.T.);
#279=EDGE_CURVE('',#308,#316,#319,.T.);
#280=VERTEX_POINT('',#320);
#281=VERTEX_POINT('',#321);
#282=LINE('',#322,#323);
#283=VERTEX_POINT('',#325);
#284=LINE('',#326,#327);
#285=VERTEX_POINT('',#329);
#286=LINE('',#330,#331);
#287=VERTEX_POINT('',#333);
#288=LINE('',#334,#335);
#289=VERTEX_POINT('',#337);
#290=LINE('',#338,#339);
#291=VERTEX_POINT('',#341);
#292=LINE('',#342,#343);
#293=VERTEX_POINT('',#345);
#294=LINE('',#346,#347);
#295=LINE('',#349,#350);
#296=VERTEX_POINT('',#352);
#297=LINE('',#353,#354);
#298=VERTEX_POINT('',#356);
#299=LINE('',#357,#358);
#300=LINE('',#360,#361);
#301=VERTEX_POINT('',#363);
#302=LINE('',#364,#365);
#303=VERTEX_POINT('',#367);
#304=LINE('',#368,#369);
#305=LINE('',#371,#372);
#306=LINE('',#374,#375);
#307=LINE('',#377,#378);
#308=VERTEX_POINT('',#380);
#309=LINE('',#381,#382);
#310=VERTEX_POINT('',#384);
#311=LINE('',#385,#386);
#312=LINE('',#388,#389);
#313=VERTEX_POINT('',#391);
#314=LINE('',#392,#393);
#315=LINE('',#395,#396);
#316=VERTEX_POINT('',#398);
#317=LINE('',#399,#400);
#318=LINE('',#402,#403);
#319=LINE('',#405,#406);
#320=CARTESIAN_POINT('',(16.2534479509695,-9.18492417448207E-18,0.150001195134417));
#321=CARTESIAN_POINT('',(16.2534479509695,2.,0.150001195134417));
#322=CARTESIAN_POINT('',(16.2534479509695,-9.18492417448207E-18,0.150001195134417));
#323=VECTOR('',#324,1.);
#324=DIRECTION('',(0.,1.,6.93889390390723E-17));
#325=CARTESIAN_POINT('',(18.4534479390486,2.,0.150001195134417));
#326=CARTESIAN_POINT('',(18.4534479390486,2.,0.150001195134417));
#327=VECTOR('',#328,1.);
#328=DIRECTION('',(-1.,0.,-1.26161708027388E-16));
#329=CARTESIAN_POINT('',(18.4534479390486,-9.18492417448209E-18,0.150001195134417));
#330=CARTESIAN_POINT('',(18.4534479390486,-9.18492417448208E-18,0.150001195134417));
#331=VECTOR('',#332,1.);
#332=DIRECTION('',(0.,1.,6.93889390390723E-17));
#333=CARTESIAN_POINT('',(18.6445125203344,-9.18492417448207E-18,0.150001195134417));
#334=CARTESIAN_POINT('',(18.4534479390486,-9.18492417448207E-18,0.150001195134417));
#335=VECTOR('',#336,1.);
#336=DIRECTION('',(1.,-8.06399566649669E-33,0.));
#337=CARTESIAN_POINT('',(18.6445125203344,-1.,0.150001195134417));
#338=CARTESIAN_POINT('',(18.6445125203344,-9.18492417448207E-18,0.150001195134417));
#339=VECTOR('',#340,1.);
#340=DIRECTION('',(0.,-1.,-5.55111512312578E-17));
#341=CARTESIAN_POINT('',(16.0445125203344,-1.,0.150001195134417));
#342=CARTESIAN_POINT('',(16.0445125203344,-1.,0.150001195134417));
#343=VECTOR('',#344,1.);
#344=DIRECTION('',(1.,0.,3.20256641718795E-17));
#345=CARTESIAN_POINT('',(16.0445125203344,-9.18492417448208E-18,0.150001195134417));
#346=CARTESIAN_POINT('',(16.0445125203344,-9.18492417448207E-18,0.150001195134417));
#347=VECTOR('',#348,1.);
#348=DIRECTION('',(0.,-1.,-1.94289029309402E-16));
#349=CARTESIAN_POINT('',(16.0445125203344,-9.18492417448207E-18,0.150001195134417));
#350=VECTOR('',#351,1.);
#351=DIRECTION('',(1.,0.,0.));
#352=CARTESIAN_POINT('',(18.4534479390486,-7.04172634019034E-17,1.15000118321349));
#353=CARTESIAN_POINT('',(18.4534479390486,-7.04172634019034E-17,1.15000118321349));
#354=VECTOR('',#355,1.);
#355=DIRECTION('',(0.,6.12323399573677E-17,-1.));
#356=CARTESIAN_POINT('',(18.4534479390486,2.,1.15000118321349));
#357=CARTESIAN_POINT('',(18.4534479390486,2.,1.15000118321349));
#358=VECTOR('',#359,1.);
#359=DIRECTION('',(0.,0.,-1.));
#360=CARTESIAN_POINT('',(18.4534479390486,-7.04172634019034E-17,1.15000118321349));
#361=VECTOR('',#362,1.);
#362=DIRECTION('',(0.,1.,1.11022302462516E-16));
#363=CARTESIAN_POINT('',(16.2534479509695,-7.04172634019034E-17,1.15000118321349));
#364=CARTESIAN_POINT('',(16.2534479509695,-7.04172634019034E-17,1.15000118321349));
#365=VECTOR('',#366,1.);
#366=DIRECTION('',(1.,-1.12054106462434E-32,1.00929366421911E-16));
#367=CARTESIAN_POINT('',(16.2534479509695,2.,1.15000118321349));
#368=CARTESIAN_POINT('',(16.2534479509695,2.,1.15000118321349));
#369=VECTOR('',#370,1.);
#370=DIRECTION('',(1.,0.,1.00929366421911E-16));
#371=CARTESIAN_POINT('',(16.2534479509695,-7.04172634019034E-17,1.15000118321349));
#372=VECTOR('',#373,1.);
#373=DIRECTION('',(0.,1.,1.11022302462516E-16));
#374=CARTESIAN_POINT('',(16.2534479509695,-9.18492417448208E-18,0.150001195134417));
#375=VECTOR('',#376,1.);
#376=DIRECTION('',(0.,-6.12323399573677E-17,1.));
#377=CARTESIAN_POINT('',(16.2534479509695,2.,0.150001195134417));
#378=VECTOR('',#379,1.);
#379=DIRECTION('',(0.,0.,1.));
#380=CARTESIAN_POINT('',(16.0445125203344,-8.26637321233233E-17,1.35000119513442));
#381=CARTESIAN_POINT('',(16.0445125203344,-8.26637321233233E-17,1.35000119513442));
#382=VECTOR('',#383,1.);
#383=DIRECTION('',(0.,6.12323399573677E-17,-1.));
#384=CARTESIAN_POINT('',(18.6445125203344,-8.26637321233233E-17,1.35000119513442));
#385=CARTESIAN_POINT('',(18.6445125203344,-8.26637321233233E-17,1.35000119513442));
#386=VECTOR('',#387,1.);
#387=DIRECTION('',(-1.,-4.74075063233781E-33,8.5401771125012E-17));
#388=CARTESIAN_POINT('',(18.6445125203344,-9.18492417448207E-18,0.150001195134417));
#389=VECTOR('',#390,1.);
#390=DIRECTION('',(0.,-6.12323399573677E-17,1.));
#391=CARTESIAN_POINT('',(18.6445125203344,-1.,1.35000119513442));
#392=CARTESIAN_POINT('',(18.6445125203344,-8.26637321233233E-17,1.35000119513442));
#393=VECTOR('',#394,1.);
#394=DIRECTION('',(0.,-1.,0.));
#395=CARTESIAN_POINT('',(18.6445125203344,-1.,0.150001195134417));
#396=VECTOR('',#397,1.);
#397=DIRECTION('',(0.,0.,1.));
#398=CARTESIAN_POINT('',(16.0445125203344,-1.,1.35000119513442));
#399=CARTESIAN_POINT('',(16.0445125203344,-1.,1.35000119513442));
#400=VECTOR('',#401,1.);
#401=DIRECTION('',(0.,0.,-1.));
#402=CARTESIAN_POINT('',(18.6445125203344,-1.,1.35000119513442));
#403=VECTOR('',#404,1.);
#404=DIRECTION('',(-1.,0.,8.5401771125012E-17));
#405=CARTESIAN_POINT('',(16.0445125203344,-8.26637321233233E-17,1.35000119513442));
#406=VECTOR('',#407,1.);
#407=DIRECTION('',(0.,-1.,0.));
ENDSEC;
END-ISO-10303-21;
