ISO-10303-21;
HEADER;
FILE_DESCRIPTION(('STEP AP242'),
    '1');
FILE_NAME('RubberStripe',
    '2026-03-10T17:03:25',
    (''),
    (''),
    'C3D Converter',
    'C3D Toolkit',
    '');
/**/
FILE_SCHEMA(('AP242_MANAGED_MODEL_BASED_3D_ENGINEERING_MIM_LF { 1 0 10303 442 1 1 4 }'));
ENDSEC;

DATA;
#1=SHAPE_REPRESENTATION('NONE',(#2),#6);
#2=AXIS2_PLACEMENT_3D('',#3,#4,#5);
#3=CARTESIAN_POINT('',(0.,0.,0.));
#4=DIRECTION('',(0.,0.,1.));
#5=DIRECTION('',(1.,0.,0.));
#6=(GEOMETRIC_REPRESENTATION_CONTEXT(3)GLOBAL_UNCERTAINTY_ASSIGNED_CONTEXT((#8))
GLOBAL_UNIT_ASSIGNED_CONTEXT((#7,#9,#10))REPRESENTATION_CONTEXT('NONE','NONE'));
#7=(LENGTH_UNIT()NAMED_UNIT(*)SI_UNIT(.MILLI.,.METRE.));
#8=UNCERTAINTY_MEASURE_WITH_UNIT(LENGTH_MEASURE(1.E-5),#7,'NONE','NONE');
#9=(NAMED_UNIT(*)PLANE_ANGLE_UNIT()SI_UNIT($,.RADIAN.));
#10=(NAMED_UNIT(*)SI_UNIT($,.STERADIAN.)SOLID_ANGLE_UNIT());
#11=SHAPE_DEFINITION_REPRESENTATION(#12,#1);
#12=PRODUCT_DEFINITION_SHAPE('NONE','NONE',#13);
#13=PRODUCT_DEFINITION('','UNSPECIFIED',#14,#22);
#14=PRODUCT_DEFINITION_FORMATION_WITH_SPECIFIED_SOURCE('ANY','UNSPECIFIED',#15,.NOT_KNOWN.);
#15=PRODUCT('','Part','NONE',(#25));
#16=PERSON('UNSPECIFIED','UNSPECIFIED','UNSPECIFIED',('UNSPECIFIED'),('UNSPECIFIED'),
('UNSPECIFIED'));
#17=ORGANIZATION('UNSPECIFIED','UNSPECIFIED','UNSPECIFIED');
#18=PERSON_AND_ORGANIZATION(#16,#17);
#19=PERSON_AND_ORGANIZATION_ROLE('design_owner');
#20=CC_DESIGN_PERSON_AND_ORGANIZATION_ASSIGNMENT(#18,#19,(#15));
#21=PRODUCT_RELATED_PRODUCT_CATEGORY('detail','',(#15));
#22=DESIGN_CONTEXT('detailed design',#23,'design');
#23=APPLICATION_CONTEXT('configuration controlled 3d designs of mechanical parts and assemblies');
#24=APPLICATION_PROTOCOL_DEFINITION('international standard','config_control_design',
1994,#23);
#25=MECHANICAL_CONTEXT('NONE',#23,'mechanical');
#26=CC_DESIGN_DATE_AND_TIME_ASSIGNMENT(#27,#31,(#13));
#27=DATE_AND_TIME(#28,#29);
#28=CALENDAR_DATE(0,1,1);
#29=LOCAL_TIME(0,0,0.,#30);
#30=COORDINATED_UNIVERSAL_TIME_OFFSET(0,0,.AHEAD.);
#31=DATE_TIME_ROLE('creation_date');
#32=CC_DESIGN_APPROVAL(#33,(#13));
#33=APPROVAL(#34,'UNSPECIFIED');
#34=APPROVAL_STATUS('not_yet_approved');
#35=APPROVAL_DATE_TIME(#36,#33);
#36=DATE_AND_TIME(#37,#38);
#37=CALENDAR_DATE(0,1,1);
#38=LOCAL_TIME(0,0,0.,#39);
#39=COORDINATED_UNIVERSAL_TIME_OFFSET(0,0,.AHEAD.);
#40=MANIFOLD_SOLID_BREP('',#41);
#41=CLOSED_SHELL('',(#53,#62,#71,#80,#89,#98,#107,#116,#125,#134,#143,#152,#161,
#170,#179,#188,#197));
#42=COLOUR_RGB('',0.141176470588235,0.141176470588235,0.141176470588235);
#43=FILL_AREA_STYLE_COLOUR('',#42);
#44=FILL_AREA_STYLE($,(#43));
#45=SURFACE_STYLE_FILL_AREA(#44);
#46=SURFACE_SIDE_STYLE('',(#45));
#47=SURFACE_STYLE_USAGE(.BOTH.,#46);
#48=PRESENTATION_STYLE_ASSIGNMENT((#47));
#49=MECHANICAL_DESIGN_GEOMETRIC_PRESENTATION_REPRESENTATION('NONE',(#50,#61,#70,
#79,#88,#97,#106,#115,#124,#133,#142,#151,#160,#169,#178,#187,#196,#205),#6);
#50=STYLED_ITEM('',(#48),#40);
#51=ADVANCED_BREP_SHAPE_REPRESENTATION('NONE',(#40),#6);
#52=SHAPE_REPRESENTATION_RELATIONSHIP('','',#1,#51);
#53=ADVANCED_FACE('',(#206,#208),#210,.F.);
#54=COLOUR_RGB('',0.141176470588235,0.141176470588235,0.141176470588235);
#55=FILL_AREA_STYLE_COLOUR('',#54);
#56=FILL_AREA_STYLE($,(#55));
#57=SURFACE_STYLE_FILL_AREA(#56);
#58=SURFACE_SIDE_STYLE('',(#57));
#59=SURFACE_STYLE_USAGE(.BOTH.,#58);
#60=PRESENTATION_STYLE_ASSIGNMENT((#59));
#61=STYLED_ITEM('',(#60),#53);
#62=ADVANCED_FACE('',(#215,#217),#219,.F.);
#63=COLOUR_RGB('',0.141176470588235,0.141176470588235,0.141176470588235);
#64=FILL_AREA_STYLE_COLOUR('',#63);
#65=FILL_AREA_STYLE($,(#64));
#66=SURFACE_STYLE_FILL_AREA(#65);
#67=SURFACE_SIDE_STYLE('',(#66));
#68=SURFACE_STYLE_USAGE(.BOTH.,#67);
#69=PRESENTATION_STYLE_ASSIGNMENT((#68));
#70=STYLED_ITEM('',(#69),#62);
#71=ADVANCED_FACE('',(#224,#226),#228,.F.);
#72=COLOUR_RGB('',0.141176470588235,0.141176470588235,0.141176470588235);
#73=FILL_AREA_STYLE_COLOUR('',#72);
#74=FILL_AREA_STYLE($,(#73));
#75=SURFACE_STYLE_FILL_AREA(#74);
#76=SURFACE_SIDE_STYLE('',(#75));
#77=SURFACE_STYLE_USAGE(.BOTH.,#76);
#78=PRESENTATION_STYLE_ASSIGNMENT((#77));
#79=STYLED_ITEM('',(#78),#71);
#80=ADVANCED_FACE('',(#233,#235,#237,#239,#241),#243,.T.);
#81=COLOUR_RGB('',0.141176470588235,0.141176470588235,0.141176470588235);
#82=FILL_AREA_STYLE_COLOUR('',#81);
#83=FILL_AREA_STYLE($,(#82));
#84=SURFACE_STYLE_FILL_AREA(#83);
#85=SURFACE_SIDE_STYLE('',(#84));
#86=SURFACE_STYLE_USAGE(.BOTH.,#85);
#87=PRESENTATION_STYLE_ASSIGNMENT((#86));
#88=STYLED_ITEM('',(#87),#80);
#89=ADVANCED_FACE('',(#248,#250,#252,#254,#256),#258,.F.);
#90=COLOUR_RGB('',0.141176470588235,0.141176470588235,0.141176470588235);
#91=FILL_AREA_STYLE_COLOUR('',#90);
#92=FILL_AREA_STYLE($,(#91));
#93=SURFACE_STYLE_FILL_AREA(#92);
#94=SURFACE_SIDE_STYLE('',(#93));
#95=SURFACE_STYLE_USAGE(.BOTH.,#94);
#96=PRESENTATION_STYLE_ASSIGNMENT((#95));
#97=STYLED_ITEM('',(#96),#89);
#98=ADVANCED_FACE('',(#263,#265),#267,.F.);
#99=COLOUR_RGB('',0.141176470588235,0.141176470588235,0.141176470588235);
#100=FILL_AREA_STYLE_COLOUR('',#99);
#101=FILL_AREA_STYLE($,(#100));
#102=SURFACE_STYLE_FILL_AREA(#101);
#103=SURFACE_SIDE_STYLE('',(#102));
#104=SURFACE_STYLE_USAGE(.BOTH.,#103);
#105=PRESENTATION_STYLE_ASSIGNMENT((#104));
#106=STYLED_ITEM('',(#105),#98);
#107=ADVANCED_FACE('',(#272,#274),#276,.F.);
#108=COLOUR_RGB('',0.141176470588235,0.141176470588235,0.141176470588235);
#109=FILL_AREA_STYLE_COLOUR('',#108);
#110=FILL_AREA_STYLE($,(#109));
#111=SURFACE_STYLE_FILL_AREA(#110);
#112=SURFACE_SIDE_STYLE('',(#111));
#113=SURFACE_STYLE_USAGE(.BOTH.,#112);
#114=PRESENTATION_STYLE_ASSIGNMENT((#113));
#115=STYLED_ITEM('',(#114),#107);
#116=ADVANCED_FACE('',(#281,#283),#285,.F.);
#117=COLOUR_RGB('',0.141176470588235,0.141176470588235,0.141176470588235);
#118=FILL_AREA_STYLE_COLOUR('',#117);
#119=FILL_AREA_STYLE($,(#118));
#120=SURFACE_STYLE_FILL_AREA(#119);
#121=SURFACE_SIDE_STYLE('',(#120));
#122=SURFACE_STYLE_USAGE(.BOTH.,#121);
#123=PRESENTATION_STYLE_ASSIGNMENT((#122));
#124=STYLED_ITEM('',(#123),#116);
#125=ADVANCED_FACE('',(#290,#292),#294,.F.);
#126=COLOUR_RGB('',0.141176470588235,0.141176470588235,0.141176470588235);
#127=FILL_AREA_STYLE_COLOUR('',#126);
#128=FILL_AREA_STYLE($,(#127));
#129=SURFACE_STYLE_FILL_AREA(#128);
#130=SURFACE_SIDE_STYLE('',(#129));
#131=SURFACE_STYLE_USAGE(.BOTH.,#130);
#132=PRESENTATION_STYLE_ASSIGNMENT((#131));
#133=STYLED_ITEM('',(#132),#125);
#134=ADVANCED_FACE('',(#299),#301,.T.);
#135=COLOUR_RGB('',0.141176470588235,0.141176470588235,0.141176470588235);
#136=FILL_AREA_STYLE_COLOUR('',#135);
#137=FILL_AREA_STYLE($,(#136));
#138=SURFACE_STYLE_FILL_AREA(#137);
#139=SURFACE_SIDE_STYLE('',(#138));
#140=SURFACE_STYLE_USAGE(.BOTH.,#139);
#141=PRESENTATION_STYLE_ASSIGNMENT((#140));
#142=STYLED_ITEM('',(#141),#134);
#143=ADVANCED_FACE('',(#306),#308,.T.);
#144=COLOUR_RGB('',0.141176470588235,0.141176470588235,0.141176470588235);
#145=FILL_AREA_STYLE_COLOUR('',#144);
#146=FILL_AREA_STYLE($,(#145));
#147=SURFACE_STYLE_FILL_AREA(#146);
#148=SURFACE_SIDE_STYLE('',(#147));
#149=SURFACE_STYLE_USAGE(.BOTH.,#148);
#150=PRESENTATION_STYLE_ASSIGNMENT((#149));
#151=STYLED_ITEM('',(#150),#143);
#152=ADVANCED_FACE('',(#313),#315,.T.);
#153=COLOUR_RGB('',0.141176470588235,0.141176470588235,0.141176470588235);
#154=FILL_AREA_STYLE_COLOUR('',#153);
#155=FILL_AREA_STYLE($,(#154));
#156=SURFACE_STYLE_FILL_AREA(#155);
#157=SURFACE_SIDE_STYLE('',(#156));
#158=SURFACE_STYLE_USAGE(.BOTH.,#157);
#159=PRESENTATION_STYLE_ASSIGNMENT((#158));
#160=STYLED_ITEM('',(#159),#152);
#161=ADVANCED_FACE('',(#320),#322,.T.);
#162=COLOUR_RGB('',0.141176470588235,0.141176470588235,0.141176470588235);
#163=FILL_AREA_STYLE_COLOUR('',#162);
#164=FILL_AREA_STYLE($,(#163));
#165=SURFACE_STYLE_FILL_AREA(#164);
#166=SURFACE_SIDE_STYLE('',(#165));
#167=SURFACE_STYLE_USAGE(.BOTH.,#166);
#168=PRESENTATION_STYLE_ASSIGNMENT((#167));
#169=STYLED_ITEM('',(#168),#161);
#170=ADVANCED_FACE('',(#327),#329,.T.);
#171=COLOUR_RGB('',0.141176470588235,0.141176470588235,0.141176470588235);
#172=FILL_AREA_STYLE_COLOUR('',#171);
#173=FILL_AREA_STYLE($,(#172));
#174=SURFACE_STYLE_FILL_AREA(#173);
#175=SURFACE_SIDE_STYLE('',(#174));
#176=SURFACE_STYLE_USAGE(.BOTH.,#175);
#177=PRESENTATION_STYLE_ASSIGNMENT((#176));
#178=STYLED_ITEM('',(#177),#170);
#179=ADVANCED_FACE('',(#334),#336,.T.);
#180=COLOUR_RGB('',0.141176470588235,0.141176470588235,0.141176470588235);
#181=FILL_AREA_STYLE_COLOUR('',#180);
#182=FILL_AREA_STYLE($,(#181));
#183=SURFACE_STYLE_FILL_AREA(#182);
#184=SURFACE_SIDE_STYLE('',(#183));
#185=SURFACE_STYLE_USAGE(.BOTH.,#184);
#186=PRESENTATION_STYLE_ASSIGNMENT((#185));
#187=STYLED_ITEM('',(#186),#179);
#188=ADVANCED_FACE('',(#341),#343,.T.);
#189=COLOUR_RGB('',0.141176470588235,0.141176470588235,0.141176470588235);
#190=FILL_AREA_STYLE_COLOUR('',#189);
#191=FILL_AREA_STYLE($,(#190));
#192=SURFACE_STYLE_FILL_AREA(#191);
#193=SURFACE_SIDE_STYLE('',(#192));
#194=SURFACE_STYLE_USAGE(.BOTH.,#193);
#195=PRESENTATION_STYLE_ASSIGNMENT((#194));
#196=STYLED_ITEM('',(#195),#188);
#197=ADVANCED_FACE('',(#348),#350,.T.);
#198=COLOUR_RGB('',0.141176470588235,0.141176470588235,0.141176470588235);
#199=FILL_AREA_STYLE_COLOUR('',#198);
#200=FILL_AREA_STYLE($,(#199));
#201=SURFACE_STYLE_FILL_AREA(#200);
#202=SURFACE_SIDE_STYLE('',(#201));
#203=SURFACE_STYLE_USAGE(.BOTH.,#202);
#204=PRESENTATION_STYLE_ASSIGNMENT((#203));
#205=STYLED_ITEM('',(#204),#197);
#206=FACE_OUTER_BOUND('',#207,.T.);
#207=EDGE_LOOP('',(#355));
#208=FACE_OUTER_BOUND('',#209,.T.);
#209=EDGE_LOOP('',(#356));
#210=CONICAL_SURFACE('',#211,2.5,0.785398163397448);
#211=AXIS2_PLACEMENT_3D('',#212,#213,#214);
#212=CARTESIAN_POINT('',(4.86317623441042,-16.4814529840953,2.));
#213=DIRECTION('',(0.,0.,1.));
#214=DIRECTION('',(-1.,1.22464679914735E-16,0.));
#215=FACE_OUTER_BOUND('',#216,.T.);
#216=EDGE_LOOP('',(#357));
#217=FACE_OUTER_BOUND('',#218,.T.);
#218=EDGE_LOOP('',(#358));
#219=CONICAL_SURFACE('',#220,2.5,0.785398163397448);
#220=AXIS2_PLACEMENT_3D('',#221,#222,#223);
#221=CARTESIAN_POINT('',(-135.558215827549,-16.4814529840953,2.));
#222=DIRECTION('',(0.,0.,1.));
#223=DIRECTION('',(-1.,1.22464679914735E-16,0.));
#224=FACE_OUTER_BOUND('',#225,.T.);
#225=EDGE_LOOP('',(#359));
#226=FACE_OUTER_BOUND('',#227,.T.);
#227=EDGE_LOOP('',(#360));
#228=CONICAL_SURFACE('',#229,2.5,0.785398163397448);
#229=AXIS2_PLACEMENT_3D('',#230,#231,#232);
#230=CARTESIAN_POINT('',(-65.7078902411199,-16.4814529840953,2.));
#231=DIRECTION('',(0.,0.,1.));
#232=DIRECTION('',(-1.,1.22464679914735E-16,0.));
#233=FACE_BOUND('',#234,.T.);
#234=EDGE_LOOP('',(#361,#362,#363,#364));
#235=FACE_BOUND('',#236,.T.);
#236=EDGE_LOOP('',(#365));
#237=FACE_BOUND('',#238,.T.);
#238=EDGE_LOOP('',(#366));
#239=FACE_BOUND('',#240,.T.);
#240=EDGE_LOOP('',(#367));
#241=FACE_BOUND('',#242,.T.);
#242=EDGE_LOOP('',(#368));
#243=PLANE('',#244);
#244=AXIS2_PLACEMENT_3D('',#245,#246,#247);
#245=CARTESIAN_POINT('',(0.,0.,3.));
#246=DIRECTION('',(0.,0.,1.));
#247=DIRECTION('',(-1.,1.22464679914735E-16,0.));
#248=FACE_BOUND('',#249,.T.);
#249=EDGE_LOOP('',(#369,#370,#371,#372));
#250=FACE_BOUND('',#251,.T.);
#251=EDGE_LOOP('',(#373));
#252=FACE_BOUND('',#253,.T.);
#253=EDGE_LOOP('',(#374));
#254=FACE_BOUND('',#255,.T.);
#255=EDGE_LOOP('',(#375));
#256=FACE_BOUND('',#257,.T.);
#257=EDGE_LOOP('',(#376));
#258=PLANE('',#259);
#259=AXIS2_PLACEMENT_3D('',#260,#261,#262);
#260=CARTESIAN_POINT('',(0.,0.,0.));
#261=DIRECTION('',(0.,0.,1.));
#262=DIRECTION('',(-1.,1.22464679914735E-16,0.));
#263=FACE_OUTER_BOUND('',#264,.T.);
#264=EDGE_LOOP('',(#377));
#265=FACE_OUTER_BOUND('',#266,.T.);
#266=EDGE_LOOP('',(#378));
#267=CYLINDRICAL_SURFACE('',#268,1.5);
#268=AXIS2_PLACEMENT_3D('',#269,#270,#271);
#269=CARTESIAN_POINT('',(-65.7078902411199,-16.4814529840953,-3.5));
#270=DIRECTION('',(0.,0.,1.));
#271=DIRECTION('',(-1.,1.22464679914735E-16,0.));
#272=FACE_OUTER_BOUND('',#273,.T.);
#273=EDGE_LOOP('',(#379));
#274=FACE_OUTER_BOUND('',#275,.T.);
#275=EDGE_LOOP('',(#380));
#276=CYLINDRICAL_SURFACE('',#277,1.5);
#277=AXIS2_PLACEMENT_3D('',#278,#279,#280);
#278=CARTESIAN_POINT('',(-135.558215827549,-16.4814529840953,-3.5));
#279=DIRECTION('',(0.,0.,1.));
#280=DIRECTION('',(-1.,1.22464679914735E-16,0.));
#281=FACE_OUTER_BOUND('',#282,.T.);
#282=EDGE_LOOP('',(#381));
#283=FACE_OUTER_BOUND('',#284,.T.);
#284=EDGE_LOOP('',(#382));
#285=CYLINDRICAL_SURFACE('',#286,1.5);
#286=AXIS2_PLACEMENT_3D('',#287,#288,#289);
#287=CARTESIAN_POINT('',(4.86317623441042,-16.4814529840953,-3.5));
#288=DIRECTION('',(0.,0.,1.));
#289=DIRECTION('',(-1.,1.22464679914735E-16,0.));
#290=FACE_OUTER_BOUND('',#291,.T.);
#291=EDGE_LOOP('',(#383));
#292=FACE_OUTER_BOUND('',#293,.T.);
#293=EDGE_LOOP('',(#384));
#294=CYLINDRICAL_SURFACE('',#295,3.25);
#295=AXIS2_PLACEMENT_3D('',#296,#297,#298);
#296=CARTESIAN_POINT('',(-168.016835100665,-15.7589721414259,-3.5));
#297=DIRECTION('',(0.,0.,1.));
#298=DIRECTION('',(-1.,1.22464679914735E-16,0.));
#299=FACE_BOUND('',#300,.T.);
#300=EDGE_LOOP('',(#385,#386,#387,#388));
#301=PLANE('',#302);
#302=AXIS2_PLACEMENT_3D('',#303,#304,#305);
#303=CARTESIAN_POINT('',(43.8631762344104,-11.4814529840953,2.));
#304=DIRECTION('',(8.88341785834242E-17,0.707106781186548,0.707106781186547));
#305=DIRECTION('',(-1.,1.2465662030879E-16,9.73879846162413E-19));
#306=FACE_BOUND('',#307,.T.);
#307=EDGE_LOOP('',(#389,#390,#391,#392));
#308=PLANE('',#309);
#309=AXIS2_PLACEMENT_3D('',#310,#311,#312);
#310=CARTESIAN_POINT('',(-180.13682376559,-7.48145298409528,2.));
#311=DIRECTION('',(-0.707106781186547,0.,0.707106781186547));
#312=DIRECTION('',(0.,-1.,0.));
#313=FACE_BOUND('',#314,.T.);
#314=EDGE_LOOP('',(#393,#394,#395,#396));
#315=PLANE('',#316);
#316=AXIS2_PLACEMENT_3D('',#317,#318,#319);
#317=CARTESIAN_POINT('',(-184.13682376559,-21.4814529840953,2.));
#318=DIRECTION('',(-7.78159858909063E-17,-0.707106781186546,0.707106781186549));
#319=DIRECTION('',(1.,-1.09074542770191E-16,9.73879846162411E-19));
#320=FACE_BOUND('',#321,.T.);
#321=EDGE_LOOP('',(#397,#398,#399,#400));
#322=PLANE('',#323);
#323=AXIS2_PLACEMENT_3D('',#324,#325,#326);
#324=CARTESIAN_POINT('',(39.8631762344104,-25.4814529840953,2.));
#325=DIRECTION('',(0.707106781186547,-2.79127548210449E-16,0.707106781186547));
#326=DIRECTION('',(3.94745964311167E-16,1.,0.));
#327=FACE_BOUND('',#328,.T.);
#328=EDGE_LOOP('',(#401,#402,#403,#404));
#329=PLANE('',#330);
#330=AXIS2_PLACEMENT_3D('',#331,#332,#333);
#331=CARTESIAN_POINT('',(39.8631762344104,-11.4814529840953,0.));
#332=DIRECTION('',(1.29189588320018E-16,1.,0.));
#333=DIRECTION('',(-1.,1.29189588320018E-16,0.));
#334=FACE_BOUND('',#335,.T.);
#335=EDGE_LOOP('',(#405,#406,#407,#408));
#336=PLANE('',#337);
#337=AXIS2_PLACEMENT_3D('',#338,#339,#340);
#338=CARTESIAN_POINT('',(39.8631762344104,-21.4814529840953,0.));
#339=DIRECTION('',(1.,-7.105427357601E-16,0.));
#340=DIRECTION('',(7.105427357601E-16,1.,0.));
#341=FACE_BOUND('',#342,.T.);
#342=EDGE_LOOP('',(#409,#410,#411,#412));
#343=PLANE('',#344);
#344=AXIS2_PLACEMENT_3D('',#345,#346,#347);
#345=CARTESIAN_POINT('',(-180.13682376559,-21.4814529840953,0.));
#346=DIRECTION('',(-1.13040889780016E-16,-1.,0.));
#347=DIRECTION('',(1.,-1.13040889780016E-16,0.));
#348=FACE_BOUND('',#349,.T.);
#349=EDGE_LOOP('',(#413,#414,#415,#416));
#350=PLANE('',#351);
#351=AXIS2_PLACEMENT_3D('',#352,#353,#354);
#352=CARTESIAN_POINT('',(-180.13682376559,-11.4814529840953,0.));
#353=DIRECTION('',(-1.,0.,0.));
#354=DIRECTION('',(0.,-1.,0.));
#355=ORIENTED_EDGE('',*,*,#417,.T.);
#356=ORIENTED_EDGE('',*,*,#418,.F.);
#357=ORIENTED_EDGE('',*,*,#419,.T.);
#358=ORIENTED_EDGE('',*,*,#420,.F.);
#359=ORIENTED_EDGE('',*,*,#421,.T.);
#360=ORIENTED_EDGE('',*,*,#422,.F.);
#361=ORIENTED_EDGE('',*,*,#423,.T.);
#362=ORIENTED_EDGE('',*,*,#424,.T.);
#363=ORIENTED_EDGE('',*,*,#425,.T.);
#364=ORIENTED_EDGE('',*,*,#426,.T.);
#365=ORIENTED_EDGE('',*,*,#427,.T.);
#366=ORIENTED_EDGE('',*,*,#422,.T.);
#367=ORIENTED_EDGE('',*,*,#420,.T.);
#368=ORIENTED_EDGE('',*,*,#418,.T.);
#369=ORIENTED_EDGE('',*,*,#428,.F.);
#370=ORIENTED_EDGE('',*,*,#429,.F.);
#371=ORIENTED_EDGE('',*,*,#430,.F.);
#372=ORIENTED_EDGE('',*,*,#431,.F.);
#373=ORIENTED_EDGE('',*,*,#432,.T.);
#374=ORIENTED_EDGE('',*,*,#433,.T.);
#375=ORIENTED_EDGE('',*,*,#434,.T.);
#376=ORIENTED_EDGE('',*,*,#435,.T.);
#377=ORIENTED_EDGE('',*,*,#421,.F.);
#378=ORIENTED_EDGE('',*,*,#435,.F.);
#379=ORIENTED_EDGE('',*,*,#419,.F.);
#380=ORIENTED_EDGE('',*,*,#434,.F.);
#381=ORIENTED_EDGE('',*,*,#417,.F.);
#382=ORIENTED_EDGE('',*,*,#433,.F.);
#383=ORIENTED_EDGE('',*,*,#427,.F.);
#384=ORIENTED_EDGE('',*,*,#432,.F.);
#385=ORIENTED_EDGE('',*,*,#436,.T.);
#386=ORIENTED_EDGE('',*,*,#437,.T.);
#387=ORIENTED_EDGE('',*,*,#423,.F.);
#388=ORIENTED_EDGE('',*,*,#438,.F.);
#389=ORIENTED_EDGE('',*,*,#439,.T.);
#390=ORIENTED_EDGE('',*,*,#440,.T.);
#391=ORIENTED_EDGE('',*,*,#424,.F.);
#392=ORIENTED_EDGE('',*,*,#437,.F.);
#393=ORIENTED_EDGE('',*,*,#441,.T.);
#394=ORIENTED_EDGE('',*,*,#442,.T.);
#395=ORIENTED_EDGE('',*,*,#425,.F.);
#396=ORIENTED_EDGE('',*,*,#440,.F.);
#397=ORIENTED_EDGE('',*,*,#443,.T.);
#398=ORIENTED_EDGE('',*,*,#438,.T.);
#399=ORIENTED_EDGE('',*,*,#426,.F.);
#400=ORIENTED_EDGE('',*,*,#442,.F.);
#401=ORIENTED_EDGE('',*,*,#436,.F.);
#402=ORIENTED_EDGE('',*,*,#444,.F.);
#403=ORIENTED_EDGE('',*,*,#428,.T.);
#404=ORIENTED_EDGE('',*,*,#445,.T.);
#405=ORIENTED_EDGE('',*,*,#443,.F.);
#406=ORIENTED_EDGE('',*,*,#446,.F.);
#407=ORIENTED_EDGE('',*,*,#429,.T.);
#408=ORIENTED_EDGE('',*,*,#444,.T.);
#409=ORIENTED_EDGE('',*,*,#441,.F.);
#410=ORIENTED_EDGE('',*,*,#447,.F.);
#411=ORIENTED_EDGE('',*,*,#430,.T.);
#412=ORIENTED_EDGE('',*,*,#446,.T.);
#413=ORIENTED_EDGE('',*,*,#439,.F.);
#414=ORIENTED_EDGE('',*,*,#445,.F.);
#415=ORIENTED_EDGE('',*,*,#431,.T.);
#416=ORIENTED_EDGE('',*,*,#447,.T.);
#417=EDGE_CURVE('',#448,#448,#449,.F.);
#418=EDGE_CURVE('',#450,#450,#451,.F.);
#419=EDGE_CURVE('',#452,#452,#453,.F.);
#420=EDGE_CURVE('',#454,#454,#455,.F.);
#421=EDGE_CURVE('',#456,#456,#457,.F.);
#422=EDGE_CURVE('',#458,#458,#459,.F.);
#423=EDGE_CURVE('',#460,#461,#462,.T.);
#424=EDGE_CURVE('',#461,#463,#464,.T.);
#425=EDGE_CURVE('',#463,#465,#466,.T.);
#426=EDGE_CURVE('',#465,#460,#467,.T.);
#427=EDGE_CURVE('',#468,#468,#469,.F.);
#428=EDGE_CURVE('',#470,#471,#472,.T.);
#429=EDGE_CURVE('',#473,#470,#474,.T.);
#430=EDGE_CURVE('',#475,#473,#476,.T.);
#431=EDGE_CURVE('',#471,#475,#477,.T.);
#432=EDGE_CURVE('',#478,#478,#479,.T.);
#433=EDGE_CURVE('',#480,#480,#481,.T.);
#434=EDGE_CURVE('',#482,#482,#483,.T.);
#435=EDGE_CURVE('',#484,#484,#485,.T.);
#436=EDGE_CURVE('',#486,#487,#488,.T.);
#437=EDGE_CURVE('',#487,#461,#489,.T.);
#438=EDGE_CURVE('',#486,#460,#490,.T.);
#439=EDGE_CURVE('',#487,#491,#492,.T.);
#440=EDGE_CURVE('',#491,#463,#493,.T.);
#441=EDGE_CURVE('',#491,#494,#495,.T.);
#442=EDGE_CURVE('',#494,#465,#496,.T.);
#443=EDGE_CURVE('',#494,#486,#497,.T.);
#444=EDGE_CURVE('',#470,#486,#498,.T.);
#445=EDGE_CURVE('',#471,#487,#499,.T.);
#446=EDGE_CURVE('',#473,#494,#500,.T.);
#447=EDGE_CURVE('',#475,#491,#501,.T.);
#448=VERTEX_POINT('',#502);
#449=CIRCLE('',#503,1.5);
#450=VERTEX_POINT('',#507);
#451=CIRCLE('',#508,3.5);
#452=VERTEX_POINT('',#512);
#453=CIRCLE('',#513,1.5);
#454=VERTEX_POINT('',#517);
#455=CIRCLE('',#518,3.5);
#456=VERTEX_POINT('',#522);
#457=CIRCLE('',#523,1.5);
#458=VERTEX_POINT('',#527);
#459=CIRCLE('',#528,3.5);
#460=VERTEX_POINT('',#532);
#461=VERTEX_POINT('',#533);
#462=LINE('',#534,#535);
#463=VERTEX_POINT('',#537);
#464=LINE('',#538,#539);
#465=VERTEX_POINT('',#541);
#466=LINE('',#542,#543);
#467=LINE('',#545,#546);
#468=VERTEX_POINT('',#548);
#469=CIRCLE('',#549,3.25);
#470=VERTEX_POINT('',#553);
#471=VERTEX_POINT('',#554);
#472=LINE('',#555,#556);
#473=VERTEX_POINT('',#558);
#474=LINE('',#559,#560);
#475=VERTEX_POINT('',#562);
#476=LINE('',#563,#564);
#477=LINE('',#566,#567);
#478=VERTEX_POINT('',#569);
#479=CIRCLE('',#570,3.25);
#480=VERTEX_POINT('',#574);
#481=CIRCLE('',#575,1.5);
#482=VERTEX_POINT('',#579);
#483=CIRCLE('',#580,1.5);
#484=VERTEX_POINT('',#584);
#485=CIRCLE('',#585,1.5);
#486=VERTEX_POINT('',#589);
#487=VERTEX_POINT('',#590);
#488=LINE('',#591,#592);
#489=LINE('',#594,#595);
#490=LINE('',#597,#598);
#491=VERTEX_POINT('',#600);
#492=LINE('',#601,#602);
#493=LINE('',#604,#605);
#494=VERTEX_POINT('',#607);
#495=LINE('',#608,#609);
#496=LINE('',#611,#612);
#497=LINE('',#614,#615);
#498=LINE('',#617,#618);
#499=LINE('',#620,#621);
#500=LINE('',#623,#624);
#501=LINE('',#626,#627);
#502=CARTESIAN_POINT('',(3.36317623441042,-16.4814529840953,1.));
#503=AXIS2_PLACEMENT_3D('',#504,#505,#506);
#504=CARTESIAN_POINT('',(4.86317623441042,-16.4814529840953,1.));
#505=DIRECTION('',(0.,0.,1.));
#506=DIRECTION('',(-1.,0.,0.));
#507=CARTESIAN_POINT('',(1.36317623441042,-16.4814529840953,3.));
#508=AXIS2_PLACEMENT_3D('',#509,#510,#511);
#509=CARTESIAN_POINT('',(4.86317623441042,-16.4814529840953,3.));
#510=DIRECTION('',(0.,0.,1.));
#511=DIRECTION('',(-1.,1.22464679914735E-16,0.));
#512=CARTESIAN_POINT('',(-137.058215827549,-16.4814529840953,1.));
#513=AXIS2_PLACEMENT_3D('',#514,#515,#516);
#514=CARTESIAN_POINT('',(-135.558215827549,-16.4814529840953,1.));
#515=DIRECTION('',(0.,0.,1.));
#516=DIRECTION('',(-1.,0.,0.));
#517=CARTESIAN_POINT('',(-139.058215827549,-16.4814529840953,3.));
#518=AXIS2_PLACEMENT_3D('',#519,#520,#521);
#519=CARTESIAN_POINT('',(-135.558215827549,-16.4814529840953,3.));
#520=DIRECTION('',(0.,0.,1.));
#521=DIRECTION('',(-1.,1.22464679914735E-16,0.));
#522=CARTESIAN_POINT('',(-67.2078902411199,-16.4814529840953,1.));
#523=AXIS2_PLACEMENT_3D('',#524,#525,#526);
#524=CARTESIAN_POINT('',(-65.7078902411199,-16.4814529840953,1.));
#525=DIRECTION('',(0.,0.,1.));
#526=DIRECTION('',(-1.,0.,0.));
#527=CARTESIAN_POINT('',(-69.2078902411199,-16.4814529840953,3.));
#528=AXIS2_PLACEMENT_3D('',#529,#530,#531);
#529=CARTESIAN_POINT('',(-65.7078902411199,-16.4814529840953,3.));
#530=DIRECTION('',(0.,0.,1.));
#531=DIRECTION('',(-1.,1.22464679914735E-16,0.));
#532=CARTESIAN_POINT('',(38.8631762344104,-12.4814529840953,3.));
#533=CARTESIAN_POINT('',(-179.13682376559,-12.4814529840953,3.));
#534=CARTESIAN_POINT('',(38.8631762344104,-12.4814529840953,3.));
#535=VECTOR('',#536,1.);
#536=DIRECTION('',(-1.,1.30374813900936E-16,0.));
#537=CARTESIAN_POINT('',(-179.13682376559,-20.4814529840953,3.));
#538=CARTESIAN_POINT('',(-179.13682376559,-12.4814529840953,3.));
#539=VECTOR('',#540,1.);
#540=DIRECTION('',(0.,-1.,0.));
#541=CARTESIAN_POINT('',(38.8631762344104,-20.4814529840953,3.));
#542=CARTESIAN_POINT('',(-179.13682376559,-20.4814529840953,3.));
#543=VECTOR('',#544,1.);
#544=DIRECTION('',(1.,-1.14077962163319E-16,0.));
#545=CARTESIAN_POINT('',(38.8631762344104,-20.4814529840953,3.));
#546=VECTOR('',#547,1.);
#547=DIRECTION('',(1.77635683940025E-15,1.,0.));
#548=CARTESIAN_POINT('',(-171.266835100665,-15.7589721414259,3.));
#549=AXIS2_PLACEMENT_3D('',#550,#551,#552);
#550=CARTESIAN_POINT('',(-168.016835100665,-15.7589721414259,3.));
#551=DIRECTION('',(0.,0.,1.));
#552=DIRECTION('',(-1.,1.22464679914735E-16,0.));
#553=CARTESIAN_POINT('',(39.8631762344104,-11.4814529840953,0.));
#554=CARTESIAN_POINT('',(-180.13682376559,-11.4814529840953,0.));
#555=CARTESIAN_POINT('',(39.8631762344104,-11.4814529840953,0.));
#556=VECTOR('',#557,1.);
#557=DIRECTION('',(-1.,1.29189588320018E-16,0.));
#558=CARTESIAN_POINT('',(39.8631762344104,-21.4814529840953,0.));
#559=CARTESIAN_POINT('',(39.8631762344104,-21.4814529840953,0.));
#560=VECTOR('',#561,1.);
#561=DIRECTION('',(7.105427357601E-16,1.,0.));
#562=CARTESIAN_POINT('',(-180.13682376559,-21.4814529840953,0.));
#563=CARTESIAN_POINT('',(-180.13682376559,-21.4814529840953,0.));
#564=VECTOR('',#565,1.);
#565=DIRECTION('',(1.,-1.13040889780016E-16,0.));
#566=CARTESIAN_POINT('',(-180.13682376559,-11.4814529840953,0.));
#567=VECTOR('',#568,1.);
#568=DIRECTION('',(0.,-1.,0.));
#569=CARTESIAN_POINT('',(-171.266835100665,-15.7589721414259,4.44089209850063E-16));
#570=AXIS2_PLACEMENT_3D('',#571,#572,#573);
#571=CARTESIAN_POINT('',(-168.016835100665,-15.7589721414259,0.));
#572=DIRECTION('',(0.,0.,1.));
#573=DIRECTION('',(-1.,1.22464679914735E-16,0.));
#574=CARTESIAN_POINT('',(3.36317623441042,-16.4814529840953,4.44089209850063E-16));
#575=AXIS2_PLACEMENT_3D('',#576,#577,#578);
#576=CARTESIAN_POINT('',(4.86317623441042,-16.4814529840953,0.));
#577=DIRECTION('',(0.,0.,1.));
#578=DIRECTION('',(-1.,1.22464679914735E-16,0.));
#579=CARTESIAN_POINT('',(-137.058215827549,-16.4814529840953,4.44089209850063E-16));
#580=AXIS2_PLACEMENT_3D('',#581,#582,#583);
#581=CARTESIAN_POINT('',(-135.558215827549,-16.4814529840953,0.));
#582=DIRECTION('',(0.,0.,1.));
#583=DIRECTION('',(-1.,1.22464679914735E-16,0.));
#584=CARTESIAN_POINT('',(-67.2078902411199,-16.4814529840953,4.44089209850063E-16));
#585=AXIS2_PLACEMENT_3D('',#586,#587,#588);
#586=CARTESIAN_POINT('',(-65.7078902411199,-16.4814529840953,0.));
#587=DIRECTION('',(0.,0.,1.));
#588=DIRECTION('',(-1.,1.22464679914735E-16,0.));
#589=CARTESIAN_POINT('',(39.8631762344104,-11.4814529840953,2.));
#590=CARTESIAN_POINT('',(-180.13682376559,-11.4814529840953,2.));
#591=CARTESIAN_POINT('',(39.8631762344104,-11.4814529840953,2.));
#592=VECTOR('',#593,1.);
#593=DIRECTION('',(-1.,1.29189588320018E-16,1.00929365875014E-18));
#594=CARTESIAN_POINT('',(-180.13682376559,-11.4814529840953,2.));
#595=VECTOR('',#596,1.);
#596=DIRECTION('',(0.577350269189626,-0.577350269189626,0.577350269189626));
#597=CARTESIAN_POINT('',(39.8631762344104,-11.4814529840953,2.));
#598=VECTOR('',#599,1.);
#599=DIRECTION('',(-0.577350269189625,-0.577350269189625,0.577350269189628));
#600=CARTESIAN_POINT('',(-180.13682376559,-21.4814529840953,2.));
#601=CARTESIAN_POINT('',(-180.13682376559,-11.4814529840953,2.));
#602=VECTOR('',#603,1.);
#603=DIRECTION('',(0.,-1.,0.));
#604=CARTESIAN_POINT('',(-180.13682376559,-21.4814529840953,2.));
#605=VECTOR('',#606,1.);
#606=DIRECTION('',(0.577350269189614,0.577350269189634,0.577350269189629));
#607=CARTESIAN_POINT('',(39.8631762344104,-21.4814529840953,2.));
#608=CARTESIAN_POINT('',(-180.13682376559,-21.4814529840953,2.));
#609=VECTOR('',#610,1.);
#610=DIRECTION('',(1.,-1.13040889780016E-16,1.00929365875014E-18));
#611=CARTESIAN_POINT('',(39.8631762344104,-21.4814529840953,2.));
#612=VECTOR('',#613,1.);
#613=DIRECTION('',(-0.577350269189625,0.577350269189629,0.577350269189623));
#614=CARTESIAN_POINT('',(39.8631762344104,-21.4814529840953,2.));
#615=VECTOR('',#616,1.);
#616=DIRECTION('',(7.105427357601E-16,1.,0.));
#617=CARTESIAN_POINT('',(39.8631762344104,-11.4814529840953,0.));
#618=VECTOR('',#619,1.);
#619=DIRECTION('',(0.,0.,1.));
#620=CARTESIAN_POINT('',(-180.13682376559,-11.4814529840953,0.));
#621=VECTOR('',#622,1.);
#622=DIRECTION('',(0.,0.,1.));
#623=CARTESIAN_POINT('',(39.8631762344104,-21.4814529840953,0.));
#624=VECTOR('',#625,1.);
#625=DIRECTION('',(0.,0.,1.));
#626=CARTESIAN_POINT('',(-180.13682376559,-21.4814529840953,0.));
#627=VECTOR('',#628,1.);
#628=DIRECTION('',(0.,0.,1.));
ENDSEC;
END-ISO-10303-21;
