ISO-10303-21;
HEADER;
FILE_DESCRIPTION(('STEP AP242'),
    '1');
FILE_NAME('rubber_nuts_holder',
    '',
    ('UNSPECIFIED'),
    ('UNSPECIFIED'),
    'C3D Converter',
    'C3D Toolkit',
    '');
FILE_SCHEMA(('AP242_MANAGED_MODEL_BASED_3D_ENGINEERING_MIM_LF { 1 0 10303 442 1 1 4 }'));
ENDSEC;

DATA;
#1=SHAPE_REPRESENTATION('NONE',(#2),#6);
#2=AXIS2_PLACEMENT_3D('',#3,#4,#5);
#3=CARTESIAN_POINT('',(0.,0.,0.));
#4=DIRECTION('',(0.,0.,1.));
#5=DIRECTION('',(1.,0.,0.));
#6=(GEOMETRIC_REPRESENTATION_CONTEXT(3)GLOBAL_UNCERTAINTY_ASSIGNED_CONTEXT((#8))
GLOBAL_UNIT_ASSIGNED_CONTEXT((#7,#9,#10))REPRESENTATION_CONTEXT('NONE','NONE'));
#7=(LENGTH_UNIT()NAMED_UNIT(*)SI_UNIT(.MILLI.,.METRE.));
#8=UNCERTAINTY_MEASURE_WITH_UNIT(LENGTH_MEASURE(1.E-5),#7,'NONE','NONE');
#9=(NAMED_UNIT(*)PLANE_ANGLE_UNIT()SI_UNIT($,.RADIAN.));
#10=(NAMED_UNIT(*)SI_UNIT($,.STERADIAN.)SOLID_ANGLE_UNIT());
#11=SHAPE_DEFINITION_REPRESENTATION(#12,#1);
#12=PRODUCT_DEFINITION_SHAPE('NONE','NONE',#13);
#13=PRODUCT_DEFINITION('','UNSPECIFIED',#14,#17);
#14=PRODUCT_DEFINITION_FORMATION_WITH_SPECIFIED_SOURCE('ANY','UNSPECIFIED',#15,.NOT_KNOWN.);
#15=PRODUCT('','Part','NONE',(#20));
#16=PRODUCT_RELATED_PRODUCT_CATEGORY('detail','',(#15));
#17=DESIGN_CONTEXT('detailed design',#18,'design');
#18=APPLICATION_CONTEXT('configuration controlled 3d designs of mechanical parts and assemblies');
#19=APPLICATION_PROTOCOL_DEFINITION('international standard','config_control_design',
1994,#18);
#20=MECHANICAL_CONTEXT('NONE',#18,'mechanical');
#21=CC_DESIGN_DATE_AND_TIME_ASSIGNMENT(#22,#26,(#13));
#22=DATE_AND_TIME(#23,#24);
#23=CALENDAR_DATE(0,1,1);
#24=LOCAL_TIME(0,0,0.,#25);
#25=COORDINATED_UNIVERSAL_TIME_OFFSET(0,0,.AHEAD.);
#26=DATE_TIME_ROLE('creation_date');
#27=CC_DESIGN_APPROVAL(#28,(#13));
#28=APPROVAL(#29,'UNSPECIFIED');
#29=APPROVAL_STATUS('not_yet_approved');
#30=APPROVAL_DATE_TIME(#31,#28);
#31=DATE_AND_TIME(#32,#33);
#32=CALENDAR_DATE(0,1,1);
#33=LOCAL_TIME(0,0,0.,#34);
#34=COORDINATED_UNIVERSAL_TIME_OFFSET(0,0,.AHEAD.);
#35=MANIFOLD_SOLID_BREP('',#36);
#36=CLOSED_SHELL('',(#48,#57,#66,#75,#84,#93,#102,#111,#120,#129,#138,#147,#156,
#165,#174,#183,#192,#201,#210,#219,#228,#237,#246,#255,#264,#273,#282,#291,#300,
#309,#318,#327,#336,#345,#354,#363,#372,#381,#390,#399,#408,#417,#426,#435,#444,
#453,#462,#471));
#37=COLOUR_RGB('',1.,0.8,0.6);
#38=FILL_AREA_STYLE_COLOUR('',#37);
#39=FILL_AREA_STYLE($,(#38));
#40=SURFACE_STYLE_FILL_AREA(#39);
#41=SURFACE_SIDE_STYLE('',(#40));
#42=SURFACE_STYLE_USAGE(.BOTH.,#41);
#43=PRESENTATION_STYLE_ASSIGNMENT((#42));
#44=MECHANICAL_DESIGN_GEOMETRIC_PRESENTATION_REPRESENTATION('NONE',(#45,#56,#65,
#74,#83,#92,#101,#110,#119,#128,#137,#146,#155,#164,#173,#182,#191,#200,#209,#218,
#227,#236,#245,#254,#263,#272,#281,#290,#299,#308,#317,#326,#335,#344,#353,#362,
#371,#380,#389,#398,#407,#416,#425,#434,#443,#452,#461,#470,#479),#6);
#45=STYLED_ITEM('',(#43),#35);
#46=ADVANCED_BREP_SHAPE_REPRESENTATION('NONE',(#35),#6);
#47=SHAPE_REPRESENTATION_RELATIONSHIP('','',#1,#46);
#48=ADVANCED_FACE('',(#480,#482),#484,.F.);
#49=COLOUR_RGB('',1.,0.8,0.6);
#50=FILL_AREA_STYLE_COLOUR('',#49);
#51=FILL_AREA_STYLE($,(#50));
#52=SURFACE_STYLE_FILL_AREA(#51);
#53=SURFACE_SIDE_STYLE('',(#52));
#54=SURFACE_STYLE_USAGE(.BOTH.,#53);
#55=PRESENTATION_STYLE_ASSIGNMENT((#54));
#56=STYLED_ITEM('',(#55),#48);
#57=ADVANCED_FACE('',(#489,#491),#493,.F.);
#58=COLOUR_RGB('',1.,0.8,0.6);
#59=FILL_AREA_STYLE_COLOUR('',#58);
#60=FILL_AREA_STYLE($,(#59));
#61=SURFACE_STYLE_FILL_AREA(#60);
#62=SURFACE_SIDE_STYLE('',(#61));
#63=SURFACE_STYLE_USAGE(.BOTH.,#62);
#64=PRESENTATION_STYLE_ASSIGNMENT((#63));
#65=STYLED_ITEM('',(#64),#57);
#66=ADVANCED_FACE('',(#498,#500,#502,#504),#506,.T.);
#67=COLOUR_RGB('',1.,0.8,0.6);
#68=FILL_AREA_STYLE_COLOUR('',#67);
#69=FILL_AREA_STYLE($,(#68));
#70=SURFACE_STYLE_FILL_AREA(#69);
#71=SURFACE_SIDE_STYLE('',(#70));
#72=SURFACE_STYLE_USAGE(.BOTH.,#71);
#73=PRESENTATION_STYLE_ASSIGNMENT((#72));
#74=STYLED_ITEM('',(#73),#66);
#75=ADVANCED_FACE('',(#511,#513),#515,.F.);
#76=COLOUR_RGB('',1.,0.8,0.6);
#77=FILL_AREA_STYLE_COLOUR('',#76);
#78=FILL_AREA_STYLE($,(#77));
#79=SURFACE_STYLE_FILL_AREA(#78);
#80=SURFACE_SIDE_STYLE('',(#79));
#81=SURFACE_STYLE_USAGE(.BOTH.,#80);
#82=PRESENTATION_STYLE_ASSIGNMENT((#81));
#83=STYLED_ITEM('',(#82),#75);
#84=ADVANCED_FACE('',(#520,#522),#524,.F.);
#85=COLOUR_RGB('',1.,0.8,0.6);
#86=FILL_AREA_STYLE_COLOUR('',#85);
#87=FILL_AREA_STYLE($,(#86));
#88=SURFACE_STYLE_FILL_AREA(#87);
#89=SURFACE_SIDE_STYLE('',(#88));
#90=SURFACE_STYLE_USAGE(.BOTH.,#89);
#91=PRESENTATION_STYLE_ASSIGNMENT((#90));
#92=STYLED_ITEM('',(#91),#84);
#93=ADVANCED_FACE('',(#529,#531),#533,.F.);
#94=COLOUR_RGB('',1.,0.8,0.6);
#95=FILL_AREA_STYLE_COLOUR('',#94);
#96=FILL_AREA_STYLE($,(#95));
#97=SURFACE_STYLE_FILL_AREA(#96);
#98=SURFACE_SIDE_STYLE('',(#97));
#99=SURFACE_STYLE_USAGE(.BOTH.,#98);
#100=PRESENTATION_STYLE_ASSIGNMENT((#99));
#101=STYLED_ITEM('',(#100),#93);
#102=ADVANCED_FACE('',(#538,#540),#542,.F.);
#103=COLOUR_RGB('',1.,0.8,0.6);
#104=FILL_AREA_STYLE_COLOUR('',#103);
#105=FILL_AREA_STYLE($,(#104));
#106=SURFACE_STYLE_FILL_AREA(#105);
#107=SURFACE_SIDE_STYLE('',(#106));
#108=SURFACE_STYLE_USAGE(.BOTH.,#107);
#109=PRESENTATION_STYLE_ASSIGNMENT((#108));
#110=STYLED_ITEM('',(#109),#102);
#111=ADVANCED_FACE('',(#547),#549,.F.);
#112=COLOUR_RGB('',1.,0.8,0.6);
#113=FILL_AREA_STYLE_COLOUR('',#112);
#114=FILL_AREA_STYLE($,(#113));
#115=SURFACE_STYLE_FILL_AREA(#114);
#116=SURFACE_SIDE_STYLE('',(#115));
#117=SURFACE_STYLE_USAGE(.BOTH.,#116);
#118=PRESENTATION_STYLE_ASSIGNMENT((#117));
#119=STYLED_ITEM('',(#118),#111);
#120=ADVANCED_FACE('',(#554),#556,.F.);
#121=COLOUR_RGB('',1.,0.8,0.6);
#122=FILL_AREA_STYLE_COLOUR('',#121);
#123=FILL_AREA_STYLE($,(#122));
#124=SURFACE_STYLE_FILL_AREA(#123);
#125=SURFACE_SIDE_STYLE('',(#124));
#126=SURFACE_STYLE_USAGE(.BOTH.,#125);
#127=PRESENTATION_STYLE_ASSIGNMENT((#126));
#128=STYLED_ITEM('',(#127),#120);
#129=ADVANCED_FACE('',(#561),#563,.F.);
#130=COLOUR_RGB('',1.,0.8,0.6);
#131=FILL_AREA_STYLE_COLOUR('',#130);
#132=FILL_AREA_STYLE($,(#131));
#133=SURFACE_STYLE_FILL_AREA(#132);
#134=SURFACE_SIDE_STYLE('',(#133));
#135=SURFACE_STYLE_USAGE(.BOTH.,#134);
#136=PRESENTATION_STYLE_ASSIGNMENT((#135));
#137=STYLED_ITEM('',(#136),#129);
#138=ADVANCED_FACE('',(#568),#570,.F.);
#139=COLOUR_RGB('',1.,0.8,0.6);
#140=FILL_AREA_STYLE_COLOUR('',#139);
#141=FILL_AREA_STYLE($,(#140));
#142=SURFACE_STYLE_FILL_AREA(#141);
#143=SURFACE_SIDE_STYLE('',(#142));
#144=SURFACE_STYLE_USAGE(.BOTH.,#143);
#145=PRESENTATION_STYLE_ASSIGNMENT((#144));
#146=STYLED_ITEM('',(#145),#138);
#147=ADVANCED_FACE('',(#575),#577,.F.);
#148=COLOUR_RGB('',1.,0.8,0.6);
#149=FILL_AREA_STYLE_COLOUR('',#148);
#150=FILL_AREA_STYLE($,(#149));
#151=SURFACE_STYLE_FILL_AREA(#150);
#152=SURFACE_SIDE_STYLE('',(#151));
#153=SURFACE_STYLE_USAGE(.BOTH.,#152);
#154=PRESENTATION_STYLE_ASSIGNMENT((#153));
#155=STYLED_ITEM('',(#154),#147);
#156=ADVANCED_FACE('',(#582),#584,.F.);
#157=COLOUR_RGB('',1.,0.8,0.6);
#158=FILL_AREA_STYLE_COLOUR('',#157);
#159=FILL_AREA_STYLE($,(#158));
#160=SURFACE_STYLE_FILL_AREA(#159);
#161=SURFACE_SIDE_STYLE('',(#160));
#162=SURFACE_STYLE_USAGE(.BOTH.,#161);
#163=PRESENTATION_STYLE_ASSIGNMENT((#162));
#164=STYLED_ITEM('',(#163),#156);
#165=ADVANCED_FACE('',(#589),#591,.F.);
#166=COLOUR_RGB('',1.,0.8,0.6);
#167=FILL_AREA_STYLE_COLOUR('',#166);
#168=FILL_AREA_STYLE($,(#167));
#169=SURFACE_STYLE_FILL_AREA(#168);
#170=SURFACE_SIDE_STYLE('',(#169));
#171=SURFACE_STYLE_USAGE(.BOTH.,#170);
#172=PRESENTATION_STYLE_ASSIGNMENT((#171));
#173=STYLED_ITEM('',(#172),#165);
#174=ADVANCED_FACE('',(#596),#598,.F.);
#175=COLOUR_RGB('',1.,0.8,0.6);
#176=FILL_AREA_STYLE_COLOUR('',#175);
#177=FILL_AREA_STYLE($,(#176));
#178=SURFACE_STYLE_FILL_AREA(#177);
#179=SURFACE_SIDE_STYLE('',(#178));
#180=SURFACE_STYLE_USAGE(.BOTH.,#179);
#181=PRESENTATION_STYLE_ASSIGNMENT((#180));
#182=STYLED_ITEM('',(#181),#174);
#183=ADVANCED_FACE('',(#603),#605,.F.);
#184=COLOUR_RGB('',1.,0.8,0.6);
#185=FILL_AREA_STYLE_COLOUR('',#184);
#186=FILL_AREA_STYLE($,(#185));
#187=SURFACE_STYLE_FILL_AREA(#186);
#188=SURFACE_SIDE_STYLE('',(#187));
#189=SURFACE_STYLE_USAGE(.BOTH.,#188);
#190=PRESENTATION_STYLE_ASSIGNMENT((#189));
#191=STYLED_ITEM('',(#190),#183);
#192=ADVANCED_FACE('',(#610),#612,.F.);
#193=COLOUR_RGB('',1.,0.8,0.6);
#194=FILL_AREA_STYLE_COLOUR('',#193);
#195=FILL_AREA_STYLE($,(#194));
#196=SURFACE_STYLE_FILL_AREA(#195);
#197=SURFACE_SIDE_STYLE('',(#196));
#198=SURFACE_STYLE_USAGE(.BOTH.,#197);
#199=PRESENTATION_STYLE_ASSIGNMENT((#198));
#200=STYLED_ITEM('',(#199),#192);
#201=ADVANCED_FACE('',(#617),#619,.F.);
#202=COLOUR_RGB('',1.,0.8,0.6);
#203=FILL_AREA_STYLE_COLOUR('',#202);
#204=FILL_AREA_STYLE($,(#203));
#205=SURFACE_STYLE_FILL_AREA(#204);
#206=SURFACE_SIDE_STYLE('',(#205));
#207=SURFACE_STYLE_USAGE(.BOTH.,#206);
#208=PRESENTATION_STYLE_ASSIGNMENT((#207));
#209=STYLED_ITEM('',(#208),#201);
#210=ADVANCED_FACE('',(#624),#626,.F.);
#211=COLOUR_RGB('',1.,0.8,0.6);
#212=FILL_AREA_STYLE_COLOUR('',#211);
#213=FILL_AREA_STYLE($,(#212));
#214=SURFACE_STYLE_FILL_AREA(#213);
#215=SURFACE_SIDE_STYLE('',(#214));
#216=SURFACE_STYLE_USAGE(.BOTH.,#215);
#217=PRESENTATION_STYLE_ASSIGNMENT((#216));
#218=STYLED_ITEM('',(#217),#210);
#219=ADVANCED_FACE('',(#631),#633,.F.);
#220=COLOUR_RGB('',1.,0.8,0.6);
#221=FILL_AREA_STYLE_COLOUR('',#220);
#222=FILL_AREA_STYLE($,(#221));
#223=SURFACE_STYLE_FILL_AREA(#222);
#224=SURFACE_SIDE_STYLE('',(#223));
#225=SURFACE_STYLE_USAGE(.BOTH.,#224);
#226=PRESENTATION_STYLE_ASSIGNMENT((#225));
#227=STYLED_ITEM('',(#226),#219);
#228=ADVANCED_FACE('',(#638),#640,.F.);
#229=COLOUR_RGB('',1.,0.8,0.6);
#230=FILL_AREA_STYLE_COLOUR('',#229);
#231=FILL_AREA_STYLE($,(#230));
#232=SURFACE_STYLE_FILL_AREA(#231);
#233=SURFACE_SIDE_STYLE('',(#232));
#234=SURFACE_STYLE_USAGE(.BOTH.,#233);
#235=PRESENTATION_STYLE_ASSIGNMENT((#234));
#236=STYLED_ITEM('',(#235),#228);
#237=ADVANCED_FACE('',(#645),#647,.F.);
#238=COLOUR_RGB('',1.,0.8,0.6);
#239=FILL_AREA_STYLE_COLOUR('',#238);
#240=FILL_AREA_STYLE($,(#239));
#241=SURFACE_STYLE_FILL_AREA(#240);
#242=SURFACE_SIDE_STYLE('',(#241));
#243=SURFACE_STYLE_USAGE(.BOTH.,#242);
#244=PRESENTATION_STYLE_ASSIGNMENT((#243));
#245=STYLED_ITEM('',(#244),#237);
#246=ADVANCED_FACE('',(#652),#654,.F.);
#247=COLOUR_RGB('',1.,0.8,0.6);
#248=FILL_AREA_STYLE_COLOUR('',#247);
#249=FILL_AREA_STYLE($,(#248));
#250=SURFACE_STYLE_FILL_AREA(#249);
#251=SURFACE_SIDE_STYLE('',(#250));
#252=SURFACE_STYLE_USAGE(.BOTH.,#251);
#253=PRESENTATION_STYLE_ASSIGNMENT((#252));
#254=STYLED_ITEM('',(#253),#246);
#255=ADVANCED_FACE('',(#659),#661,.F.);
#256=COLOUR_RGB('',1.,0.8,0.6);
#257=FILL_AREA_STYLE_COLOUR('',#256);
#258=FILL_AREA_STYLE($,(#257));
#259=SURFACE_STYLE_FILL_AREA(#258);
#260=SURFACE_SIDE_STYLE('',(#259));
#261=SURFACE_STYLE_USAGE(.BOTH.,#260);
#262=PRESENTATION_STYLE_ASSIGNMENT((#261));
#263=STYLED_ITEM('',(#262),#255);
#264=ADVANCED_FACE('',(#666),#668,.F.);
#265=COLOUR_RGB('',1.,0.8,0.6);
#266=FILL_AREA_STYLE_COLOUR('',#265);
#267=FILL_AREA_STYLE($,(#266));
#268=SURFACE_STYLE_FILL_AREA(#267);
#269=SURFACE_SIDE_STYLE('',(#268));
#270=SURFACE_STYLE_USAGE(.BOTH.,#269);
#271=PRESENTATION_STYLE_ASSIGNMENT((#270));
#272=STYLED_ITEM('',(#271),#264);
#273=ADVANCED_FACE('',(#673),#675,.F.);
#274=COLOUR_RGB('',1.,0.8,0.6);
#275=FILL_AREA_STYLE_COLOUR('',#274);
#276=FILL_AREA_STYLE($,(#275));
#277=SURFACE_STYLE_FILL_AREA(#276);
#278=SURFACE_SIDE_STYLE('',(#277));
#279=SURFACE_STYLE_USAGE(.BOTH.,#278);
#280=PRESENTATION_STYLE_ASSIGNMENT((#279));
#281=STYLED_ITEM('',(#280),#273);
#282=ADVANCED_FACE('',(#680),#682,.F.);
#283=COLOUR_RGB('',1.,0.8,0.6);
#284=FILL_AREA_STYLE_COLOUR('',#283);
#285=FILL_AREA_STYLE($,(#284));
#286=SURFACE_STYLE_FILL_AREA(#285);
#287=SURFACE_SIDE_STYLE('',(#286));
#288=SURFACE_STYLE_USAGE(.BOTH.,#287);
#289=PRESENTATION_STYLE_ASSIGNMENT((#288));
#290=STYLED_ITEM('',(#289),#282);
#291=ADVANCED_FACE('',(#687),#689,.F.);
#292=COLOUR_RGB('',1.,0.8,0.6);
#293=FILL_AREA_STYLE_COLOUR('',#292);
#294=FILL_AREA_STYLE($,(#293));
#295=SURFACE_STYLE_FILL_AREA(#294);
#296=SURFACE_SIDE_STYLE('',(#295));
#297=SURFACE_STYLE_USAGE(.BOTH.,#296);
#298=PRESENTATION_STYLE_ASSIGNMENT((#297));
#299=STYLED_ITEM('',(#298),#291);
#300=ADVANCED_FACE('',(#694),#696,.F.);
#301=COLOUR_RGB('',1.,0.8,0.6);
#302=FILL_AREA_STYLE_COLOUR('',#301);
#303=FILL_AREA_STYLE($,(#302));
#304=SURFACE_STYLE_FILL_AREA(#303);
#305=SURFACE_SIDE_STYLE('',(#304));
#306=SURFACE_STYLE_USAGE(.BOTH.,#305);
#307=PRESENTATION_STYLE_ASSIGNMENT((#306));
#308=STYLED_ITEM('',(#307),#300);
#309=ADVANCED_FACE('',(#701),#703,.F.);
#310=COLOUR_RGB('',1.,0.8,0.6);
#311=FILL_AREA_STYLE_COLOUR('',#310);
#312=FILL_AREA_STYLE($,(#311));
#313=SURFACE_STYLE_FILL_AREA(#312);
#314=SURFACE_SIDE_STYLE('',(#313));
#315=SURFACE_STYLE_USAGE(.BOTH.,#314);
#316=PRESENTATION_STYLE_ASSIGNMENT((#315));
#317=STYLED_ITEM('',(#316),#309);
#318=ADVANCED_FACE('',(#708),#710,.F.);
#319=COLOUR_RGB('',1.,0.8,0.6);
#320=FILL_AREA_STYLE_COLOUR('',#319);
#321=FILL_AREA_STYLE($,(#320));
#322=SURFACE_STYLE_FILL_AREA(#321);
#323=SURFACE_SIDE_STYLE('',(#322));
#324=SURFACE_STYLE_USAGE(.BOTH.,#323);
#325=PRESENTATION_STYLE_ASSIGNMENT((#324));
#326=STYLED_ITEM('',(#325),#318);
#327=ADVANCED_FACE('',(#715),#717,.T.);
#328=COLOUR_RGB('',1.,0.8,0.6);
#329=FILL_AREA_STYLE_COLOUR('',#328);
#330=FILL_AREA_STYLE($,(#329));
#331=SURFACE_STYLE_FILL_AREA(#330);
#332=SURFACE_SIDE_STYLE('',(#331));
#333=SURFACE_STYLE_USAGE(.BOTH.,#332);
#334=PRESENTATION_STYLE_ASSIGNMENT((#333));
#335=STYLED_ITEM('',(#334),#327);
#336=ADVANCED_FACE('',(#722),#724,.T.);
#337=COLOUR_RGB('',1.,0.8,0.6);
#338=FILL_AREA_STYLE_COLOUR('',#337);
#339=FILL_AREA_STYLE($,(#338));
#340=SURFACE_STYLE_FILL_AREA(#339);
#341=SURFACE_SIDE_STYLE('',(#340));
#342=SURFACE_STYLE_USAGE(.BOTH.,#341);
#343=PRESENTATION_STYLE_ASSIGNMENT((#342));
#344=STYLED_ITEM('',(#343),#336);
#345=ADVANCED_FACE('',(#729),#731,.T.);
#346=COLOUR_RGB('',1.,0.8,0.6);
#347=FILL_AREA_STYLE_COLOUR('',#346);
#348=FILL_AREA_STYLE($,(#347));
#349=SURFACE_STYLE_FILL_AREA(#348);
#350=SURFACE_SIDE_STYLE('',(#349));
#351=SURFACE_STYLE_USAGE(.BOTH.,#350);
#352=PRESENTATION_STYLE_ASSIGNMENT((#351));
#353=STYLED_ITEM('',(#352),#345);
#354=ADVANCED_FACE('',(#736),#738,.T.);
#355=COLOUR_RGB('',1.,0.8,0.6);
#356=FILL_AREA_STYLE_COLOUR('',#355);
#357=FILL_AREA_STYLE($,(#356));
#358=SURFACE_STYLE_FILL_AREA(#357);
#359=SURFACE_SIDE_STYLE('',(#358));
#360=SURFACE_STYLE_USAGE(.BOTH.,#359);
#361=PRESENTATION_STYLE_ASSIGNMENT((#360));
#362=STYLED_ITEM('',(#361),#354);
#363=ADVANCED_FACE('',(#743),#745,.F.);
#364=COLOUR_RGB('',1.,0.8,0.6);
#365=FILL_AREA_STYLE_COLOUR('',#364);
#366=FILL_AREA_STYLE($,(#365));
#367=SURFACE_STYLE_FILL_AREA(#366);
#368=SURFACE_SIDE_STYLE('',(#367));
#369=SURFACE_STYLE_USAGE(.BOTH.,#368);
#370=PRESENTATION_STYLE_ASSIGNMENT((#369));
#371=STYLED_ITEM('',(#370),#363);
#372=ADVANCED_FACE('',(#750),#752,.F.);
#373=COLOUR_RGB('',1.,0.8,0.6);
#374=FILL_AREA_STYLE_COLOUR('',#373);
#375=FILL_AREA_STYLE($,(#374));
#376=SURFACE_STYLE_FILL_AREA(#375);
#377=SURFACE_SIDE_STYLE('',(#376));
#378=SURFACE_STYLE_USAGE(.BOTH.,#377);
#379=PRESENTATION_STYLE_ASSIGNMENT((#378));
#380=STYLED_ITEM('',(#379),#372);
#381=ADVANCED_FACE('',(#757),#759,.F.);
#382=COLOUR_RGB('',1.,0.8,0.6);
#383=FILL_AREA_STYLE_COLOUR('',#382);
#384=FILL_AREA_STYLE($,(#383));
#385=SURFACE_STYLE_FILL_AREA(#384);
#386=SURFACE_SIDE_STYLE('',(#385));
#387=SURFACE_STYLE_USAGE(.BOTH.,#386);
#388=PRESENTATION_STYLE_ASSIGNMENT((#387));
#389=STYLED_ITEM('',(#388),#381);
#390=ADVANCED_FACE('',(#764),#766,.F.);
#391=COLOUR_RGB('',1.,0.8,0.6);
#392=FILL_AREA_STYLE_COLOUR('',#391);
#393=FILL_AREA_STYLE($,(#392));
#394=SURFACE_STYLE_FILL_AREA(#393);
#395=SURFACE_SIDE_STYLE('',(#394));
#396=SURFACE_STYLE_USAGE(.BOTH.,#395);
#397=PRESENTATION_STYLE_ASSIGNMENT((#396));
#398=STYLED_ITEM('',(#397),#390);
#399=ADVANCED_FACE('',(#771),#773,.F.);
#400=COLOUR_RGB('',1.,0.8,0.6);
#401=FILL_AREA_STYLE_COLOUR('',#400);
#402=FILL_AREA_STYLE($,(#401));
#403=SURFACE_STYLE_FILL_AREA(#402);
#404=SURFACE_SIDE_STYLE('',(#403));
#405=SURFACE_STYLE_USAGE(.BOTH.,#404);
#406=PRESENTATION_STYLE_ASSIGNMENT((#405));
#407=STYLED_ITEM('',(#406),#399);
#408=ADVANCED_FACE('',(#778),#780,.F.);
#409=COLOUR_RGB('',1.,0.8,0.6);
#410=FILL_AREA_STYLE_COLOUR('',#409);
#411=FILL_AREA_STYLE($,(#410));
#412=SURFACE_STYLE_FILL_AREA(#411);
#413=SURFACE_SIDE_STYLE('',(#412));
#414=SURFACE_STYLE_USAGE(.BOTH.,#413);
#415=PRESENTATION_STYLE_ASSIGNMENT((#414));
#416=STYLED_ITEM('',(#415),#408);
#417=ADVANCED_FACE('',(#785),#787,.F.);
#418=COLOUR_RGB('',1.,0.8,0.6);
#419=FILL_AREA_STYLE_COLOUR('',#418);
#420=FILL_AREA_STYLE($,(#419));
#421=SURFACE_STYLE_FILL_AREA(#420);
#422=SURFACE_SIDE_STYLE('',(#421));
#423=SURFACE_STYLE_USAGE(.BOTH.,#422);
#424=PRESENTATION_STYLE_ASSIGNMENT((#423));
#425=STYLED_ITEM('',(#424),#417);
#426=ADVANCED_FACE('',(#792),#794,.F.);
#427=COLOUR_RGB('',1.,0.8,0.6);
#428=FILL_AREA_STYLE_COLOUR('',#427);
#429=FILL_AREA_STYLE($,(#428));
#430=SURFACE_STYLE_FILL_AREA(#429);
#431=SURFACE_SIDE_STYLE('',(#430));
#432=SURFACE_STYLE_USAGE(.BOTH.,#431);
#433=PRESENTATION_STYLE_ASSIGNMENT((#432));
#434=STYLED_ITEM('',(#433),#426);
#435=ADVANCED_FACE('',(#799),#801,.F.);
#436=COLOUR_RGB('',1.,0.8,0.6);
#437=FILL_AREA_STYLE_COLOUR('',#436);
#438=FILL_AREA_STYLE($,(#437));
#439=SURFACE_STYLE_FILL_AREA(#438);
#440=SURFACE_SIDE_STYLE('',(#439));
#441=SURFACE_STYLE_USAGE(.BOTH.,#440);
#442=PRESENTATION_STYLE_ASSIGNMENT((#441));
#443=STYLED_ITEM('',(#442),#435);
#444=ADVANCED_FACE('',(#806),#808,.F.);
#445=COLOUR_RGB('',1.,0.8,0.6);
#446=FILL_AREA_STYLE_COLOUR('',#445);
#447=FILL_AREA_STYLE($,(#446));
#448=SURFACE_STYLE_FILL_AREA(#447);
#449=SURFACE_SIDE_STYLE('',(#448));
#450=SURFACE_STYLE_USAGE(.BOTH.,#449);
#451=PRESENTATION_STYLE_ASSIGNMENT((#450));
#452=STYLED_ITEM('',(#451),#444);
#453=ADVANCED_FACE('',(#813),#815,.F.);
#454=COLOUR_RGB('',1.,0.8,0.6);
#455=FILL_AREA_STYLE_COLOUR('',#454);
#456=FILL_AREA_STYLE($,(#455));
#457=SURFACE_STYLE_FILL_AREA(#456);
#458=SURFACE_SIDE_STYLE('',(#457));
#459=SURFACE_STYLE_USAGE(.BOTH.,#458);
#460=PRESENTATION_STYLE_ASSIGNMENT((#459));
#461=STYLED_ITEM('',(#460),#453);
#462=ADVANCED_FACE('',(#820),#822,.F.);
#463=COLOUR_RGB('',1.,0.8,0.6);
#464=FILL_AREA_STYLE_COLOUR('',#463);
#465=FILL_AREA_STYLE($,(#464));
#466=SURFACE_STYLE_FILL_AREA(#465);
#467=SURFACE_SIDE_STYLE('',(#466));
#468=SURFACE_STYLE_USAGE(.BOTH.,#467);
#469=PRESENTATION_STYLE_ASSIGNMENT((#468));
#470=STYLED_ITEM('',(#469),#462);
#471=ADVANCED_FACE('',(#827,#829,#831,#833),#835,.F.);
#472=COLOUR_RGB('',1.,0.8,0.6);
#473=FILL_AREA_STYLE_COLOUR('',#472);
#474=FILL_AREA_STYLE($,(#473));
#475=SURFACE_STYLE_FILL_AREA(#474);
#476=SURFACE_SIDE_STYLE('',(#475));
#477=SURFACE_STYLE_USAGE(.BOTH.,#476);
#478=PRESENTATION_STYLE_ASSIGNMENT((#477));
#479=STYLED_ITEM('',(#478),#471);
#480=FACE_BOUND('',#481,.T.);
#481=EDGE_LOOP('',(#840,#841,#842,#843,#844,#845,#846,#847,#848,#849,#850,#851));
#482=FACE_BOUND('',#483,.T.);
#483=EDGE_LOOP('',(#852));
#484=PLANE('',#485);
#485=AXIS2_PLACEMENT_3D('',#486,#487,#488);
#486=CARTESIAN_POINT('',(0.,0.,3.1));
#487=DIRECTION('',(0.,0.,1.));
#488=DIRECTION('',(-1.,1.22464679914735E-16,0.));
#489=FACE_BOUND('',#490,.T.);
#490=EDGE_LOOP('',(#853,#854,#855,#856,#857,#858,#859,#860,#861,#862,#863,#864));
#491=FACE_BOUND('',#492,.T.);
#492=EDGE_LOOP('',(#865));
#493=PLANE('',#494);
#494=AXIS2_PLACEMENT_3D('',#495,#496,#497);
#495=CARTESIAN_POINT('',(0.,0.,3.1));
#496=DIRECTION('',(0.,0.,1.));
#497=DIRECTION('',(-1.,1.22464679914735E-16,0.));
#498=FACE_BOUND('',#499,.T.);
#499=EDGE_LOOP('',(#866,#867,#868,#869));
#500=FACE_BOUND('',#501,.T.);
#501=EDGE_LOOP('',(#870));
#502=FACE_BOUND('',#503,.T.);
#503=EDGE_LOOP('',(#871));
#504=FACE_BOUND('',#505,.T.);
#505=EDGE_LOOP('',(#872));
#506=PLANE('',#507);
#507=AXIS2_PLACEMENT_3D('',#508,#509,#510);
#508=CARTESIAN_POINT('',(0.,0.,3.5));
#509=DIRECTION('',(0.,0.,1.));
#510=DIRECTION('',(-1.,1.22464679914735E-16,0.));
#511=FACE_BOUND('',#512,.T.);
#512=EDGE_LOOP('',(#873,#874,#875,#876,#877,#878,#879,#880,#881,#882,#883,#884));
#513=FACE_BOUND('',#514,.T.);
#514=EDGE_LOOP('',(#885));
#515=PLANE('',#516);
#516=AXIS2_PLACEMENT_3D('',#517,#518,#519);
#517=CARTESIAN_POINT('',(0.,0.,3.1));
#518=DIRECTION('',(0.,0.,1.));
#519=DIRECTION('',(-1.,1.22464679914735E-16,0.));
#520=FACE_OUTER_BOUND('',#521,.T.);
#521=EDGE_LOOP('',(#886));
#522=FACE_OUTER_BOUND('',#523,.T.);
#523=EDGE_LOOP('',(#887));
#524=CYLINDRICAL_SURFACE('',#525,1.75);
#525=AXIS2_PLACEMENT_3D('',#526,#527,#528);
#526=CARTESIAN_POINT('',(-16.,0.,13.1));
#527=DIRECTION('',(0.,0.,-1.));
#528=DIRECTION('',(-1.,0.,0.));
#529=FACE_OUTER_BOUND('',#530,.T.);
#530=EDGE_LOOP('',(#888));
#531=FACE_OUTER_BOUND('',#532,.T.);
#532=EDGE_LOOP('',(#889));
#533=CYLINDRICAL_SURFACE('',#534,1.75);
#534=AXIS2_PLACEMENT_3D('',#535,#536,#537);
#535=CARTESIAN_POINT('',(-85.8503307340987,6.78095571848836E-6,13.1));
#536=DIRECTION('',(0.,0.,-1.));
#537=DIRECTION('',(-1.,0.,0.));
#538=FACE_OUTER_BOUND('',#539,.T.);
#539=EDGE_LOOP('',(#890));
#540=FACE_OUTER_BOUND('',#541,.T.);
#541=EDGE_LOOP('',(#891));
#542=CYLINDRICAL_SURFACE('',#543,1.75);
#543=AXIS2_PLACEMENT_3D('',#544,#545,#546);
#544=CARTESIAN_POINT('',(54.5710613280489,6.78084686334124E-6,13.1));
#545=DIRECTION('',(0.,0.,-1.));
#546=DIRECTION('',(-1.,0.,0.));
#547=FACE_BOUND('',#548,.T.);
#548=EDGE_LOOP('',(#892,#893,#894,#895));
#549=PLANE('',#550);
#550=AXIS2_PLACEMENT_3D('',#551,#552,#553);
#551=CARTESIAN_POINT('',(-87.4380449336501,-2.90000626152584,0.));
#552=DIRECTION('',(-3.30841423449188E-7,-0.999999999999945,0.));
#553=DIRECTION('',(0.999999999999945,-3.30841423449188E-7,0.));
#554=FACE_BOUND('',#555,.T.);
#555=EDGE_LOOP('',(#896,#897,#898,#899));
#556=CYLINDRICAL_SURFACE('',#557,0.150000007186873);
#557=AXIS2_PLACEMENT_3D('',#558,#559,#560);
#558=CARTESIAN_POINT('',(-87.4380448840239,-2.75000625390351,0.));
#559=DIRECTION('',(0.,0.,1.));
#560=DIRECTION('',(-0.866025569202261,-0.499999713487818,0.));
#561=FACE_BOUND('',#562,.T.);
#562=EDGE_LOOP('',(#900,#901,#902,#903));
#563=PLANE('',#564);
#564=AXIS2_PLACEMENT_3D('',#565,#566,#567);
#565=CARTESIAN_POINT('',(-89.1556610549801,-0.0750056903192129,0.));
#566=DIRECTION('',(-0.866025569202258,-0.499999713487823,0.));
#567=DIRECTION('',(0.499999713487823,-0.866025569202258,0.));
#568=FACE_BOUND('',#569,.T.);
#569=EDGE_LOOP('',(#904,#905,#906,#907));
#570=CYLINDRICAL_SURFACE('',#571,0.150000007258441);
#571=AXIS2_PLACEMENT_3D('',#572,#573,#574);
#572=CARTESIAN_POINT('',(-89.0257572129573,-5.72946102630883E-6,0.));
#573=DIRECTION('',(0.,0.,1.));
#574=DIRECTION('',(-0.86602523836084,0.500000286521968,0.));
#575=FACE_BOUND('',#576,.T.);
#576=EDGE_LOOP('',(#908,#909,#910,#911));
#577=PLANE('',#578);
#578=AXIS2_PLACEMENT_3D('',#579,#580,#581);
#579=CARTESIAN_POINT('',(-87.5679468552842,2.82499379036126,0.));
#580=DIRECTION('',(-0.866025238360837,0.500000286521974,0.));
#581=DIRECTION('',(-0.500000286521974,-0.866025238360837,0.));
#582=FACE_BOUND('',#583,.T.);
#583=EDGE_LOOP('',(#912,#913,#914,#915));
#584=CYLINDRICAL_SURFACE('',#585,0.150000005952082);
#585=AXIS2_PLACEMENT_3D('',#586,#587,#588);
#586=CARTESIAN_POINT('',(-87.4380430643961,2.74999374441884,0.));
#587=DIRECTION('',(0.,0.,1.));
#588=DIRECTION('',(3.3084137974202E-7,0.999999999999945,0.));
#589=FACE_BOUND('',#590,.T.);
#590=EDGE_LOOP('',(#916,#917,#918,#919));
#591=PLANE('',#592);
#592=AXIS2_PLACEMENT_3D('',#593,#594,#595);
#593=CARTESIAN_POINT('',(-84.2626165341701,2.89999269983216,0.));
#594=DIRECTION('',(3.30841418973931E-7,0.999999999999945,0.));
#595=DIRECTION('',(-0.999999999999945,3.30841418973931E-7,0.));
#596=FACE_BOUND('',#597,.T.);
#597=EDGE_LOOP('',(#920,#921,#922,#923));
#598=CYLINDRICAL_SURFACE('',#599,0.150000007186873);
#599=AXIS2_PLACEMENT_3D('',#600,#601,#602);
#600=CARTESIAN_POINT('',(-84.2626165837963,2.74999269220983,0.));
#601=DIRECTION('',(0.,0.,1.));
#602=DIRECTION('',(0.86602556920226,0.49999971348782,0.));
#603=FACE_BOUND('',#604,.T.);
#604=EDGE_LOOP('',(#924,#925,#926,#927));
#605=PLANE('',#606);
#606=AXIS2_PLACEMENT_3D('',#607,#608,#609);
#607=CARTESIAN_POINT('',(-82.5450004128401,0.0749921286255284,0.));
#608=DIRECTION('',(0.866025569202258,0.499999713487823,0.));
#609=DIRECTION('',(-0.499999713487823,0.866025569202258,0.));
#610=FACE_BOUND('',#611,.T.);
#611=EDGE_LOOP('',(#928,#929,#930,#931));
#612=CYLINDRICAL_SURFACE('',#613,0.150000007247044);
#613=AXIS2_PLACEMENT_3D('',#614,#615,#616);
#614=CARTESIAN_POINT('',(-82.6749042548514,-7.83222599590092E-6,0.));
#615=DIRECTION('',(0.,0.,1.));
#616=DIRECTION('',(0.866025238098544,-0.500000286976277,0.));
#617=FACE_BOUND('',#618,.T.);
#618=EDGE_LOOP('',(#932,#933,#934,#935));
#619=PLANE('',#620);
#620=AXIS2_PLACEMENT_3D('',#621,#622,#623);
#621=CARTESIAN_POINT('',(-84.1327146120869,-2.82500735130732,0.));
#622=DIRECTION('',(0.866025238363659,-0.500000286517085,0.));
#623=DIRECTION('',(0.500000286517085,0.866025238363659,0.));
#624=FACE_BOUND('',#625,.T.);
#625=EDGE_LOOP('',(#936,#937,#938,#939));
#626=CYLINDRICAL_SURFACE('',#627,0.150000005962064);
#627=AXIS2_PLACEMENT_3D('',#628,#629,#630);
#628=CARTESIAN_POINT('',(-84.2626184034241,-2.75000730610929,0.));
#629=DIRECTION('',(0.,0.,1.));
#630=DIRECTION('',(-3.30841379734864E-7,-0.999999999999945,0.));
#631=FACE_BOUND('',#632,.T.);
#632=EDGE_LOOP('',(#940,#941,#942,#943));
#633=PLANE('',#634);
#634=AXIS2_PLACEMENT_3D('',#635,#636,#637);
#635=CARTESIAN_POINT('',(52.9833471283088,-2.90000626152587,0.));
#636=DIRECTION('',(-3.30841423309337E-7,-0.999999999999945,0.));
#637=DIRECTION('',(0.999999999999945,-3.30841423309337E-7,0.));
#638=FACE_BOUND('',#639,.T.);
#639=EDGE_LOOP('',(#944,#945,#946,#947));
#640=CYLINDRICAL_SURFACE('',#641,0.150000007186873);
#641=AXIS2_PLACEMENT_3D('',#642,#643,#644);
#642=CARTESIAN_POINT('',(52.9833471779351,-2.75000625390354,0.));
#643=DIRECTION('',(0.,0.,1.));
#644=DIRECTION('',(-0.866025569202261,-0.499999713487818,0.));
#645=FACE_BOUND('',#646,.T.);
#646=EDGE_LOOP('',(#948,#949,#950,#951));
#647=PLANE('',#648);
#648=AXIS2_PLACEMENT_3D('',#649,#650,#651);
#649=CARTESIAN_POINT('',(51.2657310069789,-0.0750056903192408,0.));
#650=DIRECTION('',(-0.866025569202259,-0.499999713487822,0.));
#651=DIRECTION('',(0.499999713487822,-0.866025569202259,0.));
#652=FACE_BOUND('',#653,.T.);
#653=EDGE_LOOP('',(#952,#953,#954,#955));
#654=CYLINDRICAL_SURFACE('',#655,0.150000007258441);
#655=AXIS2_PLACEMENT_3D('',#656,#657,#658);
#656=CARTESIAN_POINT('',(51.3956348490017,-5.72946105416363E-6,0.));
#657=DIRECTION('',(0.,0.,1.));
#658=DIRECTION('',(-0.86602523836084,0.500000286521968,0.));
#659=FACE_BOUND('',#660,.T.);
#660=EDGE_LOOP('',(#956,#957,#958,#959));
#661=PLANE('',#662);
#662=AXIS2_PLACEMENT_3D('',#663,#664,#665);
#663=CARTESIAN_POINT('',(52.8534452066747,2.82499379036123,0.));
#664=DIRECTION('',(-0.866025238360838,0.500000286521973,0.));
#665=DIRECTION('',(-0.500000286521973,-0.866025238360838,0.));
#666=FACE_BOUND('',#667,.T.);
#667=EDGE_LOOP('',(#960,#961,#962,#963));
#668=CYLINDRICAL_SURFACE('',#669,0.150000005952082);
#669=AXIS2_PLACEMENT_3D('',#670,#671,#672);
#670=CARTESIAN_POINT('',(52.9833489975629,2.74999374441881,0.));
#671=DIRECTION('',(0.,0.,1.));
#672=DIRECTION('',(3.30841427111534E-7,0.999999999999945,0.));
#673=FACE_BOUND('',#674,.T.);
#674=EDGE_LOOP('',(#964,#965,#966,#967));
#675=PLANE('',#676);
#676=AXIS2_PLACEMENT_3D('',#677,#678,#679);
#677=CARTESIAN_POINT('',(56.1587755277889,2.89999269983213,0.));
#678=DIRECTION('',(3.30841418834079E-7,0.999999999999945,0.));
#679=DIRECTION('',(-0.999999999999945,3.30841418834079E-7,0.));
#680=FACE_BOUND('',#681,.T.);
#681=EDGE_LOOP('',(#968,#969,#970,#971));
#682=CYLINDRICAL_SURFACE('',#683,0.150000007186873);
#683=AXIS2_PLACEMENT_3D('',#684,#685,#686);
#684=CARTESIAN_POINT('',(56.1587754781627,2.7499926922098,0.));
#685=DIRECTION('',(0.,0.,1.));
#686=DIRECTION('',(0.86602556920226,0.49999971348782,0.));
#687=FACE_BOUND('',#688,.T.);
#688=EDGE_LOOP('',(#972,#973,#974,#975));
#689=PLANE('',#690);
#690=AXIS2_PLACEMENT_3D('',#691,#692,#693);
#691=CARTESIAN_POINT('',(57.8763916491189,0.0749921286255006,0.));
#692=DIRECTION('',(0.866025569202258,0.499999713487823,0.));
#693=DIRECTION('',(-0.499999713487823,0.866025569202258,0.));
#694=FACE_BOUND('',#695,.T.);
#695=EDGE_LOOP('',(#976,#977,#978,#979));
#696=CYLINDRICAL_SURFACE('',#697,0.150000007247044);
#697=AXIS2_PLACEMENT_3D('',#698,#699,#700);
#698=CARTESIAN_POINT('',(57.7464878071076,-7.83222602375572E-6,0.));
#699=DIRECTION('',(0.,0.,1.));
#700=DIRECTION('',(0.866025238098556,-0.500000286976257,0.));
#701=FACE_BOUND('',#702,.T.);
#702=EDGE_LOOP('',(#980,#981,#982,#983));
#703=PLANE('',#704);
#704=AXIS2_PLACEMENT_3D('',#705,#706,#707);
#705=CARTESIAN_POINT('',(56.2886774498721,-2.82500735130735,0.));
#706=DIRECTION('',(0.866025238363658,-0.500000286517087,0.));
#707=DIRECTION('',(0.500000286517087,0.866025238363658,0.));
#708=FACE_BOUND('',#709,.T.);
#709=EDGE_LOOP('',(#984,#985,#986,#987));
#710=CYLINDRICAL_SURFACE('',#711,0.150000005962064);
#711=AXIS2_PLACEMENT_3D('',#712,#713,#714);
#712=CARTESIAN_POINT('',(56.1587736585349,-2.75000730610932,0.));
#713=DIRECTION('',(0.,0.,1.));
#714=DIRECTION('',(-3.30841427104378E-7,-0.999999999999945,0.));
#715=FACE_BOUND('',#716,.T.);
#716=EDGE_LOOP('',(#988,#989,#990,#991));
#717=PLANE('',#718);
#718=AXIS2_PLACEMENT_3D('',#719,#720,#721);
#719=CARTESIAN_POINT('',(-91.8503255864287,-6.,0.));
#720=DIRECTION('',(-1.22369613355327E-16,-1.,0.));
#721=DIRECTION('',(1.,-1.22369613355327E-16,0.));
#722=FACE_BOUND('',#723,.T.);
#723=EDGE_LOOP('',(#992,#993,#994,#995));
#724=PLANE('',#725);
#725=AXIS2_PLACEMENT_3D('',#726,#727,#728);
#726=CARTESIAN_POINT('',(60.5710664755303,-6.00000000000002,0.));
#727=DIRECTION('',(1.,0.,0.));
#728=DIRECTION('',(0.,1.,0.));
#729=FACE_BOUND('',#730,.T.);
#730=EDGE_LOOP('',(#996,#997,#998,#999));
#731=PLANE('',#732);
#732=AXIS2_PLACEMENT_3D('',#733,#734,#735);
#733=CARTESIAN_POINT('',(60.5710664755303,5.99999999999998,0.));
#734=DIRECTION('',(1.22369613355327E-16,1.,0.));
#735=DIRECTION('',(-1.,1.22369613355327E-16,0.));
#736=FACE_BOUND('',#737,.T.);
#737=EDGE_LOOP('',(#1000,#1001,#1002,#1003));
#738=PLANE('',#739);
#739=AXIS2_PLACEMENT_3D('',#740,#741,#742);
#740=CARTESIAN_POINT('',(-91.8503255864287,6.,0.));
#741=DIRECTION('',(-1.,0.,0.));
#742=DIRECTION('',(0.,-1.,0.));
#743=FACE_BOUND('',#744,.T.);
#744=EDGE_LOOP('',(#1004,#1005,#1006,#1007));
#745=PLANE('',#746);
#746=AXIS2_PLACEMENT_3D('',#747,#748,#749);
#747=CARTESIAN_POINT('',(-17.7176212688556,2.82499379036125,0.));
#748=DIRECTION('',(-0.866025238360838,0.500000286521973,0.));
#749=DIRECTION('',(-0.500000286521973,-0.866025238360838,0.));
#750=FACE_BOUND('',#751,.T.);
#751=EDGE_LOOP('',(#1008,#1009,#1010,#1011));
#752=CYLINDRICAL_SURFACE('',#753,0.150000005952082);
#753=AXIS2_PLACEMENT_3D('',#754,#755,#756);
#754=CARTESIAN_POINT('',(-17.5877174779674,2.74999374441883,0.));
#755=DIRECTION('',(0.,0.,1.));
#756=DIRECTION('',(3.30841427111534E-7,0.999999999999945,0.));
#757=FACE_BOUND('',#758,.T.);
#758=EDGE_LOOP('',(#1012,#1013,#1014,#1015));
#759=PLANE('',#760);
#760=AXIS2_PLACEMENT_3D('',#761,#762,#763);
#761=CARTESIAN_POINT('',(-14.4122909477414,2.89999269983215,0.));
#762=DIRECTION('',(3.30841418973931E-7,0.999999999999945,0.));
#763=DIRECTION('',(-0.999999999999945,3.30841418973931E-7,0.));
#764=FACE_BOUND('',#765,.T.);
#765=EDGE_LOOP('',(#1016,#1017,#1018,#1019));
#766=CYLINDRICAL_SURFACE('',#767,0.150000007186873);
#767=AXIS2_PLACEMENT_3D('',#768,#769,#770);
#768=CARTESIAN_POINT('',(-14.4122909973676,2.74999269220982,0.));
#769=DIRECTION('',(0.,0.,1.));
#770=DIRECTION('',(0.866025569202257,0.499999713487825,0.));
#771=FACE_BOUND('',#772,.T.);
#772=EDGE_LOOP('',(#1020,#1021,#1022,#1023));
#773=PLANE('',#774);
#774=AXIS2_PLACEMENT_3D('',#775,#776,#777);
#775=CARTESIAN_POINT('',(-12.6946748264114,0.0749921286255199,0.));
#776=DIRECTION('',(0.866025569202258,0.499999713487823,0.));
#777=DIRECTION('',(-0.499999713487823,0.866025569202258,0.));
#778=FACE_BOUND('',#779,.T.);
#779=EDGE_LOOP('',(#1024,#1025,#1026,#1027));
#780=CYLINDRICAL_SURFACE('',#781,0.150000007247044);
#781=AXIS2_PLACEMENT_3D('',#782,#783,#784);
#782=CARTESIAN_POINT('',(-12.8245786684227,-7.83222600445512E-6,0.));
#783=DIRECTION('',(0.,0.,1.));
#784=DIRECTION('',(0.866025238098553,-0.500000286976262,0.));
#785=FACE_BOUND('',#786,.T.);
#786=EDGE_LOOP('',(#1028,#1029,#1030,#1031));
#787=PLANE('',#788);
#788=AXIS2_PLACEMENT_3D('',#789,#790,#791);
#789=CARTESIAN_POINT('',(-14.2823890256582,-2.82500735130733,0.));
#790=DIRECTION('',(0.866025238363658,-0.500000286517088,0.));
#791=DIRECTION('',(0.500000286517088,0.866025238363658,0.));
#792=FACE_BOUND('',#793,.T.);
#793=EDGE_LOOP('',(#1032,#1033,#1034,#1035));
#794=CYLINDRICAL_SURFACE('',#795,0.150000005962064);
#795=AXIS2_PLACEMENT_3D('',#796,#797,#798);
#796=CARTESIAN_POINT('',(-14.4122928169954,-2.7500073061093,0.));
#797=DIRECTION('',(0.,0.,1.));
#798=DIRECTION('',(-3.30841427104378E-7,-0.999999999999945,0.));
#799=FACE_BOUND('',#800,.T.);
#800=EDGE_LOOP('',(#1036,#1037,#1038,#1039));
#801=PLANE('',#802);
#802=AXIS2_PLACEMENT_3D('',#803,#804,#805);
#803=CARTESIAN_POINT('',(-17.5877193472215,-2.90000626152585,0.));
#804=DIRECTION('',(-3.30841423449188E-7,-0.999999999999945,0.));
#805=DIRECTION('',(0.999999999999945,-3.30841423449188E-7,0.));
#806=FACE_BOUND('',#807,.T.);
#807=EDGE_LOOP('',(#1040,#1041,#1042,#1043));
#808=CYLINDRICAL_SURFACE('',#809,0.150000007186873);
#809=AXIS2_PLACEMENT_3D('',#810,#811,#812);
#810=CARTESIAN_POINT('',(-17.5877192975952,-2.75000625390352,0.));
#811=DIRECTION('',(0.,0.,1.));
#812=DIRECTION('',(-0.866025569202261,-0.499999713487818,0.));
#813=FACE_BOUND('',#814,.T.);
#814=EDGE_LOOP('',(#1044,#1045,#1046,#1047));
#815=PLANE('',#816);
#816=AXIS2_PLACEMENT_3D('',#817,#818,#819);
#817=CARTESIAN_POINT('',(-19.3053354685514,-0.0750056903192215,0.));
#818=DIRECTION('',(-0.866025569202259,-0.499999713487822,0.));
#819=DIRECTION('',(0.499999713487822,-0.866025569202259,0.));
#820=FACE_BOUND('',#821,.T.);
#821=EDGE_LOOP('',(#1048,#1049,#1050,#1051));
#822=CYLINDRICAL_SURFACE('',#823,0.150000007258441);
#823=AXIS2_PLACEMENT_3D('',#824,#825,#826);
#824=CARTESIAN_POINT('',(-19.1754316265286,-5.72946103486302E-6,0.));
#825=DIRECTION('',(0.,0.,1.));
#826=DIRECTION('',(-0.86602523836084,0.500000286521968,0.));
#827=FACE_BOUND('',#828,.T.);
#828=EDGE_LOOP('',(#1052,#1053,#1054,#1055));
#829=FACE_BOUND('',#830,.T.);
#830=EDGE_LOOP('',(#1056,#1057,#1058,#1059,#1060,#1061,#1062,#1063,#1064,#1065,#1066,
#1067));
#831=FACE_BOUND('',#832,.T.);
#832=EDGE_LOOP('',(#1068,#1069,#1070,#1071,#1072,#1073,#1074,#1075,#1076,#1077,#1078,
#1079));
#833=FACE_BOUND('',#834,.T.);
#834=EDGE_LOOP('',(#1080,#1081,#1082,#1083,#1084,#1085,#1086,#1087,#1088,#1089,#1090,
#1091));
#835=PLANE('',#836);
#836=AXIS2_PLACEMENT_3D('',#837,#838,#839);
#837=CARTESIAN_POINT('',(0.,0.,0.));
#838=DIRECTION('',(0.,0.,1.));
#839=DIRECTION('',(-1.,1.22464679914735E-16,0.));
#840=ORIENTED_EDGE('',*,*,#1092,.T.);
#841=ORIENTED_EDGE('',*,*,#1093,.T.);
#842=ORIENTED_EDGE('',*,*,#1094,.T.);
#843=ORIENTED_EDGE('',*,*,#1095,.T.);
#844=ORIENTED_EDGE('',*,*,#1096,.T.);
#845=ORIENTED_EDGE('',*,*,#1097,.T.);
#846=ORIENTED_EDGE('',*,*,#1098,.T.);
#847=ORIENTED_EDGE('',*,*,#1099,.T.);
#848=ORIENTED_EDGE('',*,*,#1100,.T.);
#849=ORIENTED_EDGE('',*,*,#1101,.T.);
#850=ORIENTED_EDGE('',*,*,#1102,.T.);
#851=ORIENTED_EDGE('',*,*,#1103,.T.);
#852=ORIENTED_EDGE('',*,*,#1104,.T.);
#853=ORIENTED_EDGE('',*,*,#1105,.T.);
#854=ORIENTED_EDGE('',*,*,#1106,.T.);
#855=ORIENTED_EDGE('',*,*,#1107,.T.);
#856=ORIENTED_EDGE('',*,*,#1108,.T.);
#857=ORIENTED_EDGE('',*,*,#1109,.T.);
#858=ORIENTED_EDGE('',*,*,#1110,.T.);
#859=ORIENTED_EDGE('',*,*,#1111,.T.);
#860=ORIENTED_EDGE('',*,*,#1112,.T.);
#861=ORIENTED_EDGE('',*,*,#1113,.T.);
#862=ORIENTED_EDGE('',*,*,#1114,.T.);
#863=ORIENTED_EDGE('',*,*,#1115,.T.);
#864=ORIENTED_EDGE('',*,*,#1116,.T.);
#865=ORIENTED_EDGE('',*,*,#1117,.T.);
#866=ORIENTED_EDGE('',*,*,#1118,.T.);
#867=ORIENTED_EDGE('',*,*,#1119,.T.);
#868=ORIENTED_EDGE('',*,*,#1120,.T.);
#869=ORIENTED_EDGE('',*,*,#1121,.T.);
#870=ORIENTED_EDGE('',*,*,#1122,.T.);
#871=ORIENTED_EDGE('',*,*,#1123,.T.);
#872=ORIENTED_EDGE('',*,*,#1124,.T.);
#873=ORIENTED_EDGE('',*,*,#1125,.T.);
#874=ORIENTED_EDGE('',*,*,#1126,.T.);
#875=ORIENTED_EDGE('',*,*,#1127,.T.);
#876=ORIENTED_EDGE('',*,*,#1128,.T.);
#877=ORIENTED_EDGE('',*,*,#1129,.T.);
#878=ORIENTED_EDGE('',*,*,#1130,.T.);
#879=ORIENTED_EDGE('',*,*,#1131,.T.);
#880=ORIENTED_EDGE('',*,*,#1132,.T.);
#881=ORIENTED_EDGE('',*,*,#1133,.T.);
#882=ORIENTED_EDGE('',*,*,#1134,.T.);
#883=ORIENTED_EDGE('',*,*,#1135,.T.);
#884=ORIENTED_EDGE('',*,*,#1136,.T.);
#885=ORIENTED_EDGE('',*,*,#1137,.T.);
#886=ORIENTED_EDGE('',*,*,#1124,.F.);
#887=ORIENTED_EDGE('',*,*,#1137,.F.);
#888=ORIENTED_EDGE('',*,*,#1123,.F.);
#889=ORIENTED_EDGE('',*,*,#1104,.F.);
#890=ORIENTED_EDGE('',*,*,#1122,.F.);
#891=ORIENTED_EDGE('',*,*,#1117,.F.);
#892=ORIENTED_EDGE('',*,*,#1092,.F.);
#893=ORIENTED_EDGE('',*,*,#1138,.F.);
#894=ORIENTED_EDGE('',*,*,#1139,.F.);
#895=ORIENTED_EDGE('',*,*,#1140,.T.);
#896=ORIENTED_EDGE('',*,*,#1093,.F.);
#897=ORIENTED_EDGE('',*,*,#1140,.F.);
#898=ORIENTED_EDGE('',*,*,#1141,.F.);
#899=ORIENTED_EDGE('',*,*,#1142,.T.);
#900=ORIENTED_EDGE('',*,*,#1094,.F.);
#901=ORIENTED_EDGE('',*,*,#1142,.F.);
#902=ORIENTED_EDGE('',*,*,#1143,.F.);
#903=ORIENTED_EDGE('',*,*,#1144,.T.);
#904=ORIENTED_EDGE('',*,*,#1095,.F.);
#905=ORIENTED_EDGE('',*,*,#1144,.F.);
#906=ORIENTED_EDGE('',*,*,#1145,.F.);
#907=ORIENTED_EDGE('',*,*,#1146,.T.);
#908=ORIENTED_EDGE('',*,*,#1096,.F.);
#909=ORIENTED_EDGE('',*,*,#1146,.F.);
#910=ORIENTED_EDGE('',*,*,#1147,.F.);
#911=ORIENTED_EDGE('',*,*,#1148,.T.);
#912=ORIENTED_EDGE('',*,*,#1097,.F.);
#913=ORIENTED_EDGE('',*,*,#1148,.F.);
#914=ORIENTED_EDGE('',*,*,#1149,.F.);
#915=ORIENTED_EDGE('',*,*,#1150,.T.);
#916=ORIENTED_EDGE('',*,*,#1098,.F.);
#917=ORIENTED_EDGE('',*,*,#1150,.F.);
#918=ORIENTED_EDGE('',*,*,#1151,.F.);
#919=ORIENTED_EDGE('',*,*,#1152,.T.);
#920=ORIENTED_EDGE('',*,*,#1099,.F.);
#921=ORIENTED_EDGE('',*,*,#1152,.F.);
#922=ORIENTED_EDGE('',*,*,#1153,.F.);
#923=ORIENTED_EDGE('',*,*,#1154,.T.);
#924=ORIENTED_EDGE('',*,*,#1100,.F.);
#925=ORIENTED_EDGE('',*,*,#1154,.F.);
#926=ORIENTED_EDGE('',*,*,#1155,.F.);
#927=ORIENTED_EDGE('',*,*,#1156,.T.);
#928=ORIENTED_EDGE('',*,*,#1101,.F.);
#929=ORIENTED_EDGE('',*,*,#1156,.F.);
#930=ORIENTED_EDGE('',*,*,#1157,.F.);
#931=ORIENTED_EDGE('',*,*,#1158,.T.);
#932=ORIENTED_EDGE('',*,*,#1102,.F.);
#933=ORIENTED_EDGE('',*,*,#1158,.F.);
#934=ORIENTED_EDGE('',*,*,#1159,.F.);
#935=ORIENTED_EDGE('',*,*,#1160,.T.);
#936=ORIENTED_EDGE('',*,*,#1103,.F.);
#937=ORIENTED_EDGE('',*,*,#1160,.F.);
#938=ORIENTED_EDGE('',*,*,#1161,.F.);
#939=ORIENTED_EDGE('',*,*,#1138,.T.);
#940=ORIENTED_EDGE('',*,*,#1105,.F.);
#941=ORIENTED_EDGE('',*,*,#1162,.F.);
#942=ORIENTED_EDGE('',*,*,#1163,.F.);
#943=ORIENTED_EDGE('',*,*,#1164,.T.);
#944=ORIENTED_EDGE('',*,*,#1106,.F.);
#945=ORIENTED_EDGE('',*,*,#1164,.F.);
#946=ORIENTED_EDGE('',*,*,#1165,.F.);
#947=ORIENTED_EDGE('',*,*,#1166,.T.);
#948=ORIENTED_EDGE('',*,*,#1107,.F.);
#949=ORIENTED_EDGE('',*,*,#1166,.F.);
#950=ORIENTED_EDGE('',*,*,#1167,.F.);
#951=ORIENTED_EDGE('',*,*,#1168,.T.);
#952=ORIENTED_EDGE('',*,*,#1108,.F.);
#953=ORIENTED_EDGE('',*,*,#1168,.F.);
#954=ORIENTED_EDGE('',*,*,#1169,.F.);
#955=ORIENTED_EDGE('',*,*,#1170,.T.);
#956=ORIENTED_EDGE('',*,*,#1109,.F.);
#957=ORIENTED_EDGE('',*,*,#1170,.F.);
#958=ORIENTED_EDGE('',*,*,#1171,.F.);
#959=ORIENTED_EDGE('',*,*,#1172,.T.);
#960=ORIENTED_EDGE('',*,*,#1110,.F.);
#961=ORIENTED_EDGE('',*,*,#1172,.F.);
#962=ORIENTED_EDGE('',*,*,#1173,.F.);
#963=ORIENTED_EDGE('',*,*,#1174,.T.);
#964=ORIENTED_EDGE('',*,*,#1111,.F.);
#965=ORIENTED_EDGE('',*,*,#1174,.F.);
#966=ORIENTED_EDGE('',*,*,#1175,.F.);
#967=ORIENTED_EDGE('',*,*,#1176,.T.);
#968=ORIENTED_EDGE('',*,*,#1112,.F.);
#969=ORIENTED_EDGE('',*,*,#1176,.F.);
#970=ORIENTED_EDGE('',*,*,#1177,.F.);
#971=ORIENTED_EDGE('',*,*,#1178,.T.);
#972=ORIENTED_EDGE('',*,*,#1113,.F.);
#973=ORIENTED_EDGE('',*,*,#1178,.F.);
#974=ORIENTED_EDGE('',*,*,#1179,.F.);
#975=ORIENTED_EDGE('',*,*,#1180,.T.);
#976=ORIENTED_EDGE('',*,*,#1114,.F.);
#977=ORIENTED_EDGE('',*,*,#1180,.F.);
#978=ORIENTED_EDGE('',*,*,#1181,.F.);
#979=ORIENTED_EDGE('',*,*,#1182,.T.);
#980=ORIENTED_EDGE('',*,*,#1115,.F.);
#981=ORIENTED_EDGE('',*,*,#1182,.F.);
#982=ORIENTED_EDGE('',*,*,#1183,.F.);
#983=ORIENTED_EDGE('',*,*,#1184,.T.);
#984=ORIENTED_EDGE('',*,*,#1116,.F.);
#985=ORIENTED_EDGE('',*,*,#1184,.F.);
#986=ORIENTED_EDGE('',*,*,#1185,.F.);
#987=ORIENTED_EDGE('',*,*,#1162,.T.);
#988=ORIENTED_EDGE('',*,*,#1186,.T.);
#989=ORIENTED_EDGE('',*,*,#1187,.T.);
#990=ORIENTED_EDGE('',*,*,#1118,.F.);
#991=ORIENTED_EDGE('',*,*,#1188,.F.);
#992=ORIENTED_EDGE('',*,*,#1189,.T.);
#993=ORIENTED_EDGE('',*,*,#1190,.T.);
#994=ORIENTED_EDGE('',*,*,#1119,.F.);
#995=ORIENTED_EDGE('',*,*,#1187,.F.);
#996=ORIENTED_EDGE('',*,*,#1191,.T.);
#997=ORIENTED_EDGE('',*,*,#1192,.T.);
#998=ORIENTED_EDGE('',*,*,#1120,.F.);
#999=ORIENTED_EDGE('',*,*,#1190,.F.);
#1000=ORIENTED_EDGE('',*,*,#1193,.T.);
#1001=ORIENTED_EDGE('',*,*,#1188,.T.);
#1002=ORIENTED_EDGE('',*,*,#1121,.F.);
#1003=ORIENTED_EDGE('',*,*,#1192,.F.);
#1004=ORIENTED_EDGE('',*,*,#1125,.F.);
#1005=ORIENTED_EDGE('',*,*,#1194,.F.);
#1006=ORIENTED_EDGE('',*,*,#1195,.F.);
#1007=ORIENTED_EDGE('',*,*,#1196,.T.);
#1008=ORIENTED_EDGE('',*,*,#1126,.F.);
#1009=ORIENTED_EDGE('',*,*,#1196,.F.);
#1010=ORIENTED_EDGE('',*,*,#1197,.F.);
#1011=ORIENTED_EDGE('',*,*,#1198,.T.);
#1012=ORIENTED_EDGE('',*,*,#1127,.F.);
#1013=ORIENTED_EDGE('',*,*,#1198,.F.);
#1014=ORIENTED_EDGE('',*,*,#1199,.F.);
#1015=ORIENTED_EDGE('',*,*,#1200,.T.);
#1016=ORIENTED_EDGE('',*,*,#1128,.F.);
#1017=ORIENTED_EDGE('',*,*,#1200,.F.);
#1018=ORIENTED_EDGE('',*,*,#1201,.F.);
#1019=ORIENTED_EDGE('',*,*,#1202,.T.);
#1020=ORIENTED_EDGE('',*,*,#1129,.F.);
#1021=ORIENTED_EDGE('',*,*,#1202,.F.);
#1022=ORIENTED_EDGE('',*,*,#1203,.F.);
#1023=ORIENTED_EDGE('',*,*,#1204,.T.);
#1024=ORIENTED_EDGE('',*,*,#1130,.F.);
#1025=ORIENTED_EDGE('',*,*,#1204,.F.);
#1026=ORIENTED_EDGE('',*,*,#1205,.F.);
#1027=ORIENTED_EDGE('',*,*,#1206,.T.);
#1028=ORIENTED_EDGE('',*,*,#1131,.F.);
#1029=ORIENTED_EDGE('',*,*,#1206,.F.);
#1030=ORIENTED_EDGE('',*,*,#1207,.F.);
#1031=ORIENTED_EDGE('',*,*,#1208,.T.);
#1032=ORIENTED_EDGE('',*,*,#1132,.F.);
#1033=ORIENTED_EDGE('',*,*,#1208,.F.);
#1034=ORIENTED_EDGE('',*,*,#1209,.F.);
#1035=ORIENTED_EDGE('',*,*,#1210,.T.);
#1036=ORIENTED_EDGE('',*,*,#1133,.F.);
#1037=ORIENTED_EDGE('',*,*,#1210,.F.);
#1038=ORIENTED_EDGE('',*,*,#1211,.F.);
#1039=ORIENTED_EDGE('',*,*,#1212,.T.);
#1040=ORIENTED_EDGE('',*,*,#1134,.F.);
#1041=ORIENTED_EDGE('',*,*,#1212,.F.);
#1042=ORIENTED_EDGE('',*,*,#1213,.F.);
#1043=ORIENTED_EDGE('',*,*,#1214,.T.);
#1044=ORIENTED_EDGE('',*,*,#1135,.F.);
#1045=ORIENTED_EDGE('',*,*,#1214,.F.);
#1046=ORIENTED_EDGE('',*,*,#1215,.F.);
#1047=ORIENTED_EDGE('',*,*,#1216,.T.);
#1048=ORIENTED_EDGE('',*,*,#1136,.F.);
#1049=ORIENTED_EDGE('',*,*,#1216,.F.);
#1050=ORIENTED_EDGE('',*,*,#1217,.F.);
#1051=ORIENTED_EDGE('',*,*,#1194,.T.);
#1052=ORIENTED_EDGE('',*,*,#1193,.F.);
#1053=ORIENTED_EDGE('',*,*,#1191,.F.);
#1054=ORIENTED_EDGE('',*,*,#1189,.F.);
#1055=ORIENTED_EDGE('',*,*,#1186,.F.);
#1056=ORIENTED_EDGE('',*,*,#1185,.T.);
#1057=ORIENTED_EDGE('',*,*,#1183,.T.);
#1058=ORIENTED_EDGE('',*,*,#1181,.T.);
#1059=ORIENTED_EDGE('',*,*,#1179,.T.);
#1060=ORIENTED_EDGE('',*,*,#1177,.T.);
#1061=ORIENTED_EDGE('',*,*,#1175,.T.);
#1062=ORIENTED_EDGE('',*,*,#1173,.T.);
#1063=ORIENTED_EDGE('',*,*,#1171,.T.);
#1064=ORIENTED_EDGE('',*,*,#1169,.T.);
#1065=ORIENTED_EDGE('',*,*,#1167,.T.);
#1066=ORIENTED_EDGE('',*,*,#1165,.T.);
#1067=ORIENTED_EDGE('',*,*,#1163,.T.);
#1068=ORIENTED_EDGE('',*,*,#1161,.T.);
#1069=ORIENTED_EDGE('',*,*,#1159,.T.);
#1070=ORIENTED_EDGE('',*,*,#1157,.T.);
#1071=ORIENTED_EDGE('',*,*,#1155,.T.);
#1072=ORIENTED_EDGE('',*,*,#1153,.T.);
#1073=ORIENTED_EDGE('',*,*,#1151,.T.);
#1074=ORIENTED_EDGE('',*,*,#1149,.T.);
#1075=ORIENTED_EDGE('',*,*,#1147,.T.);
#1076=ORIENTED_EDGE('',*,*,#1145,.T.);
#1077=ORIENTED_EDGE('',*,*,#1143,.T.);
#1078=ORIENTED_EDGE('',*,*,#1141,.T.);
#1079=ORIENTED_EDGE('',*,*,#1139,.T.);
#1080=ORIENTED_EDGE('',*,*,#1217,.T.);
#1081=ORIENTED_EDGE('',*,*,#1215,.T.);
#1082=ORIENTED_EDGE('',*,*,#1213,.T.);
#1083=ORIENTED_EDGE('',*,*,#1211,.T.);
#1084=ORIENTED_EDGE('',*,*,#1209,.T.);
#1085=ORIENTED_EDGE('',*,*,#1207,.T.);
#1086=ORIENTED_EDGE('',*,*,#1205,.T.);
#1087=ORIENTED_EDGE('',*,*,#1203,.T.);
#1088=ORIENTED_EDGE('',*,*,#1201,.T.);
#1089=ORIENTED_EDGE('',*,*,#1199,.T.);
#1090=ORIENTED_EDGE('',*,*,#1197,.T.);
#1091=ORIENTED_EDGE('',*,*,#1195,.T.);
#1092=EDGE_CURVE('',#1218,#1219,#1220,.T.);
#1093=EDGE_CURVE('',#1219,#1221,#1222,.F.);
#1094=EDGE_CURVE('',#1221,#1223,#1224,.T.);
#1095=EDGE_CURVE('',#1223,#1225,#1226,.F.);
#1096=EDGE_CURVE('',#1225,#1227,#1228,.T.);
#1097=EDGE_CURVE('',#1227,#1229,#1230,.F.);
#1098=EDGE_CURVE('',#1229,#1231,#1232,.T.);
#1099=EDGE_CURVE('',#1231,#1233,#1234,.F.);
#1100=EDGE_CURVE('',#1233,#1235,#1236,.T.);
#1101=EDGE_CURVE('',#1235,#1237,#1238,.F.);
#1102=EDGE_CURVE('',#1237,#1239,#1240,.T.);
#1103=EDGE_CURVE('',#1239,#1218,#1241,.F.);
#1104=EDGE_CURVE('',#1242,#1242,#1243,.F.);
#1105=EDGE_CURVE('',#1244,#1245,#1246,.T.);
#1106=EDGE_CURVE('',#1245,#1247,#1248,.F.);
#1107=EDGE_CURVE('',#1247,#1249,#1250,.T.);
#1108=EDGE_CURVE('',#1249,#1251,#1252,.F.);
#1109=EDGE_CURVE('',#1251,#1253,#1254,.T.);
#1110=EDGE_CURVE('',#1253,#1255,#1256,.F.);
#1111=EDGE_CURVE('',#1255,#1257,#1258,.T.);
#1112=EDGE_CURVE('',#1257,#1259,#1260,.F.);
#1113=EDGE_CURVE('',#1259,#1261,#1262,.T.);
#1114=EDGE_CURVE('',#1261,#1263,#1264,.F.);
#1115=EDGE_CURVE('',#1263,#1265,#1266,.T.);
#1116=EDGE_CURVE('',#1265,#1244,#1267,.F.);
#1117=EDGE_CURVE('',#1268,#1268,#1269,.F.);
#1118=EDGE_CURVE('',#1270,#1271,#1272,.T.);
#1119=EDGE_CURVE('',#1271,#1273,#1274,.T.);
#1120=EDGE_CURVE('',#1273,#1275,#1276,.T.);
#1121=EDGE_CURVE('',#1275,#1270,#1277,.T.);
#1122=EDGE_CURVE('',#1278,#1278,#1279,.T.);
#1123=EDGE_CURVE('',#1280,#1280,#1281,.T.);
#1124=EDGE_CURVE('',#1282,#1282,#1283,.T.);
#1125=EDGE_CURVE('',#1284,#1285,#1286,.T.);
#1126=EDGE_CURVE('',#1285,#1287,#1288,.F.);
#1127=EDGE_CURVE('',#1287,#1289,#1290,.T.);
#1128=EDGE_CURVE('',#1289,#1291,#1292,.F.);
#1129=EDGE_CURVE('',#1291,#1293,#1294,.T.);
#1130=EDGE_CURVE('',#1293,#1295,#1296,.F.);
#1131=EDGE_CURVE('',#1295,#1297,#1298,.T.);
#1132=EDGE_CURVE('',#1297,#1299,#1300,.F.);
#1133=EDGE_CURVE('',#1299,#1301,#1302,.T.);
#1134=EDGE_CURVE('',#1301,#1303,#1304,.F.);
#1135=EDGE_CURVE('',#1303,#1305,#1306,.T.);
#1136=EDGE_CURVE('',#1305,#1284,#1307,.F.);
#1137=EDGE_CURVE('',#1308,#1308,#1309,.F.);
#1138=EDGE_CURVE('',#1310,#1218,#1311,.T.);
#1139=EDGE_CURVE('',#1312,#1310,#1313,.T.);
#1140=EDGE_CURVE('',#1312,#1219,#1314,.T.);
#1141=EDGE_CURVE('',#1315,#1312,#1316,.T.);
#1142=EDGE_CURVE('',#1315,#1221,#1317,.T.);
#1143=EDGE_CURVE('',#1318,#1315,#1319,.T.);
#1144=EDGE_CURVE('',#1318,#1223,#1320,.T.);
#1145=EDGE_CURVE('',#1321,#1318,#1322,.T.);
#1146=EDGE_CURVE('',#1321,#1225,#1323,.T.);
#1147=EDGE_CURVE('',#1324,#1321,#1325,.T.);
#1148=EDGE_CURVE('',#1324,#1227,#1326,.T.);
#1149=EDGE_CURVE('',#1327,#1324,#1328,.T.);
#1150=EDGE_CURVE('',#1327,#1229,#1329,.T.);
#1151=EDGE_CURVE('',#1330,#1327,#1331,.T.);
#1152=EDGE_CURVE('',#1330,#1231,#1332,.T.);
#1153=EDGE_CURVE('',#1333,#1330,#1334,.T.);
#1154=EDGE_CURVE('',#1333,#1233,#1335,.T.);
#1155=EDGE_CURVE('',#1336,#1333,#1337,.T.);
#1156=EDGE_CURVE('',#1336,#1235,#1338,.T.);
#1157=EDGE_CURVE('',#1339,#1336,#1340,.T.);
#1158=EDGE_CURVE('',#1339,#1237,#1341,.T.);
#1159=EDGE_CURVE('',#1342,#1339,#1343,.T.);
#1160=EDGE_CURVE('',#1342,#1239,#1344,.T.);
#1161=EDGE_CURVE('',#1310,#1342,#1345,.T.);
#1162=EDGE_CURVE('',#1346,#1244,#1347,.T.);
#1163=EDGE_CURVE('',#1348,#1346,#1349,.T.);
#1164=EDGE_CURVE('',#1348,#1245,#1350,.T.);
#1165=EDGE_CURVE('',#1351,#1348,#1352,.T.);
#1166=EDGE_CURVE('',#1351,#1247,#1353,.T.);
#1167=EDGE_CURVE('',#1354,#1351,#1355,.T.);
#1168=EDGE_CURVE('',#1354,#1249,#1356,.T.);
#1169=EDGE_CURVE('',#1357,#1354,#1358,.T.);
#1170=EDGE_CURVE('',#1357,#1251,#1359,.T.);
#1171=EDGE_CURVE('',#1360,#1357,#1361,.T.);
#1172=EDGE_CURVE('',#1360,#1253,#1362,.T.);
#1173=EDGE_CURVE('',#1363,#1360,#1364,.T.);
#1174=EDGE_CURVE('',#1363,#1255,#1365,.T.);
#1175=EDGE_CURVE('',#1366,#1363,#1367,.T.);
#1176=EDGE_CURVE('',#1366,#1257,#1368,.T.);
#1177=EDGE_CURVE('',#1369,#1366,#1370,.T.);
#1178=EDGE_CURVE('',#1369,#1259,#1371,.T.);
#1179=EDGE_CURVE('',#1372,#1369,#1373,.T.);
#1180=EDGE_CURVE('',#1372,#1261,#1374,.T.);
#1181=EDGE_CURVE('',#1375,#1372,#1376,.T.);
#1182=EDGE_CURVE('',#1375,#1263,#1377,.T.);
#1183=EDGE_CURVE('',#1378,#1375,#1379,.T.);
#1184=EDGE_CURVE('',#1378,#1265,#1380,.T.);
#1185=EDGE_CURVE('',#1346,#1378,#1381,.T.);
#1186=EDGE_CURVE('',#1382,#1383,#1384,.T.);
#1187=EDGE_CURVE('',#1383,#1271,#1385,.T.);
#1188=EDGE_CURVE('',#1382,#1270,#1386,.T.);
#1189=EDGE_CURVE('',#1383,#1387,#1388,.T.);
#1190=EDGE_CURVE('',#1387,#1273,#1389,.T.);
#1191=EDGE_CURVE('',#1387,#1390,#1391,.T.);
#1192=EDGE_CURVE('',#1390,#1275,#1392,.T.);
#1193=EDGE_CURVE('',#1390,#1382,#1393,.T.);
#1194=EDGE_CURVE('',#1394,#1284,#1395,.T.);
#1195=EDGE_CURVE('',#1396,#1394,#1397,.T.);
#1196=EDGE_CURVE('',#1396,#1285,#1398,.T.);
#1197=EDGE_CURVE('',#1399,#1396,#1400,.T.);
#1198=EDGE_CURVE('',#1399,#1287,#1401,.T.);
#1199=EDGE_CURVE('',#1402,#1399,#1403,.T.);
#1200=EDGE_CURVE('',#1402,#1289,#1404,.T.);
#1201=EDGE_CURVE('',#1405,#1402,#1406,.T.);
#1202=EDGE_CURVE('',#1405,#1291,#1407,.T.);
#1203=EDGE_CURVE('',#1408,#1405,#1409,.T.);
#1204=EDGE_CURVE('',#1408,#1293,#1410,.T.);
#1205=EDGE_CURVE('',#1411,#1408,#1412,.T.);
#1206=EDGE_CURVE('',#1411,#1295,#1413,.T.);
#1207=EDGE_CURVE('',#1414,#1411,#1415,.T.);
#1208=EDGE_CURVE('',#1414,#1297,#1416,.T.);
#1209=EDGE_CURVE('',#1417,#1414,#1418,.T.);
#1210=EDGE_CURVE('',#1417,#1299,#1419,.T.);
#1211=EDGE_CURVE('',#1420,#1417,#1421,.T.);
#1212=EDGE_CURVE('',#1420,#1301,#1422,.T.);
#1213=EDGE_CURVE('',#1423,#1420,#1424,.T.);
#1214=EDGE_CURVE('',#1423,#1303,#1425,.T.);
#1215=EDGE_CURVE('',#1426,#1423,#1427,.T.);
#1216=EDGE_CURVE('',#1426,#1305,#1428,.T.);
#1217=EDGE_CURVE('',#1394,#1426,#1429,.T.);
#1218=VERTEX_POINT('',#1430);
#1219=VERTEX_POINT('',#1431);
#1220=LINE('',#1432,#1433);
#1221=VERTEX_POINT('',#1435);
#1222=CIRCLE('',#1436,0.150000007186873);
#1223=VERTEX_POINT('',#1440);
#1224=LINE('',#1441,#1442);
#1225=VERTEX_POINT('',#1444);
#1226=CIRCLE('',#1445,0.150000007258441);
#1227=VERTEX_POINT('',#1449);
#1228=LINE('',#1450,#1451);
#1229=VERTEX_POINT('',#1453);
#1230=CIRCLE('',#1454,0.150000005952082);
#1231=VERTEX_POINT('',#1458);
#1232=LINE('',#1459,#1460);
#1233=VERTEX_POINT('',#1462);
#1234=CIRCLE('',#1463,0.150000007186873);
#1235=VERTEX_POINT('',#1467);
#1236=LINE('',#1468,#1469);
#1237=VERTEX_POINT('',#1471);
#1238=CIRCLE('',#1472,0.150000007247044);
#1239=VERTEX_POINT('',#1476);
#1240=LINE('',#1477,#1478);
#1241=CIRCLE('',#1480,0.150000005962064);
#1242=VERTEX_POINT('',#1484);
#1243=CIRCLE('',#1485,1.75);
#1244=VERTEX_POINT('',#1489);
#1245=VERTEX_POINT('',#1490);
#1246=LINE('',#1491,#1492);
#1247=VERTEX_POINT('',#1494);
#1248=CIRCLE('',#1495,0.150000007186873);
#1249=VERTEX_POINT('',#1499);
#1250=LINE('',#1500,#1501);
#1251=VERTEX_POINT('',#1503);
#1252=CIRCLE('',#1504,0.150000007258441);
#1253=VERTEX_POINT('',#1508);
#1254=LINE('',#1509,#1510);
#1255=VERTEX_POINT('',#1512);
#1256=CIRCLE('',#1513,0.150000005952082);
#1257=VERTEX_POINT('',#1517);
#1258=LINE('',#1518,#1519);
#1259=VERTEX_POINT('',#1521);
#1260=CIRCLE('',#1522,0.150000007186873);
#1261=VERTEX_POINT('',#1526);
#1262=LINE('',#1527,#1528);
#1263=VERTEX_POINT('',#1530);
#1264=CIRCLE('',#1531,0.150000007247044);
#1265=VERTEX_POINT('',#1535);
#1266=LINE('',#1536,#1537);
#1267=CIRCLE('',#1539,0.150000005962064);
#1268=VERTEX_POINT('',#1543);
#1269=CIRCLE('',#1544,1.75);
#1270=VERTEX_POINT('',#1548);
#1271=VERTEX_POINT('',#1549);
#1272=LINE('',#1550,#1551);
#1273=VERTEX_POINT('',#1553);
#1274=LINE('',#1554,#1555);
#1275=VERTEX_POINT('',#1557);
#1276=LINE('',#1558,#1559);
#1277=LINE('',#1561,#1562);
#1278=VERTEX_POINT('',#1564);
#1279=CIRCLE('',#1565,1.75);
#1280=VERTEX_POINT('',#1569);
#1281=CIRCLE('',#1570,1.75);
#1282=VERTEX_POINT('',#1574);
#1283=CIRCLE('',#1575,1.75);
#1284=VERTEX_POINT('',#1579);
#1285=VERTEX_POINT('',#1580);
#1286=LINE('',#1581,#1582);
#1287=VERTEX_POINT('',#1584);
#1288=CIRCLE('',#1585,0.150000005952082);
#1289=VERTEX_POINT('',#1589);
#1290=LINE('',#1590,#1591);
#1291=VERTEX_POINT('',#1593);
#1292=CIRCLE('',#1594,0.150000007186873);
#1293=VERTEX_POINT('',#1598);
#1294=LINE('',#1599,#1600);
#1295=VERTEX_POINT('',#1602);
#1296=CIRCLE('',#1603,0.150000007247044);
#1297=VERTEX_POINT('',#1607);
#1298=LINE('',#1608,#1609);
#1299=VERTEX_POINT('',#1611);
#1300=CIRCLE('',#1612,0.150000005962064);
#1301=VERTEX_POINT('',#1616);
#1302=LINE('',#1617,#1618);
#1303=VERTEX_POINT('',#1620);
#1304=CIRCLE('',#1621,0.150000007186873);
#1305=VERTEX_POINT('',#1625);
#1306=LINE('',#1626,#1627);
#1307=CIRCLE('',#1629,0.150000007258441);
#1308=VERTEX_POINT('',#1633);
#1309=CIRCLE('',#1634,1.75);
#1310=VERTEX_POINT('',#1638);
#1311=LINE('',#1639,#1640);
#1312=VERTEX_POINT('',#1642);
#1313=LINE('',#1643,#1644);
#1314=LINE('',#1646,#1647);
#1315=VERTEX_POINT('',#1649);
#1316=CIRCLE('',#1650,0.150000007186873);
#1317=LINE('',#1654,#1655);
#1318=VERTEX_POINT('',#1657);
#1319=LINE('',#1658,#1659);
#1320=LINE('',#1661,#1662);
#1321=VERTEX_POINT('',#1664);
#1322=CIRCLE('',#1665,0.150000007258441);
#1323=LINE('',#1669,#1670);
#1324=VERTEX_POINT('',#1672);
#1325=LINE('',#1673,#1674);
#1326=LINE('',#1676,#1677);
#1327=VERTEX_POINT('',#1679);
#1328=CIRCLE('',#1680,0.150000005952082);
#1329=LINE('',#1684,#1685);
#1330=VERTEX_POINT('',#1687);
#1331=LINE('',#1688,#1689);
#1332=LINE('',#1691,#1692);
#1333=VERTEX_POINT('',#1694);
#1334=CIRCLE('',#1695,0.150000007186873);
#1335=LINE('',#1699,#1700);
#1336=VERTEX_POINT('',#1702);
#1337=LINE('',#1703,#1704);
#1338=LINE('',#1706,#1707);
#1339=VERTEX_POINT('',#1709);
#1340=CIRCLE('',#1710,0.150000007247044);
#1341=LINE('',#1714,#1715);
#1342=VERTEX_POINT('',#1717);
#1343=LINE('',#1718,#1719);
#1344=LINE('',#1721,#1722);
#1345=CIRCLE('',#1724,0.150000005962064);
#1346=VERTEX_POINT('',#1728);
#1347=LINE('',#1729,#1730);
#1348=VERTEX_POINT('',#1732);
#1349=LINE('',#1733,#1734);
#1350=LINE('',#1736,#1737);
#1351=VERTEX_POINT('',#1739);
#1352=CIRCLE('',#1740,0.150000007186873);
#1353=LINE('',#1744,#1745);
#1354=VERTEX_POINT('',#1747);
#1355=LINE('',#1748,#1749);
#1356=LINE('',#1751,#1752);
#1357=VERTEX_POINT('',#1754);
#1358=CIRCLE('',#1755,0.150000007258441);
#1359=LINE('',#1759,#1760);
#1360=VERTEX_POINT('',#1762);
#1361=LINE('',#1763,#1764);
#1362=LINE('',#1766,#1767);
#1363=VERTEX_POINT('',#1769);
#1364=CIRCLE('',#1770,0.150000005952082);
#1365=LINE('',#1774,#1775);
#1366=VERTEX_POINT('',#1777);
#1367=LINE('',#1778,#1779);
#1368=LINE('',#1781,#1782);
#1369=VERTEX_POINT('',#1784);
#1370=CIRCLE('',#1785,0.150000007186873);
#1371=LINE('',#1789,#1790);
#1372=VERTEX_POINT('',#1792);
#1373=LINE('',#1793,#1794);
#1374=LINE('',#1796,#1797);
#1375=VERTEX_POINT('',#1799);
#1376=CIRCLE('',#1800,0.150000007247044);
#1377=LINE('',#1804,#1805);
#1378=VERTEX_POINT('',#1807);
#1379=LINE('',#1808,#1809);
#1380=LINE('',#1811,#1812);
#1381=CIRCLE('',#1814,0.150000005962064);
#1382=VERTEX_POINT('',#1818);
#1383=VERTEX_POINT('',#1819);
#1384=LINE('',#1820,#1821);
#1385=LINE('',#1823,#1824);
#1386=LINE('',#1826,#1827);
#1387=VERTEX_POINT('',#1829);
#1388=LINE('',#1830,#1831);
#1389=LINE('',#1833,#1834);
#1390=VERTEX_POINT('',#1836);
#1391=LINE('',#1837,#1838);
#1392=LINE('',#1840,#1841);
#1393=LINE('',#1843,#1844);
#1394=VERTEX_POINT('',#1846);
#1395=LINE('',#1847,#1848);
#1396=VERTEX_POINT('',#1850);
#1397=LINE('',#1851,#1852);
#1398=LINE('',#1854,#1855);
#1399=VERTEX_POINT('',#1857);
#1400=CIRCLE('',#1858,0.150000005952082);
#1401=LINE('',#1862,#1863);
#1402=VERTEX_POINT('',#1865);
#1403=LINE('',#1866,#1867);
#1404=LINE('',#1869,#1870);
#1405=VERTEX_POINT('',#1872);
#1406=CIRCLE('',#1873,0.150000007186873);
#1407=LINE('',#1877,#1878);
#1408=VERTEX_POINT('',#1880);
#1409=LINE('',#1881,#1882);
#1410=LINE('',#1884,#1885);
#1411=VERTEX_POINT('',#1887);
#1412=CIRCLE('',#1888,0.150000007247044);
#1413=LINE('',#1892,#1893);
#1414=VERTEX_POINT('',#1895);
#1415=LINE('',#1896,#1897);
#1416=LINE('',#1899,#1900);
#1417=VERTEX_POINT('',#1902);
#1418=CIRCLE('',#1903,0.150000005962064);
#1419=LINE('',#1907,#1908);
#1420=VERTEX_POINT('',#1910);
#1421=LINE('',#1911,#1912);
#1422=LINE('',#1914,#1915);
#1423=VERTEX_POINT('',#1917);
#1424=CIRCLE('',#1918,0.150000007186873);
#1425=LINE('',#1922,#1923);
#1426=VERTEX_POINT('',#1925);
#1427=LINE('',#1926,#1927);
#1428=LINE('',#1929,#1930);
#1429=CIRCLE('',#1932,0.150000007258441);
#1430=CARTESIAN_POINT('',(-84.2626184530503,-2.90000731207135,3.1));
#1431=CARTESIAN_POINT('',(-87.4380449336501,-2.90000626152584,3.1));
#1432=CARTESIAN_POINT('',(-84.2626184530503,-2.90000731208846,3.1));
#1433=VECTOR('',#1434,1.);
#1434=DIRECTION('',(-0.999999999999945,3.30841423449188E-7,0.));
#1435=CARTESIAN_POINT('',(-87.5679487256283,-2.82500621452012,3.1));
#1436=AXIS2_PLACEMENT_3D('',#1437,#1438,#1439);
#1437=CARTESIAN_POINT('',(-87.4380448840239,-2.75000625390351,3.1));
#1438=DIRECTION('',(0.,0.,1.));
#1439=DIRECTION('',(-0.866025569202269,-0.499999713487803,0.));
#1440=CARTESIAN_POINT('',(-89.1556610549801,-0.0750056903192129,3.1));
#1441=CARTESIAN_POINT('',(-87.5679487252512,-2.82500621430239,3.1));
#1442=VECTOR('',#1443,1.);
#1443=DIRECTION('',(-0.499999713487823,0.866025569202258,0.));
#1444=CARTESIAN_POINT('',(-89.1556610049974,0.0749943171464917,3.1));
#1445=AXIS2_PLACEMENT_3D('',#1446,#1447,#1448);
#1446=CARTESIAN_POINT('',(-89.0257572129573,-5.72946102630883E-6,3.1));
#1447=DIRECTION('',(0.,0.,1.));
#1448=DIRECTION('',(-0.866025238360849,0.500000286521953,0.));
#1449=CARTESIAN_POINT('',(-87.5679468552842,2.82499379036126,3.1));
#1450=CARTESIAN_POINT('',(-89.155661004641,0.0749943169406961,3.1));
#1451=VECTOR('',#1452,1.);
#1452=DIRECTION('',(0.500000286521974,0.866025238360837,0.));
#1453=CARTESIAN_POINT('',(-87.4380430147699,2.89999375037091,3.1));
#1454=AXIS2_PLACEMENT_3D('',#1455,#1456,#1457);
#1455=CARTESIAN_POINT('',(-87.4380430643961,2.74999374441884,3.1));
#1456=DIRECTION('',(0.,0.,1.));
#1457=DIRECTION('',(3.30841379672149E-7,0.999999999999945,0.));
#1458=CARTESIAN_POINT('',(-84.2626165341701,2.89999269983216,3.1));
#1459=CARTESIAN_POINT('',(-87.4380430147699,2.89999375039476,3.1));
#1460=VECTOR('',#1461,1.);
#1461=DIRECTION('',(0.999999999999945,-3.30841418973931E-7,0.));
#1462=CARTESIAN_POINT('',(-84.1327127421919,2.82499265282643,3.1));
#1463=AXIS2_PLACEMENT_3D('',#1464,#1465,#1466);
#1464=CARTESIAN_POINT('',(-84.2626165837963,2.74999269220983,3.1));
#1465=DIRECTION('',(0.,0.,1.));
#1466=DIRECTION('',(0.866025569202268,0.499999713487805,0.));
#1467=CARTESIAN_POINT('',(-82.5450004128401,0.0749921286255284,3.1));
#1468=CARTESIAN_POINT('',(-84.1327127425691,2.8249926526087,3.1));
#1469=VECTOR('',#1470,1.);
#1470=DIRECTION('',(0.499999713487823,-0.866025569202258,0.));
#1471=CARTESIAN_POINT('',(-82.5450004628605,-0.0750078788959618,3.1));
#1472=AXIS2_PLACEMENT_3D('',#1473,#1474,#1475);
#1473=CARTESIAN_POINT('',(-82.6749042548514,-7.83222599590092E-6,3.1));
#1474=DIRECTION('',(0.,0.,1.));
#1475=DIRECTION('',(0.866025238098533,-0.500000286976297,0.));
#1476=CARTESIAN_POINT('',(-84.1327146120869,-2.82500735130732,3.1));
#1477=CARTESIAN_POINT('',(-82.5450004632152,-0.0750078786911303,3.1));
#1478=VECTOR('',#1479,1.);
#1479=DIRECTION('',(-0.500000286517086,-0.866025238363659,0.));
#1480=AXIS2_PLACEMENT_3D('',#1481,#1482,#1483);
#1481=CARTESIAN_POINT('',(-84.2626184034241,-2.75000730610929,3.1));
#1482=DIRECTION('',(0.,0.,1.));
#1483=DIRECTION('',(-3.30841379650131E-7,-0.999999999999945,0.));
#1484=CARTESIAN_POINT('',(-87.6003307340987,6.78095571848836E-6,3.1));
#1485=AXIS2_PLACEMENT_3D('',#1486,#1487,#1488);
#1486=CARTESIAN_POINT('',(-85.8503307340987,6.78095571848836E-6,3.1));
#1487=DIRECTION('',(0.,0.,-1.));
#1488=DIRECTION('',(-1.,0.,0.));
#1489=CARTESIAN_POINT('',(56.1587736089087,-2.90000731207138,3.1));
#1490=CARTESIAN_POINT('',(52.9833471283088,-2.90000626152587,3.1));
#1491=CARTESIAN_POINT('',(56.1587736089087,-2.90000731208849,3.1));
#1492=VECTOR('',#1493,1.);
#1493=DIRECTION('',(-0.999999999999945,3.30841423309337E-7,0.));
#1494=CARTESIAN_POINT('',(52.8534433363307,-2.82500621452015,3.1));
#1495=AXIS2_PLACEMENT_3D('',#1496,#1497,#1498);
#1496=CARTESIAN_POINT('',(52.9833471779351,-2.75000625390354,3.1));
#1497=DIRECTION('',(0.,0.,1.));
#1498=DIRECTION('',(-0.866025569202258,-0.499999713487824,0.));
#1499=CARTESIAN_POINT('',(51.2657310069789,-0.0750056903192408,3.1));
#1500=CARTESIAN_POINT('',(52.8534433367078,-2.82500621430242,3.1));
#1501=VECTOR('',#1502,1.);
#1502=DIRECTION('',(-0.499999713487821,0.866025569202259,0.));
#1503=CARTESIAN_POINT('',(51.2657310569615,0.0749943171464639,3.1));
#1504=AXIS2_PLACEMENT_3D('',#1505,#1506,#1507);
#1505=CARTESIAN_POINT('',(51.3956348490017,-5.72946105416363E-6,3.1));
#1506=DIRECTION('',(0.,0.,1.));
#1507=DIRECTION('',(-0.866025238360837,0.500000286521974,0.));
#1508=CARTESIAN_POINT('',(52.8534452066747,2.82499379036123,3.1));
#1509=CARTESIAN_POINT('',(51.265731057318,0.0749943169406699,3.1));
#1510=VECTOR('',#1511,1.);
#1511=DIRECTION('',(0.500000286521973,0.866025238360837,0.));
#1512=CARTESIAN_POINT('',(52.9833490471891,2.89999375037089,3.1));
#1513=AXIS2_PLACEMENT_3D('',#1514,#1515,#1516);
#1514=CARTESIAN_POINT('',(52.9833489975629,2.74999374441881,3.1));
#1515=DIRECTION('',(0.,0.,1.));
#1516=DIRECTION('',(3.30841427041663E-7,0.999999999999945,0.));
#1517=CARTESIAN_POINT('',(56.1587755277889,2.89999269983213,3.1));
#1518=CARTESIAN_POINT('',(52.9833490471891,2.89999375039473,3.1));
#1519=VECTOR('',#1520,1.);
#1520=DIRECTION('',(0.999999999999945,-3.30841418834079E-7,0.));
#1521=CARTESIAN_POINT('',(56.288679319767,2.82499265282641,3.1));
#1522=AXIS2_PLACEMENT_3D('',#1523,#1524,#1525);
#1523=CARTESIAN_POINT('',(56.1587754781627,2.7499926922098,3.1));
#1524=DIRECTION('',(0.,0.,1.));
#1525=DIRECTION('',(0.866025569202256,0.499999713487826,0.));
#1526=CARTESIAN_POINT('',(57.8763916491189,0.0749921286255006,3.1));
#1527=CARTESIAN_POINT('',(56.2886793193899,2.82499265260868,3.1));
#1528=VECTOR('',#1529,1.);
#1529=DIRECTION('',(0.499999713487823,-0.866025569202258,0.));
#1530=CARTESIAN_POINT('',(57.8763915990985,-0.0750078788959866,3.1));
#1531=AXIS2_PLACEMENT_3D('',#1532,#1533,#1534);
#1532=CARTESIAN_POINT('',(57.7464878071076,-7.83222602375572E-6,3.1));
#1533=DIRECTION('',(0.,0.,1.));
#1534=DIRECTION('',(0.866025238098554,-0.500000286976261,0.));
#1535=CARTESIAN_POINT('',(56.2886774498721,-2.82500735130735,3.1));
#1536=CARTESIAN_POINT('',(57.8763915987438,-0.0750078786911561,3.1));
#1537=VECTOR('',#1538,1.);
#1538=DIRECTION('',(-0.500000286517087,-0.866025238363658,0.));
#1539=AXIS2_PLACEMENT_3D('',#1540,#1541,#1542);
#1540=CARTESIAN_POINT('',(56.1587736585349,-2.75000730610932,3.1));
#1541=DIRECTION('',(0.,0.,1.));
#1542=DIRECTION('',(-3.30841427019645E-7,-0.999999999999945,0.));
#1543=CARTESIAN_POINT('',(52.8210613280489,6.78084686334124E-6,3.1));
#1544=AXIS2_PLACEMENT_3D('',#1545,#1546,#1547);
#1545=CARTESIAN_POINT('',(54.5710613280489,6.78084686334124E-6,3.1));
#1546=DIRECTION('',(0.,0.,-1.));
#1547=DIRECTION('',(-1.,0.,0.));
#1548=CARTESIAN_POINT('',(-91.8503255864287,-6.,3.5));
#1549=CARTESIAN_POINT('',(60.5710664755303,-6.00000000000002,3.5));
#1550=CARTESIAN_POINT('',(-91.8503255864287,-6.,3.5));
#1551=VECTOR('',#1552,1.);
#1552=DIRECTION('',(1.,-1.22369613355327E-16,0.));
#1553=CARTESIAN_POINT('',(60.5710664755303,5.99999999999998,3.5));
#1554=CARTESIAN_POINT('',(60.5710664755303,-6.00000000000002,3.5));
#1555=VECTOR('',#1556,1.);
#1556=DIRECTION('',(0.,1.,0.));
#1557=CARTESIAN_POINT('',(-91.8503255864287,6.,3.5));
#1558=CARTESIAN_POINT('',(60.5710664755303,5.99999999999998,3.5));
#1559=VECTOR('',#1560,1.);
#1560=DIRECTION('',(-1.,1.22369613355327E-16,0.));
#1561=CARTESIAN_POINT('',(-91.8503255864287,6.,3.5));
#1562=VECTOR('',#1563,1.);
#1563=DIRECTION('',(0.,-1.,0.));
#1564=CARTESIAN_POINT('',(52.8210613280489,6.78084686312693E-6,3.5));
#1565=AXIS2_PLACEMENT_3D('',#1566,#1567,#1568);
#1566=CARTESIAN_POINT('',(54.5710613280489,6.78084686334124E-6,3.5));
#1567=DIRECTION('',(0.,0.,-1.));
#1568=DIRECTION('',(-1.,0.,0.));
#1569=CARTESIAN_POINT('',(-87.6003307340987,6.78095571827404E-6,3.5));
#1570=AXIS2_PLACEMENT_3D('',#1571,#1572,#1573);
#1571=CARTESIAN_POINT('',(-85.8503307340987,6.78095571848836E-6,3.5));
#1572=DIRECTION('',(0.,0.,-1.));
#1573=DIRECTION('',(-1.,0.,0.));
#1574=CARTESIAN_POINT('',(-17.75,-2.14313189850787E-16,3.5));
#1575=AXIS2_PLACEMENT_3D('',#1576,#1577,#1578);
#1576=CARTESIAN_POINT('',(-16.,0.,3.5));
#1577=DIRECTION('',(0.,0.,-1.));
#1578=DIRECTION('',(-1.,0.,0.));
#1579=CARTESIAN_POINT('',(-19.3053354185688,0.0749943171464832,3.1));
#1580=CARTESIAN_POINT('',(-17.7176212688556,2.82499379036125,3.1));
#1581=CARTESIAN_POINT('',(-19.3053354182123,0.0749943169406886,3.1));
#1582=VECTOR('',#1583,1.);
#1583=DIRECTION('',(0.500000286521972,0.866025238360838,0.));
#1584=CARTESIAN_POINT('',(-17.5877174283412,2.89999375037091,3.1));
#1585=AXIS2_PLACEMENT_3D('',#1586,#1587,#1588);
#1586=CARTESIAN_POINT('',(-17.5877174779674,2.74999374441883,3.1));
#1587=DIRECTION('',(0.,0.,1.));
#1588=DIRECTION('',(3.30841427041663E-7,0.999999999999945,0.));
#1589=CARTESIAN_POINT('',(-14.4122909477414,2.89999269983215,3.1));
#1590=CARTESIAN_POINT('',(-17.5877174283412,2.89999375039475,3.1));
#1591=VECTOR('',#1592,1.);
#1592=DIRECTION('',(0.999999999999945,-3.30841418973931E-7,0.));
#1593=CARTESIAN_POINT('',(-14.2823871557633,2.82499265282643,3.1));
#1594=AXIS2_PLACEMENT_3D('',#1595,#1596,#1597);
#1595=CARTESIAN_POINT('',(-14.4122909973676,2.74999269220982,3.1));
#1596=DIRECTION('',(0.,0.,1.));
#1597=DIRECTION('',(0.866025569202258,0.499999713487823,0.));
#1598=CARTESIAN_POINT('',(-12.6946748264114,0.0749921286255199,3.1));
#1599=CARTESIAN_POINT('',(-14.2823871561404,2.8249926526087,3.1));
#1600=VECTOR('',#1601,1.);
#1601=DIRECTION('',(0.499999713487823,-0.866025569202258,0.));
#1602=CARTESIAN_POINT('',(-12.6946748764318,-0.075007878895968,3.1));
#1603=AXIS2_PLACEMENT_3D('',#1604,#1605,#1606);
#1604=CARTESIAN_POINT('',(-12.8245786684227,-7.83222600445512E-6,3.1));
#1605=DIRECTION('',(0.,0.,1.));
#1606=DIRECTION('',(0.866025238098552,-0.500000286976265,0.));
#1607=CARTESIAN_POINT('',(-14.2823890256582,-2.82500735130733,3.1));
#1608=CARTESIAN_POINT('',(-12.6946748767865,-0.075007878691137,3.1));
#1609=VECTOR('',#1610,1.);
#1610=DIRECTION('',(-0.500000286517088,-0.866025238363658,0.));
#1611=CARTESIAN_POINT('',(-14.4122928666216,-2.90000731207136,3.1));
#1612=AXIS2_PLACEMENT_3D('',#1613,#1614,#1615);
#1613=CARTESIAN_POINT('',(-14.4122928169954,-2.7500073061093,3.1));
#1614=DIRECTION('',(0.,0.,1.));
#1615=DIRECTION('',(-3.30841427019645E-7,-0.999999999999945,0.));
#1616=CARTESIAN_POINT('',(-17.5877193472215,-2.90000626152585,3.1));
#1617=CARTESIAN_POINT('',(-14.4122928666216,-2.90000731208847,3.1));
#1618=VECTOR('',#1619,1.);
#1619=DIRECTION('',(-0.999999999999945,3.30841423449188E-7,0.));
#1620=CARTESIAN_POINT('',(-17.7176231391996,-2.82500621452013,3.1));
#1621=AXIS2_PLACEMENT_3D('',#1622,#1623,#1624);
#1622=CARTESIAN_POINT('',(-17.5877192975952,-2.75000625390352,3.1));
#1623=DIRECTION('',(0.,0.,1.));
#1624=DIRECTION('',(-0.866025569202258,-0.499999713487824,0.));
#1625=CARTESIAN_POINT('',(-19.3053354685514,-0.0750056903192215,3.1));
#1626=CARTESIAN_POINT('',(-17.7176231388225,-2.8250062143024,3.1));
#1627=VECTOR('',#1628,1.);
#1628=DIRECTION('',(-0.499999713487822,0.866025569202259,0.));
#1629=AXIS2_PLACEMENT_3D('',#1630,#1631,#1632);
#1630=CARTESIAN_POINT('',(-19.1754316265286,-5.72946103486302E-6,3.1));
#1631=DIRECTION('',(0.,0.,1.));
#1632=DIRECTION('',(-0.866025238360843,0.500000286521963,0.));
#1633=CARTESIAN_POINT('',(-17.75,0.,3.1));
#1634=AXIS2_PLACEMENT_3D('',#1635,#1636,#1637);
#1635=CARTESIAN_POINT('',(-16.,0.,3.1));
#1636=DIRECTION('',(0.,0.,-1.));
#1637=DIRECTION('',(-1.,0.,0.));
#1638=CARTESIAN_POINT('',(-84.2626184530503,-2.90000731207135,0.));
#1639=CARTESIAN_POINT('',(-84.2626184530503,-2.9000073120799,0.));
#1640=VECTOR('',#1641,1.);
#1641=DIRECTION('',(0.,0.,1.));
#1642=CARTESIAN_POINT('',(-87.4380449336501,-2.90000626152584,0.));
#1643=CARTESIAN_POINT('',(-87.4380449336501,-2.90000626152584,0.));
#1644=VECTOR('',#1645,1.);
#1645=DIRECTION('',(0.999999999999945,-3.30841423449188E-7,0.));
#1646=CARTESIAN_POINT('',(-87.4380449338387,-2.90000626130811,0.));
#1647=VECTOR('',#1648,1.);
#1648=DIRECTION('',(0.,0.,1.));
#1649=CARTESIAN_POINT('',(-87.5679487256283,-2.82500621452012,0.));
#1650=AXIS2_PLACEMENT_3D('',#1651,#1652,#1653);
#1651=CARTESIAN_POINT('',(-87.4380448840239,-2.75000625390351,0.));
#1652=DIRECTION('',(0.,0.,1.));
#1653=DIRECTION('',(-0.866025569202269,-0.499999713487803,0.));
#1654=CARTESIAN_POINT('',(-87.5679487254397,-2.82500621441125,0.));
#1655=VECTOR('',#1656,1.);
#1656=DIRECTION('',(0.,0.,1.));
#1657=CARTESIAN_POINT('',(-89.1556610549801,-0.0750056903192129,0.));
#1658=CARTESIAN_POINT('',(-89.1556610549801,-0.0750056903192129,0.));
#1659=VECTOR('',#1660,1.);
#1660=DIRECTION('',(0.499999713487823,-0.866025569202258,0.));
#1661=CARTESIAN_POINT('',(-89.155661054891,-0.0750056900619698,0.));
#1662=VECTOR('',#1663,1.);
#1663=DIRECTION('',(0.,0.,1.));
#1664=CARTESIAN_POINT('',(-89.1556610049974,0.0749943171464917,0.));
#1665=AXIS2_PLACEMENT_3D('',#1666,#1667,#1668);
#1666=CARTESIAN_POINT('',(-89.0257572129573,-5.72946102630883E-6,0.));
#1667=DIRECTION('',(0.,0.,1.));
#1668=DIRECTION('',(-0.866025238360849,0.500000286521953,0.));
#1669=CARTESIAN_POINT('',(-89.1556610048192,0.0749943170435944,0.));
#1670=VECTOR('',#1671,1.);
#1671=DIRECTION('',(0.,0.,1.));
#1672=CARTESIAN_POINT('',(-87.5679468552842,2.82499379036126,0.));
#1673=CARTESIAN_POINT('',(-87.5679468552842,2.82499379036126,0.));
#1674=VECTOR('',#1675,1.);
#1675=DIRECTION('',(-0.500000286521974,-0.866025238360837,0.));
#1676=CARTESIAN_POINT('',(-87.5679468552997,2.82499379035827,0.));
#1677=VECTOR('',#1678,1.);
#1678=DIRECTION('',(0.,0.,1.));
#1679=CARTESIAN_POINT('',(-87.4380430147699,2.89999375037091,0.));
#1680=AXIS2_PLACEMENT_3D('',#1681,#1682,#1683);
#1681=CARTESIAN_POINT('',(-87.4380430643961,2.74999374441884,0.));
#1682=DIRECTION('',(0.,0.,1.));
#1683=DIRECTION('',(3.30841379672149E-7,0.999999999999945,0.));
#1684=CARTESIAN_POINT('',(-87.4380430147699,2.89999375038284,0.));
#1685=VECTOR('',#1686,1.);
#1686=DIRECTION('',(0.,0.,1.));
#1687=CARTESIAN_POINT('',(-84.2626165341701,2.89999269983216,0.));
#1688=CARTESIAN_POINT('',(-84.2626165341701,2.89999269983216,0.));
#1689=VECTOR('',#1690,1.);
#1690=DIRECTION('',(-0.999999999999945,3.30841418973931E-7,0.));
#1691=CARTESIAN_POINT('',(-84.2626165339815,2.89999269961442,0.));
#1692=VECTOR('',#1693,1.);
#1693=DIRECTION('',(0.,0.,1.));
#1694=CARTESIAN_POINT('',(-84.1327127421919,2.82499265282643,0.));
#1695=AXIS2_PLACEMENT_3D('',#1696,#1697,#1698);
#1696=CARTESIAN_POINT('',(-84.2626165837963,2.74999269220983,0.));
#1697=DIRECTION('',(0.,0.,1.));
#1698=DIRECTION('',(0.866025569202268,0.499999713487805,0.));
#1699=CARTESIAN_POINT('',(-84.1327127423805,2.82499265271757,0.));
#1700=VECTOR('',#1701,1.);
#1701=DIRECTION('',(0.,0.,1.));
#1702=CARTESIAN_POINT('',(-82.5450004128401,0.0749921286255284,0.));
#1703=CARTESIAN_POINT('',(-82.5450004128401,0.0749921286255284,0.));
#1704=VECTOR('',#1705,1.);
#1705=DIRECTION('',(-0.499999713487823,0.866025569202258,0.));
#1706=CARTESIAN_POINT('',(-82.5450004129288,0.074992128369489,0.));
#1707=VECTOR('',#1708,1.);
#1708=DIRECTION('',(0.,0.,1.));
#1709=CARTESIAN_POINT('',(-82.5450004628605,-0.0750078788959618,0.));
#1710=AXIS2_PLACEMENT_3D('',#1711,#1712,#1713);
#1711=CARTESIAN_POINT('',(-82.6749042548514,-7.83222599590092E-6,0.));
#1712=DIRECTION('',(0.,0.,1.));
#1713=DIRECTION('',(0.866025238098533,-0.500000286976297,0.));
#1714=CARTESIAN_POINT('',(-82.5450004630378,-0.0750078787935458,0.));
#1715=VECTOR('',#1716,1.);
#1716=DIRECTION('',(0.,0.,1.));
#1717=CARTESIAN_POINT('',(-84.1327146120869,-2.82500735130732,0.));
#1718=CARTESIAN_POINT('',(-84.1327146120869,-2.82500735130732,0.));
#1719=VECTOR('',#1720,1.);
#1720=DIRECTION('',(0.500000286517086,0.866025238363659,0.));
#1721=CARTESIAN_POINT('',(-84.1327146120758,-2.82500735130518,0.));
#1722=VECTOR('',#1723,1.);
#1723=DIRECTION('',(0.,0.,1.));
#1724=AXIS2_PLACEMENT_3D('',#1725,#1726,#1727);
#1725=CARTESIAN_POINT('',(-84.2626184034241,-2.75000730610929,0.));
#1726=DIRECTION('',(0.,0.,1.));
#1727=DIRECTION('',(-3.30841379650131E-7,-0.999999999999945,0.));
#1728=CARTESIAN_POINT('',(56.1587736089087,-2.90000731207138,0.));
#1729=CARTESIAN_POINT('',(56.1587736089087,-2.90000731207993,0.));
#1730=VECTOR('',#1731,1.);
#1731=DIRECTION('',(0.,0.,1.));
#1732=CARTESIAN_POINT('',(52.9833471283088,-2.90000626152587,0.));
#1733=CARTESIAN_POINT('',(52.9833471283088,-2.90000626152587,0.));
#1734=VECTOR('',#1735,1.);
#1735=DIRECTION('',(0.999999999999945,-3.30841423309337E-7,0.));
#1736=CARTESIAN_POINT('',(52.9833471281203,-2.90000626130814,0.));
#1737=VECTOR('',#1738,1.);
#1738=DIRECTION('',(0.,0.,1.));
#1739=CARTESIAN_POINT('',(52.8534433363307,-2.82500621452015,0.));
#1740=AXIS2_PLACEMENT_3D('',#1741,#1742,#1743);
#1741=CARTESIAN_POINT('',(52.9833471779351,-2.75000625390354,0.));
#1742=DIRECTION('',(0.,0.,1.));
#1743=DIRECTION('',(-0.866025569202258,-0.499999713487824,0.));
#1744=CARTESIAN_POINT('',(52.8534433365193,-2.82500621441128,0.));
#1745=VECTOR('',#1746,1.);
#1746=DIRECTION('',(0.,0.,1.));
#1747=CARTESIAN_POINT('',(51.2657310069789,-0.0750056903192408,0.));
#1748=CARTESIAN_POINT('',(51.2657310069789,-0.0750056903192408,0.));
#1749=VECTOR('',#1750,1.);
#1750=DIRECTION('',(0.499999713487821,-0.866025569202259,0.));
#1751=CARTESIAN_POINT('',(51.265731007068,-0.0750056900619977,0.));
#1752=VECTOR('',#1753,1.);
#1753=DIRECTION('',(0.,0.,1.));
#1754=CARTESIAN_POINT('',(51.2657310569615,0.0749943171464639,0.));
#1755=AXIS2_PLACEMENT_3D('',#1756,#1757,#1758);
#1756=CARTESIAN_POINT('',(51.3956348490017,-5.72946105416363E-6,0.));
#1757=DIRECTION('',(0.,0.,1.));
#1758=DIRECTION('',(-0.866025238360837,0.500000286521974,0.));
#1759=CARTESIAN_POINT('',(51.2657310571398,0.0749943170435665,0.));
#1760=VECTOR('',#1761,1.);
#1761=DIRECTION('',(0.,0.,1.));
#1762=CARTESIAN_POINT('',(52.8534452066747,2.82499379036123,0.));
#1763=CARTESIAN_POINT('',(52.8534452066747,2.82499379036123,0.));
#1764=VECTOR('',#1765,1.);
#1765=DIRECTION('',(-0.500000286521973,-0.866025238360837,0.));
#1766=CARTESIAN_POINT('',(52.8534452066593,2.82499379035825,0.));
#1767=VECTOR('',#1768,1.);
#1768=DIRECTION('',(0.,0.,1.));
#1769=CARTESIAN_POINT('',(52.9833490471891,2.89999375037089,0.));
#1770=AXIS2_PLACEMENT_3D('',#1771,#1772,#1773);
#1771=CARTESIAN_POINT('',(52.9833489975629,2.74999374441881,0.));
#1772=DIRECTION('',(0.,0.,1.));
#1773=DIRECTION('',(3.30841427041663E-7,0.999999999999945,0.));
#1774=CARTESIAN_POINT('',(52.9833490471891,2.89999375038281,0.));
#1775=VECTOR('',#1776,1.);
#1776=DIRECTION('',(0.,0.,1.));
#1777=CARTESIAN_POINT('',(56.1587755277889,2.89999269983213,0.));
#1778=CARTESIAN_POINT('',(56.1587755277889,2.89999269983213,0.));
#1779=VECTOR('',#1780,1.);
#1780=DIRECTION('',(-0.999999999999945,3.30841418834079E-7,0.));
#1781=CARTESIAN_POINT('',(56.1587755279775,2.8999926996144,0.));
#1782=VECTOR('',#1783,1.);
#1783=DIRECTION('',(0.,0.,1.));
#1784=CARTESIAN_POINT('',(56.288679319767,2.82499265282641,0.));
#1785=AXIS2_PLACEMENT_3D('',#1786,#1787,#1788);
#1786=CARTESIAN_POINT('',(56.1587754781627,2.7499926922098,0.));
#1787=DIRECTION('',(0.,0.,1.));
#1788=DIRECTION('',(0.866025569202256,0.499999713487826,0.));
#1789=CARTESIAN_POINT('',(56.2886793195785,2.82499265271754,0.));
#1790=VECTOR('',#1791,1.);
#1791=DIRECTION('',(0.,0.,1.));
#1792=CARTESIAN_POINT('',(57.8763916491189,0.0749921286255006,0.));
#1793=CARTESIAN_POINT('',(57.8763916491189,0.0749921286255006,0.));
#1794=VECTOR('',#1795,1.);
#1795=DIRECTION('',(-0.499999713487823,0.866025569202258,0.));
#1796=CARTESIAN_POINT('',(57.8763916490302,0.0749921283694627,0.));
#1797=VECTOR('',#1798,1.);
#1798=DIRECTION('',(0.,0.,1.));
#1799=CARTESIAN_POINT('',(57.8763915990985,-0.0750078788959866,0.));
#1800=AXIS2_PLACEMENT_3D('',#1801,#1802,#1803);
#1801=CARTESIAN_POINT('',(57.7464878071076,-7.83222602375572E-6,0.));
#1802=DIRECTION('',(0.,0.,1.));
#1803=DIRECTION('',(0.866025238098554,-0.500000286976261,0.));
#1804=CARTESIAN_POINT('',(57.8763915989211,-0.0750078787935718,0.));
#1805=VECTOR('',#1806,1.);
#1806=DIRECTION('',(0.,0.,1.));
#1807=CARTESIAN_POINT('',(56.2886774498721,-2.82500735130735,0.));
#1808=CARTESIAN_POINT('',(56.2886774498721,-2.82500735130735,0.));
#1809=VECTOR('',#1810,1.);
#1810=DIRECTION('',(0.500000286517087,0.866025238363658,0.));
#1811=CARTESIAN_POINT('',(56.2886774498832,-2.82500735130521,0.));
#1812=VECTOR('',#1813,1.);
#1813=DIRECTION('',(0.,0.,1.));
#1814=AXIS2_PLACEMENT_3D('',#1815,#1816,#1817);
#1815=CARTESIAN_POINT('',(56.1587736585349,-2.75000730610932,0.));
#1816=DIRECTION('',(0.,0.,1.));
#1817=DIRECTION('',(-3.30841427019645E-7,-0.999999999999945,0.));
#1818=CARTESIAN_POINT('',(-91.8503255864287,-6.,0.));
#1819=CARTESIAN_POINT('',(60.5710664755303,-6.00000000000002,0.));
#1820=CARTESIAN_POINT('',(-91.8503255864287,-6.,0.));
#1821=VECTOR('',#1822,1.);
#1822=DIRECTION('',(1.,-1.22369613355327E-16,0.));
#1823=CARTESIAN_POINT('',(60.5710664755303,-6.00000000000002,0.));
#1824=VECTOR('',#1825,1.);
#1825=DIRECTION('',(0.,0.,1.));
#1826=CARTESIAN_POINT('',(-91.8503255864287,-6.,0.));
#1827=VECTOR('',#1828,1.);
#1828=DIRECTION('',(0.,0.,1.));
#1829=CARTESIAN_POINT('',(60.5710664755303,5.99999999999998,0.));
#1830=CARTESIAN_POINT('',(60.5710664755303,-6.00000000000002,0.));
#1831=VECTOR('',#1832,1.);
#1832=DIRECTION('',(0.,1.,0.));
#1833=CARTESIAN_POINT('',(60.5710664755303,5.99999999999998,0.));
#1834=VECTOR('',#1835,1.);
#1835=DIRECTION('',(0.,0.,1.));
#1836=CARTESIAN_POINT('',(-91.8503255864287,6.,0.));
#1837=CARTESIAN_POINT('',(60.5710664755303,5.99999999999998,0.));
#1838=VECTOR('',#1839,1.);
#1839=DIRECTION('',(-1.,1.22369613355327E-16,0.));
#1840=CARTESIAN_POINT('',(-91.8503255864287,6.,0.));
#1841=VECTOR('',#1842,1.);
#1842=DIRECTION('',(0.,0.,1.));
#1843=CARTESIAN_POINT('',(-91.8503255864287,6.,0.));
#1844=VECTOR('',#1845,1.);
#1845=DIRECTION('',(0.,-1.,0.));
#1846=CARTESIAN_POINT('',(-19.3053354185688,0.0749943171464832,0.));
#1847=CARTESIAN_POINT('',(-19.3053354183905,0.0749943170435859,0.));
#1848=VECTOR('',#1849,1.);
#1849=DIRECTION('',(0.,0.,1.));
#1850=CARTESIAN_POINT('',(-17.7176212688556,2.82499379036125,0.));
#1851=CARTESIAN_POINT('',(-17.7176212688556,2.82499379036125,0.));
#1852=VECTOR('',#1853,1.);
#1853=DIRECTION('',(-0.500000286521972,-0.866025238360838,0.));
#1854=CARTESIAN_POINT('',(-17.717621268871,2.82499379035827,0.));
#1855=VECTOR('',#1856,1.);
#1856=DIRECTION('',(0.,0.,1.));
#1857=CARTESIAN_POINT('',(-17.5877174283412,2.89999375037091,0.));
#1858=AXIS2_PLACEMENT_3D('',#1859,#1860,#1861);
#1859=CARTESIAN_POINT('',(-17.5877174779674,2.74999374441883,0.));
#1860=DIRECTION('',(0.,0.,1.));
#1861=DIRECTION('',(3.30841427041663E-7,0.999999999999945,0.));
#1862=CARTESIAN_POINT('',(-17.5877174283412,2.89999375038283,0.));
#1863=VECTOR('',#1864,1.);
#1864=DIRECTION('',(0.,0.,1.));
#1865=CARTESIAN_POINT('',(-14.4122909477414,2.89999269983215,0.));
#1866=CARTESIAN_POINT('',(-14.4122909477414,2.89999269983215,0.));
#1867=VECTOR('',#1868,1.);
#1868=DIRECTION('',(-0.999999999999945,3.30841418973931E-7,0.));
#1869=CARTESIAN_POINT('',(-14.4122909475528,2.89999269961442,0.));
#1870=VECTOR('',#1871,1.);
#1871=DIRECTION('',(0.,0.,1.));
#1872=CARTESIAN_POINT('',(-14.2823871557633,2.82499265282643,0.));
#1873=AXIS2_PLACEMENT_3D('',#1874,#1875,#1876);
#1874=CARTESIAN_POINT('',(-14.4122909973676,2.74999269220982,0.));
#1875=DIRECTION('',(0.,0.,1.));
#1876=DIRECTION('',(0.866025569202258,0.499999713487823,0.));
#1877=CARTESIAN_POINT('',(-14.2823871559518,2.82499265271756,0.));
#1878=VECTOR('',#1879,1.);
#1879=DIRECTION('',(0.,0.,1.));
#1880=CARTESIAN_POINT('',(-12.6946748264114,0.0749921286255199,0.));
#1881=CARTESIAN_POINT('',(-12.6946748264114,0.0749921286255199,0.));
#1882=VECTOR('',#1883,1.);
#1883=DIRECTION('',(-0.499999713487823,0.866025569202258,0.));
#1884=CARTESIAN_POINT('',(-12.6946748265001,0.0749921283694816,0.));
#1885=VECTOR('',#1886,1.);
#1886=DIRECTION('',(0.,0.,1.));
#1887=CARTESIAN_POINT('',(-12.6946748764318,-0.075007878895968,0.));
#1888=AXIS2_PLACEMENT_3D('',#1889,#1890,#1891);
#1889=CARTESIAN_POINT('',(-12.8245786684227,-7.83222600445512E-6,0.));
#1890=DIRECTION('',(0.,0.,1.));
#1891=DIRECTION('',(0.866025238098552,-0.500000286976265,0.));
#1892=CARTESIAN_POINT('',(-12.6946748766092,-0.0750078787935525,0.));
#1893=VECTOR('',#1894,1.);
#1894=DIRECTION('',(0.,0.,1.));
#1895=CARTESIAN_POINT('',(-14.2823890256582,-2.82500735130733,0.));
#1896=CARTESIAN_POINT('',(-14.2823890256582,-2.82500735130733,0.));
#1897=VECTOR('',#1898,1.);
#1898=DIRECTION('',(0.500000286517088,0.866025238363658,0.));
#1899=CARTESIAN_POINT('',(-14.2823890256471,-2.82500735130519,0.));
#1900=VECTOR('',#1901,1.);
#1901=DIRECTION('',(0.,0.,1.));
#1902=CARTESIAN_POINT('',(-14.4122928666216,-2.90000731207136,0.));
#1903=AXIS2_PLACEMENT_3D('',#1904,#1905,#1906);
#1904=CARTESIAN_POINT('',(-14.4122928169954,-2.7500073061093,0.));
#1905=DIRECTION('',(0.,0.,1.));
#1906=DIRECTION('',(-3.30841427019645E-7,-0.999999999999945,0.));
#1907=CARTESIAN_POINT('',(-14.4122928666216,-2.90000731207991,0.));
#1908=VECTOR('',#1909,1.);
#1909=DIRECTION('',(0.,0.,1.));
#1910=CARTESIAN_POINT('',(-17.5877193472215,-2.90000626152585,0.));
#1911=CARTESIAN_POINT('',(-17.5877193472215,-2.90000626152585,0.));
#1912=VECTOR('',#1913,1.);
#1913=DIRECTION('',(0.999999999999945,-3.30841423449188E-7,0.));
#1914=CARTESIAN_POINT('',(-17.58771934741,-2.90000626130812,0.));
#1915=VECTOR('',#1916,1.);
#1916=DIRECTION('',(0.,0.,1.));
#1917=CARTESIAN_POINT('',(-17.7176231391996,-2.82500621452013,0.));
#1918=AXIS2_PLACEMENT_3D('',#1919,#1920,#1921);
#1919=CARTESIAN_POINT('',(-17.5877192975952,-2.75000625390352,0.));
#1920=DIRECTION('',(0.,0.,1.));
#1921=DIRECTION('',(-0.866025569202258,-0.499999713487824,0.));
#1922=CARTESIAN_POINT('',(-17.717623139011,-2.82500621441126,0.));
#1923=VECTOR('',#1924,1.);
#1924=DIRECTION('',(0.,0.,1.));
#1925=CARTESIAN_POINT('',(-19.3053354685514,-0.0750056903192215,0.));
#1926=CARTESIAN_POINT('',(-19.3053354685514,-0.0750056903192215,0.));
#1927=VECTOR('',#1928,1.);
#1928=DIRECTION('',(0.499999713487822,-0.866025569202259,0.));
#1929=CARTESIAN_POINT('',(-19.3053354684623,-0.0750056900619784,0.));
#1930=VECTOR('',#1931,1.);
#1931=DIRECTION('',(0.,0.,1.));
#1932=AXIS2_PLACEMENT_3D('',#1933,#1934,#1935);
#1933=CARTESIAN_POINT('',(-19.1754316265286,-5.72946103486302E-6,0.));
#1934=DIRECTION('',(0.,0.,1.));
#1935=DIRECTION('',(-0.866025238360843,0.500000286521963,0.));
ENDSEC;
END-ISO-10303-21;
