ISO-10303-21;
HEADER;
FILE_DESCRIPTION(('STEP AP242'),
    '1');
FILE_NAME('XLR_HOLDER',
    '',
    ('UNSPECIFIED'),
    ('UNSPECIFIED'),
    'C3D Converter',
    'C3D Toolkit',
    '');
FILE_SCHEMA(('AP242_MANAGED_MODEL_BASED_3D_ENGINEERING_MIM_LF { 1 0 10303 442 1 1 4 }'));
ENDSEC;

DATA;
#1=SHAPE_REPRESENTATION('NONE',(#2),#6);
#2=AXIS2_PLACEMENT_3D('',#3,#4,#5);
#3=CARTESIAN_POINT('',(0.,0.,0.));
#4=DIRECTION('',(0.,0.,1.));
#5=DIRECTION('',(1.,0.,0.));
#6=(GEOMETRIC_REPRESENTATION_CONTEXT(3)GLOBAL_UNCERTAINTY_ASSIGNED_CONTEXT((#8))
GLOBAL_UNIT_ASSIGNED_CONTEXT((#7,#9,#10))REPRESENTATION_CONTEXT('NONE','NONE'));
#7=(LENGTH_UNIT()NAMED_UNIT(*)SI_UNIT(.MILLI.,.METRE.));
#8=UNCERTAINTY_MEASURE_WITH_UNIT(LENGTH_MEASURE(1.E-5),#7,'NONE','NONE');
#9=(NAMED_UNIT(*)PLANE_ANGLE_UNIT()SI_UNIT($,.RADIAN.));
#10=(NAMED_UNIT(*)SI_UNIT($,.STERADIAN.)SOLID_ANGLE_UNIT());
#11=SHAPE_DEFINITION_REPRESENTATION(#12,#1);
#12=PRODUCT_DEFINITION_SHAPE('NONE','NONE',#13);
#13=PRODUCT_DEFINITION('','UNSPECIFIED',#14,#17);
#14=PRODUCT_DEFINITION_FORMATION_WITH_SPECIFIED_SOURCE('ANY','UNSPECIFIED',#15,.NOT_KNOWN.);
#15=PRODUCT('','Part','NONE',(#20));
#16=PRODUCT_RELATED_PRODUCT_CATEGORY('detail','',(#15));
#17=DESIGN_CONTEXT('detailed design',#18,'design');
#18=APPLICATION_CONTEXT('configuration controlled 3d designs of mechanical parts and assemblies');
#19=APPLICATION_PROTOCOL_DEFINITION('international standard','config_control_design',
1994,#18);
#20=MECHANICAL_CONTEXT('NONE',#18,'mechanical');
#21=CC_DESIGN_DATE_AND_TIME_ASSIGNMENT(#22,#26,(#13));
#22=DATE_AND_TIME(#23,#24);
#23=CALENDAR_DATE(0,1,1);
#24=LOCAL_TIME(0,0,0.,#25);
#25=COORDINATED_UNIVERSAL_TIME_OFFSET(0,0,.AHEAD.);
#26=DATE_TIME_ROLE('creation_date');
#27=CC_DESIGN_APPROVAL(#28,(#13));
#28=APPROVAL(#29,'UNSPECIFIED');
#29=APPROVAL_STATUS('not_yet_approved');
#30=APPROVAL_DATE_TIME(#31,#28);
#31=DATE_AND_TIME(#32,#33);
#32=CALENDAR_DATE(0,1,1);
#33=LOCAL_TIME(0,0,0.,#34);
#34=COORDINATED_UNIVERSAL_TIME_OFFSET(0,0,.AHEAD.);
#35=MANIFOLD_SOLID_BREP('',#36);
#36=CLOSED_SHELL('',(#48,#57,#66,#75,#84,#93,#102,#111,#120,#129,#138,#147,#156,
#165,#174,#183,#192,#201,#210,#219,#228,#237,#246,#255,#264,#273,#282,#291,#300,
#309,#318,#327,#336,#345,#354,#363,#372,#381,#390,#399,#408,#417,#426,#435,#444,
#453,#462,#471,#480,#489,#498,#507,#516,#525,#534,#543,#552,#561));
#37=COLOUR_RGB('',1.,0.8,0.6);
#38=FILL_AREA_STYLE_COLOUR('',#37);
#39=FILL_AREA_STYLE($,(#38));
#40=SURFACE_STYLE_FILL_AREA(#39);
#41=SURFACE_SIDE_STYLE('',(#40));
#42=SURFACE_STYLE_USAGE(.BOTH.,#41);
#43=PRESENTATION_STYLE_ASSIGNMENT((#42));
#44=MECHANICAL_DESIGN_GEOMETRIC_PRESENTATION_REPRESENTATION('NONE',(#45,#56,#65,
#74,#83,#92,#101,#110,#119,#128,#137,#146,#155,#164,#173,#182,#191,#200,#209,#218,
#227,#236,#245,#254,#263,#272,#281,#290,#299,#308,#317,#326,#335,#344,#353,#362,
#371,#380,#389,#398,#407,#416,#425,#434,#443,#452,#461,#470,#479,#488,#497,#506,
#515,#524,#533,#542,#551,#560,#569),#6);
#45=STYLED_ITEM('',(#43),#35);
#46=ADVANCED_BREP_SHAPE_REPRESENTATION('NONE',(#35),#6);
#47=SHAPE_REPRESENTATION_RELATIONSHIP('','',#1,#46);
#48=ADVANCED_FACE('',(#570,#572),#574,.F.);
#49=COLOUR_RGB('',1.,0.8,0.6);
#50=FILL_AREA_STYLE_COLOUR('',#49);
#51=FILL_AREA_STYLE($,(#50));
#52=SURFACE_STYLE_FILL_AREA(#51);
#53=SURFACE_SIDE_STYLE('',(#52));
#54=SURFACE_STYLE_USAGE(.BOTH.,#53);
#55=PRESENTATION_STYLE_ASSIGNMENT((#54));
#56=STYLED_ITEM('',(#55),#48);
#57=ADVANCED_FACE('',(#579,#581),#583,.F.);
#58=COLOUR_RGB('',1.,0.8,0.6);
#59=FILL_AREA_STYLE_COLOUR('',#58);
#60=FILL_AREA_STYLE($,(#59));
#61=SURFACE_STYLE_FILL_AREA(#60);
#62=SURFACE_SIDE_STYLE('',(#61));
#63=SURFACE_STYLE_USAGE(.BOTH.,#62);
#64=PRESENTATION_STYLE_ASSIGNMENT((#63));
#65=STYLED_ITEM('',(#64),#57);
#66=ADVANCED_FACE('',(#588,#590),#592,.F.);
#67=COLOUR_RGB('',1.,0.8,0.6);
#68=FILL_AREA_STYLE_COLOUR('',#67);
#69=FILL_AREA_STYLE($,(#68));
#70=SURFACE_STYLE_FILL_AREA(#69);
#71=SURFACE_SIDE_STYLE('',(#70));
#72=SURFACE_STYLE_USAGE(.BOTH.,#71);
#73=PRESENTATION_STYLE_ASSIGNMENT((#72));
#74=STYLED_ITEM('',(#73),#66);
#75=ADVANCED_FACE('',(#597,#599),#601,.F.);
#76=COLOUR_RGB('',1.,0.8,0.6);
#77=FILL_AREA_STYLE_COLOUR('',#76);
#78=FILL_AREA_STYLE($,(#77));
#79=SURFACE_STYLE_FILL_AREA(#78);
#80=SURFACE_SIDE_STYLE('',(#79));
#81=SURFACE_STYLE_USAGE(.BOTH.,#80);
#82=PRESENTATION_STYLE_ASSIGNMENT((#81));
#83=STYLED_ITEM('',(#82),#75);
#84=ADVANCED_FACE('',(#606,#608,#610,#612,#614,#616,#618,#620,#622,#624,#626,#628,
#630,#632,#634,#636,#638,#640,#642,#644,#646),#648,.T.);
#85=COLOUR_RGB('',1.,0.8,0.6);
#86=FILL_AREA_STYLE_COLOUR('',#85);
#87=FILL_AREA_STYLE($,(#86));
#88=SURFACE_STYLE_FILL_AREA(#87);
#89=SURFACE_SIDE_STYLE('',(#88));
#90=SURFACE_STYLE_USAGE(.BOTH.,#89);
#91=PRESENTATION_STYLE_ASSIGNMENT((#90));
#92=STYLED_ITEM('',(#91),#84);
#93=ADVANCED_FACE('',(#653,#655),#657,.F.);
#94=COLOUR_RGB('',1.,0.8,0.6);
#95=FILL_AREA_STYLE_COLOUR('',#94);
#96=FILL_AREA_STYLE($,(#95));
#97=SURFACE_STYLE_FILL_AREA(#96);
#98=SURFACE_SIDE_STYLE('',(#97));
#99=SURFACE_STYLE_USAGE(.BOTH.,#98);
#100=PRESENTATION_STYLE_ASSIGNMENT((#99));
#101=STYLED_ITEM('',(#100),#93);
#102=ADVANCED_FACE('',(#662,#664),#666,.F.);
#103=COLOUR_RGB('',1.,0.8,0.6);
#104=FILL_AREA_STYLE_COLOUR('',#103);
#105=FILL_AREA_STYLE($,(#104));
#106=SURFACE_STYLE_FILL_AREA(#105);
#107=SURFACE_SIDE_STYLE('',(#106));
#108=SURFACE_STYLE_USAGE(.BOTH.,#107);
#109=PRESENTATION_STYLE_ASSIGNMENT((#108));
#110=STYLED_ITEM('',(#109),#102);
#111=ADVANCED_FACE('',(#671,#673),#675,.F.);
#112=COLOUR_RGB('',1.,0.8,0.6);
#113=FILL_AREA_STYLE_COLOUR('',#112);
#114=FILL_AREA_STYLE($,(#113));
#115=SURFACE_STYLE_FILL_AREA(#114);
#116=SURFACE_SIDE_STYLE('',(#115));
#117=SURFACE_STYLE_USAGE(.BOTH.,#116);
#118=PRESENTATION_STYLE_ASSIGNMENT((#117));
#119=STYLED_ITEM('',(#118),#111);
#120=ADVANCED_FACE('',(#680,#682),#684,.F.);
#121=COLOUR_RGB('',1.,0.8,0.6);
#122=FILL_AREA_STYLE_COLOUR('',#121);
#123=FILL_AREA_STYLE($,(#122));
#124=SURFACE_STYLE_FILL_AREA(#123);
#125=SURFACE_SIDE_STYLE('',(#124));
#126=SURFACE_STYLE_USAGE(.BOTH.,#125);
#127=PRESENTATION_STYLE_ASSIGNMENT((#126));
#128=STYLED_ITEM('',(#127),#120);
#129=ADVANCED_FACE('',(#689,#691),#693,.T.);
#130=COLOUR_RGB('',1.,0.8,0.6);
#131=FILL_AREA_STYLE_COLOUR('',#130);
#132=FILL_AREA_STYLE($,(#131));
#133=SURFACE_STYLE_FILL_AREA(#132);
#134=SURFACE_SIDE_STYLE('',(#133));
#135=SURFACE_STYLE_USAGE(.BOTH.,#134);
#136=PRESENTATION_STYLE_ASSIGNMENT((#135));
#137=STYLED_ITEM('',(#136),#129);
#138=ADVANCED_FACE('',(#698,#700),#702,.T.);
#139=COLOUR_RGB('',1.,0.8,0.6);
#140=FILL_AREA_STYLE_COLOUR('',#139);
#141=FILL_AREA_STYLE($,(#140));
#142=SURFACE_STYLE_FILL_AREA(#141);
#143=SURFACE_SIDE_STYLE('',(#142));
#144=SURFACE_STYLE_USAGE(.BOTH.,#143);
#145=PRESENTATION_STYLE_ASSIGNMENT((#144));
#146=STYLED_ITEM('',(#145),#138);
#147=ADVANCED_FACE('',(#707,#709),#711,.T.);
#148=COLOUR_RGB('',1.,0.8,0.6);
#149=FILL_AREA_STYLE_COLOUR('',#148);
#150=FILL_AREA_STYLE($,(#149));
#151=SURFACE_STYLE_FILL_AREA(#150);
#152=SURFACE_SIDE_STYLE('',(#151));
#153=SURFACE_STYLE_USAGE(.BOTH.,#152);
#154=PRESENTATION_STYLE_ASSIGNMENT((#153));
#155=STYLED_ITEM('',(#154),#147);
#156=ADVANCED_FACE('',(#716,#718),#720,.T.);
#157=COLOUR_RGB('',1.,0.8,0.6);
#158=FILL_AREA_STYLE_COLOUR('',#157);
#159=FILL_AREA_STYLE($,(#158));
#160=SURFACE_STYLE_FILL_AREA(#159);
#161=SURFACE_SIDE_STYLE('',(#160));
#162=SURFACE_STYLE_USAGE(.BOTH.,#161);
#163=PRESENTATION_STYLE_ASSIGNMENT((#162));
#164=STYLED_ITEM('',(#163),#156);
#165=ADVANCED_FACE('',(#725),#727,.T.);
#166=COLOUR_RGB('',1.,0.8,0.6);
#167=FILL_AREA_STYLE_COLOUR('',#166);
#168=FILL_AREA_STYLE($,(#167));
#169=SURFACE_STYLE_FILL_AREA(#168);
#170=SURFACE_SIDE_STYLE('',(#169));
#171=SURFACE_STYLE_USAGE(.BOTH.,#170);
#172=PRESENTATION_STYLE_ASSIGNMENT((#171));
#173=STYLED_ITEM('',(#172),#165);
#174=ADVANCED_FACE('',(#732),#734,.T.);
#175=COLOUR_RGB('',1.,0.8,0.6);
#176=FILL_AREA_STYLE_COLOUR('',#175);
#177=FILL_AREA_STYLE($,(#176));
#178=SURFACE_STYLE_FILL_AREA(#177);
#179=SURFACE_SIDE_STYLE('',(#178));
#180=SURFACE_STYLE_USAGE(.BOTH.,#179);
#181=PRESENTATION_STYLE_ASSIGNMENT((#180));
#182=STYLED_ITEM('',(#181),#174);
#183=ADVANCED_FACE('',(#739),#741,.T.);
#184=COLOUR_RGB('',1.,0.8,0.6);
#185=FILL_AREA_STYLE_COLOUR('',#184);
#186=FILL_AREA_STYLE($,(#185));
#187=SURFACE_STYLE_FILL_AREA(#186);
#188=SURFACE_SIDE_STYLE('',(#187));
#189=SURFACE_STYLE_USAGE(.BOTH.,#188);
#190=PRESENTATION_STYLE_ASSIGNMENT((#189));
#191=STYLED_ITEM('',(#190),#183);
#192=ADVANCED_FACE('',(#746),#748,.T.);
#193=COLOUR_RGB('',1.,0.8,0.6);
#194=FILL_AREA_STYLE_COLOUR('',#193);
#195=FILL_AREA_STYLE($,(#194));
#196=SURFACE_STYLE_FILL_AREA(#195);
#197=SURFACE_SIDE_STYLE('',(#196));
#198=SURFACE_STYLE_USAGE(.BOTH.,#197);
#199=PRESENTATION_STYLE_ASSIGNMENT((#198));
#200=STYLED_ITEM('',(#199),#192);
#201=ADVANCED_FACE('',(#753,#755),#757,.F.);
#202=COLOUR_RGB('',1.,0.8,0.6);
#203=FILL_AREA_STYLE_COLOUR('',#202);
#204=FILL_AREA_STYLE($,(#203));
#205=SURFACE_STYLE_FILL_AREA(#204);
#206=SURFACE_SIDE_STYLE('',(#205));
#207=SURFACE_STYLE_USAGE(.BOTH.,#206);
#208=PRESENTATION_STYLE_ASSIGNMENT((#207));
#209=STYLED_ITEM('',(#208),#201);
#210=ADVANCED_FACE('',(#762,#764),#766,.F.);
#211=COLOUR_RGB('',1.,0.8,0.6);
#212=FILL_AREA_STYLE_COLOUR('',#211);
#213=FILL_AREA_STYLE($,(#212));
#214=SURFACE_STYLE_FILL_AREA(#213);
#215=SURFACE_SIDE_STYLE('',(#214));
#216=SURFACE_STYLE_USAGE(.BOTH.,#215);
#217=PRESENTATION_STYLE_ASSIGNMENT((#216));
#218=STYLED_ITEM('',(#217),#210);
#219=ADVANCED_FACE('',(#771,#773),#775,.F.);
#220=COLOUR_RGB('',1.,0.8,0.6);
#221=FILL_AREA_STYLE_COLOUR('',#220);
#222=FILL_AREA_STYLE($,(#221));
#223=SURFACE_STYLE_FILL_AREA(#222);
#224=SURFACE_SIDE_STYLE('',(#223));
#225=SURFACE_STYLE_USAGE(.BOTH.,#224);
#226=PRESENTATION_STYLE_ASSIGNMENT((#225));
#227=STYLED_ITEM('',(#226),#219);
#228=ADVANCED_FACE('',(#780,#782),#784,.F.);
#229=COLOUR_RGB('',1.,0.8,0.6);
#230=FILL_AREA_STYLE_COLOUR('',#229);
#231=FILL_AREA_STYLE($,(#230));
#232=SURFACE_STYLE_FILL_AREA(#231);
#233=SURFACE_SIDE_STYLE('',(#232));
#234=SURFACE_STYLE_USAGE(.BOTH.,#233);
#235=PRESENTATION_STYLE_ASSIGNMENT((#234));
#236=STYLED_ITEM('',(#235),#228);
#237=ADVANCED_FACE('',(#789,#791),#793,.F.);
#238=COLOUR_RGB('',1.,0.8,0.6);
#239=FILL_AREA_STYLE_COLOUR('',#238);
#240=FILL_AREA_STYLE($,(#239));
#241=SURFACE_STYLE_FILL_AREA(#240);
#242=SURFACE_SIDE_STYLE('',(#241));
#243=SURFACE_STYLE_USAGE(.BOTH.,#242);
#244=PRESENTATION_STYLE_ASSIGNMENT((#243));
#245=STYLED_ITEM('',(#244),#237);
#246=ADVANCED_FACE('',(#798,#800),#802,.F.);
#247=COLOUR_RGB('',1.,0.8,0.6);
#248=FILL_AREA_STYLE_COLOUR('',#247);
#249=FILL_AREA_STYLE($,(#248));
#250=SURFACE_STYLE_FILL_AREA(#249);
#251=SURFACE_SIDE_STYLE('',(#250));
#252=SURFACE_STYLE_USAGE(.BOTH.,#251);
#253=PRESENTATION_STYLE_ASSIGNMENT((#252));
#254=STYLED_ITEM('',(#253),#246);
#255=ADVANCED_FACE('',(#807,#809),#811,.F.);
#256=COLOUR_RGB('',1.,0.8,0.6);
#257=FILL_AREA_STYLE_COLOUR('',#256);
#258=FILL_AREA_STYLE($,(#257));
#259=SURFACE_STYLE_FILL_AREA(#258);
#260=SURFACE_SIDE_STYLE('',(#259));
#261=SURFACE_STYLE_USAGE(.BOTH.,#260);
#262=PRESENTATION_STYLE_ASSIGNMENT((#261));
#263=STYLED_ITEM('',(#262),#255);
#264=ADVANCED_FACE('',(#816,#818),#820,.F.);
#265=COLOUR_RGB('',1.,0.8,0.6);
#266=FILL_AREA_STYLE_COLOUR('',#265);
#267=FILL_AREA_STYLE($,(#266));
#268=SURFACE_STYLE_FILL_AREA(#267);
#269=SURFACE_SIDE_STYLE('',(#268));
#270=SURFACE_STYLE_USAGE(.BOTH.,#269);
#271=PRESENTATION_STYLE_ASSIGNMENT((#270));
#272=STYLED_ITEM('',(#271),#264);
#273=ADVANCED_FACE('',(#825,#827),#829,.F.);
#274=COLOUR_RGB('',1.,0.8,0.6);
#275=FILL_AREA_STYLE_COLOUR('',#274);
#276=FILL_AREA_STYLE($,(#275));
#277=SURFACE_STYLE_FILL_AREA(#276);
#278=SURFACE_SIDE_STYLE('',(#277));
#279=SURFACE_STYLE_USAGE(.BOTH.,#278);
#280=PRESENTATION_STYLE_ASSIGNMENT((#279));
#281=STYLED_ITEM('',(#280),#273);
#282=ADVANCED_FACE('',(#834,#836),#838,.F.);
#283=COLOUR_RGB('',1.,0.8,0.6);
#284=FILL_AREA_STYLE_COLOUR('',#283);
#285=FILL_AREA_STYLE($,(#284));
#286=SURFACE_STYLE_FILL_AREA(#285);
#287=SURFACE_SIDE_STYLE('',(#286));
#288=SURFACE_STYLE_USAGE(.BOTH.,#287);
#289=PRESENTATION_STYLE_ASSIGNMENT((#288));
#290=STYLED_ITEM('',(#289),#282);
#291=ADVANCED_FACE('',(#843,#845),#847,.F.);
#292=COLOUR_RGB('',1.,0.8,0.6);
#293=FILL_AREA_STYLE_COLOUR('',#292);
#294=FILL_AREA_STYLE($,(#293));
#295=SURFACE_STYLE_FILL_AREA(#294);
#296=SURFACE_SIDE_STYLE('',(#295));
#297=SURFACE_STYLE_USAGE(.BOTH.,#296);
#298=PRESENTATION_STYLE_ASSIGNMENT((#297));
#299=STYLED_ITEM('',(#298),#291);
#300=ADVANCED_FACE('',(#852,#854),#856,.F.);
#301=COLOUR_RGB('',1.,0.8,0.6);
#302=FILL_AREA_STYLE_COLOUR('',#301);
#303=FILL_AREA_STYLE($,(#302));
#304=SURFACE_STYLE_FILL_AREA(#303);
#305=SURFACE_SIDE_STYLE('',(#304));
#306=SURFACE_STYLE_USAGE(.BOTH.,#305);
#307=PRESENTATION_STYLE_ASSIGNMENT((#306));
#308=STYLED_ITEM('',(#307),#300);
#309=ADVANCED_FACE('',(#861,#863),#865,.F.);
#310=COLOUR_RGB('',1.,0.8,0.6);
#311=FILL_AREA_STYLE_COLOUR('',#310);
#312=FILL_AREA_STYLE($,(#311));
#313=SURFACE_STYLE_FILL_AREA(#312);
#314=SURFACE_SIDE_STYLE('',(#313));
#315=SURFACE_STYLE_USAGE(.BOTH.,#314);
#316=PRESENTATION_STYLE_ASSIGNMENT((#315));
#317=STYLED_ITEM('',(#316),#309);
#318=ADVANCED_FACE('',(#870,#872),#874,.F.);
#319=COLOUR_RGB('',1.,0.8,0.6);
#320=FILL_AREA_STYLE_COLOUR('',#319);
#321=FILL_AREA_STYLE($,(#320));
#322=SURFACE_STYLE_FILL_AREA(#321);
#323=SURFACE_SIDE_STYLE('',(#322));
#324=SURFACE_STYLE_USAGE(.BOTH.,#323);
#325=PRESENTATION_STYLE_ASSIGNMENT((#324));
#326=STYLED_ITEM('',(#325),#318);
#327=ADVANCED_FACE('',(#879,#881),#883,.F.);
#328=COLOUR_RGB('',1.,0.8,0.6);
#329=FILL_AREA_STYLE_COLOUR('',#328);
#330=FILL_AREA_STYLE($,(#329));
#331=SURFACE_STYLE_FILL_AREA(#330);
#332=SURFACE_SIDE_STYLE('',(#331));
#333=SURFACE_STYLE_USAGE(.BOTH.,#332);
#334=PRESENTATION_STYLE_ASSIGNMENT((#333));
#335=STYLED_ITEM('',(#334),#327);
#336=ADVANCED_FACE('',(#888,#890),#892,.F.);
#337=COLOUR_RGB('',1.,0.8,0.6);
#338=FILL_AREA_STYLE_COLOUR('',#337);
#339=FILL_AREA_STYLE($,(#338));
#340=SURFACE_STYLE_FILL_AREA(#339);
#341=SURFACE_SIDE_STYLE('',(#340));
#342=SURFACE_STYLE_USAGE(.BOTH.,#341);
#343=PRESENTATION_STYLE_ASSIGNMENT((#342));
#344=STYLED_ITEM('',(#343),#336);
#345=ADVANCED_FACE('',(#897,#899),#901,.F.);
#346=COLOUR_RGB('',1.,0.8,0.6);
#347=FILL_AREA_STYLE_COLOUR('',#346);
#348=FILL_AREA_STYLE($,(#347));
#349=SURFACE_STYLE_FILL_AREA(#348);
#350=SURFACE_SIDE_STYLE('',(#349));
#351=SURFACE_STYLE_USAGE(.BOTH.,#350);
#352=PRESENTATION_STYLE_ASSIGNMENT((#351));
#353=STYLED_ITEM('',(#352),#345);
#354=ADVANCED_FACE('',(#906,#908),#910,.F.);
#355=COLOUR_RGB('',1.,0.8,0.6);
#356=FILL_AREA_STYLE_COLOUR('',#355);
#357=FILL_AREA_STYLE($,(#356));
#358=SURFACE_STYLE_FILL_AREA(#357);
#359=SURFACE_SIDE_STYLE('',(#358));
#360=SURFACE_STYLE_USAGE(.BOTH.,#359);
#361=PRESENTATION_STYLE_ASSIGNMENT((#360));
#362=STYLED_ITEM('',(#361),#354);
#363=ADVANCED_FACE('',(#915,#917),#919,.F.);
#364=COLOUR_RGB('',1.,0.8,0.6);
#365=FILL_AREA_STYLE_COLOUR('',#364);
#366=FILL_AREA_STYLE($,(#365));
#367=SURFACE_STYLE_FILL_AREA(#366);
#368=SURFACE_SIDE_STYLE('',(#367));
#369=SURFACE_STYLE_USAGE(.BOTH.,#368);
#370=PRESENTATION_STYLE_ASSIGNMENT((#369));
#371=STYLED_ITEM('',(#370),#363);
#372=ADVANCED_FACE('',(#924,#926),#928,.F.);
#373=COLOUR_RGB('',1.,0.8,0.6);
#374=FILL_AREA_STYLE_COLOUR('',#373);
#375=FILL_AREA_STYLE($,(#374));
#376=SURFACE_STYLE_FILL_AREA(#375);
#377=SURFACE_SIDE_STYLE('',(#376));
#378=SURFACE_STYLE_USAGE(.BOTH.,#377);
#379=PRESENTATION_STYLE_ASSIGNMENT((#378));
#380=STYLED_ITEM('',(#379),#372);
#381=ADVANCED_FACE('',(#933,#935),#937,.F.);
#382=COLOUR_RGB('',1.,0.8,0.6);
#383=FILL_AREA_STYLE_COLOUR('',#382);
#384=FILL_AREA_STYLE($,(#383));
#385=SURFACE_STYLE_FILL_AREA(#384);
#386=SURFACE_SIDE_STYLE('',(#385));
#387=SURFACE_STYLE_USAGE(.BOTH.,#386);
#388=PRESENTATION_STYLE_ASSIGNMENT((#387));
#389=STYLED_ITEM('',(#388),#381);
#390=ADVANCED_FACE('',(#942),#944,.T.);
#391=COLOUR_RGB('',1.,0.8,0.6);
#392=FILL_AREA_STYLE_COLOUR('',#391);
#393=FILL_AREA_STYLE($,(#392));
#394=SURFACE_STYLE_FILL_AREA(#393);
#395=SURFACE_SIDE_STYLE('',(#394));
#396=SURFACE_STYLE_USAGE(.BOTH.,#395);
#397=PRESENTATION_STYLE_ASSIGNMENT((#396));
#398=STYLED_ITEM('',(#397),#390);
#399=ADVANCED_FACE('',(#949),#951,.T.);
#400=COLOUR_RGB('',1.,0.8,0.6);
#401=FILL_AREA_STYLE_COLOUR('',#400);
#402=FILL_AREA_STYLE($,(#401));
#403=SURFACE_STYLE_FILL_AREA(#402);
#404=SURFACE_SIDE_STYLE('',(#403));
#405=SURFACE_STYLE_USAGE(.BOTH.,#404);
#406=PRESENTATION_STYLE_ASSIGNMENT((#405));
#407=STYLED_ITEM('',(#406),#399);
#408=ADVANCED_FACE('',(#956),#958,.T.);
#409=COLOUR_RGB('',1.,0.8,0.6);
#410=FILL_AREA_STYLE_COLOUR('',#409);
#411=FILL_AREA_STYLE($,(#410));
#412=SURFACE_STYLE_FILL_AREA(#411);
#413=SURFACE_SIDE_STYLE('',(#412));
#414=SURFACE_STYLE_USAGE(.BOTH.,#413);
#415=PRESENTATION_STYLE_ASSIGNMENT((#414));
#416=STYLED_ITEM('',(#415),#408);
#417=ADVANCED_FACE('',(#963,#965,#967),#969,.F.);
#418=COLOUR_RGB('',1.,0.8,0.6);
#419=FILL_AREA_STYLE_COLOUR('',#418);
#420=FILL_AREA_STYLE($,(#419));
#421=SURFACE_STYLE_FILL_AREA(#420);
#422=SURFACE_SIDE_STYLE('',(#421));
#423=SURFACE_STYLE_USAGE(.BOTH.,#422);
#424=PRESENTATION_STYLE_ASSIGNMENT((#423));
#425=STYLED_ITEM('',(#424),#417);
#426=ADVANCED_FACE('',(#974),#976,.T.);
#427=COLOUR_RGB('',1.,0.8,0.6);
#428=FILL_AREA_STYLE_COLOUR('',#427);
#429=FILL_AREA_STYLE($,(#428));
#430=SURFACE_STYLE_FILL_AREA(#429);
#431=SURFACE_SIDE_STYLE('',(#430));
#432=SURFACE_STYLE_USAGE(.BOTH.,#431);
#433=PRESENTATION_STYLE_ASSIGNMENT((#432));
#434=STYLED_ITEM('',(#433),#426);
#435=ADVANCED_FACE('',(#981),#983,.T.);
#436=COLOUR_RGB('',1.,0.8,0.6);
#437=FILL_AREA_STYLE_COLOUR('',#436);
#438=FILL_AREA_STYLE($,(#437));
#439=SURFACE_STYLE_FILL_AREA(#438);
#440=SURFACE_SIDE_STYLE('',(#439));
#441=SURFACE_STYLE_USAGE(.BOTH.,#440);
#442=PRESENTATION_STYLE_ASSIGNMENT((#441));
#443=STYLED_ITEM('',(#442),#435);
#444=ADVANCED_FACE('',(#988),#990,.T.);
#445=COLOUR_RGB('',1.,0.8,0.6);
#446=FILL_AREA_STYLE_COLOUR('',#445);
#447=FILL_AREA_STYLE($,(#446));
#448=SURFACE_STYLE_FILL_AREA(#447);
#449=SURFACE_SIDE_STYLE('',(#448));
#450=SURFACE_STYLE_USAGE(.BOTH.,#449);
#451=PRESENTATION_STYLE_ASSIGNMENT((#450));
#452=STYLED_ITEM('',(#451),#444);
#453=ADVANCED_FACE('',(#995,#997,#999),#1001,.F.);
#454=COLOUR_RGB('',1.,0.8,0.6);
#455=FILL_AREA_STYLE_COLOUR('',#454);
#456=FILL_AREA_STYLE($,(#455));
#457=SURFACE_STYLE_FILL_AREA(#456);
#458=SURFACE_SIDE_STYLE('',(#457));
#459=SURFACE_STYLE_USAGE(.BOTH.,#458);
#460=PRESENTATION_STYLE_ASSIGNMENT((#459));
#461=STYLED_ITEM('',(#460),#453);
#462=ADVANCED_FACE('',(#1006),#1008,.T.);
#463=COLOUR_RGB('',1.,0.8,0.6);
#464=FILL_AREA_STYLE_COLOUR('',#463);
#465=FILL_AREA_STYLE($,(#464));
#466=SURFACE_STYLE_FILL_AREA(#465);
#467=SURFACE_SIDE_STYLE('',(#466));
#468=SURFACE_STYLE_USAGE(.BOTH.,#467);
#469=PRESENTATION_STYLE_ASSIGNMENT((#468));
#470=STYLED_ITEM('',(#469),#462);
#471=ADVANCED_FACE('',(#1013),#1015,.T.);
#472=COLOUR_RGB('',1.,0.8,0.6);
#473=FILL_AREA_STYLE_COLOUR('',#472);
#474=FILL_AREA_STYLE($,(#473));
#475=SURFACE_STYLE_FILL_AREA(#474);
#476=SURFACE_SIDE_STYLE('',(#475));
#477=SURFACE_STYLE_USAGE(.BOTH.,#476);
#478=PRESENTATION_STYLE_ASSIGNMENT((#477));
#479=STYLED_ITEM('',(#478),#471);
#480=ADVANCED_FACE('',(#1020),#1022,.T.);
#481=COLOUR_RGB('',1.,0.8,0.6);
#482=FILL_AREA_STYLE_COLOUR('',#481);
#483=FILL_AREA_STYLE($,(#482));
#484=SURFACE_STYLE_FILL_AREA(#483);
#485=SURFACE_SIDE_STYLE('',(#484));
#486=SURFACE_STYLE_USAGE(.BOTH.,#485);
#487=PRESENTATION_STYLE_ASSIGNMENT((#486));
#488=STYLED_ITEM('',(#487),#480);
#489=ADVANCED_FACE('',(#1027,#1029,#1031),#1033,.F.);
#490=COLOUR_RGB('',1.,0.8,0.6);
#491=FILL_AREA_STYLE_COLOUR('',#490);
#492=FILL_AREA_STYLE($,(#491));
#493=SURFACE_STYLE_FILL_AREA(#492);
#494=SURFACE_SIDE_STYLE('',(#493));
#495=SURFACE_STYLE_USAGE(.BOTH.,#494);
#496=PRESENTATION_STYLE_ASSIGNMENT((#495));
#497=STYLED_ITEM('',(#496),#489);
#498=ADVANCED_FACE('',(#1038),#1040,.T.);
#499=COLOUR_RGB('',1.,0.8,0.6);
#500=FILL_AREA_STYLE_COLOUR('',#499);
#501=FILL_AREA_STYLE($,(#500));
#502=SURFACE_STYLE_FILL_AREA(#501);
#503=SURFACE_SIDE_STYLE('',(#502));
#504=SURFACE_STYLE_USAGE(.BOTH.,#503);
#505=PRESENTATION_STYLE_ASSIGNMENT((#504));
#506=STYLED_ITEM('',(#505),#498);
#507=ADVANCED_FACE('',(#1045),#1047,.T.);
#508=COLOUR_RGB('',1.,0.8,0.6);
#509=FILL_AREA_STYLE_COLOUR('',#508);
#510=FILL_AREA_STYLE($,(#509));
#511=SURFACE_STYLE_FILL_AREA(#510);
#512=SURFACE_SIDE_STYLE('',(#511));
#513=SURFACE_STYLE_USAGE(.BOTH.,#512);
#514=PRESENTATION_STYLE_ASSIGNMENT((#513));
#515=STYLED_ITEM('',(#514),#507);
#516=ADVANCED_FACE('',(#1052),#1054,.T.);
#517=COLOUR_RGB('',1.,0.8,0.6);
#518=FILL_AREA_STYLE_COLOUR('',#517);
#519=FILL_AREA_STYLE($,(#518));
#520=SURFACE_STYLE_FILL_AREA(#519);
#521=SURFACE_SIDE_STYLE('',(#520));
#522=SURFACE_STYLE_USAGE(.BOTH.,#521);
#523=PRESENTATION_STYLE_ASSIGNMENT((#522));
#524=STYLED_ITEM('',(#523),#516);
#525=ADVANCED_FACE('',(#1059,#1061),#1063,.F.);
#526=COLOUR_RGB('',1.,0.8,0.6);
#527=FILL_AREA_STYLE_COLOUR('',#526);
#528=FILL_AREA_STYLE($,(#527));
#529=SURFACE_STYLE_FILL_AREA(#528);
#530=SURFACE_SIDE_STYLE('',(#529));
#531=SURFACE_STYLE_USAGE(.BOTH.,#530);
#532=PRESENTATION_STYLE_ASSIGNMENT((#531));
#533=STYLED_ITEM('',(#532),#525);
#534=ADVANCED_FACE('',(#1068),#1070,.F.);
#535=COLOUR_RGB('',1.,0.8,0.6);
#536=FILL_AREA_STYLE_COLOUR('',#535);
#537=FILL_AREA_STYLE($,(#536));
#538=SURFACE_STYLE_FILL_AREA(#537);
#539=SURFACE_SIDE_STYLE('',(#538));
#540=SURFACE_STYLE_USAGE(.BOTH.,#539);
#541=PRESENTATION_STYLE_ASSIGNMENT((#540));
#542=STYLED_ITEM('',(#541),#534);
#543=ADVANCED_FACE('',(#1075),#1077,.T.);
#544=COLOUR_RGB('',1.,0.8,0.6);
#545=FILL_AREA_STYLE_COLOUR('',#544);
#546=FILL_AREA_STYLE($,(#545));
#547=SURFACE_STYLE_FILL_AREA(#546);
#548=SURFACE_SIDE_STYLE('',(#547));
#549=SURFACE_STYLE_USAGE(.BOTH.,#548);
#550=PRESENTATION_STYLE_ASSIGNMENT((#549));
#551=STYLED_ITEM('',(#550),#543);
#552=ADVANCED_FACE('',(#1082,#1084,#1086,#1088,#1090,#1092,#1094,#1096,#1098,#1100,
#1102,#1104,#1106),#1108,.F.);
#553=COLOUR_RGB('',1.,0.8,0.6);
#554=FILL_AREA_STYLE_COLOUR('',#553);
#555=FILL_AREA_STYLE($,(#554));
#556=SURFACE_STYLE_FILL_AREA(#555);
#557=SURFACE_SIDE_STYLE('',(#556));
#558=SURFACE_STYLE_USAGE(.BOTH.,#557);
#559=PRESENTATION_STYLE_ASSIGNMENT((#558));
#560=STYLED_ITEM('',(#559),#552);
#561=ADVANCED_FACE('',(#1113),#1115,.T.);
#562=COLOUR_RGB('',1.,0.8,0.6);
#563=FILL_AREA_STYLE_COLOUR('',#562);
#564=FILL_AREA_STYLE($,(#563));
#565=SURFACE_STYLE_FILL_AREA(#564);
#566=SURFACE_SIDE_STYLE('',(#565));
#567=SURFACE_STYLE_USAGE(.BOTH.,#566);
#568=PRESENTATION_STYLE_ASSIGNMENT((#567));
#569=STYLED_ITEM('',(#568),#561);
#570=FACE_OUTER_BOUND('',#571,.T.);
#571=EDGE_LOOP('',(#1120));
#572=FACE_OUTER_BOUND('',#573,.T.);
#573=EDGE_LOOP('',(#1121));
#574=CYLINDRICAL_SURFACE('',#575,1.6);
#575=AXIS2_PLACEMENT_3D('',#576,#577,#578);
#576=CARTESIAN_POINT('',(10.0231762392146,-106.363989375678,0.));
#577=DIRECTION('',(0.,0.,1.));
#578=DIRECTION('',(6.12323399573677E-17,-1.,0.));
#579=FACE_OUTER_BOUND('',#580,.T.);
#580=EDGE_LOOP('',(#1122));
#581=FACE_OUTER_BOUND('',#582,.T.);
#582=EDGE_LOOP('',(#1123));
#583=CYLINDRICAL_SURFACE('',#584,1.6);
#584=AXIS2_PLACEMENT_3D('',#585,#586,#587);
#585=CARTESIAN_POINT('',(10.0231673034167,-74.3599911552229,0.));
#586=DIRECTION('',(0.,0.,1.));
#587=DIRECTION('',(6.12323399573677E-17,-1.,0.));
#588=FACE_OUTER_BOUND('',#589,.T.);
#589=EDGE_LOOP('',(#1124));
#590=FACE_OUTER_BOUND('',#591,.T.);
#591=EDGE_LOOP('',(#1125));
#592=CYLINDRICAL_SURFACE('',#593,1.6);
#593=AXIS2_PLACEMENT_3D('',#594,#595,#596);
#594=CARTESIAN_POINT('',(10.0231618708863,-10.35199890137,0.));
#595=DIRECTION('',(0.,0.,1.));
#596=DIRECTION('',(6.12323399573677E-17,-1.,0.));
#597=FACE_OUTER_BOUND('',#598,.T.);
#598=EDGE_LOOP('',(#1126));
#599=FACE_OUTER_BOUND('',#600,.T.);
#600=EDGE_LOOP('',(#1127));
#601=CYLINDRICAL_SURFACE('',#602,1.6);
#602=AXIS2_PLACEMENT_3D('',#603,#604,#605);
#603=CARTESIAN_POINT('',(10.0231624826896,-42.3559909911244,0.));
#604=DIRECTION('',(0.,0.,1.));
#605=DIRECTION('',(6.12323399573677E-17,-1.,0.));
#606=FACE_BOUND('',#607,.T.);
#607=EDGE_LOOP('',(#1128,#1129,#1130,#1131));
#608=FACE_BOUND('',#609,.T.);
#609=EDGE_LOOP('',(#1132));
#610=FACE_BOUND('',#611,.T.);
#611=EDGE_LOOP('',(#1133));
#612=FACE_BOUND('',#613,.T.);
#613=EDGE_LOOP('',(#1134));
#614=FACE_BOUND('',#615,.T.);
#615=EDGE_LOOP('',(#1135));
#616=FACE_BOUND('',#617,.T.);
#617=EDGE_LOOP('',(#1136));
#618=FACE_BOUND('',#619,.T.);
#619=EDGE_LOOP('',(#1137));
#620=FACE_BOUND('',#621,.T.);
#621=EDGE_LOOP('',(#1138));
#622=FACE_BOUND('',#623,.T.);
#623=EDGE_LOOP('',(#1139));
#624=FACE_BOUND('',#625,.T.);
#625=EDGE_LOOP('',(#1140));
#626=FACE_BOUND('',#627,.T.);
#627=EDGE_LOOP('',(#1141));
#628=FACE_BOUND('',#629,.T.);
#629=EDGE_LOOP('',(#1142));
#630=FACE_BOUND('',#631,.T.);
#631=EDGE_LOOP('',(#1143));
#632=FACE_BOUND('',#633,.T.);
#633=EDGE_LOOP('',(#1144));
#634=FACE_BOUND('',#635,.T.);
#635=EDGE_LOOP('',(#1145));
#636=FACE_BOUND('',#637,.T.);
#637=EDGE_LOOP('',(#1146));
#638=FACE_BOUND('',#639,.T.);
#639=EDGE_LOOP('',(#1147));
#640=FACE_BOUND('',#641,.T.);
#641=EDGE_LOOP('',(#1148));
#642=FACE_BOUND('',#643,.T.);
#643=EDGE_LOOP('',(#1149));
#644=FACE_BOUND('',#645,.T.);
#645=EDGE_LOOP('',(#1150));
#646=FACE_BOUND('',#647,.T.);
#647=EDGE_LOOP('',(#1151));
#648=PLANE('',#649);
#649=AXIS2_PLACEMENT_3D('',#650,#651,#652);
#650=CARTESIAN_POINT('',(0.,0.,9.65));
#651=DIRECTION('',(0.,0.,1.));
#652=DIRECTION('',(-1.,1.22464679914735E-16,0.));
#653=FACE_OUTER_BOUND('',#654,.T.);
#654=EDGE_LOOP('',(#1152));
#655=FACE_OUTER_BOUND('',#656,.T.);
#656=EDGE_LOOP('',(#1153));
#657=CONICAL_SURFACE('',#658,2.4,0.785398163397448);
#658=AXIS2_PLACEMENT_3D('',#659,#660,#661);
#659=CARTESIAN_POINT('',(10.0231618708863,-10.35199890137,8.85));
#660=DIRECTION('',(0.,0.,1.));
#661=DIRECTION('',(6.12323399573677E-17,-1.,0.));
#662=FACE_OUTER_BOUND('',#663,.T.);
#663=EDGE_LOOP('',(#1154));
#664=FACE_OUTER_BOUND('',#665,.T.);
#665=EDGE_LOOP('',(#1155));
#666=CONICAL_SURFACE('',#667,2.4,0.785398163397448);
#667=AXIS2_PLACEMENT_3D('',#668,#669,#670);
#668=CARTESIAN_POINT('',(10.0231762392146,-106.363989375678,8.85));
#669=DIRECTION('',(0.,0.,1.));
#670=DIRECTION('',(6.12323399573677E-17,-1.,0.));
#671=FACE_OUTER_BOUND('',#672,.T.);
#672=EDGE_LOOP('',(#1156));
#673=FACE_OUTER_BOUND('',#674,.T.);
#674=EDGE_LOOP('',(#1157));
#675=CONICAL_SURFACE('',#676,2.4,0.785398163397448);
#676=AXIS2_PLACEMENT_3D('',#677,#678,#679);
#677=CARTESIAN_POINT('',(10.0231673034167,-74.3599911552229,8.85));
#678=DIRECTION('',(0.,0.,1.));
#679=DIRECTION('',(6.12323399573677E-17,-1.,0.));
#680=FACE_OUTER_BOUND('',#681,.T.);
#681=EDGE_LOOP('',(#1158));
#682=FACE_OUTER_BOUND('',#683,.T.);
#683=EDGE_LOOP('',(#1159));
#684=CONICAL_SURFACE('',#685,2.4,0.785398163397448);
#685=AXIS2_PLACEMENT_3D('',#686,#687,#688);
#686=CARTESIAN_POINT('',(10.0231624826896,-42.3559909911244,8.85));
#687=DIRECTION('',(0.,0.,1.));
#688=DIRECTION('',(6.12323399573677E-17,-1.,0.));
#689=FACE_BOUND('',#690,.T.);
#690=EDGE_LOOP('',(#1160));
#691=FACE_BOUND('',#692,.T.);
#692=EDGE_LOOP('',(#1161));
#693=PLANE('',#694);
#694=AXIS2_PLACEMENT_3D('',#695,#696,#697);
#695=CARTESIAN_POINT('',(0.,0.,5.15));
#696=DIRECTION('',(0.,0.,-1.));
#697=DIRECTION('',(-6.12323399573677E-17,1.,0.));
#698=FACE_BOUND('',#699,.T.);
#699=EDGE_LOOP('',(#1162));
#700=FACE_BOUND('',#701,.T.);
#701=EDGE_LOOP('',(#1163));
#702=PLANE('',#703);
#703=AXIS2_PLACEMENT_3D('',#704,#705,#706);
#704=CARTESIAN_POINT('',(0.,0.,5.15));
#705=DIRECTION('',(0.,0.,-1.));
#706=DIRECTION('',(-6.12323399573677E-17,1.,0.));
#707=FACE_BOUND('',#708,.T.);
#708=EDGE_LOOP('',(#1164));
#709=FACE_BOUND('',#710,.T.);
#710=EDGE_LOOP('',(#1165));
#711=PLANE('',#712);
#712=AXIS2_PLACEMENT_3D('',#713,#714,#715);
#713=CARTESIAN_POINT('',(0.,0.,5.15));
#714=DIRECTION('',(0.,0.,-1.));
#715=DIRECTION('',(-6.12323399573677E-17,1.,0.));
#716=FACE_BOUND('',#717,.T.);
#717=EDGE_LOOP('',(#1166));
#718=FACE_BOUND('',#719,.T.);
#719=EDGE_LOOP('',(#1167));
#720=PLANE('',#721);
#721=AXIS2_PLACEMENT_3D('',#722,#723,#724);
#722=CARTESIAN_POINT('',(0.,0.,5.15));
#723=DIRECTION('',(0.,0.,-1.));
#724=DIRECTION('',(-6.12323399573677E-17,1.,0.));
#725=FACE_BOUND('',#726,.T.);
#726=EDGE_LOOP('',(#1168,#1169,#1170,#1171,#1172,#1173,#1174,#1175,#1176,#1177,#1178,
#1179,#1180,#1181,#1182,#1183,#1184,#1185,#1186,#1187));
#727=PLANE('',#728);
#728=AXIS2_PLACEMENT_3D('',#729,#730,#731);
#729=CARTESIAN_POINT('',(-2.0536475215727,19.3526162993033,7.65));
#730=DIRECTION('',(-1.,1.1967522986381E-16,0.));
#731=DIRECTION('',(-1.1967522986381E-16,-1.,0.));
#732=FACE_BOUND('',#733,.T.);
#733=EDGE_LOOP('',(#1188,#1189,#1190,#1191,#1192,#1193,#1194,#1195));
#734=PLANE('',#735);
#735=AXIS2_PLACEMENT_3D('',#736,#737,#738);
#736=CARTESIAN_POINT('',(0.94635247842728,-110.524906078888,0.));
#737=DIRECTION('',(0.,-1.,0.));
#738=DIRECTION('',(1.,0.,0.));
#739=FACE_BOUND('',#740,.T.);
#740=EDGE_LOOP('',(#1196,#1197,#1198,#1199));
#741=PLANE('',#742);
#742=AXIS2_PLACEMENT_3D('',#743,#744,#745);
#743=CARTESIAN_POINT('',(14.2000000000019,-110.524906078888,3.4));
#744=DIRECTION('',(1.,-1.23094522145633E-16,0.));
#745=DIRECTION('',(1.23094522145633E-16,1.,0.));
#746=FACE_BOUND('',#747,.T.);
#747=EDGE_LOOP('',(#1200,#1201,#1202,#1203,#1204,#1205,#1206,#1207));
#748=PLANE('',#749);
#749=AXIS2_PLACEMENT_3D('',#750,#751,#752);
#750=CARTESIAN_POINT('',(6.30000000000007,19.3526162993033,0.));
#751=DIRECTION('',(0.,1.,0.));
#752=DIRECTION('',(-1.,0.,0.));
#753=FACE_OUTER_BOUND('',#754,.T.);
#754=EDGE_LOOP('',(#1208));
#755=FACE_OUTER_BOUND('',#756,.T.);
#756=EDGE_LOOP('',(#1209));
#757=CYLINDRICAL_SURFACE('',#758,0.85);
#758=AXIS2_PLACEMENT_3D('',#759,#760,#761);
#759=CARTESIAN_POINT('',(-4.01490224465173E-13,-32.003997802739,0.));
#760=DIRECTION('',(0.,0.,1.));
#761=DIRECTION('',(-1.,1.22464679914735E-16,0.));
#762=FACE_OUTER_BOUND('',#763,.T.);
#763=EDGE_LOOP('',(#1210));
#764=FACE_OUTER_BOUND('',#765,.T.);
#765=EDGE_LOOP('',(#1211));
#766=CYLINDRICAL_SURFACE('',#767,0.85);
#767=AXIS2_PLACEMENT_3D('',#768,#769,#770);
#768=CARTESIAN_POINT('',(-4.42738937727742E-13,-20.7039978027389,0.));
#769=DIRECTION('',(0.,0.,1.));
#770=DIRECTION('',(-1.,1.22464679914735E-16,0.));
#771=FACE_OUTER_BOUND('',#772,.T.);
#772=EDGE_LOOP('',(#1212));
#773=FACE_OUTER_BOUND('',#774,.T.);
#774=EDGE_LOOP('',(#1213));
#775=CYLINDRICAL_SURFACE('',#776,0.85);
#776=AXIS2_PLACEMENT_3D('',#777,#778,#779);
#777=CARTESIAN_POINT('',(-4.43105583395845E-13,-52.707995605467,0.));
#778=DIRECTION('',(0.,0.,1.));
#779=DIRECTION('',(-1.,1.22464679914735E-16,0.));
#780=FACE_OUTER_BOUND('',#781,.T.);
#781=EDGE_LOOP('',(#1214));
#782=FACE_OUTER_BOUND('',#783,.T.);
#783=EDGE_LOOP('',(#1215));
#784=CYLINDRICAL_SURFACE('',#785,0.85);
#785=AXIS2_PLACEMENT_3D('',#786,#787,#788);
#786=CARTESIAN_POINT('',(3.33066907387547E-16,-4.07889322034067E-32,0.));
#787=DIRECTION('',(0.,0.,1.));
#788=DIRECTION('',(-1.,1.22464679914735E-16,0.));
#789=FACE_OUTER_BOUND('',#790,.T.);
#790=EDGE_LOOP('',(#1216));
#791=FACE_OUTER_BOUND('',#792,.T.);
#792=EDGE_LOOP('',(#1217));
#793=CYLINDRICAL_SURFACE('',#794,0.85);
#794=AXIS2_PLACEMENT_3D('',#795,#796,#797);
#795=CARTESIAN_POINT('',(-4.0915646355182E-14,11.3,0.));
#796=DIRECTION('',(0.,0.,1.));
#797=DIRECTION('',(-1.,1.22464679914735E-16,0.));
#798=FACE_OUTER_BOUND('',#799,.T.);
#799=EDGE_LOOP('',(#1218));
#800=FACE_OUTER_BOUND('',#801,.T.);
#801=EDGE_LOOP('',(#1219));
#802=CYLINDRICAL_SURFACE('',#803,0.85);
#803=AXIS2_PLACEMENT_3D('',#804,#805,#806);
#804=CARTESIAN_POINT('',(-4.01856870133275E-13,-64.0079956054671,0.));
#805=DIRECTION('',(0.,0.,1.));
#806=DIRECTION('',(-1.,1.22464679914735E-16,0.));
#807=FACE_OUTER_BOUND('',#808,.T.);
#808=EDGE_LOOP('',(#1220));
#809=FACE_OUTER_BOUND('',#810,.T.);
#810=EDGE_LOOP('',(#1221));
#811=CYLINDRICAL_SURFACE('',#812,0.85);
#812=AXIS2_PLACEMENT_3D('',#813,#814,#815);
#813=CARTESIAN_POINT('',(-4.02223515801379E-13,-96.0119934082012,0.));
#814=DIRECTION('',(0.,0.,1.));
#815=DIRECTION('',(-1.,1.22464679914735E-16,0.));
#816=FACE_OUTER_BOUND('',#817,.T.);
#817=EDGE_LOOP('',(#1222));
#818=FACE_OUTER_BOUND('',#819,.T.);
#819=EDGE_LOOP('',(#1223));
#820=CYLINDRICAL_SURFACE('',#821,0.85);
#821=AXIS2_PLACEMENT_3D('',#822,#823,#824);
#822=CARTESIAN_POINT('',(-4.43472229063948E-13,-84.7119934082012,0.));
#823=DIRECTION('',(0.,0.,1.));
#824=DIRECTION('',(-1.,1.22464679914735E-16,0.));
#825=FACE_OUTER_BOUND('',#826,.T.);
#826=EDGE_LOOP('',(#1224));
#827=FACE_OUTER_BOUND('',#828,.T.);
#828=EDGE_LOOP('',(#1225));
#829=CYLINDRICAL_SURFACE('',#830,0.7);
#830=AXIS2_PLACEMENT_3D('',#831,#832,#833);
#831=CARTESIAN_POINT('',(13.3499999999997,-54.257995605467,0.));
#832=DIRECTION('',(0.,0.,1.));
#833=DIRECTION('',(-1.,1.22464679914735E-16,0.));
#834=FACE_OUTER_BOUND('',#835,.T.);
#835=EDGE_LOOP('',(#1226));
#836=FACE_OUTER_BOUND('',#837,.T.);
#837=EDGE_LOOP('',(#1227));
#838=CYLINDRICAL_SURFACE('',#839,0.7);
#839=AXIS2_PLACEMENT_3D('',#840,#841,#842);
#840=CARTESIAN_POINT('',(13.3499999999997,-62.457995605467,0.));
#841=DIRECTION('',(0.,0.,1.));
#842=DIRECTION('',(-1.,1.22464679914735E-16,0.));
#843=FACE_OUTER_BOUND('',#844,.T.);
#844=EDGE_LOOP('',(#1228));
#845=FACE_OUTER_BOUND('',#846,.T.);
#846=EDGE_LOOP('',(#1229));
#847=CYLINDRICAL_SURFACE('',#848,0.7);
#848=AXIS2_PLACEMENT_3D('',#849,#850,#851);
#849=CARTESIAN_POINT('',(13.3499999999997,-86.2619934082011,0.));
#850=DIRECTION('',(0.,0.,1.));
#851=DIRECTION('',(-1.,1.22464679914735E-16,0.));
#852=FACE_OUTER_BOUND('',#853,.T.);
#853=EDGE_LOOP('',(#1230));
#854=FACE_OUTER_BOUND('',#855,.T.);
#855=EDGE_LOOP('',(#1231));
#856=CYLINDRICAL_SURFACE('',#857,0.7);
#857=AXIS2_PLACEMENT_3D('',#858,#859,#860);
#858=CARTESIAN_POINT('',(13.3499999999997,-94.4619934082011,0.));
#859=DIRECTION('',(0.,0.,1.));
#860=DIRECTION('',(-1.,1.22464679914735E-16,0.));
#861=FACE_OUTER_BOUND('',#862,.T.);
#862=EDGE_LOOP('',(#1232));
#863=FACE_OUTER_BOUND('',#864,.T.);
#864=EDGE_LOOP('',(#1233));
#865=CYLINDRICAL_SURFACE('',#866,0.7);
#866=AXIS2_PLACEMENT_3D('',#867,#868,#869);
#867=CARTESIAN_POINT('',(13.3500000000001,1.55000000000007,0.));
#868=DIRECTION('',(0.,0.,1.));
#869=DIRECTION('',(-1.,1.22464679914735E-16,0.));
#870=FACE_OUTER_BOUND('',#871,.T.);
#871=EDGE_LOOP('',(#1234));
#872=FACE_OUTER_BOUND('',#873,.T.);
#873=EDGE_LOOP('',(#1235));
#874=CYLINDRICAL_SURFACE('',#875,0.7);
#875=AXIS2_PLACEMENT_3D('',#876,#877,#878);
#876=CARTESIAN_POINT('',(13.3500000000001,9.75000000000008,0.));
#877=DIRECTION('',(0.,0.,1.));
#878=DIRECTION('',(-1.,1.22464679914735E-16,0.));
#879=FACE_OUTER_BOUND('',#880,.T.);
#880=EDGE_LOOP('',(#1236));
#881=FACE_OUTER_BOUND('',#882,.T.);
#882=EDGE_LOOP('',(#1237));
#883=CYLINDRICAL_SURFACE('',#884,0.7);
#884=AXIS2_PLACEMENT_3D('',#885,#886,#887);
#885=CARTESIAN_POINT('',(13.3499999999997,-22.2539978027389,0.));
#886=DIRECTION('',(0.,0.,1.));
#887=DIRECTION('',(-1.,1.22464679914735E-16,0.));
#888=FACE_OUTER_BOUND('',#889,.T.);
#889=EDGE_LOOP('',(#1238));
#890=FACE_OUTER_BOUND('',#891,.T.);
#891=EDGE_LOOP('',(#1239));
#892=CYLINDRICAL_SURFACE('',#893,0.7);
#893=AXIS2_PLACEMENT_3D('',#894,#895,#896);
#894=CARTESIAN_POINT('',(13.3499999999997,-30.4539978027389,0.));
#895=DIRECTION('',(0.,0.,1.));
#896=DIRECTION('',(-1.,1.22464679914735E-16,0.));
#897=FACE_OUTER_BOUND('',#898,.T.);
#898=EDGE_LOOP('',(#1240));
#899=FACE_OUTER_BOUND('',#900,.T.);
#900=EDGE_LOOP('',(#1241));
#901=CYLINDRICAL_SURFACE('',#902,3.5);
#902=AXIS2_PLACEMENT_3D('',#903,#904,#905);
#903=CARTESIAN_POINT('',(10.0231762392146,-106.363989375678,4.15));
#904=DIRECTION('',(0.,0.,-1.));
#905=DIRECTION('',(-6.12323399573677E-17,1.,0.));
#906=FACE_OUTER_BOUND('',#907,.T.);
#907=EDGE_LOOP('',(#1242));
#908=FACE_OUTER_BOUND('',#909,.T.);
#909=EDGE_LOOP('',(#1243));
#910=CYLINDRICAL_SURFACE('',#911,3.5);
#911=AXIS2_PLACEMENT_3D('',#912,#913,#914);
#912=CARTESIAN_POINT('',(10.0231673034167,-74.3599911552229,4.15));
#913=DIRECTION('',(0.,0.,-1.));
#914=DIRECTION('',(-6.12323399573677E-17,1.,0.));
#915=FACE_OUTER_BOUND('',#916,.T.);
#916=EDGE_LOOP('',(#1244));
#917=FACE_OUTER_BOUND('',#918,.T.);
#918=EDGE_LOOP('',(#1245));
#919=CYLINDRICAL_SURFACE('',#920,3.5);
#920=AXIS2_PLACEMENT_3D('',#921,#922,#923);
#921=CARTESIAN_POINT('',(10.0231494318209,-10.3519947143126,4.15));
#922=DIRECTION('',(0.,0.,-1.));
#923=DIRECTION('',(-6.12323399573677E-17,1.,0.));
#924=FACE_OUTER_BOUND('',#925,.T.);
#925=EDGE_LOOP('',(#1246));
#926=FACE_OUTER_BOUND('',#927,.T.);
#927=EDGE_LOOP('',(#1247));
#928=CYLINDRICAL_SURFACE('',#929,3.5);
#929=AXIS2_PLACEMENT_3D('',#930,#931,#932);
#930=CARTESIAN_POINT('',(10.0231583676188,-42.3559929347677,4.15));
#931=DIRECTION('',(0.,0.,-1.));
#932=DIRECTION('',(-6.12323399573677E-17,1.,0.));
#933=FACE_BOUND('',#934,.T.);
#934=EDGE_LOOP('',(#1248,#1249,#1250,#1251));
#935=FACE_BOUND('',#936,.T.);
#936=EDGE_LOOP('',(#1252));
#937=PLANE('',#938);
#938=AXIS2_PLACEMENT_3D('',#939,#940,#941);
#939=CARTESIAN_POINT('',(0.,0.,4.15));
#940=DIRECTION('',(0.,0.,1.));
#941=DIRECTION('',(-1.,1.22464679914735E-16,0.));
#942=FACE_BOUND('',#943,.T.);
#943=EDGE_LOOP('',(#1253,#1254,#1255,#1256));
#944=PLANE('',#945);
#945=AXIS2_PLACEMENT_3D('',#946,#947,#948);
#946=CARTESIAN_POINT('',(0.946352478427294,8.94802307154973,4.15000839363506));
#947=DIRECTION('',(0.,1.,0.));
#948=DIRECTION('',(0.,0.,-1.));
#949=FACE_BOUND('',#950,.T.);
#950=EDGE_LOOP('',(#1257,#1258,#1259,#1260));
#951=PLANE('',#952);
#952=AXIS2_PLACEMENT_3D('',#953,#954,#955);
#953=CARTESIAN_POINT('',(0.946352478427294,8.94802307154973,0.499999999998927));
#954=DIRECTION('',(0.,-5.89107541858422E-17,-1.));
#955=DIRECTION('',(-1.17821508371685E-16,-1.,5.89107541858422E-17));
#956=FACE_BOUND('',#957,.T.);
#957=EDGE_LOOP('',(#1261,#1262,#1263,#1264));
#958=PLANE('',#959);
#959=AXIS2_PLACEMENT_3D('',#960,#961,#962);
#960=CARTESIAN_POINT('',(0.946352478427294,2.35197683196195,0.499999999998927));
#961=DIRECTION('',(-1.48029736616687E-16,-1.,1.2166799688032E-16));
#962=DIRECTION('',(0.,1.2166799688032E-16,1.));
#963=FACE_BOUND('',#964,.T.);
#964=EDGE_LOOP('',(#1265,#1266,#1267,#1268));
#965=FACE_BOUND('',#966,.T.);
#966=EDGE_LOOP('',(#1269));
#967=FACE_BOUND('',#968,.T.);
#968=EDGE_LOOP('',(#1270));
#969=PLANE('',#970);
#970=AXIS2_PLACEMENT_3D('',#971,#972,#973);
#971=CARTESIAN_POINT('',(0.,0.,4.15));
#972=DIRECTION('',(0.,0.,1.));
#973=DIRECTION('',(-1.,1.22464679914735E-16,0.));
#974=FACE_BOUND('',#975,.T.);
#975=EDGE_LOOP('',(#1271,#1272,#1273,#1274));
#976=PLANE('',#977);
#977=AXIS2_PLACEMENT_3D('',#978,#979,#980);
#978=CARTESIAN_POINT('',(0.946352478427291,-23.0559747311903,4.15000559575668));
#979=DIRECTION('',(0.,1.,0.));
#980=DIRECTION('',(0.,0.,-1.));
#981=FACE_BOUND('',#982,.T.);
#982=EDGE_LOOP('',(#1275,#1276,#1277,#1278));
#983=PLANE('',#984);
#984=AXIS2_PLACEMENT_3D('',#985,#986,#987);
#985=CARTESIAN_POINT('',(0.946352478427291,-23.0559747311903,0.499997202120544));
#986=DIRECTION('',(-1.3684555315672E-48,-6.73265762123911E-17,-1.));
#987=DIRECTION('',(-1.34653152424782E-16,-1.,6.73265762123911E-17));
#988=FACE_BOUND('',#989,.T.);
#989=EDGE_LOOP('',(#1279,#1280,#1281,#1282));
#990=PLANE('',#991);
#991=AXIS2_PLACEMENT_3D('',#992,#993,#994);
#992=CARTESIAN_POINT('',(0.94635247842729,-29.652020970778,0.499997202120545));
#993=DIRECTION('',(0.,-1.,0.));
#994=DIRECTION('',(0.,0.,1.));
#995=FACE_BOUND('',#996,.T.);
#996=EDGE_LOOP('',(#1283,#1284,#1285,#1286));
#997=FACE_BOUND('',#998,.T.);
#998=EDGE_LOOP('',(#1287));
#999=FACE_BOUND('',#1000,.T.);
#1000=EDGE_LOOP('',(#1288));
#1001=PLANE('',#1002);
#1002=AXIS2_PLACEMENT_3D('',#1003,#1004,#1005);
#1003=CARTESIAN_POINT('',(0.,0.,4.15));
#1004=DIRECTION('',(0.,0.,1.));
#1005=DIRECTION('',(-1.,1.22464679914735E-16,0.));
#1006=FACE_BOUND('',#1007,.T.);
#1007=EDGE_LOOP('',(#1289,#1290,#1291,#1292));
#1008=PLANE('',#1009);
#1009=AXIS2_PLACEMENT_3D('',#1010,#1011,#1012);
#1010=CARTESIAN_POINT('',(0.946352478427287,-55.0599725339183,4.15000279787835));
#1011=DIRECTION('',(0.,1.,0.));
#1012=DIRECTION('',(0.,0.,-1.));
#1013=FACE_BOUND('',#1014,.T.);
#1014=EDGE_LOOP('',(#1293,#1294,#1295,#1296));
#1015=PLANE('',#1016);
#1016=AXIS2_PLACEMENT_3D('',#1017,#1018,#1019);
#1017=CARTESIAN_POINT('',(0.946352478427287,-55.0599725339183,0.499994404242223));
#1018=DIRECTION('',(0.,-5.89107541858422E-17,-1.));
#1019=DIRECTION('',(-1.17821508371685E-16,-1.,5.89107541858422E-17));
#1020=FACE_BOUND('',#1021,.T.);
#1021=EDGE_LOOP('',(#1297,#1298,#1299,#1300));
#1022=PLANE('',#1023);
#1023=AXIS2_PLACEMENT_3D('',#1024,#1025,#1026);
#1024=CARTESIAN_POINT('',(0.946352478427286,-61.656018773506,0.499994404242223));
#1025=DIRECTION('',(0.,-1.,0.));
#1026=DIRECTION('',(0.,0.,1.));
#1027=FACE_BOUND('',#1028,.T.);
#1028=EDGE_LOOP('',(#1301,#1302,#1303,#1304));
#1029=FACE_BOUND('',#1030,.T.);
#1030=EDGE_LOOP('',(#1305));
#1031=FACE_BOUND('',#1032,.T.);
#1032=EDGE_LOOP('',(#1306));
#1033=PLANE('',#1034);
#1034=AXIS2_PLACEMENT_3D('',#1035,#1036,#1037);
#1035=CARTESIAN_POINT('',(0.,0.,4.15));
#1036=DIRECTION('',(0.,0.,1.));
#1037=DIRECTION('',(-1.,1.22464679914735E-16,0.));
#1038=FACE_BOUND('',#1039,.T.);
#1039=EDGE_LOOP('',(#1307,#1308,#1309,#1310));
#1040=PLANE('',#1041);
#1041=AXIS2_PLACEMENT_3D('',#1042,#1043,#1044);
#1042=CARTESIAN_POINT('',(0.946352478427283,-87.0639703366523,4.15));
#1043=DIRECTION('',(0.,1.,0.));
#1044=DIRECTION('',(0.,0.,-1.));
#1045=FACE_BOUND('',#1046,.T.);
#1046=EDGE_LOOP('',(#1311,#1312,#1313,#1314));
#1047=PLANE('',#1048);
#1048=AXIS2_PLACEMENT_3D('',#1049,#1050,#1051);
#1049=CARTESIAN_POINT('',(0.946352478427283,-87.0639703366523,0.499991606363869));
#1050=DIRECTION('',(0.,-5.89107541858422E-17,-1.));
#1051=DIRECTION('',(-1.17821508371685E-16,-1.,5.89107541858422E-17));
#1052=FACE_BOUND('',#1053,.T.);
#1053=EDGE_LOOP('',(#1315,#1316,#1317,#1318));
#1054=PLANE('',#1055);
#1055=AXIS2_PLACEMENT_3D('',#1056,#1057,#1058);
#1056=CARTESIAN_POINT('',(0.946352478427282,-93.6600165762401,0.499991606363869));
#1057=DIRECTION('',(0.,-1.,0.));
#1058=DIRECTION('',(0.,0.,1.));
#1059=FACE_BOUND('',#1060,.T.);
#1060=EDGE_LOOP('',(#1319,#1320,#1321,#1322));
#1061=FACE_BOUND('',#1062,.T.);
#1062=EDGE_LOOP('',(#1323));
#1063=PLANE('',#1064);
#1064=AXIS2_PLACEMENT_3D('',#1065,#1066,#1067);
#1065=CARTESIAN_POINT('',(0.,0.,4.15));
#1066=DIRECTION('',(0.,0.,1.));
#1067=DIRECTION('',(-1.,1.22464679914735E-16,0.));
#1068=FACE_BOUND('',#1069,.T.);
#1069=EDGE_LOOP('',(#1324,#1325,#1326,#1327));
#1070=PLANE('',#1071);
#1071=AXIS2_PLACEMENT_3D('',#1072,#1073,#1074);
#1072=CARTESIAN_POINT('',(0.,0.,0.));
#1073=DIRECTION('',(0.,0.,1.));
#1074=DIRECTION('',(-1.,1.22464679914735E-16,0.));
#1075=FACE_BOUND('',#1076,.T.);
#1076=EDGE_LOOP('',(#1328,#1329,#1330,#1331));
#1077=PLANE('',#1078);
#1078=AXIS2_PLACEMENT_3D('',#1079,#1080,#1081);
#1079=CARTESIAN_POINT('',(6.30000000000188,-110.524906078888,0.));
#1080=DIRECTION('',(1.,-1.23094522145633E-16,0.));
#1081=DIRECTION('',(1.23094522145633E-16,1.,0.));
#1082=FACE_BOUND('',#1083,.T.);
#1083=EDGE_LOOP('',(#1332,#1333,#1334,#1335));
#1084=FACE_BOUND('',#1085,.T.);
#1085=EDGE_LOOP('',(#1336));
#1086=FACE_BOUND('',#1087,.T.);
#1087=EDGE_LOOP('',(#1337));
#1088=FACE_BOUND('',#1089,.T.);
#1089=EDGE_LOOP('',(#1338));
#1090=FACE_BOUND('',#1091,.T.);
#1091=EDGE_LOOP('',(#1339));
#1092=FACE_BOUND('',#1093,.T.);
#1093=EDGE_LOOP('',(#1340));
#1094=FACE_BOUND('',#1095,.T.);
#1095=EDGE_LOOP('',(#1341));
#1096=FACE_BOUND('',#1097,.T.);
#1097=EDGE_LOOP('',(#1342));
#1098=FACE_BOUND('',#1099,.T.);
#1099=EDGE_LOOP('',(#1343));
#1100=FACE_BOUND('',#1101,.T.);
#1101=EDGE_LOOP('',(#1344));
#1102=FACE_BOUND('',#1103,.T.);
#1103=EDGE_LOOP('',(#1345));
#1104=FACE_BOUND('',#1105,.T.);
#1105=EDGE_LOOP('',(#1346));
#1106=FACE_BOUND('',#1107,.T.);
#1107=EDGE_LOOP('',(#1347));
#1108=PLANE('',#1109);
#1109=AXIS2_PLACEMENT_3D('',#1110,#1111,#1112);
#1110=CARTESIAN_POINT('',(0.,0.,3.4));
#1111=DIRECTION('',(0.,0.,1.));
#1112=DIRECTION('',(-1.,1.22464679914735E-16,0.));
#1113=FACE_BOUND('',#1114,.T.);
#1114=EDGE_LOOP('',(#1348,#1349,#1350,#1351,#1352,#1353,#1354,#1355,#1356,#1357,
#1358,#1359,#1360,#1361,#1362,#1363,#1364,#1365,#1366,#1367));
#1115=PLANE('',#1116);
#1116=AXIS2_PLACEMENT_3D('',#1117,#1118,#1119);
#1117=CARTESIAN_POINT('',(0.946352478427296,19.3526162993033,0.));
#1118=DIRECTION('',(-1.,1.22239699075177E-16,0.));
#1119=DIRECTION('',(-1.22239699075177E-16,-1.,0.));
#1120=ORIENTED_EDGE('',*,*,#1368,.T.);
#1121=ORIENTED_EDGE('',*,*,#1369,.T.);
#1122=ORIENTED_EDGE('',*,*,#1370,.T.);
#1123=ORIENTED_EDGE('',*,*,#1371,.T.);
#1124=ORIENTED_EDGE('',*,*,#1372,.T.);
#1125=ORIENTED_EDGE('',*,*,#1373,.T.);
#1126=ORIENTED_EDGE('',*,*,#1374,.T.);
#1127=ORIENTED_EDGE('',*,*,#1375,.T.);
#1128=ORIENTED_EDGE('',*,*,#1376,.T.);
#1129=ORIENTED_EDGE('',*,*,#1377,.T.);
#1130=ORIENTED_EDGE('',*,*,#1378,.F.);
#1131=ORIENTED_EDGE('',*,*,#1379,.T.);
#1132=ORIENTED_EDGE('',*,*,#1380,.T.);
#1133=ORIENTED_EDGE('',*,*,#1381,.T.);
#1134=ORIENTED_EDGE('',*,*,#1382,.T.);
#1135=ORIENTED_EDGE('',*,*,#1383,.T.);
#1136=ORIENTED_EDGE('',*,*,#1384,.T.);
#1137=ORIENTED_EDGE('',*,*,#1385,.T.);
#1138=ORIENTED_EDGE('',*,*,#1386,.T.);
#1139=ORIENTED_EDGE('',*,*,#1387,.T.);
#1140=ORIENTED_EDGE('',*,*,#1388,.T.);
#1141=ORIENTED_EDGE('',*,*,#1389,.T.);
#1142=ORIENTED_EDGE('',*,*,#1390,.T.);
#1143=ORIENTED_EDGE('',*,*,#1391,.T.);
#1144=ORIENTED_EDGE('',*,*,#1392,.T.);
#1145=ORIENTED_EDGE('',*,*,#1393,.T.);
#1146=ORIENTED_EDGE('',*,*,#1394,.T.);
#1147=ORIENTED_EDGE('',*,*,#1395,.T.);
#1148=ORIENTED_EDGE('',*,*,#1396,.T.);
#1149=ORIENTED_EDGE('',*,*,#1397,.T.);
#1150=ORIENTED_EDGE('',*,*,#1398,.T.);
#1151=ORIENTED_EDGE('',*,*,#1399,.T.);
#1152=ORIENTED_EDGE('',*,*,#1372,.F.);
#1153=ORIENTED_EDGE('',*,*,#1383,.F.);
#1154=ORIENTED_EDGE('',*,*,#1368,.F.);
#1155=ORIENTED_EDGE('',*,*,#1382,.F.);
#1156=ORIENTED_EDGE('',*,*,#1370,.F.);
#1157=ORIENTED_EDGE('',*,*,#1381,.F.);
#1158=ORIENTED_EDGE('',*,*,#1374,.F.);
#1159=ORIENTED_EDGE('',*,*,#1380,.F.);
#1160=ORIENTED_EDGE('',*,*,#1400,.T.);
#1161=ORIENTED_EDGE('',*,*,#1369,.F.);
#1162=ORIENTED_EDGE('',*,*,#1401,.T.);
#1163=ORIENTED_EDGE('',*,*,#1371,.F.);
#1164=ORIENTED_EDGE('',*,*,#1402,.T.);
#1165=ORIENTED_EDGE('',*,*,#1373,.F.);
#1166=ORIENTED_EDGE('',*,*,#1403,.T.);
#1167=ORIENTED_EDGE('',*,*,#1375,.F.);
#1168=ORIENTED_EDGE('',*,*,#1376,.F.);
#1169=ORIENTED_EDGE('',*,*,#1404,.F.);
#1170=ORIENTED_EDGE('',*,*,#1405,.T.);
#1171=ORIENTED_EDGE('',*,*,#1406,.T.);
#1172=ORIENTED_EDGE('',*,*,#1407,.T.);
#1173=ORIENTED_EDGE('',*,*,#1408,.T.);
#1174=ORIENTED_EDGE('',*,*,#1409,.T.);
#1175=ORIENTED_EDGE('',*,*,#1410,.T.);
#1176=ORIENTED_EDGE('',*,*,#1411,.T.);
#1177=ORIENTED_EDGE('',*,*,#1412,.T.);
#1178=ORIENTED_EDGE('',*,*,#1413,.T.);
#1179=ORIENTED_EDGE('',*,*,#1414,.T.);
#1180=ORIENTED_EDGE('',*,*,#1415,.T.);
#1181=ORIENTED_EDGE('',*,*,#1416,.T.);
#1182=ORIENTED_EDGE('',*,*,#1417,.T.);
#1183=ORIENTED_EDGE('',*,*,#1418,.T.);
#1184=ORIENTED_EDGE('',*,*,#1419,.T.);
#1185=ORIENTED_EDGE('',*,*,#1420,.T.);
#1186=ORIENTED_EDGE('',*,*,#1421,.T.);
#1187=ORIENTED_EDGE('',*,*,#1422,.T.);
#1188=ORIENTED_EDGE('',*,*,#1423,.T.);
#1189=ORIENTED_EDGE('',*,*,#1424,.T.);
#1190=ORIENTED_EDGE('',*,*,#1425,.T.);
#1191=ORIENTED_EDGE('',*,*,#1426,.F.);
#1192=ORIENTED_EDGE('',*,*,#1377,.F.);
#1193=ORIENTED_EDGE('',*,*,#1422,.F.);
#1194=ORIENTED_EDGE('',*,*,#1427,.T.);
#1195=ORIENTED_EDGE('',*,*,#1428,.F.);
#1196=ORIENTED_EDGE('',*,*,#1429,.T.);
#1197=ORIENTED_EDGE('',*,*,#1430,.T.);
#1198=ORIENTED_EDGE('',*,*,#1378,.T.);
#1199=ORIENTED_EDGE('',*,*,#1426,.T.);
#1200=ORIENTED_EDGE('',*,*,#1431,.T.);
#1201=ORIENTED_EDGE('',*,*,#1432,.T.);
#1202=ORIENTED_EDGE('',*,*,#1433,.T.);
#1203=ORIENTED_EDGE('',*,*,#1404,.T.);
#1204=ORIENTED_EDGE('',*,*,#1379,.F.);
#1205=ORIENTED_EDGE('',*,*,#1430,.F.);
#1206=ORIENTED_EDGE('',*,*,#1434,.T.);
#1207=ORIENTED_EDGE('',*,*,#1435,.F.);
#1208=ORIENTED_EDGE('',*,*,#1384,.F.);
#1209=ORIENTED_EDGE('',*,*,#1436,.F.);
#1210=ORIENTED_EDGE('',*,*,#1385,.F.);
#1211=ORIENTED_EDGE('',*,*,#1437,.F.);
#1212=ORIENTED_EDGE('',*,*,#1386,.F.);
#1213=ORIENTED_EDGE('',*,*,#1438,.F.);
#1214=ORIENTED_EDGE('',*,*,#1387,.F.);
#1215=ORIENTED_EDGE('',*,*,#1439,.F.);
#1216=ORIENTED_EDGE('',*,*,#1388,.F.);
#1217=ORIENTED_EDGE('',*,*,#1440,.F.);
#1218=ORIENTED_EDGE('',*,*,#1389,.F.);
#1219=ORIENTED_EDGE('',*,*,#1441,.F.);
#1220=ORIENTED_EDGE('',*,*,#1390,.F.);
#1221=ORIENTED_EDGE('',*,*,#1442,.F.);
#1222=ORIENTED_EDGE('',*,*,#1391,.F.);
#1223=ORIENTED_EDGE('',*,*,#1443,.F.);
#1224=ORIENTED_EDGE('',*,*,#1392,.F.);
#1225=ORIENTED_EDGE('',*,*,#1444,.F.);
#1226=ORIENTED_EDGE('',*,*,#1393,.F.);
#1227=ORIENTED_EDGE('',*,*,#1445,.F.);
#1228=ORIENTED_EDGE('',*,*,#1394,.F.);
#1229=ORIENTED_EDGE('',*,*,#1446,.F.);
#1230=ORIENTED_EDGE('',*,*,#1395,.F.);
#1231=ORIENTED_EDGE('',*,*,#1447,.F.);
#1232=ORIENTED_EDGE('',*,*,#1396,.F.);
#1233=ORIENTED_EDGE('',*,*,#1448,.F.);
#1234=ORIENTED_EDGE('',*,*,#1397,.F.);
#1235=ORIENTED_EDGE('',*,*,#1449,.F.);
#1236=ORIENTED_EDGE('',*,*,#1398,.F.);
#1237=ORIENTED_EDGE('',*,*,#1450,.F.);
#1238=ORIENTED_EDGE('',*,*,#1399,.F.);
#1239=ORIENTED_EDGE('',*,*,#1451,.F.);
#1240=ORIENTED_EDGE('',*,*,#1400,.F.);
#1241=ORIENTED_EDGE('',*,*,#1452,.F.);
#1242=ORIENTED_EDGE('',*,*,#1401,.F.);
#1243=ORIENTED_EDGE('',*,*,#1453,.F.);
#1244=ORIENTED_EDGE('',*,*,#1402,.F.);
#1245=ORIENTED_EDGE('',*,*,#1454,.F.);
#1246=ORIENTED_EDGE('',*,*,#1403,.F.);
#1247=ORIENTED_EDGE('',*,*,#1455,.F.);
#1248=ORIENTED_EDGE('',*,*,#1456,.F.);
#1249=ORIENTED_EDGE('',*,*,#1405,.F.);
#1250=ORIENTED_EDGE('',*,*,#1433,.F.);
#1251=ORIENTED_EDGE('',*,*,#1457,.T.);
#1252=ORIENTED_EDGE('',*,*,#1440,.T.);
#1253=ORIENTED_EDGE('',*,*,#1458,.T.);
#1254=ORIENTED_EDGE('',*,*,#1459,.T.);
#1255=ORIENTED_EDGE('',*,*,#1406,.F.);
#1256=ORIENTED_EDGE('',*,*,#1456,.T.);
#1257=ORIENTED_EDGE('',*,*,#1460,.T.);
#1258=ORIENTED_EDGE('',*,*,#1461,.T.);
#1259=ORIENTED_EDGE('',*,*,#1407,.F.);
#1260=ORIENTED_EDGE('',*,*,#1459,.F.);
#1261=ORIENTED_EDGE('',*,*,#1462,.T.);
#1262=ORIENTED_EDGE('',*,*,#1463,.T.);
#1263=ORIENTED_EDGE('',*,*,#1408,.F.);
#1264=ORIENTED_EDGE('',*,*,#1461,.F.);
#1265=ORIENTED_EDGE('',*,*,#1464,.F.);
#1266=ORIENTED_EDGE('',*,*,#1409,.F.);
#1267=ORIENTED_EDGE('',*,*,#1463,.F.);
#1268=ORIENTED_EDGE('',*,*,#1465,.T.);
#1269=ORIENTED_EDGE('',*,*,#1437,.T.);
#1270=ORIENTED_EDGE('',*,*,#1439,.T.);
#1271=ORIENTED_EDGE('',*,*,#1466,.T.);
#1272=ORIENTED_EDGE('',*,*,#1467,.T.);
#1273=ORIENTED_EDGE('',*,*,#1410,.F.);
#1274=ORIENTED_EDGE('',*,*,#1464,.T.);
#1275=ORIENTED_EDGE('',*,*,#1468,.T.);
#1276=ORIENTED_EDGE('',*,*,#1469,.T.);
#1277=ORIENTED_EDGE('',*,*,#1411,.F.);
#1278=ORIENTED_EDGE('',*,*,#1467,.F.);
#1279=ORIENTED_EDGE('',*,*,#1470,.T.);
#1280=ORIENTED_EDGE('',*,*,#1471,.T.);
#1281=ORIENTED_EDGE('',*,*,#1412,.F.);
#1282=ORIENTED_EDGE('',*,*,#1469,.F.);
#1283=ORIENTED_EDGE('',*,*,#1472,.F.);
#1284=ORIENTED_EDGE('',*,*,#1413,.F.);
#1285=ORIENTED_EDGE('',*,*,#1471,.F.);
#1286=ORIENTED_EDGE('',*,*,#1473,.T.);
#1287=ORIENTED_EDGE('',*,*,#1436,.T.);
#1288=ORIENTED_EDGE('',*,*,#1438,.T.);
#1289=ORIENTED_EDGE('',*,*,#1474,.T.);
#1290=ORIENTED_EDGE('',*,*,#1475,.T.);
#1291=ORIENTED_EDGE('',*,*,#1414,.F.);
#1292=ORIENTED_EDGE('',*,*,#1472,.T.);
#1293=ORIENTED_EDGE('',*,*,#1476,.T.);
#1294=ORIENTED_EDGE('',*,*,#1477,.T.);
#1295=ORIENTED_EDGE('',*,*,#1415,.F.);
#1296=ORIENTED_EDGE('',*,*,#1475,.F.);
#1297=ORIENTED_EDGE('',*,*,#1478,.T.);
#1298=ORIENTED_EDGE('',*,*,#1479,.T.);
#1299=ORIENTED_EDGE('',*,*,#1416,.F.);
#1300=ORIENTED_EDGE('',*,*,#1477,.F.);
#1301=ORIENTED_EDGE('',*,*,#1480,.F.);
#1302=ORIENTED_EDGE('',*,*,#1417,.F.);
#1303=ORIENTED_EDGE('',*,*,#1479,.F.);
#1304=ORIENTED_EDGE('',*,*,#1481,.T.);
#1305=ORIENTED_EDGE('',*,*,#1441,.T.);
#1306=ORIENTED_EDGE('',*,*,#1443,.T.);
#1307=ORIENTED_EDGE('',*,*,#1482,.T.);
#1308=ORIENTED_EDGE('',*,*,#1483,.T.);
#1309=ORIENTED_EDGE('',*,*,#1418,.F.);
#1310=ORIENTED_EDGE('',*,*,#1480,.T.);
#1311=ORIENTED_EDGE('',*,*,#1484,.T.);
#1312=ORIENTED_EDGE('',*,*,#1485,.T.);
#1313=ORIENTED_EDGE('',*,*,#1419,.F.);
#1314=ORIENTED_EDGE('',*,*,#1483,.F.);
#1315=ORIENTED_EDGE('',*,*,#1486,.T.);
#1316=ORIENTED_EDGE('',*,*,#1487,.T.);
#1317=ORIENTED_EDGE('',*,*,#1420,.F.);
#1318=ORIENTED_EDGE('',*,*,#1485,.F.);
#1319=ORIENTED_EDGE('',*,*,#1487,.F.);
#1320=ORIENTED_EDGE('',*,*,#1488,.T.);
#1321=ORIENTED_EDGE('',*,*,#1427,.F.);
#1322=ORIENTED_EDGE('',*,*,#1421,.F.);
#1323=ORIENTED_EDGE('',*,*,#1442,.T.);
#1324=ORIENTED_EDGE('',*,*,#1431,.F.);
#1325=ORIENTED_EDGE('',*,*,#1489,.F.);
#1326=ORIENTED_EDGE('',*,*,#1423,.F.);
#1327=ORIENTED_EDGE('',*,*,#1490,.F.);
#1328=ORIENTED_EDGE('',*,*,#1491,.F.);
#1329=ORIENTED_EDGE('',*,*,#1424,.F.);
#1330=ORIENTED_EDGE('',*,*,#1489,.T.);
#1331=ORIENTED_EDGE('',*,*,#1435,.T.);
#1332=ORIENTED_EDGE('',*,*,#1491,.T.);
#1333=ORIENTED_EDGE('',*,*,#1434,.F.);
#1334=ORIENTED_EDGE('',*,*,#1429,.F.);
#1335=ORIENTED_EDGE('',*,*,#1425,.F.);
#1336=ORIENTED_EDGE('',*,*,#1452,.T.);
#1337=ORIENTED_EDGE('',*,*,#1453,.T.);
#1338=ORIENTED_EDGE('',*,*,#1455,.T.);
#1339=ORIENTED_EDGE('',*,*,#1454,.T.);
#1340=ORIENTED_EDGE('',*,*,#1444,.T.);
#1341=ORIENTED_EDGE('',*,*,#1445,.T.);
#1342=ORIENTED_EDGE('',*,*,#1446,.T.);
#1343=ORIENTED_EDGE('',*,*,#1447,.T.);
#1344=ORIENTED_EDGE('',*,*,#1448,.T.);
#1345=ORIENTED_EDGE('',*,*,#1449,.T.);
#1346=ORIENTED_EDGE('',*,*,#1450,.T.);
#1347=ORIENTED_EDGE('',*,*,#1451,.T.);
#1348=ORIENTED_EDGE('',*,*,#1484,.F.);
#1349=ORIENTED_EDGE('',*,*,#1482,.F.);
#1350=ORIENTED_EDGE('',*,*,#1481,.F.);
#1351=ORIENTED_EDGE('',*,*,#1478,.F.);
#1352=ORIENTED_EDGE('',*,*,#1476,.F.);
#1353=ORIENTED_EDGE('',*,*,#1474,.F.);
#1354=ORIENTED_EDGE('',*,*,#1473,.F.);
#1355=ORIENTED_EDGE('',*,*,#1470,.F.);
#1356=ORIENTED_EDGE('',*,*,#1468,.F.);
#1357=ORIENTED_EDGE('',*,*,#1466,.F.);
#1358=ORIENTED_EDGE('',*,*,#1465,.F.);
#1359=ORIENTED_EDGE('',*,*,#1462,.F.);
#1360=ORIENTED_EDGE('',*,*,#1460,.F.);
#1361=ORIENTED_EDGE('',*,*,#1458,.F.);
#1362=ORIENTED_EDGE('',*,*,#1457,.F.);
#1363=ORIENTED_EDGE('',*,*,#1432,.F.);
#1364=ORIENTED_EDGE('',*,*,#1490,.T.);
#1365=ORIENTED_EDGE('',*,*,#1428,.T.);
#1366=ORIENTED_EDGE('',*,*,#1488,.F.);
#1367=ORIENTED_EDGE('',*,*,#1486,.F.);
#1368=EDGE_CURVE('',#1492,#1492,#1493,.T.);
#1369=EDGE_CURVE('',#1494,#1494,#1495,.F.);
#1370=EDGE_CURVE('',#1496,#1496,#1497,.T.);
#1371=EDGE_CURVE('',#1498,#1498,#1499,.F.);
#1372=EDGE_CURVE('',#1500,#1500,#1501,.T.);
#1373=EDGE_CURVE('',#1502,#1502,#1503,.F.);
#1374=EDGE_CURVE('',#1504,#1504,#1505,.T.);
#1375=EDGE_CURVE('',#1506,#1506,#1507,.F.);
#1376=EDGE_CURVE('',#1508,#1509,#1510,.T.);
#1377=EDGE_CURVE('',#1509,#1511,#1512,.T.);
#1378=EDGE_CURVE('',#1513,#1511,#1514,.T.);
#1379=EDGE_CURVE('',#1513,#1508,#1515,.T.);
#1380=EDGE_CURVE('',#1516,#1516,#1517,.F.);
#1381=EDGE_CURVE('',#1518,#1518,#1519,.F.);
#1382=EDGE_CURVE('',#1520,#1520,#1521,.F.);
#1383=EDGE_CURVE('',#1522,#1522,#1523,.F.);
#1384=EDGE_CURVE('',#1524,#1524,#1525,.F.);
#1385=EDGE_CURVE('',#1526,#1526,#1527,.F.);
#1386=EDGE_CURVE('',#1528,#1528,#1529,.F.);
#1387=EDGE_CURVE('',#1530,#1530,#1531,.F.);
#1388=EDGE_CURVE('',#1532,#1532,#1533,.F.);
#1389=EDGE_CURVE('',#1534,#1534,#1535,.F.);
#1390=EDGE_CURVE('',#1536,#1536,#1537,.F.);
#1391=EDGE_CURVE('',#1538,#1538,#1539,.F.);
#1392=EDGE_CURVE('',#1540,#1540,#1541,.F.);
#1393=EDGE_CURVE('',#1542,#1542,#1543,.F.);
#1394=EDGE_CURVE('',#1544,#1544,#1545,.F.);
#1395=EDGE_CURVE('',#1546,#1546,#1547,.F.);
#1396=EDGE_CURVE('',#1548,#1548,#1549,.F.);
#1397=EDGE_CURVE('',#1550,#1550,#1551,.F.);
#1398=EDGE_CURVE('',#1552,#1552,#1553,.F.);
#1399=EDGE_CURVE('',#1554,#1554,#1555,.F.);
#1400=EDGE_CURVE('',#1556,#1556,#1557,.T.);
#1401=EDGE_CURVE('',#1558,#1558,#1559,.T.);
#1402=EDGE_CURVE('',#1560,#1560,#1561,.T.);
#1403=EDGE_CURVE('',#1562,#1562,#1563,.T.);
#1404=EDGE_CURVE('',#1564,#1508,#1565,.T.);
#1405=EDGE_CURVE('',#1564,#1566,#1567,.T.);
#1406=EDGE_CURVE('',#1566,#1568,#1569,.T.);
#1407=EDGE_CURVE('',#1568,#1570,#1571,.T.);
#1408=EDGE_CURVE('',#1570,#1572,#1573,.T.);
#1409=EDGE_CURVE('',#1572,#1574,#1575,.T.);
#1410=EDGE_CURVE('',#1574,#1576,#1577,.T.);
#1411=EDGE_CURVE('',#1576,#1578,#1579,.T.);
#1412=EDGE_CURVE('',#1578,#1580,#1581,.T.);
#1413=EDGE_CURVE('',#1580,#1582,#1583,.T.);
#1414=EDGE_CURVE('',#1582,#1584,#1585,.T.);
#1415=EDGE_CURVE('',#1584,#1586,#1587,.T.);
#1416=EDGE_CURVE('',#1586,#1588,#1589,.T.);
#1417=EDGE_CURVE('',#1588,#1590,#1591,.T.);
#1418=EDGE_CURVE('',#1590,#1592,#1593,.T.);
#1419=EDGE_CURVE('',#1592,#1594,#1595,.T.);
#1420=EDGE_CURVE('',#1594,#1596,#1597,.T.);
#1421=EDGE_CURVE('',#1596,#1598,#1599,.T.);
#1422=EDGE_CURVE('',#1598,#1509,#1600,.T.);
#1423=EDGE_CURVE('',#1601,#1602,#1603,.T.);
#1424=EDGE_CURVE('',#1602,#1604,#1605,.T.);
#1425=EDGE_CURVE('',#1604,#1606,#1607,.T.);
#1426=EDGE_CURVE('',#1511,#1606,#1608,.T.);
#1427=EDGE_CURVE('',#1598,#1609,#1610,.T.);
#1428=EDGE_CURVE('',#1601,#1609,#1611,.T.);
#1429=EDGE_CURVE('',#1606,#1612,#1613,.T.);
#1430=EDGE_CURVE('',#1612,#1513,#1614,.T.);
#1431=EDGE_CURVE('',#1615,#1616,#1617,.T.);
#1432=EDGE_CURVE('',#1616,#1618,#1619,.T.);
#1433=EDGE_CURVE('',#1618,#1564,#1620,.T.);
#1434=EDGE_CURVE('',#1612,#1621,#1622,.T.);
#1435=EDGE_CURVE('',#1615,#1621,#1623,.T.);
#1436=EDGE_CURVE('',#1624,#1624,#1625,.T.);
#1437=EDGE_CURVE('',#1626,#1626,#1627,.T.);
#1438=EDGE_CURVE('',#1628,#1628,#1629,.T.);
#1439=EDGE_CURVE('',#1630,#1630,#1631,.T.);
#1440=EDGE_CURVE('',#1632,#1632,#1633,.T.);
#1441=EDGE_CURVE('',#1634,#1634,#1635,.T.);
#1442=EDGE_CURVE('',#1636,#1636,#1637,.T.);
#1443=EDGE_CURVE('',#1638,#1638,#1639,.T.);
#1444=EDGE_CURVE('',#1640,#1640,#1641,.T.);
#1445=EDGE_CURVE('',#1642,#1642,#1643,.T.);
#1446=EDGE_CURVE('',#1644,#1644,#1645,.T.);
#1447=EDGE_CURVE('',#1646,#1646,#1647,.T.);
#1448=EDGE_CURVE('',#1648,#1648,#1649,.T.);
#1449=EDGE_CURVE('',#1650,#1650,#1651,.T.);
#1450=EDGE_CURVE('',#1652,#1652,#1653,.T.);
#1451=EDGE_CURVE('',#1654,#1654,#1655,.T.);
#1452=EDGE_CURVE('',#1656,#1656,#1657,.F.);
#1453=EDGE_CURVE('',#1658,#1658,#1659,.F.);
#1454=EDGE_CURVE('',#1660,#1660,#1661,.F.);
#1455=EDGE_CURVE('',#1662,#1662,#1663,.F.);
#1456=EDGE_CURVE('',#1566,#1664,#1665,.F.);
#1457=EDGE_CURVE('',#1618,#1664,#1666,.F.);
#1458=EDGE_CURVE('',#1664,#1667,#1668,.T.);
#1459=EDGE_CURVE('',#1667,#1568,#1669,.T.);
#1460=EDGE_CURVE('',#1667,#1670,#1671,.T.);
#1461=EDGE_CURVE('',#1670,#1570,#1672,.T.);
#1462=EDGE_CURVE('',#1670,#1673,#1674,.T.);
#1463=EDGE_CURVE('',#1673,#1572,#1675,.F.);
#1464=EDGE_CURVE('',#1574,#1676,#1677,.F.);
#1465=EDGE_CURVE('',#1673,#1676,#1678,.F.);
#1466=EDGE_CURVE('',#1676,#1679,#1680,.T.);
#1467=EDGE_CURVE('',#1679,#1576,#1681,.T.);
#1468=EDGE_CURVE('',#1679,#1682,#1683,.T.);
#1469=EDGE_CURVE('',#1682,#1578,#1684,.T.);
#1470=EDGE_CURVE('',#1682,#1685,#1686,.T.);
#1471=EDGE_CURVE('',#1685,#1580,#1687,.F.);
#1472=EDGE_CURVE('',#1582,#1688,#1689,.F.);
#1473=EDGE_CURVE('',#1685,#1688,#1690,.F.);
#1474=EDGE_CURVE('',#1688,#1691,#1692,.T.);
#1475=EDGE_CURVE('',#1691,#1584,#1693,.T.);
#1476=EDGE_CURVE('',#1691,#1694,#1695,.T.);
#1477=EDGE_CURVE('',#1694,#1586,#1696,.T.);
#1478=EDGE_CURVE('',#1694,#1697,#1698,.T.);
#1479=EDGE_CURVE('',#1697,#1588,#1699,.F.);
#1480=EDGE_CURVE('',#1590,#1700,#1701,.F.);
#1481=EDGE_CURVE('',#1697,#1700,#1702,.F.);
#1482=EDGE_CURVE('',#1700,#1703,#1704,.T.);
#1483=EDGE_CURVE('',#1703,#1592,#1705,.T.);
#1484=EDGE_CURVE('',#1703,#1706,#1707,.T.);
#1485=EDGE_CURVE('',#1706,#1594,#1708,.T.);
#1486=EDGE_CURVE('',#1706,#1709,#1710,.T.);
#1487=EDGE_CURVE('',#1709,#1596,#1711,.F.);
#1488=EDGE_CURVE('',#1709,#1609,#1712,.F.);
#1489=EDGE_CURVE('',#1602,#1615,#1713,.T.);
#1490=EDGE_CURVE('',#1616,#1601,#1714,.T.);
#1491=EDGE_CURVE('',#1604,#1621,#1715,.F.);
#1492=VERTEX_POINT('',#1716);
#1493=CIRCLE('',#1717,1.6);
#1494=VERTEX_POINT('',#1721);
#1495=CIRCLE('',#1722,1.6);
#1496=VERTEX_POINT('',#1726);
#1497=CIRCLE('',#1727,1.6);
#1498=VERTEX_POINT('',#1731);
#1499=CIRCLE('',#1732,1.6);
#1500=VERTEX_POINT('',#1736);
#1501=CIRCLE('',#1737,1.6);
#1502=VERTEX_POINT('',#1741);
#1503=CIRCLE('',#1742,1.6);
#1504=VERTEX_POINT('',#1746);
#1505=CIRCLE('',#1747,1.6);
#1506=VERTEX_POINT('',#1751);
#1507=CIRCLE('',#1752,1.6);
#1508=VERTEX_POINT('',#1756);
#1509=VERTEX_POINT('',#1757);
#1510=LINE('',#1758,#1759);
#1511=VERTEX_POINT('',#1761);
#1512=LINE('',#1762,#1763);
#1513=VERTEX_POINT('',#1765);
#1514=LINE('',#1766,#1767);
#1515=LINE('',#1769,#1770);
#1516=VERTEX_POINT('',#1772);
#1517=CIRCLE('',#1773,3.2);
#1518=VERTEX_POINT('',#1777);
#1519=CIRCLE('',#1778,3.2);
#1520=VERTEX_POINT('',#1782);
#1521=CIRCLE('',#1783,3.2);
#1522=VERTEX_POINT('',#1787);
#1523=CIRCLE('',#1788,3.2);
#1524=VERTEX_POINT('',#1792);
#1525=CIRCLE('',#1793,0.85);
#1526=VERTEX_POINT('',#1797);
#1527=CIRCLE('',#1798,0.85);
#1528=VERTEX_POINT('',#1802);
#1529=CIRCLE('',#1803,0.85);
#1530=VERTEX_POINT('',#1807);
#1531=CIRCLE('',#1808,0.85);
#1532=VERTEX_POINT('',#1812);
#1533=CIRCLE('',#1813,0.85);
#1534=VERTEX_POINT('',#1817);
#1535=CIRCLE('',#1818,0.85);
#1536=VERTEX_POINT('',#1822);
#1537=CIRCLE('',#1823,0.85);
#1538=VERTEX_POINT('',#1827);
#1539=CIRCLE('',#1828,0.85);
#1540=VERTEX_POINT('',#1832);
#1541=CIRCLE('',#1833,0.7);
#1542=VERTEX_POINT('',#1837);
#1543=CIRCLE('',#1838,0.7);
#1544=VERTEX_POINT('',#1842);
#1545=CIRCLE('',#1843,0.7);
#1546=VERTEX_POINT('',#1847);
#1547=CIRCLE('',#1848,0.7);
#1548=VERTEX_POINT('',#1852);
#1549=CIRCLE('',#1853,0.7);
#1550=VERTEX_POINT('',#1857);
#1551=CIRCLE('',#1858,0.7);
#1552=VERTEX_POINT('',#1862);
#1553=CIRCLE('',#1863,0.7);
#1554=VERTEX_POINT('',#1867);
#1555=CIRCLE('',#1868,0.7);
#1556=VERTEX_POINT('',#1872);
#1557=CIRCLE('',#1873,3.5);
#1558=VERTEX_POINT('',#1877);
#1559=CIRCLE('',#1878,3.5);
#1560=VERTEX_POINT('',#1882);
#1561=CIRCLE('',#1883,3.5);
#1562=VERTEX_POINT('',#1887);
#1563=CIRCLE('',#1888,3.5);
#1564=VERTEX_POINT('',#1892);
#1565=LINE('',#1893,#1894);
#1566=VERTEX_POINT('',#1896);
#1567=LINE('',#1897,#1898);
#1568=VERTEX_POINT('',#1900);
#1569=LINE('',#1901,#1902);
#1570=VERTEX_POINT('',#1904);
#1571=LINE('',#1905,#1906);
#1572=VERTEX_POINT('',#1908);
#1573=LINE('',#1909,#1910);
#1574=VERTEX_POINT('',#1912);
#1575=LINE('',#1913,#1914);
#1576=VERTEX_POINT('',#1916);
#1577=LINE('',#1917,#1918);
#1578=VERTEX_POINT('',#1920);
#1579=LINE('',#1921,#1922);
#1580=VERTEX_POINT('',#1924);
#1581=LINE('',#1925,#1926);
#1582=VERTEX_POINT('',#1928);
#1583=LINE('',#1929,#1930);
#1584=VERTEX_POINT('',#1932);
#1585=LINE('',#1933,#1934);
#1586=VERTEX_POINT('',#1936);
#1587=LINE('',#1937,#1938);
#1588=VERTEX_POINT('',#1940);
#1589=LINE('',#1941,#1942);
#1590=VERTEX_POINT('',#1944);
#1591=LINE('',#1945,#1946);
#1592=VERTEX_POINT('',#1948);
#1593=LINE('',#1949,#1950);
#1594=VERTEX_POINT('',#1952);
#1595=LINE('',#1953,#1954);
#1596=VERTEX_POINT('',#1956);
#1597=LINE('',#1957,#1958);
#1598=VERTEX_POINT('',#1960);
#1599=LINE('',#1961,#1962);
#1600=LINE('',#1964,#1965);
#1601=VERTEX_POINT('',#1967);
#1602=VERTEX_POINT('',#1968);
#1603=LINE('',#1969,#1970);
#1604=VERTEX_POINT('',#1972);
#1605=LINE('',#1973,#1974);
#1606=VERTEX_POINT('',#1976);
#1607=LINE('',#1977,#1978);
#1608=LINE('',#1980,#1981);
#1609=VERTEX_POINT('',#1983);
#1610=LINE('',#1984,#1985);
#1611=LINE('',#1987,#1988);
#1612=VERTEX_POINT('',#1990);
#1613=LINE('',#1991,#1992);
#1614=LINE('',#1994,#1995);
#1615=VERTEX_POINT('',#1997);
#1616=VERTEX_POINT('',#1998);
#1617=LINE('',#1999,#2000);
#1618=VERTEX_POINT('',#2002);
#1619=LINE('',#2003,#2004);
#1620=LINE('',#2006,#2007);
#1621=VERTEX_POINT('',#2009);
#1622=LINE('',#2010,#2011);
#1623=LINE('',#2013,#2014);
#1624=VERTEX_POINT('',#2016);
#1625=CIRCLE('',#2017,0.85);
#1626=VERTEX_POINT('',#2021);
#1627=CIRCLE('',#2022,0.85);
#1628=VERTEX_POINT('',#2026);
#1629=CIRCLE('',#2027,0.85);
#1630=VERTEX_POINT('',#2031);
#1631=CIRCLE('',#2032,0.85);
#1632=VERTEX_POINT('',#2036);
#1633=CIRCLE('',#2037,0.85);
#1634=VERTEX_POINT('',#2041);
#1635=CIRCLE('',#2042,0.85);
#1636=VERTEX_POINT('',#2046);
#1637=CIRCLE('',#2047,0.85);
#1638=VERTEX_POINT('',#2051);
#1639=CIRCLE('',#2052,0.85);
#1640=VERTEX_POINT('',#2056);
#1641=CIRCLE('',#2057,0.7);
#1642=VERTEX_POINT('',#2061);
#1643=CIRCLE('',#2062,0.7);
#1644=VERTEX_POINT('',#2066);
#1645=CIRCLE('',#2067,0.7);
#1646=VERTEX_POINT('',#2071);
#1647=CIRCLE('',#2072,0.7);
#1648=VERTEX_POINT('',#2076);
#1649=CIRCLE('',#2077,0.7);
#1650=VERTEX_POINT('',#2081);
#1651=CIRCLE('',#2082,0.7);
#1652=VERTEX_POINT('',#2086);
#1653=CIRCLE('',#2087,0.7);
#1654=VERTEX_POINT('',#2091);
#1655=CIRCLE('',#2092,0.7);
#1656=VERTEX_POINT('',#2096);
#1657=CIRCLE('',#2097,3.5);
#1658=VERTEX_POINT('',#2101);
#1659=CIRCLE('',#2102,3.5);
#1660=VERTEX_POINT('',#2106);
#1661=CIRCLE('',#2107,3.5);
#1662=VERTEX_POINT('',#2111);
#1663=CIRCLE('',#2112,3.5);
#1664=VERTEX_POINT('',#2116);
#1665=LINE('',#2117,#2118);
#1666=LINE('',#2120,#2121);
#1667=VERTEX_POINT('',#2123);
#1668=LINE('',#2124,#2125);
#1669=LINE('',#2127,#2128);
#1670=VERTEX_POINT('',#2130);
#1671=LINE('',#2131,#2132);
#1672=LINE('',#2134,#2135);
#1673=VERTEX_POINT('',#2137);
#1674=LINE('',#2138,#2139);
#1675=LINE('',#2141,#2142);
#1676=VERTEX_POINT('',#2144);
#1677=LINE('',#2145,#2146);
#1678=LINE('',#2148,#2149);
#1679=VERTEX_POINT('',#2151);
#1680=LINE('',#2152,#2153);
#1681=LINE('',#2155,#2156);
#1682=VERTEX_POINT('',#2158);
#1683=LINE('',#2159,#2160);
#1684=LINE('',#2162,#2163);
#1685=VERTEX_POINT('',#2165);
#1686=LINE('',#2166,#2167);
#1687=LINE('',#2169,#2170);
#1688=VERTEX_POINT('',#2172);
#1689=LINE('',#2173,#2174);
#1690=LINE('',#2176,#2177);
#1691=VERTEX_POINT('',#2179);
#1692=LINE('',#2180,#2181);
#1693=LINE('',#2183,#2184);
#1694=VERTEX_POINT('',#2186);
#1695=LINE('',#2187,#2188);
#1696=LINE('',#2190,#2191);
#1697=VERTEX_POINT('',#2193);
#1698=LINE('',#2194,#2195);
#1699=LINE('',#2197,#2198);
#1700=VERTEX_POINT('',#2200);
#1701=LINE('',#2201,#2202);
#1702=LINE('',#2204,#2205);
#1703=VERTEX_POINT('',#2207);
#1704=LINE('',#2208,#2209);
#1705=LINE('',#2211,#2212);
#1706=VERTEX_POINT('',#2214);
#1707=LINE('',#2215,#2216);
#1708=LINE('',#2218,#2219);
#1709=VERTEX_POINT('',#2221);
#1710=LINE('',#2222,#2223);
#1711=LINE('',#2225,#2226);
#1712=LINE('',#2228,#2229);
#1713=LINE('',#2231,#2232);
#1714=LINE('',#2234,#2235);
#1715=LINE('',#2237,#2238);
#1716=CARTESIAN_POINT('',(10.0231762392146,-107.963989375678,8.04999999999999));
#1717=AXIS2_PLACEMENT_3D('',#1718,#1719,#1720);
#1718=CARTESIAN_POINT('',(10.0231762392146,-106.363989375678,8.04999999999999));
#1719=DIRECTION('',(0.,0.,1.));
#1720=DIRECTION('',(0.,-1.,0.));
#1721=CARTESIAN_POINT('',(10.0231762392146,-107.963989375678,5.15));
#1722=AXIS2_PLACEMENT_3D('',#1723,#1724,#1725);
#1723=CARTESIAN_POINT('',(10.0231762392146,-106.363989375678,5.15));
#1724=DIRECTION('',(0.,0.,1.));
#1725=DIRECTION('',(6.12323399573677E-17,-1.,0.));
#1726=CARTESIAN_POINT('',(10.0231673034167,-75.9599911552229,8.04999999999999));
#1727=AXIS2_PLACEMENT_3D('',#1728,#1729,#1730);
#1728=CARTESIAN_POINT('',(10.0231673034167,-74.3599911552229,8.04999999999999));
#1729=DIRECTION('',(0.,0.,1.));
#1730=DIRECTION('',(0.,-1.,0.));
#1731=CARTESIAN_POINT('',(10.0231673034167,-75.9599911552229,5.15));
#1732=AXIS2_PLACEMENT_3D('',#1733,#1734,#1735);
#1733=CARTESIAN_POINT('',(10.0231673034167,-74.3599911552229,5.15));
#1734=DIRECTION('',(0.,0.,1.));
#1735=DIRECTION('',(6.12323399573677E-17,-1.,0.));
#1736=CARTESIAN_POINT('',(10.0231618708863,-11.95199890137,8.05));
#1737=AXIS2_PLACEMENT_3D('',#1738,#1739,#1740);
#1738=CARTESIAN_POINT('',(10.0231618708863,-10.35199890137,8.05));
#1739=DIRECTION('',(0.,0.,1.));
#1740=DIRECTION('',(0.,-1.,0.));
#1741=CARTESIAN_POINT('',(10.0231618708863,-11.95199890137,5.15));
#1742=AXIS2_PLACEMENT_3D('',#1743,#1744,#1745);
#1743=CARTESIAN_POINT('',(10.0231618708863,-10.35199890137,5.15));
#1744=DIRECTION('',(0.,0.,1.));
#1745=DIRECTION('',(6.12323399573677E-17,-1.,0.));
#1746=CARTESIAN_POINT('',(10.0231624826896,-43.9559909911244,8.05));
#1747=AXIS2_PLACEMENT_3D('',#1748,#1749,#1750);
#1748=CARTESIAN_POINT('',(10.0231624826896,-42.3559909911244,8.05));
#1749=DIRECTION('',(0.,0.,1.));
#1750=DIRECTION('',(0.,-1.,0.));
#1751=CARTESIAN_POINT('',(10.0231624826896,-43.9559909911244,5.15));
#1752=AXIS2_PLACEMENT_3D('',#1753,#1754,#1755);
#1753=CARTESIAN_POINT('',(10.0231624826896,-42.3559909911244,5.15));
#1754=DIRECTION('',(0.,0.,1.));
#1755=DIRECTION('',(6.12323399573677E-17,-1.,0.));
#1756=CARTESIAN_POINT('',(-2.0536475215727,19.3526162993033,9.65));
#1757=CARTESIAN_POINT('',(-2.05364752157272,-110.524906078888,9.65));
#1758=CARTESIAN_POINT('',(-2.0536475215727,19.3526162993033,9.65));
#1759=VECTOR('',#1760,1.);
#1760=DIRECTION('',(-1.1967522986381E-16,-1.,0.));
#1761=CARTESIAN_POINT('',(14.2000000000019,-110.524906078888,9.65));
#1762=CARTESIAN_POINT('',(-2.05364752157272,-110.524906078888,9.65));
#1763=VECTOR('',#1764,1.);
#1764=DIRECTION('',(1.,0.,0.));
#1765=CARTESIAN_POINT('',(14.2000000000019,19.3526162993033,9.65));
#1766=CARTESIAN_POINT('',(14.2000000000019,19.3526162993033,9.65));
#1767=VECTOR('',#1768,1.);
#1768=DIRECTION('',(-1.23094522145633E-16,-1.,0.));
#1769=CARTESIAN_POINT('',(14.2000000000019,19.3526162993033,9.65));
#1770=VECTOR('',#1771,1.);
#1771=DIRECTION('',(-1.,0.,0.));
#1772=CARTESIAN_POINT('',(10.0231624826896,-45.5559909911244,9.65));
#1773=AXIS2_PLACEMENT_3D('',#1774,#1775,#1776);
#1774=CARTESIAN_POINT('',(10.0231624826896,-42.3559909911244,9.65));
#1775=DIRECTION('',(0.,0.,1.));
#1776=DIRECTION('',(6.12323399573676E-17,-1.,0.));
#1777=CARTESIAN_POINT('',(10.0231673034167,-77.5599911552229,9.65));
#1778=AXIS2_PLACEMENT_3D('',#1779,#1780,#1781);
#1779=CARTESIAN_POINT('',(10.0231673034167,-74.3599911552229,9.65));
#1780=DIRECTION('',(0.,0.,1.));
#1781=DIRECTION('',(6.12323399573676E-17,-1.,0.));
#1782=CARTESIAN_POINT('',(10.0231762392146,-109.563989375678,9.65));
#1783=AXIS2_PLACEMENT_3D('',#1784,#1785,#1786);
#1784=CARTESIAN_POINT('',(10.0231762392146,-106.363989375678,9.65));
#1785=DIRECTION('',(0.,0.,1.));
#1786=DIRECTION('',(6.12323399573676E-17,-1.,0.));
#1787=CARTESIAN_POINT('',(10.0231618708863,-13.55199890137,9.65));
#1788=AXIS2_PLACEMENT_3D('',#1789,#1790,#1791);
#1789=CARTESIAN_POINT('',(10.0231618708863,-10.35199890137,9.65));
#1790=DIRECTION('',(0.,0.,1.));
#1791=DIRECTION('',(6.12323399573676E-17,-1.,0.));
#1792=CARTESIAN_POINT('',(-0.850000000000401,-32.003997802739,9.65));
#1793=AXIS2_PLACEMENT_3D('',#1794,#1795,#1796);
#1794=CARTESIAN_POINT('',(-4.01490224465173E-13,-32.003997802739,9.65));
#1795=DIRECTION('',(0.,0.,1.));
#1796=DIRECTION('',(-1.,1.22464679914735E-16,0.));
#1797=CARTESIAN_POINT('',(-0.850000000000443,-20.7039978027389,9.65));
#1798=AXIS2_PLACEMENT_3D('',#1799,#1800,#1801);
#1799=CARTESIAN_POINT('',(-4.42738937727742E-13,-20.7039978027389,9.65));
#1800=DIRECTION('',(0.,0.,1.));
#1801=DIRECTION('',(-1.,1.22464679914735E-16,0.));
#1802=CARTESIAN_POINT('',(-0.850000000000443,-52.707995605467,9.65));
#1803=AXIS2_PLACEMENT_3D('',#1804,#1805,#1806);
#1804=CARTESIAN_POINT('',(-4.43105583395845E-13,-52.707995605467,9.65));
#1805=DIRECTION('',(0.,0.,1.));
#1806=DIRECTION('',(-1.,1.22464679914735E-16,0.));
#1807=CARTESIAN_POINT('',(-0.85,1.04094977927525E-16,9.65));
#1808=AXIS2_PLACEMENT_3D('',#1809,#1810,#1811);
#1809=CARTESIAN_POINT('',(3.33066907387547E-16,-4.07889322034067E-32,9.65));
#1810=DIRECTION('',(0.,0.,1.));
#1811=DIRECTION('',(-1.,1.22464679914735E-16,0.));
#1812=CARTESIAN_POINT('',(-0.850000000000041,11.3,9.65));
#1813=AXIS2_PLACEMENT_3D('',#1814,#1815,#1816);
#1814=CARTESIAN_POINT('',(-4.0915646355182E-14,11.3,9.65));
#1815=DIRECTION('',(0.,0.,1.));
#1816=DIRECTION('',(-1.,1.22464679914735E-16,0.));
#1817=CARTESIAN_POINT('',(-0.850000000000402,-64.0079956054671,9.65));
#1818=AXIS2_PLACEMENT_3D('',#1819,#1820,#1821);
#1819=CARTESIAN_POINT('',(-4.01856870133275E-13,-64.0079956054671,9.65));
#1820=DIRECTION('',(0.,0.,1.));
#1821=DIRECTION('',(-1.,1.22464679914735E-16,0.));
#1822=CARTESIAN_POINT('',(-0.850000000000402,-96.0119934082012,9.65));
#1823=AXIS2_PLACEMENT_3D('',#1824,#1825,#1826);
#1824=CARTESIAN_POINT('',(-4.02223515801379E-13,-96.0119934082012,9.65));
#1825=DIRECTION('',(0.,0.,1.));
#1826=DIRECTION('',(-1.,1.22464679914735E-16,0.));
#1827=CARTESIAN_POINT('',(-0.850000000000443,-84.7119934082012,9.65));
#1828=AXIS2_PLACEMENT_3D('',#1829,#1830,#1831);
#1829=CARTESIAN_POINT('',(-4.43472229063948E-13,-84.7119934082012,9.65));
#1830=DIRECTION('',(0.,0.,1.));
#1831=DIRECTION('',(-1.,1.22464679914735E-16,0.));
#1832=CARTESIAN_POINT('',(12.6499999999997,-54.257995605467,9.65));
#1833=AXIS2_PLACEMENT_3D('',#1834,#1835,#1836);
#1834=CARTESIAN_POINT('',(13.3499999999997,-54.257995605467,9.65));
#1835=DIRECTION('',(0.,0.,1.));
#1836=DIRECTION('',(-1.,1.22464679914735E-16,0.));
#1837=CARTESIAN_POINT('',(12.6499999999997,-62.457995605467,9.65));
#1838=AXIS2_PLACEMENT_3D('',#1839,#1840,#1841);
#1839=CARTESIAN_POINT('',(13.3499999999997,-62.457995605467,9.65));
#1840=DIRECTION('',(0.,0.,1.));
#1841=DIRECTION('',(-1.,1.22464679914735E-16,0.));
#1842=CARTESIAN_POINT('',(12.6499999999997,-86.2619934082011,9.65));
#1843=AXIS2_PLACEMENT_3D('',#1844,#1845,#1846);
#1844=CARTESIAN_POINT('',(13.3499999999997,-86.2619934082011,9.65));
#1845=DIRECTION('',(0.,0.,1.));
#1846=DIRECTION('',(-1.,1.22464679914735E-16,0.));
#1847=CARTESIAN_POINT('',(12.6499999999997,-94.4619934082011,9.65));
#1848=AXIS2_PLACEMENT_3D('',#1849,#1850,#1851);
#1849=CARTESIAN_POINT('',(13.3499999999997,-94.4619934082011,9.65));
#1850=DIRECTION('',(0.,0.,1.));
#1851=DIRECTION('',(-1.,1.22464679914735E-16,0.));
#1852=CARTESIAN_POINT('',(12.6500000000001,1.55000000000007,9.65));
#1853=AXIS2_PLACEMENT_3D('',#1854,#1855,#1856);
#1854=CARTESIAN_POINT('',(13.3500000000001,1.55000000000007,9.65));
#1855=DIRECTION('',(0.,0.,1.));
#1856=DIRECTION('',(-1.,1.22464679914735E-16,0.));
#1857=CARTESIAN_POINT('',(12.6500000000001,9.75000000000008,9.65));
#1858=AXIS2_PLACEMENT_3D('',#1859,#1860,#1861);
#1859=CARTESIAN_POINT('',(13.3500000000001,9.75000000000008,9.65));
#1860=DIRECTION('',(0.,0.,1.));
#1861=DIRECTION('',(-1.,1.22464679914735E-16,0.));
#1862=CARTESIAN_POINT('',(12.6499999999997,-22.2539978027389,9.65));
#1863=AXIS2_PLACEMENT_3D('',#1864,#1865,#1866);
#1864=CARTESIAN_POINT('',(13.3499999999997,-22.2539978027389,9.65));
#1865=DIRECTION('',(0.,0.,1.));
#1866=DIRECTION('',(-1.,1.22464679914735E-16,0.));
#1867=CARTESIAN_POINT('',(12.6499999999997,-30.4539978027389,9.65));
#1868=AXIS2_PLACEMENT_3D('',#1869,#1870,#1871);
#1869=CARTESIAN_POINT('',(13.3499999999997,-30.4539978027389,9.65));
#1870=DIRECTION('',(0.,0.,1.));
#1871=DIRECTION('',(-1.,1.22464679914735E-16,0.));
#1872=CARTESIAN_POINT('',(10.0231762392146,-102.863989375678,5.15));
#1873=AXIS2_PLACEMENT_3D('',#1874,#1875,#1876);
#1874=CARTESIAN_POINT('',(10.0231762392146,-106.363989375678,5.15));
#1875=DIRECTION('',(0.,0.,-1.));
#1876=DIRECTION('',(-6.12323399573677E-17,1.,0.));
#1877=CARTESIAN_POINT('',(10.0231673034167,-70.8599911552229,5.15));
#1878=AXIS2_PLACEMENT_3D('',#1879,#1880,#1881);
#1879=CARTESIAN_POINT('',(10.0231673034167,-74.3599911552229,5.15));
#1880=DIRECTION('',(0.,0.,-1.));
#1881=DIRECTION('',(-6.12323399573677E-17,1.,0.));
#1882=CARTESIAN_POINT('',(10.0231494318209,-6.85199471431257,5.15));
#1883=AXIS2_PLACEMENT_3D('',#1884,#1885,#1886);
#1884=CARTESIAN_POINT('',(10.0231494318209,-10.3519947143126,5.15));
#1885=DIRECTION('',(0.,0.,-1.));
#1886=DIRECTION('',(-6.12323399573677E-17,1.,0.));
#1887=CARTESIAN_POINT('',(10.0231583676188,-38.8559929347677,5.15));
#1888=AXIS2_PLACEMENT_3D('',#1889,#1890,#1891);
#1889=CARTESIAN_POINT('',(10.0231583676188,-42.3559929347677,5.15));
#1890=DIRECTION('',(0.,0.,-1.));
#1891=DIRECTION('',(-6.12323399573677E-17,1.,0.));
#1892=CARTESIAN_POINT('',(-2.0536475215727,19.3526162993033,4.15));
#1893=CARTESIAN_POINT('',(-2.0536475215727,19.3526162993033,4.15));
#1894=VECTOR('',#1895,1.);
#1895=DIRECTION('',(0.,0.,1.));
#1896=CARTESIAN_POINT('',(-2.05364752157271,8.94802307154973,4.15));
#1897=CARTESIAN_POINT('',(-2.0536475215727,19.3526162993033,4.15));
#1898=VECTOR('',#1899,1.);
#1899=DIRECTION('',(-1.28046104291367E-16,-1.,0.));
#1900=CARTESIAN_POINT('',(-2.05364752157272,8.94802307154973,0.499999999998927));
#1901=CARTESIAN_POINT('',(-2.05364752157271,8.94802307154973,4.15));
#1902=VECTOR('',#1903,1.);
#1903=DIRECTION('',(0.,0.,-1.));
#1904=CARTESIAN_POINT('',(-2.05364752157272,2.35197683196195,0.499999999998927));
#1905=CARTESIAN_POINT('',(-2.05364752157271,8.94802307154973,0.499999999998926));
#1906=VECTOR('',#1907,1.);
#1907=DIRECTION('',(-6.73265762123911E-17,-1.,9.25740422920378E-17));
#1908=CARTESIAN_POINT('',(-2.05364752157271,2.35197683196195,4.15));
#1909=CARTESIAN_POINT('',(-2.05364752157271,2.35197683196195,0.499999999998927));
#1910=VECTOR('',#1911,1.);
#1911=DIRECTION('',(0.,1.21668276671214E-16,1.));
#1912=CARTESIAN_POINT('',(-2.05364752157271,-23.0559747311903,4.15));
#1913=CARTESIAN_POINT('',(-2.05364752157271,2.35197683196195,4.15));
#1914=VECTOR('',#1915,1.);
#1915=DIRECTION('',(-1.04870132976977E-16,-1.,0.));
#1916=CARTESIAN_POINT('',(-2.05364752157272,-23.0559747311903,0.499997202120544));
#1917=CARTESIAN_POINT('',(-2.05364752157272,-23.0559747311903,4.15));
#1918=VECTOR('',#1919,1.);
#1919=DIRECTION('',(0.,0.,-1.));
#1920=CARTESIAN_POINT('',(-2.05364752157272,-29.652020970778,0.499997202120545));
#1921=CARTESIAN_POINT('',(-2.05364752157272,-23.0559747311903,0.499997202120545));
#1922=VECTOR('',#1923,1.);
#1923=DIRECTION('',(-1.34653152424782E-16,-1.,3.36632881061956E-17));
#1924=CARTESIAN_POINT('',(-2.05364752157271,-29.652020970778,4.15));
#1925=CARTESIAN_POINT('',(-2.05364752157272,-29.652020970778,0.499997202120545));
#1926=VECTOR('',#1927,1.);
#1927=DIRECTION('',(0.,0.,1.));
#1928=CARTESIAN_POINT('',(-2.05364752157272,-55.0599725339183,4.15));
#1929=CARTESIAN_POINT('',(-2.05364752157271,-29.652020970778,4.15));
#1930=VECTOR('',#1931,1.);
#1931=DIRECTION('',(-1.22348488473198E-16,-1.,0.));
#1932=CARTESIAN_POINT('',(-2.05364752157273,-55.0599725339183,0.499994404242223));
#1933=CARTESIAN_POINT('',(-2.05364752157272,-55.0599725339183,4.15));
#1934=VECTOR('',#1935,1.);
#1935=DIRECTION('',(0.,0.,-1.));
#1936=CARTESIAN_POINT('',(-2.05364752157273,-61.656018773506,0.499994404242223));
#1937=CARTESIAN_POINT('',(-2.05364752157272,-55.0599725339183,0.499994404242223));
#1938=VECTOR('',#1939,1.);
#1939=DIRECTION('',(-1.34653152424782E-16,-1.,3.36632881061956E-17));
#1940=CARTESIAN_POINT('',(-2.05364752157272,-61.656018773506,4.15));
#1941=CARTESIAN_POINT('',(-2.05364752157272,-61.656018773506,0.499994404242223));
#1942=VECTOR('',#1943,1.);
#1943=DIRECTION('',(0.,0.,1.));
#1944=CARTESIAN_POINT('',(-2.05364752157272,-87.0639703366523,4.15));
#1945=CARTESIAN_POINT('',(-2.05364752157271,-61.656018773506,4.15));
#1946=VECTOR('',#1947,1.);
#1947=DIRECTION('',(-1.22348488473169E-16,-1.,0.));
#1948=CARTESIAN_POINT('',(-2.05364752157273,-87.0639703366523,0.499991606363869));
#1949=CARTESIAN_POINT('',(-2.05364752157272,-87.0639703366523,4.15));
#1950=VECTOR('',#1951,1.);
#1951=DIRECTION('',(0.,0.,-1.));
#1952=CARTESIAN_POINT('',(-2.05364752157273,-93.6600165762401,0.499991606363869));
#1953=CARTESIAN_POINT('',(-2.05364752157272,-87.0639703366523,0.499991606363869));
#1954=VECTOR('',#1955,1.);
#1955=DIRECTION('',(-6.73265762123911E-17,-1.,3.36632881061956E-17));
#1956=CARTESIAN_POINT('',(-2.05364752157272,-93.66001657624,4.15));
#1957=CARTESIAN_POINT('',(-2.05364752157272,-93.6600165762401,0.499991606363869));
#1958=VECTOR('',#1959,1.);
#1959=DIRECTION('',(0.,0.,1.));
#1960=CARTESIAN_POINT('',(-2.05364752157272,-110.524906078888,4.15));
#1961=CARTESIAN_POINT('',(-2.05364752157272,-93.6600165762401,4.15));
#1962=VECTOR('',#1963,1.);
#1963=DIRECTION('',(-1.05328697180097E-16,-1.,0.));
#1964=CARTESIAN_POINT('',(-2.05364752157272,-110.524906078888,4.15));
#1965=VECTOR('',#1966,1.);
#1966=DIRECTION('',(0.,0.,1.));
#1967=CARTESIAN_POINT('',(0.94635247842728,-110.524906078888,0.));
#1968=CARTESIAN_POINT('',(6.30000000000188,-110.524906078888,0.));
#1969=CARTESIAN_POINT('',(0.94635247842728,-110.524906078888,0.));
#1970=VECTOR('',#1971,1.);
#1971=DIRECTION('',(1.,0.,0.));
#1972=CARTESIAN_POINT('',(6.30000000000188,-110.524906078888,3.4));
#1973=CARTESIAN_POINT('',(6.30000000000188,-110.524906078888,0.));
#1974=VECTOR('',#1975,1.);
#1975=DIRECTION('',(0.,0.,1.));
#1976=CARTESIAN_POINT('',(14.2000000000019,-110.524906078888,3.4));
#1977=CARTESIAN_POINT('',(6.30000000000188,-110.524906078888,3.4));
#1978=VECTOR('',#1979,1.);
#1979=DIRECTION('',(1.,0.,5.62138240316535E-17));
#1980=CARTESIAN_POINT('',(14.2000000000019,-110.524906078888,9.65));
#1981=VECTOR('',#1982,1.);
#1982=DIRECTION('',(0.,0.,-1.));
#1983=CARTESIAN_POINT('',(0.94635247842728,-110.524906078888,4.15));
#1984=CARTESIAN_POINT('',(-2.05364752157272,-110.524906078888,4.15));
#1985=VECTOR('',#1986,1.);
#1986=DIRECTION('',(1.,0.,0.));
#1987=CARTESIAN_POINT('',(0.94635247842728,-110.524906078888,0.));
#1988=VECTOR('',#1989,1.);
#1989=DIRECTION('',(0.,0.,1.));
#1990=CARTESIAN_POINT('',(14.2000000000019,19.3526162993033,3.4));
#1991=CARTESIAN_POINT('',(14.2000000000019,-110.524906078888,3.4));
#1992=VECTOR('',#1993,1.);
#1993=DIRECTION('',(1.23094522145633E-16,1.,0.));
#1994=CARTESIAN_POINT('',(14.2000000000019,19.3526162993033,3.4));
#1995=VECTOR('',#1996,1.);
#1996=DIRECTION('',(0.,0.,1.));
#1997=CARTESIAN_POINT('',(6.30000000000007,19.3526162993033,0.));
#1998=CARTESIAN_POINT('',(0.946352478427296,19.3526162993033,0.));
#1999=CARTESIAN_POINT('',(6.30000000000007,19.3526162993033,0.));
#2000=VECTOR('',#2001,1.);
#2001=DIRECTION('',(-1.,0.,0.));
#2002=CARTESIAN_POINT('',(0.946352478427296,19.3526162993033,4.15));
#2003=CARTESIAN_POINT('',(0.946352478427296,19.3526162993033,0.));
#2004=VECTOR('',#2005,1.);
#2005=DIRECTION('',(0.,0.,1.));
#2006=CARTESIAN_POINT('',(0.946352478427296,19.3526162993033,4.15));
#2007=VECTOR('',#2008,1.);
#2008=DIRECTION('',(-1.,0.,0.));
#2009=CARTESIAN_POINT('',(6.30000000000159,19.3526162993034,3.4));
#2010=CARTESIAN_POINT('',(14.2000000000019,19.3526162993033,3.4));
#2011=VECTOR('',#2012,1.);
#2012=DIRECTION('',(-1.,0.,0.));
#2013=CARTESIAN_POINT('',(6.30000000000098,19.3526162993034,0.));
#2014=VECTOR('',#2015,1.);
#2015=DIRECTION('',(0.,0.,1.));
#2016=CARTESIAN_POINT('',(-0.850000000000401,-32.003997802739,4.15));
#2017=AXIS2_PLACEMENT_3D('',#2018,#2019,#2020);
#2018=CARTESIAN_POINT('',(-4.01490224465173E-13,-32.003997802739,4.15));
#2019=DIRECTION('',(0.,0.,1.));
#2020=DIRECTION('',(-1.,1.22464679914735E-16,0.));
#2021=CARTESIAN_POINT('',(-0.850000000000443,-20.7039978027389,4.15));
#2022=AXIS2_PLACEMENT_3D('',#2023,#2024,#2025);
#2023=CARTESIAN_POINT('',(-4.42738937727742E-13,-20.7039978027389,4.15));
#2024=DIRECTION('',(0.,0.,1.));
#2025=DIRECTION('',(-1.,1.22464679914735E-16,0.));
#2026=CARTESIAN_POINT('',(-0.850000000000443,-52.707995605467,4.15));
#2027=AXIS2_PLACEMENT_3D('',#2028,#2029,#2030);
#2028=CARTESIAN_POINT('',(-4.43105583395845E-13,-52.707995605467,4.15));
#2029=DIRECTION('',(0.,0.,1.));
#2030=DIRECTION('',(-1.,1.22464679914735E-16,0.));
#2031=CARTESIAN_POINT('',(-0.85,1.04094977927525E-16,4.15));
#2032=AXIS2_PLACEMENT_3D('',#2033,#2034,#2035);
#2033=CARTESIAN_POINT('',(3.33066907387547E-16,-4.07889322034067E-32,4.15));
#2034=DIRECTION('',(0.,0.,1.));
#2035=DIRECTION('',(-1.,1.22464679914735E-16,0.));
#2036=CARTESIAN_POINT('',(-0.850000000000041,11.3,4.15));
#2037=AXIS2_PLACEMENT_3D('',#2038,#2039,#2040);
#2038=CARTESIAN_POINT('',(-4.0915646355182E-14,11.3,4.15));
#2039=DIRECTION('',(0.,0.,1.));
#2040=DIRECTION('',(-1.,1.22464679914735E-16,0.));
#2041=CARTESIAN_POINT('',(-0.850000000000402,-64.0079956054671,4.15));
#2042=AXIS2_PLACEMENT_3D('',#2043,#2044,#2045);
#2043=CARTESIAN_POINT('',(-4.01856870133275E-13,-64.0079956054671,4.15));
#2044=DIRECTION('',(0.,0.,1.));
#2045=DIRECTION('',(-1.,1.22464679914735E-16,0.));
#2046=CARTESIAN_POINT('',(-0.850000000000402,-96.0119934082012,4.15));
#2047=AXIS2_PLACEMENT_3D('',#2048,#2049,#2050);
#2048=CARTESIAN_POINT('',(-4.02223515801379E-13,-96.0119934082012,4.15));
#2049=DIRECTION('',(0.,0.,1.));
#2050=DIRECTION('',(-1.,1.22464679914735E-16,0.));
#2051=CARTESIAN_POINT('',(-0.850000000000443,-84.7119934082012,4.15));
#2052=AXIS2_PLACEMENT_3D('',#2053,#2054,#2055);
#2053=CARTESIAN_POINT('',(-4.43472229063948E-13,-84.7119934082012,4.15));
#2054=DIRECTION('',(0.,0.,1.));
#2055=DIRECTION('',(-1.,1.22464679914735E-16,0.));
#2056=CARTESIAN_POINT('',(12.6499999999997,-54.257995605467,3.4));
#2057=AXIS2_PLACEMENT_3D('',#2058,#2059,#2060);
#2058=CARTESIAN_POINT('',(13.3499999999997,-54.257995605467,3.4));
#2059=DIRECTION('',(0.,0.,1.));
#2060=DIRECTION('',(-1.,1.22464679914735E-16,0.));
#2061=CARTESIAN_POINT('',(12.6499999999997,-62.457995605467,3.4));
#2062=AXIS2_PLACEMENT_3D('',#2063,#2064,#2065);
#2063=CARTESIAN_POINT('',(13.3499999999997,-62.457995605467,3.4));
#2064=DIRECTION('',(0.,0.,1.));
#2065=DIRECTION('',(-1.,1.22464679914735E-16,0.));
#2066=CARTESIAN_POINT('',(12.6499999999997,-86.2619934082011,3.4));
#2067=AXIS2_PLACEMENT_3D('',#2068,#2069,#2070);
#2068=CARTESIAN_POINT('',(13.3499999999997,-86.2619934082011,3.4));
#2069=DIRECTION('',(0.,0.,1.));
#2070=DIRECTION('',(-1.,1.22464679914735E-16,0.));
#2071=CARTESIAN_POINT('',(12.6499999999997,-94.4619934082011,3.4));
#2072=AXIS2_PLACEMENT_3D('',#2073,#2074,#2075);
#2073=CARTESIAN_POINT('',(13.3499999999997,-94.4619934082011,3.4));
#2074=DIRECTION('',(0.,0.,1.));
#2075=DIRECTION('',(-1.,1.22464679914735E-16,0.));
#2076=CARTESIAN_POINT('',(12.6500000000001,1.55000000000007,3.4));
#2077=AXIS2_PLACEMENT_3D('',#2078,#2079,#2080);
#2078=CARTESIAN_POINT('',(13.3500000000001,1.55000000000007,3.4));
#2079=DIRECTION('',(0.,0.,1.));
#2080=DIRECTION('',(-1.,1.22464679914735E-16,0.));
#2081=CARTESIAN_POINT('',(12.6500000000001,9.75000000000008,3.4));
#2082=AXIS2_PLACEMENT_3D('',#2083,#2084,#2085);
#2083=CARTESIAN_POINT('',(13.3500000000001,9.75000000000008,3.4));
#2084=DIRECTION('',(0.,0.,1.));
#2085=DIRECTION('',(-1.,1.22464679914735E-16,0.));
#2086=CARTESIAN_POINT('',(12.6499999999997,-22.2539978027389,3.4));
#2087=AXIS2_PLACEMENT_3D('',#2088,#2089,#2090);
#2088=CARTESIAN_POINT('',(13.3499999999997,-22.2539978027389,3.4));
#2089=DIRECTION('',(0.,0.,1.));
#2090=DIRECTION('',(-1.,1.22464679914735E-16,0.));
#2091=CARTESIAN_POINT('',(12.6499999999997,-30.4539978027389,3.4));
#2092=AXIS2_PLACEMENT_3D('',#2093,#2094,#2095);
#2093=CARTESIAN_POINT('',(13.3499999999997,-30.4539978027389,3.4));
#2094=DIRECTION('',(0.,0.,1.));
#2095=DIRECTION('',(-1.,1.22464679914735E-16,0.));
#2096=CARTESIAN_POINT('',(10.0231762392146,-102.863989375678,3.4));
#2097=AXIS2_PLACEMENT_3D('',#2098,#2099,#2100);
#2098=CARTESIAN_POINT('',(10.0231762392146,-106.363989375678,3.4));
#2099=DIRECTION('',(0.,0.,-1.));
#2100=DIRECTION('',(-6.12323399573676E-17,1.,0.));
#2101=CARTESIAN_POINT('',(10.0231673034167,-70.8599911552229,3.4));
#2102=AXIS2_PLACEMENT_3D('',#2103,#2104,#2105);
#2103=CARTESIAN_POINT('',(10.0231673034167,-74.3599911552229,3.4));
#2104=DIRECTION('',(0.,0.,-1.));
#2105=DIRECTION('',(-6.12323399573676E-17,1.,0.));
#2106=CARTESIAN_POINT('',(10.0231494318209,-6.85199471431257,3.4));
#2107=AXIS2_PLACEMENT_3D('',#2108,#2109,#2110);
#2108=CARTESIAN_POINT('',(10.0231494318209,-10.3519947143126,3.4));
#2109=DIRECTION('',(0.,0.,-1.));
#2110=DIRECTION('',(-6.12323399573676E-17,1.,0.));
#2111=CARTESIAN_POINT('',(10.0231583676188,-38.8559929347677,3.4));
#2112=AXIS2_PLACEMENT_3D('',#2113,#2114,#2115);
#2113=CARTESIAN_POINT('',(10.0231583676188,-42.3559929347677,3.4));
#2114=DIRECTION('',(0.,0.,-1.));
#2115=DIRECTION('',(-6.12323399573676E-17,1.,0.));
#2116=CARTESIAN_POINT('',(0.946352478427294,8.94802307154973,4.15));
#2117=CARTESIAN_POINT('',(0.946352478427294,8.94802307154973,4.15));
#2118=VECTOR('',#2119,1.);
#2119=DIRECTION('',(-1.,0.,0.));
#2120=CARTESIAN_POINT('',(0.946352478427294,8.94802307154973,4.15));
#2121=VECTOR('',#2122,1.);
#2122=DIRECTION('',(1.1737559560042E-16,1.,0.));
#2123=CARTESIAN_POINT('',(0.946352478427294,8.94802307154973,0.499999999998927));
#2124=CARTESIAN_POINT('',(0.946352478427294,8.94802307154973,4.15));
#2125=VECTOR('',#2126,1.);
#2126=DIRECTION('',(0.,0.,-1.));
#2127=CARTESIAN_POINT('',(0.946352478427294,8.94802307154973,0.499999999998927));
#2128=VECTOR('',#2129,1.);
#2129=DIRECTION('',(-1.,0.,0.));
#2130=CARTESIAN_POINT('',(0.946352478427294,2.35197683196195,0.499999999998927));
#2131=CARTESIAN_POINT('',(0.946352478427294,8.94802307154973,0.499999999998927));
#2132=VECTOR('',#2133,1.);
#2133=DIRECTION('',(-1.34653152424782E-16,-1.,5.89107541858423E-17));
#2134=CARTESIAN_POINT('',(0.946352478427294,2.35197683196195,0.499999999998927));
#2135=VECTOR('',#2136,1.);
#2136=DIRECTION('',(-1.,1.48029736616687E-16,0.));
#2137=CARTESIAN_POINT('',(0.946352478427294,2.35197683196195,4.15));
#2138=CARTESIAN_POINT('',(0.946352478427294,2.35197683196195,0.499999999998927));
#2139=VECTOR('',#2140,1.);
#2140=DIRECTION('',(0.,0.,1.));
#2141=CARTESIAN_POINT('',(-2.05364752157271,2.35197683196195,4.15));
#2142=VECTOR('',#2143,1.);
#2143=DIRECTION('',(1.,-1.48029736616688E-16,0.));
#2144=CARTESIAN_POINT('',(0.946352478427291,-23.0559747311903,4.15));
#2145=CARTESIAN_POINT('',(0.946352478427291,-23.0559747311903,4.15));
#2146=VECTOR('',#2147,1.);
#2147=DIRECTION('',(-1.,0.,0.));
#2148=CARTESIAN_POINT('',(0.946352478427291,-23.0559747311903,4.15));
#2149=VECTOR('',#2150,1.);
#2150=DIRECTION('',(1.2234848847314E-16,1.,0.));
#2151=CARTESIAN_POINT('',(0.946352478427291,-23.0559747311903,0.499997202120544));
#2152=CARTESIAN_POINT('',(0.946352478427291,-23.0559747311903,4.15));
#2153=VECTOR('',#2154,1.);
#2154=DIRECTION('',(0.,0.,-1.));
#2155=CARTESIAN_POINT('',(0.946352478427291,-23.0559747311903,0.499997202120544));
#2156=VECTOR('',#2157,1.);
#2157=DIRECTION('',(-1.,0.,0.));
#2158=CARTESIAN_POINT('',(0.94635247842729,-29.652020970778,0.499997202120545));
#2159=CARTESIAN_POINT('',(0.946352478427291,-23.0559747311903,0.499997202120544));
#2160=VECTOR('',#2161,1.);
#2161=DIRECTION('',(-1.17821508371685E-16,-1.,6.73265762123911E-17));
#2162=CARTESIAN_POINT('',(0.94635247842729,-29.652020970778,0.499997202120545));
#2163=VECTOR('',#2164,1.);
#2164=DIRECTION('',(-1.,0.,0.));
#2165=CARTESIAN_POINT('',(0.94635247842729,-29.652020970778,4.15));
#2166=CARTESIAN_POINT('',(0.94635247842729,-29.652020970778,0.499997202120545));
#2167=VECTOR('',#2168,1.);
#2168=DIRECTION('',(0.,0.,1.));
#2169=CARTESIAN_POINT('',(-2.05364752157271,-29.652020970778,4.15));
#2170=VECTOR('',#2171,1.);
#2171=DIRECTION('',(1.,0.,0.));
#2172=CARTESIAN_POINT('',(0.946352478427287,-55.0599725339183,4.15));
#2173=CARTESIAN_POINT('',(0.946352478427287,-55.0599725339183,4.15));
#2174=VECTOR('',#2175,1.);
#2175=DIRECTION('',(-1.,0.,0.));
#2176=CARTESIAN_POINT('',(0.946352478427287,-55.0599725339183,4.15));
#2177=VECTOR('',#2178,1.);
#2178=DIRECTION('',(1.22348488473198E-16,1.,0.));
#2179=CARTESIAN_POINT('',(0.946352478427287,-55.0599725339183,0.499994404242223));
#2180=CARTESIAN_POINT('',(0.946352478427287,-55.0599725339183,4.15));
#2181=VECTOR('',#2182,1.);
#2182=DIRECTION('',(0.,0.,-1.));
#2183=CARTESIAN_POINT('',(0.946352478427287,-55.0599725339183,0.499994404242223));
#2184=VECTOR('',#2185,1.);
#2185=DIRECTION('',(-1.,0.,0.));
#2186=CARTESIAN_POINT('',(0.946352478427286,-61.656018773506,0.499994404242223));
#2187=CARTESIAN_POINT('',(0.946352478427287,-55.0599725339183,0.499994404242223));
#2188=VECTOR('',#2189,1.);
#2189=DIRECTION('',(-1.17821508371685E-16,-1.,5.89107541858422E-17));
#2190=CARTESIAN_POINT('',(0.946352478427286,-61.656018773506,0.499994404242223));
#2191=VECTOR('',#2192,1.);
#2192=DIRECTION('',(-1.,0.,0.));
#2193=CARTESIAN_POINT('',(0.946352478427286,-61.656018773506,4.15));
#2194=CARTESIAN_POINT('',(0.946352478427286,-61.656018773506,0.499994404242223));
#2195=VECTOR('',#2196,1.);
#2196=DIRECTION('',(0.,0.,1.));
#2197=CARTESIAN_POINT('',(-2.05364752157271,-61.656018773506,4.15));
#2198=VECTOR('',#2199,1.);
#2199=DIRECTION('',(1.,0.,0.));
#2200=CARTESIAN_POINT('',(0.946352478427283,-87.0639703366523,4.15));
#2201=CARTESIAN_POINT('',(0.946352478427283,-87.0639703366523,4.15));
#2202=VECTOR('',#2203,1.);
#2203=DIRECTION('',(-1.,0.,0.));
#2204=CARTESIAN_POINT('',(0.946352478427283,-87.0639703366523,4.15));
#2205=VECTOR('',#2206,1.);
#2206=DIRECTION('',(1.22348488473169E-16,1.,0.));
#2207=CARTESIAN_POINT('',(0.946352478427283,-87.0639703366523,0.499991606363869));
#2208=CARTESIAN_POINT('',(0.946352478427283,-87.0639703366523,4.15));
#2209=VECTOR('',#2210,1.);
#2210=DIRECTION('',(0.,0.,-1.));
#2211=CARTESIAN_POINT('',(0.946352478427283,-87.0639703366523,0.499991606363869));
#2212=VECTOR('',#2213,1.);
#2213=DIRECTION('',(-1.,0.,0.));
#2214=CARTESIAN_POINT('',(0.946352478427282,-93.6600165762401,0.499991606363869));
#2215=CARTESIAN_POINT('',(0.946352478427283,-87.0639703366523,0.499991606363869));
#2216=VECTOR('',#2217,1.);
#2217=DIRECTION('',(-1.17821508371685E-16,-1.,5.89107541858422E-17));
#2218=CARTESIAN_POINT('',(0.946352478427282,-93.6600165762401,0.499991606363869));
#2219=VECTOR('',#2220,1.);
#2220=DIRECTION('',(-1.,0.,0.));
#2221=CARTESIAN_POINT('',(0.946352478427282,-93.6600165762401,4.15));
#2222=CARTESIAN_POINT('',(0.946352478427282,-93.6600165762401,0.499991606363869));
#2223=VECTOR('',#2224,1.);
#2224=DIRECTION('',(0.,0.,1.));
#2225=CARTESIAN_POINT('',(-2.05364752157272,-93.6600165762401,4.15));
#2226=VECTOR('',#2227,1.);
#2227=DIRECTION('',(1.,0.,0.));
#2228=CARTESIAN_POINT('',(0.94635247842728,-110.524906078888,4.15));
#2229=VECTOR('',#2230,1.);
#2230=DIRECTION('',(1.25077827901365E-16,1.,0.));
#2231=CARTESIAN_POINT('',(6.30000000000188,-110.524906078888,0.));
#2232=VECTOR('',#2233,1.);
#2233=DIRECTION('',(1.23094522145633E-16,1.,0.));
#2234=CARTESIAN_POINT('',(0.946352478427296,19.3526162993033,0.));
#2235=VECTOR('',#2236,1.);
#2236=DIRECTION('',(-1.22239699075177E-16,-1.,0.));
#2237=CARTESIAN_POINT('',(6.30000000000189,19.3526162993033,3.4));
#2238=VECTOR('',#2239,1.);
#2239=DIRECTION('',(-1.23094522145633E-16,-1.,0.));
ENDSEC;
END-ISO-10303-21;
