ISO-10303-21;
HEADER;
FILE_DESCRIPTION(('STEP AP242'),
    '1');
FILE_NAME('Abstandzbolzen Messing vernickelt I-I M3_-_Ettinger - 5.03.243 (M3x24)',
    '',
    ('UNSPECIFIED'),
    ('UNSPECIFIED'),
    'C3D Converter',
    'C3D Toolkit',
    '');
FILE_SCHEMA(('AP242_MANAGED_MODEL_BASED_3D_ENGINEERING_MIM_LF { 1 0 10303 442 1 1 4 }'));
ENDSEC;

DATA;
#1=SHAPE_REPRESENTATION('NONE',(#2),#6);
#2=AXIS2_PLACEMENT_3D('',#3,#4,#5);
#3=CARTESIAN_POINT('',(0.,0.,0.));
#4=DIRECTION('',(0.,0.,1.));
#5=DIRECTION('',(1.,0.,0.));
#6=(GEOMETRIC_REPRESENTATION_CONTEXT(3)GLOBAL_UNCERTAINTY_ASSIGNED_CONTEXT((#8))
GLOBAL_UNIT_ASSIGNED_CONTEXT((#7,#9,#10))REPRESENTATION_CONTEXT('NONE','NONE'));
#7=(LENGTH_UNIT()NAMED_UNIT(*)SI_UNIT(.MILLI.,.METRE.));
#8=UNCERTAINTY_MEASURE_WITH_UNIT(LENGTH_MEASURE(1.E-5),#7,'NONE','NONE');
#9=(NAMED_UNIT(*)PLANE_ANGLE_UNIT()SI_UNIT($,.RADIAN.));
#10=(NAMED_UNIT(*)SI_UNIT($,.STERADIAN.)SOLID_ANGLE_UNIT());
#11=SHAPE_DEFINITION_REPRESENTATION(#12,#1);
#12=PRODUCT_DEFINITION_SHAPE('NONE','NONE',#13);
#13=PRODUCT_DEFINITION('','UNSPECIFIED',#14,#17);
#14=PRODUCT_DEFINITION_FORMATION_WITH_SPECIFIED_SOURCE('ANY','UNSPECIFIED',#15,.NOT_KNOWN.);
#15=PRODUCT('Abstandzbolzen Messing vernickelt I-I M3_-_Ettinger - 5.03.243 (M3x24)',
'Abstandzbolzen Messing vernickelt I-I M3_-_Ettinger - 5.03.243 (M3x24)','NONE',
(#20));
#16=PRODUCT_RELATED_PRODUCT_CATEGORY('detail','',(#15));
#17=DESIGN_CONTEXT('detailed design',#18,'design');
#18=APPLICATION_CONTEXT('configuration controlled 3d designs of mechanical parts and assemblies');
#19=APPLICATION_PROTOCOL_DEFINITION('international standard','config_control_design',
1994,#18);
#20=MECHANICAL_CONTEXT('NONE',#18,'mechanical');
#21=CC_DESIGN_DATE_AND_TIME_ASSIGNMENT(#22,#26,(#13));
#22=DATE_AND_TIME(#23,#24);
#23=CALENDAR_DATE(0,1,1);
#24=LOCAL_TIME(0,0,0.,#25);
#25=COORDINATED_UNIVERSAL_TIME_OFFSET(0,0,.AHEAD.);
#26=DATE_TIME_ROLE('creation_date');
#27=CC_DESIGN_APPROVAL(#28,(#13));
#28=APPROVAL(#29,'UNSPECIFIED');
#29=APPROVAL_STATUS('not_yet_approved');
#30=APPROVAL_DATE_TIME(#31,#28);
#31=DATE_AND_TIME(#32,#33);
#32=CALENDAR_DATE(0,1,1);
#33=LOCAL_TIME(0,0,0.,#34);
#34=COORDINATED_UNIVERSAL_TIME_OFFSET(0,0,.AHEAD.);
#35=MANIFOLD_SOLID_BREP('',#36);
#36=CLOSED_SHELL('',(#48,#57,#66,#75,#84,#93,#102,#111,#120,#129,#138,#147,#156,
#165,#174,#183));
#37=COLOUR_RGB('',0.682352941176471,0.603921568627451,0.525490196078431);
#38=FILL_AREA_STYLE_COLOUR('',#37);
#39=FILL_AREA_STYLE($,(#38));
#40=SURFACE_STYLE_FILL_AREA(#39);
#41=SURFACE_SIDE_STYLE('',(#40));
#42=SURFACE_STYLE_USAGE(.BOTH.,#41);
#43=PRESENTATION_STYLE_ASSIGNMENT((#42));
#44=MECHANICAL_DESIGN_GEOMETRIC_PRESENTATION_REPRESENTATION('NONE',(#45,#56,#65,
#74,#83,#92,#101,#110,#119,#128,#137,#146,#155,#164,#173,#182,#191),#6);
#45=STYLED_ITEM('',(#43),#35);
#46=ADVANCED_BREP_SHAPE_REPRESENTATION('NONE',(#35),#6);
#47=SHAPE_REPRESENTATION_RELATIONSHIP('','',#1,#46);
#48=ADVANCED_FACE('',(#192,#194),#196,.T.);
#49=COLOUR_RGB('',0.682352941176471,0.603921568627451,0.525490196078431);
#50=FILL_AREA_STYLE_COLOUR('',#49);
#51=FILL_AREA_STYLE($,(#50));
#52=SURFACE_STYLE_FILL_AREA(#51);
#53=SURFACE_SIDE_STYLE('',(#52));
#54=SURFACE_STYLE_USAGE(.BOTH.,#53);
#55=PRESENTATION_STYLE_ASSIGNMENT((#54));
#56=STYLED_ITEM('',(#55),#48);
#57=ADVANCED_FACE('',(#201,#203),#205,.T.);
#58=COLOUR_RGB('',0.682352941176471,0.603921568627451,0.525490196078431);
#59=FILL_AREA_STYLE_COLOUR('',#58);
#60=FILL_AREA_STYLE($,(#59));
#61=SURFACE_STYLE_FILL_AREA(#60);
#62=SURFACE_SIDE_STYLE('',(#61));
#63=SURFACE_STYLE_USAGE(.BOTH.,#62);
#64=PRESENTATION_STYLE_ASSIGNMENT((#63));
#65=STYLED_ITEM('',(#64),#57);
#66=ADVANCED_FACE('',(#210),#212,.T.);
#67=COLOUR_RGB('',0.682352941176471,0.603921568627451,0.525490196078431);
#68=FILL_AREA_STYLE_COLOUR('',#67);
#69=FILL_AREA_STYLE($,(#68));
#70=SURFACE_STYLE_FILL_AREA(#69);
#71=SURFACE_SIDE_STYLE('',(#70));
#72=SURFACE_STYLE_USAGE(.BOTH.,#71);
#73=PRESENTATION_STYLE_ASSIGNMENT((#72));
#74=STYLED_ITEM('',(#73),#66);
#75=ADVANCED_FACE('',(#217),#219,.T.);
#76=COLOUR_RGB('',0.682352941176471,0.603921568627451,0.525490196078431);
#77=FILL_AREA_STYLE_COLOUR('',#76);
#78=FILL_AREA_STYLE($,(#77));
#79=SURFACE_STYLE_FILL_AREA(#78);
#80=SURFACE_SIDE_STYLE('',(#79));
#81=SURFACE_STYLE_USAGE(.BOTH.,#80);
#82=PRESENTATION_STYLE_ASSIGNMENT((#81));
#83=STYLED_ITEM('',(#82),#75);
#84=ADVANCED_FACE('',(#224),#226,.T.);
#85=COLOUR_RGB('',0.682352941176471,0.603921568627451,0.525490196078431);
#86=FILL_AREA_STYLE_COLOUR('',#85);
#87=FILL_AREA_STYLE($,(#86));
#88=SURFACE_STYLE_FILL_AREA(#87);
#89=SURFACE_SIDE_STYLE('',(#88));
#90=SURFACE_STYLE_USAGE(.BOTH.,#89);
#91=PRESENTATION_STYLE_ASSIGNMENT((#90));
#92=STYLED_ITEM('',(#91),#84);
#93=ADVANCED_FACE('',(#231),#233,.T.);
#94=COLOUR_RGB('',0.682352941176471,0.603921568627451,0.525490196078431);
#95=FILL_AREA_STYLE_COLOUR('',#94);
#96=FILL_AREA_STYLE($,(#95));
#97=SURFACE_STYLE_FILL_AREA(#96);
#98=SURFACE_SIDE_STYLE('',(#97));
#99=SURFACE_STYLE_USAGE(.BOTH.,#98);
#100=PRESENTATION_STYLE_ASSIGNMENT((#99));
#101=STYLED_ITEM('',(#100),#93);
#102=ADVANCED_FACE('',(#238),#240,.T.);
#103=COLOUR_RGB('',0.682352941176471,0.603921568627451,0.525490196078431);
#104=FILL_AREA_STYLE_COLOUR('',#103);
#105=FILL_AREA_STYLE($,(#104));
#106=SURFACE_STYLE_FILL_AREA(#105);
#107=SURFACE_SIDE_STYLE('',(#106));
#108=SURFACE_STYLE_USAGE(.BOTH.,#107);
#109=PRESENTATION_STYLE_ASSIGNMENT((#108));
#110=STYLED_ITEM('',(#109),#102);
#111=ADVANCED_FACE('',(#245),#247,.T.);
#112=COLOUR_RGB('',0.682352941176471,0.603921568627451,0.525490196078431);
#113=FILL_AREA_STYLE_COLOUR('',#112);
#114=FILL_AREA_STYLE($,(#113));
#115=SURFACE_STYLE_FILL_AREA(#114);
#116=SURFACE_SIDE_STYLE('',(#115));
#117=SURFACE_STYLE_USAGE(.BOTH.,#116);
#118=PRESENTATION_STYLE_ASSIGNMENT((#117));
#119=STYLED_ITEM('',(#118),#111);
#120=ADVANCED_FACE('',(#252,#254),#256,.T.);
#121=COLOUR_RGB('',0.682352941176471,0.603921568627451,0.525490196078431);
#122=FILL_AREA_STYLE_COLOUR('',#121);
#123=FILL_AREA_STYLE($,(#122));
#124=SURFACE_STYLE_FILL_AREA(#123);
#125=SURFACE_SIDE_STYLE('',(#124));
#126=SURFACE_STYLE_USAGE(.BOTH.,#125);
#127=PRESENTATION_STYLE_ASSIGNMENT((#126));
#128=STYLED_ITEM('',(#127),#120);
#129=ADVANCED_FACE('',(#261,#263),#265,.T.);
#130=COLOUR_RGB('',0.682352941176471,0.603921568627451,0.525490196078431);
#131=FILL_AREA_STYLE_COLOUR('',#130);
#132=FILL_AREA_STYLE($,(#131));
#133=SURFACE_STYLE_FILL_AREA(#132);
#134=SURFACE_SIDE_STYLE('',(#133));
#135=SURFACE_STYLE_USAGE(.BOTH.,#134);
#136=PRESENTATION_STYLE_ASSIGNMENT((#135));
#137=STYLED_ITEM('',(#136),#129);
#138=ADVANCED_FACE('',(#270),#272,.F.);
#139=COLOUR_RGB('',0.682352941176471,0.603921568627451,0.525490196078431);
#140=FILL_AREA_STYLE_COLOUR('',#139);
#141=FILL_AREA_STYLE($,(#140));
#142=SURFACE_STYLE_FILL_AREA(#141);
#143=SURFACE_SIDE_STYLE('',(#142));
#144=SURFACE_STYLE_USAGE(.BOTH.,#143);
#145=PRESENTATION_STYLE_ASSIGNMENT((#144));
#146=STYLED_ITEM('',(#145),#138);
#147=ADVANCED_FACE('',(#277,#279),#281,.F.);
#148=COLOUR_RGB('',0.682352941176471,0.603921568627451,0.525490196078431);
#149=FILL_AREA_STYLE_COLOUR('',#148);
#150=FILL_AREA_STYLE($,(#149));
#151=SURFACE_STYLE_FILL_AREA(#150);
#152=SURFACE_SIDE_STYLE('',(#151));
#153=SURFACE_STYLE_USAGE(.BOTH.,#152);
#154=PRESENTATION_STYLE_ASSIGNMENT((#153));
#155=STYLED_ITEM('',(#154),#147);
#156=ADVANCED_FACE('',(#286,#288),#290,.F.);
#157=COLOUR_RGB('',0.682352941176471,0.603921568627451,0.525490196078431);
#158=FILL_AREA_STYLE_COLOUR('',#157);
#159=FILL_AREA_STYLE($,(#158));
#160=SURFACE_STYLE_FILL_AREA(#159);
#161=SURFACE_SIDE_STYLE('',(#160));
#162=SURFACE_STYLE_USAGE(.BOTH.,#161);
#163=PRESENTATION_STYLE_ASSIGNMENT((#162));
#164=STYLED_ITEM('',(#163),#156);
#165=ADVANCED_FACE('',(#295),#297,.F.);
#166=COLOUR_RGB('',0.682352941176471,0.603921568627451,0.525490196078431);
#167=FILL_AREA_STYLE_COLOUR('',#166);
#168=FILL_AREA_STYLE($,(#167));
#169=SURFACE_STYLE_FILL_AREA(#168);
#170=SURFACE_SIDE_STYLE('',(#169));
#171=SURFACE_STYLE_USAGE(.BOTH.,#170);
#172=PRESENTATION_STYLE_ASSIGNMENT((#171));
#173=STYLED_ITEM('',(#172),#165);
#174=ADVANCED_FACE('',(#302,#304),#306,.F.);
#175=COLOUR_RGB('',0.682352941176471,0.603921568627451,0.525490196078431);
#176=FILL_AREA_STYLE_COLOUR('',#175);
#177=FILL_AREA_STYLE($,(#176));
#178=SURFACE_STYLE_FILL_AREA(#177);
#179=SURFACE_SIDE_STYLE('',(#178));
#180=SURFACE_STYLE_USAGE(.BOTH.,#179);
#181=PRESENTATION_STYLE_ASSIGNMENT((#180));
#182=STYLED_ITEM('',(#181),#174);
#183=ADVANCED_FACE('',(#311,#313),#315,.F.);
#184=COLOUR_RGB('',0.682352941176471,0.603921568627451,0.525490196078431);
#185=FILL_AREA_STYLE_COLOUR('',#184);
#186=FILL_AREA_STYLE($,(#185));
#187=SURFACE_STYLE_FILL_AREA(#186);
#188=SURFACE_SIDE_STYLE('',(#187));
#189=SURFACE_STYLE_USAGE(.BOTH.,#188);
#190=PRESENTATION_STYLE_ASSIGNMENT((#189));
#191=STYLED_ITEM('',(#190),#183);
#192=FACE_BOUND('',#193,.T.);
#193=EDGE_LOOP('',(#320,#321,#322,#323,#324,#325,#326));
#194=FACE_BOUND('',#195,.T.);
#195=EDGE_LOOP('',(#327,#328));
#196=CONICAL_SURFACE('',#197,2.90427273604364,1.0471975512);
#197=AXIS2_PLACEMENT_3D('',#198,#199,#200);
#198=CARTESIAN_POINT('',(0.,23.8434493125894,0.));
#199=DIRECTION('',(0.,-1.,0.));
#200=DIRECTION('',(0.,0.,-1.));
#201=FACE_BOUND('',#202,.T.);
#202=EDGE_LOOP('',(#329,#330));
#203=FACE_BOUND('',#204,.T.);
#204=EDGE_LOOP('',(#331));
#205=PLANE('',#206);
#206=AXIS2_PLACEMENT_3D('',#207,#208,#209);
#207=CARTESIAN_POINT('',(0.,24.,0.));
#208=DIRECTION('',(0.,1.,0.));
#209=DIRECTION('',(0.,0.,1.));
#210=FACE_BOUND('',#211,.T.);
#211=EDGE_LOOP('',(#332,#333,#334,#335));
#212=PLANE('',#213);
#213=AXIS2_PLACEMENT_3D('',#214,#215,#216);
#214=CARTESIAN_POINT('',(-1.5877132403,24.,2.75));
#215=DIRECTION('',(0.,0.,1.));
#216=DIRECTION('',(1.,0.,0.));
#217=FACE_BOUND('',#218,.T.);
#218=EDGE_LOOP('',(#336,#337,#338,#339));
#219=PLANE('',#220);
#220=AXIS2_PLACEMENT_3D('',#221,#222,#223);
#221=CARTESIAN_POINT('',(1.5877132403,24.,2.75));
#222=DIRECTION('',(0.866025403788329,0.,0.499999999993262));
#223=DIRECTION('',(0.499999999993262,0.,-0.866025403788329));
#224=FACE_BOUND('',#225,.T.);
#225=EDGE_LOOP('',(#340,#341,#342,#343,#344));
#226=PLANE('',#227);
#227=AXIS2_PLACEMENT_3D('',#228,#229,#230);
#228=CARTESIAN_POINT('',(1.5877132403,24.,-2.75));
#229=DIRECTION('',(0.866025403788329,0.,-0.499999999993262));
#230=DIRECTION('',(-0.499999999993262,0.,-0.866025403788329));
#231=FACE_BOUND('',#232,.T.);
#232=EDGE_LOOP('',(#345,#346,#347,#348));
#233=PLANE('',#234);
#234=AXIS2_PLACEMENT_3D('',#235,#236,#237);
#235=CARTESIAN_POINT('',(-1.5877132403,24.,-2.75));
#236=DIRECTION('',(0.,0.,-1.));
#237=DIRECTION('',(-1.,0.,0.));
#238=FACE_BOUND('',#239,.T.);
#239=EDGE_LOOP('',(#349,#350,#351,#352,#353));
#240=PLANE('',#241);
#241=AXIS2_PLACEMENT_3D('',#242,#243,#244);
#242=CARTESIAN_POINT('',(-1.5877132403,24.,-2.75));
#243=DIRECTION('',(-0.866025403788329,0.,-0.499999999993262));
#244=DIRECTION('',(-0.499999999993262,0.,0.866025403788329));
#245=FACE_BOUND('',#246,.T.);
#246=EDGE_LOOP('',(#354,#355,#356,#357));
#247=PLANE('',#248);
#248=AXIS2_PLACEMENT_3D('',#249,#250,#251);
#249=CARTESIAN_POINT('',(-1.5877132403,24.,2.75));
#250=DIRECTION('',(-0.866025403788329,0.,0.499999999993262));
#251=DIRECTION('',(0.499999999993262,0.,0.866025403788329));
#252=FACE_BOUND('',#253,.T.);
#253=EDGE_LOOP('',(#358,#359));
#254=FACE_BOUND('',#255,.T.);
#255=EDGE_LOOP('',(#360));
#256=PLANE('',#257);
#257=AXIS2_PLACEMENT_3D('',#258,#259,#260);
#258=CARTESIAN_POINT('',(0.,0.,0.));
#259=DIRECTION('',(0.,-1.,0.));
#260=DIRECTION('',(0.,0.,-1.));
#261=FACE_BOUND('',#262,.T.);
#262=EDGE_LOOP('',(#361,#362,#363,#364,#365,#366,#367));
#263=FACE_BOUND('',#264,.T.);
#264=EDGE_LOOP('',(#368,#369));
#265=CONICAL_SURFACE('',#266,2.90427273607199,1.0471975512);
#266=AXIS2_PLACEMENT_3D('',#267,#268,#269);
#267=CARTESIAN_POINT('',(0.,0.15655068736145,0.));
#268=DIRECTION('',(0.,1.,0.));
#269=DIRECTION('',(0.,0.,1.));
#270=FACE_BOUND('',#271,.T.);
#271=EDGE_LOOP('',(#370,#371));
#272=CONICAL_SURFACE('',#273,0.625,1.0297442587);
#273=AXIS2_PLACEMENT_3D('',#274,#275,#276);
#274=CARTESIAN_POINT('',(0.,16.6244621131276,0.));
#275=DIRECTION('',(0.,1.,0.));
#276=DIRECTION('',(0.,0.,1.));
#277=FACE_OUTER_BOUND('',#278,.T.);
#278=EDGE_LOOP('',(#372));
#279=FACE_BOUND('',#280,.T.);
#280=EDGE_LOOP('',(#373,#374));
#281=CYLINDRICAL_SURFACE('',#282,1.25);
#282=AXIS2_PLACEMENT_3D('',#283,#284,#285);
#283=CARTESIAN_POINT('',(0.,24.,0.));
#284=DIRECTION('',(0.,1.,0.));
#285=DIRECTION('',(0.,0.,1.));
#286=FACE_OUTER_BOUND('',#287,.T.);
#287=EDGE_LOOP('',(#375));
#288=FACE_OUTER_BOUND('',#289,.T.);
#289=EDGE_LOOP('',(#376));
#290=CONICAL_SURFACE('',#291,1.37499999999968,0.7853981634);
#291=AXIS2_PLACEMENT_3D('',#292,#293,#294);
#292=CARTESIAN_POINT('',(0.,23.8750000000003,0.));
#293=DIRECTION('',(0.,1.,0.));
#294=DIRECTION('',(0.,0.,1.));
#295=FACE_BOUND('',#296,.T.);
#296=EDGE_LOOP('',(#377,#378));
#297=CONICAL_SURFACE('',#298,0.625,1.0297442587);
#298=AXIS2_PLACEMENT_3D('',#299,#300,#301);
#299=CARTESIAN_POINT('',(0.,7.37553788687237,0.));
#300=DIRECTION('',(0.,-1.,0.));
#301=DIRECTION('',(0.,0.,1.));
#302=FACE_BOUND('',#303,.T.);
#303=EDGE_LOOP('',(#379,#380));
#304=FACE_OUTER_BOUND('',#305,.T.);
#305=EDGE_LOOP('',(#381));
#306=CYLINDRICAL_SURFACE('',#307,1.25);
#307=AXIS2_PLACEMENT_3D('',#308,#309,#310);
#308=CARTESIAN_POINT('',(0.,0.,0.));
#309=DIRECTION('',(0.,-1.,0.));
#310=DIRECTION('',(0.,0.,1.));
#311=FACE_OUTER_BOUND('',#312,.T.);
#312=EDGE_LOOP('',(#382));
#313=FACE_OUTER_BOUND('',#314,.T.);
#314=EDGE_LOOP('',(#383));
#315=CONICAL_SURFACE('',#316,1.37499999999968,0.7853981634);
#316=AXIS2_PLACEMENT_3D('',#317,#318,#319);
#317=CARTESIAN_POINT('',(0.,0.124999999999681,0.));
#318=DIRECTION('',(0.,-1.,0.));
#319=DIRECTION('',(0.,0.,1.));
#320=ORIENTED_EDGE('',*,*,#384,.T.);
#321=ORIENTED_EDGE('',*,*,#385,.T.);
#322=ORIENTED_EDGE('',*,*,#386,.T.);
#323=ORIENTED_EDGE('',*,*,#387,.T.);
#324=ORIENTED_EDGE('',*,*,#388,.T.);
#325=ORIENTED_EDGE('',*,*,#389,.T.);
#326=ORIENTED_EDGE('',*,*,#390,.T.);
#327=ORIENTED_EDGE('',*,*,#391,.T.);
#328=ORIENTED_EDGE('',*,*,#392,.T.);
#329=ORIENTED_EDGE('',*,*,#392,.F.);
#330=ORIENTED_EDGE('',*,*,#391,.F.);
#331=ORIENTED_EDGE('',*,*,#393,.F.);
#332=ORIENTED_EDGE('',*,*,#394,.T.);
#333=ORIENTED_EDGE('',*,*,#395,.F.);
#334=ORIENTED_EDGE('',*,*,#396,.F.);
#335=ORIENTED_EDGE('',*,*,#389,.F.);
#336=ORIENTED_EDGE('',*,*,#396,.T.);
#337=ORIENTED_EDGE('',*,*,#397,.F.);
#338=ORIENTED_EDGE('',*,*,#398,.F.);
#339=ORIENTED_EDGE('',*,*,#390,.F.);
#340=ORIENTED_EDGE('',*,*,#398,.T.);
#341=ORIENTED_EDGE('',*,*,#399,.F.);
#342=ORIENTED_EDGE('',*,*,#400,.F.);
#343=ORIENTED_EDGE('',*,*,#401,.F.);
#344=ORIENTED_EDGE('',*,*,#384,.F.);
#345=ORIENTED_EDGE('',*,*,#401,.T.);
#346=ORIENTED_EDGE('',*,*,#402,.F.);
#347=ORIENTED_EDGE('',*,*,#403,.F.);
#348=ORIENTED_EDGE('',*,*,#385,.F.);
#349=ORIENTED_EDGE('',*,*,#403,.T.);
#350=ORIENTED_EDGE('',*,*,#404,.F.);
#351=ORIENTED_EDGE('',*,*,#405,.F.);
#352=ORIENTED_EDGE('',*,*,#387,.F.);
#353=ORIENTED_EDGE('',*,*,#386,.F.);
#354=ORIENTED_EDGE('',*,*,#405,.T.);
#355=ORIENTED_EDGE('',*,*,#406,.F.);
#356=ORIENTED_EDGE('',*,*,#394,.F.);
#357=ORIENTED_EDGE('',*,*,#388,.F.);
#358=ORIENTED_EDGE('',*,*,#407,.T.);
#359=ORIENTED_EDGE('',*,*,#408,.T.);
#360=ORIENTED_EDGE('',*,*,#409,.T.);
#361=ORIENTED_EDGE('',*,*,#397,.T.);
#362=ORIENTED_EDGE('',*,*,#395,.T.);
#363=ORIENTED_EDGE('',*,*,#406,.T.);
#364=ORIENTED_EDGE('',*,*,#404,.T.);
#365=ORIENTED_EDGE('',*,*,#402,.T.);
#366=ORIENTED_EDGE('',*,*,#400,.T.);
#367=ORIENTED_EDGE('',*,*,#399,.T.);
#368=ORIENTED_EDGE('',*,*,#407,.F.);
#369=ORIENTED_EDGE('',*,*,#408,.F.);
#370=ORIENTED_EDGE('',*,*,#410,.T.);
#371=ORIENTED_EDGE('',*,*,#411,.T.);
#372=ORIENTED_EDGE('',*,*,#412,.T.);
#373=ORIENTED_EDGE('',*,*,#411,.F.);
#374=ORIENTED_EDGE('',*,*,#410,.F.);
#375=ORIENTED_EDGE('',*,*,#393,.T.);
#376=ORIENTED_EDGE('',*,*,#412,.F.);
#377=ORIENTED_EDGE('',*,*,#413,.F.);
#378=ORIENTED_EDGE('',*,*,#414,.F.);
#379=ORIENTED_EDGE('',*,*,#414,.T.);
#380=ORIENTED_EDGE('',*,*,#413,.T.);
#381=ORIENTED_EDGE('',*,*,#415,.F.);
#382=ORIENTED_EDGE('',*,*,#415,.T.);
#383=ORIENTED_EDGE('',*,*,#409,.F.);
#384=EDGE_CURVE('',#416,#417,#418,.T.);
#385=EDGE_CURVE('',#417,#419,#420,.T.);
#386=EDGE_CURVE('',#419,#421,#422,.T.);
#387=EDGE_CURVE('',#421,#423,#424,.T.);
#388=EDGE_CURVE('',#423,#425,#426,.T.);
#389=EDGE_CURVE('',#425,#427,#428,.T.);
#390=EDGE_CURVE('',#427,#416,#429,.T.);
#391=EDGE_CURVE('',#430,#431,#432,.T.);
#392=EDGE_CURVE('',#431,#430,#433,.T.);
#393=EDGE_CURVE('',#434,#434,#435,.T.);
#394=EDGE_CURVE('',#425,#436,#437,.T.);
#395=EDGE_CURVE('',#438,#436,#439,.T.);
#396=EDGE_CURVE('',#427,#438,#440,.T.);
#397=EDGE_CURVE('',#441,#438,#442,.T.);
#398=EDGE_CURVE('',#416,#441,#443,.T.);
#399=EDGE_CURVE('',#444,#441,#445,.T.);
#400=EDGE_CURVE('',#446,#444,#447,.T.);
#401=EDGE_CURVE('',#417,#446,#448,.T.);
#402=EDGE_CURVE('',#449,#446,#450,.T.);
#403=EDGE_CURVE('',#419,#449,#451,.T.);
#404=EDGE_CURVE('',#452,#449,#453,.T.);
#405=EDGE_CURVE('',#423,#452,#454,.T.);
#406=EDGE_CURVE('',#436,#452,#455,.T.);
#407=EDGE_CURVE('',#456,#457,#458,.T.);
#408=EDGE_CURVE('',#457,#456,#459,.T.);
#409=EDGE_CURVE('',#460,#460,#461,.T.);
#410=EDGE_CURVE('',#462,#463,#464,.T.);
#411=EDGE_CURVE('',#463,#462,#465,.T.);
#412=EDGE_CURVE('',#466,#466,#467,.T.);
#413=EDGE_CURVE('',#468,#469,#470,.T.);
#414=EDGE_CURVE('',#469,#468,#471,.T.);
#415=EDGE_CURVE('',#472,#472,#473,.T.);
#416=VERTEX_POINT('',#474);
#417=VERTEX_POINT('',#475);
#418=B_SPLINE_CURVE_WITH_KNOTS('',3,
(#476,#477,#478,#479,#480,#481,#482,#483,#484,#485,#486,#487,#488,#489,#490,#491,
#492,#493,#494,#495,#496,#497,#498,#499,#500,#501,#502,#503,#504,#505,#506,#507,
#508,#509,#510),
.UNSPECIFIED.,.F.,.F.,
(4,1,1,1,1,1,1,1,1,1,1,1,1,1,1,1,1,1,1,1,1,1,1,1,1,1,1,1,1,1,1,1,4),
(0.,0.0312820834705182,0.0623343188285182,0.0932104873399179,0.124004031754689,0.154876455232713,
0.185783668891362,0.216640745486319,0.247384717635926,0.278123666048136,0.308937270778881,
0.339776834755014,0.370679413263326,0.401776981330749,0.443556458188749,0.485212969325161,
0.499644001804169,0.526794965416686,0.558033411722944,0.589242003381733,0.62052051347775,
0.651952337392709,0.68348543880965,0.714971033019417,0.746573753689907,0.77828924500115,
0.810030974014306,0.841681295075082,0.873367560089057,0.905094490762168,0.936793382233461,
0.968399814843145,1.),
.UNSPECIFIED.);
#419=VERTEX_POINT('',#511);
#420=B_SPLINE_CURVE_WITH_KNOTS('',3,
(#512,#513,#514,#515,#516,#517,#518,#519,#520,#521,#522,#523,#524,#525,#526,#527,
#528,#529,#530,#531,#532,#533,#534,#535,#536,#537,#538,#539,#540,#541,#542,#543,
#544,#545,#546,#547,#548,#549,#550,#551,#552,#553,#554),
.UNSPECIFIED.,.F.,.F.,
(4,1,1,1,1,1,1,1,1,1,1,1,1,1,1,1,1,1,1,1,1,1,1,1,1,1,1,1,1,1,1,1,1,1,1,1,1,1,1,1,
4),
(0.,0.0310673418685172,0.0619662799168276,0.0927523101490038,0.122864642413615,0.123559195503413,
0.154525844979505,0.185616935788949,0.216683402238418,0.247621650081242,0.278518623033891,
0.306548795389838,0.309445031218654,0.340368402896806,0.371302763642574,0.402374105137162,
0.426184774648878,0.433633351008117,0.464916815546976,0.496186618525792,0.500185445725857,
0.527595517102055,0.539588222539328,0.559073371800231,0.590432166360238,0.621680494381729,
0.647875653289076,0.652974213120096,0.684285314984673,0.715555677696643,0.746959754336615,
0.75596858586025,0.778493467267273,0.810069875030805,0.841553807835196,0.860704866047625,
0.873059077414156,0.904632359754324,0.946968670182233,0.955656235636726,1.),
.UNSPECIFIED.);
#421=VERTEX_POINT('',#555);
#422=B_SPLINE_CURVE_WITH_KNOTS('',3,
(#556,#557,#558,#559,#560,#561,#562,#563,#564,#565,#566,#567,#568,#569,#570,#571,
#572,#573,#574,#575,#576,#577,#578,#579,#580,#581),
.UNSPECIFIED.,.F.,.F.,
(4,1,1,1,1,1,1,1,1,1,1,1,1,1,1,1,1,1,1,1,1,1,1,4),
(0.,0.0563542267342497,0.112449995436039,0.168224088092447,0.223083582772387,0.277434725946308,
0.330061748112167,0.381461592763907,0.430990761165166,0.479814869013414,0.526410985346167,
0.571397685615129,0.613648744559109,0.6548128856429,0.693188666949301,0.729874948983203,
0.76429046557198,0.798121296476915,0.830220621647001,0.861162017252482,0.899788031545458,
0.937370374699905,0.973858134693158,1.),
.UNSPECIFIED.);
#423=VERTEX_POINT('',#582);
#424=B_SPLINE_CURVE_WITH_KNOTS('',3,
(#583,#584,#585,#586,#587,#588,#589,#590,#591,#592,#593,#594,#595,#596,#597,#598,
#599,#600,#601,#602,#603,#604,#605,#606,#607,#608,#609),
.UNSPECIFIED.,.F.,.F.,
(4,1,1,1,1,1,1,1,1,1,1,1,1,1,1,1,1,1,1,1,1,1,1,1,4),
(0.,0.0546045970498015,0.109509615127004,0.163791995697419,0.217432223557468,0.27054870291224,
0.314238693364922,0.321845465882067,0.372161377795552,0.420862081744677,0.468914784466214,
0.51506430593214,0.559747149871101,0.601839076524275,0.642948850933144,0.681668691563847,
0.718909366821953,0.754069684997014,0.788635888126383,0.832101612160324,0.874091140061642,
0.914541698182464,0.943546589981202,0.972062629403984,1.),
.UNSPECIFIED.);
#425=VERTEX_POINT('',#610);
#426=B_SPLINE_CURVE_WITH_KNOTS('',3,
(#611,#612,#613,#614,#615,#616,#617,#618,#619,#620,#621,#622,#623,#624,#625,#626,
#627,#628,#629,#630,#631,#632,#633,#634,#635,#636,#637,#638,#639,#640,#641,#642,
#643,#644,#645),
.UNSPECIFIED.,.F.,.F.,
(4,1,1,1,1,1,1,1,1,1,1,1,1,1,1,1,1,1,1,1,1,1,1,1,1,1,1,1,1,1,1,1,4),
(0.,0.0312820834705169,0.062334318828516,0.093210487339916,0.124004031754687,0.154876455232711,
0.185783668891361,0.216640745486318,0.247384717635926,0.278123666048138,0.308937270778882,
0.339776834755015,0.370679413263328,0.401776981330751,0.443556458188752,0.485212969325162,
0.499644001804171,0.526794965416686,0.558033411722944,0.589242003381732,0.620520513477749,
0.651952337392708,0.68348543880965,0.714971033019416,0.746573753689906,0.77828924500115,
0.810030974014305,0.841681295075082,0.873367560089057,0.905094490762167,0.936793382233461,
0.968399814843145,1.),
.UNSPECIFIED.);
#427=VERTEX_POINT('',#646);
#428=B_SPLINE_CURVE_WITH_KNOTS('',3,
(#647,#648,#649,#650,#651,#652,#653,#654,#655,#656,#657,#658,#659,#660,#661,#662,
#663,#664,#665,#666,#667,#668,#669,#670,#671,#672,#673,#674,#675,#676,#677,#678,
#679,#680,#681,#682,#683,#684,#685,#686,#687,#688,#689),
.UNSPECIFIED.,.F.,.F.,
(4,1,1,1,1,1,1,1,1,1,1,1,1,1,1,1,1,1,1,1,1,1,1,1,1,1,1,1,1,1,1,1,1,1,1,1,1,1,1,1,
4),
(0.,0.0313984251927715,0.0625659928093849,0.0935440260827736,0.123499494167769,0.124389887292472,
0.155256682665752,0.186115296855689,0.216934656438676,0.24771395808784,0.278569985270813,
0.307124172792368,0.319895213987031,0.361201996169751,0.402513130762933,0.42662421289774,
0.433674431597847,0.464868129855677,0.496096367258411,0.499867932153853,0.527509613709351,
0.53988846145809,0.559025634194735,0.59041783682013,0.621668877251181,0.648149323100784,
0.652943234097835,0.684237748287282,0.71551572944288,0.746960366255046,0.75618908233952,
0.778553588349535,0.810216575951479,0.841806471443005,0.861004756122271,0.87346415986322,
0.905178012157135,0.936863597614417,0.955889265307574,0.968440263931809,1.),
.UNSPECIFIED.);
#429=B_SPLINE_CURVE_WITH_KNOTS('',3,
(#690,#691,#692,#693,#694,#695,#696,#697,#698,#699,#700,#701,#702,#703,#704,#705,
#706,#707,#708,#709,#710,#711,#712,#713,#714,#715,#716,#717,#718,#719,#720,#721,
#722,#723,#724),
.UNSPECIFIED.,.F.,.F.,
(4,1,1,1,1,1,1,1,1,1,1,1,1,1,1,1,1,1,1,1,1,1,1,1,1,1,1,1,1,1,1,1,4),
(0.,0.0312820834712736,0.0623343188300418,0.0932104873422661,0.124004031757885,0.154876455236693,
0.185783668896011,0.216640745491581,0.247384717641828,0.278123666054745,0.308937270786185,
0.339776834762979,0.370679413271906,0.40177698133996,0.443556458198552,0.485212969335373,
0.499644001819691,0.526794965427266,0.558033411733605,0.589242003392333,0.620520513488189,
0.651952337402914,0.683485438819417,0.714971033028625,0.746573753698469,0.778289245009017,
0.810030974021374,0.841681295081317,0.873367560094405,0.905094490766463,0.93679338223642,
0.968399814844634,1.),
.UNSPECIFIED.);
#430=VERTEX_POINT('',#725);
#431=VERTEX_POINT('',#726);
#432=CIRCLE('',#727,2.6331189916);
#433=CIRCLE('',#731,2.6331189916);
#434=VERTEX_POINT('',#735);
#435=CIRCLE('',#736,1.5);
#436=VERTEX_POINT('',#740);
#437=LINE('',#741,#742);
#438=VERTEX_POINT('',#744);
#439=B_SPLINE_CURVE_WITH_KNOTS('',3,
(#745,#746,#747,#748,#749,#750,#751,#752,#753,#754,#755,#756,#757,#758,#759,#760,
#761,#762,#763,#764,#765,#766,#767,#768,#769,#770,#771,#772,#773,#774,#775,#776,
#777,#778,#779,#780,#781,#782,#783,#784,#785,#786,#787),
.UNSPECIFIED.,.F.,.F.,
(4,1,1,1,1,1,1,1,1,1,1,1,1,1,1,1,1,1,1,1,1,1,1,1,1,1,1,1,1,1,1,1,1,1,1,1,1,1,1,1,
4),
(0.,0.0310673418684983,0.0619662799168754,0.0927523101490915,0.122864642414135,0.123559195503568,
0.154525844979907,0.185616935789755,0.216683402239556,0.247621650082479,0.278518623035008,
0.306548795391464,0.309445031219841,0.340368402898477,0.371302763645009,0.402374105140239,
0.426184774652473,0.433633351011294,0.464916815549771,0.496186618528055,0.500185445725892,
0.527595517103999,0.539588222543074,0.559073371802084,0.590432166362057,0.621680494383464,
0.647875653293653,0.652974213121781,0.684285314986314,0.715555677698219,0.746959754338078,
0.755968585865714,0.778493467268632,0.8100698750321,0.841553807836466,0.860704866053691,
0.873059077415358,0.904632359755425,0.946968670183131,0.955656235640132,1.),
.UNSPECIFIED.);
#440=LINE('',#788,#789);
#441=VERTEX_POINT('',#791);
#442=B_SPLINE_CURVE_WITH_KNOTS('',3,
(#792,#793,#794,#795,#796,#797,#798,#799,#800,#801,#802,#803,#804,#805,#806,#807,
#808,#809,#810,#811,#812,#813,#814,#815,#816,#817,#818,#819,#820,#821,#822,#823,
#824,#825,#826),
.UNSPECIFIED.,.F.,.F.,
(4,1,1,1,1,1,1,1,1,1,1,1,1,1,1,1,1,1,1,1,1,1,1,1,1,1,1,1,1,1,1,1,4),
(0.,0.0312820834705246,0.0623343188286086,0.0932104873400574,0.124004031754872,0.154876455233031,
0.185783668891966,0.216640745487265,0.247384717637197,0.278123666049693,0.308937270780703,
0.339776834757078,0.370679413265558,0.401776981333087,0.443556458191087,0.485212969327429,
0.499644001804158,0.526794965418827,0.558033411725001,0.589242003383726,0.620520513479701,
0.651952337394671,0.68348543881165,0.714971033021438,0.746573753691902,0.778289245003118,
0.810030974016266,0.841681295077074,0.873367560091065,0.905094490764017,0.936793382234854,
0.968399814843904,1.),
.UNSPECIFIED.);
#443=LINE('',#827,#828);
#444=VERTEX_POINT('',#830);
#445=B_SPLINE_CURVE_WITH_KNOTS('',3,
(#831,#832,#833,#834,#835,#836,#837,#838,#839,#840,#841,#842,#843,#844,#845,#846,
#847,#848,#849,#850,#851,#852,#853,#854,#855,#856,#857),
.UNSPECIFIED.,.F.,.F.,
(4,1,1,1,1,1,1,1,1,1,1,1,1,1,1,1,1,1,1,1,1,1,1,1,4),
(0.,0.0546045970511265,0.109509615129149,0.163791995699941,0.217432223559863,0.270548702914238,
0.314238693362746,0.321845465883406,0.372161377796171,0.420862081744613,0.46891478446555,
0.515064305931091,0.559747149869849,0.601839076523024,0.642948850931925,0.681668691562777,
0.718909366821087,0.754069684996415,0.788635888126087,0.832101612160533,0.874091140062134,
0.914541698182911,0.943546589981299,0.972062629403133,1.),
.UNSPECIFIED.);
#446=VERTEX_POINT('',#858);
#447=B_SPLINE_CURVE_WITH_KNOTS('',3,
(#859,#860,#861,#862,#863,#864,#865,#866,#867,#868,#869,#870,#871,#872,#873,#874,
#875,#876,#877,#878,#879,#880,#881,#882,#883,#884),
.UNSPECIFIED.,.F.,.F.,
(4,1,1,1,1,1,1,1,1,1,1,1,1,1,1,1,1,1,1,1,1,1,1,4),
(0.,0.0563542267378378,0.112449995441958,0.16822408809936,0.223083582778656,0.277434725951145,
0.330061748114955,0.381461592764596,0.430990761164202,0.479814869011436,0.52641098534371,
0.571397685612393,0.613648744556317,0.654812885640117,0.693188666946628,0.729874948980699,
0.764290465569707,0.798121296474884,0.830220621645234,0.861162017250986,0.89978803154433,
0.93737037469917,0.973858134692819,1.),
.UNSPECIFIED.);
#448=LINE('',#885,#886);
#449=VERTEX_POINT('',#888);
#450=B_SPLINE_CURVE_WITH_KNOTS('',3,
(#889,#890,#891,#892,#893,#894,#895,#896,#897,#898,#899,#900,#901,#902,#903,#904,
#905,#906,#907,#908,#909,#910,#911,#912,#913,#914,#915,#916,#917,#918,#919,#920,
#921,#922,#923,#924,#925,#926,#927,#928,#929,#930,#931),
.UNSPECIFIED.,.F.,.F.,
(4,1,1,1,1,1,1,1,1,1,1,1,1,1,1,1,1,1,1,1,1,1,1,1,1,1,1,1,1,1,1,1,1,1,1,1,1,1,1,1,
4),
(0.,0.0313984251927725,0.0625659928094656,0.0935440260828993,0.12349949416832,0.12438988729264,
0.155256682666058,0.186115296856285,0.216934656439618,0.247713958089105,0.278569985272351,
0.307124172794423,0.31989521398889,0.361201996171872,0.402513130765227,0.426624212900887,
0.433674431600177,0.464868129857988,0.496096367260635,0.499867932153836,0.527509613711477,
0.539888461462007,0.559025634196777,0.590417836822118,0.621668877253137,0.648149323105486,
0.652943234099806,0.684237748289286,0.715515729444899,0.746960366257037,0.756189082345189,
0.778553588351503,0.810216575953445,0.841806471445003,0.861004756128642,0.873464159865234,
0.905178012158994,0.936863597615822,0.955889265310871,0.968440263932577,1.),
.UNSPECIFIED.);
#451=LINE('',#932,#933);
#452=VERTEX_POINT('',#935);
#453=B_SPLINE_CURVE_WITH_KNOTS('',3,
(#936,#937,#938,#939,#940,#941,#942,#943,#944,#945,#946,#947,#948,#949,#950,#951,
#952,#953,#954,#955,#956,#957,#958,#959,#960,#961,#962,#963,#964,#965,#966,#967,
#968,#969,#970),
.UNSPECIFIED.,.F.,.F.,
(4,1,1,1,1,1,1,1,1,1,1,1,1,1,1,1,1,1,1,1,1,1,1,1,1,1,1,1,1,1,1,1,4),
(0.,0.0312820834705246,0.0623343188286084,0.0932104873400575,0.124004031754872,0.154876455233031,
0.185783668891967,0.216640745487266,0.247384717637197,0.278123666049693,0.308937270780703,
0.339776834757078,0.370679413265558,0.401776981333087,0.443556458191088,0.48521296932743,
0.499644001804158,0.526794965418827,0.558033411725,0.589242003383725,0.6205205134797,
0.651952337394671,0.683485438811649,0.714971033021438,0.746573753691901,0.778289245003117,
0.810030974016266,0.841681295077074,0.873367560091065,0.905094490764018,0.936793382234856,
0.968399814843905,1.),
.UNSPECIFIED.);
#454=LINE('',#971,#972);
#455=B_SPLINE_CURVE_WITH_KNOTS('',3,
(#974,#975,#976,#977,#978,#979,#980,#981,#982,#983,#984,#985,#986,#987,#988,#989,
#990,#991,#992,#993,#994,#995,#996,#997,#998,#999,#1000,#1001,#1002,#1003,#1004,
#1005,#1006,#1007,#1008),
.UNSPECIFIED.,.F.,.F.,
(4,1,1,1,1,1,1,1,1,1,1,1,1,1,1,1,1,1,1,1,1,1,1,1,1,1,1,1,1,1,1,1,4),
(0.,0.0312820834712803,0.0623343188301321,0.093210487342405,0.124004031758068,0.154876455237012,
0.185783668896615,0.216640745492527,0.247384717643099,0.278123666056301,0.308937270788006,
0.339776834765042,0.370679413274135,0.401776981342294,0.443556458200887,0.485212969337639,
0.499644001819681,0.526794965429406,0.558033411735661,0.589242003394326,0.620520513490141,
0.651952337404876,0.683485438821416,0.714971033030645,0.746573753700462,0.778289245010981,
0.810030974023331,0.841681295083305,0.87336756009641,0.905094490768311,0.936793382237813,
0.968399814845393,1.),
.UNSPECIFIED.);
#456=VERTEX_POINT('',#1009);
#457=VERTEX_POINT('',#1010);
#458=CIRCLE('',#1011,2.6331189916);
#459=CIRCLE('',#1015,2.6331189916);
#460=VERTEX_POINT('',#1019);
#461=CIRCLE('',#1020,1.5);
#462=VERTEX_POINT('',#1024);
#463=VERTEX_POINT('',#1025);
#464=CIRCLE('',#1026,1.25);
#465=CIRCLE('',#1030,1.25);
#466=VERTEX_POINT('',#1034);
#467=CIRCLE('',#1035,1.25);
#468=VERTEX_POINT('',#1039);
#469=VERTEX_POINT('',#1040);
#470=CIRCLE('',#1041,1.25);
#471=CIRCLE('',#1045,1.25);
#472=VERTEX_POINT('',#1049);
#473=CIRCLE('',#1050,1.24999999999936);
#474=CARTESIAN_POINT('',(3.1754264805,23.6868986253,0.));
#475=CARTESIAN_POINT('',(1.5877132403,23.6868986253,-2.75));
#476=CARTESIAN_POINT('',(3.17542648051958,23.6868986252415,-3.08832043469434E-11));
#477=CARTESIAN_POINT('',(3.15932779653776,23.6961931374865,-0.0278837386288004));
#478=CARTESIAN_POINT('',(3.12716583759816,23.7143394537095,-0.083589885592901));
#479=CARTESIAN_POINT('',(3.07883879389974,23.7402727425746,-0.167294780663263));
#480=CARTESIAN_POINT('',(3.03054586153775,23.7647987415807,-0.25094059315583));
#481=CARTESIAN_POINT('',(2.98214149094345,23.7879296582666,-0.334779422318256));
#482=CARTESIAN_POINT('',(2.93352847137083,23.8096371621134,-0.418979642101075));
#483=CARTESIAN_POINT('',(2.8846997086698,23.8298430235425,-0.50355353993209));
#484=CARTESIAN_POINT('',(2.83576724103792,23.8484266035041,-0.588307059960318));
#485=CARTESIAN_POINT('',(2.78676368645919,23.8653120101801,-0.67318370617978));
#486=CARTESIAN_POINT('',(2.73763424112429,23.8804554734025,-0.758278401572173));
#487=CARTESIAN_POINT('',(2.68832710159813,23.8938044911642,-0.843680872318479));
#488=CARTESIAN_POINT('',(2.63882849167014,23.905295260008,-0.929414979514855));
#489=CARTESIAN_POINT('',(2.58909701994529,23.9148731955786,-1.01555241515993));
#490=CARTESIAN_POINT('',(2.53344156452011,23.9233389592345,-1.11195049152703));
#491=CARTESIAN_POINT('',(2.47196489028915,23.9297197016273,-1.21843121459093));
#492=CARTESIAN_POINT('',(2.41941898384145,23.9322250921667,-1.30944339410928));
#493=CARTESIAN_POINT('',(2.37474171691532,23.932660879225,-1.38682669020445));
#494=CARTESIAN_POINT('',(2.33566887263648,23.931943380704,-1.45450284154011));
#495=CARTESIAN_POINT('',(2.28762635843125,23.929167765715,-1.53771491686706));
#496=CARTESIAN_POINT('',(2.23741802329106,23.9241641867246,-1.62467830406935));
#497=CARTESIAN_POINT('',(2.18716538764705,23.9170720969238,-1.71171842197991));
#498=CARTESIAN_POINT('',(2.13681018470368,23.9079000318645,-1.79893619164883));
#499=CARTESIAN_POINT('',(2.08643233613114,23.8966874371996,-1.88619318468333));
#500=CARTESIAN_POINT('',(2.03606770749096,23.8834860269892,-1.97342728010907));
#501=CARTESIAN_POINT('',(1.98572645337577,23.8683497919088,-2.06062088965613));
#502=CARTESIAN_POINT('',(1.93538589019916,23.8513237338809,-2.14781330244892));
#503=CARTESIAN_POINT('',(1.88516541196841,23.8325111392927,-2.23479772200186));
#504=CARTESIAN_POINT('',(1.83511340538676,23.812007971613,-2.32149034008745));
#505=CARTESIAN_POINT('',(1.78523005309655,23.7898949726801,-2.40789084036042));
#506=CARTESIAN_POINT('',(1.73549021044575,23.766238252155,-2.49404277463601));
#507=CARTESIAN_POINT('',(1.68596995771724,23.7411546927414,-2.57981436799994));
#508=CARTESIAN_POINT('',(1.63670190828584,23.7147472008507,-2.6651491324309));
#509=CARTESIAN_POINT('',(1.60401916663385,23.6963127770488,-2.72175730124808));
#510=CARTESIAN_POINT('',(1.58771323841286,23.6868986255685,-2.74999999726278));
#511=CARTESIAN_POINT('',(-1.5877132403,23.6868986253,-2.75));
#512=CARTESIAN_POINT('',(1.58771324028961,23.686898625264,-2.749999999982));
#513=CARTESIAN_POINT('',(1.55567331652789,23.6961476829697,-2.74999999999309));
#514=CARTESIAN_POINT('',(1.49162715464782,23.714217542291,-2.75000000000319));
#515=CARTESIAN_POINT('',(1.39536280358598,23.7400556349428,-2.74999999999915));
#516=CARTESIAN_POINT('',(1.29971524188805,23.7643578766281,-2.75000000000023));
#517=CARTESIAN_POINT('',(1.23530363658237,23.7797703153026,-2.75000000000001));
#518=CARTESIAN_POINT('',(1.17059007678874,23.7947486823471,-2.74999999999999));
#519=CARTESIAN_POINT('',(1.10473329367018,23.8094633755772,-2.75));
#520=CARTESIAN_POINT('',(1.00667573117894,23.8297632154579,-2.75));
#521=CARTESIAN_POINT('',(0.908338314202949,23.848439637596,-2.75));
#522=CARTESIAN_POINT('',(0.809914359498534,23.8653915138082,-2.75));
#523=CARTESIAN_POINT('',(0.714442482635516,23.8800934838991,-2.75));
#524=CARTESIAN_POINT('',(0.648610489072484,23.889051515978,-2.75));
#525=CARTESIAN_POINT('',(0.582681506046243,23.8973870151098,-2.75));
#526=CARTESIAN_POINT('',(0.513579200030438,23.9053945694754,-2.75));
#527=CARTESIAN_POINT('',(0.414242370240493,23.9149417612949,-2.75));
#528=CARTESIAN_POINT('',(0.322388150592873,23.9219140648201,-2.75));
#529=CARTESIAN_POINT('',(0.255611398683121,23.9257701800377,-2.75));
#530=CARTESIAN_POINT('',(0.188580178377622,23.9289414898254,-2.75));
#531=CARTESIAN_POINT('',(0.113520014342621,23.9315201455676,-2.75));
#532=CARTESIAN_POINT('',(0.0421271273188345,23.9324676014812,-2.75));
#533=CARTESIAN_POINT('',(-0.0251161425810675,23.9325584484421,-2.75));
#534=CARTESIAN_POINT('',(-0.071680895113504,23.9321270986823,-2.75));
#535=CARTESIAN_POINT('',(-0.134853472012961,23.930702057069,-2.75));
#536=CARTESIAN_POINT('',(-0.202251789938199,23.9284672347553,-2.75));
#537=CARTESIAN_POINT('',(-0.29026754375872,23.9240474578747,-2.75));
#538=CARTESIAN_POINT('',(-0.385398998148448,23.9172925108938,-2.75));
#539=CARTESIAN_POINT('',(-0.452328598588557,23.9112817240854,-2.75));
#540=CARTESIAN_POINT('',(-0.519275728987274,23.9045943907577,-2.75));
#541=CARTESIAN_POINT('',(-0.591584815772384,23.8965249439804,-2.75));
#542=CARTESIAN_POINT('',(-0.691802595160395,23.8833704306813,-2.75));
#543=CARTESIAN_POINT('',(-0.768059417118991,23.8718983980651,-2.75));
#544=CARTESIAN_POINT('',(-0.834894299708909,23.8610425496075,-2.75));
#545=CARTESIAN_POINT('',(-0.901817689404023,23.8495511953382,-2.75));
#546=CARTESIAN_POINT('',(-0.992343925632305,23.8326001526016,-2.75));
#547=CARTESIAN_POINT('',(-1.07902790574574,23.8148553789028,-2.75));
#548=CARTESIAN_POINT('',(-1.14526577590552,23.8004039746836,-2.75));
#549=CARTESIAN_POINT('',(-1.21148295278872,23.7854158553589,-2.75));
#550=CARTESIAN_POINT('',(-1.30181594077287,23.7639552236216,-2.75000000000006));
#551=CARTESIAN_POINT('',(-1.38792760003004,23.7419422354034,-2.74999999999981));
#552=CARTESIAN_POINT('',(-1.4870257590461,23.7154521597055,-2.75000000000032));
#553=CARTESIAN_POINT('',(-1.54193952627382,23.700112239576,-2.74999999999586));
#554=CARTESIAN_POINT('',(-1.58771324028961,23.686898625264,-2.749999999982));
#555=CARTESIAN_POINT('',(-2.01313972083498,23.8765102595607,-2.01313972081496));
#556=CARTESIAN_POINT('',(-1.58771324028658,23.6868986252441,-2.74999999997354));
#557=CARTESIAN_POINT('',(-1.59556100559003,23.6914295351008,-2.73640727177246));
#558=CARTESIAN_POINT('',(-1.61124279157008,23.7003828697229,-2.70924562174614));
#559=CARTESIAN_POINT('',(-1.63476596791836,23.7135041753606,-2.66850228517272));
#560=CARTESIAN_POINT('',(-1.65813964827565,23.7262291305131,-2.62801788320083));
#561=CARTESIAN_POINT('',(-1.68132409141948,23.7385366815131,-2.58786124964712));
#562=CARTESIAN_POINT('',(-1.70411711305196,23.7503242796308,-2.54838257798952));
#563=CARTESIAN_POINT('',(-1.72646896703303,23.7615771130103,-2.50966803107211));
#564=CARTESIAN_POINT('',(-1.74818133645005,23.772212224028,-2.4720611038679));
#565=CARTESIAN_POINT('',(-1.76939258452285,23.7823158370357,-2.43532214425181));
#566=CARTESIAN_POINT('',(-1.78995590968985,23.7918354475528,-2.39970541999171));
#567=CARTESIAN_POINT('',(-1.80990341859253,23.8008060506949,-2.3651553207561));
#568=CARTESIAN_POINT('',(-1.82894157778244,23.8091218333828,-2.33218026140048));
#569=CARTESIAN_POINT('',(-1.84722789687233,23.8168806485272,-2.30050742727461));
#570=CARTESIAN_POINT('',(-1.86459036627217,23.8240369358843,-2.27043474773578));
#571=CARTESIAN_POINT('',(-1.88117443291549,23.8306779661134,-2.24171030130642));
#572=CARTESIAN_POINT('',(-1.89680785161095,23.836763181024,-2.21463242541805));
#573=CARTESIAN_POINT('',(-1.91180258327187,23.8424388158423,-2.18866078791461));
#574=CARTESIAN_POINT('',(-1.92615060710733,23.8477202455579,-2.16380928121668));
#575=CARTESIAN_POINT('',(-1.94000939656286,23.8526807398927,-2.13980515331351));
#576=CARTESIAN_POINT('',(-1.9545611168768,23.8577465151414,-2.1146008339128));
#577=CARTESIAN_POINT('',(-1.9699049642901,23.8629204977805,-2.08802451007691));
#578=CARTESIAN_POINT('',(-1.98605047565145,23.8681695981604,-2.06005966349325));
#579=CARTESIAN_POINT('',(-2.00041298209488,23.8726685562703,-2.0351830720555));
#580=CARTESIAN_POINT('',(-2.00939162052929,23.8753901115177,-2.01963161374359));
#581=CARTESIAN_POINT('',(-2.01313971763682,23.8765102595607,-2.0131397189685));
#582=CARTESIAN_POINT('',(-3.1754264805,23.6868986253,0.));
#583=CARTESIAN_POINT('',(-2.01313972083498,23.8765102595607,-2.01313972081496));
#584=CARTESIAN_POINT('',(-2.03440808232782,23.8828680013689,-1.97630183811495));
#585=CARTESIAN_POINT('',(-2.07710023732809,23.894594390561,-1.90235685656856));
#586=CARTESIAN_POINT('',(-2.14104917814011,23.9089591545723,-1.79159404198994));
#587=CARTESIAN_POINT('',(-2.20469594159495,23.9199841415521,-1.68135461394686));
#588=CARTESIAN_POINT('',(-2.26769494596165,23.9276274085596,-1.57223713755551));
#589=CARTESIAN_POINT('',(-2.32657854375674,23.9317023270101,-1.47024775444014));
#590=CARTESIAN_POINT('',(-2.36744797983359,23.9325828449046,-1.39945981467707));
#591=CARTESIAN_POINT('',(-2.40721626391513,23.9324337100194,-1.33057912611678));
#592=CARTESIAN_POINT('',(-2.44893839286967,23.9310852269297,-1.25831427896626));
#593=CARTESIAN_POINT('',(-2.50645355042749,23.9264287594279,-1.158695103869));
#594=CARTESIAN_POINT('',(-2.56229253867688,23.9192790075599,-1.06197913917607));
#595=CARTESIAN_POINT('',(-2.61649150695033,23.9098908152201,-0.968103772406949));
#596=CARTESIAN_POINT('',(-2.66827723991192,23.8987074435182,-0.87840825180866));
#597=CARTESIAN_POINT('',(-2.71799872913959,23.8859857150966,-0.792288106236786));
#598=CARTESIAN_POINT('',(-2.76529201884751,23.8721210064789,-0.71037372560411));
#599=CARTESIAN_POINT('',(-2.81059109976187,23.857264559437,-0.631913415922858));
#600=CARTESIAN_POINT('',(-2.85347730611809,23.8418202852894,-0.557632327568646));
#601=CARTESIAN_POINT('',(-2.89465088266611,23.8257687077576,-0.486317601056872));
#602=CARTESIAN_POINT('',(-2.93810145647524,23.8076231391787,-0.411058999600076));
#603=CARTESIAN_POINT('',(-2.98402573608211,23.7870621593825,-0.331515814018531));
#604=CARTESIAN_POINT('',(-3.0320226679207,23.7640576466742,-0.24838268946517));
#605=CARTESIAN_POINT('',(-3.07434687774217,23.742537417135,-0.17507500766285));
#606=CARTESIAN_POINT('',(-3.11142994312199,23.7228100149276,-0.11084525432344));
#607=CARTESIAN_POINT('',(-3.14368387023133,23.7050430426272,-0.0549798138254232));
#608=CARTESIAN_POINT('',(-3.16492863444609,23.6929595420309,-0.018182802809972));
#609=CARTESIAN_POINT('',(-3.1754264798183,23.6868986255659,-1.25497123804053E-9));
#610=CARTESIAN_POINT('',(-1.5877132403,23.6868986253,2.75));
#611=CARTESIAN_POINT('',(-3.17542648051958,23.6868986252415,3.08833987857372E-11));
#612=CARTESIAN_POINT('',(-3.15932779653776,23.6961931374865,0.0278837386287985));
#613=CARTESIAN_POINT('',(-3.12716583759816,23.7143394537095,0.0835898855928972));
#614=CARTESIAN_POINT('',(-3.07883879389974,23.7402727425746,0.167294780663264));
#615=CARTESIAN_POINT('',(-3.03054586153776,23.7647987415807,0.250940593155824));
#616=CARTESIAN_POINT('',(-2.98214149094345,23.7879296582666,0.334779422318257));
#617=CARTESIAN_POINT('',(-2.93352847137083,23.8096371621134,0.418979642101073));
#618=CARTESIAN_POINT('',(-2.88469970866981,23.8298430235425,0.503553539932092));
#619=CARTESIAN_POINT('',(-2.83576724103792,23.8484266035041,0.58830705996032));
#620=CARTESIAN_POINT('',(-2.78676368645919,23.8653120101801,0.67318370617979));
#621=CARTESIAN_POINT('',(-2.73763424112429,23.8804554734026,0.758278401572182));
#622=CARTESIAN_POINT('',(-2.68832710159814,23.8938044911642,0.843680872318489));
#623=CARTESIAN_POINT('',(-2.63882849167015,23.905295260008,0.929414979514868));
#624=CARTESIAN_POINT('',(-2.5890970199453,23.9148731955786,1.01555241515994));
#625=CARTESIAN_POINT('',(-2.53344156452012,23.9233389592345,1.11195049152705));
#626=CARTESIAN_POINT('',(-2.47196489028917,23.9297197016273,1.21843121459095));
#627=CARTESIAN_POINT('',(-2.41941898384147,23.9322250921667,1.3094433941093));
#628=CARTESIAN_POINT('',(-2.37474171691534,23.932660879225,1.38682669020446));
#629=CARTESIAN_POINT('',(-2.33566887263651,23.9319433807041,1.45450284154013));
#630=CARTESIAN_POINT('',(-2.28762635843128,23.929167765715,1.53771491686708));
#631=CARTESIAN_POINT('',(-2.23741802329109,23.9241641867246,1.62467830406937));
#632=CARTESIAN_POINT('',(-2.18716538764709,23.9170720969238,1.71171842197993));
#633=CARTESIAN_POINT('',(-2.13681018470372,23.9079000318645,1.79893619164886));
#634=CARTESIAN_POINT('',(-2.08643233613118,23.8966874371996,1.88619318468336));
#635=CARTESIAN_POINT('',(-2.03606770749101,23.8834860269892,1.9734272801091));
#636=CARTESIAN_POINT('',(-1.98572645337583,23.8683497919088,2.06062088965616));
#637=CARTESIAN_POINT('',(-1.93538589019922,23.8513237338809,2.14781330244895));
#638=CARTESIAN_POINT('',(-1.88516541196848,23.8325111392927,2.2347977220019));
#639=CARTESIAN_POINT('',(-1.83511340538683,23.812007971613,2.32149034008749));
#640=CARTESIAN_POINT('',(-1.78523005309662,23.7898949726801,2.40789084036046));
#641=CARTESIAN_POINT('',(-1.73549021044583,23.766238252155,2.49404277463605));
#642=CARTESIAN_POINT('',(-1.68596995771733,23.7411546927415,2.579814368));
#643=CARTESIAN_POINT('',(-1.63670190828593,23.7147472008507,2.66514913243096));
#644=CARTESIAN_POINT('',(-1.60401916663395,23.6963127770488,2.72175730124814));
#645=CARTESIAN_POINT('',(-1.58771323841296,23.6868986255685,2.74999999726283));
#646=CARTESIAN_POINT('',(1.5877132403,23.6868986253,2.75));
#647=CARTESIAN_POINT('',(-1.5877132402896,23.686898625264,2.749999999982));
#648=CARTESIAN_POINT('',(-1.55530837360917,23.6962530330086,2.7499999999931));
#649=CARTESIAN_POINT('',(-1.49059265682125,23.714506996563,2.75000000000318));
#650=CARTESIAN_POINT('',(-1.39342529672942,23.7405655748736,2.74999999999915));
#651=CARTESIAN_POINT('',(-1.29737627939056,23.764935463741,2.75000000000023));
#652=CARTESIAN_POINT('',(-1.23266526957136,23.7803938661672,2.75));
#653=CARTESIAN_POINT('',(-1.16795746574454,23.795343676324,2.75));
#654=CARTESIAN_POINT('',(-1.10218464605533,23.810009227787,2.75));
#655=CARTESIAN_POINT('',(-1.00465169233555,23.8301609312064,2.75));
#656=CARTESIAN_POINT('',(-0.906906566030649,23.848695521179,2.75));
#657=CARTESIAN_POINT('',(-0.808877291836335,23.8655591862783,2.75));
#658=CARTESIAN_POINT('',(-0.712986882559629,23.880309643699,2.75));
#659=CARTESIAN_POINT('',(-0.636067421154695,23.89075090915,2.75));
#660=CARTESIAN_POINT('',(-0.547891625639055,23.9015829340642,2.75));
#661=CARTESIAN_POINT('',(-0.445936249936029,23.9123713667466,2.75));
#662=CARTESIAN_POINT('',(-0.331655852842151,23.9214022054996,2.75));
#663=CARTESIAN_POINT('',(-0.253980994758739,23.9258572604839,2.75));
#664=CARTESIAN_POINT('',(-0.187126998970831,23.9289958635189,2.75));
#665=CARTESIAN_POINT('',(-0.112614204167803,23.9315403040587,2.75));
#666=CARTESIAN_POINT('',(-0.0415966054767668,23.9324708710488,2.75));
#667=CARTESIAN_POINT('',(0.0256095446390695,23.9325565093765,2.75));
#668=CARTESIAN_POINT('',(0.0725915235347644,23.932117571753,2.75));
#669=CARTESIAN_POINT('',(0.136045187766317,23.9306680738624,2.75));
#670=CARTESIAN_POINT('',(0.203506573603842,23.928411215943,2.75));
#671=CARTESIAN_POINT('',(0.291161222324,23.923993325563,2.75));
#672=CARTESIAN_POINT('',(0.386596895766627,23.9171988863215,2.75));
#673=CARTESIAN_POINT('',(0.453474095274825,23.91117473742,2.75));
#674=CARTESIAN_POINT('',(0.520345222307306,23.9044779681864,2.75));
#675=CARTESIAN_POINT('',(0.592275916155972,23.8964404192165,2.75));
#676=CARTESIAN_POINT('',(0.692460187264111,23.8832777586171,2.75));
#677=CARTESIAN_POINT('',(0.768946618050592,23.8717617435264,2.75));
#678=CARTESIAN_POINT('',(0.835836723667338,23.860884272034,2.75));
#679=CARTESIAN_POINT('',(0.902862389187787,23.8493622476328,2.75));
#680=CARTESIAN_POINT('',(0.993349207585775,23.8324042511547,2.75));
#681=CARTESIAN_POINT('',(1.08021200165843,23.8146062682744,2.75));
#682=CARTESIAN_POINT('',(1.14666301417584,23.8000941557473,2.75));
#683=CARTESIAN_POINT('',(1.21312781070502,23.7850339184706,2.75));
#684=CARTESIAN_POINT('',(1.29249103450081,23.7661566206036,2.74999999999996));
#685=CARTESIAN_POINT('',(1.37839604750373,23.7443956456818,2.75000000000012));
#686=CARTESIAN_POINT('',(1.44411665431356,23.7269728093952,2.74999999999979));
#687=CARTESIAN_POINT('',(1.50957042702102,23.7091536751188,2.75000000000081));
#688=CARTESIAN_POINT('',(1.55516475430626,23.6962945213398,2.74999999999534));
#689=CARTESIAN_POINT('',(1.58771324028961,23.686898625264,2.749999999982));
#690=CARTESIAN_POINT('',(1.58771324028658,23.6868986252441,2.74999999997354));
#691=CARTESIAN_POINT('',(1.60381192428588,23.6961931374796,2.7221162613819));
#692=CARTESIAN_POINT('',(1.63597388324319,23.7143394536944,2.66641011442374));
#693=CARTESIAN_POINT('',(1.68430092693889,23.7402727425643,2.58270521935057));
#694=CARTESIAN_POINT('',(1.73259385930066,23.7647987415706,2.49905940685493));
#695=CARTESIAN_POINT('',(1.78099822988847,23.7879296582579,2.41522057768616));
#696=CARTESIAN_POINT('',(1.82961124945026,23.8096371621057,2.3310203578945));
#697=CARTESIAN_POINT('',(1.87844001213521,23.8298430235358,2.24644646005187));
#698=CARTESIAN_POINT('',(1.92737247974575,23.8484266034983,2.16169294000919));
#699=CARTESIAN_POINT('',(1.97637603429775,23.8653120101752,2.07681629377213));
#700=CARTESIAN_POINT('',(2.02550547960036,23.8804554733985,1.9917215983588));
#701=CARTESIAN_POINT('',(2.07481261908839,23.893804491161,1.90631912758812));
#702=CARTESIAN_POINT('',(2.12431122897212,23.9052952600055,1.82058502036392));
#703=CARTESIAN_POINT('',(2.17404270064636,23.9148731955767,1.73444758468741));
#704=CARTESIAN_POINT('',(2.22969815600775,23.9233389592333,1.63804950828137));
#705=CARTESIAN_POINT('',(2.29117483015881,23.9297197016266,1.53156878516947));
#706=CARTESIAN_POINT('',(2.34372073653172,23.9322250921665,1.4405566056002));
#707=CARTESIAN_POINT('',(2.38839800338655,23.9326608792251,1.36317330946293));
#708=CARTESIAN_POINT('',(2.4274708475995,23.9319433807042,1.29549715808866));
#709=CARTESIAN_POINT('',(2.47551336171494,23.9291677657156,1.21228508271588));
#710=CARTESIAN_POINT('',(2.52572169675744,23.9241641867256,1.12532169545726));
#711=CARTESIAN_POINT('',(2.57597433229704,23.9170720969251,1.03828157748686));
#712=CARTESIAN_POINT('',(2.62632953512917,23.9079000318663,0.951063807754625));
#713=CARTESIAN_POINT('',(2.67670738358388,23.8966874372018,0.863806814653486));
#714=CARTESIAN_POINT('',(2.72707201209986,23.883486026992,0.776572719157902));
#715=CARTESIAN_POINT('',(2.77741326608476,23.8683497919123,0.689379109537767));
#716=CARTESIAN_POINT('',(2.8277538291251,23.8513237338851,0.602186696668701));
#717=CARTESIAN_POINT('',(2.87797430721412,23.8325111392978,0.515202277036569));
#718=CARTESIAN_POINT('',(2.92802631364893,23.8120079716191,0.428509658869104));
#719=CARTESIAN_POINT('',(2.97790966578755,23.7898949726872,0.342109158511795));
#720=CARTESIAN_POINT('',(3.02764950828164,23.7662382521637,0.255957224149317));
#721=CARTESIAN_POINT('',(3.07716976085032,23.7411546927506,0.170185630697788));
#722=CARTESIAN_POINT('',(3.12643781011336,23.7147472008652,0.0848508661731634));
#723=CARTESIAN_POINT('',(3.15912055166245,23.6963127770554,0.028242697302593));
#724=CARTESIAN_POINT('',(3.17542647983688,23.6868986255659,1.26570197912493E-9));
#725=CARTESIAN_POINT('',(0.,24.,-2.6331189916));
#726=CARTESIAN_POINT('',(-1.86189629463068,23.9999999999754,-1.86189629461216));
#727=AXIS2_PLACEMENT_3D('',#728,#729,#730);
#728=CARTESIAN_POINT('',(0.,24.,0.));
#729=DIRECTION('',(0.,-1.,0.));
#730=DIRECTION('',(0.,0.,-1.));
#731=AXIS2_PLACEMENT_3D('',#732,#733,#734);
#732=CARTESIAN_POINT('',(0.,24.,0.));
#733=DIRECTION('',(0.,-1.,0.));
#734=DIRECTION('',(-0.707106781190063,0.,-0.707106781183032));
#735=CARTESIAN_POINT('',(-1.83697019872103E-16,24.,1.5));
#736=AXIS2_PLACEMENT_3D('',#737,#738,#739);
#737=CARTESIAN_POINT('',(0.,24.,0.));
#738=DIRECTION('',(0.,1.,0.));
#739=DIRECTION('',(0.,0.,1.));
#740=CARTESIAN_POINT('',(-1.5877132403,0.3131013747,2.75));
#741=CARTESIAN_POINT('',(-1.5877132403,23.6868986253,2.75));
#742=VECTOR('',#743,1.);
#743=DIRECTION('',(6.64980626729499E-17,-1.,3.79988929559714E-17));
#744=CARTESIAN_POINT('',(1.5877132403,0.3131013747,2.75));
#745=CARTESIAN_POINT('',(1.58771324029669,0.31310137471145,2.74999999999428));
#746=CARTESIAN_POINT('',(1.55567331654074,0.30385231698343,2.7499999999978));
#747=CARTESIAN_POINT('',(1.49162715466551,0.285782457641544,2.75000000000304));
#748=CARTESIAN_POINT('',(1.3953628036005,0.259944364997391,2.75000000000518));
#749=CARTESIAN_POINT('',(1.29971524190197,0.235642123309387,2.75000000000137));
#750=CARTESIAN_POINT('',(1.23530363659554,0.220229684635097,2.74999999999467));
#751=CARTESIAN_POINT('',(1.17059007680108,0.205251317590237,2.74999999998574));
#752=CARTESIAN_POINT('',(1.10473329368174,0.190536624359845,2.74999999997437));
#753=CARTESIAN_POINT('',(1.00667573118876,0.170236784478518,2.74999999995046));
#754=CARTESIAN_POINT('',(0.908338314210998,0.151560362340022,2.74999999991919));
#755=CARTESIAN_POINT('',(0.809914359505259,0.134608486127448,2.74999999988035));
#756=CARTESIAN_POINT('',(0.714442482640753,0.119906516036227,2.74999999983513));
#757=CARTESIAN_POINT('',(0.648610489077094,0.110948483957168,2.74999999979883));
#758=CARTESIAN_POINT('',(0.582681506049565,0.102612984825149,2.74999999975973));
#759=CARTESIAN_POINT('',(0.513579200032151,0.0946054304592265,2.74999999971558));
#760=CARTESIAN_POINT('',(0.414242370239016,0.0850582386394399,2.7499999996436));
#761=CARTESIAN_POINT('',(0.322388150588122,0.0780859351140576,2.749999999569));
#762=CARTESIAN_POINT('',(0.255611398676622,0.0742298198964496,2.74999999950951));
#763=CARTESIAN_POINT('',(0.188580178370434,0.0710585101088459,2.74999999944677));
#764=CARTESIAN_POINT('',(0.113520014335708,0.0684798543667816,2.74999999937229));
#765=CARTESIAN_POINT('',(0.0421271273141557,0.067532398453282,2.74999999929493));
#766=CARTESIAN_POINT('',(-0.0251161425859083,0.0674415514924664,2.74999999921858));
#767=CARTESIAN_POINT('',(-0.0716808951206835,0.0678729012523302,2.74999999916358));
#768=CARTESIAN_POINT('',(-0.134853472023094,0.0692979428657721,2.74999999908531));
#769=CARTESIAN_POINT('',(-0.202251789949248,0.0715327651797174,2.74999999899871));
#770=CARTESIAN_POINT('',(-0.290267543768933,0.0759525420604192,2.74999999887911));
#771=CARTESIAN_POINT('',(-0.385398998162904,0.0827074890418685,2.74999999874128));
#772=CARTESIAN_POINT('',(-0.452328598603714,0.0887182758505784,2.74999999863885));
#773=CARTESIAN_POINT('',(-0.519275729003141,0.0954056091785267,2.74999999853346));
#774=CARTESIAN_POINT('',(-0.591584815785885,0.103475055955728,2.74999999841597));
#775=CARTESIAN_POINT('',(-0.691802595174772,0.116629569255285,2.74999999824459));
#776=CARTESIAN_POINT('',(-0.768059417138259,0.128101601872391,2.74999999810784));
#777=CARTESIAN_POINT('',(-0.834894299728647,0.138957450330363,2.74999999798452));
#778=CARTESIAN_POINT('',(-0.901817689424264,0.150448804600031,2.74999999785834));
#779=CARTESIAN_POINT('',(-0.992343925648951,0.16739984733615,2.74999999768156));
#780=CARTESIAN_POINT('',(-1.07902790576797,0.185144621036371,2.74999999750573));
#781=CARTESIAN_POINT('',(-1.14526577592812,0.199596025255956,2.7499999973675));
#782=CARTESIAN_POINT('',(-1.21148295281159,0.21458414458099,2.74999999722697));
#783=CARTESIAN_POINT('',(-1.30181594079103,0.236044776317234,2.74999999703087));
#784=CARTESIAN_POINT('',(-1.38792760005089,0.258057764536955,2.74999999683719));
#785=CARTESIAN_POINT('',(-1.48702575906672,0.284547840234036,2.74999999660928));
#786=CARTESIAN_POINT('',(-1.5419395262915,0.299887760372458,2.74999999648013));
#787=CARTESIAN_POINT('',(-1.58771324029669,0.31310137471145,2.74999999637062));
#788=CARTESIAN_POINT('',(1.5877132403,23.6868986253,2.75));
#789=VECTOR('',#790,1.);
#790=DIRECTION('',(-6.64980626729499E-17,-1.,3.79988929559714E-17));
#791=CARTESIAN_POINT('',(3.1754264805,0.3131013747,0.));
#792=CARTESIAN_POINT('',(3.17542648053376,0.313101374733969,3.08827602578746E-11));
#793=CARTESIAN_POINT('',(3.15932779654826,0.303806862466572,0.0278837386200329));
#794=CARTESIAN_POINT('',(3.12716583760133,0.285660546223029,0.083589885574349));
#795=CARTESIAN_POINT('',(3.07883879389732,0.259727257365481,0.167294780645184));
#796=CARTESIAN_POINT('',(3.03054586154231,0.235201258356828,0.250940593142031));
#797=CARTESIAN_POINT('',(2.98214149096609,0.212070341671033,0.334779422316249));
#798=CARTESIAN_POINT('',(2.93352847142377,0.190362837823692,0.418979642117908));
#799=CARTESIAN_POINT('',(2.88469970876573,0.170156976394079,0.503553539975521));
#800=CARTESIAN_POINT('',(2.83576724119002,0.151573396431958,0.58830706003838));
#801=CARTESIAN_POINT('',(2.78676368668123,0.134687989755487,0.673183706300569));
#802=CARTESIAN_POINT('',(2.7376342414307,0.119544526532602,0.758278401743949));
#803=CARTESIAN_POINT('',(2.68832710200401,0.106195508770614,0.843680872549877));
#804=CARTESIAN_POINT('',(2.63882849219112,0.0947047399265705,0.929414979814827));
#805=CARTESIAN_POINT('',(2.58909702059764,0.0851268043558308,1.01555241553777));
#806=CARTESIAN_POINT('',(2.53344156533751,0.0766610406997725,1.11195049200223));
#807=CARTESIAN_POINT('',(2.47196489131262,0.0702802983070388,1.21843121518723));
#808=CARTESIAN_POINT('',(2.41941898506577,0.067774907767778,1.30944339482053));
#809=CARTESIAN_POINT('',(2.37474171832295,0.0673391207094913,1.38682669102289));
#810=CARTESIAN_POINT('',(2.33566887421322,0.0680566192305533,1.45450284245732));
#811=CARTESIAN_POINT('',(2.2876263602298,0.070832234219934,1.53771491791649));
#812=CARTESIAN_POINT('',(2.23741802533945,0.0758358132105244,1.62467830526443));
#813=CARTESIAN_POINT('',(2.18716538996211,0.0829279030116556,1.71171842333035));
#814=CARTESIAN_POINT('',(2.13681018730244,0.0920999680712986,1.79893619316443));
#815=CARTESIAN_POINT('',(2.08643233902997,0.103312562736642,1.8861931863735));
#816=CARTESIAN_POINT('',(2.03606771070569,0.116513972947481,1.97342728198287));
#817=CARTESIAN_POINT('',(1.98572645692178,0.131650208028286,2.06062089172232));
#818=CARTESIAN_POINT('',(1.93538589409151,0.148676266056717,2.14781330471617));
#819=CARTESIAN_POINT('',(1.88516541622086,0.167488860645414,2.23479772447805));
#820=CARTESIAN_POINT('',(1.83511341001214,0.187992028325527,2.32149034277985));
#821=CARTESIAN_POINT('',(1.78523005810708,0.210105027259064,2.40789084327586));
#822=CARTESIAN_POINT('',(1.73549021585325,0.233761747783909,2.49404277778103));
#823=CARTESIAN_POINT('',(1.68596996353296,0.258845307199793,2.57981437137921));
#824=CARTESIAN_POINT('',(1.63670191451802,0.285252799082351,2.66514913605205));
#825=CARTESIAN_POINT('',(1.60401917315318,0.303687222904581,2.72175730502771));
#826=CARTESIAN_POINT('',(1.58771324507885,0.313101374406964,2.75000000111957));
#827=CARTESIAN_POINT('',(3.17542648053221,23.6868986253,0.));
#828=VECTOR('',#829,1.);
#829=DIRECTION('',(-7.59977859119428E-17,-1.,0.));
#830=CARTESIAN_POINT('',(2.01313972083498,0.123489740373841,-2.01313972081496));
#831=CARTESIAN_POINT('',(2.01313972083498,0.123489740373841,-2.01313972081496));
#832=CARTESIAN_POINT('',(2.0344080823282,0.117131998565542,-1.9763018381143));
#833=CARTESIAN_POINT('',(2.07710023732917,0.105405609373246,-1.90235685656668));
#834=CARTESIAN_POINT('',(2.14104917814233,0.0910408453617287,-1.79159404198609));
#835=CARTESIAN_POINT('',(2.20469594159803,0.0800158583819525,-1.68135461394152));
#836=CARTESIAN_POINT('',(2.26769494596533,0.0723725913745248,-1.57223713754913));
#837=CARTESIAN_POINT('',(2.32657854375935,0.0682976729243061,-1.4702477544356));
#838=CARTESIAN_POINT('',(2.36744797983639,0.0674171550298634,-1.39945981467222));
#839=CARTESIAN_POINT('',(2.40721626391797,0.0675662899151541,-1.33057912611184));
#840=CARTESIAN_POINT('',(2.44893839287398,0.0689147730050407,-1.25831427895879));
#841=CARTESIAN_POINT('',(2.50645355043186,0.0735712405071165,-1.15869510386143));
#842=CARTESIAN_POINT('',(2.56229253868134,0.0807209923752624,-1.06197913916835));
#843=CARTESIAN_POINT('',(2.61649150695496,0.0901091847153243,-0.968103772398938));
#844=CARTESIAN_POINT('',(2.66827723991683,0.101292556417518,-0.878408251800172));
#845=CARTESIAN_POINT('',(2.71799872914484,0.114014284839379,-0.792288106227719));
#846=CARTESIAN_POINT('',(2.76529201885313,0.127878993457398,-0.710373725594416));
#847=CARTESIAN_POINT('',(2.81059109976787,0.142735440499613,-0.631913415912498));
#848=CARTESIAN_POINT('',(2.85347730612455,0.158179714647541,-0.557632327557518));
#849=CARTESIAN_POINT('',(2.89465088267306,0.174231292179745,-0.486317601044886));
#850=CARTESIAN_POINT('',(2.93810145648281,0.192376860759075,-0.411058999587013));
#851=CARTESIAN_POINT('',(2.98402573609028,0.212937840555713,-0.331515814004457));
#852=CARTESIAN_POINT('',(3.03202266792919,0.235942353264776,-0.248382689450548));
#853=CARTESIAN_POINT('',(3.07434687775088,0.257462582803319,-0.175075007647848));
#854=CARTESIAN_POINT('',(3.11142994312991,0.277189985013142,-0.110845254309813));
#855=CARTESIAN_POINT('',(3.14368387024041,0.294956957305229,-0.0549798138098092));
#856=CARTESIAN_POINT('',(3.16492863445237,0.307040457922303,-0.0181828027992041));
#857=CARTESIAN_POINT('',(3.17542647982189,0.313101374409575,-1.2488610146022E-9));
#858=CARTESIAN_POINT('',(1.5877132403,0.3131013747,-2.75));
#859=CARTESIAN_POINT('',(1.58771324029367,0.313101374731369,-2.74999999998582));
#860=CARTESIAN_POINT('',(1.59556100558812,0.308570464852041,-2.7364072717852));
#861=CARTESIAN_POINT('',(1.61124279155685,0.299617130209075,-2.70924562175624));
#862=CARTESIAN_POINT('',(1.63476596790387,0.286495824578602,-2.66850228517614));
#863=CARTESIAN_POINT('',(1.65813964826859,0.273770869423379,-2.62801788320743));
#864=CARTESIAN_POINT('',(1.68132409143046,0.261463318423793,-2.58786124966331));
#865=CARTESIAN_POINT('',(1.70411711309085,0.249675720305926,-2.54838257802229));
#866=CARTESIAN_POINT('',(1.72646896710963,0.238422886926647,-2.50966803112757));
#867=CARTESIAN_POINT('',(1.7481813365734,0.227787775909064,-2.47206110395133));
#868=CARTESIAN_POINT('',(1.76939258470185,0.217684162901435,-2.43532214436798));
#869=CARTESIAN_POINT('',(1.78995590993247,0.208164552384282,-2.39970542014473));
#870=CARTESIAN_POINT('',(1.80990341890611,0.199193949242009,-2.36515532094979));
#871=CARTESIAN_POINT('',(1.82894157817232,0.190878166553921,-2.33218026163764));
#872=CARTESIAN_POINT('',(1.84722789734343,0.183119351409409,-2.30050742755792));
#873=CARTESIAN_POINT('',(1.86459036682769,0.175963064052076,-2.27043474806698));
#874=CARTESIAN_POINT('',(1.88117443355836,0.169322033822714,-2.24171030168713));
#875=CARTESIAN_POINT('',(1.89680785234223,0.163236818911924,-2.21463242584883));
#876=CARTESIAN_POINT('',(1.91180258409351,0.157561184093444,-2.18866078839658));
#877=CARTESIAN_POINT('',(1.92615060802058,0.152279754377703,-2.16380928175054));
#878=CARTESIAN_POINT('',(1.94000939756945,0.14731926004268,-2.13980515390027));
#879=CARTESIAN_POINT('',(1.95456111798631,0.142253484793803,-2.11460083455791));
#880=CARTESIAN_POINT('',(1.96990496551391,0.137079502154474,-2.08802451078686));
#881=CARTESIAN_POINT('',(1.98605047700224,0.131830401774427,-2.06005966427528));
#882=CARTESIAN_POINT('',(2.00041298356451,0.127331443664383,-2.03518307290501));
#883=CARTESIAN_POINT('',(2.00939162207632,0.124609888416854,-2.01963161463708));
#884=CARTESIAN_POINT('',(2.01313971921672,0.123489740373841,-2.01313971988066));
#885=CARTESIAN_POINT('',(1.5877132403,23.6868986253,-2.75));
#886=VECTOR('',#887,1.);
#887=DIRECTION('',(-6.64980626729499E-17,-1.,-3.79988929559714E-17));
#888=CARTESIAN_POINT('',(-1.5877132403,0.3131013747,-2.75));
#889=CARTESIAN_POINT('',(-1.58771324029669,0.31310137471145,-2.74999999999428));
#890=CARTESIAN_POINT('',(-1.55530837362202,0.30374696694451,-2.7499999999978));
#891=CARTESIAN_POINT('',(-1.49059265683891,0.285493003369483,-2.75000000000304));
#892=CARTESIAN_POINT('',(-1.39342529674389,0.259434425066507,-2.75000000000518));
#893=CARTESIAN_POINT('',(-1.29737627940442,0.235064536196491,-2.75000000000141));
#894=CARTESIAN_POINT('',(-1.23266526958447,0.219606133770372,-2.7499999999948));
#895=CARTESIAN_POINT('',(-1.16795746575697,0.204656323613369,-2.74999999998604));
#896=CARTESIAN_POINT('',(-1.10218464606722,0.189990772150072,-2.74999999997489));
#897=CARTESIAN_POINT('',(-1.0046516923459,0.169839068730166,-2.74999999995158));
#898=CARTESIAN_POINT('',(-0.906906566039081,0.151304478757015,-2.74999999992119));
#899=CARTESIAN_POINT('',(-0.808877291842746,0.134440813657306,-2.74999999988339));
#900=CARTESIAN_POINT('',(-0.712986882563845,0.119690356236103,-2.74999999983902));
#901=CARTESIAN_POINT('',(-0.636067421157448,0.109249090784845,-2.74999999979754));
#902=CARTESIAN_POINT('',(-0.547891625640212,0.0984170658704843,-2.74999999974516));
#903=CARTESIAN_POINT('',(-0.445936249935752,0.0876286331878877,-2.74999999967723));
#904=CARTESIAN_POINT('',(-0.331655852838982,0.0785977944347347,-2.74999999958811));
#905=CARTESIAN_POINT('',(-0.25398099475423,0.0741427394503569,-2.74999999952041));
#906=CARTESIAN_POINT('',(-0.187126998965313,0.0710041364153679,-2.74999999945919));
#907=CARTESIAN_POINT('',(-0.112614204162138,0.06845969587569,-2.74999999938691));
#908=CARTESIAN_POINT('',(-0.0415966054725094,0.0675291288856934,-2.74999999931168));
#909=CARTESIAN_POINT('',(0.0256095446441726,0.0674434905580662,-2.74999999923712));
#910=CARTESIAN_POINT('',(0.0725915235424135,0.0678824281815729,-2.74999999918289));
#911=CARTESIAN_POINT('',(0.136045187777136,0.0693319260724343,-2.74999999910601));
#912=CARTESIAN_POINT('',(0.203506573615514,0.0715887839920066,-2.74999999902124));
#913=CARTESIAN_POINT('',(0.291161222334807,0.0760066743721438,-2.74999999890479));
#914=CARTESIAN_POINT('',(0.386596895781521,0.0828011136142059,-2.7499999987696));
#915=CARTESIAN_POINT('',(0.453474095290478,0.0888252625160217,-2.74999999866951));
#916=CARTESIAN_POINT('',(0.520345222323756,0.0955220317499012,-2.74999999856657));
#917=CARTESIAN_POINT('',(0.592275916170326,0.10355958071973,-2.74999999845232));
#918=CARTESIAN_POINT('',(0.692460187279509,0.116722241319647,-2.74999999828484));
#919=CARTESIAN_POINT('',(0.76894661807066,0.128238256411196,-2.74999999815075));
#920=CARTESIAN_POINT('',(0.835836723688014,0.13911572790403,-2.74999999803007));
#921=CARTESIAN_POINT('',(0.902862389209084,0.150637752305583,-2.74999999790651));
#922=CARTESIAN_POINT('',(0.993349207604005,0.16759574878341,-2.74999999773375));
#923=CARTESIAN_POINT('',(1.08021200168193,0.185393731665081,-2.74999999756147));
#924=CARTESIAN_POINT('',(1.14666301419985,0.199905844192589,-2.74999999742588));
#925=CARTESIAN_POINT('',(1.21312781072938,0.21496608146965,-2.74999999728794));
#926=CARTESIAN_POINT('',(1.2924910345206,0.233843379335815,-2.74999999711945));
#927=CARTESIAN_POINT('',(1.37839604752551,0.255604354258143,-2.74999999693144));
#928=CARTESIAN_POINT('',(1.44411665433461,0.273027190545454,-2.74999999678432));
#929=CARTESIAN_POINT('',(1.50957042704178,0.29084632481972,-2.74999999663581));
#930=CARTESIAN_POINT('',(1.55516475432109,0.303705478608972,-2.74999999653048));
#931=CARTESIAN_POINT('',(1.58771324029669,0.31310137471145,-2.74999999645436));
#932=CARTESIAN_POINT('',(-1.5877132403,23.6868986253,-2.75));
#933=VECTOR('',#934,1.);
#934=DIRECTION('',(6.64980626729499E-17,-1.,-3.79988929559714E-17));
#935=CARTESIAN_POINT('',(-3.1754264805,0.3131013747,0.));
#936=CARTESIAN_POINT('',(-3.17542648053376,0.313101374733969,-3.08825658190808E-11));
#937=CARTESIAN_POINT('',(-3.15932779654826,0.303806862466572,-0.0278837386200327));
#938=CARTESIAN_POINT('',(-3.12716583760133,0.285660546223029,-0.0835898855743483));
#939=CARTESIAN_POINT('',(-3.07883879389732,0.259727257365481,-0.167294780645184));
#940=CARTESIAN_POINT('',(-3.03054586154231,0.235201258356828,-0.250940593142031));
#941=CARTESIAN_POINT('',(-2.98214149096608,0.212070341671033,-0.334779422316249));
#942=CARTESIAN_POINT('',(-2.93352847142377,0.190362837823689,-0.418979642117908));
#943=CARTESIAN_POINT('',(-2.88469970876573,0.170156976394079,-0.503553539975523));
#944=CARTESIAN_POINT('',(-2.83576724119002,0.151573396431958,-0.588307060038381));
#945=CARTESIAN_POINT('',(-2.78676368668123,0.134687989755487,-0.67318370630057));
#946=CARTESIAN_POINT('',(-2.73763424143071,0.119544526532602,-0.758278401743951));
#947=CARTESIAN_POINT('',(-2.68832710200401,0.106195508770614,-0.84368087254988));
#948=CARTESIAN_POINT('',(-2.63882849219113,0.0947047399265705,-0.92941497981483));
#949=CARTESIAN_POINT('',(-2.58909702059765,0.0851268043558311,-1.01555241553777));
#950=CARTESIAN_POINT('',(-2.53344156533753,0.0766610406997721,-1.11195049200224));
#951=CARTESIAN_POINT('',(-2.47196489131264,0.0702802983070387,-1.21843121518724));
#952=CARTESIAN_POINT('',(-2.41941898506579,0.0677749077677779,-1.30944339482054));
#953=CARTESIAN_POINT('',(-2.37474171832298,0.0673391207094912,-1.3868266910229));
#954=CARTESIAN_POINT('',(-2.33566887421324,0.0680566192305531,-1.45450284245734));
#955=CARTESIAN_POINT('',(-2.28762636022983,0.0708322342199337,-1.5377149179165));
#956=CARTESIAN_POINT('',(-2.23741802533949,0.0758358132105241,-1.62467830526445));
#957=CARTESIAN_POINT('',(-2.18716538996215,0.0829279030116557,-1.71171842333037));
#958=CARTESIAN_POINT('',(-2.13681018730249,0.0920999680712981,-1.79893619316445));
#959=CARTESIAN_POINT('',(-2.08643233903002,0.103312562736642,-1.88619318637353));
#960=CARTESIAN_POINT('',(-2.03606771070575,0.11651397294748,-1.9734272819829));
#961=CARTESIAN_POINT('',(-1.98572645692184,0.131650208028286,-2.06062089172236));
#962=CARTESIAN_POINT('',(-1.93538589409158,0.148676266056717,-2.14781330471621));
#963=CARTESIAN_POINT('',(-1.88516541622094,0.167488860645413,-2.2347977244781));
#964=CARTESIAN_POINT('',(-1.83511341001222,0.187992028325528,-2.3214903427799));
#965=CARTESIAN_POINT('',(-1.78523005810717,0.210105027259063,-2.40789084327591));
#966=CARTESIAN_POINT('',(-1.73549021585335,0.233761747783912,-2.49404277778109));
#967=CARTESIAN_POINT('',(-1.68596996353306,0.258845307199793,-2.57981437137928));
#968=CARTESIAN_POINT('',(-1.63670191451814,0.285252799082351,-2.66514913605212));
#969=CARTESIAN_POINT('',(-1.6040191731533,0.303687222904581,-2.72175730502778));
#970=CARTESIAN_POINT('',(-1.58771324507898,0.313101374406963,-2.75000000111965));
#971=CARTESIAN_POINT('',(-3.17542648053221,23.6868986253,0.));
#972=VECTOR('',#973,1.);
#973=DIRECTION('',(7.59977859119428E-17,-1.,0.));
#974=CARTESIAN_POINT('',(-1.58771324029367,0.313101374731369,2.74999999998582));
#975=CARTESIAN_POINT('',(-1.60381192428353,0.303806862473448,2.72211626139537));
#976=CARTESIAN_POINT('',(-1.63597388323635,0.285660546238098,2.66641011444017));
#977=CARTESIAN_POINT('',(-1.68430092694255,0.259727257375812,2.58270521936937));
#978=CARTESIAN_POINT('',(-1.7325938592959,0.235201258366919,2.49905940686861));
#979=CARTESIAN_POINT('',(-1.78099822986551,0.212070341679718,2.41522057768798));
#980=CARTESIAN_POINT('',(-1.82961124939615,0.190362837831358,2.33102035787699));
#981=CARTESIAN_POINT('',(-1.87844001203707,0.170156976400736,2.24644646000716));
#982=CARTESIAN_POINT('',(-1.92737247959004,0.151573396437702,2.16169293992905));
#983=CARTESIAN_POINT('',(-1.97637603407037,0.134687989760356,2.07681629364827));
#984=CARTESIAN_POINT('',(-2.02550547928653,0.11954452653663,1.99172159818275));
#985=CARTESIAN_POINT('',(-2.07481261867265,0.106195508773852,1.90631912735103));
#986=CARTESIAN_POINT('',(-2.12431122843845,0.0947047399290978,1.82058502005663));
#987=CARTESIAN_POINT('',(-2.1740426999781,0.0851268043577138,1.7344475843004));
#988=CARTESIAN_POINT('',(-2.22969815517039,0.0766610407010357,1.63804950779466));
#989=CARTESIAN_POINT('',(-2.29117482911034,0.0702802983077299,1.53156878455875));
#990=CARTESIAN_POINT('',(-2.34372073527751,0.0677749077679161,1.44055660487172));
#991=CARTESIAN_POINT('',(-2.38839800194455,0.0673391207094645,1.36317330862466));
#992=CARTESIAN_POINT('',(-2.42747084598428,0.068056619230401,1.29549715714923));
#993=CARTESIAN_POINT('',(-2.47551335987245,0.0708322342193124,1.2122850816411));
#994=CARTESIAN_POINT('',(-2.52572169465901,0.0758358132095742,1.1253216942333));
#995=CARTESIAN_POINT('',(-2.57597432992543,0.0829279030103516,1.03828157610378));
#996=CARTESIAN_POINT('',(-2.62632953246693,0.0920999680695866,0.951063806202385));
#997=CARTESIAN_POINT('',(-2.67670738061425,0.10331256273445,0.863806812922442));
#998=CARTESIAN_POINT('',(-2.72707200880663,0.116513972944707,0.776572717238783));
#999=CARTESIAN_POINT('',(-2.77741326245217,0.131650208024844,0.689379107421594));
#1000=CARTESIAN_POINT('',(-2.82775382513772,0.148676266052501,0.60218669434659));
#1001=CARTESIAN_POINT('',(-2.87797430285785,0.167488860640332,0.515202274500447));
#1002=CARTESIAN_POINT('',(-2.92802630891066,0.187992028319442,0.428509656111531));
#1003=CARTESIAN_POINT('',(-2.97790966065466,0.21010502725195,0.34210915552572));
#1004=CARTESIAN_POINT('',(-3.0276495027424,0.233761747775266,0.255957220928246));
#1005=CARTESIAN_POINT('',(-3.07716975489181,0.258845307190617,0.17018562723608));
#1006=CARTESIAN_POINT('',(-3.12643780373242,0.285252799067881,0.0848508624661428));
#1007=CARTESIAN_POINT('',(-3.15912054497701,0.303687222897954,0.0282426934270665));
#1008=CARTESIAN_POINT('',(-3.1754264729899,0.313101374409575,-2.69559263799124E-9));
#1009=CARTESIAN_POINT('',(0.,0.,-2.6331189916));
#1010=CARTESIAN_POINT('',(1.8618962946407,0.,-1.86189629462219));
#1011=AXIS2_PLACEMENT_3D('',#1012,#1013,#1014);
#1012=CARTESIAN_POINT('',(0.,0.,0.));
#1013=DIRECTION('',(0.,-1.,0.));
#1014=DIRECTION('',(0.,0.,-1.));
#1015=AXIS2_PLACEMENT_3D('',#1016,#1017,#1018);
#1016=CARTESIAN_POINT('',(0.,0.,0.));
#1017=DIRECTION('',(0.,-1.,0.));
#1018=DIRECTION('',(0.707106781190063,0.,-0.707106781183032));
#1019=CARTESIAN_POINT('',(6.12323399573676E-17,0.,1.5));
#1020=AXIS2_PLACEMENT_3D('',#1021,#1022,#1023);
#1021=CARTESIAN_POINT('',(0.,0.,0.));
#1022=DIRECTION('',(0.,1.,0.));
#1023=DIRECTION('',(0.,0.,1.));
#1024=CARTESIAN_POINT('',(-1.02053899928946E-16,17.,1.25));
#1025=CARTESIAN_POINT('',(1.53080849893419E-16,17.,-1.25));
#1026=AXIS2_PLACEMENT_3D('',#1027,#1028,#1029);
#1027=CARTESIAN_POINT('',(0.,17.,0.));
#1028=DIRECTION('',(0.,1.,0.));
#1029=DIRECTION('',(0.,0.,1.));
#1030=AXIS2_PLACEMENT_3D('',#1031,#1032,#1033);
#1031=CARTESIAN_POINT('',(0.,17.,0.));
#1032=DIRECTION('',(0.,1.,0.));
#1033=DIRECTION('',(-1.22464679914735E-16,0.,-1.));
#1034=CARTESIAN_POINT('',(-1.5308084989338E-16,23.7500000000003,1.24999999999968));
#1035=AXIS2_PLACEMENT_3D('',#1036,#1037,#1038);
#1036=CARTESIAN_POINT('',(0.,23.75,0.));
#1037=DIRECTION('',(0.,1.,0.));
#1038=DIRECTION('',(0.,0.,1.));
#1039=CARTESIAN_POINT('',(-1.53080849893419E-16,7.,-1.25));
#1040=CARTESIAN_POINT('',(2.04107799857892E-16,7.,1.25));
#1041=AXIS2_PLACEMENT_3D('',#1042,#1043,#1044);
#1042=CARTESIAN_POINT('',(0.,7.,0.));
#1043=DIRECTION('',(0.,1.,0.));
#1044=DIRECTION('',(-1.22464679914735E-16,0.,-1.));
#1045=AXIS2_PLACEMENT_3D('',#1046,#1047,#1048);
#1046=CARTESIAN_POINT('',(0.,7.,0.));
#1047=DIRECTION('',(0.,1.,0.));
#1048=DIRECTION('',(2.44929359829471E-16,0.,1.));
#1049=CARTESIAN_POINT('',(1.5308084989338E-16,0.249999999999681,1.24999999999968));
#1050=AXIS2_PLACEMENT_3D('',#1051,#1052,#1053);
#1051=CARTESIAN_POINT('',(0.,0.249999999999362,0.));
#1052=DIRECTION('',(0.,1.,0.));
#1053=DIRECTION('',(2.44929359829471E-16,0.,1.));
ENDSEC;
END-ISO-10303-21;
