ISO-10303-21;
HEADER;
FILE_DESCRIPTION(('STEP AP242'),
    '1');
FILE_NAME('Abstandzbolzen Messing vernickelt I-I M3_-_Ettinger - 5.03.053 (M3x4)',
    '',
    ('UNSPECIFIED'),
    ('UNSPECIFIED'),
    'C3D Converter',
    'C3D Toolkit',
    '');
FILE_SCHEMA(('AP242_MANAGED_MODEL_BASED_3D_ENGINEERING_MIM_LF { 1 0 10303 442 1 1 4 }'));
ENDSEC;

DATA;
#1=SHAPE_REPRESENTATION('NONE',(#2),#6);
#2=AXIS2_PLACEMENT_3D('',#3,#4,#5);
#3=CARTESIAN_POINT('',(0.,0.,0.));
#4=DIRECTION('',(0.,0.,1.));
#5=DIRECTION('',(1.,0.,0.));
#6=(GEOMETRIC_REPRESENTATION_CONTEXT(3)GLOBAL_UNCERTAINTY_ASSIGNED_CONTEXT((#8))
GLOBAL_UNIT_ASSIGNED_CONTEXT((#7,#9,#10))REPRESENTATION_CONTEXT('NONE','NONE'));
#7=(LENGTH_UNIT()NAMED_UNIT(*)SI_UNIT(.MILLI.,.METRE.));
#8=UNCERTAINTY_MEASURE_WITH_UNIT(LENGTH_MEASURE(1.E-5),#7,'NONE','NONE');
#9=(NAMED_UNIT(*)PLANE_ANGLE_UNIT()SI_UNIT($,.RADIAN.));
#10=(NAMED_UNIT(*)SI_UNIT($,.STERADIAN.)SOLID_ANGLE_UNIT());
#11=SHAPE_DEFINITION_REPRESENTATION(#12,#1);
#12=PRODUCT_DEFINITION_SHAPE('NONE','NONE',#13);
#13=PRODUCT_DEFINITION('','UNSPECIFIED',#14,#17);
#14=PRODUCT_DEFINITION_FORMATION_WITH_SPECIFIED_SOURCE('ANY','UNSPECIFIED',#15,.NOT_KNOWN.);
#15=PRODUCT('Abstandzbolzen Messing vernickelt I-I M3_-_Ettinger - 5.03.053 (M3x4)',
'Abstandzbolzen Messing vernickelt I-I M3_-_Ettinger - 5.03.053 (M3x4)','NONE',(
#20));
#16=PRODUCT_RELATED_PRODUCT_CATEGORY('detail','',(#15));
#17=DESIGN_CONTEXT('detailed design',#18,'design');
#18=APPLICATION_CONTEXT('configuration controlled 3d designs of mechanical parts and assemblies');
#19=APPLICATION_PROTOCOL_DEFINITION('international standard','config_control_design',
1994,#18);
#20=MECHANICAL_CONTEXT('NONE',#18,'mechanical');
#21=CC_DESIGN_DATE_AND_TIME_ASSIGNMENT(#22,#26,(#13));
#22=DATE_AND_TIME(#23,#24);
#23=CALENDAR_DATE(0,1,1);
#24=LOCAL_TIME(0,0,0.,#25);
#25=COORDINATED_UNIVERSAL_TIME_OFFSET(0,0,.AHEAD.);
#26=DATE_TIME_ROLE('creation_date');
#27=CC_DESIGN_APPROVAL(#28,(#13));
#28=APPROVAL(#29,'UNSPECIFIED');
#29=APPROVAL_STATUS('not_yet_approved');
#30=APPROVAL_DATE_TIME(#31,#28);
#31=DATE_AND_TIME(#32,#33);
#32=CALENDAR_DATE(0,1,1);
#33=LOCAL_TIME(0,0,0.,#34);
#34=COORDINATED_UNIVERSAL_TIME_OFFSET(0,0,.AHEAD.);
#35=MANIFOLD_SOLID_BREP('',#36);
#36=CLOSED_SHELL('',(#48,#57,#66,#75,#84,#93,#102,#111,#120,#129,#138));
#37=COLOUR_RGB('',0.682352941176471,0.603921568627451,0.525490196078431);
#38=FILL_AREA_STYLE_COLOUR('',#37);
#39=FILL_AREA_STYLE($,(#38));
#40=SURFACE_STYLE_FILL_AREA(#39);
#41=SURFACE_SIDE_STYLE('',(#40));
#42=SURFACE_STYLE_USAGE(.BOTH.,#41);
#43=PRESENTATION_STYLE_ASSIGNMENT((#42));
#44=MECHANICAL_DESIGN_GEOMETRIC_PRESENTATION_REPRESENTATION('NONE',(#45,#56,#65,
#74,#83,#92,#101,#110,#119,#128,#137,#146),#6);
#45=STYLED_ITEM('',(#43),#35);
#46=ADVANCED_BREP_SHAPE_REPRESENTATION('NONE',(#35),#6);
#47=SHAPE_REPRESENTATION_RELATIONSHIP('','',#1,#46);
#48=ADVANCED_FACE('',(#147,#149),#151,.F.);
#49=COLOUR_RGB('',0.682352941176471,0.603921568627451,0.525490196078431);
#50=FILL_AREA_STYLE_COLOUR('',#49);
#51=FILL_AREA_STYLE($,(#50));
#52=SURFACE_STYLE_FILL_AREA(#51);
#53=SURFACE_SIDE_STYLE('',(#52));
#54=SURFACE_STYLE_USAGE(.BOTH.,#53);
#55=PRESENTATION_STYLE_ASSIGNMENT((#54));
#56=STYLED_ITEM('',(#55),#48);
#57=ADVANCED_FACE('',(#156),#158,.T.);
#58=COLOUR_RGB('',0.682352941176471,0.603921568627451,0.525490196078431);
#59=FILL_AREA_STYLE_COLOUR('',#58);
#60=FILL_AREA_STYLE($,(#59));
#61=SURFACE_STYLE_FILL_AREA(#60);
#62=SURFACE_SIDE_STYLE('',(#61));
#63=SURFACE_STYLE_USAGE(.BOTH.,#62);
#64=PRESENTATION_STYLE_ASSIGNMENT((#63));
#65=STYLED_ITEM('',(#64),#57);
#66=ADVANCED_FACE('',(#163),#165,.T.);
#67=COLOUR_RGB('',0.682352941176471,0.603921568627451,0.525490196078431);
#68=FILL_AREA_STYLE_COLOUR('',#67);
#69=FILL_AREA_STYLE($,(#68));
#70=SURFACE_STYLE_FILL_AREA(#69);
#71=SURFACE_SIDE_STYLE('',(#70));
#72=SURFACE_STYLE_USAGE(.BOTH.,#71);
#73=PRESENTATION_STYLE_ASSIGNMENT((#72));
#74=STYLED_ITEM('',(#73),#66);
#75=ADVANCED_FACE('',(#170),#172,.T.);
#76=COLOUR_RGB('',0.682352941176471,0.603921568627451,0.525490196078431);
#77=FILL_AREA_STYLE_COLOUR('',#76);
#78=FILL_AREA_STYLE($,(#77));
#79=SURFACE_STYLE_FILL_AREA(#78);
#80=SURFACE_SIDE_STYLE('',(#79));
#81=SURFACE_STYLE_USAGE(.BOTH.,#80);
#82=PRESENTATION_STYLE_ASSIGNMENT((#81));
#83=STYLED_ITEM('',(#82),#75);
#84=ADVANCED_FACE('',(#177),#179,.T.);
#85=COLOUR_RGB('',0.682352941176471,0.603921568627451,0.525490196078431);
#86=FILL_AREA_STYLE_COLOUR('',#85);
#87=FILL_AREA_STYLE($,(#86));
#88=SURFACE_STYLE_FILL_AREA(#87);
#89=SURFACE_SIDE_STYLE('',(#88));
#90=SURFACE_STYLE_USAGE(.BOTH.,#89);
#91=PRESENTATION_STYLE_ASSIGNMENT((#90));
#92=STYLED_ITEM('',(#91),#84);
#93=ADVANCED_FACE('',(#184),#186,.T.);
#94=COLOUR_RGB('',0.682352941176471,0.603921568627451,0.525490196078431);
#95=FILL_AREA_STYLE_COLOUR('',#94);
#96=FILL_AREA_STYLE($,(#95));
#97=SURFACE_STYLE_FILL_AREA(#96);
#98=SURFACE_SIDE_STYLE('',(#97));
#99=SURFACE_STYLE_USAGE(.BOTH.,#98);
#100=PRESENTATION_STYLE_ASSIGNMENT((#99));
#101=STYLED_ITEM('',(#100),#93);
#102=ADVANCED_FACE('',(#191),#193,.T.);
#103=COLOUR_RGB('',0.682352941176471,0.603921568627451,0.525490196078431);
#104=FILL_AREA_STYLE_COLOUR('',#103);
#105=FILL_AREA_STYLE($,(#104));
#106=SURFACE_STYLE_FILL_AREA(#105);
#107=SURFACE_SIDE_STYLE('',(#106));
#108=SURFACE_STYLE_USAGE(.BOTH.,#107);
#109=PRESENTATION_STYLE_ASSIGNMENT((#108));
#110=STYLED_ITEM('',(#109),#102);
#111=ADVANCED_FACE('',(#198,#200),#202,.F.);
#112=COLOUR_RGB('',0.682352941176471,0.603921568627451,0.525490196078431);
#113=FILL_AREA_STYLE_COLOUR('',#112);
#114=FILL_AREA_STYLE($,(#113));
#115=SURFACE_STYLE_FILL_AREA(#114);
#116=SURFACE_SIDE_STYLE('',(#115));
#117=SURFACE_STYLE_USAGE(.BOTH.,#116);
#118=PRESENTATION_STYLE_ASSIGNMENT((#117));
#119=STYLED_ITEM('',(#118),#111);
#120=ADVANCED_FACE('',(#207,#209),#211,.F.);
#121=COLOUR_RGB('',0.682352941176471,0.603921568627451,0.525490196078431);
#122=FILL_AREA_STYLE_COLOUR('',#121);
#123=FILL_AREA_STYLE($,(#122));
#124=SURFACE_STYLE_FILL_AREA(#123);
#125=SURFACE_SIDE_STYLE('',(#124));
#126=SURFACE_STYLE_USAGE(.BOTH.,#125);
#127=PRESENTATION_STYLE_ASSIGNMENT((#126));
#128=STYLED_ITEM('',(#127),#120);
#129=ADVANCED_FACE('',(#216,#218),#220,.T.);
#130=COLOUR_RGB('',0.682352941176471,0.603921568627451,0.525490196078431);
#131=FILL_AREA_STYLE_COLOUR('',#130);
#132=FILL_AREA_STYLE($,(#131));
#133=SURFACE_STYLE_FILL_AREA(#132);
#134=SURFACE_SIDE_STYLE('',(#133));
#135=SURFACE_STYLE_USAGE(.BOTH.,#134);
#136=PRESENTATION_STYLE_ASSIGNMENT((#135));
#137=STYLED_ITEM('',(#136),#129);
#138=ADVANCED_FACE('',(#225,#227),#229,.T.);
#139=COLOUR_RGB('',0.682352941176471,0.603921568627451,0.525490196078431);
#140=FILL_AREA_STYLE_COLOUR('',#139);
#141=FILL_AREA_STYLE($,(#140));
#142=SURFACE_STYLE_FILL_AREA(#141);
#143=SURFACE_SIDE_STYLE('',(#142));
#144=SURFACE_STYLE_USAGE(.BOTH.,#143);
#145=PRESENTATION_STYLE_ASSIGNMENT((#144));
#146=STYLED_ITEM('',(#145),#138);
#147=FACE_OUTER_BOUND('',#148,.T.);
#148=EDGE_LOOP('',(#234));
#149=FACE_OUTER_BOUND('',#150,.T.);
#150=EDGE_LOOP('',(#235));
#151=CYLINDRICAL_SURFACE('',#152,1.25);
#152=AXIS2_PLACEMENT_3D('',#153,#154,#155);
#153=CARTESIAN_POINT('',(0.,5.,0.));
#154=DIRECTION('',(0.,1.,0.));
#155=DIRECTION('',(0.,0.,1.));
#156=FACE_BOUND('',#157,.T.);
#157=EDGE_LOOP('',(#236,#237,#238,#239));
#158=PLANE('',#159);
#159=AXIS2_PLACEMENT_3D('',#160,#161,#162);
#160=CARTESIAN_POINT('',(-1.5877132403,5.,2.75));
#161=DIRECTION('',(-0.866025403788329,0.,0.499999999993262));
#162=DIRECTION('',(0.499999999993262,0.,0.866025403788329));
#163=FACE_BOUND('',#164,.T.);
#164=EDGE_LOOP('',(#240,#241,#242,#243,#244));
#165=PLANE('',#166);
#166=AXIS2_PLACEMENT_3D('',#167,#168,#169);
#167=CARTESIAN_POINT('',(-1.5877132403,5.,-2.75));
#168=DIRECTION('',(-0.866025403788329,0.,-0.499999999993262));
#169=DIRECTION('',(-0.499999999993262,0.,0.866025403788329));
#170=FACE_BOUND('',#171,.T.);
#171=EDGE_LOOP('',(#245,#246,#247,#248));
#172=PLANE('',#173);
#173=AXIS2_PLACEMENT_3D('',#174,#175,#176);
#174=CARTESIAN_POINT('',(-1.5877132403,5.,-2.75));
#175=DIRECTION('',(0.,0.,-1.));
#176=DIRECTION('',(-1.,0.,0.));
#177=FACE_BOUND('',#178,.T.);
#178=EDGE_LOOP('',(#249,#250,#251,#252));
#179=PLANE('',#180);
#180=AXIS2_PLACEMENT_3D('',#181,#182,#183);
#181=CARTESIAN_POINT('',(1.5877132403,5.,-2.75));
#182=DIRECTION('',(0.866025403788329,0.,-0.499999999993262));
#183=DIRECTION('',(-0.499999999993262,0.,-0.866025403788329));
#184=FACE_BOUND('',#185,.T.);
#185=EDGE_LOOP('',(#253,#254,#255,#256));
#186=PLANE('',#187);
#187=AXIS2_PLACEMENT_3D('',#188,#189,#190);
#188=CARTESIAN_POINT('',(1.5877132403,5.,2.75));
#189=DIRECTION('',(0.866025403788329,0.,0.499999999993262));
#190=DIRECTION('',(0.499999999993262,0.,-0.866025403788329));
#191=FACE_BOUND('',#192,.T.);
#192=EDGE_LOOP('',(#257,#258,#259,#260));
#193=PLANE('',#194);
#194=AXIS2_PLACEMENT_3D('',#195,#196,#197);
#195=CARTESIAN_POINT('',(-1.5877132403,5.,2.75));
#196=DIRECTION('',(0.,0.,1.));
#197=DIRECTION('',(1.,0.,0.));
#198=FACE_BOUND('',#199,.T.);
#199=EDGE_LOOP('',(#261,#262,#263,#264,#265,#266));
#200=FACE_BOUND('',#201,.T.);
#201=EDGE_LOOP('',(#267));
#202=PLANE('',#203);
#203=AXIS2_PLACEMENT_3D('',#204,#205,#206);
#204=CARTESIAN_POINT('',(3.67846255321558,1.,-7.25));
#205=DIRECTION('',(1.30614473485313E-16,1.,0.));
#206=DIRECTION('',(-1.,1.30614473485313E-16,0.));
#207=FACE_OUTER_BOUND('',#208,.T.);
#208=EDGE_LOOP('',(#268));
#209=FACE_OUTER_BOUND('',#210,.T.);
#210=EDGE_LOOP('',(#269));
#211=CONICAL_SURFACE('',#212,1.37499999999968,0.7853981634);
#212=AXIS2_PLACEMENT_3D('',#213,#214,#215);
#213=CARTESIAN_POINT('',(0.,4.87500000000032,0.));
#214=DIRECTION('',(0.,1.,0.));
#215=DIRECTION('',(0.,0.,1.));
#216=FACE_BOUND('',#217,.T.);
#217=EDGE_LOOP('',(#270,#271,#272,#273,#274,#275,#276));
#218=FACE_BOUND('',#219,.T.);
#219=EDGE_LOOP('',(#277,#278));
#220=CONICAL_SURFACE('',#221,2.90427273604364,1.0471975512);
#221=AXIS2_PLACEMENT_3D('',#222,#223,#224);
#222=CARTESIAN_POINT('',(0.,4.84344931258944,0.));
#223=DIRECTION('',(0.,-1.,0.));
#224=DIRECTION('',(0.,0.,-1.));
#225=FACE_BOUND('',#226,.T.);
#226=EDGE_LOOP('',(#279,#280));
#227=FACE_BOUND('',#228,.T.);
#228=EDGE_LOOP('',(#281));
#229=PLANE('',#230);
#230=AXIS2_PLACEMENT_3D('',#231,#232,#233);
#231=CARTESIAN_POINT('',(0.,5.,0.));
#232=DIRECTION('',(0.,1.,0.));
#233=DIRECTION('',(0.,0.,1.));
#234=ORIENTED_EDGE('',*,*,#282,.T.);
#235=ORIENTED_EDGE('',*,*,#283,.T.);
#236=ORIENTED_EDGE('',*,*,#284,.T.);
#237=ORIENTED_EDGE('',*,*,#285,.F.);
#238=ORIENTED_EDGE('',*,*,#286,.F.);
#239=ORIENTED_EDGE('',*,*,#287,.T.);
#240=ORIENTED_EDGE('',*,*,#288,.T.);
#241=ORIENTED_EDGE('',*,*,#287,.F.);
#242=ORIENTED_EDGE('',*,*,#289,.F.);
#243=ORIENTED_EDGE('',*,*,#290,.F.);
#244=ORIENTED_EDGE('',*,*,#291,.T.);
#245=ORIENTED_EDGE('',*,*,#292,.T.);
#246=ORIENTED_EDGE('',*,*,#291,.F.);
#247=ORIENTED_EDGE('',*,*,#293,.F.);
#248=ORIENTED_EDGE('',*,*,#294,.T.);
#249=ORIENTED_EDGE('',*,*,#295,.T.);
#250=ORIENTED_EDGE('',*,*,#294,.F.);
#251=ORIENTED_EDGE('',*,*,#296,.F.);
#252=ORIENTED_EDGE('',*,*,#297,.T.);
#253=ORIENTED_EDGE('',*,*,#298,.T.);
#254=ORIENTED_EDGE('',*,*,#297,.F.);
#255=ORIENTED_EDGE('',*,*,#299,.F.);
#256=ORIENTED_EDGE('',*,*,#300,.T.);
#257=ORIENTED_EDGE('',*,*,#301,.T.);
#258=ORIENTED_EDGE('',*,*,#300,.F.);
#259=ORIENTED_EDGE('',*,*,#302,.F.);
#260=ORIENTED_EDGE('',*,*,#285,.T.);
#261=ORIENTED_EDGE('',*,*,#301,.F.);
#262=ORIENTED_EDGE('',*,*,#284,.F.);
#263=ORIENTED_EDGE('',*,*,#288,.F.);
#264=ORIENTED_EDGE('',*,*,#292,.F.);
#265=ORIENTED_EDGE('',*,*,#295,.F.);
#266=ORIENTED_EDGE('',*,*,#298,.F.);
#267=ORIENTED_EDGE('',*,*,#283,.F.);
#268=ORIENTED_EDGE('',*,*,#303,.T.);
#269=ORIENTED_EDGE('',*,*,#282,.F.);
#270=ORIENTED_EDGE('',*,*,#296,.T.);
#271=ORIENTED_EDGE('',*,*,#293,.T.);
#272=ORIENTED_EDGE('',*,*,#290,.T.);
#273=ORIENTED_EDGE('',*,*,#289,.T.);
#274=ORIENTED_EDGE('',*,*,#286,.T.);
#275=ORIENTED_EDGE('',*,*,#302,.T.);
#276=ORIENTED_EDGE('',*,*,#299,.T.);
#277=ORIENTED_EDGE('',*,*,#304,.T.);
#278=ORIENTED_EDGE('',*,*,#305,.T.);
#279=ORIENTED_EDGE('',*,*,#305,.F.);
#280=ORIENTED_EDGE('',*,*,#304,.F.);
#281=ORIENTED_EDGE('',*,*,#303,.F.);
#282=EDGE_CURVE('',#306,#306,#307,.T.);
#283=EDGE_CURVE('',#308,#308,#309,.F.);
#284=EDGE_CURVE('',#310,#311,#312,.F.);
#285=EDGE_CURVE('',#313,#311,#314,.T.);
#286=EDGE_CURVE('',#315,#313,#316,.T.);
#287=EDGE_CURVE('',#315,#310,#317,.T.);
#288=EDGE_CURVE('',#318,#310,#319,.F.);
#289=EDGE_CURVE('',#320,#315,#321,.T.);
#290=EDGE_CURVE('',#322,#320,#323,.T.);
#291=EDGE_CURVE('',#322,#318,#324,.T.);
#292=EDGE_CURVE('',#325,#318,#326,.F.);
#293=EDGE_CURVE('',#327,#322,#328,.T.);
#294=EDGE_CURVE('',#327,#325,#329,.T.);
#295=EDGE_CURVE('',#330,#325,#331,.F.);
#296=EDGE_CURVE('',#332,#327,#333,.T.);
#297=EDGE_CURVE('',#332,#330,#334,.T.);
#298=EDGE_CURVE('',#335,#330,#336,.F.);
#299=EDGE_CURVE('',#337,#332,#338,.T.);
#300=EDGE_CURVE('',#337,#335,#339,.T.);
#301=EDGE_CURVE('',#311,#335,#340,.F.);
#302=EDGE_CURVE('',#313,#337,#341,.T.);
#303=EDGE_CURVE('',#342,#342,#343,.T.);
#304=EDGE_CURVE('',#344,#345,#346,.T.);
#305=EDGE_CURVE('',#345,#344,#347,.T.);
#306=VERTEX_POINT('',#348);
#307=CIRCLE('',#349,1.25);
#308=VERTEX_POINT('',#353);
#309=CIRCLE('',#354,1.25);
#310=VERTEX_POINT('',#358);
#311=VERTEX_POINT('',#359);
#312=LINE('',#360,#361);
#313=VERTEX_POINT('',#363);
#314=LINE('',#364,#365);
#315=VERTEX_POINT('',#367);
#316=B_SPLINE_CURVE_WITH_KNOTS('',3,
(#368,#369,#370,#371,#372,#373,#374,#375,#376,#377,#378,#379,#380,#381,#382,#383,
#384,#385,#386,#387,#388,#389,#390,#391,#392,#393,#394,#395,#396,#397,#398,#399,
#400,#401,#402),
.UNSPECIFIED.,.F.,.F.,
(4,1,1,1,1,1,1,1,1,1,1,1,1,1,1,1,1,1,1,1,1,1,1,1,1,1,1,1,1,1,1,1,4),
(0.,0.0312820834705187,0.0623343188285189,0.0932104873399174,0.124004031754688,0.154876455232713,
0.185783668891362,0.21664074548632,0.247384717635927,0.278123666048138,0.308937270778883,
0.339776834755015,0.370679413263328,0.401776981330751,0.443556458188752,0.485212969325164,
0.49964400180417,0.526794965416689,0.558033411722948,0.589242003381736,0.620520513477753,
0.651952337392713,0.683485438809653,0.714971033019419,0.746573753689909,0.778289245001153,
0.810030974014308,0.841681295075085,0.87336756008906,0.90509449076217,0.936793382233462,
0.968399814843145,1.),
.UNSPECIFIED.);
#317=LINE('',#403,#404);
#318=VERTEX_POINT('',#406);
#319=LINE('',#407,#408);
#320=VERTEX_POINT('',#410);
#321=B_SPLINE_CURVE_WITH_KNOTS('',3,
(#411,#412,#413,#414,#415,#416,#417,#418,#419,#420,#421,#422,#423,#424,#425,#426,
#427,#428,#429,#430,#431,#432,#433,#434,#435,#436,#437),
.UNSPECIFIED.,.F.,.F.,
(4,1,1,1,1,1,1,1,1,1,1,1,1,1,1,1,1,1,1,1,1,1,1,1,4),
(0.,0.0546045970498013,0.109509615127002,0.163791995697417,0.217432223557464,0.270548702912237,
0.314238693364922,0.321845465882064,0.37216137779555,0.420862081744676,0.468914784466214,
0.515064305932142,0.559747149871103,0.601839076524277,0.642948850933146,0.681668691563847,
0.718909366821953,0.754069684997014,0.788635888126384,0.832101612160325,0.874091140061645,
0.914541698182468,0.943546589981204,0.972062629403984,1.),
.UNSPECIFIED.);
#322=VERTEX_POINT('',#438);
#323=B_SPLINE_CURVE_WITH_KNOTS('',3,
(#439,#440,#441,#442,#443,#444,#445,#446,#447,#448,#449,#450,#451,#452,#453,#454,
#455,#456,#457,#458,#459,#460,#461,#462,#463,#464),
.UNSPECIFIED.,.F.,.F.,
(4,1,1,1,1,1,1,1,1,1,1,1,1,1,1,1,1,1,1,1,1,1,1,4),
(0.,0.0563542267342517,0.11244999543604,0.168224088092448,0.223083582772391,0.277434725946312,
0.33006174811217,0.381461592763909,0.430990761165169,0.479814869013415,0.526410985346167,
0.571397685615129,0.613648744559107,0.654812885642896,0.693188666949295,0.729874948983199,
0.764290465571976,0.79812129647691,0.830220621646997,0.861162017252478,0.899788031545456,
0.937370374699906,0.973858134693157,1.),
.UNSPECIFIED.);
#324=LINE('',#465,#466);
#325=VERTEX_POINT('',#468);
#326=LINE('',#469,#470);
#327=VERTEX_POINT('',#472);
#328=B_SPLINE_CURVE_WITH_KNOTS('',3,
(#473,#474,#475,#476,#477,#478,#479,#480,#481,#482,#483,#484,#485,#486,#487,#488,
#489,#490,#491,#492,#493,#494,#495,#496,#497,#498,#499,#500,#501,#502,#503,#504,
#505,#506,#507,#508,#509,#510,#511,#512,#513,#514,#515),
.UNSPECIFIED.,.F.,.F.,
(4,1,1,1,1,1,1,1,1,1,1,1,1,1,1,1,1,1,1,1,1,1,1,1,1,1,1,1,1,1,1,1,1,1,1,1,1,1,1,1,
4),
(0.,0.0310673418685168,0.0619662799168269,0.0927523101490028,0.122864642413615,0.123559195503412,
0.154525844979504,0.185616935788947,0.216683402238418,0.247621650081242,0.278518623033891,
0.306548795389838,0.309445031218654,0.340368402896806,0.371302763642575,0.402374105137162,
0.426184774648879,0.433633351008117,0.464916815546976,0.496186618525792,0.500185445725857,
0.527595517102054,0.539588222539328,0.55907337180023,0.590432166360236,0.621680494381727,
0.647875653289076,0.652974213120095,0.684285314984673,0.715555677696643,0.746959754336614,
0.75596858586025,0.778493467267272,0.810069875030804,0.841553807835195,0.860704866047624,
0.873059077414154,0.904632359754323,0.946968670182232,0.955656235636725,1.),
.UNSPECIFIED.);
#329=LINE('',#516,#517);
#330=VERTEX_POINT('',#519);
#331=LINE('',#520,#521);
#332=VERTEX_POINT('',#523);
#333=B_SPLINE_CURVE_WITH_KNOTS('',3,
(#524,#525,#526,#527,#528,#529,#530,#531,#532,#533,#534,#535,#536,#537,#538,#539,
#540,#541,#542,#543,#544,#545,#546,#547,#548,#549,#550,#551,#552,#553,#554,#555,
#556,#557,#558),
.UNSPECIFIED.,.F.,.F.,
(4,1,1,1,1,1,1,1,1,1,1,1,1,1,1,1,1,1,1,1,1,1,1,1,1,1,1,1,1,1,1,1,4),
(0.,0.0312820834705181,0.0623343188285179,0.0932104873399176,0.124004031754689,0.154876455232713,
0.185783668891363,0.21664074548632,0.247384717635928,0.278123666048138,0.308937270778883,
0.339776834755015,0.370679413263328,0.401776981330751,0.443556458188751,0.485212969325164,
0.49964400180417,0.526794965416688,0.558033411722946,0.589242003381735,0.620520513477752,
0.651952337392711,0.683485438809652,0.714971033019418,0.746573753689909,0.778289245001152,
0.810030974014307,0.841681295075084,0.873367560089059,0.905094490762168,0.936793382233462,
0.968399814843145,1.),
.UNSPECIFIED.);
#334=LINE('',#559,#560);
#335=VERTEX_POINT('',#562);
#336=LINE('',#563,#564);
#337=VERTEX_POINT('',#566);
#338=B_SPLINE_CURVE_WITH_KNOTS('',3,
(#567,#568,#569,#570,#571,#572,#573,#574,#575,#576,#577,#578,#579,#580,#581,#582,
#583,#584,#585,#586,#587,#588,#589,#590,#591,#592,#593,#594,#595,#596,#597,#598,
#599,#600,#601),
.UNSPECIFIED.,.F.,.F.,
(4,1,1,1,1,1,1,1,1,1,1,1,1,1,1,1,1,1,1,1,1,1,1,1,1,1,1,1,1,1,1,1,4),
(0.,0.0312820834712737,0.0623343188300407,0.0932104873422652,0.124004031757884,0.154876455236693,
0.18578366889601,0.216640745491581,0.247384717641829,0.278123666054745,0.308937270786185,
0.339776834762978,0.370679413271904,0.401776981339958,0.44355645819855,0.485212969335371,
0.499644001819691,0.526794965427264,0.558033411733603,0.589242003392331,0.620520513488187,
0.651952337402912,0.683485438819416,0.714971033028624,0.746573753698467,0.778289245009015,
0.810030974021373,0.841681295081316,0.873367560094405,0.905094490766464,0.936793382236422,
0.968399814844636,1.),
.UNSPECIFIED.);
#339=LINE('',#602,#603);
#340=LINE('',#605,#606);
#341=B_SPLINE_CURVE_WITH_KNOTS('',3,
(#608,#609,#610,#611,#612,#613,#614,#615,#616,#617,#618,#619,#620,#621,#622,#623,
#624,#625,#626,#627,#628,#629,#630,#631,#632,#633,#634,#635,#636,#637,#638,#639,
#640,#641,#642,#643,#644,#645,#646,#647,#648,#649,#650),
.UNSPECIFIED.,.F.,.F.,
(4,1,1,1,1,1,1,1,1,1,1,1,1,1,1,1,1,1,1,1,1,1,1,1,1,1,1,1,1,1,1,1,1,1,1,1,1,1,1,1,
4),
(0.,0.0313984251927726,0.0625659928093861,0.0935440260827744,0.12349949416777,0.124389887292473,
0.155256682665753,0.186115296855689,0.216934656438676,0.247713958087841,0.278569985270812,
0.307124172792368,0.319895213987029,0.36120199616975,0.402513130762932,0.426624212897739,
0.433674431597847,0.464868129855678,0.496096367258411,0.499867932153853,0.527509613709351,
0.53988846145809,0.559025634194735,0.590417836820129,0.62166887725118,0.648149323100784,
0.652943234097835,0.684237748287281,0.71551572944288,0.746960366255046,0.75618908233952,
0.778553588349536,0.81021657595148,0.841806471443006,0.861004756122273,0.873464159863221,
0.905178012157137,0.936863597614419,0.955889265307574,0.968440263931809,1.),
.UNSPECIFIED.);
#342=VERTEX_POINT('',#651);
#343=CIRCLE('',#652,1.5);
#344=VERTEX_POINT('',#656);
#345=VERTEX_POINT('',#657);
#346=CIRCLE('',#658,2.6331189916);
#347=CIRCLE('',#662,2.6331189916);
#348=CARTESIAN_POINT('',(-1.5308084989338E-16,4.75000000000032,1.24999999999968));
#349=AXIS2_PLACEMENT_3D('',#350,#351,#352);
#350=CARTESIAN_POINT('',(0.,4.75,0.));
#351=DIRECTION('',(0.,1.,0.));
#352=DIRECTION('',(0.,0.,1.));
#353=CARTESIAN_POINT('',(-1.53080849893419E-16,1.,1.25));
#354=AXIS2_PLACEMENT_3D('',#355,#356,#357);
#355=CARTESIAN_POINT('',(0.,1.,0.));
#356=DIRECTION('',(1.30614473485313E-16,1.,0.));
#357=DIRECTION('',(0.,0.,1.));
#358=CARTESIAN_POINT('',(-3.17542648053221,1.,0.));
#359=CARTESIAN_POINT('',(-1.5877132403,1.,2.75));
#360=CARTESIAN_POINT('',(-1.5877132403,1.,2.75));
#361=VECTOR('',#362,1.);
#362=DIRECTION('',(-0.499999999993262,6.99259158692801E-17,-0.866025403788329));
#363=CARTESIAN_POINT('',(-1.5877132403,4.6868986253,2.75));
#364=CARTESIAN_POINT('',(-1.5877132403,4.6868986253,2.75));
#365=VECTOR('',#366,1.);
#366=DIRECTION('',(-6.0225307905493E-17,-1.,0.));
#367=CARTESIAN_POINT('',(-3.1754264805,4.6868986253,0.));
#368=CARTESIAN_POINT('',(-3.17542648051958,4.68689862524148,3.08831767411323E-11));
#369=CARTESIAN_POINT('',(-3.15932779653776,4.6961931374865,0.0278837386287998));
#370=CARTESIAN_POINT('',(-3.12716583759816,4.71433945370951,0.0835898855929005));
#371=CARTESIAN_POINT('',(-3.07883879389973,4.74027274257462,0.167294780663265));
#372=CARTESIAN_POINT('',(-3.03054586153775,4.76479874158072,0.250940593155828));
#373=CARTESIAN_POINT('',(-2.98214149094345,4.78792965826663,0.334779422318258));
#374=CARTESIAN_POINT('',(-2.93352847137083,4.80963716211335,0.418979642101076));
#375=CARTESIAN_POINT('',(-2.88469970866981,4.8298430235425,0.503553539932096));
#376=CARTESIAN_POINT('',(-2.83576724103793,4.84842660350408,0.588307059960326));
#377=CARTESIAN_POINT('',(-2.78676368645921,4.86531201018007,0.673183706179794));
#378=CARTESIAN_POINT('',(-2.73763424112431,4.88045547340255,0.758278401572191));
#379=CARTESIAN_POINT('',(-2.68832710159816,4.89380449116422,0.843680872318498));
#380=CARTESIAN_POINT('',(-2.63882849167018,4.90529526000801,0.929414979514883));
#381=CARTESIAN_POINT('',(-2.58909701994534,4.91487319557859,1.01555241515996));
#382=CARTESIAN_POINT('',(-2.53344156452017,4.92333895923456,1.11195049152707));
#383=CARTESIAN_POINT('',(-2.47196489028923,4.92971970162729,1.21843121459098));
#384=CARTESIAN_POINT('',(-2.41941898384154,4.93222509216669,1.30944339410935));
#385=CARTESIAN_POINT('',(-2.37474171691542,4.93266087922504,1.38682669020451));
#386=CARTESIAN_POINT('',(-2.3356688726366,4.93194338070405,1.45450284154019));
#387=CARTESIAN_POINT('',(-2.28762635843138,4.92916776571496,1.53771491686715));
#388=CARTESIAN_POINT('',(-2.23741802329121,4.92416418672464,1.62467830406945));
#389=CARTESIAN_POINT('',(-2.18716538764722,4.91707209692383,1.71171842198002));
#390=CARTESIAN_POINT('',(-2.13681018470387,4.90790003186455,1.79893619164896));
#391=CARTESIAN_POINT('',(-2.08643233613136,4.89668743719961,1.88619318468346));
#392=CARTESIAN_POINT('',(-2.0360677074912,4.8834860269892,1.97342728010922));
#393=CARTESIAN_POINT('',(-1.98572645337604,4.86834979190884,2.06062088965629));
#394=CARTESIAN_POINT('',(-1.93538589019946,4.85132373388089,2.14781330244909));
#395=CARTESIAN_POINT('',(-1.88516541196874,4.83251113929268,2.23479772200206));
#396=CARTESIAN_POINT('',(-1.83511340538711,4.81200797161301,2.32149034008766));
#397=CARTESIAN_POINT('',(-1.78523005309693,4.78989497268009,2.40789084036065));
#398=CARTESIAN_POINT('',(-1.73549021044616,4.76623825215501,2.49404277463625));
#399=CARTESIAN_POINT('',(-1.68596995771769,4.74115469274146,2.57981436800021));
#400=CARTESIAN_POINT('',(-1.63670190828631,4.71474720085073,2.66514913243119));
#401=CARTESIAN_POINT('',(-1.60401916663435,4.69631277704875,2.72175730124837));
#402=CARTESIAN_POINT('',(-1.58771323841337,4.68689862556848,2.74999999726307));
#403=CARTESIAN_POINT('',(-3.17542648053221,4.6868986253,0.));
#404=VECTOR('',#405,1.);
#405=DIRECTION('',(0.,-1.,0.));
#406=CARTESIAN_POINT('',(-1.5877132403,1.,-2.75));
#407=CARTESIAN_POINT('',(-3.17542648053221,1.,-1.85940152164221E-11));
#408=VECTOR('',#409,1.);
#409=DIRECTION('',(0.499999999993262,-6.99259158692801E-17,-0.866025403788329));
#410=CARTESIAN_POINT('',(-2.01313972083498,4.87651025956068,-2.01313972081496));
#411=CARTESIAN_POINT('',(-2.01313972083498,4.87651025956068,-2.01313972081496));
#412=CARTESIAN_POINT('',(-2.03440808232782,4.88286800136887,-1.97630183811496));
#413=CARTESIAN_POINT('',(-2.07710023732809,4.89459439056099,-1.90235685656856));
#414=CARTESIAN_POINT('',(-2.14104917814011,4.90895915457234,-1.79159404198994));
#415=CARTESIAN_POINT('',(-2.20469594159494,4.9199841415521,-1.68135461394687));
#416=CARTESIAN_POINT('',(-2.26769494596165,4.92762740855964,-1.57223713755552));
#417=CARTESIAN_POINT('',(-2.32657854375673,4.93170232701012,-1.47024775444014));
#418=CARTESIAN_POINT('',(-2.36744797983358,4.93258284490464,-1.39945981467707));
#419=CARTESIAN_POINT('',(-2.40721626391512,4.93243371001941,-1.33057912611678));
#420=CARTESIAN_POINT('',(-2.44893839286967,4.93108522692972,-1.25831427896626));
#421=CARTESIAN_POINT('',(-2.50645355042748,4.92642875942786,-1.158695103869));
#422=CARTESIAN_POINT('',(-2.56229253867687,4.91927900755993,-1.06197913917607));
#423=CARTESIAN_POINT('',(-2.61649150695032,4.9098908152201,-0.968103772406943));
#424=CARTESIAN_POINT('',(-2.66827723991191,4.89870744351816,-0.878408251808653));
#425=CARTESIAN_POINT('',(-2.71799872913959,4.88598571509658,-0.792288106236776));
#426=CARTESIAN_POINT('',(-2.7652920188475,4.87212100647886,-0.710373725604105));
#427=CARTESIAN_POINT('',(-2.81059109976186,4.85726455943697,-0.631913415922853));
#428=CARTESIAN_POINT('',(-2.85347730611808,4.84182028528939,-0.557632327568642));
#429=CARTESIAN_POINT('',(-2.8946508826661,4.82576870775757,-0.486317601056867));
#430=CARTESIAN_POINT('',(-2.93810145647522,4.80762313917873,-0.41105899960007));
#431=CARTESIAN_POINT('',(-2.9840257360821,4.78706215938251,-0.331515814018521));
#432=CARTESIAN_POINT('',(-3.03202266792069,4.76405764667416,-0.24838268946516));
#433=CARTESIAN_POINT('',(-3.07434687774216,4.74253741713496,-0.175075007662839));
#434=CARTESIAN_POINT('',(-3.11142994312198,4.72281001492759,-0.110845254323428));
#435=CARTESIAN_POINT('',(-3.14368387023132,4.70504304262721,-0.0549798138254145));
#436=CARTESIAN_POINT('',(-3.16492863444608,4.69295954203088,-0.0181828028099655));
#437=CARTESIAN_POINT('',(-3.17542647981829,4.68689862556587,-1.25496502079159E-9));
#438=CARTESIAN_POINT('',(-1.5877132403,4.6868986253,-2.75));
#439=CARTESIAN_POINT('',(-1.58771324028658,4.68689862524408,-2.74999999997354));
#440=CARTESIAN_POINT('',(-1.59556100559003,4.69142953510083,-2.73640727177246));
#441=CARTESIAN_POINT('',(-1.61124279157008,4.70038286972289,-2.70924562174614));
#442=CARTESIAN_POINT('',(-1.63476596791836,4.71350417536056,-2.66850228517272));
#443=CARTESIAN_POINT('',(-1.65813964827565,4.72622913051315,-2.62801788320083));
#444=CARTESIAN_POINT('',(-1.68132409141948,4.73853668151309,-2.58786124964712));
#445=CARTESIAN_POINT('',(-1.70411711305196,4.75032427963085,-2.54838257798952));
#446=CARTESIAN_POINT('',(-1.72646896703304,4.7615771130103,-2.50966803107211));
#447=CARTESIAN_POINT('',(-1.74818133645006,4.77221222402801,-2.47206110386791));
#448=CARTESIAN_POINT('',(-1.76939258452286,4.7823158370357,-2.43532214425182));
#449=CARTESIAN_POINT('',(-1.78995590968987,4.7918354475528,-2.39970541999172));
#450=CARTESIAN_POINT('',(-1.80990341859255,4.80080605069494,-2.36515532075611));
#451=CARTESIAN_POINT('',(-1.82894157778246,4.80912183338285,-2.3321802614005));
#452=CARTESIAN_POINT('',(-1.84722789687235,4.81688064852716,-2.30050742727463));
#453=CARTESIAN_POINT('',(-1.8645903662722,4.82403693588429,-2.27043474773581));
#454=CARTESIAN_POINT('',(-1.88117443291552,4.83067796611344,-2.24171030130644));
#455=CARTESIAN_POINT('',(-1.89680785161099,4.83676318102403,-2.21463242541807));
#456=CARTESIAN_POINT('',(-1.91180258327191,4.8424388158423,-2.18866078791464));
#457=CARTESIAN_POINT('',(-1.92615060710737,4.84772024555786,-2.16380928121671));
#458=CARTESIAN_POINT('',(-1.94000939656291,4.8526807398927,-2.13980515331354));
#459=CARTESIAN_POINT('',(-1.95456111687685,4.85774651514139,-2.11460083391283));
#460=CARTESIAN_POINT('',(-1.96990496429016,4.86292049778053,-2.08802451007695));
#461=CARTESIAN_POINT('',(-1.98605047565151,4.86816959816039,-2.06005966349329));
#462=CARTESIAN_POINT('',(-2.00041298209495,4.87266855627028,-2.03518307205555));
#463=CARTESIAN_POINT('',(-2.00939162052936,4.87539011151771,-2.01963161374364));
#464=CARTESIAN_POINT('',(-2.01313971763689,4.87651025956068,-2.01313971896854));
#465=CARTESIAN_POINT('',(-1.5877132403,4.6868986253,-2.75));
#466=VECTOR('',#467,1.);
#467=DIRECTION('',(-6.0225307905493E-17,-1.,0.));
#468=CARTESIAN_POINT('',(1.5877132403,1.,-2.75));
#469=CARTESIAN_POINT('',(-1.5877132403,1.,-2.75));
#470=VECTOR('',#471,1.);
#471=DIRECTION('',(1.,-1.74814789668092E-16,0.));
#472=CARTESIAN_POINT('',(1.5877132403,4.6868986253,-2.75));
#473=CARTESIAN_POINT('',(1.58771324028961,4.686898625264,-2.749999999982));
#474=CARTESIAN_POINT('',(1.55567331652789,4.69614768296966,-2.74999999999309));
#475=CARTESIAN_POINT('',(1.49162715464782,4.71421754229098,-2.75000000000319));
#476=CARTESIAN_POINT('',(1.39536280358598,4.74005563494275,-2.74999999999914));
#477=CARTESIAN_POINT('',(1.29971524188806,4.76435787662808,-2.75000000000024));
#478=CARTESIAN_POINT('',(1.23530363658236,4.77977031530251,-2.74999999999999));
#479=CARTESIAN_POINT('',(1.17059007678875,4.79474868234711,-2.75000000000001));
#480=CARTESIAN_POINT('',(1.10473329367018,4.80946337557714,-2.75));
#481=CARTESIAN_POINT('',(1.00667573117894,4.82976321545795,-2.75));
#482=CARTESIAN_POINT('',(0.908338314202951,4.84843963759595,-2.75));
#483=CARTESIAN_POINT('',(0.809914359498535,4.86539151380817,-2.75));
#484=CARTESIAN_POINT('',(0.714442482635516,4.88009348389905,-2.75));
#485=CARTESIAN_POINT('',(0.648610489072483,4.88905151597796,-2.75));
#486=CARTESIAN_POINT('',(0.582681506046244,4.89738701510977,-2.75));
#487=CARTESIAN_POINT('',(0.513579200030437,4.90539456947546,-2.75));
#488=CARTESIAN_POINT('',(0.414242370240492,4.91494176129493,-2.75));
#489=CARTESIAN_POINT('',(0.322388150592873,4.92191406482013,-2.75));
#490=CARTESIAN_POINT('',(0.255611398683121,4.92577018003772,-2.75));
#491=CARTESIAN_POINT('',(0.188580178377621,4.92894148982539,-2.75));
#492=CARTESIAN_POINT('',(0.113520014342621,4.93152014556758,-2.75));
#493=CARTESIAN_POINT('',(0.0421271273188345,4.93246760148121,-2.75));
#494=CARTESIAN_POINT('',(-0.0251161425810675,4.93255844844207,-2.75));
#495=CARTESIAN_POINT('',(-0.0716808951135034,4.93212709868227,-2.75));
#496=CARTESIAN_POINT('',(-0.13485347201296,4.93070205706904,-2.75));
#497=CARTESIAN_POINT('',(-0.202251789938196,4.92846723475528,-2.75));
#498=CARTESIAN_POINT('',(-0.290267543758716,4.92404745787471,-2.75));
#499=CARTESIAN_POINT('',(-0.385398998148444,4.91729251089378,-2.75));
#500=CARTESIAN_POINT('',(-0.452328598588555,4.91128172408536,-2.75));
#501=CARTESIAN_POINT('',(-0.51927572898727,4.9045943907577,-2.75));
#502=CARTESIAN_POINT('',(-0.591584815772383,4.89652494398043,-2.75));
#503=CARTESIAN_POINT('',(-0.691802595160393,4.88337043068126,-2.75));
#504=CARTESIAN_POINT('',(-0.76805941711899,4.8718983980651,-2.75));
#505=CARTESIAN_POINT('',(-0.83489429970891,4.86104254960748,-2.75));
#506=CARTESIAN_POINT('',(-0.901817689404022,4.84955119533816,-2.75));
#507=CARTESIAN_POINT('',(-0.992343925632305,4.83260015260163,-2.75));
#508=CARTESIAN_POINT('',(-1.07902790574573,4.8148553789028,-2.75));
#509=CARTESIAN_POINT('',(-1.14526577590552,4.80040397468358,-2.75));
#510=CARTESIAN_POINT('',(-1.21148295278872,4.78541585535889,-2.74999999999999));
#511=CARTESIAN_POINT('',(-1.30181594077286,4.76395522362165,-2.75000000000006));
#512=CARTESIAN_POINT('',(-1.38792760003004,4.7419422354034,-2.74999999999981));
#513=CARTESIAN_POINT('',(-1.4870257590461,4.71545215970548,-2.75000000000032));
#514=CARTESIAN_POINT('',(-1.54193952627382,4.70011223957599,-2.74999999999586));
#515=CARTESIAN_POINT('',(-1.58771324028961,4.686898625264,-2.749999999982));
#516=CARTESIAN_POINT('',(1.5877132403,4.6868986253,-2.75));
#517=VECTOR('',#518,1.);
#518=DIRECTION('',(6.0225307905493E-17,-1.,0.));
#519=CARTESIAN_POINT('',(3.17542648053221,1.,0.));
#520=CARTESIAN_POINT('',(1.5877132403,1.,-2.75));
#521=VECTOR('',#522,1.);
#522=DIRECTION('',(0.499999999993262,-3.49629579346401E-17,0.866025403788329));
#523=CARTESIAN_POINT('',(3.1754264805,4.6868986253,0.));
#524=CARTESIAN_POINT('',(3.17542648051958,4.68689862524148,-3.08829823023385E-11));
#525=CARTESIAN_POINT('',(3.15932779653776,4.6961931374865,-0.0278837386287992));
#526=CARTESIAN_POINT('',(3.12716583759816,4.7143394537095,-0.0835898855928986));
#527=CARTESIAN_POINT('',(3.07883879389973,4.74027274257462,-0.167294780663263));
#528=CARTESIAN_POINT('',(3.03054586153775,4.76479874158071,-0.250940593155827));
#529=CARTESIAN_POINT('',(2.98214149094345,4.78792965826663,-0.334779422318257));
#530=CARTESIAN_POINT('',(2.93352847137083,4.80963716211335,-0.418979642101076));
#531=CARTESIAN_POINT('',(2.88469970866981,4.8298430235425,-0.503553539932097));
#532=CARTESIAN_POINT('',(2.83576724103793,4.84842660350408,-0.588307059960326));
#533=CARTESIAN_POINT('',(2.7867636864592,4.86531201018007,-0.673183706179795));
#534=CARTESIAN_POINT('',(2.7376342411243,4.88045547340255,-0.75827840157219));
#535=CARTESIAN_POINT('',(2.68832710159816,4.89380449116422,-0.843680872318497));
#536=CARTESIAN_POINT('',(2.63882849167017,4.90529526000802,-0.92941497951488));
#537=CARTESIAN_POINT('',(2.58909701994534,4.91487319557859,-1.01555241515996));
#538=CARTESIAN_POINT('',(2.53344156452016,4.92333895923456,-1.11195049152707));
#539=CARTESIAN_POINT('',(2.47196489028922,4.92971970162729,-1.21843121459098));
#540=CARTESIAN_POINT('',(2.41941898384153,4.93222509216669,-1.30944339410934));
#541=CARTESIAN_POINT('',(2.37474171691541,4.93266087922504,-1.38682669020451));
#542=CARTESIAN_POINT('',(2.3356688726366,4.93194338070405,-1.45450284154018));
#543=CARTESIAN_POINT('',(2.28762635843138,4.92916776571496,-1.53771491686714));
#544=CARTESIAN_POINT('',(2.2374180232912,4.92416418672464,-1.62467830406944));
#545=CARTESIAN_POINT('',(2.18716538764721,4.91707209692383,-1.71171842198001));
#546=CARTESIAN_POINT('',(2.13681018470387,4.90790003186455,-1.79893619164895));
#547=CARTESIAN_POINT('',(2.08643233613135,4.89668743719961,-1.88619318468346));
#548=CARTESIAN_POINT('',(2.03606770749119,4.8834860269892,-1.97342728010921));
#549=CARTESIAN_POINT('',(1.98572645337603,4.86834979190885,-2.06062088965628));
#550=CARTESIAN_POINT('',(1.93538589019944,4.85132373388088,-2.14781330244909));
#551=CARTESIAN_POINT('',(1.88516541196872,4.83251113929269,-2.23479772200205));
#552=CARTESIAN_POINT('',(1.8351134053871,4.81200797161301,-2.32149034008765));
#553=CARTESIAN_POINT('',(1.78523005309691,4.78989497268009,-2.40789084036064));
#554=CARTESIAN_POINT('',(1.73549021044615,4.76623825215501,-2.49404277463624));
#555=CARTESIAN_POINT('',(1.68596995771767,4.74115469274146,-2.57981436800019));
#556=CARTESIAN_POINT('',(1.63670190828629,4.71474720085073,-2.66514913243118));
#557=CARTESIAN_POINT('',(1.60401916663433,4.69631277704876,-2.72175730124836));
#558=CARTESIAN_POINT('',(1.58771323841335,4.68689862556848,-2.74999999726306));
#559=CARTESIAN_POINT('',(3.17542648053221,4.6868986253,0.));
#560=VECTOR('',#561,1.);
#561=DIRECTION('',(0.,-1.,0.));
#562=CARTESIAN_POINT('',(1.5877132403,1.,2.75));
#563=CARTESIAN_POINT('',(3.17542648053221,1.,1.85940152164221E-11));
#564=VECTOR('',#565,1.);
#565=DIRECTION('',(-0.499999999993262,6.99259158692802E-17,0.866025403788329));
#566=CARTESIAN_POINT('',(1.5877132403,4.6868986253,2.75));
#567=CARTESIAN_POINT('',(1.58771324028658,4.68689862524408,2.74999999997354));
#568=CARTESIAN_POINT('',(1.60381192428588,4.69619313747962,2.7221162613819));
#569=CARTESIAN_POINT('',(1.63597388324319,4.71433945369443,2.66641011442374));
#570=CARTESIAN_POINT('',(1.68430092693889,4.74027274256429,2.58270521935057));
#571=CARTESIAN_POINT('',(1.73259385930066,4.76479874157063,2.49905940685493));
#572=CARTESIAN_POINT('',(1.78099822988847,4.78792965825794,2.41522057768616));
#573=CARTESIAN_POINT('',(1.82961124945026,4.80963716210568,2.3310203578945));
#574=CARTESIAN_POINT('',(1.87844001213521,4.82984302353584,2.24644646005187));
#575=CARTESIAN_POINT('',(1.92737247974575,4.84842660349834,2.16169294000919));
#576=CARTESIAN_POINT('',(1.97637603429775,4.8653120101752,2.07681629377213));
#577=CARTESIAN_POINT('',(2.02550547960036,4.88045547339853,1.9917215983588));
#578=CARTESIAN_POINT('',(2.07481261908838,4.89380449116098,1.90631912758812));
#579=CARTESIAN_POINT('',(2.12431122897212,4.90529526000549,1.82058502036392));
#580=CARTESIAN_POINT('',(2.17404270064636,4.91487319557671,1.73444758468742));
#581=CARTESIAN_POINT('',(2.22969815600775,4.92333895923329,1.63804950828137));
#582=CARTESIAN_POINT('',(2.29117483015881,4.9297197016266,1.53156878516948));
#583=CARTESIAN_POINT('',(2.34372073653172,4.93222509216656,1.4405566056002));
#584=CARTESIAN_POINT('',(2.38839800338655,4.93266087922507,1.36317330946293));
#585=CARTESIAN_POINT('',(2.4274708475995,4.9319433807042,1.29549715808866));
#586=CARTESIAN_POINT('',(2.47551336171493,4.92916776571558,1.21228508271589));
#587=CARTESIAN_POINT('',(2.52572169675744,4.92416418672559,1.12532169545726));
#588=CARTESIAN_POINT('',(2.57597433229704,4.91707209692513,1.03828157748687));
#589=CARTESIAN_POINT('',(2.62632953512916,4.90790003186626,0.951063807754628));
#590=CARTESIAN_POINT('',(2.67670738358388,4.8966874372018,0.86380681465349));
#591=CARTESIAN_POINT('',(2.72707201209986,4.88348602699197,0.776572719157904));
#592=CARTESIAN_POINT('',(2.77741326608476,4.86834979191229,0.68937910953777));
#593=CARTESIAN_POINT('',(2.8277538291251,4.8513237338851,0.602186696668703));
#594=CARTESIAN_POINT('',(2.87797430721412,4.83251113929777,0.515202277036573));
#595=CARTESIAN_POINT('',(2.92802631364893,4.81200797161909,0.428509658869105));
#596=CARTESIAN_POINT('',(2.97790966578756,4.7898949726872,0.342109158511795));
#597=CARTESIAN_POINT('',(3.02764950828164,4.76623825216365,0.255957224149315));
#598=CARTESIAN_POINT('',(3.07716976085032,4.74115469275063,0.170185630697784));
#599=CARTESIAN_POINT('',(3.12643781011336,4.7147472008652,0.0848508661731616));
#600=CARTESIAN_POINT('',(3.15912055166245,4.69631277705538,0.0282426973025923));
#601=CARTESIAN_POINT('',(3.17542647983688,4.68689862556587,1.26570197912493E-9));
#602=CARTESIAN_POINT('',(1.5877132403,4.6868986253,2.75));
#603=VECTOR('',#604,1.);
#604=DIRECTION('',(6.0225307905493E-17,-1.,0.));
#605=CARTESIAN_POINT('',(1.5877132403,1.,2.75));
#606=VECTOR('',#607,1.);
#607=DIRECTION('',(-1.,1.74814789668092E-16,0.));
#608=CARTESIAN_POINT('',(-1.5877132402896,4.686898625264,2.749999999982));
#609=CARTESIAN_POINT('',(-1.55530837360917,4.69625303300855,2.7499999999931));
#610=CARTESIAN_POINT('',(-1.49059265682125,4.71450699656305,2.75000000000318));
#611=CARTESIAN_POINT('',(-1.39342529672942,4.74056557487361,2.74999999999915));
#612=CARTESIAN_POINT('',(-1.29737627939056,4.76493546374095,2.75000000000023));
#613=CARTESIAN_POINT('',(-1.23266526957135,4.78039386616725,2.75));
#614=CARTESIAN_POINT('',(-1.16795746574455,4.79534367632396,2.75));
#615=CARTESIAN_POINT('',(-1.10218464605532,4.810009227787,2.75));
#616=CARTESIAN_POINT('',(-1.00465169233555,4.8301609312064,2.75));
#617=CARTESIAN_POINT('',(-0.906906566030649,4.84869552117902,2.75));
#618=CARTESIAN_POINT('',(-0.808877291836336,4.86555918627825,2.75));
#619=CARTESIAN_POINT('',(-0.712986882559629,4.88030964369902,2.75));
#620=CARTESIAN_POINT('',(-0.636067421154697,4.89075090915003,2.75));
#621=CARTESIAN_POINT('',(-0.547891625639057,4.90158293406416,2.75));
#622=CARTESIAN_POINT('',(-0.44593624993603,4.91237136674659,2.75));
#623=CARTESIAN_POINT('',(-0.331655852842152,4.92140220549955,2.75));
#624=CARTESIAN_POINT('',(-0.253980994758739,4.92585726048392,2.75));
#625=CARTESIAN_POINT('',(-0.187126998970828,4.92899586351894,2.75));
#626=CARTESIAN_POINT('',(-0.112614204167799,4.93154030405869,2.75));
#627=CARTESIAN_POINT('',(-0.0415966054767629,4.9324708710488,2.75));
#628=CARTESIAN_POINT('',(0.0256095446390725,4.93255650937647,2.75));
#629=CARTESIAN_POINT('',(0.0725915235347671,4.93211757175304,2.75));
#630=CARTESIAN_POINT('',(0.136045187766319,4.9306680738624,2.75));
#631=CARTESIAN_POINT('',(0.203506573603844,4.92841121594302,2.75));
#632=CARTESIAN_POINT('',(0.291161222324,4.92399332556303,2.75));
#633=CARTESIAN_POINT('',(0.386596895766627,4.91719888632148,2.75));
#634=CARTESIAN_POINT('',(0.453474095274825,4.91117473741996,2.75));
#635=CARTESIAN_POINT('',(0.520345222307306,4.9044779681864,2.75));
#636=CARTESIAN_POINT('',(0.592275916155972,4.89644041921653,2.75));
#637=CARTESIAN_POINT('',(0.692460187264108,4.88327775861704,2.75));
#638=CARTESIAN_POINT('',(0.768946618050592,4.87176174352642,2.75));
#639=CARTESIAN_POINT('',(0.83583672366734,4.86088427203397,2.75));
#640=CARTESIAN_POINT('',(0.902862389187786,4.8493622476328,2.75));
#641=CARTESIAN_POINT('',(0.993349207585779,4.83240425115469,2.75));
#642=CARTESIAN_POINT('',(1.08021200165843,4.81460626827437,2.75));
#643=CARTESIAN_POINT('',(1.14666301417584,4.80009415574727,2.75));
#644=CARTESIAN_POINT('',(1.21312781070502,4.78503391847056,2.75));
#645=CARTESIAN_POINT('',(1.29249103450082,4.76615662060365,2.74999999999996));
#646=CARTESIAN_POINT('',(1.37839604750373,4.74439564568176,2.75000000000011));
#647=CARTESIAN_POINT('',(1.44411665431356,4.72697280939517,2.74999999999979));
#648=CARTESIAN_POINT('',(1.50957042702102,4.70915367511885,2.75000000000081));
#649=CARTESIAN_POINT('',(1.55516475430626,4.69629452133981,2.74999999999534));
#650=CARTESIAN_POINT('',(1.58771324028961,4.686898625264,2.749999999982));
#651=CARTESIAN_POINT('',(-1.83697019872103E-16,5.,1.5));
#652=AXIS2_PLACEMENT_3D('',#653,#654,#655);
#653=CARTESIAN_POINT('',(0.,5.,0.));
#654=DIRECTION('',(0.,1.,0.));
#655=DIRECTION('',(0.,0.,1.));
#656=CARTESIAN_POINT('',(0.,5.,-2.6331189916));
#657=CARTESIAN_POINT('',(-1.86189629463068,4.99999999997545,-1.86189629461216));
#658=AXIS2_PLACEMENT_3D('',#659,#660,#661);
#659=CARTESIAN_POINT('',(0.,5.,0.));
#660=DIRECTION('',(0.,-1.,0.));
#661=DIRECTION('',(0.,0.,-1.));
#662=AXIS2_PLACEMENT_3D('',#663,#664,#665);
#663=CARTESIAN_POINT('',(0.,5.,0.));
#664=DIRECTION('',(0.,-1.,0.));
#665=DIRECTION('',(-0.707106781190063,0.,-0.707106781183032));
ENDSEC;
END-ISO-10303-21;
