ISO-10303-21;

HEADER;
FILE_DESCRIPTION((' '),'2;1');
FILE_NAME( 'Abstandzbolzen Stahl verzinkt I-A M5_-_Ettinger - 5.15.351 (M5x35).stp',
           '2022-09-10T18:22:15',
           (' '),
           ('--- Datakit www.datakit.com---'),
           ' Datakit CrossCadWare V2022.3  Jun 15 2022',
           'DATAKIT 2022 (c)',
           ' ');
FILE_SCHEMA(('AP242_MANAGED_MODEL_BASED_3D_ENGINEERING_MIM_LF { 1 0 10303 442 1 1 4 }'));
ENDSEC;

DATA;
#1=APPLICATION_CONTEXT('Managed model based 3d engineering');
#2=APPLICATION_PROTOCOL_DEFINITION('international standard','ap242_managed_model_based_3d_engineering',2013,#1);
#3=(LENGTH_UNIT()NAMED_UNIT(*)SI_UNIT(.MILLI.,.METRE.));
#4=(NAMED_UNIT(*)PLANE_ANGLE_UNIT()SI_UNIT($,.RADIAN.));
#5=( GEOMETRIC_REPRESENTATION_CONTEXT(3)
       GLOBAL_UNCERTAINTY_ASSIGNED_CONTEXT((#6)) GLOBAL_UNIT_ASSIGNED_CONTEXT
  ((#3,#4)) REPRESENTATION_CONTEXT('Context #1',
  '3D Context with UNIT and UNCERTAINTY') );
#6=UNCERTAINTY_MEASURE_WITH_UNIT(LENGTH_MEASURE(0.005),#3,'distance_accuracy_value','Confusion accuracy');
#7=PRODUCT_CONTEXT('',#1,'mechanical');
#8=PRODUCT('Abstandzbolzen Stahl verzinkt I-A M5_-_Ettinger - 5.15.351 (M5x35)','','',(#7));
#9=PRODUCT_DEFINITION_FORMATION('','',#8);
#10=PRODUCT_DEFINITION_CONTEXT('part definition',#1,'design');
#11=PRODUCT_DEFINITION('design','',#9,#10);
#12=PRODUCT_DEFINITION_SHAPE('','',#11);
#13=PRODUCT_CATEGORY('part',$);
#14=PRODUCT_RELATED_PRODUCT_CATEGORY('part',$,(#8));
#15=PRODUCT_CATEGORY_RELATIONSHIP('','',#13,#14);
#16=CARTESIAN_POINT('',(-3.8188021535,17.5,0.0));
#17=VERTEX_POINT('',#16);
#18=CARTESIAN_POINT('',(-0.0,17.5,0.0));
#19=DIRECTION('',(-0.0,1.0,-0.0));
#20=DIRECTION('',(-1.0,-0.0,0.0));
#21=AXIS2_PLACEMENT_3D('',#18,#19,#20);
#22=CIRCLE('',#21,3.8188021535);
#23=EDGE_CURVE('n° 297',#17,#17,#22,.T.);
#24=ORIENTED_EDGE('',*,*,#23,.T.);
#25=EDGE_LOOP('',(#24));
#26=FACE_OUTER_BOUND('',#25,.T.);
#27=CARTESIAN_POINT('',(0.0,17.5,2.5));
#28=VERTEX_POINT('',#27);
#29=CARTESIAN_POINT('',(0.0,17.5,0.0));
#30=DIRECTION('',(-0.0,1.0,-0.0));
#31=DIRECTION('',(0.0,0.0,1.0));
#32=AXIS2_PLACEMENT_3D('',#29,#30,#31);
#33=CIRCLE('',#32,2.5);
#34=EDGE_CURVE('n° 795',#28,#28,#33,.T.);
#35=ORIENTED_EDGE('',*,*,#34,.F.);
#36=EDGE_LOOP('',(#35));
#37=FACE_BOUND('',#36,.T.);
#38=CARTESIAN_POINT('',(6.9282032303,17.5,4.0));
#39=DIRECTION('',(0.0,-1.0,0.0));
#40=DIRECTION('',(0.0,-0.0,-1.0));
#41=AXIS2_PLACEMENT_3D('',#38,#39,#40);
#42=PLANE('',#41);
#43=ADVANCED_FACE('n° 790',(#26,#37),#42,.F.);
#44=CARTESIAN_POINT('',(2.3094010768,-17.0381197846,4.0));
#45=VERTEX_POINT('',#44);
#46=CARTESIAN_POINT('',(-2.3094010768,-17.0381197846,4.0));
#47=VERTEX_POINT('',#46);
#48=CARTESIAN_POINT('',(2.3094010768,-17.0381197846,4.0));
#49=CARTESIAN_POINT('',(1.7652695189,-17.1951970353,4.0));
#50=CARTESIAN_POINT('',(1.2017783897,-17.314944468,4.0));
#51=CARTESIAN_POINT('',(0.2462680377,-17.4018038804,4.0));
#52=CARTESIAN_POINT('',(-0.153436532,-17.4045870228,4.0));
#53=CARTESIAN_POINT('',(-0.9372563637,-17.3434549799,4.0));
#54=CARTESIAN_POINT('',(-1.3311079411,-17.2793845358,4.0));
#55=CARTESIAN_POINT('',(-1.9128354071,-17.1470739411,4.0));
#56=CARTESIAN_POINT('',(-2.1138996613,-17.0945561821,4.0));
#57=CARTESIAN_POINT('',(-2.3094010768,-17.0381197846,4.0));
#58=B_SPLINE_CURVE_WITH_KNOTS('',3,(#48,#49,#50,#51,#52,#53,#54,#55,#56,#57),.UNSPECIFIED.,.F.,.U.,
 (4,2,2,2,4),(0.0,0.3639701214,0.6165995184,0.8692289155,1.0),.UNSPECIFIED.);
#59=EDGE_CURVE('n° 577',#45,#47,#58,.T.);
#60=ORIENTED_EDGE('',*,*,#59,.F.);
#61=CARTESIAN_POINT('',(2.3094010768,17.0381197846,4.0));
#62=VERTEX_POINT('',#61);
#63=CARTESIAN_POINT('',(2.3094010768,17.5,4.0));
#64=DIRECTION('',(-0.0,-1.0,0.0));
#65=VECTOR('',#64,1.0);
#66=LINE('',#63,#65);
#67=EDGE_CURVE('n° 264',#62,#45,#66,.T.);
#68=ORIENTED_EDGE('',*,*,#67,.F.);
#69=CARTESIAN_POINT('',(-2.3094010768,17.0381197846,4.0));
#70=VERTEX_POINT('',#69);
#71=CARTESIAN_POINT('',(2.3094010768,17.0381197846,4.0));
#72=CARTESIAN_POINT('',(1.7652695189,17.1951970353,4.0));
#73=CARTESIAN_POINT('',(1.2017783897,17.314944468,4.0));
#74=CARTESIAN_POINT('',(0.2462680377,17.4018038804,4.0));
#75=CARTESIAN_POINT('',(-0.153436532,17.4045870228,4.0));
#76=CARTESIAN_POINT('',(-0.9372563637,17.3434549799,4.0));
#77=CARTESIAN_POINT('',(-1.3311079411,17.2793845358,4.0));
#78=CARTESIAN_POINT('',(-1.9128354071,17.1470739411,4.0));
#79=CARTESIAN_POINT('',(-2.1138996613,17.0945561821,4.0));
#80=CARTESIAN_POINT('',(-2.3094010768,17.0381197846,4.0));
#81=B_SPLINE_CURVE_WITH_KNOTS('',3,(#71,#72,#73,#74,#75,#76,#77,#78,#79,#80),.UNSPECIFIED.,.F.,.U.,
 (4,2,2,2,4),(0.0,0.3639701214,0.6165995184,0.8692289155,1.0),.UNSPECIFIED.);
#82=EDGE_CURVE('n° 299',#62,#70,#81,.T.);
#83=ORIENTED_EDGE('',*,*,#82,.T.);
#84=CARTESIAN_POINT('',(-2.3094010768,17.5,4.0));
#85=DIRECTION('',(-0.0,-1.0,-0.0));
#86=VECTOR('',#85,1.0);
#87=LINE('',#84,#86);
#88=EDGE_CURVE('n° 233',#70,#47,#87,.T.);
#89=ORIENTED_EDGE('',*,*,#88,.T.);
#90=EDGE_LOOP('',(#60,#68,#83,#89));
#91=FACE_OUTER_BOUND('',#90,.T.);
#92=CARTESIAN_POINT('',(-2.3094010768,17.5,4.0));
#93=DIRECTION('',(-0.0,0.0,-1.0));
#94=DIRECTION('',(-1.0,0.0,0.0));
#95=AXIS2_PLACEMENT_3D('',#92,#93,#94);
#96=PLANE('',#95);
#97=ADVANCED_FACE('n° 499',(#91),#96,.F.);
#98=CARTESIAN_POINT('',(4.6188021535,-17.0381197846,0.0));
#99=VERTEX_POINT('',#98);
#100=CARTESIAN_POINT('',(4.6189176236,-17.0380531155,-0.0002));
#101=CARTESIAN_POINT('',(4.4188261387,-17.153584652,0.346368618));
#102=CARTESIAN_POINT('',(4.2132886633,-17.2493726643,0.7023699682));
#103=CARTESIAN_POINT('',(3.8014524785,-17.3740306309,1.4156911646));
#104=CARTESIAN_POINT('',(3.5902431255,-17.4032984281,1.7815164951));
#105=CARTESIAN_POINT('',(3.2008607992,-17.3848653122,2.4559464678));
#106=CARTESIAN_POINT('',(3.0184888876,-17.3469619041,2.7718238846));
#107=CARTESIAN_POINT('',(2.6612782805,-17.2240722933,3.3905308052));
#108=CARTESIAN_POINT('',(2.4834031838,-17.1385874847,3.69861951));
#109=CARTESIAN_POINT('',(2.3092856067,-17.0380531155,4.0002));
#110=B_SPLINE_CURVE_WITH_KNOTS('',3,(#100,#101,#102,#103,#104,#105,#106,#107,#108,#109),.UNSPECIFIED.,.F.,.U.,
 (4,2,2,2,4),(0.0,0.267352538,0.534705076,0.767352538,1.0),.UNSPECIFIED.);
#111=EDGE_CURVE('n° 581',#99,#45,#110,.T.);
#112=ORIENTED_EDGE('',*,*,#111,.F.);
#113=CARTESIAN_POINT('',(4.6188021535,17.0381197846,-0.0));
#114=VERTEX_POINT('',#113);
#115=CARTESIAN_POINT('',(4.6188021535,17.5,-0.0));
#116=DIRECTION('',(0.0,-1.0,0.0));
#117=VECTOR('',#116,1.0);
#118=LINE('',#115,#117);
#119=EDGE_CURVE('n° 257',#114,#99,#118,.T.);
#120=ORIENTED_EDGE('',*,*,#119,.F.);
#121=CARTESIAN_POINT('',(4.6189176236,17.0380531155,-0.0002));
#122=CARTESIAN_POINT('',(4.4188261387,17.153584652,0.346368618));
#123=CARTESIAN_POINT('',(4.2132886633,17.2493726643,0.7023699682));
#124=CARTESIAN_POINT('',(3.8014524785,17.3740306309,1.4156911646));
#125=CARTESIAN_POINT('',(3.5902431255,17.4032984281,1.7815164951));
#126=CARTESIAN_POINT('',(3.2008607992,17.3848653122,2.4559464678));
#127=CARTESIAN_POINT('',(3.0184888876,17.3469619041,2.7718238846));
#128=CARTESIAN_POINT('',(2.6612782805,17.2240722933,3.3905308052));
#129=CARTESIAN_POINT('',(2.4834031838,17.1385874847,3.69861951));
#130=CARTESIAN_POINT('',(2.3092856067,17.0380531155,4.0002));
#131=B_SPLINE_CURVE_WITH_KNOTS('',3,(#121,#122,#123,#124,#125,#126,#127,#128,#129,#130),.UNSPECIFIED.,.F.,.U.,
 (4,2,2,2,4),(0.0,0.267352538,0.534705076,0.767352538,1.0),.UNSPECIFIED.);
#132=EDGE_CURVE('n° 298',#114,#62,#131,.T.);
#133=ORIENTED_EDGE('',*,*,#132,.T.);
#134=ORIENTED_EDGE('',*,*,#67,.T.);
#135=EDGE_LOOP('',(#112,#120,#133,#134));
#136=FACE_OUTER_BOUND('',#135,.T.);
#137=CARTESIAN_POINT('',(2.3094010768,17.5,4.0));
#138=DIRECTION('',(-0.8660254038,0.0,-0.5));
#139=DIRECTION('',(-0.5,0.0,0.8660254038));
#140=AXIS2_PLACEMENT_3D('',#137,#138,#139);
#141=PLANE('',#140);
#142=ADVANCED_FACE('n° 495',(#136),#141,.F.);
#143=ORIENTED_EDGE('',*,*,#119,.T.);
#144=CARTESIAN_POINT('',(2.3094010768,-17.0381197846,-4.0));
#145=VERTEX_POINT('',#144);
#146=CARTESIAN_POINT('',(4.6189176236,-17.0380531155,0.0002));
#147=CARTESIAN_POINT('',(4.4188261387,-17.153584652,-0.346368618));
#148=CARTESIAN_POINT('',(4.2132886633,-17.2493726643,-0.7023699682));
#149=CARTESIAN_POINT('',(3.8014524785,-17.3740306309,-1.4156911646));
#150=CARTESIAN_POINT('',(3.5902431255,-17.4032984281,-1.7815164951));
#151=CARTESIAN_POINT('',(3.2008607992,-17.3848653122,-2.4559464678));
#152=CARTESIAN_POINT('',(3.0184888876,-17.3469619041,-2.7718238846));
#153=CARTESIAN_POINT('',(2.6612782805,-17.2240722933,-3.3905308052));
#154=CARTESIAN_POINT('',(2.4834031838,-17.1385874847,-3.69861951));
#155=CARTESIAN_POINT('',(2.3092856067,-17.0380531155,-4.0002));
#156=B_SPLINE_CURVE_WITH_KNOTS('',3,(#146,#147,#148,#149,#150,#151,#152,#153,#154,#155),.UNSPECIFIED.,.F.,.U.,
 (4,2,2,2,4),(0.0,0.267352538,0.534705076,0.767352538,1.0),.UNSPECIFIED.);
#157=EDGE_CURVE('n° 573',#99,#145,#156,.T.);
#158=ORIENTED_EDGE('',*,*,#157,.T.);
#159=CARTESIAN_POINT('',(2.3094010768,17.0381197846,-4.0));
#160=VERTEX_POINT('',#159);
#161=CARTESIAN_POINT('',(2.3094010768,17.5,-4.0));
#162=DIRECTION('',(0.0,-1.0,-0.0));
#163=VECTOR('',#162,1.0);
#164=LINE('',#161,#163);
#165=EDGE_CURVE('n° 250',#160,#145,#164,.T.);
#166=ORIENTED_EDGE('',*,*,#165,.F.);
#167=CARTESIAN_POINT('',(4.6189176236,17.0380531155,0.0002));
#168=CARTESIAN_POINT('',(4.4188261387,17.153584652,-0.346368618));
#169=CARTESIAN_POINT('',(4.2132886633,17.2493726643,-0.7023699682));
#170=CARTESIAN_POINT('',(3.8014524785,17.3740306309,-1.4156911646));
#171=CARTESIAN_POINT('',(3.5902431255,17.4032984281,-1.7815164951));
#172=CARTESIAN_POINT('',(3.2008607992,17.3848653122,-2.4559464678));
#173=CARTESIAN_POINT('',(3.0184888876,17.3469619041,-2.7718238846));
#174=CARTESIAN_POINT('',(2.6612782805,17.2240722933,-3.3905308052));
#175=CARTESIAN_POINT('',(2.4834031838,17.1385874847,-3.69861951));
#176=CARTESIAN_POINT('',(2.3092856067,17.0380531155,-4.0002));
#177=B_SPLINE_CURVE_WITH_KNOTS('',3,(#167,#168,#169,#170,#171,#172,#173,#174,#175,#176),.UNSPECIFIED.,.F.,.U.,
 (4,2,2,2,4),(0.0,0.267352538,0.534705076,0.767352538,1.0),.UNSPECIFIED.);
#178=EDGE_CURVE('n° 301',#114,#160,#177,.T.);
#179=ORIENTED_EDGE('',*,*,#178,.F.);
#180=EDGE_LOOP('',(#143,#158,#166,#179));
#181=FACE_OUTER_BOUND('',#180,.T.);
#182=CARTESIAN_POINT('',(2.3094010768,17.5,-4.0));
#183=DIRECTION('',(0.8660254038,0.0,-0.5));
#184=DIRECTION('',(-0.5,0.0,-0.8660254038));
#185=AXIS2_PLACEMENT_3D('',#182,#183,#184);
#186=PLANE('',#185);
#187=ADVANCED_FACE('n° 488',(#181),#186,.T.);
#188=ORIENTED_EDGE('',*,*,#165,.T.);
#189=CARTESIAN_POINT('',(-2.3094010768,-17.0381197846,-4.0));
#190=VERTEX_POINT('',#189);
#191=CARTESIAN_POINT('',(2.3094010768,-17.0381197846,-4.0));
#192=CARTESIAN_POINT('',(1.7652695189,-17.1951970353,-4.0));
#193=CARTESIAN_POINT('',(1.2017783897,-17.314944468,-4.0));
#194=CARTESIAN_POINT('',(0.2462680377,-17.4018038804,-4.0));
#195=CARTESIAN_POINT('',(-0.153436532,-17.4045870228,-4.0));
#196=CARTESIAN_POINT('',(-0.9372563637,-17.3434549799,-4.0));
#197=CARTESIAN_POINT('',(-1.3311079411,-17.2793845358,-4.0));
#198=CARTESIAN_POINT('',(-1.9128354071,-17.1470739411,-4.0));
#199=CARTESIAN_POINT('',(-2.1138996613,-17.0945561821,-4.0));
#200=CARTESIAN_POINT('',(-2.3094010768,-17.0381197846,-4.0));
#201=B_SPLINE_CURVE_WITH_KNOTS('',3,(#191,#192,#193,#194,#195,#196,#197,#198,#199,#200),.UNSPECIFIED.,.F.,.U.,
 (4,2,2,2,4),(0.0,0.3639701214,0.6165995184,0.8692289155,1.0),.UNSPECIFIED.);
#202=EDGE_CURVE('n° 574',#145,#190,#201,.T.);
#203=ORIENTED_EDGE('',*,*,#202,.T.);
#204=CARTESIAN_POINT('',(-2.3094010768,17.0381197846,-4.0));
#205=VERTEX_POINT('',#204);
#206=CARTESIAN_POINT('',(-2.3094010768,17.5,-4.0));
#207=DIRECTION('',(-0.0,-1.0,0.0));
#208=VECTOR('',#207,1.0);
#209=LINE('',#206,#208);
#210=EDGE_CURVE('n° 243',#205,#190,#209,.T.);
#211=ORIENTED_EDGE('',*,*,#210,.F.);
#212=CARTESIAN_POINT('',(2.3094010768,17.0381197846,-4.0));
#213=CARTESIAN_POINT('',(1.7652695189,17.1951970353,-4.0));
#214=CARTESIAN_POINT('',(1.2017783897,17.314944468,-4.0));
#215=CARTESIAN_POINT('',(0.2462680377,17.4018038804,-4.0));
#216=CARTESIAN_POINT('',(-0.153436532,17.4045870228,-4.0));
#217=CARTESIAN_POINT('',(-0.9372563637,17.3434549799,-4.0));
#218=CARTESIAN_POINT('',(-1.3311079411,17.2793845358,-4.0));
#219=CARTESIAN_POINT('',(-1.9128354071,17.1470739411,-4.0));
#220=CARTESIAN_POINT('',(-2.1138996613,17.0945561821,-4.0));
#221=CARTESIAN_POINT('',(-2.3094010768,17.0381197846,-4.0));
#222=B_SPLINE_CURVE_WITH_KNOTS('',3,(#212,#213,#214,#215,#216,#217,#218,#219,#220,#221),.UNSPECIFIED.,.F.,.U.,
 (4,2,2,2,4),(0.0,0.3639701214,0.6165995184,0.8692289155,1.0),.UNSPECIFIED.);
#223=EDGE_CURVE('n° 302',#160,#205,#222,.T.);
#224=ORIENTED_EDGE('',*,*,#223,.F.);
#225=EDGE_LOOP('',(#188,#203,#211,#224));
#226=FACE_OUTER_BOUND('',#225,.T.);
#227=CARTESIAN_POINT('',(-2.3094010768,17.5,-4.0));
#228=DIRECTION('',(-0.0,0.0,-1.0));
#229=DIRECTION('',(-1.0,0.0,0.0));
#230=AXIS2_PLACEMENT_3D('',#227,#228,#229);
#231=PLANE('',#230);
#232=ADVANCED_FACE('n° 481',(#226),#231,.T.);
#233=CARTESIAN_POINT('',(-4.6188021535,-17.0381197846,0.0));
#234=VERTEX_POINT('',#233);
#235=CARTESIAN_POINT('',(-4.6189176236,-17.0380531155,0.0002));
#236=CARTESIAN_POINT('',(-4.4188261387,-17.153584652,-0.346368618));
#237=CARTESIAN_POINT('',(-4.2132886633,-17.2493726643,-0.7023699682));
#238=CARTESIAN_POINT('',(-3.8014524785,-17.3740306309,-1.4156911646));
#239=CARTESIAN_POINT('',(-3.5902431255,-17.4032984281,-1.7815164951));
#240=CARTESIAN_POINT('',(-3.2008607992,-17.3848653122,-2.4559464678));
#241=CARTESIAN_POINT('',(-3.0184888876,-17.3469619041,-2.7718238846));
#242=CARTESIAN_POINT('',(-2.6612782805,-17.2240722933,-3.3905308052));
#243=CARTESIAN_POINT('',(-2.4834031838,-17.1385874847,-3.69861951));
#244=CARTESIAN_POINT('',(-2.3092856067,-17.0380531155,-4.0002));
#245=B_SPLINE_CURVE_WITH_KNOTS('',3,(#235,#236,#237,#238,#239,#240,#241,#242,#243,#244),.UNSPECIFIED.,.F.,.U.,
 (4,2,2,2,4),(0.0,0.267352538,0.534705076,0.767352538,1.0),.UNSPECIFIED.);
#246=EDGE_CURVE('n° 587',#234,#190,#245,.T.);
#247=ORIENTED_EDGE('',*,*,#246,.F.);
#248=CARTESIAN_POINT('',(-4.6188021535,17.0381197846,-0.0));
#249=VERTEX_POINT('',#248);
#250=CARTESIAN_POINT('',(-4.6188021535,17.5,-0.0));
#251=DIRECTION('',(0.0,-1.0,0.0));
#252=VECTOR('',#251,1.0);
#253=LINE('',#250,#252);
#254=EDGE_CURVE('n° 236',#249,#234,#253,.T.);
#255=ORIENTED_EDGE('',*,*,#254,.F.);
#256=CARTESIAN_POINT('',(-4.6189176236,17.0380531155,0.0002));
#257=CARTESIAN_POINT('',(-4.4188261387,17.153584652,-0.346368618));
#258=CARTESIAN_POINT('',(-4.2132886633,17.2493726643,-0.7023699682));
#259=CARTESIAN_POINT('',(-3.8014524785,17.3740306309,-1.4156911646));
#260=CARTESIAN_POINT('',(-3.5902431255,17.4032984281,-1.7815164951));
#261=CARTESIAN_POINT('',(-3.2008607992,17.3848653122,-2.4559464678));
#262=CARTESIAN_POINT('',(-3.0184888876,17.3469619041,-2.7718238846));
#263=CARTESIAN_POINT('',(-2.6612782805,17.2240722933,-3.3905308052));
#264=CARTESIAN_POINT('',(-2.4834031838,17.1385874847,-3.69861951));
#265=CARTESIAN_POINT('',(-2.3092856067,17.0380531155,-4.0002));
#266=B_SPLINE_CURVE_WITH_KNOTS('',3,(#256,#257,#258,#259,#260,#261,#262,#263,#264,#265),.UNSPECIFIED.,.F.,.U.,
 (4,2,2,2,4),(0.0,0.267352538,0.534705076,0.767352538,1.0),.UNSPECIFIED.);
#267=EDGE_CURVE('n° 300',#249,#205,#266,.T.);
#268=ORIENTED_EDGE('',*,*,#267,.T.);
#269=ORIENTED_EDGE('',*,*,#210,.T.);
#270=EDGE_LOOP('',(#247,#255,#268,#269));
#271=FACE_OUTER_BOUND('',#270,.T.);
#272=CARTESIAN_POINT('',(-2.3094010768,17.5,-4.0));
#273=DIRECTION('',(0.8660254038,-0.0,0.5));
#274=DIRECTION('',(0.5,0.0,-0.8660254038));
#275=AXIS2_PLACEMENT_3D('',#272,#273,#274);
#276=PLANE('',#275);
#277=ADVANCED_FACE('n° 474',(#271),#276,.F.);
#278=ORIENTED_EDGE('',*,*,#254,.T.);
#279=CARTESIAN_POINT('',(-4.6189176236,-17.0380531155,-0.0002));
#280=CARTESIAN_POINT('',(-4.4188261387,-17.153584652,0.346368618));
#281=CARTESIAN_POINT('',(-4.2132886633,-17.2493726643,0.7023699682));
#282=CARTESIAN_POINT('',(-3.8014524785,-17.3740306309,1.4156911646));
#283=CARTESIAN_POINT('',(-3.5902431255,-17.4032984281,1.7815164951));
#284=CARTESIAN_POINT('',(-3.2008607992,-17.3848653122,2.4559464678));
#285=CARTESIAN_POINT('',(-3.0184888876,-17.3469619041,2.7718238846));
#286=CARTESIAN_POINT('',(-2.6612782805,-17.2240722933,3.3905308052));
#287=CARTESIAN_POINT('',(-2.4834031838,-17.1385874847,3.69861951));
#288=CARTESIAN_POINT('',(-2.3092856067,-17.0380531155,4.0002));
#289=B_SPLINE_CURVE_WITH_KNOTS('',3,(#279,#280,#281,#282,#283,#284,#285,#286,#287,#288),.UNSPECIFIED.,.F.,.U.,
 (4,2,2,2,4),(0.0,0.267352538,0.534705076,0.767352538,1.0),.UNSPECIFIED.);
#290=EDGE_CURVE('n° 575',#234,#47,#289,.T.);
#291=ORIENTED_EDGE('',*,*,#290,.T.);
#292=ORIENTED_EDGE('',*,*,#88,.F.);
#293=CARTESIAN_POINT('',(-4.6189176236,17.0380531155,-0.0002));
#294=CARTESIAN_POINT('',(-4.4188261387,17.153584652,0.346368618));
#295=CARTESIAN_POINT('',(-4.2132886633,17.2493726643,0.7023699682));
#296=CARTESIAN_POINT('',(-3.8014524785,17.3740306309,1.4156911646));
#297=CARTESIAN_POINT('',(-3.5902431255,17.4032984281,1.7815164951));
#298=CARTESIAN_POINT('',(-3.2008607992,17.3848653122,2.4559464678));
#299=CARTESIAN_POINT('',(-3.0184888876,17.3469619041,2.7718238846));
#300=CARTESIAN_POINT('',(-2.6612782805,17.2240722933,3.3905308052));
#301=CARTESIAN_POINT('',(-2.4834031838,17.1385874847,3.69861951));
#302=CARTESIAN_POINT('',(-2.3092856067,17.0380531155,4.0002));
#303=B_SPLINE_CURVE_WITH_KNOTS('',3,(#293,#294,#295,#296,#297,#298,#299,#300,#301,#302),.UNSPECIFIED.,.F.,.U.,
 (4,2,2,2,4),(0.0,0.267352538,0.534705076,0.767352538,1.0),.UNSPECIFIED.);
#304=EDGE_CURVE('n° 303',#249,#70,#303,.T.);
#305=ORIENTED_EDGE('',*,*,#304,.F.);
#306=EDGE_LOOP('',(#278,#291,#292,#305));
#307=FACE_OUTER_BOUND('',#306,.T.);
#308=CARTESIAN_POINT('',(-2.3094010768,17.5,4.0));
#309=DIRECTION('',(-0.8660254038,0.0,0.5));
#310=DIRECTION('',(0.5,0.0,0.8660254038));
#311=AXIS2_PLACEMENT_3D('',#308,#309,#310);
#312=PLANE('',#311);
#313=ADVANCED_FACE('n° 467',(#307),#312,.T.);
#314=ORIENTED_EDGE('',*,*,#23,.F.);
#315=EDGE_LOOP('',(#314));
#316=FACE_OUTER_BOUND('',#315,.T.);
#317=ORIENTED_EDGE('',*,*,#132,.F.);
#318=ORIENTED_EDGE('',*,*,#178,.T.);
#319=ORIENTED_EDGE('',*,*,#223,.T.);
#320=ORIENTED_EDGE('',*,*,#267,.F.);
#321=ORIENTED_EDGE('',*,*,#304,.T.);
#322=ORIENTED_EDGE('',*,*,#82,.F.);
#323=EDGE_LOOP('',(#317,#318,#319,#320,#321,#322));
#324=FACE_BOUND('',#323,.T.);
#325=CARTESIAN_POINT('',(-0.0,17.0381197846,0.0));
#326=DIRECTION('',(0.0,-1.0,0.0));
#327=DIRECTION('',(1.0,0.0,0.0));
#328=AXIS2_PLACEMENT_3D('',#325,#326,#327);
#329=CONICAL_SURFACE('',#328,4.6188021535,1.0471975512);
#330=ADVANCED_FACE('n° 353',(#316,#324),#329,.T.);
#331=CARTESIAN_POINT('',(-3.8188021535,-17.5,0.0));
#332=VERTEX_POINT('',#331);
#333=CARTESIAN_POINT('',(0.0,-17.5,0.0));
#334=DIRECTION('',(-0.0,1.0,-0.0));
#335=DIRECTION('',(-1.0,-0.0,0.0));
#336=AXIS2_PLACEMENT_3D('',#333,#334,#335);
#337=CIRCLE('',#336,3.8188021535);
#338=EDGE_CURVE('n° 557',#332,#332,#337,.T.);
#339=ORIENTED_EDGE('',*,*,#338,.T.);
#340=EDGE_LOOP('',(#339));
#341=FACE_OUTER_BOUND('',#340,.T.);
#342=ORIENTED_EDGE('',*,*,#59,.T.);
#343=ORIENTED_EDGE('',*,*,#290,.F.);
#344=ORIENTED_EDGE('',*,*,#246,.T.);
#345=ORIENTED_EDGE('',*,*,#202,.F.);
#346=ORIENTED_EDGE('',*,*,#157,.F.);
#347=ORIENTED_EDGE('',*,*,#111,.T.);
#348=EDGE_LOOP('',(#342,#343,#344,#345,#346,#347));
#349=FACE_BOUND('',#348,.T.);
#350=CARTESIAN_POINT('',(0.0,-17.0381197846,0.0));
#351=DIRECTION('',(-0.0,1.0,-0.0));
#352=DIRECTION('',(-1.0,-0.0,0.0));
#353=AXIS2_PLACEMENT_3D('',#350,#351,#352);
#354=CONICAL_SURFACE('',#353,4.6188021535,1.0471975512);
#355=ADVANCED_FACE('n° 634',(#341,#349),#354,.T.);
#356=CARTESIAN_POINT('',(0.0,-17.5,-2.7));
#357=VERTEX_POINT('',#356);
#358=CARTESIAN_POINT('',(0.0,-17.5,0.0));
#359=DIRECTION('',(-0.0,1.0,-0.0));
#360=DIRECTION('',(0.0,-0.0,-1.0));
#361=AXIS2_PLACEMENT_3D('',#358,#359,#360);
#362=CIRCLE('',#361,2.7);
#363=EDGE_CURVE('n° 848',#357,#357,#362,.T.);
#364=ORIENTED_EDGE('',*,*,#363,.T.);
#365=EDGE_LOOP('',(#364));
#366=FACE_OUTER_BOUND('',#365,.T.);
#367=ORIENTED_EDGE('',*,*,#338,.F.);
#368=EDGE_LOOP('',(#367));
#369=FACE_BOUND('',#368,.T.);
#370=CARTESIAN_POINT('',(6.9282032303,-17.5,4.0));
#371=DIRECTION('',(0.0,-1.0,0.0));
#372=DIRECTION('',(0.0,-0.0,-1.0));
#373=AXIS2_PLACEMENT_3D('',#370,#371,#372);
#374=PLANE('',#373);
#375=ADVANCED_FACE('n° 451',(#366,#369),#374,.T.);
#376=CARTESIAN_POINT('',(-2.5,-19.5,0.0));
#377=VERTEX_POINT('',#376);
#378=CARTESIAN_POINT('',(0.0,-19.5,0.0));
#379=DIRECTION('',(-0.0,1.0,-0.0));
#380=DIRECTION('',(-1.0,-0.0,0.0));
#381=AXIS2_PLACEMENT_3D('',#378,#379,#380);
#382=CIRCLE('',#381,2.5);
#383=EDGE_CURVE('n° 505',#377,#377,#382,.T.);
#384=ORIENTED_EDGE('',*,*,#383,.T.);
#385=EDGE_LOOP('',(#384));
#386=FACE_OUTER_BOUND('',#385,.T.);
#387=CARTESIAN_POINT('',(-2.3136296695,-18.8044564575,0.0));
#388=VERTEX_POINT('',#387);
#389=CARTESIAN_POINT('',(0.0,-18.8044564575,0.0));
#390=DIRECTION('',(-0.0,1.0,-0.0));
#391=DIRECTION('',(-1.0,-0.0,0.0));
#392=AXIS2_PLACEMENT_3D('',#389,#390,#391);
#393=CIRCLE('',#392,2.3136296695);
#394=EDGE_CURVE('n° 506',#388,#388,#393,.T.);
#395=ORIENTED_EDGE('',*,*,#394,.F.);
#396=EDGE_LOOP('',(#395));
#397=FACE_BOUND('',#396,.T.);
#398=CARTESIAN_POINT('',(0.0,-18.8044564575,0.0));
#399=DIRECTION('',(0.0,-1.0,0.0));
#400=DIRECTION('',(1.0,0.0,0.0));
#401=AXIS2_PLACEMENT_3D('',#398,#399,#400);
#402=CONICAL_SURFACE('',#401,2.3136296695,0.2617993878);
#403=ADVANCED_FACE('n° 520',(#386,#397),#402,.T.);
#404=CARTESIAN_POINT('',(-2.3,-18.7009288395,0.0));
#405=VERTEX_POINT('',#404);
#406=CARTESIAN_POINT('',(0.0,-18.7009288395,0.0));
#407=DIRECTION('',(-0.0,1.0,-0.0));
#408=DIRECTION('',(-1.0,-0.0,0.0));
#409=AXIS2_PLACEMENT_3D('',#406,#407,#408);
#410=CIRCLE('',#409,2.3);
#411=EDGE_CURVE('n° 507',#405,#405,#410,.T.);
#412=ORIENTED_EDGE('',*,*,#411,.F.);
#413=EDGE_LOOP('',(#412));
#414=FACE_OUTER_BOUND('',#413,.T.);
#415=ORIENTED_EDGE('',*,*,#394,.T.);
#416=EDGE_LOOP('',(#415));
#417=FACE_BOUND('',#416,.T.);
#418=CARTESIAN_POINT('',(0.0,-18.7009288395,0.0));
#419=DIRECTION('',(-0.0,1.0,-0.0));
#420=DIRECTION('',(-1.0,-0.0,0.0));
#421=AXIS2_PLACEMENT_3D('',#418,#419,#420);
#422=TOROIDAL_SURFACE('',#421,2.7,0.4);
#423=ADVANCED_FACE('n° 524',(#414,#417),#422,.F.);
#424=CARTESIAN_POINT('',(0.0,-17.9,-2.3));
#425=VERTEX_POINT('',#424);
#426=CARTESIAN_POINT('',(0.0,-17.9,0.0));
#427=DIRECTION('',(0.0,-1.0,0.0));
#428=DIRECTION('',(0.0,-0.0,-1.0));
#429=AXIS2_PLACEMENT_3D('',#426,#427,#428);
#430=CIRCLE('',#429,2.3);
#431=EDGE_CURVE('n° 855',#425,#425,#430,.T.);
#432=ORIENTED_EDGE('',*,*,#431,.T.);
#433=EDGE_LOOP('',(#432));
#434=FACE_OUTER_BOUND('',#433,.T.);
#435=ORIENTED_EDGE('',*,*,#411,.T.);
#436=EDGE_LOOP('',(#435));
#437=FACE_BOUND('',#436,.T.);
#438=CARTESIAN_POINT('',(-0.0,17.5,0.0));
#439=DIRECTION('',(-0.0,1.0,-0.0));
#440=DIRECTION('',(-1.0,-0.0,0.0));
#441=AXIS2_PLACEMENT_3D('',#438,#439,#440);
#442=CYLINDRICAL_SURFACE('',#441,2.3);
#443=ADVANCED_FACE('n° 528',(#434,#437),#442,.T.);
#444=CARTESIAN_POINT('',(-2.5,-27.2,0.0));
#445=VERTEX_POINT('',#444);
#446=CARTESIAN_POINT('',(0.0,-27.2,0.0));
#447=DIRECTION('',(-0.0,1.0,-0.0));
#448=DIRECTION('',(-1.0,-0.0,0.0));
#449=AXIS2_PLACEMENT_3D('',#446,#447,#448);
#450=CIRCLE('',#449,2.5);
#451=EDGE_CURVE('n° 543',#445,#445,#450,.T.);
#452=ORIENTED_EDGE('',*,*,#451,.T.);
#453=EDGE_LOOP('',(#452));
#454=FACE_OUTER_BOUND('',#453,.T.);
#455=ORIENTED_EDGE('',*,*,#383,.F.);
#456=EDGE_LOOP('',(#455));
#457=FACE_BOUND('',#456,.T.);
#458=CARTESIAN_POINT('',(0.0,-27.5,0.0));
#459=DIRECTION('',(-0.0,1.0,-0.0));
#460=DIRECTION('',(0.0,0.0,1.0));
#461=AXIS2_PLACEMENT_3D('',#458,#459,#460);
#462=CYLINDRICAL_SURFACE('',#461,2.5);
#463=ADVANCED_FACE('n° 445',(#454,#457),#462,.T.);
#464=CARTESIAN_POINT('',(-2.2,-27.5,0.0));
#465=VERTEX_POINT('',#464);
#466=CARTESIAN_POINT('',(0.0,-27.5,0.0));
#467=DIRECTION('',(-0.0,1.0,-0.0));
#468=DIRECTION('',(-1.0,-0.0,0.0));
#469=AXIS2_PLACEMENT_3D('',#466,#467,#468);
#470=CIRCLE('',#469,2.2);
#471=EDGE_CURVE('n° 541',#465,#465,#470,.T.);
#472=ORIENTED_EDGE('',*,*,#471,.T.);
#473=EDGE_LOOP('',(#472));
#474=FACE_OUTER_BOUND('',#473,.T.);
#475=ORIENTED_EDGE('',*,*,#451,.F.);
#476=EDGE_LOOP('',(#475));
#477=FACE_BOUND('',#476,.T.);
#478=CARTESIAN_POINT('',(0.0,-27.2,0.0));
#479=DIRECTION('',(-0.0,1.0,-0.0));
#480=DIRECTION('',(-1.0,-0.0,0.0));
#481=AXIS2_PLACEMENT_3D('',#478,#479,#480);
#482=CONICAL_SURFACE('',#481,2.5,0.7853981634);
#483=ADVANCED_FACE('n° 552',(#474,#477),#482,.T.);
#484=ORIENTED_EDGE('',*,*,#471,.F.);
#485=EDGE_LOOP('',(#484));
#486=FACE_OUTER_BOUND('',#485,.T.);
#487=CARTESIAN_POINT('',(0.0,-27.5,0.0));
#488=DIRECTION('',(0.0,-1.0,0.0));
#489=DIRECTION('',(0.0,-0.0,-1.0));
#490=AXIS2_PLACEMENT_3D('',#487,#488,#489);
#491=PLANE('',#490);
#492=ADVANCED_FACE('n° 433',(#486),#491,.T.);
#493=CARTESIAN_POINT('',(0.0,6.5,2.1));
#494=VERTEX_POINT('',#493);
#495=CARTESIAN_POINT('',(0.0,6.5,0.0));
#496=DIRECTION('',(-0.0,1.0,-0.0));
#497=DIRECTION('',(0.0,0.0,1.0));
#498=AXIS2_PLACEMENT_3D('',#495,#496,#497);
#499=CIRCLE('',#498,2.1);
#500=EDGE_CURVE('n° 796',#494,#494,#499,.T.);
#501=ORIENTED_EDGE('',*,*,#500,.T.);
#502=EDGE_LOOP('',(#501));
#503=FACE_OUTER_BOUND('',#502,.T.);
#504=CARTESIAN_POINT('',(0.0,5.2381927,0.0));
#505=VERTEX_POINT('',#504);
#506=VERTEX_LOOP('',#505);
#507=FACE_BOUND('',#506,.T.);
#508=CARTESIAN_POINT('',(0.0,5.2381927,0.0));
#509=DIRECTION('',(-0.0,1.0,-0.0));
#510=DIRECTION('',(0.0,0.0,1.0));
#511=AXIS2_PLACEMENT_3D('',#508,#509,#510);
#512=CONICAL_SURFACE('',#511,0.0,1.0297442587);
#513=ADVANCED_FACE('n° 804',(#503,#507),#512,.F.);
#514=CARTESIAN_POINT('',(0.0,17.098,2.1));
#515=VERTEX_POINT('',#514);
#516=CARTESIAN_POINT('',(0.0,17.098,0.0));
#517=DIRECTION('',(-0.0,1.0,-0.0));
#518=DIRECTION('',(0.0,0.0,1.0));
#519=AXIS2_PLACEMENT_3D('',#516,#517,#518);
#520=CIRCLE('',#519,2.1);
#521=EDGE_CURVE('n° 797',#515,#515,#520,.T.);
#522=ORIENTED_EDGE('',*,*,#521,.T.);
#523=EDGE_LOOP('',(#522));
#524=FACE_OUTER_BOUND('',#523,.T.);
#525=ORIENTED_EDGE('',*,*,#500,.F.);
#526=EDGE_LOOP('',(#525));
#527=FACE_BOUND('',#526,.T.);
#528=CARTESIAN_POINT('',(0.0,17.5,0.0));
#529=DIRECTION('',(-0.0,1.0,-0.0));
#530=DIRECTION('',(0.0,0.0,1.0));
#531=AXIS2_PLACEMENT_3D('',#528,#529,#530);
#532=CYLINDRICAL_SURFACE('',#531,2.1);
#533=ADVANCED_FACE('n° 809',(#524,#527),#532,.F.);
#534=CARTESIAN_POINT('',(0.0,17.498,2.5));
#535=VERTEX_POINT('',#534);
#536=CARTESIAN_POINT('',(0.0,17.498,0.0));
#537=DIRECTION('',(-0.0,1.0,-0.0));
#538=DIRECTION('',(0.0,0.0,1.0));
#539=AXIS2_PLACEMENT_3D('',#536,#537,#538);
#540=CIRCLE('',#539,2.5);
#541=EDGE_CURVE('n° 798',#535,#535,#540,.T.);
#542=ORIENTED_EDGE('',*,*,#541,.T.);
#543=EDGE_LOOP('',(#542));
#544=FACE_OUTER_BOUND('',#543,.T.);
#545=ORIENTED_EDGE('',*,*,#521,.F.);
#546=EDGE_LOOP('',(#545));
#547=FACE_BOUND('',#546,.T.);
#548=CARTESIAN_POINT('',(0.0,17.098,0.0));
#549=DIRECTION('',(-0.0,1.0,-0.0));
#550=DIRECTION('',(0.0,0.0,1.0));
#551=AXIS2_PLACEMENT_3D('',#548,#549,#550);
#552=CONICAL_SURFACE('',#551,2.1,0.7853981634);
#553=ADVANCED_FACE('n° 814',(#544,#547),#552,.F.);
#554=ORIENTED_EDGE('',*,*,#34,.T.);
#555=EDGE_LOOP('',(#554));
#556=FACE_OUTER_BOUND('',#555,.T.);
#557=ORIENTED_EDGE('',*,*,#541,.F.);
#558=EDGE_LOOP('',(#557));
#559=FACE_BOUND('',#558,.T.);
#560=CARTESIAN_POINT('',(0.0,17.5,0.0));
#561=DIRECTION('',(-0.0,1.0,-0.0));
#562=DIRECTION('',(0.0,0.0,1.0));
#563=AXIS2_PLACEMENT_3D('',#560,#561,#562);
#564=CYLINDRICAL_SURFACE('',#563,2.5);
#565=ADVANCED_FACE('n° 819',(#556,#559),#564,.F.);
#566=ORIENTED_EDGE('',*,*,#431,.F.);
#567=EDGE_LOOP('',(#566));
#568=FACE_OUTER_BOUND('',#567,.T.);
#569=ORIENTED_EDGE('',*,*,#363,.F.);
#570=EDGE_LOOP('',(#569));
#571=FACE_BOUND('',#570,.T.);
#572=CARTESIAN_POINT('',(0.0,-17.9,0.0));
#573=DIRECTION('',(0.0,-1.0,0.0));
#574=DIRECTION('',(0.0,-0.0,-1.0));
#575=AXIS2_PLACEMENT_3D('',#572,#573,#574);
#576=TOROIDAL_SURFACE('',#575,2.7,0.4);
#577=ADVANCED_FACE('n° 867',(#568,#571),#576,.F.);
#578=CLOSED_SHELL('Verrundung1',(
    #43,#97,#142,#187,#232,#277,#313,#330,#355,#375,
    #403,#423,#443,#463,#483,#492,#513,#533,#553,#565,
    #577));
#579=MANIFOLD_SOLID_BREP('Verrundung1',#578);
#580=COLOUR_RGB('',0.83529,0.91765,0.95686);
#581=FILL_AREA_STYLE_COLOUR('',#580);
#582=FILL_AREA_STYLE('',(#581));
#583=SURFACE_STYLE_FILL_AREA(#582);
#584=SURFACE_SIDE_STYLE('',(#583));
#585=SURFACE_STYLE_USAGE(.BOTH.,#584);
#586=PRESENTATION_STYLE_ASSIGNMENT((#585));
#587=STYLED_ITEM('',(#586),#579);
#588=CARTESIAN_POINT('',(0.,0.,0.));
#589=DIRECTION('',(0.,0.,1.));
#590=DIRECTION('',(1.,0.,0.));
#591=AXIS2_PLACEMENT_3D('Reference Axes',#588,#589,#590);
#592=ADVANCED_BREP_SHAPE_REPRESENTATION('',(#591,#579),#5);
#593=SHAPE_DEFINITION_REPRESENTATION(#12,#592);
#594=MECHANICAL_DESIGN_GEOMETRIC_PRESENTATION_REPRESENTATION('',(#587),#5);
ENDSEC;
END-ISO-10303-21;
