M48
;Layer_Color=9474304
;FILE_FORMAT=2:5
INCH,LZ
;TYPE=PLATED
T1F00S00C0.01181
T2F00S00C0.02756
T3F00S00C0.05200
T4F00S00C0.07874
%
T01
X0469242Y0180133
X0472969Y0177003
X0477953Y0183465
X0472835Y0196063
X0469291
X0478933Y0237496
X0478346Y0241339
X0484252Y0252756
X0470079Y0256693
X0477924Y0269685
X0485827Y0273228
X0485433Y0282677
X0528999Y0282658
X0529016Y0270866
Y024685
X052903Y0235123
X0467687Y0245669
X0465354Y0251181
X045748
X0450316Y0252212
X0450238Y0254764
X0450264Y0257367
X0453543Y0256693
X045748Y0262205
X0460143Y0264039
X0465354Y0262205
X0459026Y0275197
X0446792Y0264203
X0443307Y025748
Y0255118
X0443391Y0252446
X0442097Y0246457
X0438314Y0237886
X0427953Y0247244
X0416929Y0252756
X0419291Y0257874
X0417717Y0261417
X0404331
X0404384Y0257821
X0399213Y0252756
X0398819Y0263386
X0384646Y0264173
X0377953Y0262992
X0377165Y0258661
X0375197Y0251969
X0370866Y0251181
X0372047Y0246457
X0375531Y024649
X0379951Y0246427
X0384728Y0246457
X0385039Y0251181
X0387795Y0253543
X0390551Y0256693
X0387795Y0244094
X0391732Y0234646
X0397638
X0374016Y023189
X0367717Y0235433
X0346457Y0232677
X0348819Y0240945
X0348425Y0269291
X0347789Y0273154
X0359055Y0264961
X0372047Y0262805
X0388428Y0272744
X0388976Y0281102
X0390802Y0289651
X0383465Y029252
X0379134Y0292913
X0376164Y0294882
X0372835Y0294415
X0369738Y0297413
X0366899Y0306041
X0362992Y0308268
X0379134Y0304724
X0382371Y0310083
X0387795Y0308268
X0399606Y0298819
X0364817Y0287734
X0361024Y0288189
X0337795Y0262992
X0383071Y0215354
X0462083Y0222981
X0466142Y022559
X043899Y0269764
X0443672Y0295276
X0298819Y0276839
Y0265028
Y0241012
X0298425Y0229201
X0285039Y0248819
X0300787Y033189
X0321457Y0332283
X0324016Y0314961
X0382283Y0313386
X0383295Y0316402
X0387194Y0316402
X0390945Y0328346
X0395094Y0328197
X0398994Y0328197
X0396994Y0331802
X0393094
X0389194
X0383169Y0329174
X0376208Y0329213
X0369585Y0330466
X0369551Y0344743
X0373451
X0377351Y0344743
X0381351Y0344743
X0387795Y0348031
X0384399Y0353165
X0384226Y0360826
X0379669Y0357229
X0388833Y0357057
X0371243Y0368976
X0368679Y0368947
X0366142Y0368898
X0365551Y0344743
X0361651Y0344743
X0341339Y0368898
X0344488Y0372441
X0400994Y0331802
X0404894
X0408794
T02
X0649446Y0241732
Y0247638
Y0253543
Y0259449
Y0265354
Y027126
X0267323
Y0265354
Y0259449
Y0253543
Y0247638
Y0241732
T03
X0351594Y0329999
X0442494Y0329999
T04
X0262648Y0149291
X0632727Y0204016
X0626034Y0308346
X0267766Y0379606
M30
