G04*
G04 #@! TF.GenerationSoftware,Altium Limited,Altium Designer,21.8.1 (53)*
G04*
G04 Layer_Color=65535*
%FSLAX25Y25*%
%MOIN*%
G70*
G04*
G04 #@! TF.SameCoordinates,C51AC878-C841-4A90-9CA5-41AFAFBE50B8*
G04*
G04*
G04 #@! TF.FilePolarity,Positive*
G04*
G01*
G75*
%ADD10C,0.00984*%
%ADD11C,0.00600*%
%ADD12C,0.00394*%
%ADD13C,0.00787*%
%ADD14C,0.00591*%
%ADD15C,0.00200*%
%ADD16C,0.00500*%
%ADD17C,0.00800*%
%ADD18R,0.02657X0.02165*%
%ADD19R,0.00591X0.02362*%
D10*
X289173Y288878D02*
G03*
X289173Y288878I-492J0D01*
G01*
X322579Y243768D02*
G03*
X322579Y243768I-492J0D01*
G01*
X506240Y268110D02*
G03*
X506240Y268110I-492J0D01*
G01*
X322579Y252823D02*
G03*
X322579Y252823I-492J0D01*
G01*
X506161Y259055D02*
G03*
X506161Y259055I-492J0D01*
G01*
X309646Y289075D02*
G03*
X309646Y289075I-492J0D01*
G01*
D11*
X439332Y253918D02*
G03*
X439332Y256318I0J1200D01*
G01*
X387410Y256712D02*
G03*
X387410Y254312I0J-1200D01*
G01*
X439332Y246218D02*
X440032D01*
X439332D02*
Y253918D01*
Y256318D01*
Y264018D01*
X477232D02*
X477932D01*
Y246218D02*
Y264018D01*
X477232Y246218D02*
X477932D01*
X439332Y264018D02*
X440032D01*
X386710Y246612D02*
X387410D01*
X348810Y264412D02*
X349510D01*
X348810Y246612D02*
Y264412D01*
Y246612D02*
X349510Y246612D01*
X387410Y246612D02*
X387410Y254312D01*
X387410Y256712D02*
X387410Y254312D01*
X387410Y256712D02*
Y264412D01*
X386710D02*
X387410D01*
X345694Y321999D02*
X345694Y318899D01*
X437094Y318899D02*
X448394D01*
Y337999D02*
Y340899D01*
X345694Y340899D02*
X354894D01*
X439094D02*
X448394Y340899D01*
X345694Y318899D02*
X356894Y318899D01*
X345694Y337999D02*
Y340899D01*
X448394Y318899D02*
Y321999D01*
D12*
X369882Y216535D02*
G03*
X369882Y216535I-197J0D01*
G01*
D13*
X289272Y291437D02*
Y293602D01*
X286614Y293602D02*
X289272Y293602D01*
X302067Y293602D02*
X304724D01*
X302067Y291437D02*
X302067Y293602D01*
Y321358D02*
X304724D01*
X302067Y291437D02*
X304724D01*
X286614Y321358D02*
X289272Y321358D01*
X286614Y291437D02*
X289272Y291437D01*
X304724Y291437D02*
Y321358D01*
X286614Y291437D02*
Y321358D01*
X381890Y378405D02*
X387008D01*
X390740Y353339D02*
Y378945D01*
Y353339D02*
X404535D01*
Y378945D01*
X390740D02*
X404535D01*
X319790Y245054D02*
X319790Y247417D01*
X320577D01*
X300105Y245054D02*
Y246235D01*
X320577Y247417D02*
X320577Y245054D01*
X300105D02*
X320577D01*
X319724Y249673D02*
X319724Y252035D01*
X319724Y249673D02*
X320512D01*
X300039Y250854D02*
Y252035D01*
X320512Y249673D02*
X320512Y252035D01*
X300039D02*
X320512D01*
X508045Y264461D02*
Y266824D01*
X507257Y264461D02*
X508045D01*
X527730Y265642D02*
Y266824D01*
X507257Y264461D02*
Y266824D01*
X527730Y266824D01*
X508110Y262205D02*
X508110Y259842D01*
X507323Y262205D02*
X508110Y262205D01*
X527795Y259842D02*
Y261024D01*
X507323Y259842D02*
Y262205D01*
Y259842D02*
X527795Y259842D01*
X319790Y256472D02*
X319790Y254110D01*
X319790Y256472D02*
X320577Y256472D01*
X300105Y254110D02*
Y255291D01*
X320577Y254110D02*
X320577Y256472D01*
X300105Y254110D02*
X320577D01*
X319724Y258728D02*
Y261091D01*
Y258728D02*
X320512D01*
X300039Y259910D02*
Y261091D01*
X320512Y258728D02*
Y261091D01*
X300039D02*
X320512D01*
X507966Y255406D02*
Y257768D01*
X507178Y255406D02*
X507966Y255406D01*
X527651Y256587D02*
Y257768D01*
X507178D02*
X507178Y255406D01*
X507178Y257768D02*
X527651D01*
X508032Y253150D02*
X508032Y250787D01*
X507244Y253150D02*
X508032D01*
X527716Y251969D02*
X527716Y250787D01*
X507244D02*
X507244Y253150D01*
X507244Y250787D02*
X527716D01*
X307087Y291634D02*
X307087Y321555D01*
X325197Y291634D02*
Y321555D01*
X307087Y291634D02*
X309744D01*
X307087Y321555D02*
X309744Y321555D01*
X322539Y291634D02*
X325197D01*
X322539Y321555D02*
X325197D01*
X322539Y291634D02*
Y293799D01*
X325197Y293799D01*
X307087D02*
X309744D01*
Y291634D02*
Y293799D01*
X445542Y231953D02*
X459124Y231953D01*
X445542Y219354D02*
Y231953D01*
Y219354D02*
X459124Y219354D01*
Y231953D01*
X367618Y278740D02*
X381201D01*
X367618D02*
Y291339D01*
X381201D01*
Y278740D02*
Y291339D01*
X374016Y216929D02*
X386614D01*
Y230315D01*
X370079D02*
X386614D01*
X370079Y217717D02*
Y230315D01*
Y217717D02*
X370866Y216929D01*
X374016D01*
D14*
X446034Y293504D02*
X447609D01*
Y280118D02*
Y293504D01*
X446034Y280118D02*
X447609D01*
X440522D02*
X442097D01*
X440522D02*
Y293504D01*
X442097D01*
X440522Y286811D02*
X447609D01*
X429528Y237469D02*
X431102D01*
X429528D02*
Y250854D01*
X431102Y250854D01*
X435039D02*
X436614Y250854D01*
Y237469D02*
Y250854D01*
X435039Y237469D02*
X436614D01*
X429528Y244161D02*
X436614D01*
X436198Y236385D02*
X436198Y235598D01*
X436198Y236385D02*
X444072D01*
Y235598D02*
Y236385D01*
Y232448D02*
Y233235D01*
X436198Y232448D02*
X444072D01*
X436198D02*
X436198Y233235D01*
X394882Y246732D02*
X395638D01*
X394882Y236732D02*
X394882Y246732D01*
X394882Y236732D02*
X395638Y236732D01*
X399638D02*
X400394D01*
Y246732D01*
X399638D02*
X400394D01*
X394882Y241732D02*
X400394Y241732D01*
X390158Y266535D02*
X397244D01*
X390158Y273228D02*
X391732D01*
X390158Y259842D02*
Y273228D01*
Y259842D02*
X391732Y259842D01*
X395669D02*
X397244Y259842D01*
Y273228D01*
X395669D02*
X397244D01*
X299705Y226445D02*
Y227626D01*
Y226445D02*
X310728Y226445D01*
Y227626D01*
Y231957D02*
X310728Y230776D01*
X299705Y231957D02*
X310728D01*
X299705Y230776D02*
Y231957D01*
X305217Y226445D02*
Y231957D01*
X527756Y284252D02*
X527756Y285433D01*
X516732D02*
X527756D01*
X516732Y284252D02*
X516732Y285433D01*
Y279921D02*
Y281102D01*
Y279921D02*
X527756Y279921D01*
Y281102D01*
X522244Y279921D02*
Y285433D01*
X299902Y274083D02*
Y275264D01*
Y274083D02*
X310925D01*
Y275264D01*
Y278413D02*
Y279594D01*
X299902D02*
X310925D01*
X299902Y278413D02*
Y279594D01*
X305413Y274083D02*
Y279594D01*
X527756Y236614D02*
Y237795D01*
X516732Y237795D02*
X527756Y237795D01*
X516732Y237795D02*
X516732Y236614D01*
Y232283D02*
Y233465D01*
Y232283D02*
X527756D01*
Y233465D01*
X522244Y232283D02*
Y237795D01*
X338976Y266142D02*
X346063D01*
X338976Y272835D02*
X340551D01*
X338976Y259449D02*
Y272835D01*
Y259449D02*
X340551Y259449D01*
X344488D02*
X346063Y259449D01*
Y272835D01*
X344488D02*
X346063D01*
X480680Y244488D02*
X487766D01*
X486191Y237795D02*
X487766D01*
Y251181D01*
X486191Y251181D02*
X487766Y251181D01*
X480680D02*
X482254Y251181D01*
X480680Y237795D02*
Y251181D01*
Y237795D02*
X482254D01*
X349606Y224409D02*
Y231496D01*
X342913Y224409D02*
Y225984D01*
Y224409D02*
X356299D01*
Y225984D01*
Y229921D02*
Y231496D01*
X342913D02*
X356299D01*
X342913Y229921D02*
Y231496D01*
X477136Y279134D02*
Y286221D01*
X483829Y284646D02*
Y286221D01*
X470443D02*
X483829D01*
X470443Y284646D02*
Y286221D01*
Y279134D02*
Y280709D01*
Y279134D02*
X483829D01*
Y280709D01*
X481231Y235433D02*
X481231Y236221D01*
X473357D02*
X481231D01*
X473357Y235433D02*
Y236221D01*
Y232283D02*
Y233071D01*
Y232283D02*
X481231D01*
X481231Y233071D02*
X481231Y232283D01*
X390709Y277559D02*
X390709Y278346D01*
X382835D02*
X390709D01*
X382835Y277559D02*
Y278346D01*
Y274410D02*
Y275197D01*
Y274410D02*
X390709D01*
X390709Y275197D02*
X390709Y274410D01*
X305315Y262272D02*
Y267783D01*
X300315Y267028D02*
Y267783D01*
X310315D01*
Y267028D02*
Y267783D01*
Y262272D02*
Y263028D01*
X300315Y262272D02*
X310315D01*
X300315Y263028D02*
X300315Y262272D01*
X396063Y344488D02*
Y351575D01*
X389370Y344488D02*
Y346063D01*
Y344488D02*
X402756D01*
X402756Y346063D01*
X402756Y351575D02*
X402756Y350000D01*
X389370Y351575D02*
X402756D01*
X389370Y350000D02*
Y351575D01*
X372047Y372047D02*
X379134D01*
X377559Y365354D02*
X379134D01*
Y378740D01*
X377559D02*
X379134D01*
X372047D02*
X373622D01*
X372047Y365354D02*
Y378740D01*
Y365354D02*
X373622D01*
X345512Y274410D02*
X345512Y275197D01*
X345512Y274410D02*
X353386D01*
Y275197D01*
Y277559D02*
Y278346D01*
X345512D02*
X353386D01*
X345512D02*
X345512Y277559D01*
X381102Y231496D02*
X381102Y232283D01*
X381102Y231496D02*
X388976D01*
Y232283D01*
Y234646D02*
Y235433D01*
X381102D02*
X388976D01*
X381102D02*
X381102Y234646D01*
X445640Y278346D02*
X445640Y279134D01*
X437766D02*
X445640D01*
X437766Y278346D02*
Y279134D01*
Y275197D02*
Y275984D01*
Y275197D02*
X445640D01*
X445640Y275984D02*
X445640Y275197D01*
X305315Y232350D02*
Y237862D01*
X300315Y237106D02*
X300315Y237862D01*
X310315D01*
Y237106D02*
Y237862D01*
Y232350D02*
Y233106D01*
X300315Y232350D02*
X310315D01*
X300315Y233106D02*
X300315Y232350D01*
X522520Y274016D02*
Y279528D01*
X527520Y274016D02*
Y274772D01*
X517520Y274016D02*
X527520D01*
X517520D02*
Y274772D01*
Y278772D02*
Y279528D01*
X527520D01*
Y278772D02*
Y279528D01*
X362992Y286378D02*
X363779Y286378D01*
X362992Y278504D02*
Y286378D01*
Y278504D02*
X363779D01*
X366142D02*
X366929D01*
Y286378D01*
X366142Y286378D02*
X366929Y286378D01*
X462963Y224252D02*
X463750D01*
Y232126D01*
X462963D02*
X463750D01*
X459813D02*
X460601D01*
X459813Y224252D02*
Y232126D01*
Y224252D02*
X460601D01*
X305315Y238256D02*
X305315Y243768D01*
X300315Y243012D02*
Y243768D01*
X310315D01*
X310315Y243012D01*
X310315Y238256D02*
Y239012D01*
X300315Y238256D02*
X310315D01*
X300315D02*
Y239012D01*
X522441Y273622D02*
X522441Y268110D01*
X527441Y268866D02*
X527441Y268110D01*
X517441D02*
X527441D01*
X517441Y268866D02*
X517441Y268110D01*
X517441Y272866D02*
Y273622D01*
X527441D01*
Y272866D02*
Y273622D01*
X305315Y273689D02*
X305315Y268177D01*
X300315Y272933D02*
Y273689D01*
X310315Y273689D01*
Y272933D02*
Y273689D01*
Y268177D02*
Y268933D01*
X300315Y268177D02*
X310315D01*
X300315D02*
Y268933D01*
X522638Y238189D02*
Y243701D01*
X527638Y238189D02*
Y238945D01*
X517638Y238189D02*
X527638D01*
X517638Y238945D02*
X517638Y238189D01*
X517638Y243701D02*
X517638Y242945D01*
X517638Y243701D02*
X527638D01*
X527638Y242945D01*
X522638Y244094D02*
Y249606D01*
X527638Y244850D02*
X527638Y244094D01*
X517638D02*
X527638D01*
X517638D02*
Y244850D01*
X517638Y248850D02*
X517638Y249606D01*
X527638D01*
Y248850D02*
Y249606D01*
X298228Y330709D02*
X298228Y325197D01*
X293228Y329953D02*
Y330709D01*
X303228D01*
Y329953D02*
Y330709D01*
Y325197D02*
Y325953D01*
X293228Y325197D02*
X303228D01*
X293228Y325953D02*
X293228Y325197D01*
X318701Y330709D02*
X318701Y325197D01*
X313701Y329953D02*
Y330709D01*
X323701D01*
Y329953D02*
Y330709D01*
X323701Y325953D02*
X323701Y325197D01*
X313701Y325197D02*
X323701Y325197D01*
X313701Y325197D02*
X313701Y325953D01*
X386146Y280933D02*
X386646D01*
Y289933D01*
X386146D02*
X386646D01*
X382646D02*
X383146D01*
X382646Y280933D02*
Y289933D01*
Y280933D02*
X383146D01*
X382646Y285433D02*
X386646D01*
X440115Y230189D02*
X440615Y230189D01*
X440115Y221189D02*
Y230189D01*
Y221189D02*
X440615Y221189D01*
X443615D02*
X444115Y221189D01*
Y230189D01*
X443615Y230189D02*
X444115Y230189D01*
X440115Y225689D02*
X444115D01*
X356142Y235433D02*
X356142Y236221D01*
X348268D02*
X356142D01*
X348268Y235433D02*
Y236221D01*
Y232283D02*
Y233071D01*
Y232283D02*
X356142D01*
X356142Y233071D02*
X356142Y232283D01*
X470601Y274410D02*
X470601Y275197D01*
X470601Y274410D02*
X478475D01*
Y275197D01*
Y277559D02*
Y278346D01*
X470601D02*
X478475D01*
X470601D02*
X470601Y277559D01*
X388976Y241732D02*
X394488D01*
X393732Y246732D02*
X394488Y246732D01*
Y236732D02*
Y246732D01*
X393732Y236732D02*
X394488Y236732D01*
X388976Y236732D02*
X389732Y236732D01*
X388976Y236732D02*
Y246732D01*
X389732D01*
X387795Y223622D02*
X394882D01*
X393307Y216929D02*
X394882D01*
Y230315D01*
X393307D02*
X394882D01*
X387795D02*
X389370D01*
X387795Y216929D02*
Y230315D01*
Y216929D02*
X389370D01*
X361811Y223622D02*
X368898D01*
X361811Y230315D02*
X363386D01*
X361811Y216929D02*
Y230315D01*
Y216929D02*
X363386D01*
X367323D02*
X368898D01*
Y230315D01*
X367323D02*
X368898D01*
D15*
X352150Y361673D02*
X354150D01*
X352150Y366673D02*
X354150D01*
X358650Y367673D02*
X359650D01*
Y366673D02*
Y367673D01*
Y360673D02*
Y361673D01*
X358650Y360673D02*
X359650D01*
X346650D02*
X347650D01*
X346650D02*
Y361673D01*
Y367673D02*
X347650D01*
X346650Y366673D02*
Y367673D01*
X352150Y369153D02*
X354150D01*
X352150Y374153D02*
X354150D01*
X358650Y375153D02*
X359650D01*
Y374153D02*
Y375153D01*
Y368154D02*
Y369153D01*
X358650Y368154D02*
X359650D01*
X346650D02*
X347650D01*
X346650D02*
Y369153D01*
Y375153D02*
X347650D01*
X346650Y374153D02*
Y375153D01*
D16*
X351594Y329999D02*
X442494Y329999D01*
X397024Y328250D02*
X397024Y331400D01*
D17*
X633390Y245682D02*
Y247015D01*
Y246348D01*
X637389D01*
Y245682D01*
Y247015D01*
Y249014D02*
X633390D01*
X637389Y251680D01*
X633390D01*
X637389Y253013D02*
X633390D01*
Y255012D01*
X634057Y255679D01*
X635390D01*
X636056Y255012D01*
Y253013D01*
X633390Y257012D02*
X636723D01*
X637389Y257678D01*
Y259011D01*
X636723Y259677D01*
X633390D01*
Y261010D02*
Y263676D01*
Y262343D01*
X637389D01*
X634057Y267675D02*
X633390Y267008D01*
Y265675D01*
X634057Y265009D01*
X634723D01*
X635390Y265675D01*
Y267008D01*
X636056Y267675D01*
X636723D01*
X637389Y267008D01*
Y265675D01*
X636723Y265009D01*
X283145Y268854D02*
Y270187D01*
X282479Y270853D01*
X279813D01*
X279147Y270187D01*
Y268854D01*
X279813Y268188D01*
X282479D01*
X283145Y268854D01*
Y266855D02*
X279813D01*
X279147Y266188D01*
Y264856D01*
X279813Y264189D01*
X283145D01*
Y262856D02*
Y260190D01*
Y261523D01*
X279147D01*
Y258857D02*
X283145D01*
Y256858D01*
X282479Y256192D01*
X281146D01*
X280479Y256858D01*
Y258857D01*
X283145Y254859D02*
X279813D01*
X279147Y254192D01*
Y252859D01*
X279813Y252193D01*
X283145D01*
Y250860D02*
Y248194D01*
Y249527D01*
X279147D01*
X282479Y244196D02*
X283145Y244862D01*
Y246195D01*
X282479Y246861D01*
X281812D01*
X281146Y246195D01*
Y244862D01*
X280479Y244196D01*
X279813D01*
X279147Y244862D01*
Y246195D01*
X279813Y246861D01*
D18*
X287944Y292520D02*
D03*
X303395Y292519D02*
D03*
X323867Y292716D02*
D03*
X308415Y292717D02*
D03*
D19*
X320282Y246235D02*
D03*
X320216Y250854D02*
D03*
X507552Y265642D02*
D03*
X507618Y261024D02*
D03*
X320282Y255291D02*
D03*
X320216Y259910D02*
D03*
X507474Y256587D02*
D03*
X507539Y251969D02*
D03*
M02*
