G04*
G04 #@! TF.GenerationSoftware,Altium Limited,Altium Designer,21.8.1 (53)*
G04*
G04 Layer_Physical_Order=1*
G04 Layer_Color=255*
%FSLAX25Y25*%
%MOIN*%
G70*
G04*
G04 #@! TF.SameCoordinates,C51AC878-C841-4A90-9CA5-41AFAFBE50B8*
G04*
G04*
G04 #@! TF.FilePolarity,Positive*
G04*
G01*
G75*
%ADD17C,0.00800*%
%ADD20R,0.09646X0.10039*%
%ADD21R,0.05512X0.05118*%
%ADD22R,0.02362X0.02520*%
%ADD23R,0.01400X0.05800*%
%ADD24R,0.03740X0.03347*%
%ADD25R,0.03543X0.03937*%
%ADD26R,0.05118X0.05512*%
%ADD27R,0.05118X0.12795*%
%ADD28R,0.05118X0.03740*%
%ADD29R,0.04000X0.05500*%
%ADD30R,0.03347X0.03740*%
%ADD31R,0.07087X0.04842*%
%ADD32R,0.02520X0.02362*%
%ADD33R,0.01772X0.03543*%
%ADD34R,0.02362X0.02953*%
%ADD35R,0.05512X0.04724*%
%ADD36R,0.05100X0.13400*%
%ADD37R,0.02800X0.08200*%
%ADD60C,0.02000*%
%ADD61C,0.01200*%
%ADD62C,0.01000*%
%ADD63C,0.05000*%
%ADD64O,0.06299X0.04331*%
%ADD65C,0.03937*%
%ADD66C,0.09843*%
%ADD67C,0.07800*%
%ADD68C,0.02362*%
G36*
X382137Y343861D02*
X382052Y343780D01*
X381977Y343696D01*
X381911Y343609D01*
X381854Y343519D01*
X381805Y343425D01*
X381765Y343327D01*
X381734Y343227D01*
X381712Y343122D01*
X381699Y343015D01*
X381695Y342904D01*
X380894Y342945D01*
X380890Y343054D01*
X380878Y343162D01*
X380858Y343267D01*
X380829Y343369D01*
X380792Y343470D01*
X380747Y343568D01*
X380694Y343665D01*
X380632Y343759D01*
X380563Y343850D01*
X380485Y343940D01*
X382137Y343861D01*
D02*
G37*
G36*
X374236D02*
X374152Y343780D01*
X374077Y343696D01*
X374011Y343609D01*
X373954Y343519D01*
X373905Y343425D01*
X373865Y343327D01*
X373834Y343227D01*
X373812Y343122D01*
X373799Y343015D01*
X373795Y342904D01*
X372994Y342945D01*
X372990Y343054D01*
X372978Y343162D01*
X372958Y343267D01*
X372929Y343369D01*
X372892Y343470D01*
X372847Y343568D01*
X372794Y343665D01*
X372732Y343759D01*
X372663Y343850D01*
X372585Y343940D01*
X374236Y343861D01*
D02*
G37*
G36*
X370337D02*
X370252Y343780D01*
X370177Y343696D01*
X370111Y343609D01*
X370054Y343519D01*
X370005Y343425D01*
X369965Y343327D01*
X369934Y343227D01*
X369912Y343122D01*
X369899Y343015D01*
X369895Y342904D01*
X369094Y342945D01*
X369090Y343054D01*
X369078Y343162D01*
X369058Y343267D01*
X369029Y343369D01*
X368992Y343470D01*
X368947Y343568D01*
X368894Y343665D01*
X368832Y343759D01*
X368763Y343850D01*
X368685Y343940D01*
X370337Y343861D01*
D02*
G37*
G36*
X362437D02*
X362352Y343780D01*
X362277Y343696D01*
X362211Y343609D01*
X362154Y343519D01*
X362105Y343425D01*
X362065Y343327D01*
X362034Y343227D01*
X362012Y343122D01*
X361999Y343015D01*
X361995Y342904D01*
X361194Y342945D01*
X361190Y343054D01*
X361178Y343162D01*
X361158Y343267D01*
X361129Y343369D01*
X361092Y343470D01*
X361047Y343568D01*
X360994Y343665D01*
X360932Y343759D01*
X360863Y343850D01*
X360785Y343940D01*
X362437Y343861D01*
D02*
G37*
G36*
X378136Y343861D02*
X378052Y343780D01*
X377977Y343696D01*
X377911Y343609D01*
X377854Y343519D01*
X377805Y343425D01*
X377765Y343327D01*
X377734Y343227D01*
X377712Y343122D01*
X377699Y343015D01*
X377695Y342904D01*
X376894Y342945D01*
X376890Y343054D01*
X376878Y343162D01*
X376858Y343267D01*
X376829Y343369D01*
X376792Y343470D01*
X376747Y343568D01*
X376694Y343665D01*
X376632Y343759D01*
X376563Y343850D01*
X376485Y343940D01*
X378136Y343861D01*
D02*
G37*
G36*
X366336D02*
X366252Y343780D01*
X366177Y343696D01*
X366111Y343609D01*
X366054Y343519D01*
X366005Y343425D01*
X365965Y343327D01*
X365934Y343227D01*
X365912Y343122D01*
X365899Y343015D01*
X365895Y342904D01*
X365094Y342945D01*
X365090Y343054D01*
X365078Y343162D01*
X365058Y343267D01*
X365029Y343369D01*
X364992Y343470D01*
X364947Y343568D01*
X364894Y343665D01*
X364832Y343759D01*
X364763Y343850D01*
X364685Y343940D01*
X366336Y343861D01*
D02*
G37*
G36*
X381698Y342433D02*
X381711Y342295D01*
X381731Y342173D01*
X381758Y342068D01*
X381795Y341978D01*
X381838Y341905D01*
X381891Y341848D01*
X381950Y341808D01*
X382018Y341783D01*
X382095Y341775D01*
X380494D01*
X380571Y341783D01*
X380639Y341808D01*
X380698Y341848D01*
X380750Y341905D01*
X380795Y341978D01*
X380831Y342068D01*
X380858Y342173D01*
X380878Y342295D01*
X380890Y342433D01*
X380894Y342587D01*
X381695D01*
X381698Y342433D01*
D02*
G37*
G36*
X373798D02*
X373811Y342295D01*
X373831Y342173D01*
X373858Y342068D01*
X373895Y341978D01*
X373938Y341905D01*
X373991Y341848D01*
X374050Y341808D01*
X374118Y341783D01*
X374195Y341775D01*
X372594D01*
X372671Y341783D01*
X372739Y341808D01*
X372798Y341848D01*
X372850Y341905D01*
X372895Y341978D01*
X372931Y342068D01*
X372958Y342173D01*
X372978Y342295D01*
X372990Y342433D01*
X372994Y342587D01*
X373795D01*
X373798Y342433D01*
D02*
G37*
G36*
X369899D02*
X369911Y342295D01*
X369931Y342173D01*
X369958Y342068D01*
X369994Y341978D01*
X370039Y341905D01*
X370091Y341848D01*
X370150Y341808D01*
X370218Y341783D01*
X370294Y341775D01*
X368694D01*
X368771Y341783D01*
X368839Y341808D01*
X368899Y341848D01*
X368951Y341905D01*
X368994Y341978D01*
X369030Y342068D01*
X369058Y342173D01*
X369078Y342295D01*
X369091Y342433D01*
X369094Y342587D01*
X369895D01*
X369899Y342433D01*
D02*
G37*
G36*
X361999D02*
X362011Y342295D01*
X362031Y342173D01*
X362058Y342068D01*
X362094Y341978D01*
X362139Y341905D01*
X362191Y341848D01*
X362250Y341808D01*
X362318Y341783D01*
X362394Y341775D01*
X360794D01*
X360871Y341783D01*
X360939Y341808D01*
X360999Y341848D01*
X361051Y341905D01*
X361094Y341978D01*
X361130Y342068D01*
X361158Y342173D01*
X361178Y342295D01*
X361191Y342433D01*
X361194Y342587D01*
X361995D01*
X361999Y342433D01*
D02*
G37*
G36*
X377698Y342433D02*
X377711Y342295D01*
X377730Y342173D01*
X377759Y342068D01*
X377795Y341978D01*
X377838Y341905D01*
X377890Y341848D01*
X377951Y341808D01*
X378018Y341783D01*
X378095Y341775D01*
X376495D01*
X376571Y341783D01*
X376639Y341808D01*
X376698Y341848D01*
X376750Y341905D01*
X376795Y341978D01*
X376831Y342068D01*
X376858Y342173D01*
X376878Y342295D01*
X376890Y342433D01*
X376894Y342587D01*
X377695D01*
X377698Y342433D01*
D02*
G37*
G36*
X365898D02*
X365911Y342295D01*
X365931Y342173D01*
X365958Y342068D01*
X365995Y341978D01*
X366038Y341905D01*
X366090Y341848D01*
X366150Y341808D01*
X366218Y341783D01*
X366295Y341775D01*
X364694D01*
X364771Y341783D01*
X364839Y341808D01*
X364898Y341848D01*
X364950Y341905D01*
X364995Y341978D01*
X365031Y342068D01*
X365058Y342173D01*
X365078Y342295D01*
X365090Y342433D01*
X365094Y342587D01*
X365895D01*
X365898Y342433D01*
D02*
G37*
G36*
X377704Y333619D02*
X377702Y333606D01*
X377700Y333585D01*
X377696Y333415D01*
X377695Y333199D01*
X376894D01*
X376883Y333623D01*
X377707D01*
X377704Y333619D01*
D02*
G37*
G36*
X382018Y333615D02*
X381950Y333591D01*
X381891Y333550D01*
X381838Y333493D01*
X381795Y333420D01*
X381758Y333331D01*
X381731Y333225D01*
X381711Y333103D01*
X381698Y332965D01*
X381695Y332811D01*
X380894D01*
X380890Y332965D01*
X380878Y333103D01*
X380858Y333225D01*
X380831Y333331D01*
X380795Y333420D01*
X380750Y333493D01*
X380698Y333550D01*
X380639Y333591D01*
X380571Y333615D01*
X380494Y333623D01*
X382095D01*
X382018Y333615D01*
D02*
G37*
G36*
X322202Y331355D02*
X322130Y331267D01*
X322066Y331176D01*
X322010Y331083D01*
X321963Y330987D01*
X321925Y330888D01*
X321895Y330786D01*
X321874Y330681D01*
X321861Y330574D01*
X321859Y330523D01*
X321861Y330457D01*
X321873Y330318D01*
X321893Y330197D01*
X321921Y330091D01*
X321957Y330002D01*
X322001Y329929D01*
X322053Y329872D01*
X322113Y329831D01*
X322181Y329807D01*
X322257Y329799D01*
X320657D01*
X320733Y329807D01*
X320801Y329831D01*
X320861Y329872D01*
X320913Y329929D01*
X320957Y330002D01*
X320993Y330091D01*
X321021Y330197D01*
X321041Y330318D01*
X321053Y330457D01*
X321054Y330523D01*
X321052Y330574D01*
X321040Y330681D01*
X321018Y330786D01*
X320988Y330888D01*
X320950Y330987D01*
X320903Y331083D01*
X320848Y331176D01*
X320784Y331267D01*
X320711Y331355D01*
X320630Y331440D01*
X322284D01*
X322202Y331355D01*
D02*
G37*
G36*
X301533Y330961D02*
X301461Y330873D01*
X301396Y330783D01*
X301341Y330689D01*
X301294Y330593D01*
X301256Y330494D01*
X301226Y330392D01*
X301207Y330298D01*
X301223Y330197D01*
X301251Y330091D01*
X301287Y330002D01*
X301331Y329929D01*
X301383Y329872D01*
X301443Y329831D01*
X301511Y329807D01*
X301587Y329799D01*
X299987D01*
X300063Y329807D01*
X300131Y329831D01*
X300191Y329872D01*
X300243Y329929D01*
X300287Y330002D01*
X300323Y330091D01*
X300351Y330197D01*
X300368Y330298D01*
X300349Y330392D01*
X300319Y330494D01*
X300281Y330593D01*
X300234Y330689D01*
X300178Y330783D01*
X300114Y330873D01*
X300042Y330961D01*
X299961Y331046D01*
X301614D01*
X301533Y330961D01*
D02*
G37*
G36*
X370514Y331212D02*
X370602Y331139D01*
X370692Y331076D01*
X370786Y331020D01*
X370882Y330973D01*
X370981Y330935D01*
X371083Y330905D01*
X371188Y330883D01*
X371295Y330871D01*
X371405Y330866D01*
Y330066D01*
X371295Y330062D01*
X371188Y330049D01*
X371083Y330028D01*
X370981Y329998D01*
X370882Y329960D01*
X370786Y329913D01*
X370692Y329857D01*
X370602Y329793D01*
X370514Y329721D01*
X370429Y329640D01*
Y331293D01*
X370514Y331212D01*
D02*
G37*
G36*
X377136Y329959D02*
X377224Y329887D01*
X377315Y329822D01*
X377409Y329767D01*
X377505Y329720D01*
X377604Y329682D01*
X377706Y329652D01*
X377810Y329630D01*
X377918Y329618D01*
X378028Y329613D01*
Y328813D01*
X377918Y328809D01*
X377810Y328796D01*
X377706Y328775D01*
X377604Y328745D01*
X377505Y328707D01*
X377409Y328660D01*
X377315Y328604D01*
X377224Y328540D01*
X377136Y328468D01*
X377051Y328387D01*
Y330040D01*
X377136Y329959D01*
D02*
G37*
G36*
X380338Y326987D02*
X380348Y326859D01*
X380365Y326745D01*
X380389Y326647D01*
X380420Y326564D01*
X380458Y326496D01*
X380503Y326443D01*
X380554Y326405D01*
X380612Y326383D01*
X380678Y326375D01*
X379191D01*
X379256Y326383D01*
X379315Y326405D01*
X379366Y326443D01*
X379411Y326496D01*
X379449Y326564D01*
X379479Y326647D01*
X379503Y326745D01*
X379521Y326859D01*
X379531Y326987D01*
X379534Y327131D01*
X380334D01*
X380338Y326987D01*
D02*
G37*
G36*
X316866Y326099D02*
X316798Y326074D01*
X316738Y326034D01*
X316686Y325977D01*
X316642Y325904D01*
X316606Y325814D01*
X316578Y325709D01*
X316558Y325587D01*
X316546Y325449D01*
X316542Y325295D01*
X315742D01*
X315738Y325449D01*
X315726Y325587D01*
X315706Y325709D01*
X315678Y325814D01*
X315642Y325904D01*
X315598Y325977D01*
X315546Y326034D01*
X315486Y326074D01*
X315418Y326099D01*
X315342Y326107D01*
X316942D01*
X316866Y326099D01*
D02*
G37*
G36*
X296393D02*
X296325Y326074D01*
X296265Y326034D01*
X296213Y325977D01*
X296169Y325904D01*
X296133Y325814D01*
X296105Y325709D01*
X296085Y325587D01*
X296073Y325449D01*
X296069Y325295D01*
X295269D01*
X295265Y325449D01*
X295253Y325587D01*
X295233Y325709D01*
X295205Y325814D01*
X295169Y325904D01*
X295125Y325977D01*
X295073Y326034D01*
X295013Y326074D01*
X294945Y326099D01*
X294869Y326107D01*
X296469D01*
X296393Y326099D01*
D02*
G37*
G36*
X316546Y324160D02*
X316558Y324024D01*
X316578Y323904D01*
X316606Y323800D01*
X316642Y323712D01*
X316686Y323640D01*
X316738Y323584D01*
X316798Y323544D01*
X316866Y323520D01*
X316942Y323512D01*
X315342D01*
X315418Y323520D01*
X315486Y323544D01*
X315546Y323584D01*
X315598Y323640D01*
X315642Y323712D01*
X315678Y323800D01*
X315706Y323904D01*
X315726Y324024D01*
X315738Y324160D01*
X315742Y324312D01*
X316542D01*
X316546Y324160D01*
D02*
G37*
G36*
X296073Y323963D02*
X296085Y323827D01*
X296105Y323707D01*
X296133Y323603D01*
X296169Y323515D01*
X296213Y323443D01*
X296265Y323387D01*
X296325Y323347D01*
X296393Y323323D01*
X296469Y323315D01*
X294869D01*
X294945Y323323D01*
X295013Y323347D01*
X295073Y323387D01*
X295125Y323443D01*
X295169Y323515D01*
X295205Y323603D01*
X295233Y323707D01*
X295253Y323827D01*
X295265Y323963D01*
X295269Y324115D01*
X296069D01*
X296073Y323963D01*
D02*
G37*
G36*
X358206Y320368D02*
X358198Y320444D01*
X358174Y320512D01*
X358134Y320572D01*
X358078Y320624D01*
X358006Y320668D01*
X357918Y320704D01*
X357814Y320732D01*
X357694Y320752D01*
X357558Y320764D01*
X357406Y320768D01*
Y321568D01*
X357558Y321572D01*
X357694Y321584D01*
X357814Y321604D01*
X357918Y321632D01*
X358006Y321668D01*
X358078Y321712D01*
X358134Y321764D01*
X358174Y321824D01*
X358198Y321892D01*
X358206Y321968D01*
Y320368D01*
D02*
G37*
G36*
X320949Y319228D02*
X320973Y319160D01*
X321014Y319100D01*
X321071Y319048D01*
X321144Y319004D01*
X321233Y318968D01*
X321338Y318940D01*
X321460Y318920D01*
X321598Y318908D01*
X321753Y318904D01*
Y318104D01*
X321598Y318100D01*
X321460Y318088D01*
X321338Y318068D01*
X321233Y318040D01*
X321144Y318004D01*
X321071Y317960D01*
X321014Y317908D01*
X320973Y317848D01*
X320949Y317780D01*
X320941Y317704D01*
Y319304D01*
X320949Y319228D01*
D02*
G37*
G36*
X371999Y318217D02*
X371977Y318198D01*
X371958Y318165D01*
X371941Y318121D01*
X371927Y318063D01*
X371915Y317992D01*
X371906Y317909D01*
X371896Y317704D01*
X371894Y317582D01*
X370894D01*
X370893Y317704D01*
X370874Y317992D01*
X370862Y318063D01*
X370848Y318121D01*
X370831Y318165D01*
X370812Y318198D01*
X370790Y318217D01*
X370765Y318223D01*
X372024D01*
X371999Y318217D01*
D02*
G37*
G36*
X376050Y318216D02*
X376017Y318195D01*
X375989Y318160D01*
X375964Y318110D01*
X375942Y318047D01*
X375925Y317970D01*
X375912Y317878D01*
X375902Y317773D01*
X375894Y317519D01*
X374894D01*
X374892Y317653D01*
X374877Y317878D01*
X374864Y317970D01*
X374846Y318047D01*
X374825Y318110D01*
X374800Y318160D01*
X374771Y318195D01*
X374739Y318216D01*
X374702Y318223D01*
X376087D01*
X376050Y318216D01*
D02*
G37*
G36*
X368044Y318215D02*
X367976Y318191D01*
X367917Y318150D01*
X367865Y318094D01*
X367822Y318021D01*
X367786Y317932D01*
X367758Y317827D01*
X367739Y317706D01*
X367727Y317569D01*
X367723Y317415D01*
X366923D01*
X366919Y317569D01*
X366907Y317706D01*
X366887Y317827D01*
X366860Y317932D01*
X366824Y318021D01*
X366780Y318094D01*
X366729Y318150D01*
X366669Y318191D01*
X366602Y318215D01*
X366527Y318223D01*
X368119D01*
X368044Y318215D01*
D02*
G37*
G36*
X364318Y318215D02*
X364250Y318191D01*
X364191Y318150D01*
X364139Y318093D01*
X364094Y318020D01*
X364058Y317931D01*
X364031Y317825D01*
X364011Y317704D01*
X363999Y317565D01*
X363995Y317411D01*
X363194D01*
X363191Y317565D01*
X363178Y317704D01*
X363158Y317825D01*
X363130Y317931D01*
X363094Y318020D01*
X363051Y318093D01*
X362999Y318150D01*
X362938Y318191D01*
X362871Y318215D01*
X362794Y318223D01*
X364394D01*
X364318Y318215D01*
D02*
G37*
G36*
X384018Y318215D02*
X383950Y318191D01*
X383891Y318150D01*
X383839Y318093D01*
X383794Y318020D01*
X383758Y317931D01*
X383742Y317868D01*
X383763Y317797D01*
X383801Y317698D01*
X383848Y317602D01*
X383904Y317509D01*
X383968Y317418D01*
X384040Y317330D01*
X384121Y317245D01*
X382468D01*
X382549Y317330D01*
X382621Y317418D01*
X382685Y317509D01*
X382741Y317602D01*
X382788Y317698D01*
X382826Y317797D01*
X382847Y317868D01*
X382831Y317931D01*
X382794Y318020D01*
X382751Y318093D01*
X382698Y318150D01*
X382639Y318191D01*
X382571Y318215D01*
X382494Y318223D01*
X384095D01*
X384018Y318215D01*
D02*
G37*
G36*
X387918Y318215D02*
X387850Y318191D01*
X387790Y318150D01*
X387738Y318093D01*
X387695Y318020D01*
X387659Y317931D01*
X387642Y317868D01*
X387663Y317797D01*
X387701Y317698D01*
X387748Y317602D01*
X387804Y317509D01*
X387868Y317418D01*
X387940Y317330D01*
X388021Y317245D01*
X386368D01*
X386449Y317330D01*
X386521Y317418D01*
X386585Y317509D01*
X386641Y317602D01*
X386688Y317698D01*
X386726Y317797D01*
X386747Y317868D01*
X386731Y317931D01*
X386695Y318020D01*
X386650Y318093D01*
X386598Y318150D01*
X386539Y318191D01*
X386471Y318215D01*
X386395Y318223D01*
X387995D01*
X387918Y318215D01*
D02*
G37*
G36*
X461811Y276722D02*
X461423Y276334D01*
X460880Y276421D01*
X460875Y276432D01*
X460261Y277046D01*
X459460Y277378D01*
X458592D01*
X457791Y277046D01*
X457177Y276432D01*
X456845Y275631D01*
Y275295D01*
X456826Y275209D01*
X456824Y275128D01*
X456820Y275089D01*
X456814Y275058D01*
X456808Y275032D01*
X456801Y275011D01*
X456792Y274992D01*
X456783Y274974D01*
X456779Y274968D01*
X456323Y274513D01*
X456013Y274049D01*
X455908Y273518D01*
X451047D01*
Y296050D01*
X451047Y296050D01*
X451034Y296115D01*
Y296170D01*
X451035Y296178D01*
X451039Y296197D01*
X451051Y296205D01*
X451114Y296261D01*
X451429Y296444D01*
X451982Y296996D01*
X452373Y297673D01*
X452575Y298428D01*
Y299210D01*
X452373Y299965D01*
X451982Y300642D01*
X451429Y301194D01*
X450752Y301585D01*
X449997Y301787D01*
X449216D01*
X448460Y301585D01*
X447784Y301194D01*
X447574Y300985D01*
X447503Y300940D01*
X447155Y300613D01*
X447025Y300509D01*
X446900Y300418D01*
X446789Y300349D01*
X446694Y300299D01*
X446617Y300267D01*
X446559Y300249D01*
X446543Y300246D01*
X401357D01*
X401350Y300248D01*
X401331Y300253D01*
X401312Y300261D01*
X401291Y300271D01*
X401268Y300284D01*
X401242Y300303D01*
X401212Y300328D01*
X401153Y300384D01*
X401079Y300431D01*
X400842Y300668D01*
X400040Y301000D01*
X399172D01*
X398371Y300668D01*
X397757Y300054D01*
X397425Y299253D01*
Y299012D01*
X396925Y298805D01*
X389997Y305734D01*
X389534Y306043D01*
X388987Y306152D01*
X388987Y306152D01*
X380884D01*
X380877Y306153D01*
X380858Y306159D01*
X380839Y306166D01*
X380819Y306176D01*
X380796Y306190D01*
X380770Y306208D01*
X380740Y306233D01*
X380681Y306289D01*
X380607Y306336D01*
X380369Y306574D01*
X379568Y306906D01*
X378700D01*
X377898Y306574D01*
X377285Y305960D01*
X376953Y305158D01*
Y304291D01*
X377116Y303896D01*
X376782Y303396D01*
X368702D01*
X368326Y303771D01*
Y304290D01*
X368328Y304297D01*
X368334Y304316D01*
X368341Y304335D01*
X368351Y304356D01*
X368364Y304378D01*
X368383Y304405D01*
X368408Y304435D01*
X368464Y304494D01*
X368511Y304568D01*
X368748Y304805D01*
X369080Y305607D01*
Y306474D01*
X368748Y307276D01*
X368135Y307890D01*
X367333Y308222D01*
X366465D01*
X365664Y307890D01*
X365173Y308106D01*
Y308702D01*
X364841Y309503D01*
X364228Y310117D01*
X363426Y310449D01*
X362558D01*
X361757Y310117D01*
X361143Y309503D01*
X360811Y308702D01*
Y307834D01*
X361143Y307032D01*
X361380Y306795D01*
X361427Y306721D01*
X361483Y306662D01*
X361508Y306632D01*
X361527Y306606D01*
X361540Y306583D01*
X361550Y306562D01*
X361558Y306543D01*
X361563Y306524D01*
X361565Y306517D01*
Y303150D01*
X361565Y303150D01*
X361673Y302603D01*
X361983Y302140D01*
X364345Y299778D01*
X364345Y299778D01*
X365132Y298991D01*
X365132Y298991D01*
X365596Y298681D01*
X366142Y298573D01*
X366142Y298573D01*
X367407D01*
X367685Y298157D01*
X367557Y297847D01*
Y296979D01*
X367888Y296178D01*
X368099Y295967D01*
X368140Y295901D01*
X368195Y295839D01*
X368222Y295806D01*
X368242Y295777D01*
X368256Y295751D01*
X368267Y295728D01*
X368276Y295706D01*
X368282Y295684D01*
X368284Y295675D01*
Y291158D01*
X367799D01*
Y290388D01*
X367299Y290181D01*
X346771Y310709D01*
X346963Y311171D01*
X362506D01*
X362506Y311171D01*
X363052Y311280D01*
X363515Y311589D01*
X368332Y316406D01*
X368332Y316406D01*
X368642Y316869D01*
X368994Y317199D01*
X369941D01*
X369982Y316997D01*
X370313Y316500D01*
X377265Y309548D01*
X377761Y309217D01*
X378346Y309101D01*
X380417D01*
X380522Y308847D01*
X381136Y308234D01*
X381937Y307902D01*
X382805D01*
X383607Y308234D01*
X384220Y308847D01*
X384552Y309649D01*
Y310517D01*
X384220Y311318D01*
X383760Y311778D01*
X384133Y312150D01*
X384465Y312952D01*
Y313820D01*
X384215Y314422D01*
X384530Y314552D01*
X384918Y314940D01*
X385244Y315113D01*
X385571Y314940D01*
X385959Y314552D01*
X386761Y314220D01*
X387628D01*
X388430Y314552D01*
X389043Y315166D01*
X389376Y315968D01*
Y316835D01*
X389766Y317199D01*
X390595D01*
Y322299D01*
Y326375D01*
X390145D01*
X390221Y326383D01*
X390289Y326408D01*
X390349Y326448D01*
X390401Y326505D01*
X390445Y326578D01*
X390481Y326667D01*
X390509Y326773D01*
X390515Y326809D01*
X390507Y326849D01*
X390477Y326951D01*
X390438Y327050D01*
X390391Y327146D01*
X390336Y327239D01*
X390272Y327330D01*
X390215Y327399D01*
X388695D01*
Y327399D01*
X385695D01*
Y327399D01*
X385132D01*
X384940Y327861D01*
X385018Y327939D01*
X385350Y328740D01*
Y329608D01*
X385018Y330410D01*
X384404Y331023D01*
X383603Y331355D01*
X383146D01*
X382723Y331785D01*
X382722Y331817D01*
Y332599D01*
X388695D01*
Y332645D01*
X388368D01*
X388449Y332730D01*
X388521Y332818D01*
X388585Y332909D01*
X388641Y333002D01*
X388688Y333098D01*
X388695Y333116D01*
Y333420D01*
X388695Y333420D01*
X388650Y333493D01*
X388598Y333550D01*
X388539Y333591D01*
X388471Y333615D01*
X388394Y333623D01*
X388695D01*
Y337699D01*
Y342799D01*
X383203D01*
X383170Y342829D01*
X383085Y342947D01*
X382992Y343299D01*
X383200Y343507D01*
X383532Y344309D01*
Y345177D01*
X383200Y345978D01*
X382587Y346592D01*
X381785Y346924D01*
X380917D01*
X380116Y346592D01*
X379671Y346147D01*
X379351Y346032D01*
X379031Y346147D01*
X378587Y346592D01*
X377785Y346924D01*
X376917D01*
X376116Y346592D01*
X375728Y346204D01*
X375401Y346031D01*
X375074Y346204D01*
X374687Y346592D01*
X373885Y346924D01*
X373017D01*
X372216Y346592D01*
X371828Y346204D01*
X371501Y346031D01*
X371174Y346204D01*
X370787Y346592D01*
X369985Y346924D01*
X369117D01*
X368316Y346592D01*
X367871Y346147D01*
X367551Y346032D01*
X367231Y346147D01*
X366787Y346592D01*
X365985Y346924D01*
X365117D01*
X364316Y346592D01*
X363928Y346204D01*
X363601Y346031D01*
X363274Y346204D01*
X362887Y346592D01*
X362085Y346924D01*
X361217D01*
X360416Y346592D01*
X359802Y345978D01*
X359470Y345177D01*
Y344309D01*
X359802Y343507D01*
X359985Y343324D01*
X359999Y343299D01*
X359920Y342994D01*
X359897Y342926D01*
X359888Y342912D01*
X359858Y342874D01*
X359835Y342851D01*
X359820Y342839D01*
X359815Y342834D01*
X359770Y342806D01*
X359759Y342799D01*
X355294D01*
Y333882D01*
X354833Y333691D01*
X354603Y333920D01*
X353486Y334565D01*
X352240Y334899D01*
X350949D01*
X350341Y334736D01*
X349944Y335041D01*
Y337699D01*
X342845D01*
Y322299D01*
X349944D01*
Y324958D01*
X350341Y325262D01*
X350949Y325099D01*
X352240D01*
X353486Y325433D01*
X354603Y326078D01*
X355515Y326991D01*
X356160Y328108D01*
X356494Y329354D01*
Y330644D01*
X356160Y331891D01*
X356001Y332166D01*
X356251Y332599D01*
X363094D01*
Y332599D01*
X367895D01*
X368099Y332184D01*
X368134Y332099D01*
X367736Y331702D01*
X367404Y330900D01*
Y330032D01*
X367736Y329231D01*
X368350Y328617D01*
X369151Y328285D01*
X370019D01*
X370821Y328617D01*
X371058Y328854D01*
X371132Y328902D01*
X371191Y328958D01*
X371221Y328982D01*
X371248Y329001D01*
X371270Y329015D01*
X371291Y329025D01*
X371309Y329032D01*
X371329Y329037D01*
X371336Y329039D01*
X373434D01*
X373434Y329039D01*
X373527Y329058D01*
X374027Y328780D01*
X374359Y327978D01*
X374476Y327861D01*
X374284Y327399D01*
X369895D01*
Y327399D01*
X365094D01*
Y327399D01*
X357194D01*
Y322595D01*
X355814D01*
X355267Y322487D01*
X354804Y322177D01*
X354804Y322177D01*
X352558Y319931D01*
X337549D01*
X333858Y323622D01*
Y388366D01*
X461811Y388366D01*
Y276722D01*
D02*
G37*
G36*
X324944Y315706D02*
X325032Y315634D01*
X325123Y315570D01*
X325216Y315514D01*
X325312Y315467D01*
X325412Y315429D01*
X325513Y315399D01*
X325618Y315378D01*
X325726Y315365D01*
X325836Y315361D01*
Y314561D01*
X325726Y314556D01*
X325618Y314544D01*
X325513Y314522D01*
X325412Y314492D01*
X325312Y314454D01*
X325216Y314407D01*
X325123Y314352D01*
X325032Y314287D01*
X324944Y314215D01*
X324859Y314134D01*
Y315787D01*
X324944Y315706D01*
D02*
G37*
G36*
X300436Y314555D02*
X300430Y314467D01*
X300450Y314364D01*
X300496Y314245D01*
X300569Y314111D01*
X300668Y313962D01*
X300794Y313798D01*
X301124Y313423D01*
X301329Y313213D01*
X300677Y312734D01*
X300503Y312902D01*
X300196Y313165D01*
X300062Y313260D01*
X299942Y313330D01*
X299836Y313375D01*
X299743Y313396D01*
X299664Y313392D01*
X299598Y313364D01*
X299546Y313311D01*
X300468Y314628D01*
X300436Y314555D01*
D02*
G37*
G36*
X381404Y312598D02*
X381340Y312663D01*
X381269Y312720D01*
X381192Y312772D01*
X381110Y312816D01*
X381020Y312854D01*
X380925Y312884D01*
X380824Y312908D01*
X380716Y312925D01*
X380602Y312935D01*
X380482Y312939D01*
X380531Y313939D01*
X380651Y313942D01*
X380765Y313951D01*
X380874Y313967D01*
X380977Y313988D01*
X381075Y314016D01*
X381166Y314051D01*
X381253Y314091D01*
X381333Y314138D01*
X381408Y314191D01*
X381478Y314249D01*
X381404Y312598D01*
D02*
G37*
G36*
X381241Y309741D02*
X381212Y309815D01*
X381173Y309881D01*
X381123Y309939D01*
X381063Y309990D01*
X380992Y310033D01*
X380911Y310068D01*
X380820Y310095D01*
X380718Y310114D01*
X380605Y310126D01*
X380482Y310130D01*
X380616Y311130D01*
X381974Y311195D01*
X381241Y309741D01*
D02*
G37*
G36*
X363738Y307339D02*
X363665Y307251D01*
X363601Y307161D01*
X363546Y307067D01*
X363499Y306971D01*
X363460Y306872D01*
X363431Y306770D01*
X363409Y306665D01*
X363396Y306558D01*
X363392Y306448D01*
X362592D01*
X362588Y306558D01*
X362575Y306665D01*
X362554Y306770D01*
X362524Y306872D01*
X362485Y306971D01*
X362439Y307067D01*
X362383Y307161D01*
X362319Y307251D01*
X362246Y307339D01*
X362165Y307424D01*
X363819D01*
X363738Y307339D01*
D02*
G37*
G36*
X367645Y305112D02*
X367572Y305024D01*
X367508Y304934D01*
X367453Y304840D01*
X367406Y304744D01*
X367367Y304645D01*
X367337Y304543D01*
X367316Y304438D01*
X367303Y304331D01*
X367299Y304221D01*
X366499D01*
X366495Y304331D01*
X366482Y304438D01*
X366461Y304543D01*
X366431Y304645D01*
X366392Y304744D01*
X366346Y304840D01*
X366290Y304934D01*
X366226Y305024D01*
X366153Y305112D01*
X366072Y305197D01*
X367726D01*
X367645Y305112D01*
D02*
G37*
G36*
X380062Y305470D02*
X380150Y305398D01*
X380241Y305333D01*
X380334Y305278D01*
X380431Y305231D01*
X380530Y305193D01*
X380631Y305163D01*
X380736Y305141D01*
X380844Y305129D01*
X380954Y305124D01*
Y304324D01*
X380844Y304320D01*
X380736Y304307D01*
X380631Y304286D01*
X380530Y304256D01*
X380431Y304218D01*
X380334Y304171D01*
X380241Y304115D01*
X380150Y304051D01*
X380062Y303979D01*
X379977Y303898D01*
Y305551D01*
X380062Y305470D01*
D02*
G37*
G36*
X301329Y299582D02*
X301124Y299372D01*
X300668Y298833D01*
X300569Y298684D01*
X300496Y298550D01*
X300450Y298432D01*
X300430Y298328D01*
X300436Y298240D01*
X300468Y298168D01*
X299546Y299484D01*
X299598Y299431D01*
X299664Y299403D01*
X299743Y299399D01*
X299836Y299420D01*
X299942Y299465D01*
X300062Y299536D01*
X300196Y299630D01*
X300343Y299749D01*
X300677Y300062D01*
X301329Y299582D01*
D02*
G37*
G36*
X400535Y299565D02*
X400623Y299492D01*
X400713Y299428D01*
X400807Y299373D01*
X400903Y299326D01*
X401002Y299287D01*
X401104Y299257D01*
X401209Y299236D01*
X401316Y299223D01*
X401426Y299219D01*
Y298419D01*
X401316Y298415D01*
X401209Y298402D01*
X401104Y298380D01*
X401002Y298351D01*
X400903Y298312D01*
X400807Y298265D01*
X400713Y298210D01*
X400623Y298146D01*
X400535Y298073D01*
X400450Y297992D01*
Y299646D01*
X400535Y299565D01*
D02*
G37*
G36*
X448201Y297441D02*
X448011Y297627D01*
X447645Y297940D01*
X447468Y298067D01*
X447296Y298174D01*
X447127Y298262D01*
X446964Y298331D01*
X446804Y298380D01*
X446649Y298409D01*
X446498Y298419D01*
Y299219D01*
X446649Y299229D01*
X446804Y299258D01*
X446964Y299307D01*
X447127Y299375D01*
X447296Y299463D01*
X447468Y299571D01*
X447645Y299698D01*
X447826Y299845D01*
X448201Y300197D01*
Y297441D01*
D02*
G37*
G36*
X370634Y298197D02*
X370726Y298127D01*
X370819Y298065D01*
X370915Y298011D01*
X371013Y297966D01*
X371114Y297929D01*
X371216Y297900D01*
X371321Y297880D01*
X371429Y297867D01*
X371538Y297863D01*
X371574Y297063D01*
X371463Y297059D01*
X371356Y297045D01*
X371252Y297023D01*
X371151Y296992D01*
X371053Y296953D01*
X370959Y296904D01*
X370868Y296847D01*
X370780Y296781D01*
X370696Y296706D01*
X370615Y296623D01*
X370545Y298275D01*
X370634Y298197D01*
D02*
G37*
G36*
X450426Y297019D02*
X450338Y296950D01*
X450260Y296872D01*
X450193Y296784D01*
X450136Y296687D01*
X450089Y296581D01*
X450053Y296466D01*
X450027Y296341D01*
X450011Y296207D01*
X450006Y296063D01*
X449206D01*
X449201Y296207D01*
X449186Y296341D01*
X449160Y296466D01*
X449123Y296581D01*
X449077Y296687D01*
X449020Y296784D01*
X448952Y296872D01*
X448874Y296950D01*
X448786Y297019D01*
X448688Y297078D01*
X450525D01*
X450426Y297019D01*
D02*
G37*
G36*
X370545Y296551D02*
X370463Y296469D01*
X370389Y296383D01*
X370324Y296293D01*
X370268Y296201D01*
X370220Y296106D01*
X370181Y296008D01*
X370150Y295907D01*
X370129Y295802D01*
X370116Y295695D01*
X370111Y295584D01*
X369311Y295603D01*
X369307Y295713D01*
X369295Y295820D01*
X369274Y295925D01*
X369244Y296027D01*
X369207Y296127D01*
X369160Y296224D01*
X369106Y296319D01*
X369043Y296411D01*
X368972Y296501D01*
X368892Y296588D01*
X370545Y296551D01*
D02*
G37*
G36*
X376853Y293922D02*
X376764Y293853D01*
X376684Y293778D01*
X376614Y293699D01*
X376553Y293615D01*
X376501Y293527D01*
X376459Y293433D01*
X376426Y293335D01*
X376403Y293233D01*
X376389Y293125D01*
X376384Y293013D01*
X375584Y293144D01*
X375581Y293252D01*
X375570Y293359D01*
X375551Y293464D01*
X375526Y293569D01*
X375493Y293672D01*
X375453Y293775D01*
X375405Y293876D01*
X375350Y293977D01*
X375288Y294076D01*
X375219Y294174D01*
X376853Y293922D01*
D02*
G37*
G36*
X373661Y293572D02*
X373580Y293487D01*
X373508Y293399D01*
X373444Y293308D01*
X373388Y293215D01*
X373341Y293119D01*
X373303Y293020D01*
X373273Y292918D01*
X373252Y292813D01*
X373239Y292706D01*
X373235Y292595D01*
X372435Y292595D01*
X372430Y292706D01*
X372418Y292813D01*
X372396Y292918D01*
X372366Y293020D01*
X372328Y293119D01*
X372281Y293215D01*
X372225Y293308D01*
X372162Y293399D01*
X372089Y293487D01*
X372008Y293572D01*
X373661Y293572D01*
D02*
G37*
G36*
X320949Y293834D02*
X320973Y293766D01*
X321014Y293706D01*
X321071Y293654D01*
X321144Y293610D01*
X321233Y293574D01*
X321338Y293546D01*
X321460Y293526D01*
X321598Y293514D01*
X321753Y293510D01*
Y292710D01*
X321598Y292706D01*
X321460Y292694D01*
X321338Y292674D01*
X321233Y292646D01*
X321144Y292610D01*
X321071Y292566D01*
X321014Y292514D01*
X320973Y292454D01*
X320949Y292386D01*
X320940Y292310D01*
Y293910D01*
X320949Y293834D01*
D02*
G37*
G36*
X390045Y292148D02*
X389948Y291657D01*
X389566Y291500D01*
X388953Y290886D01*
X388621Y290085D01*
Y289749D01*
X388601Y289663D01*
X388600Y289582D01*
X388596Y289543D01*
X388590Y289511D01*
X388584Y289486D01*
X388577Y289464D01*
X388568Y289446D01*
X388559Y289428D01*
X388555Y289422D01*
X388257Y289124D01*
X386827D01*
Y290173D01*
X382465D01*
Y285221D01*
Y280693D01*
X382465D01*
X382623Y280311D01*
X381520Y279208D01*
X381020Y279415D01*
Y284465D01*
X367799D01*
X367717Y284930D01*
Y285148D01*
X367799Y285614D01*
X381020D01*
Y291158D01*
X381020D01*
X380962Y291657D01*
X380983Y291678D01*
X381315Y292479D01*
Y293347D01*
X380983Y294149D01*
X380369Y294762D01*
X379568Y295094D01*
X378700D01*
X378284Y295463D01*
X378220Y295620D01*
X378497Y296036D01*
X386157D01*
X390045Y292148D01*
D02*
G37*
G36*
X379961Y292070D02*
X379879Y291985D01*
X379807Y291897D01*
X379743Y291806D01*
X379688Y291713D01*
X379641Y291617D01*
X379602Y291518D01*
X379572Y291416D01*
X379551Y291311D01*
X379538Y291204D01*
X379534Y291093D01*
X378734Y291093D01*
X378730Y291204D01*
X378717Y291311D01*
X378695Y291416D01*
X378666Y291518D01*
X378627Y291617D01*
X378580Y291713D01*
X378525Y291806D01*
X378461Y291897D01*
X378388Y291985D01*
X378307Y292070D01*
X379961Y292070D01*
D02*
G37*
G36*
X379538Y290791D02*
X379550Y290653D01*
X379570Y290531D01*
X379598Y290426D01*
X379634Y290336D01*
X379678Y290263D01*
X379730Y290207D01*
X379790Y290166D01*
X379858Y290142D01*
X379934Y290134D01*
X378334D01*
X378410Y290142D01*
X378478Y290166D01*
X378538Y290207D01*
X378590Y290263D01*
X378634Y290336D01*
X378670Y290426D01*
X378698Y290531D01*
X378718Y290653D01*
X378730Y290791D01*
X378734Y290946D01*
X379534D01*
X379538Y290791D01*
D02*
G37*
G36*
X376388D02*
X376400Y290653D01*
X376420Y290531D01*
X376448Y290426D01*
X376484Y290336D01*
X376528Y290263D01*
X376580Y290207D01*
X376640Y290166D01*
X376708Y290142D01*
X376784Y290134D01*
X375184D01*
X375260Y290142D01*
X375328Y290166D01*
X375388Y290207D01*
X375440Y290263D01*
X375484Y290336D01*
X375520Y290426D01*
X375548Y290531D01*
X375568Y290653D01*
X375580Y290791D01*
X375584Y290946D01*
X376384D01*
X376388Y290791D01*
D02*
G37*
G36*
X373239D02*
X373251Y290653D01*
X373271Y290531D01*
X373299Y290426D01*
X373335Y290336D01*
X373379Y290263D01*
X373431Y290207D01*
X373491Y290166D01*
X373559Y290142D01*
X373635Y290134D01*
X372035D01*
X372111Y290142D01*
X372179Y290166D01*
X372239Y290207D01*
X372291Y290263D01*
X372335Y290336D01*
X372371Y290426D01*
X372399Y290531D01*
X372419Y290653D01*
X372431Y290791D01*
X372435Y290946D01*
X373235D01*
X373239Y290791D01*
D02*
G37*
G36*
X370115D02*
X370127Y290653D01*
X370147Y290531D01*
X370175Y290426D01*
X370211Y290336D01*
X370255Y290263D01*
X370307Y290207D01*
X370367Y290166D01*
X370435Y290142D01*
X370511Y290134D01*
X368911D01*
X368987Y290142D01*
X369055Y290166D01*
X369115Y290207D01*
X369167Y290263D01*
X369211Y290336D01*
X369247Y290426D01*
X369275Y290531D01*
X369295Y290653D01*
X369307Y290791D01*
X369311Y290946D01*
X370111D01*
X370115Y290791D01*
D02*
G37*
G36*
X390790Y288470D02*
X390673Y288467D01*
X390559Y288456D01*
X390450Y288437D01*
X390345Y288410D01*
X390243Y288375D01*
X390146Y288333D01*
X390053Y288282D01*
X389964Y288223D01*
X389879Y288156D01*
X389798Y288081D01*
X389232Y288647D01*
X389307Y288727D01*
X389374Y288812D01*
X389433Y288902D01*
X389484Y288995D01*
X389527Y289092D01*
X389562Y289193D01*
X389588Y289299D01*
X389607Y289408D01*
X389618Y289521D01*
X389621Y289639D01*
X390790Y288470D01*
D02*
G37*
G36*
X385811Y288421D02*
X385835Y288353D01*
X385876Y288293D01*
X385933Y288241D01*
X386006Y288197D01*
X386095Y288161D01*
X386201Y288133D01*
X386322Y288113D01*
X386460Y288101D01*
X386615Y288097D01*
Y287297D01*
X386460Y287293D01*
X386322Y287281D01*
X386201Y287261D01*
X386095Y287233D01*
X386006Y287197D01*
X385933Y287153D01*
X385876Y287101D01*
X385835Y287041D01*
X385811Y286973D01*
X385803Y286897D01*
Y288497D01*
X385811Y288421D01*
D02*
G37*
G36*
X361769Y287260D02*
X361697Y287173D01*
X361633Y287082D01*
X361577Y286988D01*
X361530Y286892D01*
X361492Y286793D01*
X361462Y286691D01*
X361441Y286587D01*
X361428Y286479D01*
X361424Y286369D01*
X360624D01*
X360619Y286479D01*
X360607Y286587D01*
X360585Y286691D01*
X360555Y286793D01*
X360517Y286892D01*
X360470Y286988D01*
X360415Y287082D01*
X360350Y287173D01*
X360278Y287260D01*
X360197Y287346D01*
X361850D01*
X361769Y287260D01*
D02*
G37*
G36*
X405659Y276534D02*
Y263769D01*
X405159Y263435D01*
X404765Y263598D01*
X403897D01*
X403095Y263266D01*
X402482Y262653D01*
X402150Y261851D01*
Y261516D01*
X402130Y261430D01*
X402128Y261349D01*
X402125Y261310D01*
X402119Y261278D01*
X402113Y261252D01*
X402105Y261231D01*
X402097Y261212D01*
X402088Y261195D01*
X402084Y261189D01*
X400172Y259277D01*
X399862Y258814D01*
X399754Y258268D01*
X399754Y258268D01*
Y256299D01*
X399754Y256299D01*
X399862Y255753D01*
X400172Y255290D01*
X400222Y255240D01*
X399938Y254816D01*
X399646Y254937D01*
X398779D01*
X398436Y254795D01*
X392480D01*
X391700Y254640D01*
X391038Y254198D01*
X386467Y249627D01*
X386025Y248965D01*
X385870Y248185D01*
Y245146D01*
X385773Y244912D01*
X385210D01*
Y244050D01*
X385220Y244028D01*
X385256Y243972D01*
X385298Y243932D01*
X385345Y243908D01*
X385398Y243900D01*
X385210D01*
Y241512D01*
X386410D01*
Y241766D01*
X386910Y242100D01*
X387361Y241913D01*
X388229D01*
X388446Y242003D01*
X388862Y241726D01*
Y236500D01*
X389791D01*
X389824Y236473D01*
X389857Y236434D01*
X390002Y236000D01*
X389883Y235881D01*
X389551Y235080D01*
Y234212D01*
X389883Y233410D01*
X390497Y232797D01*
X391298Y232465D01*
X391634D01*
X391720Y232445D01*
X391801Y232443D01*
X391840Y232440D01*
X391872Y232434D01*
X391897Y232428D01*
X391919Y232420D01*
X391937Y232412D01*
X391955Y232402D01*
X391961Y232399D01*
X393304Y231055D01*
X393304Y231055D01*
X393640Y230831D01*
X393488Y230331D01*
X387583D01*
Y228396D01*
X386433D01*
Y230331D01*
X382817D01*
X382602Y230791D01*
X382842Y231205D01*
X386272D01*
Y233465D01*
Y235724D01*
X384630D01*
X384626Y235743D01*
X384316Y236206D01*
X384316Y236206D01*
X383911Y236612D01*
X384118Y237112D01*
X384210D01*
Y237987D01*
X384207Y237996D01*
X384169Y238052D01*
X384126Y238092D01*
X384077Y238116D01*
X384022Y238124D01*
X384210D01*
Y241012D01*
Y243900D01*
X384022D01*
X384079Y243908D01*
X384129Y243932D01*
X384174Y243972D01*
X384210Y244025D01*
Y244912D01*
X383396D01*
X383220Y245177D01*
X383220Y245177D01*
X382198Y246198D01*
X382194Y246204D01*
X382184Y246222D01*
X382176Y246240D01*
X382169Y246262D01*
X382162Y246287D01*
X382157Y246319D01*
X382153Y246358D01*
X382151Y246439D01*
X382132Y246525D01*
Y246861D01*
X381800Y247662D01*
X381186Y248276D01*
X380385Y248608D01*
X379517D01*
X378715Y248276D01*
X378102Y247662D01*
X378025Y247476D01*
X377483D01*
X377380Y247726D01*
X376766Y248339D01*
X375964Y248671D01*
X375097D01*
X374295Y248339D01*
X373772Y247816D01*
X373283Y248306D01*
X372481Y248638D01*
X371613D01*
X370812Y248306D01*
X370198Y247692D01*
X369866Y246890D01*
Y246023D01*
X370119Y245412D01*
X369910Y245017D01*
Y241012D01*
Y238124D01*
X370098D01*
X370043Y238116D01*
X369994Y238092D01*
X369951Y238052D01*
X369914Y237996D01*
X369910Y237987D01*
Y237112D01*
X375683D01*
Y231093D01*
X375683Y231093D01*
X375735Y230831D01*
X375380Y230331D01*
X374516D01*
Y229510D01*
X374560Y229437D01*
X374612Y229380D01*
X374672Y229339D01*
X374740Y229315D01*
X374816Y229307D01*
X374516D01*
Y226969D01*
X374016D01*
Y226468D01*
X371284D01*
Y226168D01*
X371276Y226244D01*
X371251Y226312D01*
X371211Y226373D01*
X371154Y226425D01*
X371081Y226468D01*
X370260D01*
Y223606D01*
Y221703D01*
X369110D01*
Y223213D01*
Y226272D01*
X368104D01*
X368094Y226244D01*
X368086Y226168D01*
Y226272D01*
X365354D01*
X361598D01*
Y223213D01*
Y216913D01*
X369110D01*
Y218848D01*
X370260D01*
Y216913D01*
X377772D01*
Y219875D01*
X378105Y219941D01*
X378421Y220152D01*
X378921Y219947D01*
Y216913D01*
X382177D01*
Y220276D01*
X382677D01*
Y220776D01*
X385421D01*
Y221076D01*
X385429Y221000D01*
X385453Y220932D01*
X385493Y220872D01*
X385549Y220820D01*
X385621Y220776D01*
X386433D01*
Y223606D01*
Y225541D01*
X387583D01*
Y223213D01*
Y220972D01*
X388589D01*
X388599Y221000D01*
X388607Y221076D01*
Y220972D01*
X395094D01*
Y223213D01*
Y230331D01*
X395468Y230637D01*
X400962D01*
X400962Y230637D01*
X401508Y230746D01*
X401971Y231055D01*
X405159Y234243D01*
X405659Y234036D01*
Y227953D01*
X405659Y227953D01*
X405768Y227407D01*
X406077Y226943D01*
X423124Y209897D01*
X423124Y209897D01*
X423587Y209587D01*
X424133Y209478D01*
X424133Y209478D01*
X448701D01*
X448701Y209478D01*
X449248Y209587D01*
X449711Y209897D01*
X458067Y218253D01*
X458067Y218253D01*
X458376Y218716D01*
X458485Y219262D01*
Y219306D01*
X458657Y219327D01*
X459055Y218876D01*
Y206299D01*
X450000Y197244D01*
X368898D01*
X368504Y196850D01*
X361024Y204331D01*
Y223025D01*
X361061Y223213D01*
X361061Y223213D01*
Y231140D01*
X365591Y235670D01*
Y235915D01*
X365629Y235972D01*
X365738Y236518D01*
Y237112D01*
X366310D01*
Y237987D01*
X366307Y237996D01*
X366269Y238052D01*
X366226Y238092D01*
X366177Y238116D01*
X366122Y238124D01*
X366310D01*
Y241012D01*
Y245204D01*
X366240Y245374D01*
X368110Y247244D01*
Y264991D01*
X368610Y265198D01*
X369431Y264377D01*
X369431Y264377D01*
X369894Y264068D01*
X370441Y263959D01*
X373260D01*
X373260Y263959D01*
X373807Y264068D01*
X374270Y264377D01*
X375519Y265627D01*
X375520Y265627D01*
X375829Y266090D01*
X375833Y266112D01*
X376210D01*
Y266112D01*
X382768D01*
X382837Y266044D01*
X382893Y265505D01*
X382797Y265409D01*
X382465Y264607D01*
Y263739D01*
X382797Y262938D01*
X383410Y262324D01*
X384212Y261992D01*
X385080D01*
X385881Y262324D01*
X386495Y262938D01*
X386827Y263739D01*
Y264607D01*
X386495Y265409D01*
X386292Y265612D01*
X386292Y265623D01*
X386410Y266112D01*
X386410Y266112D01*
Y267086D01*
X386418Y267124D01*
X386410Y267162D01*
Y268258D01*
X389945D01*
Y266126D01*
Y263886D01*
X393701D01*
X396433D01*
Y264386D01*
X396443Y264291D01*
X396473Y264206D01*
X396524Y264131D01*
X396595Y264066D01*
X396686Y264011D01*
X396797Y263966D01*
X396929Y263931D01*
X397080Y263906D01*
X397217Y263894D01*
X397274Y263899D01*
X397383Y263915D01*
X397457Y263932D01*
Y266126D01*
Y273244D01*
X389945D01*
Y271112D01*
X386410D01*
Y272869D01*
X386418Y272909D01*
X386412Y272937D01*
X386416Y272965D01*
X386410Y272986D01*
Y273912D01*
X386825Y274118D01*
X388004D01*
Y274939D01*
X387960Y275012D01*
X387908Y275069D01*
X387848Y275110D01*
X387780Y275134D01*
X387704Y275142D01*
X388004D01*
Y276378D01*
Y278638D01*
X385641D01*
X385449Y279100D01*
X385636Y279287D01*
X385636Y279287D01*
X385946Y279750D01*
X386054Y280296D01*
Y280693D01*
X386827D01*
Y286269D01*
X388848D01*
X388848Y286269D01*
X389394Y286378D01*
X389858Y286687D01*
X390574Y287403D01*
X390580Y287407D01*
X390597Y287417D01*
X390616Y287425D01*
X390637Y287433D01*
X390663Y287439D01*
X390694Y287445D01*
X390733Y287448D01*
X390814Y287450D01*
X390900Y287470D01*
X391236D01*
X392037Y287802D01*
X392651Y288415D01*
X392809Y288796D01*
X393299Y288894D01*
X405659Y276534D01*
D02*
G37*
G36*
X365562Y286806D02*
X365490Y286718D01*
X365426Y286627D01*
X365370Y286534D01*
X365323Y286438D01*
X365285Y286338D01*
X365255Y286237D01*
X365234Y286132D01*
X365221Y286025D01*
X365220Y286006D01*
X365221Y285988D01*
X365233Y285850D01*
X365253Y285728D01*
X365281Y285623D01*
X365317Y285533D01*
X365361Y285460D01*
X365413Y285403D01*
X365473Y285363D01*
X365541Y285338D01*
X365617Y285330D01*
X364017D01*
X364093Y285338D01*
X364161Y285363D01*
X364221Y285403D01*
X364273Y285460D01*
X364317Y285533D01*
X364353Y285623D01*
X364381Y285728D01*
X364401Y285850D01*
X364413Y285988D01*
X364413Y286006D01*
X364412Y286025D01*
X364400Y286132D01*
X364378Y286237D01*
X364348Y286338D01*
X364310Y286438D01*
X364263Y286534D01*
X364208Y286627D01*
X364143Y286718D01*
X364071Y286806D01*
X363990Y286891D01*
X365643D01*
X365562Y286806D01*
D02*
G37*
G36*
X484590Y281850D02*
X484505Y281931D01*
X484417Y282004D01*
X484326Y282068D01*
X484233Y282123D01*
X484136Y282171D01*
X484037Y282209D01*
X483935Y282239D01*
X483831Y282260D01*
X483723Y282273D01*
X483621Y282277D01*
X483481Y282273D01*
X483345Y282261D01*
X483225Y282241D01*
X483121Y282213D01*
X483033Y282177D01*
X482961Y282133D01*
X482905Y282081D01*
X482865Y282021D01*
X482841Y281953D01*
X482833Y281877D01*
Y283477D01*
X482841Y283401D01*
X482865Y283333D01*
X482905Y283273D01*
X482961Y283221D01*
X483033Y283177D01*
X483121Y283141D01*
X483225Y283113D01*
X483345Y283093D01*
X483481Y283081D01*
X483621Y283078D01*
X483723Y283081D01*
X483831Y283094D01*
X483935Y283116D01*
X484037Y283145D01*
X484136Y283184D01*
X484233Y283231D01*
X484326Y283286D01*
X484417Y283350D01*
X484505Y283423D01*
X484590Y283504D01*
Y281850D01*
D02*
G37*
G36*
X528155Y281831D02*
X528070Y281912D01*
X527982Y281985D01*
X527892Y282049D01*
X527798Y282104D01*
X527702Y282151D01*
X527603Y282189D01*
X527501Y282219D01*
X527396Y282241D01*
X527295Y282253D01*
X527169Y282242D01*
X527047Y282222D01*
X526941Y282194D01*
X526852Y282158D01*
X526779Y282114D01*
X526722Y282062D01*
X526682Y282002D01*
X526657Y281934D01*
X526649Y281858D01*
Y283458D01*
X526657Y283382D01*
X526682Y283314D01*
X526722Y283254D01*
X526779Y283202D01*
X526852Y283158D01*
X526941Y283122D01*
X527047Y283094D01*
X527169Y283074D01*
X527295Y283063D01*
X527396Y283075D01*
X527501Y283096D01*
X527603Y283126D01*
X527702Y283164D01*
X527798Y283211D01*
X527892Y283267D01*
X527982Y283331D01*
X528070Y283403D01*
X528155Y283485D01*
Y281831D01*
D02*
G37*
G36*
X385351Y281709D02*
X385283Y281684D01*
X385223Y281644D01*
X385171Y281587D01*
X385127Y281514D01*
X385091Y281425D01*
X385063Y281319D01*
X385043Y281197D01*
X385031Y281059D01*
X385027Y280905D01*
X384227D01*
X384223Y281059D01*
X384211Y281197D01*
X384191Y281319D01*
X384163Y281425D01*
X384127Y281514D01*
X384083Y281587D01*
X384031Y281644D01*
X383971Y281684D01*
X383903Y281709D01*
X383827Y281717D01*
X385427D01*
X385351Y281709D01*
D02*
G37*
G36*
X445971Y281121D02*
X445946Y281104D01*
X445925Y281076D01*
X445905Y281037D01*
X445889Y280987D01*
X445876Y280925D01*
X445866Y280853D01*
X445858Y280769D01*
X445853Y280568D01*
X445053D01*
X445051Y280674D01*
X445029Y280925D01*
X445016Y280987D01*
X445000Y281037D01*
X444981Y281076D01*
X444959Y281104D01*
X444934Y281121D01*
X444906Y281126D01*
X445999D01*
X445971Y281121D01*
D02*
G37*
G36*
X473529Y279937D02*
X473461Y279913D01*
X473401Y279872D01*
X473350Y279815D01*
X473306Y279742D01*
X473270Y279653D01*
X473242Y279547D01*
X473221Y279426D01*
X473209Y279288D01*
X473206Y279133D01*
X472405D01*
X472402Y279288D01*
X472390Y279426D01*
X472369Y279547D01*
X472341Y279653D01*
X472305Y279742D01*
X472261Y279815D01*
X472210Y279872D01*
X472150Y279913D01*
X472082Y279937D01*
X472006Y279945D01*
X473605D01*
X473529Y279937D01*
D02*
G37*
G36*
X379858Y279925D02*
X379790Y279901D01*
X379730Y279861D01*
X379678Y279805D01*
X379634Y279733D01*
X379598Y279645D01*
X379570Y279541D01*
X379550Y279421D01*
X379538Y279285D01*
X379534Y279133D01*
X378734D01*
X378730Y279285D01*
X378718Y279421D01*
X378698Y279541D01*
X378670Y279645D01*
X378634Y279733D01*
X378590Y279805D01*
X378538Y279861D01*
X378478Y279901D01*
X378410Y279925D01*
X378334Y279933D01*
X379934D01*
X379858Y279925D01*
D02*
G37*
G36*
X376708D02*
X376640Y279901D01*
X376580Y279861D01*
X376528Y279805D01*
X376484Y279733D01*
X376448Y279645D01*
X376420Y279541D01*
X376400Y279421D01*
X376388Y279285D01*
X376384Y279133D01*
X375584D01*
X375580Y279285D01*
X375568Y279421D01*
X375548Y279541D01*
X375520Y279645D01*
X375484Y279733D01*
X375440Y279805D01*
X375388Y279861D01*
X375328Y279901D01*
X375260Y279925D01*
X375184Y279933D01*
X376784D01*
X376708Y279925D01*
D02*
G37*
G36*
X373559D02*
X373491Y279901D01*
X373431Y279861D01*
X373379Y279805D01*
X373335Y279733D01*
X373299Y279645D01*
X373271Y279541D01*
X373251Y279421D01*
X373239Y279285D01*
X373235Y279133D01*
X372435D01*
X372431Y279285D01*
X372419Y279421D01*
X372399Y279541D01*
X372371Y279645D01*
X372335Y279733D01*
X372291Y279805D01*
X372239Y279861D01*
X372179Y279901D01*
X372111Y279925D01*
X372035Y279933D01*
X373635D01*
X373559Y279925D01*
D02*
G37*
G36*
X370272D02*
X370204Y279901D01*
X370144Y279861D01*
X370092Y279805D01*
X370048Y279733D01*
X370012Y279645D01*
X369984Y279541D01*
X369964Y279421D01*
X369952Y279285D01*
X369948Y279133D01*
X369148D01*
X369144Y279285D01*
X369117Y279541D01*
X369094Y279645D01*
X369063Y279733D01*
X369026Y279805D01*
X368983Y279861D01*
X368932Y279901D01*
X368875Y279925D01*
X368811Y279933D01*
X370348D01*
X370272Y279925D01*
D02*
G37*
G36*
X365685Y279532D02*
X365617Y279508D01*
X365557Y279468D01*
X365505Y279412D01*
X365461Y279340D01*
X365425Y279252D01*
X365397Y279148D01*
X365377Y279028D01*
X365365Y278892D01*
X365361Y278740D01*
X364561D01*
X364557Y278892D01*
X364545Y279028D01*
X364525Y279148D01*
X364497Y279252D01*
X364461Y279340D01*
X364417Y279412D01*
X364365Y279468D01*
X364305Y279508D01*
X364237Y279532D01*
X364161Y279540D01*
X365761D01*
X365685Y279532D01*
D02*
G37*
G36*
X521047Y280721D02*
X520945Y280684D01*
X520855Y280624D01*
X520777Y280539D01*
X520711Y280430D01*
X520657Y280296D01*
X520615Y280139D01*
X520585Y279957D01*
X520567Y279751D01*
X520565Y279675D01*
X520567Y279599D01*
X520585Y279393D01*
X520615Y279212D01*
X520657Y279054D01*
X520711Y278921D01*
X520777Y278812D01*
X520855Y278727D01*
X520945Y278666D01*
X521047Y278630D01*
X521161Y278618D01*
X518761D01*
X518875Y278630D01*
X518977Y278666D01*
X519067Y278727D01*
X519145Y278812D01*
X519211Y278921D01*
X519265Y279054D01*
X519307Y279212D01*
X519337Y279393D01*
X519355Y279599D01*
X519357Y279675D01*
X519355Y279751D01*
X519337Y279957D01*
X519307Y280139D01*
X519265Y280296D01*
X519211Y280430D01*
X519145Y280539D01*
X519067Y280624D01*
X518977Y280684D01*
X518875Y280721D01*
X518761Y280733D01*
X521161D01*
X521047Y280721D01*
D02*
G37*
G36*
X473209Y278272D02*
X473221Y278134D01*
X473242Y278012D01*
X473270Y277906D01*
X473306Y277817D01*
X473350Y277744D01*
X473401Y277687D01*
X473461Y277646D01*
X473529Y277622D01*
X473605Y277614D01*
X472006D01*
X472082Y277622D01*
X472150Y277646D01*
X472210Y277687D01*
X472261Y277744D01*
X472305Y277817D01*
X472341Y277906D01*
X472369Y278012D01*
X472390Y278134D01*
X472402Y278272D01*
X472405Y278426D01*
X473206D01*
X473209Y278272D01*
D02*
G37*
G36*
X299747Y277584D02*
X299835Y277512D01*
X299926Y277448D01*
X300019Y277392D01*
X300116Y277345D01*
X300215Y277307D01*
X300317Y277277D01*
X300421Y277256D01*
X300455Y277252D01*
X300489Y277255D01*
X300610Y277275D01*
X300716Y277303D01*
X300805Y277339D01*
X300878Y277383D01*
X300935Y277435D01*
X300976Y277495D01*
X301000Y277563D01*
X301008Y277639D01*
Y276039D01*
X301000Y276115D01*
X300976Y276183D01*
X300935Y276243D01*
X300878Y276295D01*
X300805Y276339D01*
X300716Y276375D01*
X300610Y276403D01*
X300489Y276423D01*
X300455Y276426D01*
X300421Y276421D01*
X300317Y276400D01*
X300215Y276370D01*
X300116Y276332D01*
X300019Y276285D01*
X299926Y276230D01*
X299835Y276166D01*
X299747Y276093D01*
X299662Y276012D01*
Y277665D01*
X299747Y277584D01*
D02*
G37*
G36*
X526740Y277858D02*
X526776Y277756D01*
X526837Y277666D01*
X526922Y277588D01*
X527031Y277522D01*
X527164Y277468D01*
X527322Y277426D01*
X527504Y277396D01*
X527710Y277378D01*
X527940Y277372D01*
Y276172D01*
X527710Y276166D01*
X527504Y276148D01*
X527322Y276118D01*
X527164Y276076D01*
X527031Y276022D01*
X526922Y275956D01*
X526837Y275878D01*
X526776Y275788D01*
X526740Y275686D01*
X526728Y275572D01*
Y277972D01*
X526740Y277858D01*
D02*
G37*
G36*
X443904Y275924D02*
X443890Y275910D01*
X443877Y275885D01*
X443866Y275850D01*
X443856Y275805D01*
X443849Y275751D01*
X443839Y275612D01*
X443835Y275433D01*
X443035D01*
X443035Y275527D01*
X443014Y275805D01*
X443005Y275850D01*
X442994Y275885D01*
X442981Y275910D01*
X442967Y275924D01*
X442951Y275929D01*
X443920D01*
X443904Y275924D01*
D02*
G37*
G36*
X476679Y275134D02*
X476611Y275110D01*
X476551Y275069D01*
X476499Y275012D01*
X476455Y274939D01*
X476419Y274850D01*
X476391Y274744D01*
X476371Y274622D01*
X476359Y274484D01*
X476355Y274330D01*
X475555D01*
X475551Y274484D01*
X475539Y274622D01*
X475519Y274744D01*
X475491Y274850D01*
X475455Y274939D01*
X475411Y275012D01*
X475359Y275069D01*
X475299Y275110D01*
X475231Y275134D01*
X475155Y275142D01*
X476755D01*
X476679Y275134D01*
D02*
G37*
G36*
X473493D02*
X473425Y275110D01*
X473365Y275069D01*
X473313Y275012D01*
X473269Y274939D01*
X473233Y274850D01*
X473205Y274744D01*
X473185Y274622D01*
X473173Y274484D01*
X473169Y274330D01*
X472369D01*
X472365Y274484D01*
X472353Y274622D01*
X472333Y274744D01*
X472305Y274850D01*
X472269Y274939D01*
X472225Y275012D01*
X472173Y275069D01*
X472113Y275110D01*
X472045Y275134D01*
X471969Y275142D01*
X473569D01*
X473493Y275134D01*
D02*
G37*
G36*
X385599D02*
X385531Y275110D01*
X385471Y275069D01*
X385419Y275012D01*
X385375Y274939D01*
X385339Y274850D01*
X385311Y274744D01*
X385291Y274622D01*
X385279Y274484D01*
X385275Y274330D01*
X384475D01*
X384471Y274484D01*
X384459Y274622D01*
X384439Y274744D01*
X384411Y274850D01*
X384375Y274939D01*
X384331Y275012D01*
X384279Y275069D01*
X384219Y275110D01*
X384151Y275134D01*
X384075Y275142D01*
X385675D01*
X385599Y275134D01*
D02*
G37*
G36*
X352070D02*
X352002Y275110D01*
X351942Y275069D01*
X351890Y275012D01*
X351846Y274939D01*
X351810Y274850D01*
X351782Y274744D01*
X351762Y274622D01*
X351750Y274484D01*
X351746Y274330D01*
X350946D01*
X350942Y274484D01*
X350930Y274622D01*
X350910Y274744D01*
X350882Y274850D01*
X350846Y274939D01*
X350802Y275012D01*
X350750Y275069D01*
X350690Y275110D01*
X350622Y275134D01*
X350546Y275142D01*
X352146D01*
X352070Y275134D01*
D02*
G37*
G36*
X348477D02*
X348409Y275110D01*
X348349Y275069D01*
X348297Y275012D01*
X348253Y274939D01*
X348217Y274850D01*
X348189Y274744D01*
X348183Y274708D01*
X348192Y274664D01*
X348223Y274563D01*
X348262Y274465D01*
X348310Y274370D01*
X348367Y274279D01*
X348432Y274190D01*
X348507Y274105D01*
X348590Y274023D01*
X346937Y273972D01*
X347016Y274060D01*
X347087Y274150D01*
X347149Y274243D01*
X347203Y274338D01*
X347249Y274436D01*
X347286Y274536D01*
X347316Y274638D01*
X347326Y274690D01*
X347317Y274744D01*
X347289Y274850D01*
X347253Y274939D01*
X347209Y275012D01*
X347157Y275069D01*
X347097Y275110D01*
X347029Y275134D01*
X346953Y275142D01*
X348553D01*
X348477Y275134D01*
D02*
G37*
G36*
X459014Y274016D02*
X458897Y274013D01*
X458783Y274002D01*
X458674Y273983D01*
X458569Y273956D01*
X458467Y273922D01*
X458370Y273879D01*
X458277Y273828D01*
X458188Y273769D01*
X458103Y273702D01*
X458022Y273627D01*
X457456Y274193D01*
X457531Y274274D01*
X457598Y274359D01*
X457657Y274448D01*
X457708Y274541D01*
X457751Y274638D01*
X457786Y274739D01*
X457812Y274845D01*
X457831Y274954D01*
X457842Y275067D01*
X457845Y275185D01*
X459014Y274016D01*
D02*
G37*
G36*
X382613Y273548D02*
X382636Y273292D01*
X382656Y273188D01*
X382682Y273100D01*
X382714Y273028D01*
X382751Y272972D01*
X382794Y272932D01*
X382843Y272908D01*
X382898Y272900D01*
X381522D01*
X381577Y272908D01*
X381626Y272932D01*
X381669Y272972D01*
X381707Y273028D01*
X381738Y273100D01*
X381764Y273188D01*
X381784Y273292D01*
X381799Y273412D01*
X381807Y273548D01*
X381810Y273700D01*
X382610D01*
X382613Y273548D01*
D02*
G37*
G36*
X380013D02*
X380036Y273292D01*
X380056Y273188D01*
X380082Y273100D01*
X380114Y273028D01*
X380151Y272972D01*
X380194Y272932D01*
X380243Y272908D01*
X380298Y272900D01*
X378922D01*
X378977Y272908D01*
X379026Y272932D01*
X379069Y272972D01*
X379107Y273028D01*
X379138Y273100D01*
X379164Y273188D01*
X379184Y273292D01*
X379199Y273412D01*
X379207Y273548D01*
X379210Y273700D01*
X380010D01*
X380013Y273548D01*
D02*
G37*
G36*
X377513D02*
X377536Y273292D01*
X377556Y273188D01*
X377582Y273100D01*
X377614Y273028D01*
X377651Y272972D01*
X377695Y272932D01*
X377744Y272908D01*
X377798Y272900D01*
X376422D01*
X376477Y272908D01*
X376526Y272932D01*
X376569Y272972D01*
X376607Y273028D01*
X376638Y273100D01*
X376664Y273188D01*
X376684Y273292D01*
X376699Y273412D01*
X376707Y273548D01*
X376710Y273700D01*
X377510D01*
X377513Y273548D01*
D02*
G37*
G36*
X372313D02*
X372336Y273292D01*
X372356Y273188D01*
X372382Y273100D01*
X372414Y273028D01*
X372451Y272972D01*
X372495Y272932D01*
X372544Y272908D01*
X372598Y272900D01*
X371222D01*
X371277Y272908D01*
X371326Y272932D01*
X371369Y272972D01*
X371407Y273028D01*
X371438Y273100D01*
X371464Y273188D01*
X371484Y273292D01*
X371499Y273412D01*
X371507Y273548D01*
X371510Y273700D01*
X372310D01*
X372313Y273548D01*
D02*
G37*
G36*
X367213D02*
X367236Y273292D01*
X367256Y273188D01*
X367282Y273100D01*
X367314Y273028D01*
X367351Y272972D01*
X367394Y272932D01*
X367443Y272908D01*
X367498Y272900D01*
X366122D01*
X366177Y272908D01*
X366226Y272932D01*
X366269Y272972D01*
X366307Y273028D01*
X366338Y273100D01*
X366364Y273188D01*
X366384Y273292D01*
X366399Y273412D01*
X366407Y273548D01*
X366410Y273700D01*
X367210D01*
X367213Y273548D01*
D02*
G37*
G36*
X364713D02*
X364736Y273292D01*
X364756Y273188D01*
X364782Y273100D01*
X364814Y273028D01*
X364851Y272972D01*
X364895Y272932D01*
X364944Y272908D01*
X364998Y272900D01*
X363622D01*
X363677Y272908D01*
X363726Y272932D01*
X363769Y272972D01*
X363807Y273028D01*
X363838Y273100D01*
X363864Y273188D01*
X363884Y273292D01*
X363899Y273412D01*
X363907Y273548D01*
X363910Y273700D01*
X364710D01*
X364713Y273548D01*
D02*
G37*
G36*
X357013D02*
X357036Y273292D01*
X357056Y273188D01*
X357082Y273100D01*
X357114Y273028D01*
X357151Y272972D01*
X357194Y272932D01*
X357243Y272908D01*
X357298Y272900D01*
X355922D01*
X355977Y272908D01*
X356026Y272932D01*
X356069Y272972D01*
X356107Y273028D01*
X356138Y273100D01*
X356164Y273188D01*
X356184Y273292D01*
X356199Y273412D01*
X356207Y273548D01*
X356210Y273700D01*
X357010D01*
X357013Y273548D01*
D02*
G37*
G36*
X354413D02*
X354436Y273292D01*
X354456Y273188D01*
X354482Y273100D01*
X354514Y273028D01*
X354551Y272972D01*
X354595Y272932D01*
X354644Y272908D01*
X354698Y272900D01*
X353322D01*
X353377Y272908D01*
X353426Y272932D01*
X353469Y272972D01*
X353507Y273028D01*
X353538Y273100D01*
X353564Y273188D01*
X353584Y273292D01*
X353599Y273412D01*
X353607Y273548D01*
X353610Y273700D01*
X354410D01*
X354413Y273548D01*
D02*
G37*
G36*
X362113Y273548D02*
X362136Y273292D01*
X362156Y273188D01*
X362182Y273100D01*
X362214Y273028D01*
X362251Y272972D01*
X362295Y272932D01*
X362344Y272908D01*
X362398Y272900D01*
X361022D01*
X361077Y272908D01*
X361126Y272932D01*
X361169Y272972D01*
X361207Y273028D01*
X361238Y273100D01*
X361264Y273188D01*
X361284Y273292D01*
X361299Y273412D01*
X361307Y273548D01*
X361310Y273700D01*
X362110D01*
X362113Y273548D01*
D02*
G37*
G36*
X385276Y273548D02*
X385306Y273100D01*
X385319Y273028D01*
X385335Y272972D01*
X385354Y272932D01*
X385375Y272908D01*
X385398Y272900D01*
X384075Y272888D01*
X384151Y272897D01*
X384219Y272921D01*
X384279Y272962D01*
X384331Y273020D01*
X384375Y273093D01*
X384411Y273182D01*
X384439Y273287D01*
X384459Y273409D01*
X384471Y273546D01*
X384475Y273700D01*
X385275D01*
X385276Y273548D01*
D02*
G37*
G36*
X369949D02*
X369972Y273188D01*
X369985Y273100D01*
X370002Y273028D01*
X370021Y272972D01*
X370044Y272932D01*
X370070Y272908D01*
X370098Y272900D01*
X368748Y272888D01*
X368824Y272897D01*
X368892Y272921D01*
X368952Y272962D01*
X369004Y273019D01*
X369048Y273093D01*
X369084Y273182D01*
X369112Y273287D01*
X369132Y273409D01*
X369144Y273546D01*
X369148Y273700D01*
X369948D01*
X369949Y273548D01*
D02*
G37*
G36*
X351750Y273546D02*
X351762Y273409D01*
X351782Y273287D01*
X351810Y273182D01*
X351846Y273093D01*
X351890Y273020D01*
X351942Y272962D01*
X352002Y272921D01*
X352070Y272897D01*
X352146Y272888D01*
X350822Y272900D01*
X350846Y272908D01*
X350867Y272932D01*
X350885Y272972D01*
X350901Y273028D01*
X350915Y273100D01*
X350926Y273188D01*
X350941Y273412D01*
X350946Y273700D01*
X351746D01*
X351750Y273546D01*
D02*
G37*
G36*
X309157Y274882D02*
X309055Y274846D01*
X308965Y274785D01*
X308887Y274700D01*
X308821Y274591D01*
X308767Y274458D01*
X308725Y274300D01*
X308695Y274118D01*
X308677Y273912D01*
X308675Y273837D01*
X308677Y273761D01*
X308695Y273555D01*
X308725Y273373D01*
X308767Y273216D01*
X308821Y273082D01*
X308887Y272973D01*
X308965Y272888D01*
X309055Y272828D01*
X309157Y272791D01*
X309271Y272779D01*
X306871D01*
X306985Y272791D01*
X307087Y272828D01*
X307177Y272888D01*
X307255Y272973D01*
X307321Y273082D01*
X307375Y273216D01*
X307417Y273373D01*
X307447Y273555D01*
X307465Y273761D01*
X307467Y273837D01*
X307465Y273912D01*
X307447Y274118D01*
X307417Y274300D01*
X307375Y274458D01*
X307321Y274591D01*
X307255Y274700D01*
X307177Y274785D01*
X307087Y274846D01*
X306985Y274882D01*
X306871Y274894D01*
X309271D01*
X309157Y274882D01*
D02*
G37*
G36*
X521047Y274914D02*
X520945Y274877D01*
X520855Y274816D01*
X520777Y274732D01*
X520711Y274623D01*
X520657Y274489D01*
X520615Y274332D01*
X520585Y274150D01*
X520567Y273944D01*
X520563Y273819D01*
X520567Y273694D01*
X520585Y273488D01*
X520615Y273306D01*
X520657Y273148D01*
X520711Y273015D01*
X520777Y272906D01*
X520855Y272821D01*
X520945Y272761D01*
X521047Y272724D01*
X521161Y272712D01*
X518761D01*
X518875Y272724D01*
X518977Y272761D01*
X519067Y272821D01*
X519145Y272906D01*
X519211Y273015D01*
X519265Y273148D01*
X519307Y273306D01*
X519337Y273488D01*
X519355Y273694D01*
X519358Y273819D01*
X519355Y273944D01*
X519337Y274150D01*
X519307Y274332D01*
X519265Y274489D01*
X519211Y274623D01*
X519145Y274732D01*
X519067Y274816D01*
X518977Y274877D01*
X518875Y274914D01*
X518761Y274926D01*
X521161D01*
X521047Y274914D01*
D02*
G37*
G36*
X475635Y273143D02*
X475658Y272892D01*
X475678Y272789D01*
X475704Y272703D01*
X475736Y272632D01*
X475773Y272577D01*
X475817Y272538D01*
X475866Y272514D01*
X475920Y272506D01*
X474544D01*
X474599Y272514D01*
X474648Y272538D01*
X474691Y272577D01*
X474729Y272632D01*
X474760Y272703D01*
X474786Y272789D01*
X474806Y272892D01*
X474821Y273010D01*
X474829Y273143D01*
X474832Y273293D01*
X475632D01*
X475635Y273143D01*
D02*
G37*
G36*
X473171Y273154D02*
X473191Y272898D01*
X473209Y272794D01*
X473232Y272706D01*
X473259Y272634D01*
X473292Y272578D01*
X473330Y272538D01*
X473373Y272514D01*
X473420Y272506D01*
X472044D01*
X472106Y272514D01*
X472161Y272538D01*
X472210Y272578D01*
X472252Y272634D01*
X472288Y272706D01*
X472317Y272794D01*
X472340Y272898D01*
X472356Y273018D01*
X472366Y273154D01*
X472369Y273306D01*
X473169D01*
X473171Y273154D01*
D02*
G37*
G36*
X465435D02*
X465458Y272898D01*
X465478Y272794D01*
X465504Y272706D01*
X465536Y272634D01*
X465573Y272578D01*
X465617Y272538D01*
X465665Y272514D01*
X465720Y272506D01*
X464344D01*
X464399Y272514D01*
X464448Y272538D01*
X464491Y272578D01*
X464529Y272634D01*
X464560Y272706D01*
X464586Y272794D01*
X464606Y272898D01*
X464621Y273018D01*
X464629Y273154D01*
X464632Y273306D01*
X465432D01*
X465435Y273154D01*
D02*
G37*
G36*
X462835D02*
X462858Y272898D01*
X462878Y272794D01*
X462904Y272706D01*
X462936Y272634D01*
X462973Y272578D01*
X463017Y272538D01*
X463065Y272514D01*
X463120Y272506D01*
X461744D01*
X461799Y272514D01*
X461848Y272538D01*
X461891Y272578D01*
X461929Y272634D01*
X461960Y272706D01*
X461986Y272794D01*
X462006Y272898D01*
X462021Y273018D01*
X462029Y273154D01*
X462032Y273306D01*
X462832D01*
X462835Y273154D01*
D02*
G37*
G36*
X457735D02*
X457758Y272898D01*
X457778Y272794D01*
X457804Y272706D01*
X457836Y272634D01*
X457873Y272578D01*
X457917Y272538D01*
X457966Y272514D01*
X458020Y272506D01*
X456644D01*
X456699Y272514D01*
X456748Y272538D01*
X456791Y272578D01*
X456829Y272634D01*
X456860Y272706D01*
X456886Y272794D01*
X456906Y272898D01*
X456921Y273018D01*
X456929Y273154D01*
X456932Y273306D01*
X457732D01*
X457735Y273154D01*
D02*
G37*
G36*
X450022D02*
X450046Y272898D01*
X450068Y272794D01*
X450095Y272706D01*
X450128Y272634D01*
X450167Y272578D01*
X450212Y272538D01*
X450263Y272514D01*
X450320Y272506D01*
X448944D01*
X448996Y272514D01*
X449043Y272538D01*
X449085Y272578D01*
X449120Y272634D01*
X449151Y272706D01*
X449175Y272794D01*
X449194Y272898D01*
X449208Y273018D01*
X449217Y273154D01*
X449219Y273306D01*
X450019D01*
X450022Y273154D01*
D02*
G37*
G36*
X447535D02*
X447558Y272898D01*
X447578Y272794D01*
X447604Y272706D01*
X447636Y272634D01*
X447673Y272578D01*
X447717Y272538D01*
X447765Y272514D01*
X447820Y272506D01*
X446444D01*
X446499Y272514D01*
X446548Y272538D01*
X446591Y272578D01*
X446629Y272634D01*
X446660Y272706D01*
X446686Y272794D01*
X446706Y272898D01*
X446721Y273018D01*
X446729Y273154D01*
X446732Y273306D01*
X447532D01*
X447535Y273154D01*
D02*
G37*
G36*
X444863D02*
X444874Y273018D01*
X444892Y272898D01*
X444917Y272794D01*
X444949Y272706D01*
X444989Y272634D01*
X445036Y272578D01*
X445090Y272538D01*
X445152Y272514D01*
X445220Y272506D01*
X443844D01*
X443885Y272514D01*
X443922Y272538D01*
X443954Y272578D01*
X443982Y272634D01*
X444005Y272706D01*
X444025Y272794D01*
X444040Y272898D01*
X444051Y273018D01*
X444059Y273306D01*
X444859D01*
X444863Y273154D01*
D02*
G37*
G36*
X528172Y270039D02*
X528087Y270121D01*
X527999Y270193D01*
X527909Y270257D01*
X527815Y270312D01*
X527719Y270359D01*
X527620Y270398D01*
X527518Y270428D01*
X527414Y270449D01*
X527306Y270462D01*
X527305Y270462D01*
X527169Y270450D01*
X527047Y270430D01*
X526941Y270402D01*
X526852Y270366D01*
X526779Y270322D01*
X526722Y270270D01*
X526682Y270210D01*
X526657Y270142D01*
X526649Y270066D01*
Y271666D01*
X526657Y271590D01*
X526682Y271522D01*
X526722Y271462D01*
X526779Y271410D01*
X526852Y271366D01*
X526941Y271330D01*
X527047Y271302D01*
X527169Y271282D01*
X527305Y271270D01*
X527306Y271270D01*
X527414Y271283D01*
X527518Y271305D01*
X527620Y271334D01*
X527719Y271373D01*
X527815Y271420D01*
X527909Y271475D01*
X527999Y271539D01*
X528087Y271612D01*
X528172Y271693D01*
Y270039D01*
D02*
G37*
G36*
X270305Y271980D02*
X270333Y271913D01*
X270379Y271854D01*
X270444Y271802D01*
X270528Y271759D01*
X270631Y271723D01*
X270752Y271695D01*
X270891Y271676D01*
X271049Y271664D01*
X271226Y271660D01*
Y270860D01*
X271049Y270856D01*
X270891Y270844D01*
X270752Y270824D01*
X270631Y270796D01*
X270528Y270761D01*
X270444Y270718D01*
X270379Y270666D01*
X270333Y270607D01*
X270305Y270539D01*
X270295Y270464D01*
Y272055D01*
X270305Y271980D01*
D02*
G37*
G36*
X477080Y268858D02*
X476995Y268939D01*
X476907Y269012D01*
X476817Y269076D01*
X476723Y269131D01*
X476627Y269178D01*
X476528Y269217D01*
X476426Y269247D01*
X476368Y269258D01*
X476312Y269249D01*
X476208Y269221D01*
X476120Y269185D01*
X476048Y269141D01*
X475992Y269089D01*
X475952Y269029D01*
X475928Y268961D01*
X475920Y268885D01*
Y270485D01*
X475928Y270409D01*
X475952Y270341D01*
X475992Y270281D01*
X476048Y270229D01*
X476120Y270185D01*
X476208Y270149D01*
X476312Y270121D01*
X476368Y270112D01*
X476426Y270123D01*
X476528Y270153D01*
X476627Y270192D01*
X476723Y270239D01*
X476817Y270294D01*
X476907Y270358D01*
X476995Y270431D01*
X477080Y270512D01*
Y268858D01*
D02*
G37*
G36*
X646678Y270067D02*
X646663Y270180D01*
X646618Y270281D01*
X646543Y270369D01*
X646439Y270446D01*
X646304Y270512D01*
X646139Y270565D01*
X645944Y270606D01*
X645719Y270636D01*
X645465Y270654D01*
X645180Y270660D01*
Y271860D01*
X645465Y271866D01*
X645944Y271913D01*
X646139Y271955D01*
X646304Y272008D01*
X646439Y272073D01*
X646543Y272150D01*
X646618Y272239D01*
X646663Y272340D01*
X646678Y272452D01*
Y270067D01*
D02*
G37*
G36*
X301107Y269733D02*
X301095Y269847D01*
X301058Y269949D01*
X300998Y270039D01*
X300913Y270117D01*
X300804Y270183D01*
X300670Y270237D01*
X300513Y270279D01*
X300331Y270309D01*
X300125Y270327D01*
X299895Y270333D01*
Y271533D01*
X300125Y271539D01*
X300331Y271557D01*
X300513Y271587D01*
X300670Y271629D01*
X300804Y271683D01*
X300913Y271749D01*
X300998Y271827D01*
X301058Y271917D01*
X301095Y272019D01*
X301107Y272133D01*
Y269733D01*
D02*
G37*
G36*
X390969Y268885D02*
X390961Y268961D01*
X390936Y269029D01*
X390896Y269089D01*
X390839Y269141D01*
X390766Y269185D01*
X390677Y269221D01*
X390571Y269249D01*
X390449Y269269D01*
X390311Y269281D01*
X390157Y269285D01*
Y270085D01*
X390311Y270089D01*
X390449Y270101D01*
X390571Y270121D01*
X390677Y270149D01*
X390766Y270185D01*
X390839Y270229D01*
X390896Y270281D01*
X390936Y270341D01*
X390961Y270409D01*
X390969Y270485D01*
Y268885D01*
D02*
G37*
G36*
X385394Y270409D02*
X385419Y270341D01*
X385459Y270281D01*
X385516Y270229D01*
X385589Y270185D01*
X385679Y270149D01*
X385784Y270121D01*
X385906Y270101D01*
X386044Y270089D01*
X386198Y270085D01*
Y269285D01*
X386044Y269281D01*
X385906Y269269D01*
X385784Y269249D01*
X385679Y269221D01*
X385589Y269185D01*
X385516Y269141D01*
X385459Y269089D01*
X385419Y269029D01*
X385394Y268961D01*
X385386Y268885D01*
Y270485D01*
X385394Y270409D01*
D02*
G37*
G36*
X349354Y270037D02*
X349442Y269965D01*
X349532Y269900D01*
X349626Y269845D01*
X349722Y269798D01*
X349821Y269760D01*
X349923Y269730D01*
X350027Y269708D01*
X350135Y269696D01*
X350155Y269695D01*
X350174Y269695D01*
X350310Y269707D01*
X350430Y269727D01*
X350534Y269755D01*
X350622Y269791D01*
X350694Y269835D01*
X350750Y269887D01*
X350790Y269947D01*
X350814Y270015D01*
X350822Y270091D01*
Y268491D01*
X350814Y268567D01*
X350790Y268635D01*
X350750Y268695D01*
X350694Y268747D01*
X350622Y268791D01*
X350534Y268827D01*
X350430Y268855D01*
X350310Y268875D01*
X350174Y268887D01*
X350155Y268888D01*
X350135Y268887D01*
X350027Y268874D01*
X349923Y268853D01*
X349821Y268823D01*
X349722Y268785D01*
X349626Y268738D01*
X349532Y268682D01*
X349442Y268618D01*
X349354Y268546D01*
X349269Y268465D01*
Y270118D01*
X349354Y270037D01*
D02*
G37*
G36*
X345260Y270015D02*
X345284Y269947D01*
X345325Y269887D01*
X345381Y269835D01*
X345455Y269791D01*
X345544Y269755D01*
X345650Y269727D01*
X345771Y269707D01*
X345909Y269695D01*
X346064Y269691D01*
Y268891D01*
X345909Y268887D01*
X345771Y268875D01*
X345650Y268855D01*
X345544Y268827D01*
X345455Y268791D01*
X345381Y268747D01*
X345325Y268695D01*
X345284Y268635D01*
X345260Y268567D01*
X345252Y268491D01*
Y270091D01*
X345260Y270015D01*
D02*
G37*
G36*
X347582Y268465D02*
X347497Y268546D01*
X347409Y268618D01*
X347318Y268682D01*
X347225Y268738D01*
X347128Y268785D01*
X347029Y268823D01*
X346928Y268853D01*
X346823Y268874D01*
X346715Y268887D01*
X346605Y268891D01*
Y269691D01*
X346715Y269696D01*
X346823Y269708D01*
X346928Y269730D01*
X347029Y269760D01*
X347128Y269798D01*
X347225Y269845D01*
X347318Y269900D01*
X347409Y269965D01*
X347497Y270037D01*
X347582Y270118D01*
Y268465D01*
D02*
G37*
G36*
X520783Y269011D02*
X520736Y268985D01*
X520695Y268940D01*
X520659Y268878D01*
X520629Y268799D01*
X520605Y268701D01*
X520585Y268586D01*
X520572Y268453D01*
X520561Y268134D01*
X519361D01*
X519358Y268302D01*
X519336Y268586D01*
X519317Y268701D01*
X519292Y268799D01*
X519262Y268878D01*
X519226Y268940D01*
X519185Y268985D01*
X519139Y269011D01*
X519087Y269020D01*
X520835D01*
X520783Y269011D01*
D02*
G37*
G36*
X309157Y269075D02*
X309055Y269039D01*
X308965Y268978D01*
X308887Y268893D01*
X308821Y268784D01*
X308767Y268651D01*
X308725Y268493D01*
X308695Y268311D01*
X308677Y268105D01*
X308674Y267980D01*
X308677Y267855D01*
X308695Y267649D01*
X308725Y267467D01*
X308767Y267310D01*
X308821Y267177D01*
X308887Y267068D01*
X308965Y266983D01*
X309055Y266922D01*
X309157Y266886D01*
X309271Y266874D01*
X306871D01*
X306985Y266886D01*
X307087Y266922D01*
X307177Y266983D01*
X307255Y267068D01*
X307321Y267177D01*
X307375Y267310D01*
X307417Y267467D01*
X307447Y267649D01*
X307465Y267855D01*
X307468Y267980D01*
X307465Y268105D01*
X307447Y268311D01*
X307417Y268493D01*
X307375Y268651D01*
X307321Y268784D01*
X307255Y268893D01*
X307177Y268978D01*
X307087Y269039D01*
X306985Y269075D01*
X306871Y269087D01*
X309271D01*
X309157Y269075D01*
D02*
G37*
G36*
X374981Y267131D02*
X374966Y267116D01*
X374953Y267091D01*
X374942Y267056D01*
X374932Y267011D01*
X374924Y266956D01*
X374914Y266816D01*
X374910Y266636D01*
X374110D01*
X374109Y266731D01*
X374088Y267011D01*
X374079Y267056D01*
X374067Y267091D01*
X374054Y267116D01*
X374039Y267131D01*
X374023Y267136D01*
X374998D01*
X374981Y267131D01*
D02*
G37*
G36*
X370043Y267117D02*
X369994Y267095D01*
X369951Y267060D01*
X369914Y267011D01*
X369882Y266947D01*
X369856Y266869D01*
X369836Y266777D01*
X369822Y266671D01*
X369813Y266551D01*
X369810Y266417D01*
X369010D01*
X369007Y266551D01*
X368984Y266777D01*
X368964Y266869D01*
X368938Y266947D01*
X368907Y267011D01*
X368869Y267060D01*
X368826Y267095D01*
X368777Y267117D01*
X368722Y267124D01*
X370098D01*
X370043Y267117D01*
D02*
G37*
G36*
X385337Y267116D02*
X385283Y267092D01*
X385235Y267052D01*
X385193Y266996D01*
X385158Y266924D01*
X385129Y266836D01*
X385107Y266732D01*
X385091Y266612D01*
X385081Y266476D01*
X385078Y266324D01*
X384278D01*
X384275Y266476D01*
X384255Y266732D01*
X384237Y266836D01*
X384214Y266924D01*
X384186Y266996D01*
X384153Y267052D01*
X384114Y267092D01*
X384071Y267116D01*
X384022Y267124D01*
X385398D01*
X385337Y267116D01*
D02*
G37*
G36*
X455452Y266722D02*
X455392Y266698D01*
X455338Y266658D01*
X455292Y266602D01*
X455253Y266530D01*
X455221Y266442D01*
X455196Y266338D01*
X455178Y266218D01*
X455167Y266082D01*
X455164Y265930D01*
X454364D01*
X454362Y266082D01*
X454344Y266338D01*
X454329Y266442D01*
X454309Y266530D01*
X454285Y266602D01*
X454256Y266658D01*
X454223Y266698D01*
X454186Y266722D01*
X454144Y266730D01*
X455520D01*
X455452Y266722D01*
D02*
G37*
G36*
X452866D02*
X452817Y266698D01*
X452773Y266658D01*
X452736Y266602D01*
X452704Y266530D01*
X452678Y266442D01*
X452658Y266338D01*
X452644Y266218D01*
X452635Y266082D01*
X452632Y265930D01*
X451832D01*
X451829Y266082D01*
X451806Y266338D01*
X451786Y266442D01*
X451760Y266530D01*
X451729Y266602D01*
X451691Y266658D01*
X451648Y266698D01*
X451599Y266722D01*
X451544Y266730D01*
X452920D01*
X452866Y266722D01*
D02*
G37*
G36*
X521747Y266733D02*
X521764Y266536D01*
X521792Y266362D01*
X521831Y266212D01*
X521881Y266085D01*
X521943Y265980D01*
X522015Y265899D01*
X522099Y265841D01*
X522194Y265807D01*
X522300Y265795D01*
X519984D01*
X520090Y265807D01*
X520185Y265841D01*
X520268Y265899D01*
X520341Y265980D01*
X520402Y266085D01*
X520452Y266212D01*
X520492Y266362D01*
X520519Y266536D01*
X520536Y266733D01*
X520542Y266953D01*
X521742D01*
X521747Y266733D01*
D02*
G37*
G36*
X359738Y267116D02*
X359685Y267092D01*
X359637Y267052D01*
X359596Y266996D01*
X359562Y266924D01*
X359533Y266836D01*
X359511Y266732D01*
X359495Y266612D01*
X359494Y266597D01*
X359499Y266553D01*
X359520Y266448D01*
X359550Y266346D01*
X359587Y266246D01*
X359633Y266149D01*
X359688Y266054D01*
X359751Y265962D01*
X359822Y265872D01*
X359901Y265785D01*
X358248Y265823D01*
X358331Y265906D01*
X358405Y265992D01*
X358470Y266081D01*
X358526Y266173D01*
X358574Y266268D01*
X358613Y266366D01*
X358644Y266468D01*
X358665Y266572D01*
X358669Y266606D01*
X358659Y266732D01*
X358641Y266836D01*
X358618Y266924D01*
X358589Y266996D01*
X358555Y267052D01*
X358516Y267092D01*
X358472Y267116D01*
X358422Y267124D01*
X359798D01*
X359738Y267116D01*
D02*
G37*
G36*
X385078Y265981D02*
X385082Y265871D01*
X385095Y265764D01*
X385116Y265659D01*
X385145Y265557D01*
X385182Y265457D01*
X385228Y265359D01*
X385282Y265264D01*
X385345Y265172D01*
X385416Y265081D01*
X385495Y264994D01*
X383842Y265039D01*
X383925Y265121D01*
X383999Y265207D01*
X384065Y265296D01*
X384121Y265388D01*
X384169Y265482D01*
X384208Y265581D01*
X384239Y265682D01*
X384261Y265786D01*
X384274Y265894D01*
X384278Y266004D01*
X385078Y265981D01*
D02*
G37*
G36*
X270305Y266075D02*
X270333Y266007D01*
X270379Y265948D01*
X270444Y265897D01*
X270528Y265853D01*
X270631Y265818D01*
X270752Y265790D01*
X270891Y265770D01*
X271049Y265758D01*
X271226Y265754D01*
Y264954D01*
X271049Y264950D01*
X270891Y264938D01*
X270752Y264919D01*
X270631Y264891D01*
X270528Y264856D01*
X270444Y264812D01*
X270379Y264761D01*
X270333Y264701D01*
X270305Y264634D01*
X270295Y264559D01*
Y266150D01*
X270305Y266075D01*
D02*
G37*
G36*
X299747Y265773D02*
X299835Y265701D01*
X299926Y265637D01*
X300019Y265581D01*
X300116Y265534D01*
X300215Y265496D01*
X300317Y265466D01*
X300421Y265445D01*
X300496Y265436D01*
X300587Y265444D01*
X300709Y265464D01*
X300814Y265492D01*
X300904Y265528D01*
X300977Y265572D01*
X301034Y265624D01*
X301074Y265684D01*
X301099Y265752D01*
X301107Y265828D01*
Y264228D01*
X301099Y264304D01*
X301074Y264372D01*
X301034Y264432D01*
X300977Y264484D01*
X300904Y264528D01*
X300814Y264564D01*
X300709Y264592D01*
X300587Y264612D01*
X300496Y264619D01*
X300421Y264611D01*
X300317Y264589D01*
X300215Y264559D01*
X300116Y264521D01*
X300019Y264474D01*
X299926Y264418D01*
X299835Y264354D01*
X299747Y264282D01*
X299662Y264201D01*
Y265854D01*
X299747Y265773D01*
D02*
G37*
G36*
X445869Y265698D02*
X445954Y265631D01*
X446043Y265572D01*
X446136Y265521D01*
X446233Y265478D01*
X446334Y265444D01*
X446440Y265417D01*
X446549Y265398D01*
X446663Y265387D01*
X446780Y265384D01*
X445611Y264215D01*
X445608Y264333D01*
X445597Y264446D01*
X445578Y264555D01*
X445551Y264661D01*
X445516Y264762D01*
X445474Y264859D01*
X445423Y264952D01*
X445364Y265041D01*
X445297Y265126D01*
X445222Y265207D01*
X445788Y265773D01*
X445869Y265698D01*
D02*
G37*
G36*
X646678Y264162D02*
X646663Y264274D01*
X646618Y264375D01*
X646543Y264464D01*
X646439Y264541D01*
X646304Y264606D01*
X646139Y264660D01*
X645944Y264701D01*
X645719Y264731D01*
X645465Y264748D01*
X645180Y264754D01*
Y265954D01*
X645465Y265960D01*
X645944Y266008D01*
X646139Y266049D01*
X646304Y266103D01*
X646439Y266168D01*
X646543Y266245D01*
X646618Y266334D01*
X646663Y266434D01*
X646678Y266547D01*
Y264162D01*
D02*
G37*
G36*
X446559Y297388D02*
X446617Y297371D01*
X446694Y297339D01*
X446789Y297289D01*
X446900Y297220D01*
X447015Y297137D01*
X447322Y296874D01*
X447487Y296713D01*
X447566Y296661D01*
X447784Y296444D01*
X448099Y296261D01*
X448161Y296205D01*
X448174Y296197D01*
X448178Y296178D01*
X448179Y296170D01*
Y296063D01*
X448179Y296063D01*
X448192Y295998D01*
Y293832D01*
X447821Y293520D01*
X444565D01*
Y289961D01*
X444065D01*
Y289461D01*
X440309D01*
Y286402D01*
Y280102D01*
X443726D01*
X443832Y279925D01*
X443549Y279425D01*
X440471D01*
Y277165D01*
Y274905D01*
X442113D01*
X442117Y274887D01*
X442426Y274424D01*
X442832Y274018D01*
X442625Y273518D01*
X442532D01*
Y272642D01*
X442536Y272634D01*
X442573Y272578D01*
X442617Y272538D01*
X442665Y272514D01*
X442720Y272506D01*
X442532D01*
Y269618D01*
Y265718D01*
X443346D01*
X443523Y265453D01*
X444545Y264432D01*
X444549Y264426D01*
X444558Y264408D01*
X444566Y264390D01*
X444574Y264368D01*
X444580Y264343D01*
X444586Y264311D01*
X444590Y264272D01*
X444591Y264191D01*
X444611Y264105D01*
Y263769D01*
X444720Y263505D01*
X444443Y263089D01*
X419319D01*
X419290Y263094D01*
X419247Y263103D01*
X419202Y263116D01*
X419154Y263133D01*
X419117Y263149D01*
X419016Y263203D01*
X418952Y263266D01*
X418150Y263598D01*
X417283D01*
X416481Y263266D01*
X416101Y262886D01*
X415601Y263093D01*
Y279539D01*
X415601Y279539D01*
X415492Y280085D01*
X415183Y280548D01*
X415182Y280548D01*
X399593Y296138D01*
X399800Y296638D01*
X400040D01*
X400842Y296970D01*
X401079Y297207D01*
X401153Y297254D01*
X401212Y297310D01*
X401242Y297335D01*
X401268Y297354D01*
X401291Y297367D01*
X401312Y297377D01*
X401331Y297384D01*
X401350Y297390D01*
X401357Y297392D01*
X446543D01*
X446559Y297388D01*
D02*
G37*
G36*
X509276Y262986D02*
X509268Y263062D01*
X509243Y263130D01*
X509203Y263190D01*
X509146Y263242D01*
X509073Y263286D01*
X508984Y263322D01*
X508878Y263350D01*
X508756Y263370D01*
X508618Y263382D01*
X508464Y263386D01*
Y264186D01*
X508618Y264190D01*
X508756Y264202D01*
X508878Y264222D01*
X508984Y264250D01*
X509073Y264286D01*
X509146Y264330D01*
X509203Y264382D01*
X509243Y264442D01*
X509268Y264510D01*
X509276Y264586D01*
Y262986D01*
D02*
G37*
G36*
X308477Y263175D02*
X308476Y263157D01*
X308474Y262566D01*
X307274D01*
X307270Y263181D01*
X308478D01*
X308477Y263175D01*
D02*
G37*
G36*
X338724Y263738D02*
X338812Y263665D01*
X338902Y263601D01*
X338996Y263546D01*
X339092Y263499D01*
X339191Y263460D01*
X339293Y263431D01*
X339343Y263420D01*
X339390Y263428D01*
X339495Y263456D01*
X339585Y263492D01*
X339658Y263536D01*
X339715Y263588D01*
X339755Y263648D01*
X339780Y263716D01*
X339788Y263792D01*
Y262192D01*
X339780Y262268D01*
X339755Y262336D01*
X339715Y262396D01*
X339658Y262448D01*
X339585Y262492D01*
X339495Y262528D01*
X339390Y262556D01*
X339343Y262564D01*
X339293Y262554D01*
X339191Y262524D01*
X339092Y262485D01*
X338996Y262439D01*
X338902Y262383D01*
X338812Y262319D01*
X338724Y262246D01*
X338639Y262165D01*
Y263819D01*
X338724Y263738D01*
D02*
G37*
G36*
X418473Y262336D02*
X418679Y262228D01*
X418783Y262183D01*
X418887Y262146D01*
X418992Y262116D01*
X419097Y262092D01*
X419202Y262075D01*
X419309Y262065D01*
X419415Y262061D01*
X419596Y261261D01*
X419483Y261257D01*
X419376Y261242D01*
X419274Y261218D01*
X419177Y261185D01*
X419086Y261142D01*
X419000Y261089D01*
X418920Y261027D01*
X418846Y260955D01*
X418776Y260874D01*
X418713Y260783D01*
X418371Y262401D01*
X418473Y262336D01*
D02*
G37*
G36*
X306904Y260792D02*
X306938Y260457D01*
X306969Y260321D01*
X307008Y260206D01*
X307056Y260112D01*
X307112Y260039D01*
X307177Y259986D01*
X307251Y259955D01*
X307334Y259945D01*
X305265D01*
X305347Y259955D01*
X305421Y259986D01*
X305486Y260039D01*
X305543Y260112D01*
X305591Y260206D01*
X305630Y260321D01*
X305660Y260457D01*
X305682Y260614D01*
X305695Y260792D01*
X305699Y260991D01*
X306899D01*
X306904Y260792D01*
D02*
G37*
G36*
X404319Y260236D02*
X404201Y260233D01*
X404088Y260223D01*
X403979Y260204D01*
X403873Y260177D01*
X403772Y260142D01*
X403675Y260099D01*
X403582Y260048D01*
X403493Y259989D01*
X403408Y259923D01*
X403327Y259848D01*
X402761Y260413D01*
X402836Y260494D01*
X402903Y260579D01*
X402962Y260668D01*
X403013Y260761D01*
X403055Y260859D01*
X403090Y260960D01*
X403117Y261065D01*
X403136Y261175D01*
X403147Y261288D01*
X403150Y261405D01*
X404319Y260236D01*
D02*
G37*
G36*
X460432Y266730D02*
X460620D01*
X460585Y266722D01*
X460554Y266698D01*
X460527Y266658D01*
X460503Y266602D01*
X460483Y266530D01*
X460467Y266442D01*
X460454Y266338D01*
X460439Y266082D01*
X460437Y265930D01*
X460432D01*
Y265891D01*
X460437Y265892D01*
X460442Y265780D01*
X460450Y265718D01*
X461811D01*
Y252362D01*
X459055Y249606D01*
Y245055D01*
X458555Y244903D01*
X458342Y245223D01*
X458342Y245223D01*
X457279Y246285D01*
X456816Y246594D01*
X456270Y246703D01*
X456270Y246703D01*
X453514D01*
X453514Y246703D01*
X452968Y246594D01*
X452505Y246285D01*
X452505Y246285D01*
X451223Y245003D01*
X450913Y244540D01*
X450909Y244518D01*
X443974D01*
X443906Y244586D01*
X443849Y245125D01*
X443946Y245221D01*
X444278Y246023D01*
Y246890D01*
X444136Y247233D01*
Y249242D01*
X443981Y250022D01*
X443539Y250684D01*
X440025Y254198D01*
X439363Y254640D01*
X438583Y254795D01*
X417706D01*
X417363Y254937D01*
X416495D01*
X416101Y254774D01*
X415601Y255108D01*
Y259742D01*
X416101Y259949D01*
X416481Y259568D01*
X417037Y259338D01*
X417283Y259199D01*
X417288Y258736D01*
X417110Y258308D01*
Y257440D01*
X417442Y256639D01*
X418056Y256025D01*
X418857Y255693D01*
X419725D01*
X420527Y256025D01*
X421140Y256639D01*
X421472Y257440D01*
Y257775D01*
X421492Y257861D01*
X421494Y257943D01*
X421497Y257981D01*
X421503Y258013D01*
X421509Y258039D01*
X421517Y258060D01*
X421525Y258079D01*
X421534Y258097D01*
X421538Y258102D01*
X422070Y258634D01*
X444218D01*
X444415Y258595D01*
X444416Y258595D01*
X451754D01*
X451755Y258595D01*
X452301Y258703D01*
X452764Y259013D01*
X455773Y262022D01*
X455773Y262022D01*
X456082Y262485D01*
X456191Y263032D01*
X456191Y263032D01*
Y265718D01*
X459432D01*
Y266667D01*
X459386Y266698D01*
X459319Y266722D01*
X459244Y266730D01*
X459432D01*
Y269618D01*
X460432D01*
Y266730D01*
D02*
G37*
G36*
X420861Y258878D02*
X420786Y258797D01*
X420719Y258712D01*
X420660Y258623D01*
X420610Y258530D01*
X420567Y258433D01*
X420532Y258331D01*
X420505Y258226D01*
X420486Y258117D01*
X420475Y258003D01*
X420472Y257886D01*
X419303Y259055D01*
X419421Y259058D01*
X419534Y259069D01*
X419643Y259087D01*
X419749Y259114D01*
X419850Y259149D01*
X419947Y259192D01*
X420040Y259243D01*
X420129Y259302D01*
X420215Y259369D01*
X420295Y259444D01*
X420861Y258878D01*
D02*
G37*
G36*
X318567Y258271D02*
X318591Y258203D01*
X318632Y258143D01*
X318689Y258091D01*
X318762Y258047D01*
X318851Y258011D01*
X318957Y257983D01*
X319078Y257963D01*
X319216Y257951D01*
X319371Y257947D01*
Y257147D01*
X319216Y257143D01*
X319078Y257131D01*
X318957Y257111D01*
X318851Y257083D01*
X318762Y257047D01*
X318689Y257003D01*
X318632Y256951D01*
X318591Y256891D01*
X318567Y256823D01*
X318559Y256747D01*
Y258347D01*
X318567Y258271D01*
D02*
G37*
G36*
X405172Y256941D02*
X405088Y256860D01*
X405013Y256776D01*
X404947Y256688D01*
X404889Y256598D01*
X404841Y256504D01*
X404801Y256406D01*
X404770Y256305D01*
X404748Y256201D01*
X404735Y256094D01*
X404731Y255983D01*
X403931Y256021D01*
X403927Y256131D01*
X403914Y256238D01*
X403894Y256343D01*
X403865Y256446D01*
X403828Y256546D01*
X403783Y256645D01*
X403729Y256741D01*
X403668Y256835D01*
X403598Y256926D01*
X403520Y257015D01*
X405172Y256941D01*
D02*
G37*
G36*
X509197Y253931D02*
X509189Y254007D01*
X509165Y254075D01*
X509124Y254135D01*
X509067Y254187D01*
X508994Y254231D01*
X508905Y254267D01*
X508799Y254295D01*
X508678Y254315D01*
X508539Y254327D01*
X508385Y254331D01*
Y255131D01*
X508539Y255135D01*
X508678Y255147D01*
X508799Y255167D01*
X508905Y255195D01*
X508994Y255231D01*
X509067Y255275D01*
X509124Y255327D01*
X509165Y255387D01*
X509189Y255455D01*
X509197Y255531D01*
Y253931D01*
D02*
G37*
G36*
X646678Y252351D02*
X646663Y252463D01*
X646618Y252564D01*
X646543Y252653D01*
X646439Y252730D01*
X646304Y252795D01*
X646139Y252849D01*
X645944Y252890D01*
X645719Y252920D01*
X645465Y252937D01*
X645180Y252943D01*
Y254143D01*
X645465Y254149D01*
X645944Y254197D01*
X646139Y254238D01*
X646304Y254292D01*
X646439Y254357D01*
X646543Y254434D01*
X646618Y254523D01*
X646663Y254623D01*
X646678Y254736D01*
Y252351D01*
D02*
G37*
G36*
X270106Y254623D02*
X270151Y254523D01*
X270226Y254434D01*
X270331Y254357D01*
X270466Y254292D01*
X270630Y254238D01*
X270825Y254197D01*
X271050Y254167D01*
X271305Y254149D01*
X271589Y254143D01*
Y252943D01*
X271305Y252937D01*
X270825Y252890D01*
X270630Y252849D01*
X270466Y252795D01*
X270331Y252730D01*
X270226Y252653D01*
X270151Y252564D01*
X270106Y252463D01*
X270091Y252351D01*
Y254736D01*
X270106Y254623D01*
D02*
G37*
G36*
X522487Y251923D02*
X522413Y251892D01*
X522348Y251839D01*
X522292Y251766D01*
X522244Y251672D01*
X522205Y251557D01*
X522175Y251421D01*
X522153Y251264D01*
X522140Y251086D01*
X522135Y250887D01*
X520935D01*
X520931Y251086D01*
X520896Y251421D01*
X520866Y251557D01*
X520827Y251672D01*
X520779Y251766D01*
X520722Y251839D01*
X520657Y251892D01*
X520583Y251923D01*
X520501Y251934D01*
X522570D01*
X522487Y251923D01*
D02*
G37*
G36*
X484998Y251827D02*
X484925Y251740D01*
X484861Y251649D01*
X484806Y251555D01*
X484759Y251459D01*
X484720Y251360D01*
X484690Y251258D01*
X484669Y251154D01*
X484656Y251046D01*
X484653Y250956D01*
X484656Y250831D01*
X484668Y250693D01*
X484688Y250571D01*
X484716Y250465D01*
X484752Y250376D01*
X484796Y250303D01*
X484848Y250246D01*
X484908Y250205D01*
X484976Y250181D01*
X485052Y250173D01*
X483452D01*
X483528Y250181D01*
X483596Y250205D01*
X483656Y250246D01*
X483708Y250303D01*
X483752Y250376D01*
X483788Y250465D01*
X483816Y250571D01*
X483836Y250693D01*
X483848Y250831D01*
X483851Y250956D01*
X483848Y251046D01*
X483835Y251154D01*
X483814Y251258D01*
X483784Y251360D01*
X483745Y251459D01*
X483698Y251555D01*
X483643Y251649D01*
X483579Y251740D01*
X483506Y251827D01*
X483425Y251912D01*
X485079D01*
X484998Y251827D01*
D02*
G37*
G36*
X520564Y248696D02*
X519357D01*
X519358Y248703D01*
X519358Y248721D01*
X519361Y249312D01*
X520561D01*
X520564Y248696D01*
D02*
G37*
G36*
X318567Y249216D02*
X318591Y249148D01*
X318632Y249088D01*
X318689Y249036D01*
X318762Y248992D01*
X318851Y248956D01*
X318956Y248928D01*
X319078Y248908D01*
X319216Y248896D01*
X319371Y248892D01*
Y248092D01*
X319216Y248088D01*
X319078Y248076D01*
X318956Y248056D01*
X318851Y248028D01*
X318762Y247992D01*
X318689Y247948D01*
X318632Y247896D01*
X318591Y247836D01*
X318567Y247768D01*
X318559Y247692D01*
Y249292D01*
X318567Y249216D01*
D02*
G37*
G36*
X528172Y246024D02*
X528087Y246105D01*
X527999Y246177D01*
X527909Y246241D01*
X527815Y246297D01*
X527719Y246344D01*
X527620Y246382D01*
X527518Y246412D01*
X527414Y246433D01*
X527388Y246436D01*
X527366Y246434D01*
X527244Y246414D01*
X527138Y246386D01*
X527049Y246350D01*
X526976Y246306D01*
X526919Y246254D01*
X526878Y246194D01*
X526854Y246126D01*
X526846Y246050D01*
Y247650D01*
X526854Y247574D01*
X526878Y247506D01*
X526919Y247446D01*
X526976Y247394D01*
X527049Y247350D01*
X527138Y247314D01*
X527244Y247286D01*
X527366Y247266D01*
X527388Y247264D01*
X527414Y247268D01*
X527518Y247289D01*
X527620Y247319D01*
X527719Y247357D01*
X527815Y247404D01*
X527909Y247460D01*
X527999Y247523D01*
X528087Y247596D01*
X528172Y247677D01*
Y246024D01*
D02*
G37*
G36*
X285823Y247927D02*
X285785Y247869D01*
X285751Y247803D01*
X285721Y247727D01*
X285696Y247644D01*
X285676Y247551D01*
X285660Y247450D01*
X285648Y247340D01*
X285639Y247093D01*
X284439D01*
X284437Y247221D01*
X284419Y247450D01*
X284403Y247551D01*
X284383Y247644D01*
X284358Y247727D01*
X284328Y247803D01*
X284294Y247869D01*
X284256Y247927D01*
X284213Y247975D01*
X285866D01*
X285823Y247927D01*
D02*
G37*
G36*
X646678Y246445D02*
X646663Y246558D01*
X646618Y246658D01*
X646543Y246747D01*
X646439Y246824D01*
X646304Y246890D01*
X646139Y246943D01*
X645944Y246985D01*
X645719Y247014D01*
X645465Y247032D01*
X645180Y247038D01*
Y248238D01*
X645465Y248244D01*
X645944Y248291D01*
X646139Y248333D01*
X646304Y248386D01*
X646439Y248451D01*
X646543Y248528D01*
X646618Y248617D01*
X646663Y248718D01*
X646678Y248831D01*
Y246445D01*
D02*
G37*
G36*
X270106Y248718D02*
X270151Y248617D01*
X270226Y248528D01*
X270331Y248451D01*
X270466Y248386D01*
X270630Y248333D01*
X270825Y248291D01*
X271050Y248261D01*
X271305Y248244D01*
X271589Y248238D01*
Y247038D01*
X271305Y247032D01*
X270825Y246985D01*
X270630Y246943D01*
X270466Y246890D01*
X270331Y246824D01*
X270226Y246747D01*
X270151Y246658D01*
X270106Y246558D01*
X270091Y246445D01*
Y248831D01*
X270106Y248718D01*
D02*
G37*
G36*
X416495Y250575D02*
X417363D01*
X417706Y250717D01*
X429315D01*
Y247811D01*
X430234D01*
X430266Y247840D01*
X430306Y247900D01*
X430331Y247968D01*
X430339Y248044D01*
Y247811D01*
X433071D01*
Y246811D01*
X430339D01*
Y246444D01*
X430331Y246520D01*
X430306Y246588D01*
X430266Y246648D01*
X430209Y246700D01*
X430136Y246744D01*
X430047Y246780D01*
X429941Y246808D01*
X429923Y246811D01*
X429477D01*
X429450Y246806D01*
X429349Y246776D01*
X429315Y246763D01*
Y243752D01*
Y237453D01*
X436827D01*
Y239517D01*
X440332D01*
Y237761D01*
X440325Y237721D01*
X440331Y237693D01*
X440327Y237665D01*
X440332Y237644D01*
Y236718D01*
X439850Y236676D01*
X438903D01*
Y235682D01*
X438963Y235661D01*
X439039Y235652D01*
X438903D01*
Y234417D01*
Y232157D01*
X441267D01*
X441458Y231695D01*
X441106Y231343D01*
X440797Y230880D01*
X440707Y230429D01*
X439934D01*
Y225476D01*
Y220949D01*
X444297D01*
Y225476D01*
Y230429D01*
X444297Y230429D01*
X444297D01*
X444591Y230790D01*
X445223Y231422D01*
X445723Y231215D01*
Y226228D01*
X458943D01*
X459055Y225775D01*
Y225532D01*
X458943Y225079D01*
X445723D01*
Y219895D01*
X445312Y219485D01*
X427809D01*
X415601Y231694D01*
Y250404D01*
X416101Y250738D01*
X416495Y250575D01*
D02*
G37*
G36*
X375235Y245347D02*
X375218Y245346D01*
X375195Y245338D01*
X375166Y245322D01*
X375131Y245299D01*
X375090Y245267D01*
X374989Y245180D01*
X374793Y244992D01*
X374227Y245557D01*
X374284Y245615D01*
X374414Y245763D01*
X374443Y245803D01*
X374465Y245839D01*
X374481Y245870D01*
X374490Y245897D01*
X374492Y245919D01*
X374487Y245937D01*
X375235Y245347D01*
D02*
G37*
G36*
X307745Y246071D02*
X307650Y246037D01*
X307566Y245979D01*
X307494Y245898D01*
X307432Y245793D01*
X307382Y245666D01*
X307343Y245515D01*
X307315Y245342D01*
X307298Y245145D01*
X307293Y244925D01*
X306093D01*
X306087Y245145D01*
X306071Y245342D01*
X306043Y245515D01*
X306004Y245666D01*
X305954Y245793D01*
X305892Y245898D01*
X305820Y245979D01*
X305736Y246037D01*
X305641Y246071D01*
X305535Y246083D01*
X307851D01*
X307745Y246071D01*
D02*
G37*
G36*
X381135Y246297D02*
X381145Y246184D01*
X381164Y246075D01*
X381191Y245969D01*
X381226Y245868D01*
X381269Y245771D01*
X381320Y245678D01*
X381379Y245588D01*
X381446Y245503D01*
X381521Y245423D01*
X380955Y244857D01*
X380874Y244932D01*
X380789Y244999D01*
X380700Y245058D01*
X380607Y245109D01*
X380509Y245151D01*
X380408Y245186D01*
X380303Y245213D01*
X380193Y245232D01*
X380080Y245243D01*
X379963Y245246D01*
X381132Y246415D01*
X381135Y246297D01*
D02*
G37*
G36*
X442900Y245591D02*
X442817Y245509D01*
X442743Y245423D01*
X442678Y245334D01*
X442621Y245242D01*
X442573Y245147D01*
X442534Y245049D01*
X442504Y244948D01*
X442482Y244844D01*
X442469Y244736D01*
X442464Y244626D01*
X441665Y244649D01*
X441660Y244759D01*
X441648Y244866D01*
X441627Y244971D01*
X441598Y245073D01*
X441560Y245173D01*
X441514Y245271D01*
X441460Y245366D01*
X441397Y245458D01*
X441327Y245549D01*
X441247Y245636D01*
X442900Y245591D01*
D02*
G37*
G36*
X374913Y244548D02*
X374936Y244292D01*
X374956Y244188D01*
X374982Y244100D01*
X375014Y244028D01*
X375051Y243972D01*
X375095Y243932D01*
X375144Y243908D01*
X375198Y243900D01*
X373822D01*
X373877Y243908D01*
X373926Y243932D01*
X373969Y243972D01*
X374007Y244028D01*
X374038Y244100D01*
X374064Y244188D01*
X374084Y244292D01*
X374099Y244412D01*
X374107Y244548D01*
X374110Y244700D01*
X374910D01*
X374913Y244548D01*
D02*
G37*
G36*
X372824Y245567D02*
X372739Y245487D01*
X372663Y245404D01*
X372597Y245318D01*
X372539Y245228D01*
X372490Y245134D01*
X372450Y245038D01*
X372419Y244937D01*
X372396Y244833D01*
X372383Y244725D01*
X372380Y244637D01*
X372381Y244548D01*
X372398Y244292D01*
X372414Y244188D01*
X372434Y244100D01*
X372458Y244028D01*
X372486Y243972D01*
X372519Y243932D01*
X372556Y243908D01*
X372598Y243900D01*
X371222D01*
X371290Y243908D01*
X371351Y243932D01*
X371404Y243972D01*
X371450Y244028D01*
X371490Y244100D01*
X371522Y244188D01*
X371547Y244292D01*
X371565Y244412D01*
X371575Y244548D01*
X371578Y244678D01*
X371575Y244773D01*
X371563Y244880D01*
X371542Y244986D01*
X371514Y245089D01*
X371477Y245189D01*
X371433Y245288D01*
X371380Y245385D01*
X371319Y245480D01*
X371250Y245572D01*
X371173Y245663D01*
X372824Y245567D01*
D02*
G37*
G36*
X468494Y244807D02*
X468412Y244724D01*
X468338Y244638D01*
X468273Y244549D01*
X468216Y244457D01*
X468168Y244362D01*
X468129Y244264D01*
X468099Y244162D01*
X468077Y244058D01*
X468073Y244024D01*
X468083Y243898D01*
X468102Y243794D01*
X468125Y243706D01*
X468154Y243634D01*
X468187Y243578D01*
X468226Y243538D01*
X468271Y243514D01*
X468320Y243506D01*
X466944D01*
X467004Y243514D01*
X467058Y243538D01*
X467105Y243578D01*
X467146Y243634D01*
X467181Y243706D01*
X467209Y243794D01*
X467231Y243898D01*
X467247Y244018D01*
X467248Y244033D01*
X467243Y244077D01*
X467222Y244182D01*
X467193Y244284D01*
X467155Y244384D01*
X467109Y244481D01*
X467055Y244576D01*
X466992Y244668D01*
X466921Y244758D01*
X466841Y244845D01*
X468494Y244807D01*
D02*
G37*
G36*
X457735Y244079D02*
X457758Y243853D01*
X457778Y243761D01*
X457804Y243683D01*
X457836Y243619D01*
X457873Y243570D01*
X457917Y243534D01*
X457966Y243513D01*
X458020Y243506D01*
X456644D01*
X456699Y243513D01*
X456748Y243534D01*
X456791Y243570D01*
X456829Y243619D01*
X456860Y243683D01*
X456886Y243761D01*
X456906Y243853D01*
X456921Y243959D01*
X456929Y244079D01*
X456932Y244213D01*
X457732D01*
X457735Y244079D01*
D02*
G37*
G36*
X442467Y244154D02*
X442488Y243898D01*
X442506Y243794D01*
X442528Y243706D01*
X442557Y243634D01*
X442590Y243578D01*
X442628Y243538D01*
X442672Y243514D01*
X442720Y243506D01*
X441344D01*
X441405Y243514D01*
X441460Y243538D01*
X441508Y243578D01*
X441549Y243634D01*
X441584Y243706D01*
X441613Y243794D01*
X441636Y243898D01*
X441652Y244018D01*
X441661Y244154D01*
X441665Y244306D01*
X442464D01*
X442467Y244154D01*
D02*
G37*
G36*
X452633Y243899D02*
X452654Y243619D01*
X452664Y243574D01*
X452675Y243539D01*
X452688Y243514D01*
X452703Y243499D01*
X452720Y243494D01*
X451745D01*
X451761Y243499D01*
X451776Y243514D01*
X451789Y243539D01*
X451801Y243574D01*
X451810Y243619D01*
X451818Y243674D01*
X451829Y243814D01*
X451832Y243994D01*
X452632D01*
X452633Y243899D01*
D02*
G37*
G36*
X395792Y243295D02*
X395784Y243371D01*
X395759Y243439D01*
X395719Y243498D01*
X395662Y243550D01*
X395589Y243595D01*
X395499Y243631D01*
X395394Y243658D01*
X395272Y243678D01*
X395134Y243690D01*
X394980Y243694D01*
Y244495D01*
X395134Y244498D01*
X395272Y244511D01*
X395394Y244531D01*
X395499Y244559D01*
X395589Y244595D01*
X395662Y244638D01*
X395719Y244690D01*
X395759Y244750D01*
X395784Y244818D01*
X395792Y244895D01*
Y243295D01*
D02*
G37*
G36*
X393586Y244818D02*
X393611Y244750D01*
X393651Y244690D01*
X393708Y244638D01*
X393781Y244595D01*
X393871Y244559D01*
X393976Y244531D01*
X394098Y244511D01*
X394236Y244498D01*
X394390Y244495D01*
Y243694D01*
X394236Y243690D01*
X394098Y243678D01*
X393976Y243658D01*
X393871Y243631D01*
X393781Y243595D01*
X393708Y243550D01*
X393651Y243498D01*
X393611Y243439D01*
X393586Y243371D01*
X393578Y243295D01*
Y244895D01*
X393586Y244818D01*
D02*
G37*
G36*
X388724Y244840D02*
X388812Y244768D01*
X388902Y244704D01*
X388996Y244648D01*
X389092Y244601D01*
X389191Y244563D01*
X389293Y244533D01*
X389387Y244514D01*
X389488Y244531D01*
X389594Y244559D01*
X389683Y244595D01*
X389756Y244638D01*
X389813Y244690D01*
X389854Y244750D01*
X389878Y244818D01*
X389886Y244895D01*
Y243295D01*
X389878Y243371D01*
X389854Y243439D01*
X389813Y243498D01*
X389756Y243550D01*
X389683Y243595D01*
X389594Y243631D01*
X389488Y243658D01*
X389387Y243675D01*
X389293Y243656D01*
X389191Y243626D01*
X389092Y243588D01*
X388996Y243541D01*
X388902Y243485D01*
X388812Y243421D01*
X388724Y243349D01*
X388639Y243268D01*
X388639Y244921D01*
X388724Y244840D01*
D02*
G37*
G36*
X308477Y243576D02*
X308499Y243292D01*
X308518Y243177D01*
X308542Y243079D01*
X308573Y243000D01*
X308608Y242938D01*
X308649Y242893D01*
X308696Y242867D01*
X308748Y242858D01*
X307000D01*
X307052Y242867D01*
X307099Y242893D01*
X307140Y242938D01*
X307175Y243000D01*
X307206Y243079D01*
X307230Y243177D01*
X307249Y243292D01*
X307263Y243425D01*
X307274Y243744D01*
X308474D01*
X308477Y243576D01*
D02*
G37*
G36*
X520850Y244992D02*
X520748Y244956D01*
X520658Y244895D01*
X520580Y244810D01*
X520514Y244701D01*
X520460Y244568D01*
X520418Y244410D01*
X520388Y244229D01*
X520370Y244023D01*
X520366Y243898D01*
X520370Y243773D01*
X520388Y243567D01*
X520418Y243385D01*
X520460Y243227D01*
X520514Y243094D01*
X520580Y242985D01*
X520658Y242900D01*
X520748Y242839D01*
X520850Y242803D01*
X520964Y242791D01*
X518564D01*
X518678Y242803D01*
X518780Y242839D01*
X518870Y242900D01*
X518948Y242985D01*
X519014Y243094D01*
X519068Y243227D01*
X519110Y243385D01*
X519140Y243567D01*
X519158Y243773D01*
X519161Y243898D01*
X519158Y244023D01*
X519140Y244229D01*
X519110Y244410D01*
X519068Y244568D01*
X519014Y244701D01*
X518948Y244810D01*
X518870Y244895D01*
X518780Y244956D01*
X518678Y244992D01*
X518564Y245004D01*
X520964D01*
X520850Y244992D01*
D02*
G37*
G36*
X477503Y240512D02*
X477418Y240593D01*
X477330Y240666D01*
X477239Y240729D01*
X477146Y240785D01*
X477050Y240832D01*
X476951Y240870D01*
X476849Y240900D01*
X476744Y240921D01*
X476637Y240934D01*
X476605Y240935D01*
X476568Y240935D01*
X476432Y240923D01*
X476312Y240903D01*
X476208Y240875D01*
X476120Y240839D01*
X476048Y240795D01*
X475992Y240743D01*
X475952Y240683D01*
X475928Y240615D01*
X475920Y240539D01*
Y242139D01*
X475928Y242063D01*
X475952Y241995D01*
X475992Y241935D01*
X476048Y241883D01*
X476120Y241839D01*
X476208Y241803D01*
X476312Y241775D01*
X476432Y241755D01*
X476568Y241743D01*
X476605Y241742D01*
X476637Y241743D01*
X476744Y241756D01*
X476849Y241777D01*
X476951Y241807D01*
X477050Y241845D01*
X477146Y241892D01*
X477239Y241948D01*
X477330Y242012D01*
X477418Y242084D01*
X477503Y242165D01*
Y240512D01*
D02*
G37*
G36*
X481491Y241740D02*
X481671Y241742D01*
X482810Y241815D01*
X483015Y241849D01*
X483188Y241889D01*
X483329Y241935D01*
X483439Y241988D01*
X483516Y242046D01*
Y240631D01*
X483439Y240689D01*
X483329Y240742D01*
X483188Y240788D01*
X483015Y240828D01*
X482810Y240862D01*
X482304Y240911D01*
X481671Y240935D01*
X481491Y240937D01*
Y240539D01*
X481483Y240615D01*
X481458Y240683D01*
X481418Y240743D01*
X481361Y240795D01*
X481288Y240839D01*
X481199Y240875D01*
X481093Y240903D01*
X480971Y240923D01*
X480833Y240935D01*
X480679Y240939D01*
Y241739D01*
X480833Y241743D01*
X480971Y241755D01*
X481093Y241775D01*
X481199Y241803D01*
X481288Y241839D01*
X481361Y241883D01*
X481418Y241935D01*
X481458Y241995D01*
X481483Y242063D01*
X481491Y242139D01*
Y241740D01*
D02*
G37*
G36*
X479275Y242084D02*
X479363Y242012D01*
X479454Y241948D01*
X479547Y241892D01*
X479643Y241845D01*
X479742Y241807D01*
X479844Y241777D01*
X479949Y241756D01*
X480056Y241743D01*
X480166Y241739D01*
Y240939D01*
X480056Y240934D01*
X479949Y240921D01*
X479844Y240900D01*
X479742Y240870D01*
X479643Y240832D01*
X479547Y240785D01*
X479454Y240729D01*
X479363Y240666D01*
X479275Y240593D01*
X479190Y240512D01*
Y242165D01*
X479275Y242084D01*
D02*
G37*
G36*
X299747Y241757D02*
X299835Y241685D01*
X299926Y241621D01*
X300019Y241565D01*
X300116Y241518D01*
X300215Y241480D01*
X300317Y241450D01*
X300421Y241429D01*
X300496Y241420D01*
X300587Y241428D01*
X300709Y241448D01*
X300814Y241476D01*
X300904Y241512D01*
X300977Y241556D01*
X301034Y241608D01*
X301074Y241668D01*
X301099Y241736D01*
X301107Y241812D01*
Y240212D01*
X301099Y240288D01*
X301074Y240356D01*
X301034Y240416D01*
X300977Y240468D01*
X300904Y240512D01*
X300814Y240548D01*
X300709Y240576D01*
X300587Y240596D01*
X300496Y240604D01*
X300421Y240595D01*
X300317Y240573D01*
X300215Y240544D01*
X300116Y240505D01*
X300019Y240458D01*
X299926Y240403D01*
X299835Y240339D01*
X299747Y240266D01*
X299662Y240185D01*
Y241839D01*
X299747Y241757D01*
D02*
G37*
G36*
X441356Y240145D02*
X441348Y240221D01*
X441324Y240289D01*
X441283Y240349D01*
X441226Y240401D01*
X441153Y240445D01*
X441064Y240481D01*
X440958Y240509D01*
X440837Y240529D01*
X440698Y240541D01*
X440544Y240545D01*
Y241345D01*
X440698Y241349D01*
X440837Y241361D01*
X440958Y241381D01*
X441064Y241409D01*
X441153Y241445D01*
X441226Y241489D01*
X441283Y241541D01*
X441324Y241601D01*
X441348Y241669D01*
X441356Y241745D01*
Y240145D01*
D02*
G37*
G36*
X435811Y241669D02*
X435835Y241601D01*
X435876Y241541D01*
X435933Y241489D01*
X436006Y241445D01*
X436095Y241409D01*
X436201Y241381D01*
X436322Y241361D01*
X436460Y241349D01*
X436615Y241345D01*
Y240545D01*
X436460Y240541D01*
X436322Y240529D01*
X436201Y240509D01*
X436095Y240481D01*
X436006Y240445D01*
X435933Y240401D01*
X435876Y240349D01*
X435835Y240289D01*
X435811Y240221D01*
X435803Y240145D01*
Y241745D01*
X435811Y241669D01*
D02*
G37*
G36*
X349747Y241691D02*
X349835Y241618D01*
X349926Y241554D01*
X350019Y241498D01*
X350116Y241452D01*
X350215Y241413D01*
X350317Y241383D01*
X350374Y241371D01*
X350430Y241381D01*
X350534Y241409D01*
X350622Y241445D01*
X350694Y241489D01*
X350750Y241541D01*
X350790Y241601D01*
X350814Y241669D01*
X350822Y241745D01*
Y240145D01*
X350814Y240221D01*
X350790Y240289D01*
X350750Y240349D01*
X350694Y240401D01*
X350622Y240445D01*
X350534Y240481D01*
X350430Y240509D01*
X350374Y240518D01*
X350317Y240507D01*
X350215Y240477D01*
X350116Y240438D01*
X350019Y240391D01*
X349926Y240336D01*
X349835Y240272D01*
X349747Y240199D01*
X349662Y240118D01*
Y241772D01*
X349747Y241691D01*
D02*
G37*
G36*
X526858Y242031D02*
X526895Y241929D01*
X526955Y241839D01*
X527040Y241761D01*
X527149Y241695D01*
X527282Y241641D01*
X527440Y241599D01*
X527622Y241569D01*
X527828Y241551D01*
X528058Y241545D01*
Y240345D01*
X527828Y240339D01*
X527622Y240321D01*
X527440Y240291D01*
X527282Y240249D01*
X527149Y240195D01*
X527040Y240129D01*
X526955Y240051D01*
X526895Y239961D01*
X526858Y239859D01*
X526846Y239745D01*
Y242145D01*
X526858Y242031D01*
D02*
G37*
G36*
X486975Y243149D02*
X487035Y242979D01*
X487136Y242829D01*
X487277Y242699D01*
X487458Y242589D01*
X487679Y242499D01*
X487941Y242429D01*
X488242Y242379D01*
X488584Y242349D01*
X488967Y242339D01*
Y240339D01*
X488584Y240329D01*
X488242Y240299D01*
X487941Y240249D01*
X487679Y240179D01*
X487458Y240089D01*
X487277Y239979D01*
X487136Y239849D01*
X487035Y239699D01*
X486975Y239529D01*
X486955Y239339D01*
Y243339D01*
X486975Y243149D01*
D02*
G37*
G36*
X352144Y238116D02*
X352095Y238092D01*
X352051Y238053D01*
X352014Y237998D01*
X351982Y237927D01*
X351956Y237841D01*
X351936Y237738D01*
X351922Y237620D01*
X351913Y237487D01*
X351910Y237337D01*
X351110D01*
X351107Y237487D01*
X351084Y237738D01*
X351064Y237841D01*
X351038Y237927D01*
X351007Y237998D01*
X350969Y238053D01*
X350926Y238092D01*
X350877Y238116D01*
X350822Y238124D01*
X352198D01*
X352144Y238116D01*
D02*
G37*
G36*
X382857Y238116D02*
X382821Y238092D01*
X382789Y238052D01*
X382761Y237996D01*
X382737Y237924D01*
X382718Y237836D01*
X382703Y237732D01*
X382692Y237612D01*
X382683Y237324D01*
X381884D01*
X381880Y237476D01*
X381869Y237612D01*
X381851Y237732D01*
X381826Y237836D01*
X381793Y237924D01*
X381753Y237996D01*
X381707Y238052D01*
X381652Y238092D01*
X381591Y238116D01*
X381522Y238124D01*
X382898D01*
X382857Y238116D01*
D02*
G37*
G36*
X380243D02*
X380194Y238092D01*
X380151Y238052D01*
X380114Y237996D01*
X380082Y237924D01*
X380056Y237836D01*
X380036Y237732D01*
X380022Y237612D01*
X380013Y237476D01*
X380010Y237324D01*
X379210D01*
X379207Y237476D01*
X379184Y237732D01*
X379164Y237836D01*
X379138Y237924D01*
X379107Y237996D01*
X379069Y238052D01*
X379026Y238092D01*
X378977Y238116D01*
X378922Y238124D01*
X380298D01*
X380243Y238116D01*
D02*
G37*
G36*
X377744D02*
X377695Y238092D01*
X377651Y238052D01*
X377614Y237996D01*
X377582Y237924D01*
X377556Y237836D01*
X377536Y237732D01*
X377522Y237612D01*
X377513Y237476D01*
X377510Y237324D01*
X376710D01*
X376707Y237476D01*
X376684Y237732D01*
X376664Y237836D01*
X376638Y237924D01*
X376607Y237996D01*
X376569Y238052D01*
X376526Y238092D01*
X376477Y238116D01*
X376422Y238124D01*
X377798D01*
X377744Y238116D01*
D02*
G37*
G36*
X364944D02*
X364895Y238092D01*
X364851Y238052D01*
X364814Y237996D01*
X364782Y237924D01*
X364756Y237836D01*
X364736Y237732D01*
X364722Y237612D01*
X364713Y237476D01*
X364710Y237324D01*
X363910D01*
X363907Y237476D01*
X363884Y237732D01*
X363864Y237836D01*
X363838Y237924D01*
X363807Y237996D01*
X363769Y238052D01*
X363726Y238092D01*
X363677Y238116D01*
X363622Y238124D01*
X364998D01*
X364944Y238116D01*
D02*
G37*
G36*
X362344D02*
X362295Y238092D01*
X362251Y238052D01*
X362214Y237996D01*
X362182Y237924D01*
X362156Y237836D01*
X362136Y237732D01*
X362122Y237612D01*
X362113Y237476D01*
X362110Y237324D01*
X361310D01*
X361307Y237476D01*
X361284Y237732D01*
X361264Y237836D01*
X361238Y237924D01*
X361207Y237996D01*
X361169Y238052D01*
X361126Y238092D01*
X361077Y238116D01*
X361022Y238124D01*
X362398D01*
X362344Y238116D01*
D02*
G37*
G36*
X354637D02*
X354581Y238092D01*
X354533Y238052D01*
X354490Y237996D01*
X354455Y237924D01*
X354426Y237836D01*
X354403Y237732D01*
X354387Y237612D01*
X354377Y237476D01*
X354374Y237324D01*
X353574D01*
X353571Y237476D01*
X353551Y237732D01*
X353533Y237836D01*
X353511Y237924D01*
X353483Y237996D01*
X353450Y238052D01*
X353413Y238092D01*
X353370Y238116D01*
X353322Y238124D01*
X354698D01*
X354637Y238116D01*
D02*
G37*
G36*
X521165Y239087D02*
X521063Y239050D01*
X520973Y238990D01*
X520895Y238905D01*
X520829Y238796D01*
X520775Y238663D01*
X520733Y238505D01*
X520703Y238323D01*
X520685Y238117D01*
X520683Y238041D01*
X520685Y237966D01*
X520703Y237759D01*
X520733Y237578D01*
X520775Y237420D01*
X520829Y237287D01*
X520895Y237178D01*
X520973Y237093D01*
X521063Y237032D01*
X521165Y236996D01*
X521279Y236984D01*
X518879D01*
X518993Y236996D01*
X519095Y237032D01*
X519185Y237093D01*
X519263Y237178D01*
X519329Y237287D01*
X519383Y237420D01*
X519425Y237578D01*
X519455Y237759D01*
X519473Y237966D01*
X519475Y238041D01*
X519473Y238117D01*
X519455Y238323D01*
X519425Y238505D01*
X519383Y238663D01*
X519329Y238796D01*
X519263Y238905D01*
X519185Y238990D01*
X519095Y239050D01*
X518993Y239087D01*
X518879Y239099D01*
X521279D01*
X521165Y239087D01*
D02*
G37*
G36*
X308960Y239154D02*
X308858Y239117D01*
X308768Y239057D01*
X308690Y238972D01*
X308624Y238863D01*
X308570Y238729D01*
X308528Y238572D01*
X308498Y238390D01*
X308480Y238184D01*
X308477Y238059D01*
X308480Y237934D01*
X308498Y237728D01*
X308528Y237546D01*
X308570Y237389D01*
X308624Y237255D01*
X308690Y237146D01*
X308768Y237062D01*
X308858Y237001D01*
X308960Y236965D01*
X309074Y236952D01*
X306674D01*
X306788Y236965D01*
X306890Y237001D01*
X306980Y237062D01*
X307058Y237146D01*
X307124Y237255D01*
X307178Y237389D01*
X307220Y237546D01*
X307250Y237728D01*
X307268Y237934D01*
X307271Y238059D01*
X307268Y238184D01*
X307250Y238390D01*
X307220Y238572D01*
X307178Y238729D01*
X307124Y238863D01*
X307058Y238972D01*
X306980Y239057D01*
X306890Y239117D01*
X306788Y239154D01*
X306674Y239166D01*
X309074D01*
X308960Y239154D01*
D02*
G37*
G36*
X475920Y237730D02*
X475897Y237722D01*
X475876Y237698D01*
X475857Y237658D01*
X475841Y237602D01*
X475828Y237530D01*
X475817Y237442D01*
X475802Y237218D01*
X475797Y236930D01*
X474997D01*
X474993Y237084D01*
X474981Y237221D01*
X474961Y237343D01*
X474933Y237448D01*
X474897Y237537D01*
X474853Y237610D01*
X474801Y237667D01*
X474741Y237708D01*
X474673Y237733D01*
X474597Y237742D01*
X475920Y237730D01*
D02*
G37*
G36*
X473365Y237722D02*
X473317Y237698D01*
X473273Y237658D01*
X473236Y237602D01*
X473204Y237530D01*
X473178Y237442D01*
X473158Y237338D01*
X473144Y237218D01*
X473135Y237082D01*
X473132Y236930D01*
X472332D01*
X472329Y237082D01*
X472306Y237338D01*
X472286Y237442D01*
X472260Y237530D01*
X472229Y237602D01*
X472191Y237658D01*
X472148Y237698D01*
X472099Y237722D01*
X472044Y237730D01*
X473420D01*
X473365Y237722D01*
D02*
G37*
G36*
X470765D02*
X470717Y237698D01*
X470673Y237658D01*
X470636Y237602D01*
X470604Y237530D01*
X470578Y237442D01*
X470558Y237338D01*
X470544Y237218D01*
X470535Y237082D01*
X470532Y236930D01*
X469732D01*
X469729Y237082D01*
X469706Y237338D01*
X469686Y237442D01*
X469660Y237530D01*
X469629Y237602D01*
X469591Y237658D01*
X469548Y237698D01*
X469499Y237722D01*
X469444Y237730D01*
X470820D01*
X470765Y237722D01*
D02*
G37*
G36*
X460566D02*
X460517Y237698D01*
X460473Y237658D01*
X460436Y237602D01*
X460404Y237530D01*
X460378Y237442D01*
X460358Y237338D01*
X460344Y237218D01*
X460335Y237082D01*
X460332Y236930D01*
X459532D01*
X459529Y237082D01*
X459506Y237338D01*
X459486Y237442D01*
X459460Y237530D01*
X459429Y237602D01*
X459391Y237658D01*
X459348Y237698D01*
X459299Y237722D01*
X459244Y237730D01*
X460620D01*
X460566Y237722D01*
D02*
G37*
G36*
X457919Y237733D02*
X457851Y237708D01*
X457791Y237667D01*
X457739Y237611D01*
X457695Y237537D01*
X457659Y237448D01*
X457631Y237343D01*
X457611Y237221D01*
X457599Y237084D01*
X457595Y236930D01*
X456795D01*
X456793Y237082D01*
X456771Y237442D01*
X456757Y237530D01*
X456741Y237602D01*
X456721Y237658D01*
X456699Y237698D01*
X456673Y237722D01*
X456644Y237730D01*
X457995Y237742D01*
X457919Y237733D01*
D02*
G37*
G36*
X455466Y237722D02*
X455417Y237698D01*
X455373Y237658D01*
X455336Y237602D01*
X455304Y237530D01*
X455278Y237442D01*
X455258Y237338D01*
X455244Y237218D01*
X455235Y237082D01*
X455232Y236930D01*
X454432D01*
X454429Y237082D01*
X454406Y237338D01*
X454386Y237442D01*
X454360Y237530D01*
X454329Y237602D01*
X454291Y237658D01*
X454248Y237698D01*
X454199Y237722D01*
X454144Y237730D01*
X455520D01*
X455466Y237722D01*
D02*
G37*
G36*
X450266D02*
X450217Y237698D01*
X450173Y237658D01*
X450136Y237602D01*
X450104Y237530D01*
X450078Y237442D01*
X450058Y237338D01*
X450044Y237218D01*
X450035Y237082D01*
X450032Y236930D01*
X449232D01*
X449229Y237082D01*
X449206Y237338D01*
X449186Y237442D01*
X449160Y237530D01*
X449129Y237602D01*
X449091Y237658D01*
X449048Y237698D01*
X448999Y237722D01*
X448944Y237730D01*
X450320D01*
X450266Y237722D01*
D02*
G37*
G36*
X447765D02*
X447717Y237698D01*
X447673Y237658D01*
X447636Y237602D01*
X447604Y237530D01*
X447578Y237442D01*
X447558Y237338D01*
X447544Y237218D01*
X447535Y237082D01*
X447532Y236930D01*
X446732D01*
X446729Y237082D01*
X446706Y237338D01*
X446686Y237442D01*
X446660Y237530D01*
X446629Y237602D01*
X446591Y237658D01*
X446548Y237698D01*
X446499Y237722D01*
X446444Y237730D01*
X447820D01*
X447765Y237722D01*
D02*
G37*
G36*
X445165D02*
X445117Y237698D01*
X445073Y237658D01*
X445036Y237602D01*
X445004Y237530D01*
X444978Y237442D01*
X444958Y237338D01*
X444944Y237218D01*
X444935Y237082D01*
X444932Y236930D01*
X444132D01*
X444129Y237082D01*
X444106Y237338D01*
X444086Y237442D01*
X444060Y237530D01*
X444029Y237602D01*
X443991Y237658D01*
X443948Y237698D01*
X443899Y237722D01*
X443844Y237730D01*
X445220D01*
X445165Y237722D01*
D02*
G37*
G36*
X442592Y237733D02*
X442524Y237708D01*
X442464Y237667D01*
X442412Y237610D01*
X442368Y237537D01*
X442332Y237448D01*
X442304Y237343D01*
X442284Y237221D01*
X442272Y237084D01*
X442268Y236930D01*
X441468D01*
X441467Y237082D01*
X441437Y237530D01*
X441423Y237602D01*
X441407Y237658D01*
X441389Y237698D01*
X441368Y237722D01*
X441344Y237730D01*
X442668Y237742D01*
X442592Y237733D01*
D02*
G37*
G36*
X398362Y237504D02*
X398294Y237480D01*
X398234Y237440D01*
X398182Y237384D01*
X398138Y237312D01*
X398102Y237224D01*
X398074Y237120D01*
X398054Y237000D01*
X398042Y236864D01*
X398038Y236712D01*
X397238D01*
X397234Y236864D01*
X397222Y237000D01*
X397202Y237120D01*
X397174Y237224D01*
X397138Y237312D01*
X397094Y237384D01*
X397042Y237440D01*
X396982Y237480D01*
X396914Y237504D01*
X396838Y237512D01*
X398438D01*
X398362Y237504D01*
D02*
G37*
G36*
X392456Y237504D02*
X392388Y237480D01*
X392328Y237440D01*
X392276Y237384D01*
X392232Y237312D01*
X392196Y237224D01*
X392168Y237120D01*
X392148Y237000D01*
X392136Y236864D01*
X392132Y236712D01*
X391332D01*
X391328Y236864D01*
X391316Y237000D01*
X391296Y237120D01*
X391268Y237224D01*
X391232Y237312D01*
X391188Y237384D01*
X391136Y237440D01*
X391076Y237480D01*
X391008Y237504D01*
X390932Y237512D01*
X392532D01*
X392456Y237504D01*
D02*
G37*
G36*
X442272Y236310D02*
X442284Y236172D01*
X442304Y236050D01*
X442332Y235945D01*
X442368Y235855D01*
X442412Y235782D01*
X442464Y235725D01*
X442524Y235685D01*
X442592Y235661D01*
X442668Y235652D01*
X441068D01*
X441144Y235661D01*
X441212Y235685D01*
X441272Y235725D01*
X441324Y235782D01*
X441368Y235855D01*
X441404Y235945D01*
X441432Y236050D01*
X441452Y236172D01*
X441464Y236310D01*
X441468Y236464D01*
X442268D01*
X442272Y236310D01*
D02*
G37*
G36*
X528186Y234296D02*
X528101Y234377D01*
X528013Y234450D01*
X527923Y234514D01*
X527829Y234569D01*
X527733Y234616D01*
X527634Y234655D01*
X527532Y234684D01*
X527427Y234706D01*
X527320Y234719D01*
X527311Y234719D01*
X527307Y234719D01*
X527169Y234707D01*
X527047Y234687D01*
X526941Y234659D01*
X526852Y234623D01*
X526779Y234579D01*
X526722Y234527D01*
X526682Y234467D01*
X526657Y234399D01*
X526649Y234323D01*
Y235923D01*
X526657Y235847D01*
X526682Y235779D01*
X526722Y235719D01*
X526779Y235667D01*
X526852Y235623D01*
X526941Y235587D01*
X527047Y235559D01*
X527169Y235539D01*
X527307Y235527D01*
X527311Y235527D01*
X527320Y235527D01*
X527427Y235540D01*
X527532Y235561D01*
X527634Y235591D01*
X527733Y235630D01*
X527829Y235677D01*
X527923Y235732D01*
X528013Y235796D01*
X528101Y235869D01*
X528186Y235950D01*
Y234296D01*
D02*
G37*
G36*
X398042Y236355D02*
X398055Y236248D01*
X398076Y236143D01*
X398106Y236041D01*
X398145Y235942D01*
X398191Y235846D01*
X398247Y235753D01*
X398311Y235662D01*
X398383Y235574D01*
X398465Y235489D01*
X396811Y235489D01*
X396892Y235574D01*
X396965Y235662D01*
X397029Y235753D01*
X397084Y235846D01*
X397131Y235942D01*
X397169Y236041D01*
X397199Y236143D01*
X397221Y236248D01*
X397234Y236355D01*
X397238Y236466D01*
X398038Y236466D01*
X398042Y236355D01*
D02*
G37*
G36*
X392137Y236355D02*
X392149Y236248D01*
X392171Y236143D01*
X392200Y236041D01*
X392239Y235942D01*
X392286Y235846D01*
X392341Y235753D01*
X392405Y235662D01*
X392478Y235574D01*
X392559Y235489D01*
X390905Y235489D01*
X390987Y235574D01*
X391059Y235662D01*
X391123Y235753D01*
X391179Y235846D01*
X391226Y235942D01*
X391264Y236041D01*
X391294Y236143D01*
X391315Y236248D01*
X391328Y236355D01*
X391332Y236466D01*
X392132Y236466D01*
X392137Y236355D01*
D02*
G37*
G36*
X479714Y236597D02*
X479644Y236506D01*
X479582Y236413D01*
X479528Y236317D01*
X479483Y236219D01*
X479445Y236119D01*
X479417Y236016D01*
X479404Y235953D01*
X479415Y235886D01*
X479443Y235780D01*
X479479Y235691D01*
X479523Y235618D01*
X479575Y235561D01*
X479635Y235520D01*
X479703Y235496D01*
X479779Y235488D01*
X478179D01*
X478255Y235496D01*
X478323Y235520D01*
X478383Y235561D01*
X478435Y235618D01*
X478479Y235691D01*
X478515Y235780D01*
X478543Y235886D01*
X478551Y235931D01*
X478540Y235983D01*
X478509Y236084D01*
X478470Y236182D01*
X478421Y236276D01*
X478364Y236367D01*
X478298Y236455D01*
X478223Y236539D01*
X478140Y236621D01*
X479792Y236686D01*
X479714Y236597D01*
D02*
G37*
G36*
X475801Y236145D02*
X475813Y236007D01*
X475833Y235886D01*
X475861Y235780D01*
X475897Y235691D01*
X475941Y235618D01*
X475993Y235561D01*
X476053Y235520D01*
X476121Y235496D01*
X476197Y235488D01*
X474597D01*
X474673Y235496D01*
X474741Y235520D01*
X474801Y235561D01*
X474853Y235618D01*
X474897Y235691D01*
X474933Y235780D01*
X474961Y235886D01*
X474981Y236007D01*
X474993Y236145D01*
X474997Y236300D01*
X475797D01*
X475801Y236145D01*
D02*
G37*
G36*
X354378D02*
X354390Y236007D01*
X354410Y235886D01*
X354438Y235780D01*
X354474Y235691D01*
X354518Y235618D01*
X354570Y235561D01*
X354630Y235520D01*
X354698Y235496D01*
X354774Y235488D01*
X353174D01*
X353250Y235496D01*
X353318Y235520D01*
X353378Y235561D01*
X353430Y235618D01*
X353474Y235691D01*
X353510Y235780D01*
X353538Y235886D01*
X353558Y236007D01*
X353570Y236145D01*
X353574Y236300D01*
X354374D01*
X354378Y236145D01*
D02*
G37*
G36*
X351191D02*
X351203Y236007D01*
X351223Y235886D01*
X351251Y235780D01*
X351287Y235691D01*
X351331Y235618D01*
X351383Y235561D01*
X351443Y235520D01*
X351511Y235496D01*
X351587Y235488D01*
X349987D01*
X350063Y235496D01*
X350131Y235520D01*
X350191Y235561D01*
X350243Y235618D01*
X350287Y235691D01*
X350323Y235780D01*
X350351Y235886D01*
X350371Y236007D01*
X350383Y236145D01*
X350387Y236300D01*
X351187D01*
X351191Y236145D01*
D02*
G37*
G36*
X383708Y235103D02*
X383728Y234824D01*
X383737Y234780D01*
X383749Y234745D01*
X383761Y234720D01*
X383775Y234705D01*
X383791Y234700D01*
X382823D01*
X382839Y234705D01*
X382853Y234720D01*
X382866Y234745D01*
X382877Y234780D01*
X382886Y234824D01*
X382894Y234879D01*
X382904Y235018D01*
X382907Y235197D01*
X383707D01*
X383708Y235103D01*
D02*
G37*
G36*
X301107Y233906D02*
X301095Y234020D01*
X301058Y234122D01*
X300998Y234212D01*
X300913Y234290D01*
X300804Y234356D01*
X300670Y234410D01*
X300513Y234452D01*
X300331Y234482D01*
X300125Y234500D01*
X299895Y234506D01*
Y235706D01*
X300125Y235712D01*
X300331Y235730D01*
X300513Y235760D01*
X300670Y235802D01*
X300804Y235856D01*
X300913Y235922D01*
X300998Y236000D01*
X301058Y236090D01*
X301095Y236192D01*
X301107Y236306D01*
Y233906D01*
D02*
G37*
G36*
X398566Y235391D02*
X398654Y235319D01*
X398745Y235255D01*
X398838Y235199D01*
X398935Y235152D01*
X399034Y235114D01*
X399135Y235084D01*
X399240Y235063D01*
X399347Y235050D01*
X399458Y235046D01*
Y234246D01*
X399347Y234241D01*
X399240Y234229D01*
X399135Y234207D01*
X399034Y234177D01*
X398935Y234139D01*
X398838Y234092D01*
X398745Y234036D01*
X398654Y233973D01*
X398566Y233900D01*
X398481Y233819D01*
Y235472D01*
X398566Y235391D01*
D02*
G37*
G36*
X392916Y234516D02*
X392927Y234403D01*
X392946Y234294D01*
X392973Y234188D01*
X393007Y234087D01*
X393050Y233990D01*
X393101Y233897D01*
X393160Y233808D01*
X393227Y233723D01*
X393302Y233642D01*
X392736Y233076D01*
X392655Y233151D01*
X392570Y233218D01*
X392481Y233277D01*
X392388Y233328D01*
X392291Y233370D01*
X392190Y233405D01*
X392084Y233432D01*
X391975Y233451D01*
X391862Y233462D01*
X391744Y233465D01*
X392913Y234634D01*
X392916Y234516D01*
D02*
G37*
G36*
X354661Y233008D02*
X354593Y232984D01*
X354533Y232943D01*
X354481Y232886D01*
X354437Y232813D01*
X354401Y232724D01*
X354373Y232618D01*
X354353Y232496D01*
X354341Y232358D01*
X354337Y232204D01*
X353537D01*
X353533Y232358D01*
X353521Y232496D01*
X353501Y232618D01*
X353473Y232724D01*
X353437Y232813D01*
X353393Y232886D01*
X353341Y232943D01*
X353281Y232984D01*
X353213Y233008D01*
X353137Y233016D01*
X354737D01*
X354661Y233008D01*
D02*
G37*
G36*
X308960Y233248D02*
X308858Y233212D01*
X308768Y233151D01*
X308690Y233066D01*
X308624Y232957D01*
X308570Y232824D01*
X308528Y232666D01*
X308498Y232485D01*
X308480Y232278D01*
X308478Y232203D01*
X308480Y232127D01*
X308498Y231921D01*
X308528Y231739D01*
X308570Y231582D01*
X308624Y231448D01*
X308690Y231339D01*
X308768Y231254D01*
X308858Y231194D01*
X308960Y231157D01*
X309074Y231145D01*
X306674D01*
X306788Y231157D01*
X306890Y231194D01*
X306980Y231254D01*
X307058Y231339D01*
X307124Y231448D01*
X307178Y231582D01*
X307220Y231739D01*
X307250Y231921D01*
X307268Y232127D01*
X307270Y232203D01*
X307268Y232278D01*
X307250Y232485D01*
X307220Y232666D01*
X307178Y232824D01*
X307124Y232957D01*
X307058Y233066D01*
X306980Y233151D01*
X306890Y233212D01*
X306788Y233248D01*
X306674Y233260D01*
X309074D01*
X308960Y233248D01*
D02*
G37*
G36*
X462186Y231738D02*
X462198Y231602D01*
X462218Y231482D01*
X462246Y231378D01*
X462282Y231290D01*
X462326Y231218D01*
X462378Y231162D01*
X462438Y231122D01*
X462506Y231098D01*
X462582Y231090D01*
X460982D01*
X461058Y231098D01*
X461126Y231122D01*
X461186Y231162D01*
X461238Y231218D01*
X461282Y231290D01*
X461318Y231378D01*
X461346Y231482D01*
X461366Y231602D01*
X461378Y231738D01*
X461382Y231890D01*
X462182D01*
X462186Y231738D01*
D02*
G37*
G36*
X457598Y231408D02*
X457625Y231152D01*
X457649Y231048D01*
X457679Y230960D01*
X457716Y230888D01*
X457760Y230832D01*
X457810Y230792D01*
X457867Y230768D01*
X457931Y230760D01*
X456395Y230748D01*
X456471Y230756D01*
X456539Y230781D01*
X456599Y230822D01*
X456651Y230879D01*
X456695Y230952D01*
X456731Y231041D01*
X456759Y231147D01*
X456779Y231268D01*
X456791Y231406D01*
X456795Y231560D01*
X457595D01*
X457598Y231408D01*
D02*
G37*
G36*
X454312Y231405D02*
X454324Y231267D01*
X454344Y231146D01*
X454372Y231040D01*
X454408Y230951D01*
X454452Y230877D01*
X454504Y230821D01*
X454564Y230780D01*
X454632Y230756D01*
X454708Y230748D01*
X453108D01*
X453184Y230756D01*
X453252Y230780D01*
X453312Y230821D01*
X453364Y230877D01*
X453408Y230951D01*
X453444Y231040D01*
X453472Y231146D01*
X453492Y231267D01*
X453504Y231405D01*
X453508Y231560D01*
X454308D01*
X454312Y231405D01*
D02*
G37*
G36*
X451162D02*
X451174Y231267D01*
X451194Y231146D01*
X451222Y231040D01*
X451258Y230951D01*
X451302Y230877D01*
X451354Y230821D01*
X451414Y230780D01*
X451482Y230756D01*
X451558Y230748D01*
X449958D01*
X450034Y230756D01*
X450102Y230780D01*
X450162Y230821D01*
X450214Y230877D01*
X450258Y230951D01*
X450294Y231040D01*
X450322Y231146D01*
X450342Y231267D01*
X450354Y231405D01*
X450358Y231560D01*
X451158D01*
X451162Y231405D01*
D02*
G37*
G36*
X448013D02*
X448025Y231267D01*
X448045Y231146D01*
X448073Y231040D01*
X448109Y230951D01*
X448153Y230877D01*
X448205Y230821D01*
X448265Y230780D01*
X448333Y230756D01*
X448409Y230748D01*
X446809D01*
X446885Y230756D01*
X446953Y230780D01*
X447013Y230821D01*
X447065Y230877D01*
X447109Y230951D01*
X447145Y231040D01*
X447173Y231146D01*
X447193Y231267D01*
X447205Y231405D01*
X447209Y231560D01*
X448009D01*
X448013Y231405D01*
D02*
G37*
G36*
X354341Y231342D02*
X354353Y231204D01*
X354373Y231083D01*
X354401Y230977D01*
X354437Y230888D01*
X354481Y230815D01*
X354533Y230758D01*
X354593Y230717D01*
X354661Y230693D01*
X354737Y230685D01*
X353137D01*
X353213Y230693D01*
X353281Y230717D01*
X353341Y230758D01*
X353393Y230815D01*
X353437Y230888D01*
X353473Y230977D01*
X353501Y231083D01*
X353521Y231204D01*
X353533Y231342D01*
X353537Y231497D01*
X354337D01*
X354341Y231342D01*
D02*
G37*
G36*
X347202Y231749D02*
X347130Y231661D01*
X347066Y231570D01*
X347010Y231477D01*
X346963Y231380D01*
X346925Y231281D01*
X346895Y231179D01*
X346885Y231130D01*
X346893Y231083D01*
X346921Y230977D01*
X346957Y230888D01*
X347001Y230815D01*
X347053Y230758D01*
X347113Y230717D01*
X347181Y230693D01*
X347257Y230685D01*
X345657D01*
X345733Y230693D01*
X345801Y230717D01*
X345861Y230758D01*
X345913Y230815D01*
X345957Y230888D01*
X345993Y230977D01*
X346021Y231083D01*
X346028Y231130D01*
X346018Y231179D01*
X345988Y231281D01*
X345950Y231380D01*
X345903Y231477D01*
X345848Y231570D01*
X345784Y231661D01*
X345711Y231749D01*
X345630Y231834D01*
X347284D01*
X347202Y231749D01*
D02*
G37*
G36*
X442519Y230063D02*
X442531Y229925D01*
X442551Y229803D01*
X442579Y229697D01*
X442615Y229608D01*
X442659Y229535D01*
X442711Y229478D01*
X442771Y229438D01*
X442839Y229413D01*
X442915Y229405D01*
X441315D01*
X441391Y229413D01*
X441459Y229438D01*
X441519Y229478D01*
X441571Y229535D01*
X441615Y229608D01*
X441651Y229697D01*
X441679Y229803D01*
X441699Y229925D01*
X441711Y230063D01*
X441715Y230217D01*
X442515D01*
X442519Y230063D01*
D02*
G37*
G36*
X381693Y229919D02*
X381704Y229790D01*
X381721Y229677D01*
X381745Y229579D01*
X381776Y229496D01*
X381814Y229428D01*
X381858Y229375D01*
X381910Y229337D01*
X381968Y229314D01*
X382033Y229307D01*
X380546D01*
X380612Y229314D01*
X380670Y229337D01*
X380722Y229375D01*
X380766Y229428D01*
X380804Y229496D01*
X380835Y229579D01*
X380859Y229677D01*
X380876Y229790D01*
X380886Y229919D01*
X380890Y230062D01*
X381690D01*
X381693Y229919D01*
D02*
G37*
G36*
X463025Y230605D02*
X463048Y230545D01*
X463086Y230493D01*
X463140Y230447D01*
X463208Y230409D01*
X463292Y230377D01*
X463391Y230353D01*
X463505Y230335D01*
X463635Y230325D01*
X463779Y230321D01*
Y229521D01*
X463635Y229518D01*
X463505Y229507D01*
X463391Y229490D01*
X463292Y229465D01*
X463208Y229434D01*
X463140Y229395D01*
X463086Y229350D01*
X463048Y229297D01*
X463025Y229238D01*
X463018Y229171D01*
Y230671D01*
X463025Y230605D01*
D02*
G37*
G36*
X299354Y229946D02*
X299442Y229874D01*
X299532Y229810D01*
X299626Y229754D01*
X299722Y229708D01*
X299821Y229669D01*
X299923Y229639D01*
X300027Y229618D01*
X300135Y229605D01*
X300147Y229605D01*
X300154Y229605D01*
X300292Y229617D01*
X300413Y229637D01*
X300519Y229665D01*
X300608Y229701D01*
X300681Y229745D01*
X300738Y229797D01*
X300779Y229857D01*
X300803Y229925D01*
X300811Y230001D01*
Y228401D01*
X300803Y228477D01*
X300779Y228545D01*
X300738Y228605D01*
X300681Y228657D01*
X300608Y228701D01*
X300519Y228737D01*
X300413Y228765D01*
X300292Y228785D01*
X300154Y228797D01*
X300147Y228797D01*
X300135Y228797D01*
X300027Y228784D01*
X299923Y228762D01*
X299821Y228732D01*
X299722Y228694D01*
X299626Y228647D01*
X299532Y228592D01*
X299442Y228528D01*
X299354Y228455D01*
X299269Y228374D01*
X299269Y230028D01*
X299354Y229946D01*
D02*
G37*
G36*
X466546Y227300D02*
X466559Y227193D01*
X466580Y227088D01*
X466610Y226986D01*
X466648Y226887D01*
X466695Y226791D01*
X466751Y226698D01*
X466815Y226607D01*
X466887Y226519D01*
X466968Y226434D01*
X465315D01*
X465396Y226519D01*
X465469Y226607D01*
X465533Y226698D01*
X465588Y226791D01*
X465635Y226887D01*
X465673Y226986D01*
X465703Y227088D01*
X465725Y227193D01*
X465737Y227300D01*
X465742Y227411D01*
X466542D01*
X466546Y227300D01*
D02*
G37*
G36*
X388607Y226168D02*
X388599Y226244D01*
X388574Y226312D01*
X388534Y226373D01*
X388477Y226425D01*
X388404Y226468D01*
X388314Y226504D01*
X388209Y226533D01*
X388087Y226553D01*
X387949Y226565D01*
X387795Y226569D01*
Y227368D01*
X387949Y227373D01*
X388087Y227384D01*
X388209Y227404D01*
X388314Y227432D01*
X388404Y227468D01*
X388477Y227513D01*
X388534Y227565D01*
X388574Y227625D01*
X388599Y227693D01*
X388607Y227768D01*
Y226168D01*
D02*
G37*
G36*
X385429Y227693D02*
X385453Y227625D01*
X385493Y227565D01*
X385549Y227513D01*
X385621Y227468D01*
X385709Y227432D01*
X385813Y227404D01*
X385933Y227384D01*
X386069Y227373D01*
X386221Y227368D01*
Y226569D01*
X386069Y226565D01*
X385933Y226553D01*
X385813Y226533D01*
X385709Y226504D01*
X385621Y226468D01*
X385549Y226425D01*
X385493Y226373D01*
X385453Y226312D01*
X385429Y226244D01*
X385421Y226168D01*
Y227768D01*
X385429Y227693D01*
D02*
G37*
G36*
X462807Y225291D02*
X462739Y225267D01*
X462679Y225226D01*
X462627Y225170D01*
X462583Y225097D01*
X462547Y225007D01*
X462519Y224902D01*
X462499Y224780D01*
X462489Y224672D01*
X462500Y224584D01*
X462521Y224479D01*
X462551Y224377D01*
X462589Y224278D01*
X462636Y224182D01*
X462692Y224088D01*
X462756Y223998D01*
X462828Y223910D01*
X462909Y223825D01*
X461256D01*
X461337Y223910D01*
X461410Y223998D01*
X461474Y224088D01*
X461529Y224182D01*
X461576Y224278D01*
X461614Y224377D01*
X461644Y224479D01*
X461666Y224584D01*
X461676Y224672D01*
X461667Y224780D01*
X461647Y224902D01*
X461619Y225007D01*
X461583Y225097D01*
X461539Y225170D01*
X461487Y225226D01*
X461427Y225267D01*
X461359Y225291D01*
X461283Y225300D01*
X462883D01*
X462807Y225291D01*
D02*
G37*
G36*
X376768Y221983D02*
X376792Y221916D01*
X376832Y221855D01*
X376888Y221804D01*
X376959Y221760D01*
X377047Y221724D01*
X377151Y221696D01*
X377271Y221676D01*
X377407Y221664D01*
X377559Y221660D01*
Y220860D01*
X377407Y220856D01*
X377271Y220844D01*
X377151Y220824D01*
X377047Y220796D01*
X376959Y220760D01*
X376888Y220716D01*
X376832Y220664D01*
X376792Y220604D01*
X376768Y220536D01*
X376760Y220460D01*
Y222059D01*
X376768Y221983D01*
D02*
G37*
G36*
X448320Y220540D02*
X448255Y220516D01*
X448197Y220477D01*
X448147Y220422D01*
X448105Y220351D01*
X448070Y220265D01*
X448043Y220163D01*
X448024Y220045D01*
X448012Y219912D01*
X448009Y219762D01*
X447209D01*
X447205Y219912D01*
X447193Y220045D01*
X447174Y220163D01*
X447147Y220265D01*
X447112Y220351D01*
X447070Y220422D01*
X447020Y220477D01*
X446962Y220516D01*
X446897Y220540D01*
X446824Y220547D01*
X448394D01*
X448320Y220540D01*
D02*
G37*
G36*
X454632Y220539D02*
X454564Y220515D01*
X454504Y220475D01*
X454452Y220419D01*
X454408Y220347D01*
X454372Y220259D01*
X454344Y220155D01*
X454324Y220035D01*
X454312Y219899D01*
X454308Y219747D01*
X453508D01*
X453504Y219899D01*
X453492Y220035D01*
X453472Y220155D01*
X453444Y220259D01*
X453408Y220347D01*
X453364Y220419D01*
X453312Y220475D01*
X453252Y220515D01*
X453184Y220539D01*
X453108Y220547D01*
X454708D01*
X454632Y220539D01*
D02*
G37*
G36*
X451482D02*
X451414Y220515D01*
X451354Y220475D01*
X451302Y220419D01*
X451258Y220347D01*
X451222Y220259D01*
X451194Y220155D01*
X451174Y220035D01*
X451162Y219899D01*
X451158Y219747D01*
X450358D01*
X450354Y219899D01*
X450342Y220035D01*
X450322Y220155D01*
X450294Y220259D01*
X450258Y220347D01*
X450214Y220419D01*
X450162Y220475D01*
X450102Y220515D01*
X450034Y220539D01*
X449958Y220547D01*
X451558D01*
X451482Y220539D01*
D02*
G37*
G36*
X371284Y219476D02*
X371276Y219552D01*
X371251Y219620D01*
X371211Y219680D01*
X371154Y219732D01*
X371081Y219776D01*
X370991Y219812D01*
X370886Y219840D01*
X370764Y219860D01*
X370626Y219872D01*
X370472Y219876D01*
Y220676D01*
X370626Y220680D01*
X370764Y220692D01*
X370886Y220712D01*
X370991Y220740D01*
X371081Y220776D01*
X371154Y220820D01*
X371211Y220872D01*
X371251Y220932D01*
X371276Y221000D01*
X371284Y221076D01*
Y219476D01*
D02*
G37*
G36*
X368094Y221000D02*
X368119Y220932D01*
X368159Y220872D01*
X368216Y220820D01*
X368289Y220776D01*
X368378Y220740D01*
X368484Y220712D01*
X368606Y220692D01*
X368744Y220680D01*
X368898Y220676D01*
Y219876D01*
X368744Y219872D01*
X368606Y219860D01*
X368484Y219840D01*
X368378Y219812D01*
X368289Y219776D01*
X368216Y219732D01*
X368159Y219680D01*
X368119Y219620D01*
X368094Y219552D01*
X368086Y219476D01*
Y221076D01*
X368094Y221000D01*
D02*
G37*
G36*
X469696Y197773D02*
X469708Y197665D01*
X469730Y197561D01*
X469760Y197459D01*
X469798Y197360D01*
X469845Y197264D01*
X469901Y197170D01*
X469965Y197079D01*
X470037Y196992D01*
X470118Y196906D01*
X468465D01*
X468546Y196992D01*
X468618Y197079D01*
X468682Y197170D01*
X468738Y197264D01*
X468785Y197360D01*
X468823Y197459D01*
X468853Y197561D01*
X468874Y197665D01*
X468887Y197773D01*
X468891Y197883D01*
X469691D01*
X469696Y197773D01*
D02*
G37*
G36*
X473137Y197803D02*
X473150Y197696D01*
X473173Y197592D01*
X473205Y197492D01*
X473245Y197396D01*
X473295Y197304D01*
X473354Y197216D01*
X473422Y197132D01*
X473499Y197051D01*
X473585Y196975D01*
X471938Y196832D01*
X472013Y196924D01*
X472080Y197019D01*
X472139Y197116D01*
X472190Y197214D01*
X472234Y197314D01*
X472269Y197416D01*
X472297Y197519D01*
X472317Y197625D01*
X472328Y197732D01*
X472332Y197841D01*
X473132Y197915D01*
X473137Y197803D01*
D02*
G37*
G36*
X477109Y182638D02*
X477061Y182681D01*
X477003Y182719D01*
X476936Y182753D01*
X476861Y182783D01*
X476778Y182808D01*
X476685Y182828D01*
X476583Y182844D01*
X476473Y182855D01*
X476227Y182865D01*
Y184065D01*
X476354Y184067D01*
X476583Y184085D01*
X476685Y184101D01*
X476778Y184121D01*
X476861Y184146D01*
X476936Y184176D01*
X477003Y184210D01*
X477061Y184248D01*
X477109Y184291D01*
Y182638D01*
D02*
G37*
G36*
X468398Y179306D02*
X468349Y179350D01*
X468292Y179388D01*
X468225Y179422D01*
X468150Y179452D01*
X468066Y179477D01*
X467974Y179497D01*
X467872Y179513D01*
X467762Y179524D01*
X467516Y179533D01*
Y180733D01*
X467643Y180736D01*
X467872Y180754D01*
X467974Y180770D01*
X468066Y180790D01*
X468150Y180815D01*
X468225Y180844D01*
X468292Y180878D01*
X468349Y180917D01*
X468398Y180960D01*
Y179306D01*
D02*
G37*
G36*
X472126Y176176D02*
X472077Y176219D01*
X472020Y176258D01*
X471953Y176292D01*
X471878Y176321D01*
X471794Y176347D01*
X471702Y176367D01*
X471600Y176383D01*
X471490Y176394D01*
X471243Y176403D01*
Y177603D01*
X471371Y177605D01*
X471600Y177624D01*
X471702Y177639D01*
X471794Y177660D01*
X471878Y177685D01*
X471953Y177714D01*
X472020Y177748D01*
X472077Y177787D01*
X472126Y177830D01*
Y176176D01*
D02*
G37*
%LPC*%
G36*
X379346Y378756D02*
X376091D01*
Y375697D01*
X379346D01*
Y378756D01*
D02*
G37*
G36*
X375091D02*
X371835D01*
Y375697D01*
X375091D01*
Y378756D01*
D02*
G37*
G36*
X388008Y378028D02*
X384949D01*
Y375658D01*
X388008D01*
Y378028D01*
D02*
G37*
G36*
X383949D02*
X380890D01*
Y375658D01*
X383949D01*
Y378028D01*
D02*
G37*
G36*
X352450Y375403D02*
X346450D01*
Y374271D01*
X345950Y374064D01*
X345724Y374290D01*
X344922Y374622D01*
X344054D01*
X343253Y374290D01*
X342639Y373676D01*
X342307Y372875D01*
Y372007D01*
X342611Y371272D01*
X342487Y371064D01*
X342278Y370869D01*
X341772Y371079D01*
X340905D01*
X340103Y370747D01*
X339490Y370133D01*
X339158Y369332D01*
Y368464D01*
X339490Y367662D01*
X340103Y367049D01*
X340446Y366907D01*
X344621Y362731D01*
X344621Y362731D01*
X345283Y362289D01*
X346063Y362134D01*
X346450D01*
Y360423D01*
X352450D01*
Y367903D01*
Y375403D01*
D02*
G37*
G36*
X388008Y374658D02*
X384949D01*
Y372287D01*
X388008D01*
Y374658D01*
D02*
G37*
G36*
X383949D02*
X380890D01*
Y372287D01*
X383949D01*
Y374658D01*
D02*
G37*
G36*
X359850Y375403D02*
X353850D01*
Y367903D01*
Y360423D01*
X359850D01*
Y362034D01*
X359875Y362045D01*
X360027Y362086D01*
X360241Y362121D01*
X360391Y362134D01*
X361417D01*
X362198Y362289D01*
X362859Y362731D01*
X367011Y366883D01*
X367962D01*
X368245Y366765D01*
X369113D01*
X369491Y366922D01*
X370502D01*
X370809Y366795D01*
X371677D01*
X371835Y366689D01*
Y365339D01*
X378300D01*
X378339Y365331D01*
X378376Y365339D01*
X379346D01*
X379346Y365339D01*
Y365339D01*
X379709Y365045D01*
X380054Y364700D01*
X380716Y364258D01*
X380890Y364223D01*
Y363272D01*
X383125D01*
X383225Y362772D01*
X382991Y362675D01*
X382377Y362061D01*
X382045Y361260D01*
Y360392D01*
X381781Y359996D01*
X380890D01*
Y359535D01*
X380474Y359257D01*
X380103Y359410D01*
X379236D01*
X378434Y359078D01*
X377820Y358465D01*
X377488Y357663D01*
Y356796D01*
X377820Y355994D01*
X378434Y355380D01*
X379236Y355048D01*
X380103D01*
X380474Y355202D01*
X380890Y354924D01*
Y354256D01*
X382040D01*
X382318Y353840D01*
X382218Y353599D01*
Y352731D01*
X382550Y351929D01*
X383163Y351316D01*
X383965Y350984D01*
X384833D01*
X385634Y351316D01*
X386248Y351929D01*
X386580Y352731D01*
Y353599D01*
X386480Y353840D01*
X386758Y354256D01*
X388008D01*
Y354614D01*
X388399Y354876D01*
X389267D01*
X390068Y355208D01*
X390682Y355821D01*
X391014Y356623D01*
Y357491D01*
X390682Y358292D01*
X390068Y358906D01*
X389267Y359238D01*
X388399D01*
X388008Y359499D01*
Y359996D01*
X386672D01*
X386408Y360392D01*
Y361260D01*
X386075Y362061D01*
X385462Y362675D01*
X385228Y362772D01*
X385328Y363272D01*
X386958D01*
X386996Y363264D01*
X387034Y363272D01*
X388008D01*
Y364025D01*
X388163Y364061D01*
X388387Y364093D01*
X388509Y364103D01*
X406727D01*
X406876Y364089D01*
X407090Y364054D01*
X407242Y364013D01*
X407268Y364003D01*
Y358744D01*
X414386D01*
Y373539D01*
X407268D01*
Y368281D01*
X407242Y368270D01*
X407090Y368230D01*
X406876Y368194D01*
X406727Y368181D01*
X388509D01*
X388387Y368190D01*
X388163Y368222D01*
X388008Y368258D01*
Y369012D01*
X387034D01*
X386996Y369019D01*
X386958Y369012D01*
X381510D01*
X381363Y369159D01*
X380702Y369601D01*
X379921Y369756D01*
X379440D01*
X379346Y369767D01*
Y371638D01*
Y374697D01*
X371835D01*
Y371262D01*
X371677Y371157D01*
X370809D01*
X370431Y371000D01*
X369420D01*
X369113Y371128D01*
X368245D01*
X367843Y370961D01*
X366962D01*
X364828Y373095D01*
X364166Y373537D01*
X363386Y373693D01*
X360391D01*
X360241Y373706D01*
X360027Y373741D01*
X359875Y373782D01*
X359850Y373792D01*
Y375403D01*
D02*
G37*
G36*
X398713Y351787D02*
X389354D01*
Y350247D01*
X389296Y350180D01*
X388854Y349954D01*
X388229Y350213D01*
X387361D01*
X386560Y349881D01*
X385946Y349267D01*
X385614Y348465D01*
Y347598D01*
X385946Y346796D01*
X386560Y346182D01*
X387361Y345850D01*
X388229D01*
X388854Y346109D01*
X389296Y345883D01*
X389354Y345816D01*
Y344276D01*
X398713D01*
Y348031D01*
Y351787D01*
D02*
G37*
G36*
X402772D02*
X399713D01*
Y348532D01*
X402772D01*
Y351787D01*
D02*
G37*
G36*
Y347532D02*
X399713D01*
Y344276D01*
X402772D01*
Y347532D01*
D02*
G37*
G36*
X408294Y342799D02*
X405395D01*
Y337699D01*
Y333623D01*
X405694D01*
X405618Y333615D01*
X405550Y333591D01*
X405490Y333550D01*
X405439Y333493D01*
X405395Y333420D01*
Y333116D01*
X405401Y333098D01*
X405448Y333002D01*
X405504Y332909D01*
X405568Y332818D01*
X405640Y332730D01*
X405721Y332645D01*
X405395D01*
Y332599D01*
X408294D01*
Y332645D01*
X407968D01*
X408049Y332730D01*
X408121Y332818D01*
X408185Y332909D01*
X408241Y333002D01*
X408288Y333098D01*
X408294Y333116D01*
Y333420D01*
X408294Y333420D01*
X408251Y333493D01*
X408198Y333550D01*
X408139Y333591D01*
X408071Y333615D01*
X407995Y333623D01*
X408294D01*
Y337699D01*
Y342799D01*
D02*
G37*
G36*
X404394D02*
X401495D01*
Y342786D01*
X401500Y342595D01*
X401514Y342423D01*
X401540Y342271D01*
X401575Y342140D01*
X401619Y342028D01*
X401675Y341937D01*
X401740Y341866D01*
X401815Y341816D01*
X401899Y341785D01*
X401995Y341775D01*
X401495D01*
Y337699D01*
Y333623D01*
X401794D01*
X401719Y333615D01*
X401650Y333591D01*
X401590Y333550D01*
X401539Y333493D01*
X401495Y333420D01*
Y333116D01*
X401501Y333098D01*
X401548Y333002D01*
X401604Y332909D01*
X401668Y332818D01*
X401740Y332730D01*
X401821Y332645D01*
X401495D01*
Y332599D01*
X404394D01*
Y332645D01*
X404068D01*
X404149Y332730D01*
X404221Y332818D01*
X404285Y332909D01*
X404341Y333002D01*
X404388Y333098D01*
X404394Y333116D01*
Y333420D01*
X404394Y333420D01*
X404351Y333493D01*
X404298Y333550D01*
X404239Y333591D01*
X404171Y333615D01*
X404095Y333623D01*
X404394D01*
Y337699D01*
Y342799D01*
D02*
G37*
G36*
X400494D02*
X397495D01*
Y337699D01*
Y333623D01*
X397795D01*
X397719Y333615D01*
X397651Y333591D01*
X397590Y333550D01*
X397538Y333493D01*
X397495Y333420D01*
Y333116D01*
X397501Y333098D01*
X397548Y333002D01*
X397604Y332909D01*
X397668Y332818D01*
X397740Y332730D01*
X397821Y332645D01*
X397495D01*
Y332599D01*
X400494D01*
Y332645D01*
X400168D01*
X400249Y332730D01*
X400321Y332818D01*
X400385Y332909D01*
X400441Y333002D01*
X400488Y333098D01*
X400494Y333116D01*
Y333420D01*
X400494Y333420D01*
X400451Y333493D01*
X400398Y333550D01*
X400339Y333591D01*
X400271Y333615D01*
X400195Y333623D01*
X400494D01*
Y337699D01*
Y341775D01*
X399994D01*
X400090Y341785D01*
X400175Y341816D01*
X400249Y341866D01*
X400315Y341937D01*
X400370Y342028D01*
X400415Y342140D01*
X400450Y342271D01*
X400475Y342423D01*
X400490Y342595D01*
X400494Y342787D01*
X400494D01*
Y342799D01*
D02*
G37*
G36*
X396495D02*
X393595D01*
Y337699D01*
Y333623D01*
X393895D01*
X393818Y333615D01*
X393751Y333591D01*
X393690Y333550D01*
X393638Y333493D01*
X393595Y333420D01*
Y333116D01*
X393601Y333098D01*
X393648Y333002D01*
X393704Y332909D01*
X393768Y332818D01*
X393840Y332730D01*
X393921Y332645D01*
X393595D01*
Y332599D01*
X396495D01*
Y332645D01*
X396168D01*
X396249Y332730D01*
X396321Y332818D01*
X396385Y332909D01*
X396441Y333002D01*
X396488Y333098D01*
X396495Y333116D01*
Y333420D01*
X396495Y333420D01*
X396450Y333493D01*
X396398Y333550D01*
X396339Y333591D01*
X396270Y333615D01*
X396195Y333623D01*
X396495D01*
Y337699D01*
Y342799D01*
D02*
G37*
G36*
X392595D02*
X389694D01*
Y337699D01*
Y333623D01*
X389995D01*
X389918Y333615D01*
X389850Y333591D01*
X389791Y333550D01*
X389738Y333493D01*
X389694Y333420D01*
Y333116D01*
X389701Y333098D01*
X389748Y333002D01*
X389804Y332909D01*
X389868Y332818D01*
X389940Y332730D01*
X390021Y332645D01*
X389694D01*
Y332599D01*
X392595D01*
Y332645D01*
X392268D01*
X392349Y332730D01*
X392421Y332818D01*
X392485Y332909D01*
X392541Y333002D01*
X392588Y333098D01*
X392595Y333116D01*
Y333420D01*
X392595Y333420D01*
X392550Y333493D01*
X392498Y333550D01*
X392439Y333591D01*
X392371Y333615D01*
X392295Y333623D01*
X392595D01*
Y337699D01*
Y342799D01*
D02*
G37*
G36*
X432895Y327399D02*
X428094D01*
Y327399D01*
X421095D01*
Y327399D01*
X412294D01*
Y327399D01*
X409295D01*
Y327399D01*
X400494D01*
Y327399D01*
X399495D01*
Y327353D01*
X399821D01*
X399740Y327268D01*
X399668Y327181D01*
X399604Y327090D01*
X399548Y326996D01*
X399501Y326900D01*
X399495Y326883D01*
Y326578D01*
X399538Y326505D01*
X399590Y326448D01*
X399651Y326408D01*
X399718Y326383D01*
X399795Y326375D01*
X399495D01*
Y322299D01*
Y317199D01*
X401395D01*
Y317199D01*
X408394D01*
Y317199D01*
X413195D01*
Y317199D01*
X420194D01*
Y317199D01*
X428995D01*
Y317199D01*
X431994D01*
Y317199D01*
X436795D01*
Y327399D01*
X432895D01*
Y327399D01*
D02*
G37*
G36*
X438795Y342799D02*
X409295D01*
Y337699D01*
Y333623D01*
X409594D01*
X409518Y333615D01*
X409450Y333591D01*
X409390Y333550D01*
X409339Y333493D01*
X409295Y333420D01*
Y333116D01*
X409301Y333098D01*
X409348Y333002D01*
X409404Y332909D01*
X409468Y332818D01*
X409540Y332730D01*
X409621Y332645D01*
X409295D01*
Y332599D01*
X437838D01*
X438088Y332166D01*
X437928Y331891D01*
X437595Y330644D01*
Y329354D01*
X437928Y328108D01*
X438574Y326991D01*
X439486Y326078D01*
X440603Y325433D01*
X441849Y325099D01*
X443140D01*
X443648Y325235D01*
X444044Y324931D01*
Y322299D01*
X451145D01*
Y337699D01*
X444044D01*
Y335067D01*
X443648Y334763D01*
X443140Y334899D01*
X441849D01*
X440603Y334565D01*
X439486Y333920D01*
X439256Y333691D01*
X438795Y333882D01*
Y342799D01*
D02*
G37*
G36*
X394595Y327399D02*
X391675D01*
X391618Y327330D01*
X391595Y327297D01*
Y326412D01*
X391601Y326408D01*
X391669Y326383D01*
X391745Y326375D01*
X391595D01*
Y322299D01*
Y317199D01*
X394595D01*
Y322299D01*
Y326375D01*
X394295D01*
X394371Y326383D01*
X394439Y326408D01*
X394498Y326448D01*
X394550Y326505D01*
X394595Y326578D01*
X394595Y326578D01*
Y326883D01*
X394588Y326900D01*
X394541Y326996D01*
X394485Y327090D01*
X394421Y327181D01*
X394349Y327268D01*
X394268Y327353D01*
X394595D01*
Y327399D01*
D02*
G37*
G36*
X397495D02*
X395595D01*
Y327353D01*
X395921D01*
X395840Y327268D01*
X395768Y327181D01*
X395704Y327090D01*
X395648Y326996D01*
X395601Y326900D01*
X395595Y326883D01*
Y326578D01*
X395638Y326505D01*
X395690Y326448D01*
X395750Y326408D01*
X395818Y326383D01*
X395895Y326375D01*
X395595D01*
Y322299D01*
Y317199D01*
X396595D01*
Y317199D01*
X398495D01*
Y322299D01*
Y326375D01*
X398195D01*
X398271Y326383D01*
X398339Y326408D01*
X398398Y326448D01*
X398450Y326505D01*
X398495Y326578D01*
X398495Y326578D01*
Y326883D01*
X398488Y326900D01*
X398441Y326996D01*
X398385Y327090D01*
X398321Y327181D01*
X398249Y327268D01*
X398168Y327353D01*
X398495D01*
Y327399D01*
X397495D01*
Y327399D01*
D02*
G37*
%LPD*%
G36*
X347474Y369654D02*
X347453Y369844D01*
X347393Y370013D01*
X347292Y370163D01*
X347152Y370294D01*
X346971Y370404D01*
X346749Y370494D01*
X346488Y370564D01*
X346186Y370614D01*
X345844Y370644D01*
X345462Y370654D01*
Y372654D01*
X345844Y372663D01*
X346186Y372694D01*
X346488Y372744D01*
X346749Y372814D01*
X346971Y372903D01*
X347152Y373013D01*
X347292Y373144D01*
X347393Y373294D01*
X347453Y373464D01*
X347474Y373654D01*
Y369654D01*
D02*
G37*
G36*
Y362775D02*
X347460Y362850D01*
X347417Y362918D01*
X347347Y362978D01*
X347248Y363030D01*
X347121Y363074D01*
X346966Y363109D01*
X346782Y363137D01*
X346571Y363157D01*
X346063Y363173D01*
Y365173D01*
X346331Y365177D01*
X346782Y365209D01*
X346966Y365237D01*
X347121Y365273D01*
X347248Y365317D01*
X347347Y365369D01*
X347417Y365428D01*
X347460Y365496D01*
X347474Y365572D01*
Y362775D01*
D02*
G37*
G36*
X358846Y373464D02*
X358906Y373294D01*
X359007Y373144D01*
X359148Y373013D01*
X359329Y372903D01*
X359550Y372814D01*
X359811Y372744D01*
X360113Y372694D01*
X360455Y372663D01*
X360838Y372654D01*
Y370654D01*
X360455Y370644D01*
X360113Y370614D01*
X359811Y370564D01*
X359550Y370494D01*
X359329Y370404D01*
X359148Y370294D01*
X359007Y370163D01*
X358906Y370013D01*
X358846Y369844D01*
X358826Y369654D01*
Y373654D01*
X358846Y373464D01*
D02*
G37*
G36*
X372859Y367372D02*
X372843Y367479D01*
X372796Y367575D01*
X372717Y367660D01*
X372606Y367733D01*
X372464Y367795D01*
X372291Y367846D01*
X372086Y367886D01*
X371850Y367914D01*
X371582Y367931D01*
X371282Y367937D01*
Y369937D01*
X371582Y369942D01*
X372086Y369988D01*
X372291Y370027D01*
X372464Y370078D01*
X372606Y370140D01*
X372717Y370213D01*
X372796Y370298D01*
X372843Y370394D01*
X372859Y370501D01*
Y367372D01*
D02*
G37*
G36*
X378339Y369192D02*
X378387Y369092D01*
X378467Y369004D01*
X378579Y368928D01*
X378723Y368863D01*
X378899Y368810D01*
X379107Y368769D01*
X379346Y368740D01*
X379618Y368722D01*
X379921Y368717D01*
Y366717D01*
X379620Y366713D01*
X378906Y366658D01*
X378731Y366625D01*
X378588Y366585D01*
X378477Y366537D01*
X378398Y366482D01*
X378350Y366420D01*
X378334Y366351D01*
X378322Y369303D01*
X378339Y369192D01*
D02*
G37*
G36*
X387016Y367837D02*
X387076Y367691D01*
X387176Y367562D01*
X387316Y367451D01*
X387496Y367356D01*
X387716Y367279D01*
X387976Y367219D01*
X388276Y367176D01*
X388616Y367150D01*
X388996Y367142D01*
Y365142D01*
X388616Y365133D01*
X388276Y365107D01*
X387976Y365065D01*
X387716Y365004D01*
X387496Y364927D01*
X387316Y364833D01*
X387176Y364721D01*
X387076Y364593D01*
X387016Y364447D01*
X386996Y364284D01*
Y368000D01*
X387016Y367837D01*
D02*
G37*
G36*
X408292Y364142D02*
X408272Y364332D01*
X408211Y364502D01*
X408111Y364652D01*
X407970Y364782D01*
X407789Y364892D01*
X407567Y364982D01*
X407306Y365052D01*
X407004Y365102D01*
X406662Y365132D01*
X406280Y365142D01*
Y367142D01*
X406662Y367152D01*
X407004Y367182D01*
X407306Y367232D01*
X407567Y367302D01*
X407789Y367392D01*
X407970Y367502D01*
X408111Y367632D01*
X408211Y367782D01*
X408272Y367952D01*
X408292Y368142D01*
Y364142D01*
D02*
G37*
G36*
X358846Y365983D02*
X358906Y365813D01*
X359007Y365663D01*
X359148Y365533D01*
X359329Y365423D01*
X359550Y365333D01*
X359811Y365263D01*
X360113Y365213D01*
X360455Y365183D01*
X360838Y365173D01*
Y363173D01*
X360455Y363163D01*
X360113Y363133D01*
X359811Y363083D01*
X359550Y363013D01*
X359329Y362923D01*
X359148Y362813D01*
X359007Y362683D01*
X358906Y362533D01*
X358846Y362363D01*
X358826Y362173D01*
Y366173D01*
X358846Y365983D01*
D02*
G37*
G36*
X384727Y359982D02*
X385053D01*
X384991Y359915D01*
X384936Y359842D01*
X384887Y359764D01*
X384844Y359679D01*
X384808Y359588D01*
X384779Y359492D01*
X384772Y359464D01*
X384806Y359336D01*
X384852Y359225D01*
X384907Y359134D01*
X384971Y359063D01*
X385047Y359013D01*
X385132Y358982D01*
X385226Y358972D01*
X383226D01*
X383321Y358982D01*
X383406Y359013D01*
X383482Y359063D01*
X383546Y359134D01*
X383601Y359225D01*
X383646Y359336D01*
X383680Y359464D01*
X383674Y359492D01*
X383645Y359588D01*
X383609Y359679D01*
X383566Y359764D01*
X383517Y359842D01*
X383462Y359915D01*
X383400Y359982D01*
X383726D01*
X383727Y359984D01*
X384727D01*
X384727Y359982D01*
D02*
G37*
G36*
X381914Y356229D02*
X381904Y356324D01*
X381873Y356409D01*
X381823Y356484D01*
X381752Y356549D01*
X381661Y356604D01*
X381549Y356649D01*
X381418Y356684D01*
X381266Y356709D01*
X381204Y356715D01*
X381106Y356700D01*
X381003Y356677D01*
X380907Y356648D01*
X380816Y356612D01*
X380732Y356569D01*
X380653Y356520D01*
X380580Y356465D01*
X380513Y356403D01*
Y358056D01*
X380580Y357994D01*
X380653Y357939D01*
X380732Y357889D01*
X380816Y357847D01*
X380907Y357811D01*
X381003Y357782D01*
X381106Y357759D01*
X381204Y357744D01*
X381266Y357749D01*
X381418Y357774D01*
X381549Y357809D01*
X381661Y357854D01*
X381752Y357909D01*
X381823Y357974D01*
X381873Y358049D01*
X381904Y358134D01*
X381914Y358229D01*
Y356229D01*
D02*
G37*
G36*
X386994Y357962D02*
X387024Y357877D01*
X387075Y357802D01*
X387146Y357737D01*
X387237Y357682D01*
X387348Y357637D01*
X387474Y357604D01*
X387499Y357609D01*
X387595Y357639D01*
X387686Y357675D01*
X387771Y357717D01*
X387849Y357766D01*
X387922Y357822D01*
X387989Y357884D01*
Y357557D01*
X387996Y357557D01*
Y356557D01*
X387989Y356557D01*
Y356230D01*
X387922Y356292D01*
X387849Y356348D01*
X387771Y356397D01*
X387686Y356439D01*
X387595Y356475D01*
X387499Y356505D01*
X387474Y356510D01*
X387348Y356477D01*
X387237Y356432D01*
X387146Y356377D01*
X387075Y356312D01*
X387024Y356237D01*
X386994Y356152D01*
X386984Y356057D01*
Y358057D01*
X386994Y357962D01*
D02*
G37*
G36*
X385304Y355258D02*
X385219Y355228D01*
X385144Y355178D01*
X385079Y355108D01*
X385024Y355018D01*
X384979Y354908D01*
X384944Y354778D01*
X384922Y354645D01*
X384928Y354601D01*
X384951Y354499D01*
X384981Y354402D01*
X385017Y354312D01*
X385059Y354227D01*
X385108Y354148D01*
X385164Y354075D01*
X385226Y354008D01*
X383572D01*
X383634Y354075D01*
X383690Y354148D01*
X383739Y354227D01*
X383781Y354312D01*
X383817Y354402D01*
X383847Y354499D01*
X383870Y354601D01*
X383876Y354645D01*
X383854Y354778D01*
X383819Y354908D01*
X383774Y355018D01*
X383719Y355108D01*
X383654Y355178D01*
X383579Y355228D01*
X383494Y355258D01*
X383399Y355268D01*
X385399D01*
X385304Y355258D01*
D02*
G37*
G36*
X390366Y347031D02*
X390356Y347127D01*
X390326Y347212D01*
X390276Y347287D01*
X390206Y347352D01*
X390116Y347407D01*
X390006Y347451D01*
X389876Y347486D01*
X389726Y347512D01*
X389556Y347527D01*
X389472Y347529D01*
X389454Y347528D01*
X389340Y347518D01*
X389231Y347502D01*
X389129Y347479D01*
X389033Y347450D01*
X388942Y347414D01*
X388858Y347371D01*
X388779Y347322D01*
X388706Y347267D01*
X388639Y347205D01*
Y348858D01*
X388706Y348796D01*
X388779Y348741D01*
X388858Y348692D01*
X388942Y348649D01*
X389033Y348613D01*
X389129Y348584D01*
X389231Y348561D01*
X389340Y348545D01*
X389454Y348535D01*
X389472Y348534D01*
X389556Y348536D01*
X389726Y348552D01*
X389876Y348576D01*
X390006Y348611D01*
X390116Y348657D01*
X390206Y348711D01*
X390276Y348777D01*
X390326Y348851D01*
X390356Y348937D01*
X390366Y349031D01*
Y347031D01*
D02*
G37*
%LPC*%
G36*
X390685Y278638D02*
X389004D01*
Y276878D01*
X390685D01*
Y278638D01*
D02*
G37*
G36*
Y275878D02*
X389004D01*
Y275142D01*
X389304D01*
X389228Y275134D01*
X389160Y275110D01*
X389100Y275069D01*
X389048Y275012D01*
X389004Y274939D01*
X389004Y274939D01*
Y274118D01*
X390685D01*
Y275878D01*
D02*
G37*
G36*
X396433Y262886D02*
X394201D01*
Y259827D01*
X397457D01*
Y262840D01*
X397383Y262856D01*
X397274Y262873D01*
X397217Y262878D01*
X397080Y262866D01*
X396929Y262841D01*
X396797Y262806D01*
X396686Y262761D01*
X396595Y262706D01*
X396524Y262641D01*
X396473Y262566D01*
X396443Y262481D01*
X396433Y262386D01*
Y262886D01*
D02*
G37*
G36*
X393201D02*
X389945D01*
Y259827D01*
X393201D01*
Y262886D01*
D02*
G37*
G36*
X386410Y240512D02*
X385210D01*
Y238124D01*
X385398D01*
X385344Y238116D01*
X385295Y238092D01*
X385251Y238052D01*
X385214Y237996D01*
X385210Y237987D01*
Y237112D01*
X386410D01*
Y240512D01*
D02*
G37*
G36*
X368910Y244912D02*
X367310D01*
Y241012D01*
Y238124D01*
X367498D01*
X367443Y238116D01*
X367395Y238092D01*
X367351Y238052D01*
X367314Y237996D01*
X367310Y237987D01*
Y237112D01*
X368910D01*
Y237987D01*
X368907Y237996D01*
X368869Y238052D01*
X368826Y238092D01*
X368777Y238116D01*
X368722Y238124D01*
X368910D01*
Y241012D01*
Y244912D01*
D02*
G37*
G36*
X388953Y235724D02*
X387272D01*
Y233964D01*
X388953D01*
Y235724D01*
D02*
G37*
G36*
Y232964D02*
X387272D01*
Y231205D01*
X388953D01*
Y232964D01*
D02*
G37*
G36*
X373516Y230331D02*
X370260D01*
Y227468D01*
X371081D01*
X371081Y227468D01*
X371154Y227513D01*
X371211Y227565D01*
X371251Y227625D01*
X371276Y227693D01*
X371284Y227768D01*
Y227468D01*
X373516D01*
Y229307D01*
X373216D01*
X373292Y229315D01*
X373360Y229339D01*
X373420Y229380D01*
X373472Y229437D01*
X373516Y229510D01*
X373516Y229510D01*
Y230331D01*
D02*
G37*
G36*
X369110Y230331D02*
X365854D01*
Y227272D01*
X368086D01*
Y227768D01*
X368094Y227693D01*
X368119Y227625D01*
X368159Y227565D01*
X368216Y227513D01*
X368289Y227468D01*
X368378Y227432D01*
X368484Y227404D01*
X368606Y227384D01*
X368744Y227373D01*
X368898Y227368D01*
Y227272D01*
X369110D01*
Y230331D01*
D02*
G37*
G36*
X364854D02*
X361598D01*
Y227272D01*
X364854D01*
Y230331D01*
D02*
G37*
G36*
X390839Y219972D02*
X388607D01*
Y219476D01*
X388599Y219552D01*
X388574Y219620D01*
X388534Y219680D01*
X388477Y219732D01*
X388404Y219776D01*
X388314Y219812D01*
X388209Y219840D01*
X388087Y219860D01*
X387949Y219872D01*
X387795Y219876D01*
Y219972D01*
X387583D01*
Y216913D01*
X390839D01*
Y219972D01*
D02*
G37*
G36*
X386433Y219776D02*
X385621D01*
D01*
X385549Y219732D01*
X385493Y219680D01*
X385453Y219620D01*
X385429Y219552D01*
X385421Y219476D01*
Y219776D01*
X383177D01*
Y217937D01*
X383871D01*
X383795Y217929D01*
X383727Y217905D01*
X383667Y217864D01*
X383615Y217808D01*
X383571Y217734D01*
X383535Y217645D01*
X383507Y217540D01*
X383487Y217418D01*
X383475Y217280D01*
X383472Y217155D01*
X383475Y217064D01*
X383488Y216957D01*
X383497Y216913D01*
X386433D01*
Y219776D01*
D02*
G37*
G36*
X395094Y219972D02*
X391839D01*
Y216913D01*
X395094D01*
Y219972D01*
D02*
G37*
G36*
X443269Y293520D02*
X440309D01*
Y290461D01*
X443565D01*
Y292508D01*
X442872D01*
X442948Y292516D01*
X443016Y292540D01*
X443076Y292580D01*
X443128Y292636D01*
X443172Y292708D01*
X443208Y292796D01*
X443236Y292900D01*
X443256Y293020D01*
X443268Y293156D01*
X443272Y293308D01*
X443565D01*
Y293456D01*
X443272D01*
X443269Y293520D01*
D02*
G37*
G36*
X439471Y279425D02*
X437790D01*
Y277665D01*
X439471D01*
Y279425D01*
D02*
G37*
G36*
Y276665D02*
X437790D01*
Y274905D01*
X439471D01*
Y276665D01*
D02*
G37*
G36*
X441532Y273518D02*
X440332D01*
Y270253D01*
X440386Y270233D01*
X440488Y270203D01*
X440592Y270181D01*
X440700Y270168D01*
X440701Y270168D01*
X440837Y270180D01*
X440958Y270200D01*
X441064Y270228D01*
X441153Y270264D01*
X441226Y270308D01*
X441283Y270360D01*
X441324Y270420D01*
X441348Y270488D01*
X441356Y270564D01*
Y270118D01*
X441532D01*
Y272506D01*
X441344D01*
X441399Y272514D01*
X441448Y272538D01*
X441491Y272578D01*
X441529Y272634D01*
X441532Y272642D01*
Y273518D01*
D02*
G37*
G36*
Y269118D02*
X441356D01*
Y268964D01*
X441348Y269040D01*
X441324Y269108D01*
X441317Y269118D01*
X440332D01*
Y265718D01*
X441532D01*
Y269118D01*
D02*
G37*
G36*
X437713Y236676D02*
X436222D01*
Y234916D01*
X437903D01*
Y235652D01*
X437439D01*
X437515Y235661D01*
X437583Y235685D01*
X437643Y235725D01*
X437695Y235782D01*
X437739Y235855D01*
X437775Y235945D01*
X437803Y236050D01*
X437823Y236172D01*
X437829Y236251D01*
X437822Y236313D01*
X437802Y236418D01*
X437774Y236521D01*
X437738Y236622D01*
X437713Y236676D01*
D02*
G37*
G36*
X437903Y233916D02*
X436222D01*
Y232157D01*
X437903D01*
Y233916D01*
D02*
G37*
%LPD*%
D17*
X441868Y240454D02*
X442065Y240650D01*
X387795Y244094D02*
X398819D01*
X284646Y271260D02*
X297638Y284252D01*
X267323Y271260D02*
X284646D01*
X267323Y265354D02*
X282677D01*
X298726Y281403D01*
X297638Y284252D02*
X350122D01*
X298726Y281403D02*
X350436D01*
X356610Y270012D02*
Y277764D01*
X350122Y284252D02*
X356610Y277764D01*
X354010Y270012D02*
Y277829D01*
X350436Y281403D02*
X354010Y277829D01*
X470132Y235487D02*
Y240618D01*
X469970Y240456D02*
X470132Y240618D01*
X469291Y196063D02*
Y234646D01*
X470132Y235487D01*
X472732Y196165D02*
Y240618D01*
Y196165D02*
X472835Y196063D01*
X379134Y288386D02*
Y292913D01*
X379134Y288386D02*
X379134Y288386D01*
Y292913D02*
X379134Y292913D01*
X457058Y219262D02*
Y222307D01*
X448701Y210906D02*
X457058Y219262D01*
X424133Y210906D02*
X448701D01*
X466142Y225590D02*
Y227559D01*
X461782Y229921D02*
X463779D01*
X466142Y227559D01*
X461782Y226457D02*
X462083Y226156D01*
Y222981D02*
Y226156D01*
X480286Y282677D02*
X485433D01*
X347753Y273191D02*
Y276342D01*
Y273191D02*
X347789Y273154D01*
X347716Y276378D02*
X347753Y276342D01*
X364817Y284317D02*
Y287734D01*
X361024Y283071D02*
Y288189D01*
X363386Y280709D02*
X364961D01*
X361024Y283071D02*
X363386Y280709D01*
X336221Y227165D02*
Y248425D01*
X315439Y257547D02*
X327098D01*
X336221Y248425D01*
X329067Y248492D02*
X333071Y244488D01*
Y225590D02*
Y244488D01*
X315039Y248492D02*
X329067D01*
X315039D02*
X315439Y248092D01*
X367323Y317415D02*
Y322128D01*
X325984Y312598D02*
X362506D01*
X367323Y317415D01*
X355814Y321168D02*
X358594D01*
X359594Y322168D02*
Y322299D01*
X353150Y318504D02*
X355814Y321168D01*
X358594D02*
X359594Y322168D01*
X316142Y318504D02*
X353150D01*
X324016Y314961D02*
X361417D01*
X363595Y317138D01*
Y322299D01*
X323622Y310236D02*
X325984Y312598D01*
X367323Y322128D02*
X367495Y322299D01*
X300092Y313687D02*
X300289D01*
X295669Y318110D02*
Y318307D01*
Y318110D02*
X300092Y313687D01*
X300289D02*
X303740Y310236D01*
X323622D01*
X295669Y294685D02*
X300092Y299108D01*
X300289D01*
X303150Y301969D02*
X339387D01*
X295669Y294488D02*
Y294685D01*
X300289Y299108D02*
X303150Y301969D01*
X345555Y293110D02*
X359842Y278823D01*
X317520Y293110D02*
X345555D01*
X359842Y277165D02*
Y278823D01*
X295669Y318307D02*
Y327953D01*
X316142Y318504D02*
Y327953D01*
X300787D02*
Y331890D01*
X321260Y327953D02*
X321457Y328150D01*
Y332283D01*
X295669Y294488D02*
X296547Y293611D01*
X339387Y301969D02*
X361811Y279544D01*
X337795Y262992D02*
X342520D01*
X346457Y227953D02*
Y232677D01*
Y227953D02*
X346457Y227953D01*
X333071Y225590D02*
X339342Y219320D01*
X355740D02*
X359634Y223213D01*
X339342Y219320D02*
X355740D01*
X341339Y222047D02*
X354574D01*
X357056Y224529D01*
X336221Y227165D02*
X341339Y222047D01*
X359634Y223213D02*
Y231841D01*
X357056Y224529D02*
Y232253D01*
X361710Y236907D01*
X359634Y231841D02*
X364310Y236518D01*
X492520Y271260D02*
Y283071D01*
Y271260D02*
X499994Y263786D01*
X512395D01*
X490154Y268508D02*
X503931Y254731D01*
X490154Y268508D02*
Y281932D01*
X503931Y254731D02*
X512317D01*
X484252Y291339D02*
X492520Y283071D01*
X469291Y291339D02*
X484252D01*
X466535Y288583D02*
X469291Y291339D01*
X466535Y279428D02*
Y288583D01*
X470635Y289139D02*
X482947D01*
X468504Y278346D02*
Y287008D01*
X470635Y289139D01*
X465032Y274875D02*
X468504Y278346D01*
X465032Y269618D02*
Y274875D01*
X462432Y275325D02*
X466535Y279428D01*
X361710Y236907D02*
Y241012D01*
X364310Y236518D02*
Y241012D01*
X315039Y257547D02*
X315439Y257147D01*
X462432Y269618D02*
Y275325D01*
X482947Y289139D02*
X490154Y281932D01*
X480286Y282677D02*
X480286Y282677D01*
X512317Y254731D02*
X512717Y254331D01*
X512395Y263786D02*
X512795Y263386D01*
X441886Y269764D02*
X442032Y269618D01*
X438990Y269764D02*
X441886D01*
X442032Y269618D02*
Y273687D01*
X421479Y260061D02*
X444376D01*
X419291Y257874D02*
X421479Y260061D01*
X417717Y261417D02*
X417961Y261661D01*
X445039D01*
X444376Y260061D02*
X444415Y260022D01*
X445078Y261622D02*
X450598D01*
X445039Y261661D02*
X445078Y261622D01*
X450598D02*
X452232Y263256D01*
X444415Y260022D02*
X451755D01*
X454764Y263032D01*
X370441Y265386D02*
X373260D01*
X374510Y266636D01*
X369410Y266417D02*
X370441Y265386D01*
X478346Y241339D02*
X484223D01*
X475532D02*
X478346D01*
X348425Y269291D02*
X351210D01*
X342520D02*
X348425D01*
X379934Y322939D02*
Y327131D01*
X379294Y322299D02*
X379934Y322939D01*
Y327131D02*
X381690Y328886D01*
X382881D02*
X383169Y329174D01*
X381690Y328886D02*
X382881D01*
X383295Y316402D02*
Y322299D01*
X387194Y316402D02*
Y322299D01*
X389194Y331802D02*
Y337699D01*
X393094Y331802D02*
Y337699D01*
X396994Y331802D02*
Y337699D01*
X400994Y331802D02*
Y337699D01*
X404894Y331802D02*
Y337699D01*
X408794Y331802D02*
Y337699D01*
X398994Y322299D02*
Y328197D01*
X395094Y322299D02*
Y328197D01*
X390945Y322449D02*
X391094Y322299D01*
X390945Y322449D02*
Y328346D01*
X369787Y297463D02*
X386749D01*
X369685Y288386D02*
X369711Y288412D01*
Y297387D02*
X369787Y297463D01*
X369711Y288412D02*
Y297387D01*
X387444Y300000D02*
X409449Y277995D01*
X365354Y300787D02*
X366142Y300000D01*
X387444D01*
X375984Y288386D02*
Y294702D01*
X376164Y294882D01*
X372835Y288386D02*
Y294415D01*
X372835Y294415D01*
X386749Y297463D02*
X407087Y277125D01*
X364817Y284317D02*
X364961Y284173D01*
X375531Y246295D02*
Y246490D01*
X374510Y245274D02*
X375531Y246295D01*
X374510Y241012D02*
Y245274D01*
X371910Y241012D02*
X371979Y241080D01*
Y246388D02*
X372047Y246457D01*
X371979Y241080D02*
Y246388D01*
X433004Y247244D02*
X433071Y247311D01*
X427953Y247244D02*
X433004D01*
X442065Y240650D02*
Y246424D01*
X384719Y241021D02*
Y246448D01*
X384728Y246457D01*
X384710Y241012D02*
X384719Y241021D01*
X400962Y232065D02*
X404331Y235433D01*
X394313Y232065D02*
X400962D01*
X391732Y234646D02*
X394313Y232065D01*
X404331Y257767D02*
X404384Y257821D01*
X401181Y258268D02*
X404331Y261417D01*
X401181Y256299D02*
Y258268D01*
X404331Y235433D02*
Y257767D01*
X401181Y256299D02*
X401968Y255512D01*
Y236221D02*
Y255512D01*
X397638Y234646D02*
Y239173D01*
X400394Y234646D02*
X401968Y236221D01*
X397638Y234646D02*
X400394D01*
X407087Y227953D02*
Y277125D01*
Y227953D02*
X424133Y210906D01*
X452232Y263256D02*
Y269618D01*
X454764Y263032D02*
Y269550D01*
X384646Y287697D02*
X388848D01*
X390802Y289651D01*
X362992Y303150D02*
X365354Y300787D01*
Y300787D02*
Y300787D01*
X362992Y303150D02*
Y308268D01*
X368110Y301969D02*
X388718D01*
X379134Y304724D02*
X388987D01*
X450758Y222307D02*
X450758Y222307D01*
X388987Y304724D02*
X414173Y279539D01*
X388718Y301969D02*
X411811Y278875D01*
X366899Y303180D02*
Y306041D01*
Y303180D02*
X368110Y301969D01*
X298425Y229201D02*
X302559Y229201D01*
X298819Y241012D02*
X302756D01*
X298819Y265028D02*
X302756D01*
X484223Y247638D02*
X484252Y247667D01*
Y252756D01*
X525295Y282658D02*
X528999D01*
X525276Y282677D02*
X525295Y282658D01*
X525079Y270866D02*
X529016D01*
X525079Y246850D02*
X529016D01*
X525093Y235123D02*
X529030D01*
X411811Y230315D02*
Y278875D01*
X449606Y296063D02*
Y298819D01*
X399606D02*
X449606D01*
Y296063D02*
X449619Y296050D01*
Y269631D02*
X449632Y269618D01*
X449619Y269631D02*
Y296050D01*
X447885Y213250D02*
X453908Y219272D01*
X425333Y213250D02*
X447885D01*
X453908Y219272D02*
Y222307D01*
X409449Y229134D02*
X425333Y213250D01*
X426654Y215472D02*
X446894D01*
X411811Y230315D02*
X426654Y215472D01*
X446894D02*
X450758Y219336D01*
Y222307D01*
X427218Y218058D02*
X445904D01*
X447609Y219762D01*
X414173Y231102D02*
X427218Y218058D01*
X447609Y219762D02*
Y222307D01*
X478979Y234299D02*
Y237450D01*
X438239Y234252D02*
Y237810D01*
X475397Y234417D02*
X475561Y234252D01*
X475397Y234417D02*
Y240454D01*
X409449Y229134D02*
Y277995D01*
X414173Y231102D02*
Y279539D01*
X373394Y343893D02*
X373451Y343950D01*
Y344743D01*
X373394Y337699D02*
Y343893D01*
X365494Y343893D02*
X365551Y343950D01*
Y344743D01*
X365494Y337699D02*
Y343893D01*
X361595Y343893D02*
X361651Y343950D01*
Y344743D01*
X361595Y337699D02*
Y343893D01*
X377294Y343893D02*
X377351Y343950D01*
Y344743D01*
X377294Y337699D02*
Y343893D01*
Y333199D02*
Y337699D01*
X375969Y331874D02*
X377294Y333199D01*
X373434Y330466D02*
X374841Y331874D01*
X375969D01*
X369585Y330466D02*
X373434D01*
X460037Y264144D02*
Y269513D01*
Y264144D02*
X460143Y264039D01*
X459932Y269618D02*
X460037Y269513D01*
X443672Y290748D02*
Y295276D01*
Y290748D02*
X444065Y290354D01*
X441703Y234252D02*
X441868Y234417D01*
X441868Y240454D02*
X441868Y234417D01*
X434617Y240945D02*
X441732D01*
X475232Y240618D02*
X475397Y240454D01*
X475232Y240618D02*
Y241039D01*
X475532Y241339D01*
X445453Y280568D02*
X447132Y278888D01*
X444065Y283661D02*
X445453Y282274D01*
X447132Y278888D02*
X447132Y269618D01*
X445453Y280568D02*
Y282274D01*
X443435Y275433D02*
Y277165D01*
Y275433D02*
X444459Y274409D01*
Y269691D02*
Y274409D01*
X439971Y275748D02*
X442032Y273687D01*
X439971Y275748D02*
Y277165D01*
X444459Y269691D02*
X444532Y269618D01*
Y266463D02*
Y269618D01*
Y266463D02*
X446792Y264203D01*
X457195Y240481D02*
X457332Y240618D01*
X457195Y229074D02*
Y240481D01*
X457057Y228937D02*
X457195Y229074D01*
X453908Y228937D02*
Y233901D01*
X454832Y234826D02*
Y240618D01*
X453908Y233901D02*
X454832Y234826D01*
X449632Y234926D02*
X450758Y233800D01*
Y228937D02*
Y233800D01*
X449632Y234926D02*
Y240618D01*
X447132Y233941D02*
Y240618D01*
Y233941D02*
X447609Y233465D01*
Y228937D02*
Y233465D01*
X452232Y240618D02*
X452232Y243994D01*
X453514Y245276D01*
X456270D01*
X457332Y244213D01*
Y240618D02*
Y244213D01*
X444532Y232750D02*
Y240618D01*
X442115Y227479D02*
Y230334D01*
X444532Y232750D01*
X467632Y240618D02*
X467660Y240646D01*
Y245642D02*
X467687Y245669D01*
X467660Y240646D02*
Y245642D01*
X459932Y234524D02*
X461782Y232674D01*
X459932Y234524D02*
Y240618D01*
X461782Y229921D02*
Y232674D01*
X457332Y273503D02*
X459026Y275197D01*
X457332Y269618D02*
Y273503D01*
X459026Y275197D02*
X459026Y274774D01*
X454764Y269550D02*
X454832Y269618D01*
X472732D02*
X472769Y269655D01*
Y276341D02*
X472806Y276378D01*
X472769Y269655D02*
Y276341D01*
X475232Y273293D02*
X475955Y274016D01*
X475232Y269618D02*
Y273293D01*
X475955Y276063D02*
X476270Y276378D01*
X475955Y274016D02*
Y276063D01*
X475299Y269685D02*
X477924D01*
X475232Y269618D02*
X475299Y269685D01*
X472806Y276378D02*
Y281496D01*
X473987Y282677D01*
X442065Y246424D02*
X442097Y246457D01*
X376208Y329213D02*
X378722D01*
X381294Y331785D01*
Y337699D01*
Y343893D01*
X381351Y343950D02*
Y344743D01*
X381294Y343893D02*
X381351Y343950D01*
X369495Y337699D02*
Y343893D01*
X369551Y343950D01*
Y344743D01*
X384646Y264173D02*
X384678Y264206D01*
Y269980D02*
X384710Y270012D01*
X384678Y264206D02*
Y269980D01*
X361811Y277499D02*
Y279544D01*
X364310Y270012D02*
Y275000D01*
X361811Y277499D02*
X364310Y275000D01*
X359842Y277165D02*
X361710Y275298D01*
X298819Y276839D02*
X302756D01*
X352756Y227953D02*
X353937Y229134D01*
Y234252D01*
X351443Y240945D02*
X351510Y241012D01*
X348819Y240945D02*
X351443D01*
X350787Y234567D02*
Y236614D01*
X350472Y234252D02*
X350787Y234567D01*
X351510Y237337D02*
Y241012D01*
X350787Y236614D02*
X351510Y237337D01*
X353974Y234289D02*
Y240975D01*
X353937Y234252D02*
X353974Y234289D01*
Y240975D02*
X354010Y241012D01*
X397638Y234646D02*
X397638Y234646D01*
X391732Y234646D02*
Y239173D01*
Y234646D02*
X391732Y234646D01*
X367717Y235433D02*
Y235856D01*
X366810Y236762D02*
Y241012D01*
Y236762D02*
X367717Y235856D01*
X369410Y237127D02*
Y241012D01*
X367717Y235433D02*
X369410Y237127D01*
X361710Y270012D02*
Y275298D01*
X364961Y277956D02*
Y280709D01*
X366810Y270012D02*
Y276106D01*
X364961Y277956D02*
X366810Y276106D01*
X359083Y264988D02*
Y269984D01*
X359055Y264961D02*
X359083Y264988D01*
Y269984D02*
X359110Y270012D01*
X382210Y277880D02*
X384627Y280296D01*
Y283151D01*
X382210Y270012D02*
Y277880D01*
X369410Y266417D02*
Y270012D01*
X374510Y266636D02*
Y270012D01*
X379134Y277165D02*
Y281693D01*
Y277165D02*
X379610Y276689D01*
Y270012D02*
Y276689D01*
X377110Y270012D02*
Y275704D01*
X375984Y276830D02*
Y281693D01*
Y276830D02*
X377110Y275704D01*
X371910Y275804D02*
X372835Y276729D01*
X371910Y270012D02*
Y275804D01*
X372835Y276729D02*
Y281693D01*
X369548Y281556D02*
X369685Y281693D01*
X369548Y270149D02*
Y281556D01*
X369410Y270012D02*
X369548Y270149D01*
X379951Y246427D02*
X382210Y244167D01*
Y241012D02*
Y244167D01*
Y241012D02*
X382283Y240939D01*
X386772Y233465D02*
Y234882D01*
X384710Y236943D02*
Y241012D01*
Y236943D02*
X386772Y234882D01*
X382283Y236221D02*
Y240939D01*
Y236221D02*
X383307Y235197D01*
Y233465D02*
Y235197D01*
X381290Y228356D02*
Y230062D01*
X379610Y231742D02*
Y241012D01*
X381290Y228356D02*
X382677Y226969D01*
X379610Y231742D02*
X381290Y230062D01*
X377110Y231093D02*
Y241012D01*
X378346Y222047D02*
Y229857D01*
X377110Y231093D02*
X378346Y229857D01*
X351210Y269291D02*
X351510Y269591D01*
Y270012D01*
X351346Y270176D02*
X351510Y270012D01*
X351346Y270176D02*
Y276213D01*
X351181Y276378D02*
X351346Y276213D01*
X388428Y272744D02*
X388504Y272820D01*
Y276378D01*
X385010Y269685D02*
X392126D01*
X384710Y270012D02*
X384875Y270176D01*
Y276213D01*
X385039Y276378D01*
X382677Y220276D02*
X383071Y219882D01*
Y215354D02*
Y219882D01*
X374016Y226969D02*
Y231890D01*
X374016Y226969D02*
X374016Y226969D01*
X365551Y226969D02*
X374016D01*
X391142Y220276D02*
X391339Y220472D01*
X382677Y220276D02*
X391142D01*
X365354Y220472D02*
X365551Y220276D01*
X374016D01*
X382677Y226969D02*
X391142D01*
X391339Y226772D01*
X365354Y226772D02*
X365551Y226969D01*
X377559Y221260D02*
X378346Y222047D01*
X375000Y221260D02*
X377559D01*
X374016Y220276D02*
X375000Y221260D01*
D20*
X295669Y318307D02*
D03*
Y294488D02*
D03*
X316142Y294685D02*
D03*
X316142Y318504D02*
D03*
D21*
X444065Y289961D02*
D03*
Y283661D02*
D03*
X433071Y241012D02*
D03*
Y247311D02*
D03*
X393701Y263386D02*
D03*
Y269685D02*
D03*
X342520Y262992D02*
D03*
Y269291D02*
D03*
X484223Y247638D02*
D03*
Y241339D02*
D03*
X375590Y375197D02*
D03*
Y368898D02*
D03*
X391339Y226772D02*
D03*
Y220472D02*
D03*
X365354Y220472D02*
D03*
Y226772D02*
D03*
D22*
X438403Y234417D02*
D03*
X441868D02*
D03*
X475561Y234252D02*
D03*
X479026D02*
D03*
X385039Y276378D02*
D03*
X388504D02*
D03*
X351181D02*
D03*
X347716D02*
D03*
X386772Y233465D02*
D03*
X383307D02*
D03*
X439971Y277165D02*
D03*
X443435D02*
D03*
X350472Y234252D02*
D03*
X353937D02*
D03*
X476270Y276378D02*
D03*
X472806D02*
D03*
D23*
X442032Y269618D02*
D03*
X444532D02*
D03*
X447132D02*
D03*
X449632D02*
D03*
X452232D02*
D03*
X454832D02*
D03*
X457332D02*
D03*
X459932D02*
D03*
X462432D02*
D03*
X465032D02*
D03*
X467632D02*
D03*
X470132D02*
D03*
X472732D02*
D03*
X475232D02*
D03*
Y240618D02*
D03*
X472732D02*
D03*
X470132D02*
D03*
X467632D02*
D03*
X465032D02*
D03*
X462432D02*
D03*
X459932D02*
D03*
X457332D02*
D03*
X454832D02*
D03*
X452232D02*
D03*
X449632D02*
D03*
X447132D02*
D03*
X444532D02*
D03*
X442032D02*
D03*
X384710Y270012D02*
D03*
X382210D02*
D03*
X379610D02*
D03*
X377110D02*
D03*
X374510Y270012D02*
D03*
X371910Y270012D02*
D03*
X369410D02*
D03*
X366810D02*
D03*
X364310D02*
D03*
X361710Y270012D02*
D03*
X359110Y270012D02*
D03*
X356610D02*
D03*
X354010D02*
D03*
X351510D02*
D03*
Y241012D02*
D03*
X354010D02*
D03*
X356610D02*
D03*
X359110D02*
D03*
X361710D02*
D03*
X364310D02*
D03*
X366810D02*
D03*
X369410D02*
D03*
X371910D02*
D03*
X374510D02*
D03*
X377110D02*
D03*
X379610D02*
D03*
X382210D02*
D03*
X384710D02*
D03*
D24*
X397638Y239173D02*
D03*
X397638Y244291D02*
D03*
X391732Y244291D02*
D03*
Y239173D02*
D03*
D25*
X302559Y229201D02*
D03*
X307874Y229201D02*
D03*
X524902Y282677D02*
D03*
X519587D02*
D03*
X302756Y276839D02*
D03*
X308071D02*
D03*
X524902Y235039D02*
D03*
X519587D02*
D03*
D26*
X352756Y227953D02*
D03*
X346457D02*
D03*
X473987Y282677D02*
D03*
X480286D02*
D03*
X399213Y348031D02*
D03*
X392913D02*
D03*
D27*
X410827Y366142D02*
D03*
D28*
X384449Y357126D02*
D03*
Y366142D02*
D03*
Y375157D02*
D03*
D29*
X356850Y364173D02*
D03*
X349450D02*
D03*
X356850Y371654D02*
D03*
X349450D02*
D03*
D30*
X302756Y265028D02*
D03*
X307874D02*
D03*
X302756Y235106D02*
D03*
X307874D02*
D03*
X525079Y276772D02*
D03*
X519961D02*
D03*
X302756Y241012D02*
D03*
X307874D02*
D03*
X525000Y270866D02*
D03*
X519882Y270866D02*
D03*
X302756Y270933D02*
D03*
X307874D02*
D03*
X525197Y240945D02*
D03*
X520079D02*
D03*
X525197Y246850D02*
D03*
X520079D02*
D03*
X295669Y327953D02*
D03*
X300787D02*
D03*
X316142D02*
D03*
X321260D02*
D03*
D31*
X315039Y248492D02*
D03*
X304724Y248492D02*
D03*
X512795Y263386D02*
D03*
X523110Y263386D02*
D03*
X315039Y257547D02*
D03*
X304724Y257547D02*
D03*
X512717Y254331D02*
D03*
X523032Y254331D02*
D03*
D32*
X364961Y280709D02*
D03*
Y284173D02*
D03*
X461782Y229921D02*
D03*
Y226457D02*
D03*
D33*
X450758Y222307D02*
D03*
X447609D02*
D03*
X457058D02*
D03*
X453908D02*
D03*
X453908Y229000D02*
D03*
X457058D02*
D03*
X447609D02*
D03*
X450758D02*
D03*
X372835Y288386D02*
D03*
X369685D02*
D03*
X379134D02*
D03*
X375984D02*
D03*
Y281693D02*
D03*
X379134D02*
D03*
X369685D02*
D03*
X372835D02*
D03*
D34*
X384646Y283169D02*
D03*
Y287697D02*
D03*
X442115Y227953D02*
D03*
Y223425D02*
D03*
D35*
X374016Y220276D02*
D03*
Y226969D02*
D03*
X382677Y220276D02*
D03*
Y226969D02*
D03*
D36*
X447594Y329999D02*
D03*
X346394Y329999D02*
D03*
D37*
X357695Y337699D02*
D03*
X359594Y322299D02*
D03*
X361595Y337699D02*
D03*
X363595Y322299D02*
D03*
X365494Y337699D02*
D03*
X367495Y322299D02*
D03*
X369495Y337699D02*
D03*
X371394Y322299D02*
D03*
X373394Y337699D02*
D03*
X375395Y322299D02*
D03*
X377294Y337699D02*
D03*
X379294Y322299D02*
D03*
X381294Y337699D02*
D03*
X383295Y322299D02*
D03*
X385194Y337699D02*
D03*
X387194Y322299D02*
D03*
X389194Y337699D02*
D03*
X391094Y322299D02*
D03*
X393094Y337699D02*
D03*
X395094Y322299D02*
D03*
X396994Y337699D02*
D03*
X398994Y322299D02*
D03*
X400994Y337699D02*
D03*
X402894Y322299D02*
D03*
X404894Y337699D02*
D03*
X406894Y322299D02*
D03*
X408794Y337699D02*
D03*
X410794Y322299D02*
D03*
X412794Y337699D02*
D03*
X414694Y322299D02*
D03*
X416694Y337699D02*
D03*
X418694Y322299D02*
D03*
X420694Y337699D02*
D03*
X422594Y322299D02*
D03*
X424594Y337699D02*
D03*
X426594Y322299D02*
D03*
X428494Y337699D02*
D03*
X430494Y322299D02*
D03*
X432494Y337699D02*
D03*
X434395Y322299D02*
D03*
X436395Y337699D02*
D03*
D60*
X387865Y244253D02*
X387909Y244208D01*
X375590Y368898D02*
X376772Y367717D01*
X375552Y368937D02*
X375590Y368898D01*
X368679Y368947D02*
X368693Y368961D01*
X368654Y368922D02*
X368679Y368947D01*
X368693Y368961D02*
X371229D01*
X371243Y368976D02*
X371282Y368937D01*
X375552D01*
X371229Y368961D02*
X371243Y368976D01*
X366166Y368922D02*
X368654D01*
X366142Y368898D02*
X366166Y368922D01*
X356850Y364173D02*
X361417D01*
X366142Y368898D01*
X356850Y371654D02*
X363386D01*
X366142Y368898D01*
X376772Y367717D02*
X379921D01*
X381496Y366142D02*
X384449D01*
X379921Y367717D02*
X381496Y366142D01*
X345276Y371654D02*
X349450D01*
X344488Y372441D02*
X345276Y371654D01*
X341339Y368898D02*
X346063Y364173D01*
X349450D01*
X491339Y241339D02*
X491665Y241012D01*
X484223Y241339D02*
X491339D01*
X384449Y366142D02*
X410827D01*
X416929Y252756D02*
X438583D01*
X442097Y249242D01*
Y246457D02*
Y249242D01*
X387909Y248185D02*
X392480Y252756D01*
X387865Y244253D02*
Y244420D01*
X387909Y244464D02*
Y248185D01*
X387865Y244420D02*
X387909Y244464D01*
X392480Y252756D02*
X399115D01*
D61*
X312421Y187402D02*
X502362D01*
X562598Y247638D02*
X649446D01*
X502362Y187402D02*
X562598Y247638D01*
X558268Y253543D02*
X649446D01*
X497638Y192913D02*
X558268Y253543D01*
X316535Y192913D02*
X497638D01*
X548425Y276772D02*
X553937Y271260D01*
X525079Y276772D02*
X548425D01*
X553937Y271260D02*
X649446D01*
X525197Y240945D02*
X530315D01*
X554724Y265354D01*
X649446D01*
X290295Y209527D02*
Y263130D01*
Y209527D02*
X312421Y187402D01*
X290295Y263130D02*
X298098Y270933D01*
X302756D01*
X295276Y231890D02*
X298492Y235106D01*
X302756D01*
X307874Y229201D02*
Y241012D01*
X279134Y203937D02*
X306068Y177003D01*
X279134Y203937D02*
Y243307D01*
X306068Y177003D02*
X472969D01*
X309842Y183465D02*
X477953D01*
X285039Y208268D02*
X309842Y183465D01*
X282677Y206299D02*
X308843Y180133D01*
X469242D01*
X285039Y208268D02*
Y248819D01*
X282677Y206299D02*
Y245276D01*
X295276Y214173D02*
X316535Y192913D01*
X295276Y214173D02*
Y231890D01*
X274803Y247638D02*
X279134Y243307D01*
X267323Y253543D02*
X274410D01*
X282677Y245276D01*
X267323Y247638D02*
X274803D01*
X519961Y268134D02*
Y276772D01*
Y282677D01*
X521535Y252756D02*
X523110Y254331D01*
X520079Y235039D02*
X520079Y240945D01*
X520079Y235039D02*
Y235039D01*
X521142Y265354D02*
Y266953D01*
Y265354D02*
X523110Y263386D01*
X519961Y268134D02*
X521142Y266953D01*
X521535Y250887D02*
Y252756D01*
X519961Y249312D02*
X521535Y250887D01*
X519961Y246850D02*
Y249312D01*
X519764Y246654D02*
X519961Y246850D01*
X519764Y240945D02*
Y246654D01*
X307874Y241012D02*
Y243744D01*
X308071Y265224D02*
Y276839D01*
X306693Y244925D02*
X307874Y243744D01*
X306693Y244925D02*
X306693Y246524D01*
X304724Y248492D02*
X306693Y246524D01*
X307874Y265028D02*
X308071Y265224D01*
X307874Y262566D02*
Y265028D01*
X306299Y260991D02*
X307874Y262566D01*
X304724Y257547D02*
X306299Y259122D01*
Y260991D01*
X303870Y256693D02*
X304724Y257547D01*
D62*
X387795Y348031D02*
X392913D01*
X381496Y285900D02*
Y290551D01*
X383465Y292520D01*
X367831Y285314D02*
X380910D01*
X381496Y285900D01*
X367520Y285625D02*
X367831Y285314D01*
X367520Y285625D02*
Y286054D01*
X367323Y289020D02*
X367499Y288843D01*
Y286076D02*
Y288843D01*
X367323Y289020D02*
Y292520D01*
X367499Y286076D02*
X367520Y286054D01*
X459222Y224737D02*
Y225783D01*
Y224737D02*
X459243Y224716D01*
Y216724D02*
Y224716D01*
X458268Y215748D02*
X459243Y216724D01*
X372047Y262205D02*
Y262805D01*
X393701Y263386D02*
X398819D01*
X379669Y357229D02*
X384346D01*
X384449Y357126D01*
X384399Y357076D02*
X384449Y357126D01*
X384399Y353165D02*
Y357076D01*
X384488Y357087D02*
X384518Y357057D01*
X388833D01*
X384226Y357348D02*
Y360826D01*
Y357348D02*
X384449Y357126D01*
X400994Y337699D02*
Y343100D01*
X399213Y344882D02*
X400994Y343100D01*
X399213Y344882D02*
Y348031D01*
X378346Y310630D02*
X381824D01*
X382371Y310083D01*
X371394Y317582D02*
X378346Y310630D01*
X371394Y317582D02*
Y322299D01*
X379475Y313439D02*
X382231D01*
X375395Y317519D02*
X379475Y313439D01*
X375395Y317519D02*
Y322299D01*
D63*
X485827Y261024D02*
X491665Y255185D01*
Y241012D02*
Y255185D01*
X485827Y261024D02*
Y273228D01*
D64*
X649446Y241732D02*
D03*
Y247638D02*
D03*
Y253543D02*
D03*
Y259449D02*
D03*
Y265354D02*
D03*
Y271260D02*
D03*
X267323D02*
D03*
Y253543D02*
D03*
Y247638D02*
D03*
Y241732D02*
D03*
Y259449D02*
D03*
Y265354D02*
D03*
D65*
X449606Y298819D02*
D03*
D66*
X626034Y308346D02*
D03*
X632727Y204016D02*
D03*
X262648Y149291D02*
D03*
X267766Y379606D02*
D03*
D67*
X442494Y329999D02*
D03*
X351594Y329999D02*
D03*
D68*
X371243Y368976D02*
D03*
X368679Y368947D02*
D03*
X366142Y368898D02*
D03*
X477953Y183465D02*
D03*
X469242Y180133D02*
D03*
X472969Y177003D02*
D03*
X285039Y248819D02*
D03*
X469291Y196063D02*
D03*
X472835D02*
D03*
X387795Y348031D02*
D03*
X344488Y372441D02*
D03*
X341339Y368898D02*
D03*
X387795Y308268D02*
D03*
X383465Y292520D02*
D03*
X379134Y292913D02*
D03*
X466142Y225590D02*
D03*
X462083Y222981D02*
D03*
X485827Y273228D02*
D03*
X485433Y282677D02*
D03*
X347789Y273154D02*
D03*
X364817Y287734D02*
D03*
X361024Y288189D02*
D03*
X324016Y314961D02*
D03*
X300787Y331890D02*
D03*
X321457Y332283D02*
D03*
X337795Y262992D02*
D03*
X346457Y232677D02*
D03*
X438990Y269764D02*
D03*
X443307Y257480D02*
D03*
Y255118D02*
D03*
X443391Y252446D02*
D03*
X450316Y252212D02*
D03*
X450238Y254764D02*
D03*
X450264Y257367D02*
D03*
X465354Y262205D02*
D03*
X470079Y256693D02*
D03*
X465354Y251181D02*
D03*
X457480D02*
D03*
X453543Y256693D02*
D03*
X457480Y262205D02*
D03*
X388976Y281102D02*
D03*
X385039Y251181D02*
D03*
X387795Y253543D02*
D03*
X390551Y256693D02*
D03*
X370866Y251181D02*
D03*
X375197Y251969D02*
D03*
X377165Y258661D02*
D03*
X377953Y262992D02*
D03*
X372047Y262805D02*
D03*
X398819Y263386D02*
D03*
X478346Y241339D02*
D03*
X348425Y269291D02*
D03*
X379669Y357229D02*
D03*
X384399Y353165D02*
D03*
X388833Y357057D02*
D03*
X384226Y360826D02*
D03*
X382371Y310083D02*
D03*
X382283Y313386D02*
D03*
X383169Y329174D02*
D03*
X383295Y316402D02*
D03*
X387194Y316402D02*
D03*
X389194Y331802D02*
D03*
X393094D02*
D03*
X396994D02*
D03*
X400994D02*
D03*
X404894D02*
D03*
X408794D02*
D03*
X398994Y328197D02*
D03*
X395094Y328197D02*
D03*
X390945Y328346D02*
D03*
X369738Y297413D02*
D03*
X372835Y294415D02*
D03*
X376164Y294882D02*
D03*
X375531Y246490D02*
D03*
X372047Y246457D02*
D03*
X427953Y247244D02*
D03*
X416929Y252756D02*
D03*
X384728Y246457D02*
D03*
X399213Y252756D02*
D03*
X404384Y257821D02*
D03*
X397638Y234646D02*
D03*
X419291Y257874D02*
D03*
X417717Y261417D02*
D03*
X404331D02*
D03*
X390802Y289651D02*
D03*
X362992Y308268D02*
D03*
X366899Y306041D02*
D03*
X379134Y304724D02*
D03*
X298425Y229201D02*
D03*
X298819Y241012D02*
D03*
Y265028D02*
D03*
X484252Y252756D02*
D03*
X528999Y282658D02*
D03*
X529016Y270866D02*
D03*
Y246850D02*
D03*
X529030Y235123D02*
D03*
X399606Y298819D02*
D03*
X478933Y237496D02*
D03*
X438314Y237886D02*
D03*
X373451Y344743D02*
D03*
X365551Y344743D02*
D03*
X361651Y344743D02*
D03*
X377351Y344743D02*
D03*
X369585Y330466D02*
D03*
X460143Y264039D02*
D03*
X443672Y295276D02*
D03*
X446792Y264203D02*
D03*
X467687Y245669D02*
D03*
X459026Y275197D02*
D03*
X477924Y269685D02*
D03*
X442097Y246457D02*
D03*
X376208Y329213D02*
D03*
X381351Y344743D02*
D03*
X369551D02*
D03*
X384646Y264173D02*
D03*
X298819Y276839D02*
D03*
X348819Y240945D02*
D03*
X391732Y234646D02*
D03*
X387795Y244094D02*
D03*
X367717Y235433D02*
D03*
X359055Y264961D02*
D03*
X379951Y246427D02*
D03*
X388428Y272744D02*
D03*
X383071Y215354D02*
D03*
X374016Y231890D02*
D03*
M02*
