G04*
G04 #@! TF.GenerationSoftware,Altium Limited,Altium Designer,21.8.1 (53)*
G04*
G04 Layer_Physical_Order=4*
G04 Layer_Color=16711680*
%FSLAX25Y25*%
%MOIN*%
G70*
G04*
G04 #@! TF.SameCoordinates,C51AC878-C841-4A90-9CA5-41AFAFBE50B8*
G04*
G04*
G04 #@! TF.FilePolarity,Positive*
G04*
G01*
G75*
%ADD17C,0.00800*%
%ADD60C,0.02000*%
%ADD62C,0.01000*%
%ADD63C,0.05000*%
%ADD64O,0.06299X0.04331*%
%ADD66C,0.09843*%
%ADD67C,0.07800*%
%ADD68C,0.02362*%
G36*
X659843Y138436D02*
X257279Y138421D01*
X256925Y138775D01*
Y146183D01*
X257372Y146456D01*
X257425Y146450D01*
X258049Y145517D01*
X258873Y144692D01*
X259843Y144044D01*
X260921Y143598D01*
X262065Y143370D01*
X263231D01*
X264375Y143598D01*
X265453Y144044D01*
X266423Y144692D01*
X267247Y145517D01*
X267895Y146487D01*
X268342Y147564D01*
X268569Y148708D01*
Y149874D01*
X268342Y151019D01*
X267895Y152096D01*
X267247Y153066D01*
X266423Y153891D01*
X265453Y154539D01*
X264375Y154985D01*
X263231Y155213D01*
X262065D01*
X260921Y154985D01*
X259843Y154539D01*
X258873Y153891D01*
X258049Y153066D01*
X257425Y152133D01*
X257372Y152126D01*
X256925Y152400D01*
X256925Y388366D01*
X659843Y388366D01*
X659843Y138436D01*
D02*
G37*
%LPC*%
G36*
X268349Y385528D02*
X267183D01*
X266039Y385300D01*
X264961Y384854D01*
X263991Y384206D01*
X263167Y383381D01*
X262519Y382411D01*
X262072Y381333D01*
X261845Y380189D01*
Y379023D01*
X262072Y377879D01*
X262519Y376801D01*
X263167Y375832D01*
X263991Y375007D01*
X264961Y374359D01*
X266039Y373913D01*
X267183Y373685D01*
X268349D01*
X269493Y373913D01*
X270571Y374359D01*
X271541Y375007D01*
X272365Y375832D01*
X273013Y376801D01*
X273460Y377879D01*
X273687Y379023D01*
Y380189D01*
X273460Y381333D01*
X273013Y382411D01*
X272365Y383381D01*
X271541Y384206D01*
X270571Y384854D01*
X269493Y385300D01*
X268349Y385528D01*
D02*
G37*
G36*
X324450Y317142D02*
X323582D01*
X322780Y316810D01*
X322167Y316196D01*
X321835Y315394D01*
Y314527D01*
X322167Y313725D01*
X322780Y313112D01*
X323582Y312779D01*
X324450D01*
X325251Y313112D01*
X325865Y313725D01*
X326197Y314527D01*
Y315394D01*
X325865Y316196D01*
X325251Y316810D01*
X324450Y317142D01*
D02*
G37*
G36*
X626617Y314268D02*
X625451D01*
X624307Y314040D01*
X623229Y313594D01*
X622259Y312946D01*
X621434Y312121D01*
X620787Y311151D01*
X620340Y310074D01*
X620113Y308930D01*
Y307763D01*
X620340Y306619D01*
X620787Y305542D01*
X621434Y304572D01*
X622259Y303747D01*
X623229Y303099D01*
X624307Y302653D01*
X625451Y302425D01*
X626617D01*
X627761Y302653D01*
X628839Y303099D01*
X629808Y303747D01*
X630633Y304572D01*
X631281Y305542D01*
X631728Y306619D01*
X631955Y307763D01*
Y308930D01*
X631728Y310074D01*
X631281Y311151D01*
X630633Y312121D01*
X629808Y312946D01*
X628839Y313594D01*
X627761Y314040D01*
X626617Y314268D01*
D02*
G37*
G36*
X444095Y386601D02*
X355512D01*
X354598Y386481D01*
X353747Y386128D01*
X353016Y385567D01*
X342711Y375263D01*
X342329Y375104D01*
X341598Y374543D01*
X327425Y360370D01*
X326864Y359639D01*
X326511Y358788D01*
X326391Y357874D01*
Y321654D01*
X326511Y320740D01*
X326864Y319888D01*
X327425Y319157D01*
X356312Y290270D01*
Y286502D01*
X351441Y281630D01*
X350880Y280899D01*
X350527Y280047D01*
X350485Y279726D01*
X350455Y279646D01*
X350409Y279359D01*
X350290Y278844D01*
X350228Y278643D01*
X350156Y278452D01*
X350080Y278283D01*
X350000Y278135D01*
X349919Y278007D01*
X349894Y277975D01*
X349739Y277820D01*
X349297Y277158D01*
X349142Y276378D01*
Y272892D01*
X347532Y271282D01*
X347190Y271140D01*
X346576Y270527D01*
X346244Y269725D01*
Y268858D01*
X346576Y268056D01*
X347190Y267442D01*
X347991Y267110D01*
X348859D01*
X349661Y267442D01*
X350274Y268056D01*
X350416Y268398D01*
X352623Y270605D01*
X353065Y271267D01*
X353220Y272047D01*
Y275337D01*
X353255Y275353D01*
X353446Y275424D01*
X353647Y275487D01*
X354162Y275606D01*
X354449Y275652D01*
X354529Y275682D01*
X354851Y275724D01*
X355702Y276077D01*
X356433Y276638D01*
X362339Y282543D01*
X362900Y283274D01*
X363252Y284126D01*
X363373Y285039D01*
Y291458D01*
X363873Y291666D01*
X367970Y287568D01*
Y278894D01*
X368090Y277980D01*
X368216Y277677D01*
X368114Y277213D01*
X367976Y277121D01*
X367832Y277038D01*
X367811Y277011D01*
X367783Y276992D01*
X367691Y276854D01*
X367589Y276722D01*
X367581Y276689D01*
X367562Y276661D01*
X367530Y276498D01*
X367487Y276338D01*
X367491Y276304D01*
X367484Y276271D01*
Y247666D01*
X365027Y245209D01*
X364806Y244878D01*
X364728Y244488D01*
Y235462D01*
X361090Y231823D01*
X360869Y231492D01*
X360791Y231102D01*
Y204331D01*
X360869Y203941D01*
X361090Y203610D01*
X367783Y196917D01*
X368114Y196696D01*
X368504Y196618D01*
X450000D01*
X450390Y196696D01*
X450721Y196917D01*
X459382Y205578D01*
X459603Y205909D01*
X459681Y206299D01*
Y249184D01*
X461998Y251501D01*
X462219Y251832D01*
X462297Y252222D01*
Y263541D01*
X462324Y263605D01*
Y264473D01*
X462297Y264538D01*
Y273710D01*
X462274Y273824D01*
X462271Y273939D01*
X462236Y274017D01*
X462219Y274100D01*
X462155Y274197D01*
X462107Y274302D01*
X462045Y274360D01*
X461998Y274431D01*
X461902Y274495D01*
X461897Y274500D01*
X461862Y274540D01*
X461845Y274549D01*
X461817Y274575D01*
X461775Y274601D01*
X461702Y274629D01*
X461667Y274652D01*
X461622Y274661D01*
X461507Y274719D01*
X461207Y274802D01*
Y275591D01*
X461507Y275674D01*
X461622Y275733D01*
X461667Y275742D01*
X461702Y275765D01*
X461775Y275792D01*
X461817Y275819D01*
X461845Y275845D01*
X461862Y275853D01*
X461897Y275893D01*
X461902Y275898D01*
X461998Y275963D01*
X462045Y276033D01*
X462107Y276092D01*
X462155Y276197D01*
X462219Y276293D01*
X462236Y276377D01*
X462271Y276454D01*
X462274Y276570D01*
X462297Y276684D01*
Y308042D01*
X462759Y308233D01*
X487415Y283577D01*
Y279809D01*
X483330Y275725D01*
X482769Y274993D01*
X482417Y274142D01*
X482297Y273228D01*
X482417Y272315D01*
X482769Y271463D01*
X483330Y270732D01*
X484062Y270171D01*
X484913Y269818D01*
X485827Y269698D01*
X486740Y269818D01*
X487592Y270171D01*
X488323Y270732D01*
X493441Y275850D01*
X494002Y276581D01*
X494355Y277433D01*
X494475Y278346D01*
Y285039D01*
X494355Y285953D01*
X494002Y286805D01*
X493441Y287536D01*
X468097Y312880D01*
Y362598D01*
X467977Y363512D01*
X467624Y364364D01*
X467063Y365095D01*
X446591Y385567D01*
X445860Y386128D01*
X445008Y386481D01*
X444095Y386601D01*
D02*
G37*
G36*
X268307Y274452D02*
X266339D01*
X265512Y274344D01*
X264742Y274025D01*
X264081Y273517D01*
X263574Y272856D01*
X263255Y272086D01*
X263146Y271260D01*
X263255Y270433D01*
X263574Y269664D01*
X264081Y269002D01*
X264602Y268602D01*
X264643Y268461D01*
Y268153D01*
X264602Y268012D01*
X264081Y267612D01*
X263574Y266951D01*
X263255Y266181D01*
X263146Y265354D01*
X263255Y264528D01*
X263574Y263758D01*
X264081Y263097D01*
X264602Y262697D01*
X264643Y262555D01*
Y262248D01*
X264602Y262106D01*
X264081Y261706D01*
X263574Y261045D01*
X263255Y260275D01*
X263212Y259949D01*
X267323D01*
X271434D01*
X271391Y260275D01*
X271072Y261045D01*
X270565Y261706D01*
X270043Y262106D01*
X270003Y262248D01*
Y262555D01*
X270043Y262697D01*
X270565Y263097D01*
X271072Y263758D01*
X271391Y264528D01*
X271500Y265354D01*
X271391Y266181D01*
X271072Y266951D01*
X270565Y267612D01*
X270043Y268012D01*
X270003Y268153D01*
Y268461D01*
X270043Y268602D01*
X270565Y269002D01*
X271072Y269664D01*
X271391Y270433D01*
X271500Y271260D01*
X271391Y272086D01*
X271072Y272856D01*
X270565Y273517D01*
X269903Y274025D01*
X269133Y274344D01*
X268307Y274452D01*
D02*
G37*
G36*
X650431D02*
X648462D01*
X647636Y274344D01*
X646866Y274025D01*
X646205Y273517D01*
X645697Y272856D01*
X645378Y272086D01*
X645269Y271260D01*
X645378Y270433D01*
X645697Y269664D01*
X646205Y269002D01*
X646726Y268602D01*
X646767Y268461D01*
Y268153D01*
X646726Y268012D01*
X646205Y267612D01*
X645697Y266951D01*
X645378Y266181D01*
X645269Y265354D01*
X645378Y264528D01*
X645697Y263758D01*
X646205Y263097D01*
X646726Y262697D01*
X646767Y262555D01*
Y262248D01*
X646726Y262106D01*
X646205Y261706D01*
X645697Y261045D01*
X645378Y260275D01*
X645335Y259949D01*
X649446D01*
X653557D01*
X653514Y260275D01*
X653196Y261045D01*
X652688Y261706D01*
X652167Y262106D01*
X652126Y262248D01*
Y262555D01*
X652167Y262697D01*
X652688Y263097D01*
X653196Y263758D01*
X653514Y264528D01*
X653623Y265354D01*
X653514Y266181D01*
X653196Y266951D01*
X652688Y267612D01*
X652167Y268012D01*
X652126Y268153D01*
Y268461D01*
X652167Y268602D01*
X652688Y269002D01*
X653196Y269664D01*
X653514Y270433D01*
X653623Y271260D01*
X653514Y272086D01*
X653196Y272856D01*
X652688Y273517D01*
X652027Y274025D01*
X651257Y274344D01*
X650431Y274452D01*
D02*
G37*
G36*
X271434Y258949D02*
X267323D01*
X263212D01*
X263255Y258623D01*
X263574Y257853D01*
X264081Y257191D01*
X264602Y256791D01*
X264643Y256650D01*
Y256342D01*
X264602Y256201D01*
X264081Y255801D01*
X263574Y255140D01*
X263255Y254370D01*
X263146Y253543D01*
X263255Y252717D01*
X263574Y251947D01*
X264081Y251286D01*
X264602Y250886D01*
X264643Y250744D01*
Y250437D01*
X264602Y250295D01*
X264081Y249895D01*
X263574Y249234D01*
X263255Y248464D01*
X263146Y247638D01*
X263255Y246812D01*
X263574Y246041D01*
X264081Y245380D01*
X264602Y244980D01*
X264643Y244839D01*
Y244531D01*
X264602Y244390D01*
X264081Y243990D01*
X263574Y243329D01*
X263255Y242559D01*
X263212Y242232D01*
X267323D01*
X271434D01*
X271391Y242559D01*
X271072Y243329D01*
X270565Y243990D01*
X270043Y244390D01*
X270003Y244531D01*
Y244839D01*
X270043Y244980D01*
X270565Y245380D01*
X271072Y246041D01*
X271391Y246812D01*
X271500Y247638D01*
X271391Y248464D01*
X271072Y249234D01*
X270565Y249895D01*
X270043Y250295D01*
X270003Y250437D01*
Y250744D01*
X270043Y250886D01*
X270565Y251286D01*
X271072Y251947D01*
X271391Y252717D01*
X271500Y253543D01*
X271391Y254370D01*
X271072Y255140D01*
X270565Y255801D01*
X270043Y256201D01*
X270003Y256342D01*
Y256650D01*
X270043Y256791D01*
X270565Y257191D01*
X271072Y257853D01*
X271391Y258623D01*
X271434Y258949D01*
D02*
G37*
G36*
X653557Y258949D02*
X649446D01*
X645335D01*
X645378Y258623D01*
X645697Y257853D01*
X646205Y257191D01*
X646726Y256791D01*
X646767Y256650D01*
Y256342D01*
X646726Y256201D01*
X646205Y255801D01*
X645697Y255140D01*
X645378Y254370D01*
X645269Y253543D01*
X645378Y252717D01*
X645697Y251947D01*
X646205Y251286D01*
X646726Y250886D01*
X646767Y250744D01*
Y250437D01*
X646726Y250295D01*
X646205Y249895D01*
X645697Y249234D01*
X645378Y248464D01*
X645269Y247638D01*
X645378Y246812D01*
X645697Y246041D01*
X646205Y245380D01*
X646726Y244980D01*
X646767Y244839D01*
Y244531D01*
X646726Y244390D01*
X646205Y243990D01*
X645697Y243329D01*
X645378Y242559D01*
X645335Y242232D01*
X649446D01*
Y241732D01*
D01*
Y242232D01*
X653557D01*
X653514Y242559D01*
X653196Y243329D01*
X652688Y243990D01*
X652167Y244390D01*
X652126Y244531D01*
Y244839D01*
X652167Y244980D01*
X652688Y245380D01*
X653196Y246041D01*
X653514Y246812D01*
X653623Y247638D01*
X653514Y248464D01*
X653196Y249234D01*
X652688Y249895D01*
X652167Y250295D01*
X652126Y250437D01*
Y250744D01*
X652167Y250886D01*
X652688Y251286D01*
X653196Y251947D01*
X653514Y252717D01*
X653623Y253543D01*
X653514Y254370D01*
X653196Y255140D01*
X652688Y255801D01*
X652167Y256201D01*
X652126Y256342D01*
Y256650D01*
X652167Y256791D01*
X652688Y257191D01*
X653196Y257853D01*
X653514Y258623D01*
X653557Y258949D01*
D02*
G37*
G36*
Y241232D02*
X649946D01*
Y238540D01*
X650431D01*
X651257Y238649D01*
X652027Y238967D01*
X652688Y239475D01*
X653196Y240136D01*
X653514Y240906D01*
X653557Y241232D01*
D02*
G37*
G36*
X648946D02*
X645335D01*
X645378Y240906D01*
X645697Y240136D01*
X646205Y239475D01*
X646866Y238967D01*
X647636Y238649D01*
X648462Y238540D01*
X648946D01*
Y241232D01*
D02*
G37*
G36*
X271434Y241232D02*
X267823D01*
Y238540D01*
X268307D01*
X269133Y238649D01*
X269903Y238967D01*
X270565Y239475D01*
X271072Y240136D01*
X271391Y240906D01*
X271434Y241232D01*
D02*
G37*
G36*
X266823D02*
X263212D01*
X263255Y240906D01*
X263574Y240136D01*
X264081Y239475D01*
X264742Y238967D01*
X265512Y238649D01*
X266339Y238540D01*
X266823D01*
Y241232D01*
D02*
G37*
G36*
X478780Y243520D02*
X477913D01*
X477111Y243188D01*
X476497Y242574D01*
X476165Y241772D01*
Y240905D01*
X476497Y240103D01*
X477111Y239490D01*
X477913Y239158D01*
X478780D01*
X478855Y239189D01*
X480244Y237800D01*
Y235490D01*
X472384Y227630D01*
X466918D01*
X466576Y227772D01*
X465708D01*
X464906Y227440D01*
X464293Y226826D01*
X463961Y226024D01*
Y225157D01*
X464293Y224355D01*
X464906Y223742D01*
X465708Y223410D01*
X466576D01*
X466918Y223551D01*
X473228D01*
X474009Y223707D01*
X474670Y224149D01*
X483725Y233204D01*
X484167Y233865D01*
X484323Y234646D01*
Y238644D01*
X484167Y239424D01*
X483725Y240086D01*
X483725Y240086D01*
X481100Y242711D01*
X480439Y243153D01*
X479658Y243308D01*
X479290D01*
X478780Y243520D01*
D02*
G37*
G36*
X633310Y209937D02*
X632143D01*
X631000Y209710D01*
X629922Y209263D01*
X628952Y208615D01*
X628127Y207790D01*
X627479Y206821D01*
X627033Y205743D01*
X626805Y204599D01*
Y203432D01*
X627033Y202289D01*
X627479Y201211D01*
X628127Y200241D01*
X628952Y199416D01*
X629922Y198768D01*
X631000Y198322D01*
X632143Y198094D01*
X633310D01*
X634454Y198322D01*
X635532Y198768D01*
X636501Y199416D01*
X637326Y200241D01*
X637974Y201211D01*
X638420Y202289D01*
X638648Y203432D01*
Y204599D01*
X638420Y205743D01*
X637974Y206821D01*
X637326Y207790D01*
X636501Y208615D01*
X635532Y209263D01*
X634454Y209710D01*
X633310Y209937D01*
D02*
G37*
G36*
X473269Y198244D02*
X472401D01*
X471599Y197912D01*
X471063Y197376D01*
X470527Y197912D01*
X469725Y198244D01*
X468857D01*
X468056Y197912D01*
X467442Y197299D01*
X467110Y196497D01*
Y195629D01*
X467442Y194827D01*
X467655Y194615D01*
X467695Y194549D01*
X467751Y194488D01*
X467777Y194455D01*
X467797Y194426D01*
X467812Y194400D01*
X467823Y194377D01*
X467831Y194355D01*
X467837Y194333D01*
X467839Y194324D01*
Y181894D01*
X467838Y181890D01*
X467833Y181873D01*
X467827Y181857D01*
X467818Y181840D01*
X467806Y181820D01*
X467789Y181796D01*
X467765Y181769D01*
X467709Y181712D01*
X467656Y181632D01*
X467392Y181369D01*
X467060Y180567D01*
Y179699D01*
X467392Y178898D01*
X468006Y178284D01*
X468808Y177952D01*
X469675D01*
X470477Y178284D01*
X470754Y178561D01*
X471120Y178239D01*
X470788Y177437D01*
Y176569D01*
X471120Y175768D01*
X471734Y175154D01*
X472536Y174822D01*
X473403D01*
X474205Y175154D01*
X474819Y175768D01*
X475151Y176569D01*
Y177437D01*
X474819Y178239D01*
X474503Y178554D01*
X474445Y178635D01*
X474390Y178688D01*
X474368Y178711D01*
X474354Y178729D01*
X474344Y178744D01*
X474338Y178757D01*
X474333Y178768D01*
X474330Y178780D01*
X474330Y178781D01*
Y194345D01*
X474332Y194359D01*
X474339Y194385D01*
X474349Y194411D01*
X474362Y194439D01*
X474378Y194470D01*
X474400Y194503D01*
X474428Y194541D01*
X474483Y194606D01*
X474511Y194655D01*
X474684Y194827D01*
X475016Y195629D01*
Y196497D01*
X474684Y197299D01*
X474070Y197912D01*
X473269Y198244D01*
D02*
G37*
%LPD*%
G36*
X374635Y344613D02*
X374646Y344500D01*
X374665Y344391D01*
X374691Y344285D01*
X374726Y344184D01*
X374769Y344087D01*
X374820Y343994D01*
X374879Y343905D01*
X374946Y343819D01*
X375021Y343739D01*
X374455Y343173D01*
X374374Y343248D01*
X374289Y343315D01*
X374200Y343374D01*
X374107Y343425D01*
X374010Y343467D01*
X373908Y343502D01*
X373803Y343529D01*
X373694Y343548D01*
X373580Y343559D01*
X373463Y343562D01*
X374632Y344731D01*
X374635Y344613D01*
D02*
G37*
G36*
X370735D02*
X370746Y344500D01*
X370765Y344391D01*
X370791Y344285D01*
X370826Y344184D01*
X370869Y344087D01*
X370920Y343994D01*
X370979Y343905D01*
X371046Y343819D01*
X371121Y343739D01*
X370555Y343173D01*
X370474Y343248D01*
X370389Y343315D01*
X370300Y343374D01*
X370207Y343425D01*
X370110Y343467D01*
X370008Y343502D01*
X369903Y343529D01*
X369794Y343548D01*
X369680Y343559D01*
X369563Y343562D01*
X370732Y344731D01*
X370735Y344613D01*
D02*
G37*
G36*
X366735Y344613D02*
X366746Y344500D01*
X366765Y344391D01*
X366791Y344285D01*
X366826Y344184D01*
X366869Y344087D01*
X366920Y343994D01*
X366979Y343905D01*
X367046Y343819D01*
X367121Y343739D01*
X366555Y343173D01*
X366474Y343248D01*
X366389Y343315D01*
X366300Y343374D01*
X366207Y343425D01*
X366110Y343467D01*
X366008Y343502D01*
X365903Y343529D01*
X365794Y343548D01*
X365680Y343559D01*
X365563Y343562D01*
X366732Y344731D01*
X366735Y344613D01*
D02*
G37*
G36*
X362397Y343814D02*
X362324Y343726D01*
X362260Y343636D01*
X362205Y343542D01*
X362158Y343446D01*
X362119Y343347D01*
X362089Y343245D01*
X362068Y343140D01*
X362055Y343033D01*
X362051Y342923D01*
X361251D01*
X361247Y343033D01*
X361234Y343140D01*
X361213Y343245D01*
X361183Y343347D01*
X361144Y343446D01*
X361097Y343542D01*
X361042Y343636D01*
X360978Y343726D01*
X360905Y343814D01*
X360824Y343899D01*
X362478D01*
X362397Y343814D01*
D02*
G37*
G36*
X392913Y359449D02*
Y342913D01*
X387795Y337795D01*
Y333487D01*
X387345Y333037D01*
X387013Y332235D01*
Y331368D01*
X387345Y330566D01*
X387959Y329953D01*
X388761Y329620D01*
X388905Y329120D01*
X388764Y328780D01*
Y327913D01*
X389043Y327237D01*
Y313847D01*
X383465Y308268D01*
X380561D01*
Y339060D01*
X380561Y339060D01*
X380453Y339606D01*
X380143Y340069D01*
X380143Y340069D01*
X378073Y342140D01*
X378190Y342729D01*
X378587Y342894D01*
X379031Y343338D01*
X379351Y343453D01*
X379671Y343338D01*
X380116Y342894D01*
X380917Y342562D01*
X381785D01*
X382587Y342894D01*
X383200Y343507D01*
X383532Y344309D01*
Y345177D01*
X383200Y345978D01*
X382587Y346592D01*
X381785Y346924D01*
X380917D01*
X380116Y346592D01*
X379671Y346147D01*
X379351Y346032D01*
X379031Y346147D01*
X378587Y346592D01*
X377785Y346924D01*
X377559D01*
Y360630D01*
X378740Y361811D01*
X390551D01*
X392913Y359449D01*
D02*
G37*
G36*
X370388Y329587D02*
X370320Y329494D01*
X370259Y329399D01*
X370207Y329302D01*
X370162Y329203D01*
X370126Y329102D01*
X370098Y328998D01*
X370078Y328893D01*
X370065Y328786D01*
X370061Y328677D01*
X369261Y328622D01*
X369257Y328733D01*
X369244Y328840D01*
X369221Y328944D01*
X369190Y329045D01*
X369150Y329142D01*
X369101Y329235D01*
X369042Y329324D01*
X368975Y329410D01*
X368899Y329493D01*
X368815Y329571D01*
X370465Y329678D01*
X370388Y329587D01*
D02*
G37*
G36*
X376951Y328295D02*
X376865Y328220D01*
X376787Y328140D01*
X376719Y328056D01*
X376660Y327969D01*
X376610Y327877D01*
X376569Y327782D01*
X376537Y327682D01*
X376514Y327578D01*
X376501Y327471D01*
X376496Y327359D01*
X375696Y327440D01*
X375692Y327549D01*
X375680Y327656D01*
X375661Y327762D01*
X375634Y327865D01*
X375598Y327967D01*
X375555Y328067D01*
X375504Y328166D01*
X375446Y328263D01*
X375379Y328358D01*
X375305Y328452D01*
X376951Y328295D01*
D02*
G37*
G36*
X362069Y309763D02*
X362154Y309696D01*
X362243Y309637D01*
X362336Y309586D01*
X362434Y309543D01*
X362535Y309508D01*
X362640Y309481D01*
X362749Y309462D01*
X362863Y309452D01*
X362980Y309449D01*
X361811Y308279D01*
X361808Y308397D01*
X361797Y308510D01*
X361779Y308620D01*
X361752Y308725D01*
X361717Y308826D01*
X361674Y308924D01*
X361623Y309017D01*
X361564Y309106D01*
X361497Y309191D01*
X361422Y309272D01*
X361988Y309838D01*
X362069Y309763D01*
D02*
G37*
G36*
X367303Y307750D02*
X367316Y307643D01*
X367337Y307538D01*
X367367Y307436D01*
X367406Y307337D01*
X367453Y307241D01*
X367508Y307148D01*
X367572Y307057D01*
X367645Y306969D01*
X367726Y306884D01*
X366072D01*
X366153Y306969D01*
X366226Y307057D01*
X366290Y307148D01*
X366346Y307241D01*
X366392Y307337D01*
X366431Y307436D01*
X366461Y307538D01*
X366482Y307643D01*
X366495Y307750D01*
X366499Y307861D01*
X367299D01*
X367303Y307750D01*
D02*
G37*
G36*
X379538Y306434D02*
X379551Y306327D01*
X379572Y306222D01*
X379602Y306120D01*
X379641Y306021D01*
X379688Y305925D01*
X379743Y305832D01*
X379807Y305741D01*
X379879Y305653D01*
X379961Y305568D01*
X378307D01*
X378388Y305653D01*
X378461Y305741D01*
X378525Y305832D01*
X378580Y305925D01*
X378627Y306021D01*
X378666Y306120D01*
X378695Y306222D01*
X378717Y306327D01*
X378730Y306434D01*
X378734Y306544D01*
X379534D01*
X379538Y306434D01*
D02*
G37*
G36*
X379879Y303796D02*
X379807Y303708D01*
X379743Y303617D01*
X379688Y303524D01*
X379641Y303428D01*
X379602Y303329D01*
X379572Y303227D01*
X379551Y303122D01*
X379538Y303015D01*
X379534Y302904D01*
X378734D01*
X378730Y303015D01*
X378717Y303122D01*
X378695Y303227D01*
X378666Y303329D01*
X378627Y303428D01*
X378580Y303524D01*
X378525Y303617D01*
X378461Y303708D01*
X378388Y303796D01*
X378307Y303881D01*
X379961D01*
X379879Y303796D01*
D02*
G37*
G36*
X370066Y299147D02*
X370079Y299039D01*
X370102Y298935D01*
X370133Y298835D01*
X370173Y298738D01*
X370222Y298645D01*
X370280Y298555D01*
X370347Y298469D01*
X370423Y298387D01*
X370508Y298308D01*
X368858Y298202D01*
X368935Y298293D01*
X369003Y298386D01*
X369064Y298481D01*
X369116Y298578D01*
X369161Y298677D01*
X369197Y298778D01*
X369225Y298881D01*
X369245Y298986D01*
X369257Y299093D01*
X369261Y299203D01*
X370061Y299258D01*
X370066Y299147D01*
D02*
G37*
G36*
X376501Y296613D02*
X376514Y296505D01*
X376536Y296402D01*
X376567Y296301D01*
X376607Y296204D01*
X376656Y296111D01*
X376714Y296021D01*
X376781Y295934D01*
X376856Y295851D01*
X376941Y295772D01*
X375290Y295676D01*
X375367Y295767D01*
X375436Y295859D01*
X375497Y295954D01*
X375550Y296050D01*
X375595Y296149D01*
X375631Y296250D01*
X375660Y296353D01*
X375680Y296458D01*
X375692Y296566D01*
X375696Y296675D01*
X376496Y296724D01*
X376501Y296613D01*
D02*
G37*
G36*
X373239Y296125D02*
X373252Y296018D01*
X373273Y295913D01*
X373303Y295811D01*
X373341Y295712D01*
X373388Y295616D01*
X373444Y295522D01*
X373508Y295432D01*
X373580Y295344D01*
X373661Y295259D01*
X372008D01*
X372089Y295344D01*
X372162Y295432D01*
X372225Y295522D01*
X372281Y295616D01*
X372328Y295712D01*
X372366Y295811D01*
X372396Y295913D01*
X372418Y296018D01*
X372430Y296125D01*
X372435Y296235D01*
X373235D01*
X373239Y296125D01*
D02*
G37*
G36*
X379538Y294623D02*
X379551Y294516D01*
X379572Y294411D01*
X379602Y294309D01*
X379641Y294210D01*
X379688Y294114D01*
X379743Y294020D01*
X379807Y293930D01*
X379879Y293842D01*
X379961Y293757D01*
X378307D01*
X378388Y293842D01*
X378461Y293930D01*
X378525Y294020D01*
X378580Y294114D01*
X378627Y294210D01*
X378666Y294309D01*
X378695Y294411D01*
X378717Y294516D01*
X378730Y294623D01*
X378734Y294733D01*
X379534D01*
X379538Y294623D01*
D02*
G37*
G36*
X461037Y361136D02*
Y311417D01*
X461157Y310504D01*
X461277Y310214D01*
Y276684D01*
X461235Y276657D01*
X460777Y276530D01*
X460261Y277046D01*
X459460Y277378D01*
X458592D01*
X458082Y277167D01*
X455851D01*
X455071Y277011D01*
X454409Y276570D01*
X445374Y267534D01*
X444932Y266873D01*
X444777Y266092D01*
Y265038D01*
X444611Y264637D01*
Y263769D01*
X444753Y263427D01*
Y251996D01*
X441204Y248448D01*
X440861Y248306D01*
X440248Y247692D01*
X439916Y246890D01*
Y246023D01*
X440248Y245221D01*
X440861Y244608D01*
X441663Y244276D01*
X442531D01*
X443332Y244608D01*
X443946Y245221D01*
X444088Y245564D01*
X448234Y249710D01*
X448676Y250371D01*
X448831Y251152D01*
Y263427D01*
X448973Y263769D01*
Y264637D01*
X448855Y264921D01*
Y265248D01*
X456696Y273088D01*
X458417D01*
X458592Y273016D01*
X459460D01*
X460261Y273348D01*
X460777Y273863D01*
X461235Y273737D01*
X461277Y273710D01*
Y252222D01*
X458661Y249606D01*
Y206299D01*
X450000Y197638D01*
X368504D01*
X361811Y204331D01*
Y231102D01*
X365748Y235039D01*
Y244488D01*
X368504Y247244D01*
Y276271D01*
X368876Y276397D01*
X369004Y276397D01*
X381116Y264286D01*
Y259730D01*
X378409Y257024D01*
X377995Y256484D01*
X377454Y256069D01*
X376893Y255338D01*
X376541Y254486D01*
X376420Y253573D01*
Y248932D01*
X376005Y248655D01*
X375964Y248671D01*
X375097D01*
X374295Y248339D01*
X373772Y247816D01*
X373283Y248306D01*
X372481Y248638D01*
X371613D01*
X370812Y248306D01*
X370198Y247692D01*
X369866Y246890D01*
Y246023D01*
X370198Y245221D01*
X370812Y244608D01*
X371613Y244276D01*
X372076D01*
X379172Y237180D01*
X379172Y237180D01*
X379635Y236870D01*
X380182Y236761D01*
X380182Y236761D01*
X387598D01*
X389485Y234874D01*
X389489Y234868D01*
X389499Y234851D01*
X389507Y234832D01*
X389514Y234811D01*
X389521Y234785D01*
X389526Y234753D01*
X389530Y234714D01*
X389532Y234633D01*
X389551Y234547D01*
Y234212D01*
X389883Y233410D01*
X390497Y232797D01*
X391298Y232465D01*
X392166D01*
X392968Y232797D01*
X393581Y233410D01*
X393818Y233982D01*
X394375Y234132D01*
X394675Y233832D01*
X394675Y233832D01*
X395138Y233523D01*
X395684Y233414D01*
X395787D01*
X395789Y233410D01*
X396402Y232797D01*
X397204Y232465D01*
X398072D01*
X398873Y232797D01*
X399487Y233410D01*
X399819Y234212D01*
Y235080D01*
X399487Y235881D01*
X398873Y236495D01*
X398072Y236827D01*
X397204D01*
X396402Y236495D01*
X395908Y236636D01*
X391377Y241167D01*
X390914Y241476D01*
X390368Y241585D01*
X390368Y241585D01*
X388743D01*
X388643Y242085D01*
X389031Y242245D01*
X389644Y242859D01*
X389976Y243661D01*
Y244528D01*
X389644Y245330D01*
X389031Y245943D01*
X388229Y246276D01*
X387361D01*
X386560Y245943D01*
X385946Y245330D01*
X385874Y245155D01*
X385336Y244617D01*
X384644D01*
X383002Y246259D01*
X383008Y246266D01*
X383361Y247118D01*
X383481Y248031D01*
Y252111D01*
X387142Y255771D01*
X387703Y256503D01*
X388056Y257354D01*
X388176Y258268D01*
Y264173D01*
Y265748D01*
X388056Y266662D01*
X387703Y267513D01*
X387142Y268244D01*
X387142Y268244D01*
X375030Y280356D01*
Y289031D01*
X374910Y289944D01*
X374557Y290796D01*
X373996Y291527D01*
X373601Y291922D01*
X373699Y292412D01*
X374070Y292566D01*
X374684Y293180D01*
X374888Y293074D01*
X374929Y293033D01*
X375730Y292701D01*
X376598D01*
X377014Y292332D01*
X377285Y291678D01*
X377898Y291064D01*
X378700Y290732D01*
X379568D01*
X380369Y291064D01*
X380983Y291678D01*
X381315Y292479D01*
Y293347D01*
X380983Y294149D01*
X380746Y294386D01*
X380699Y294460D01*
X380643Y294519D01*
X380618Y294549D01*
X380599Y294576D01*
X380586Y294599D01*
X380576Y294619D01*
X380568Y294638D01*
X380563Y294657D01*
X380561Y294664D01*
Y302974D01*
X380563Y302981D01*
X380568Y303000D01*
X380576Y303019D01*
X380586Y303039D01*
X380599Y303062D01*
X380618Y303088D01*
X380643Y303119D01*
X380699Y303177D01*
X380746Y303252D01*
X380983Y303489D01*
X381315Y304291D01*
Y305158D01*
X380983Y305960D01*
X380746Y306197D01*
X380699Y306271D01*
X380643Y306330D01*
X380618Y306360D01*
X380599Y306387D01*
X380586Y306410D01*
X380576Y306430D01*
X380568Y306449D01*
X380563Y306468D01*
X380561Y306475D01*
Y307248D01*
X383465D01*
X383855Y307326D01*
X384186Y307547D01*
X389764Y313126D01*
X389985Y313457D01*
X390063Y313847D01*
Y327237D01*
X389985Y327627D01*
X389783Y328115D01*
Y328577D01*
X389847Y328730D01*
X389875Y328870D01*
X389918Y329006D01*
X389913Y329064D01*
X389924Y329120D01*
X389896Y329260D01*
X389884Y329403D01*
X389740Y329903D01*
X389714Y329954D01*
X389703Y330011D01*
X389623Y330129D01*
X389558Y330256D01*
X389514Y330293D01*
X389482Y330341D01*
X389363Y330421D01*
X389254Y330513D01*
X389199Y330530D01*
X389151Y330562D01*
X388537Y330817D01*
X388210Y331144D01*
X388033Y331571D01*
Y332033D01*
X388210Y332459D01*
X388516Y332766D01*
X388737Y333097D01*
X388815Y333487D01*
Y337373D01*
X393634Y342192D01*
X393855Y342523D01*
X393933Y342913D01*
Y359449D01*
X393855Y359839D01*
X393634Y360170D01*
X391272Y362532D01*
X390941Y362753D01*
X390551Y362831D01*
X385086D01*
X384660Y363007D01*
X383793D01*
X383367Y362831D01*
X378740D01*
X378350Y362753D01*
X378019Y362532D01*
X376838Y361351D01*
X376617Y361020D01*
X376539Y360630D01*
Y346924D01*
X376568Y346779D01*
X376116Y346592D01*
X375728Y346204D01*
X375401Y346031D01*
X375074Y346204D01*
X374687Y346592D01*
X373885Y346924D01*
X373017D01*
X372216Y346592D01*
X371828Y346204D01*
X371501Y346031D01*
X371174Y346204D01*
X370787Y346592D01*
X369985Y346924D01*
X369117D01*
X368316Y346592D01*
X367871Y346147D01*
X367551Y346032D01*
X367231Y346147D01*
X366787Y346592D01*
X365985Y346924D01*
X365117D01*
X364316Y346592D01*
X363928Y346204D01*
X363601Y346031D01*
X363274Y346204D01*
X362887Y346592D01*
X362085Y346924D01*
X361217D01*
X360416Y346592D01*
X359802Y345978D01*
X359470Y345177D01*
Y344309D01*
X359802Y343507D01*
X360039Y343270D01*
X360086Y343196D01*
X360142Y343137D01*
X360167Y343107D01*
X360186Y343080D01*
X360199Y343057D01*
X360209Y343037D01*
X360217Y343018D01*
X360222Y342999D01*
X360224Y342992D01*
Y309609D01*
X360224Y309609D01*
X360332Y309063D01*
X360642Y308599D01*
X360745Y308496D01*
X360749Y308490D01*
X360759Y308473D01*
X360767Y308454D01*
X360774Y308433D01*
X360781Y308407D01*
X360786Y308375D01*
X360790Y308336D01*
X360792Y308255D01*
X360811Y308169D01*
Y307834D01*
X361143Y307032D01*
X361757Y306419D01*
X362558Y306087D01*
X363426D01*
X364228Y306419D01*
X364718Y306202D01*
Y305607D01*
X365050Y304805D01*
X365664Y304192D01*
X366465Y303859D01*
X367333D01*
X367734Y304026D01*
X368234Y303692D01*
Y299126D01*
X368231Y299112D01*
X368224Y299085D01*
X368214Y299058D01*
X368201Y299029D01*
X368184Y298997D01*
X368162Y298962D01*
X368134Y298924D01*
X368078Y298858D01*
X368054Y298814D01*
X367888Y298649D01*
X367764Y298347D01*
X367273Y298250D01*
X339751Y325773D01*
Y352475D01*
X352643Y365367D01*
X366541D01*
X366913Y365416D01*
X371214D01*
X372128Y365537D01*
X372979Y365889D01*
X373710Y366450D01*
X373739Y366479D01*
X374300Y367211D01*
X374653Y368062D01*
X374773Y368976D01*
X374653Y369889D01*
X374300Y370741D01*
X373739Y371472D01*
X373008Y372033D01*
X372157Y372386D01*
X371243Y372506D01*
X371022Y372477D01*
X366590D01*
X366218Y372428D01*
X351181D01*
X350476Y372335D01*
X350242Y372809D01*
X356974Y379541D01*
X442632D01*
X461037Y361136D01*
D02*
G37*
G36*
X354286Y276658D02*
X353967Y276607D01*
X353381Y276472D01*
X353114Y276389D01*
X352866Y276296D01*
X352635Y276192D01*
X352421Y276077D01*
X352226Y275952D01*
X352048Y275817D01*
X351888Y275671D01*
X350474Y277085D01*
X350620Y277245D01*
X350755Y277423D01*
X350880Y277618D01*
X350995Y277832D01*
X351099Y278063D01*
X351192Y278311D01*
X351275Y278578D01*
X351410Y279164D01*
X351462Y279483D01*
X354286Y276658D01*
D02*
G37*
G36*
X376721Y246454D02*
X376740Y246340D01*
X376765Y246230D01*
X376798Y246124D01*
X376838Y246023D01*
X376884Y245925D01*
X376938Y245833D01*
X376998Y245744D01*
X377066Y245660D01*
X377140Y245580D01*
X376622Y244966D01*
X376540Y245042D01*
X376455Y245108D01*
X376365Y245166D01*
X376272Y245214D01*
X376176Y245253D01*
X376075Y245284D01*
X375971Y245305D01*
X375863Y245317D01*
X375752Y245320D01*
X375637Y245314D01*
X376709Y246573D01*
X376721Y246454D01*
D02*
G37*
G36*
X390809Y236140D02*
X390894Y236074D01*
X390983Y236015D01*
X391076Y235964D01*
X391174Y235921D01*
X391275Y235886D01*
X391380Y235859D01*
X391490Y235840D01*
X391603Y235829D01*
X391721Y235827D01*
X390551Y234658D01*
X390548Y234775D01*
X390538Y234888D01*
X390519Y234998D01*
X390492Y235103D01*
X390457Y235204D01*
X390414Y235301D01*
X390363Y235395D01*
X390304Y235484D01*
X390237Y235569D01*
X390162Y235650D01*
X390728Y236215D01*
X390809Y236140D01*
D02*
G37*
G36*
X396669Y233970D02*
X396601Y234060D01*
X396528Y234140D01*
X396450Y234210D01*
X396367Y234272D01*
X396279Y234324D01*
X396186Y234366D01*
X396088Y234399D01*
X395986Y234423D01*
X395878Y234437D01*
X395766Y234441D01*
X395909Y235241D01*
X396017Y235245D01*
X396123Y235256D01*
X396229Y235274D01*
X396334Y235299D01*
X396438Y235331D01*
X396540Y235371D01*
X396642Y235418D01*
X396744Y235471D01*
X396844Y235532D01*
X396943Y235601D01*
X396669Y233970D01*
D02*
G37*
%LPC*%
G36*
X443140Y334899D02*
X441849D01*
X440603Y334565D01*
X439486Y333920D01*
X438574Y333008D01*
X437928Y331891D01*
X437595Y330644D01*
Y329354D01*
X437928Y328108D01*
X438574Y326991D01*
X439486Y326078D01*
X440603Y325433D01*
X441849Y325099D01*
X443140D01*
X444386Y325433D01*
X445503Y326078D01*
X446415Y326991D01*
X447060Y328108D01*
X447395Y329354D01*
Y330644D01*
X447060Y331891D01*
X446415Y333008D01*
X445503Y333920D01*
X444386Y334565D01*
X443140Y334899D01*
D02*
G37*
G36*
X352240Y334899D02*
X350949D01*
X349703Y334565D01*
X348586Y333920D01*
X347674Y333008D01*
X347028Y331891D01*
X346694Y330644D01*
Y329354D01*
X347028Y328108D01*
X347674Y326991D01*
X348586Y326078D01*
X349703Y325433D01*
X350949Y325099D01*
X352240D01*
X353486Y325433D01*
X354603Y326078D01*
X355515Y326991D01*
X356160Y328108D01*
X356494Y329354D01*
Y330644D01*
X356160Y331891D01*
X355515Y333008D01*
X354603Y333920D01*
X353486Y334565D01*
X352240Y334899D01*
D02*
G37*
G36*
X400040Y301000D02*
X399172D01*
X398371Y300668D01*
X397757Y300054D01*
X397425Y299253D01*
Y298665D01*
X397417Y298597D01*
X397423Y298525D01*
X397423Y298501D01*
X397422Y298486D01*
X397420Y298477D01*
X397418Y298471D01*
X397417Y298467D01*
X397415Y298465D01*
X390892Y291941D01*
X390876Y291930D01*
X390847Y291913D01*
X390816Y291898D01*
X390781Y291883D01*
X390741Y291870D01*
X390695Y291859D01*
X390643Y291848D01*
X390555Y291837D01*
X390539Y291832D01*
X390368D01*
X389566Y291500D01*
X388953Y290886D01*
X388621Y290085D01*
Y289217D01*
X388953Y288415D01*
X389566Y287802D01*
X390368Y287470D01*
X391236D01*
X392037Y287802D01*
X392651Y288415D01*
X392983Y289217D01*
Y289804D01*
X392991Y289873D01*
X392985Y289945D01*
X392985Y289968D01*
X392987Y289984D01*
X392988Y289992D01*
X392990Y289998D01*
X392992Y290002D01*
X392993Y290005D01*
X399517Y296529D01*
X399533Y296540D01*
X399561Y296556D01*
X399592Y296572D01*
X399627Y296586D01*
X399667Y296599D01*
X399713Y296611D01*
X399765Y296621D01*
X399853Y296632D01*
X399870Y296638D01*
X400040D01*
X400842Y296970D01*
X401455Y297583D01*
X401787Y298385D01*
Y299253D01*
X401455Y300054D01*
X400842Y300668D01*
X400040Y301000D01*
D02*
G37*
G36*
X418150Y263598D02*
X417283D01*
X416481Y263266D01*
X416244Y263029D01*
X416170Y262982D01*
X416111Y262926D01*
X416081Y262901D01*
X416054Y262883D01*
X416032Y262869D01*
X416011Y262859D01*
X415992Y262852D01*
X415973Y262846D01*
X415966Y262845D01*
X406081D01*
X406074Y262846D01*
X406055Y262852D01*
X406036Y262859D01*
X406016Y262869D01*
X405993Y262883D01*
X405967Y262901D01*
X405936Y262926D01*
X405878Y262982D01*
X405803Y263029D01*
X405566Y263266D01*
X404765Y263598D01*
X403897D01*
X403095Y263266D01*
X402482Y262653D01*
X402150Y261851D01*
Y260983D01*
X402482Y260182D01*
X403071Y259592D01*
X402535Y259056D01*
X402203Y258254D01*
Y257387D01*
X402535Y256585D01*
X403149Y255972D01*
X403950Y255640D01*
X404818D01*
X405620Y255972D01*
X405885Y256237D01*
X405965Y256290D01*
X406022Y256347D01*
X406049Y256370D01*
X406072Y256387D01*
X406092Y256399D01*
X406109Y256408D01*
X406125Y256414D01*
X406142Y256419D01*
X406146Y256420D01*
X417553D01*
X417563Y256418D01*
X417585Y256412D01*
X417607Y256403D01*
X417630Y256392D01*
X417656Y256377D01*
X417685Y256358D01*
X417718Y256331D01*
X417779Y256275D01*
X417845Y256236D01*
X418056Y256025D01*
X418857Y255693D01*
X419725D01*
X420527Y256025D01*
X421140Y256639D01*
X421472Y257440D01*
Y258308D01*
X421140Y259109D01*
X420527Y259723D01*
X419971Y259953D01*
X419725Y260092D01*
X419720Y260555D01*
X419898Y260983D01*
Y261851D01*
X419566Y262653D01*
X418952Y263266D01*
X418150Y263598D01*
D02*
G37*
G36*
X417363Y254937D02*
X416495D01*
X416153Y254795D01*
X399989D01*
X399646Y254937D01*
X398779D01*
X397977Y254605D01*
X397363Y253991D01*
X397031Y253190D01*
Y252322D01*
X397363Y251520D01*
X397977Y250907D01*
X398779Y250575D01*
X399646D01*
X399989Y250717D01*
X416153D01*
X416495Y250575D01*
X417363D01*
X418165Y250907D01*
X418778Y251520D01*
X419110Y252322D01*
Y253190D01*
X418778Y253991D01*
X418165Y254605D01*
X417363Y254937D01*
D02*
G37*
%LPD*%
G36*
X399723Y297644D02*
X399604Y297628D01*
X399490Y297606D01*
X399380Y297578D01*
X399274Y297543D01*
X399173Y297502D01*
X399076Y297454D01*
X398984Y297400D01*
X398895Y297339D01*
X398812Y297271D01*
X398732Y297197D01*
X398100Y297697D01*
X398176Y297779D01*
X398243Y297865D01*
X398300Y297954D01*
X398347Y298047D01*
X398385Y298144D01*
X398414Y298243D01*
X398433Y298347D01*
X398442Y298454D01*
X398443Y298564D01*
X398434Y298678D01*
X399723Y297644D01*
D02*
G37*
G36*
X392308Y290773D02*
X392232Y290690D01*
X392166Y290605D01*
X392109Y290515D01*
X392061Y290422D01*
X392023Y290326D01*
X391995Y290226D01*
X391975Y290123D01*
X391966Y290016D01*
X391966Y289905D01*
X391975Y289791D01*
X390685Y290826D01*
X390804Y290841D01*
X390918Y290863D01*
X391028Y290891D01*
X391134Y290926D01*
X391235Y290968D01*
X391332Y291016D01*
X391425Y291070D01*
X391513Y291131D01*
X391597Y291198D01*
X391676Y291272D01*
X392308Y290773D01*
D02*
G37*
G36*
X416873Y260591D02*
X416788Y260672D01*
X416700Y260744D01*
X416609Y260808D01*
X416516Y260864D01*
X416420Y260911D01*
X416321Y260949D01*
X416219Y260979D01*
X416114Y261000D01*
X416007Y261013D01*
X415897Y261017D01*
Y261817D01*
X416007Y261822D01*
X416114Y261834D01*
X416219Y261856D01*
X416321Y261886D01*
X416420Y261924D01*
X416516Y261971D01*
X416609Y262026D01*
X416700Y262090D01*
X416788Y262163D01*
X416873Y262244D01*
Y260591D01*
D02*
G37*
G36*
X405259Y262163D02*
X405347Y262090D01*
X405438Y262026D01*
X405531Y261971D01*
X405627Y261924D01*
X405726Y261886D01*
X405828Y261856D01*
X405933Y261834D01*
X406040Y261822D01*
X406151Y261817D01*
Y261017D01*
X406040Y261013D01*
X405933Y261000D01*
X405828Y260979D01*
X405726Y260949D01*
X405627Y260911D01*
X405531Y260864D01*
X405438Y260808D01*
X405347Y260744D01*
X405259Y260672D01*
X405174Y260591D01*
Y262244D01*
X405259Y262163D01*
D02*
G37*
G36*
X418467Y257028D02*
X418380Y257108D01*
X418290Y257179D01*
X418198Y257242D01*
X418103Y257296D01*
X418006Y257343D01*
X417906Y257380D01*
X417803Y257410D01*
X417699Y257431D01*
X417591Y257443D01*
X417481Y257447D01*
X417462Y258247D01*
X417573Y258252D01*
X417680Y258265D01*
X417785Y258286D01*
X417886Y258317D01*
X417984Y258356D01*
X418079Y258404D01*
X418172Y258460D01*
X418260Y258525D01*
X418347Y258599D01*
X418429Y258682D01*
X418467Y257028D01*
D02*
G37*
G36*
X405296Y258587D02*
X405386Y258515D01*
X405478Y258453D01*
X405573Y258398D01*
X405670Y258352D01*
X405770Y258314D01*
X405872Y258285D01*
X405977Y258264D01*
X406084Y258252D01*
X406194Y258247D01*
X406213Y257447D01*
X406103Y257443D01*
X405995Y257430D01*
X405891Y257408D01*
X405790Y257378D01*
X405691Y257339D01*
X405596Y257291D01*
X405504Y257235D01*
X405415Y257169D01*
X405329Y257096D01*
X405246Y257013D01*
X405209Y258666D01*
X405296Y258587D01*
D02*
G37*
G36*
X470100Y195202D02*
X470018Y195119D01*
X469944Y195033D01*
X469879Y194944D01*
X469823Y194852D01*
X469775Y194756D01*
X469736Y194658D01*
X469705Y194557D01*
X469684Y194452D01*
X469671Y194345D01*
X469666Y194234D01*
X468866Y194252D01*
X468862Y194362D01*
X468850Y194470D01*
X468829Y194574D01*
X468799Y194677D01*
X468762Y194776D01*
X468715Y194874D01*
X468661Y194968D01*
X468598Y195061D01*
X468527Y195150D01*
X468447Y195237D01*
X470100Y195202D01*
D02*
G37*
G36*
X473631Y195178D02*
X473562Y195085D01*
X473501Y194991D01*
X473448Y194894D01*
X473404Y194795D01*
X473367Y194694D01*
X473339Y194591D01*
X473318Y194486D01*
X473306Y194379D01*
X473302Y194270D01*
X472502Y194221D01*
X472498Y194332D01*
X472484Y194440D01*
X472462Y194544D01*
X472431Y194644D01*
X472391Y194741D01*
X472342Y194835D01*
X472284Y194925D01*
X472218Y195011D01*
X472142Y195094D01*
X472057Y195174D01*
X473708Y195268D01*
X473631Y195178D01*
D02*
G37*
G36*
X469666Y181944D02*
X469671Y181834D01*
X469683Y181727D01*
X469704Y181622D01*
X469733Y181519D01*
X469771Y181420D01*
X469817Y181323D01*
X469872Y181228D01*
X469935Y181136D01*
X470006Y181046D01*
X470086Y180959D01*
X468433Y180994D01*
X468515Y181077D01*
X468589Y181163D01*
X468654Y181252D01*
X468710Y181344D01*
X468758Y181440D01*
X468797Y181538D01*
X468827Y181639D01*
X468849Y181744D01*
X468862Y181851D01*
X468866Y181962D01*
X469666Y181944D01*
D02*
G37*
G36*
X473307Y178734D02*
X473320Y178627D01*
X473342Y178523D01*
X473373Y178422D01*
X473413Y178325D01*
X473462Y178232D01*
X473520Y178141D01*
X473587Y178055D01*
X473662Y177972D01*
X473747Y177892D01*
X472096Y177798D01*
X472173Y177888D01*
X472242Y177981D01*
X472303Y178075D01*
X472356Y178172D01*
X472401Y178271D01*
X472437Y178372D01*
X472466Y178475D01*
X472486Y178580D01*
X472498Y178687D01*
X472502Y178797D01*
X473302Y178845D01*
X473307Y178734D01*
D02*
G37*
D17*
X469266Y180158D02*
Y196038D01*
X469291Y196063D01*
X469242Y180133D02*
X469266Y180158D01*
X472835Y196063D02*
X472902Y195996D01*
Y177071D02*
X472969Y177003D01*
X472902Y177071D02*
Y195996D01*
X379134Y292913D02*
Y304724D01*
X369585Y330466D02*
X369661Y330390D01*
Y297489D02*
X369738Y297413D01*
X369661Y297489D02*
Y330390D01*
X376096Y294950D02*
Y329101D01*
Y294950D02*
X376164Y294882D01*
X372835Y294415D02*
Y341459D01*
X376096Y329101D02*
X376208Y329213D01*
X369551Y344743D02*
X372835Y341459D01*
X372950Y245421D02*
X380182Y238189D01*
X388189D01*
X372950Y245421D02*
Y245554D01*
X372047Y246457D02*
X372950Y245554D01*
X372047Y246457D02*
Y246457D01*
X375531Y246490D02*
X375664D01*
X381997Y240158D01*
X390368D01*
X404384Y257821D02*
X404411Y257847D01*
X419265D02*
X419291Y257874D01*
X404411Y257847D02*
X419265D01*
X397442Y234841D02*
X397638Y234646D01*
X395684Y234841D02*
X397442D01*
X404331Y261417D02*
X417717D01*
X390368Y240158D02*
X395684Y234841D01*
X388189Y238189D02*
X391732Y234646D01*
X390802Y289651D02*
Y289832D01*
X399606Y298637D02*
Y298819D01*
X390802Y289832D02*
X399606Y298637D01*
X361651Y309609D02*
Y344743D01*
Y309609D02*
X362992Y308268D01*
X365551Y344743D02*
X366899Y343395D01*
Y306041D02*
Y343395D01*
X379134Y304724D02*
Y339060D01*
X373451Y344743D02*
X379134Y339060D01*
D60*
X478346Y241339D02*
X478416Y241269D01*
X479658D01*
X482283Y238644D01*
Y234646D02*
Y238644D01*
X473228Y225590D02*
X482283Y234646D01*
X466142Y225590D02*
X473228D01*
X351181Y276378D02*
X353937Y279134D01*
X348425Y269291D02*
X351181Y272047D01*
Y276378D01*
X446792Y251152D02*
Y264203D01*
X442097Y246457D02*
X446792Y251152D01*
X379951Y246427D02*
Y248031D01*
Y253573D02*
X380906Y254528D01*
X399213Y252756D02*
X416929D01*
X379951Y246427D02*
X383800Y242578D01*
X386181D02*
X387697Y244094D01*
X383800Y242578D02*
X386181D01*
X446816Y266092D02*
X455851Y275128D01*
X458957D01*
X446792Y264203D02*
X446816Y264227D01*
Y266092D01*
X458957Y275128D02*
X459026Y275197D01*
X387697Y244094D02*
X387795D01*
D62*
X443307Y255118D02*
X443701D01*
X443307Y252530D02*
Y252756D01*
Y252530D02*
X443391Y252446D01*
D63*
X368679Y368947D02*
X371214D01*
X371243Y368976D01*
X366590Y368947D02*
X368679D01*
X366541Y368898D02*
X366590Y368947D01*
X366142Y368898D02*
X366541D01*
X351181D02*
X366142D01*
X336221Y353937D02*
X351181Y368898D01*
X344094Y372047D02*
X344488D01*
X329921Y357874D02*
X344094Y372047D01*
X344488D02*
X355512Y383071D01*
X490945Y278346D02*
Y285039D01*
X485827Y273228D02*
X490945Y278346D01*
X464567Y311417D02*
X490945Y285039D01*
X464567Y311417D02*
Y362598D01*
X355512Y383071D02*
X444095D01*
X464567Y362598D01*
X353937Y279134D02*
X359842Y285039D01*
X329921Y321654D02*
X359842Y291732D01*
Y285039D02*
Y291732D01*
X329921Y321654D02*
Y357874D01*
X336221Y324310D02*
Y353937D01*
Y324310D02*
X371500Y289031D01*
Y278894D02*
Y289031D01*
X379951Y248031D02*
Y253573D01*
X380906Y254528D02*
X384646Y258268D01*
Y264173D01*
Y265748D01*
X371500Y278894D02*
X384646Y265748D01*
D64*
X649446Y241732D02*
D03*
Y247638D02*
D03*
Y253543D02*
D03*
Y259449D02*
D03*
Y265354D02*
D03*
Y271260D02*
D03*
X267323D02*
D03*
Y253543D02*
D03*
Y247638D02*
D03*
Y241732D02*
D03*
Y259449D02*
D03*
Y265354D02*
D03*
D66*
X626034Y308346D02*
D03*
X632727Y204016D02*
D03*
X262648Y149291D02*
D03*
X267766Y379606D02*
D03*
D67*
X442494Y329999D02*
D03*
X351594Y329999D02*
D03*
D68*
X371243Y368976D02*
D03*
X368679Y368947D02*
D03*
X366142Y368898D02*
D03*
X477953Y183465D02*
D03*
X469242Y180133D02*
D03*
X472969Y177003D02*
D03*
X285039Y248819D02*
D03*
X469291Y196063D02*
D03*
X472835D02*
D03*
X387795Y348031D02*
D03*
X344488Y372441D02*
D03*
X341339Y368898D02*
D03*
X387795Y308268D02*
D03*
X383465Y292520D02*
D03*
X379134Y292913D02*
D03*
X466142Y225590D02*
D03*
X462083Y222981D02*
D03*
X485827Y273228D02*
D03*
X485433Y282677D02*
D03*
X347789Y273154D02*
D03*
X364817Y287734D02*
D03*
X361024Y288189D02*
D03*
X324016Y314961D02*
D03*
X300787Y331890D02*
D03*
X321457Y332283D02*
D03*
X337795Y262992D02*
D03*
X346457Y232677D02*
D03*
X438990Y269764D02*
D03*
X443307Y257480D02*
D03*
Y255118D02*
D03*
X443391Y252446D02*
D03*
X450316Y252212D02*
D03*
X450238Y254764D02*
D03*
X450264Y257367D02*
D03*
X465354Y262205D02*
D03*
X470079Y256693D02*
D03*
X465354Y251181D02*
D03*
X457480D02*
D03*
X453543Y256693D02*
D03*
X457480Y262205D02*
D03*
X388976Y281102D02*
D03*
X385039Y251181D02*
D03*
X387795Y253543D02*
D03*
X390551Y256693D02*
D03*
X370866Y251181D02*
D03*
X375197Y251969D02*
D03*
X377165Y258661D02*
D03*
X377953Y262992D02*
D03*
X372047Y262805D02*
D03*
X398819Y263386D02*
D03*
X478346Y241339D02*
D03*
X348425Y269291D02*
D03*
X379669Y357229D02*
D03*
X384399Y353165D02*
D03*
X388833Y357057D02*
D03*
X384226Y360826D02*
D03*
X382371Y310083D02*
D03*
X382283Y313386D02*
D03*
X383169Y329174D02*
D03*
X383295Y316402D02*
D03*
X387194Y316402D02*
D03*
X389194Y331802D02*
D03*
X393094D02*
D03*
X396994D02*
D03*
X400994D02*
D03*
X404894D02*
D03*
X408794D02*
D03*
X398994Y328197D02*
D03*
X395094Y328197D02*
D03*
X390945Y328346D02*
D03*
X369738Y297413D02*
D03*
X372835Y294415D02*
D03*
X376164Y294882D02*
D03*
X375531Y246490D02*
D03*
X372047Y246457D02*
D03*
X427953Y247244D02*
D03*
X416929Y252756D02*
D03*
X384728Y246457D02*
D03*
X399213Y252756D02*
D03*
X404384Y257821D02*
D03*
X397638Y234646D02*
D03*
X419291Y257874D02*
D03*
X417717Y261417D02*
D03*
X404331D02*
D03*
X390802Y289651D02*
D03*
X362992Y308268D02*
D03*
X366899Y306041D02*
D03*
X379134Y304724D02*
D03*
X298425Y229201D02*
D03*
X298819Y241012D02*
D03*
Y265028D02*
D03*
X484252Y252756D02*
D03*
X528999Y282658D02*
D03*
X529016Y270866D02*
D03*
Y246850D02*
D03*
X529030Y235123D02*
D03*
X399606Y298819D02*
D03*
X478933Y237496D02*
D03*
X438314Y237886D02*
D03*
X373451Y344743D02*
D03*
X365551Y344743D02*
D03*
X361651Y344743D02*
D03*
X377351Y344743D02*
D03*
X369585Y330466D02*
D03*
X460143Y264039D02*
D03*
X443672Y295276D02*
D03*
X446792Y264203D02*
D03*
X467687Y245669D02*
D03*
X459026Y275197D02*
D03*
X477924Y269685D02*
D03*
X442097Y246457D02*
D03*
X376208Y329213D02*
D03*
X381351Y344743D02*
D03*
X369551D02*
D03*
X384646Y264173D02*
D03*
X298819Y276839D02*
D03*
X348819Y240945D02*
D03*
X391732Y234646D02*
D03*
X387795Y244094D02*
D03*
X367717Y235433D02*
D03*
X359055Y264961D02*
D03*
X379951Y246427D02*
D03*
X388428Y272744D02*
D03*
X383071Y215354D02*
D03*
X374016Y231890D02*
D03*
M02*
