M48
;Layer_Color=9474304
;FILE_FORMAT=2:5
INCH,LZ
;TYPE=PLATED
T01F00S00C0.00787
T02F00S00C0.01181
T03F00S00C0.01200
T05F00S00C0.03000
T07F00S00C0.03937
T08F00S00C0.04331
T09F00S00C0.04724
T10F00S00C0.05118
T11F00S00C0.05500
T13F00S00C0.07874
;TYPE=NON_PLATED
T15F00S00C0.02756
T17F00S00C0.15670
%
T01
X2126Y0926
X2045595Y0907303
X1996Y0908
X1990567Y0877898
X1884Y0926
X1715992Y0855366
X1646535Y0860185
X1641023
X1640977Y0869335
X1646489
X1634977Y0869457
X1629465
X1623355Y0869469
X1617843Y0869469
X1617889Y0860318
X1629511Y0860307
X1610783Y0824449
X1604484
X1588512Y0836633
X1584551Y0837895
X1580638Y0836633
X1576677Y0837895
X1572764Y0836633
X1568803Y0837895
X156489Y0836633
X1560929Y0837895
X13905Y0980882
X1378Y0985882
X1372516Y0975874
X1362256Y0976449
X136265Y0969382
X1360075
X13575
X133976Y0979398
X13415Y0985882
X133976Y0997898
X13575Y1000882
X13675Y0990882
Y1010882
X1379295Y1010898
X1465833Y1007826
X1471333Y1008026
X1482445Y1010814
X1490701Y1016994
X149385
X1497
X1500149
X1503299
X1506449
X1509598
X1512748
X1515897
X1519047
X1522197
X1525346
X1528496
X1531645
X1534795
X1537945
X1541094
X1544244
X154742Y1016796
X1550543Y1016994
X1553693
X1556842
X1559992
Y1029412
X1556842
X1553718Y1029387
X1550643Y102941
X1547352Y1029463
X154417
X1541094Y1029412
X1537945
X1534795
X1531645
X1528496
X1525346
X1522197
X1519047
X1512748
X1509598
X1506449
X1503299
X1500149
X1497
X149385
X1490701
X1481833Y1026926
X1471233
X1465033Y1037126
X1470333Y1052526
X1483676Y1050997
X1484339Y1069526
X1474526Y1069547
X146177Y1079829
X1481296Y1087628
X1485533Y1086959
X1485333Y1089526
X1485684Y1093467
X1495133Y1089826
X1498271Y1085526
X1496333Y1083526
X1498271Y1081526
X14975Y1077382
X1498271Y1067789
X1495833Y1065626
X1495695Y1062481
X149637Y105901
X1512009Y1053439
X1510009Y1051439
X1506533Y1041226
X1500633Y1036526
X1501733Y1031592
X1504882
X1511182
X1514331
X1524885Y1036463
X1521849Y1040941
X152382Y1053439
X1525885Y1051463
X152867Y1052463
X153167Y1054463
X1533631Y1051439
X1537568
X1535631Y1053439
X1539757Y1055382
X154367Y1054463
X1541642Y1051439
X1549379
X1553316
X1551379Y1053439
X1551533Y1041226
X1555206Y1040633
X155317Y1037463
X1550685Y1036032
X156067Y1035463
X155917Y1038463
X1539333Y1038626
X1538043Y1035701
X156167Y1061963
X15615Y1093382
X151Y1067382
X1509647Y0983349
X1506498
X1503348
X1500198
X1497049
X1493899
X149075
X1482533Y0986126
X1475733Y0993126
X1466Y0982882
X1461
X1472Y0971382
X147729Y0971469
X1490712Y0970943
X149385Y0970931
X1497
X1500149
X1503287Y0971182
X1506449Y0970931
X1509598Y0970947
X1512748
X1515897Y0970931
X1519047Y0971068
X1522207Y0970931
X1525346
X1528496Y097103
X1532145Y0970664
X1534795Y0970931
X1538009Y0970866
X1541094Y0970931
X1544244
X1547393
X1550543
X1553693
X1556842
X1559992
X1560041Y0983349
X1556891
X1553742
X1550592
X1547442
X1544293
X1541143
X1537994
X1534844
X1531694
X1525395
X1522246
X1519096
X1512797
X153067Y0965463
X153667Y0963963
X154467
X155367
X1487333Y0963126
X156317Y0963963
X1563142Y0970931
X1566291
X1569441
X157259
X157017Y0963963
X156949Y0983349
X1572639
X156634
X1563191
X1563142Y1016994
X1566291
X1569441
X157259
Y1029412
X1569441
X1566291
X1563191Y1029022
X1568186Y1035447
X1579251Y1035538
X1572745Y1045998
X1575713Y1049498
X1569678Y1063817
X15695Y1067882
X15655Y1064882
X1567678Y1077628
X1569678Y1079565
Y1087439
X1567678Y1085502
Y1093376
X1580833Y1089526
X1579268Y107572
X1584669Y1073137
X1580494Y1065787
X160535Y1069967
X1604705Y1050419
X1614522Y105136
X1626738Y106238
X1627564Y1064382
X1625978Y106641
X1629101Y1068209
X1626305Y1072142
X1627209Y1076221
X1628909Y1080151
X162672Y1081985
X1628638Y1083965
X1626727Y1085915
X1628638Y1087901
X1626727Y1089851
X1626198Y1092371
X1640587Y1091504
X1640789Y107421
X1640184Y1070078
X1639131Y1062038
X1637413Y106012
X1638305Y1051098
X1640866Y1051375
X1644801Y1051373
X1642853Y1053344
X1652902Y1053683
X1656709Y1052221
X1658047Y1054515
X16625Y1054882
X1664461Y1051858
X1668398
X1666461Y1053858
X1670587Y1055969
X16745Y1054882
X1672472Y1051858
X1680209
X1684146
X1682209Y1053858
X16895Y1052882
X16905Y1055382
X1689Y1058382
X1692456Y1062689
X1696404Y1064346
X1699384Y1068543
X16885Y1069382
Y1065882
X16925Y1083882
X1698508Y1085921
X1700508Y1087844
X1698508Y1093697
X1697124Y1080087
X1700078Y1079969
X1712622Y1080245
X171564Y1073678
X17108Y1062257
X17108Y105904
Y1056371
Y1053725
X1714109Y1048421
X1713852Y1042376
X1706171Y1048759
X1698733Y1035866
X16915Y1035882
X169Y1038882
X1686036Y1041052
X1682009Y104172
X1681515Y103645
X1684Y1037882
X1684548Y1029806
X1681473Y1029828
X1678182Y1029882
X1675
X1671924Y1029831
X1668775
X1665625
X1662475
X1659326
X1656176
X1653027
X1649877
X16495Y1034382
X1645161Y1032012
X1642012
X1643578Y1029831
X1640428
X1637279
X1634129
X1630979
X162783
X162468
X1621531
Y1017413
X162468
X162783
X1630979
X1634129
X1637279
X1640428
X1643578
X1646727
X1649877
X1653027
X1656176
X1659326
X1662475
X1665625
X1668775
X1671924
X1675074
X167825Y1017215
X1681373Y1017413
X1684523
X1687672
X1690822
X1693972
X1697121
X1700271
X1705954Y1021331
X17085Y1021882
X1711025Y1022387
X170342Y1029831
X1700271
X1697121
X1694021Y1029441
X1690822Y1029831
X1687672
X1688709Y100722
X1679209
X1669709Y100772
X1662709
X1662524Y0983768
X1665674
X1668824
X1671973
X1675123
X1678272
X1681422
X1684572
X1687721
X1690871
X1694021
X169717
X170032
X1703469
X1710037Y0981221
X1713248Y0981565
X1718213Y0981569
X1718209Y0992721
X1713196Y0992467
X1709667Y0997653
X1708583Y1008213
X1706811Y1010081
X1703801Y1008026
X1697709Y100772
X1697121Y097135
X1693972
X1690822
X1687672
X1684523
X1681373
X1678223
X1675074
X1671924
X1668839Y0971286
X1665625Y097135
X1662975Y0971082
X1659326Y097135
X1656176
X1653037
X1649877Y0971488
X1646727Y097135
X1643578
X1640428
X1637279
X1634117Y0971601
X1630979Y097135
X162783
X162468
X1621542Y0971362
X1624987Y0963256
X16415
X1640477Y0983768
X1643627
X1649926
X1653076
X1656225
X1637328
X1634178
X1631028
X1627879
X1624729
X162158
X1622209Y098722
Y099122
X1613209Y0990221
X1613317Y0993649
X1609209Y099622
X1609141Y0999673
X1607024Y1001905
X1606174Y1004965
X1605137Y1007987
X1604671Y101122
X1602921Y101604
X1603209Y100322
X1605209Y0998221
X1608709Y099072
X1612709Y0984721
X1622209Y100722
Y101272
X1632563Y1032012
X1635712
X1631122Y1036808
X1636289Y1041797
X1652679Y104136
X1655709Y103722
X1668873Y103612
X1670209Y1039221
X1661Y1061882
X1659049Y1063776
X1655974Y1064382
X16535Y1065382
X161215Y1088047
X16615Y0965882
X16675Y0964382
X16755
X16845
X1694
X1701
X1700271Y097135
X170342
X1728209Y0971182
X1739709Y0973221
X1738909Y0966521
X1723209Y0981721
X1734209Y1002221
X1731508Y1083439
X1731479Y1086588
X1787211Y1060809
X1787037Y1052398
X1786892Y1050181
X1805186Y1054599
X1803463Y1062901
X1802057Y1064874
X1803463Y1066838
X1818042Y1068198
Y1064198
Y1060198
Y1072698
X1817931Y1076745
X1817931Y1080745
X1817931Y1084745
X1817931Y1088745
Y1093245
X1828745Y106818
X1829766Y1064259
X183074Y1060223
X1892Y1060382
X1888Y1076157
Y1078732
Y1083882
X1900933Y1083398
X19085Y1074882
X1924Y1080882
X1924926Y1083294
X19345Y1086882
X1941114Y1070438
X1926Y1043882
X1932516Y1008815
X1917Y1010882
X1897745Y101205
X189455Y0987567
X1894Y0979382
X1896677Y0968449
X1911027Y0969949
X1921016Y0970374
X1926772Y0979382
X1917Y0984382
X19395Y0974382
X2022728Y0979382
X2025406Y0968449
X2022067Y0998398
X203Y102661
X2030016Y1046815
X203Y106461
X2029984Y1076177
X2034984
X2035Y106461
X2035016Y1046815
X2035Y102661
X2065016Y1025587
X2065Y1048067
X2055Y1052882
X2069433Y1059138
X20785Y1057882
X2093051Y1063366
X2065Y1086067
X206
X2049Y1006882
X206939Y1004366
X20735Y0974382
X2059228Y0979382
X2054016Y0970433
X2039067Y0974398
X20485Y0984382
X2035Y1101382
X2034984Y1112949
X2039067Y1134398
X2051Y1142382
X2053Y1144382
Y1154382
X2051Y1164382
X206939Y1164366
X20705Y1134382
X2059228Y1139382
X206Y1111925
X2077016Y1109433
X2069433Y1095909
X203Y1101382
X2029984Y1112949
X2020988Y1132898
X2022728Y1139382
X2020496Y1151398
X19355Y1162382
X19175Y1161882
X19155Y1152382
X1917197Y114073
X19195Y1141882
X1925272Y1137382
X19205Y1128
X1931Y1125882
X1905043Y1132382
X1891464Y1126382
X1888772Y1137382
X1886964Y1156382
X1819642Y1134571
X1819642Y1130071
Y1126571
Y1122071
X1817931Y1118061
X1817931Y1113903
X1817931Y1109403
X1817931Y1105403
X1817931Y1101403
X1817931Y1097403
X1802542Y1128699
Y1132699
X1802485Y1135623
X1804087Y1137639
X1802542Y1139699
X180248Y1143625
X1804542Y1141698
X1797Y1146382
X1778211Y1140709
X1786112Y1131802
X1784642Y1129571
X178595Y1127791
X1759601Y1126152
X1750949Y1121618
X1747221Y1120459
X1744121Y1126034
X1744816Y1107673
X1757547Y1107584
X1732666Y1113884
X1719262Y1111559
X17635Y1175382
X1769012
X1775512Y117526
X1781024
X1787012
X1792524
X1799012
X1804413Y1173722
X17115Y1178362
X1715575Y115
X1718Y1152
X1716Y1137
X17145Y1133382
X1710429Y1132307
X1712631Y112871
X1707209Y1125821
X1698209Y1125721
X1695125Y1125928
X1695303Y1123359
X1692527Y1123665
X1692209Y1126221
X16965Y1120382
X1699738Y1122453
X1702537Y1130831
X1704365Y1133191
X1690209Y1136034
X1684211Y1136721
X1680714Y1138992
X1677975Y1126424
X1674336Y1126598
X167313Y1124215
X1670209Y112472
X1667221Y1124372
X1664105Y1124402
X1662085Y1125998
X16657Y1126449
X1657609Y1125521
X165274Y1125759
X1650709Y1123221
X1647656Y1122138
X1644986Y1122723
X1646742Y1124607
X1642186Y1124658
X1636885Y112607
X1634728Y112351
X1634209Y1119183
X163454Y111375
X1637444Y1113882
X1639963Y1114419
X1644956Y1116926
X1646Y1119882
X1638894Y1120905
X1629824Y1122933
X1622209Y1127221
X1619209
X1621387Y1138821
X1631409Y113882
X1644958Y1141661
X1660612Y1139123
X1660552Y1120173
X1658055Y1119481
X1683Y1119574
X1679748Y1123848
X1691997Y1104747
X1691Y1101882
X1700446Y1107828
X1710815Y1113004
X1710714Y1115577
X1713641Y1118413
X1710437Y1094324
X163256Y1095998
X16305Y1099382
X1631709Y1101721
X162902Y1103808
X1628601Y1108573
X1632026Y1106986
X1632209Y111172
X161533Y1111231
X1608983Y1104974
X1608671Y1102377
X16055Y1098382
X16165Y1093882
X1627606Y1097864
X1580433Y1095326
X1582Y1103382
X1587333Y1108526
X1584333Y1124226
X1580933Y1127526
X1569333Y1117026
X1563Y1115882
X1569295Y1105305
X1567035Y1137629
X1604709Y1127221
X1625772Y1155882
X1631Y1166882
X1622016Y1191315
X1614732Y1197366
X1604Y1192382
X1550233Y1139726
X1538933Y1139826
X1539613Y1125526
X1537595Y1123485
X1535597Y1125461
X1532833Y1125026
X1527133Y1125826
X1524433Y1125026
X152167Y1124963
X1515999Y1125206
X1514135Y112343
X1508Y1125382
X150417Y1125463
X1503007Y1122126
X1498168Y1124706
X1495771Y1123113
X1485333Y1123026
Y1119089
Y1115152
X1483152Y1117065
Y1121002
X1477Y1122382
X1472334Y1116512
X1471344Y1111109
X1472Y1106882
X14675Y1106382
X146242Y110673
X1482833Y1105526
X1495549Y1103266
X1497662Y1105203
X149867Y1101463
X1499623Y1098963
X1500464Y1096257
X149567Y1097463
X1509Y1101882
Y1113882
X150814Y1141096
X1508675Y1143704
X1509113Y1147169
X150638Y1147172
X1511778Y1146642
X1497474Y1148341
X1486Y1152882
X14915Y1163882
X1492Y1132382
X1494701Y1133803
X1483984Y1134331
X147324Y1137866
X1462516Y1133815
X152Y1135919
X1555347Y1125471
X1557284Y1123471
X1553Y1099882
Y1094382
X15615Y1098382
X15345Y1239
X15265
X1519
X1511053Y1238891
X1503Y1239
X1495161Y1238846
X14915Y1241
X1495161Y1249367
X1482516Y1191815
X1470783Y1192949
X1464516Y1191815
X1498992Y1254787
X1507Y1254787
X1515
X1523Y1253
X1626768Y1271037
X1629Y1274
X1677Y1252
X1684725Y1252738
X1696373Y12521
X16915Y13005
X1694Y131
X1776Y1295
X1772196Y1285994
X1779761Y128585
X177976Y1277102
X1776067Y1277388
X1776458Y1270219
X1782829Y1252592
X17857Y125103
X1787659Y1253462
X1829431Y125417
X1878516Y1292392
X188184Y1292805
X1885777Y1293005
X1889714Y1293005
X1899261Y1293057
X1887659Y1302675
X1883722
X1879785
X1875848
X2000412Y1312493
X2001Y1315
X1998Y1272
X2Y127
X20157Y12569
X2018345Y1258088
X2021Y1258
X20227Y1252386
X2024725Y1254224
X2024799Y1250576
T02
X1960007Y1261631
X1952334Y1273068
X1948862Y1272072
X194678Y128044
X1934511Y1274908
X1931511
X1928511
X1925511
X1921981Y1278999
Y1281999
Y1284999
Y1287999
X1929981Y1315799
X2042402Y1315
X2038687Y1291802
X2038712Y1287856
X2038687Y1284
X2053091Y1278
X2052652Y1271
X2066171Y1270873
X2076902Y1260879
X2091339Y1263937
X2096902Y1272
X2094402Y1278
X2093146Y1286
X2098902
Y1294
X2095902
X2092902
X2089902
X2091402Y1308
X2094402
X2097402
X2094402Y1316
X2126402Y1315
X2130347Y1314576
X2123343Y1309931
X2123691Y130425
X2123402Y1299
Y1293
X2124958Y1283757
X2127339Y1270937
X2149402Y1293
X2140183Y1303219
X2145189Y131
T03
X1655109Y1070121
X1645009Y107052
X1598Y1039382
X15875
X17245Y1129882
X1769Y1184882
X17755
X17925Y1186382
X18045Y1183882
X1714146Y1111366
X1648Y1138882
X1641Y126
Y1267
Y1274
X1872912Y1293259
X1892394Y1292901
T05
X1834Y1267
Y1277
Y1287
Y1297
Y1307
Y1317
X1915481Y1316999
Y1306999
Y1296999
Y1286999
Y1276999
Y1266999
X1974981Y1267
Y1277
Y1287
Y1297
Y1307
Y1317
T07
X1874789Y1270005
X1884789
X1894981Y1269999
X2013Y1298
Y1312
T08
X1411158Y1102425
X1421
X1430843
T09
X1411221Y0968733
X1421063
X1430906
Y1025819
X1411221
X1958033
X1977718
Y0968733
X1967875
X1958033
X2095828
X210567
X2115513
Y1025819
X2095828
Y1106528
X210567
X2115513
Y1163614
X2095828
X1977718
X1958033
Y1106528
X1967875
X1977718
T10
X213445Y0881312
X211945Y0876352
Y0868084
X210945Y0871312
X2099765Y0868084
Y0876352
X2051772Y0881312
X2036773Y0876352
Y0868084
X2026772Y0871312
X2017088Y0868084
Y0876352
X1969261Y0881312
X1954261Y0876352
Y0868084
X1944261Y0871312
X1934576Y0868084
Y0876352
X1722806Y0881312
X1707806Y0876352
Y0868084
X1697806Y0871312
X1688121Y0868084
Y0876352
X1598138Y0881312
X1583138Y0876352
Y0868084
X1573138Y0871312
X1563453Y0868084
Y0876352
X1869094Y0998137
X1874134Y1007822
X1869094Y1017822
X1864134Y1032822
X1877362Y1017822
Y0998137
Y1096396
Y1116081
X1869094
X1874134Y1106081
X1869094Y1096396
X1864134Y1131081
T11
X1554275Y127455
X1537275Y127475
X1525775Y126705
X1505775Y127455
X1485775Y126705
X1474275Y127475
X1496025Y13143
X1515775Y131455
X1576025Y13141
X1595775Y131435
X1585775Y127435
X1605775Y126685
X1617275Y127455
X1565775Y126685
T13
X151315Y0923233
X1608Y0974382
X1883228Y0968903
X1876535Y1073233
X2082505Y1226414
X1969Y1248
X192
X1846284Y1226414
X1704552
X1468332
X1519393Y1153548
T15
X1871403Y1303529
X1894159
T17
X211945Y0891312
X2036773
X1954261
X1707806
X1583138
X1854134Y1017822
Y1116081
M30
