G04*
G04 #@! TF.GenerationSoftware,Altium Limited,Altium Designer,24.2.2 (26)*
G04*
G04 Layer_Color=65535*
%FSLAX25Y25*%
%MOIN*%
G70*
G04*
G04 #@! TF.SameCoordinates,5957EE86-81F1-4C7A-B0E9-50F0B43EC399*
G04*
G04*
G04 #@! TF.FilePolarity,Positive*
G04*
G01*
G75*
%ADD10C,0.00787*%
%ADD11C,0.00600*%
%ADD12C,0.01000*%
%ADD13C,0.00984*%
%ADD14C,0.00394*%
%ADD15C,0.01200*%
%ADD16C,0.00591*%
%ADD17C,0.00598*%
%ADD18C,0.00500*%
D10*
X1701748Y1294504D02*
G03*
X1701748Y1294504I-394J0D01*
G01*
X1701199Y1285843D02*
G03*
X1701199Y1285843I-1419J0D01*
G01*
X1668283Y1289878D02*
X1703716D01*
X1668283Y1262122D02*
Y1289878D01*
Y1262122D02*
X1703716D01*
Y1289878D01*
X1769941Y1320894D02*
X1782539Y1320894D01*
X1769941Y1320894D02*
X1769941Y1307311D01*
X1782539D01*
X1782539Y1320894D02*
X1782539Y1307311D01*
X1770094Y1287398D02*
Y1292122D01*
X1770291Y1293500D02*
X1781709D01*
Y1295862D01*
X1770291D02*
X1781709D01*
X1770291Y1293500D02*
Y1295862D01*
X1781709Y1276000D02*
Y1278362D01*
X1770291Y1276000D02*
X1781709D01*
X1770291D02*
Y1278362D01*
X1781709D01*
X1781906Y1279740D02*
Y1284465D01*
X2031918Y1276210D02*
X2033099D01*
X2028375D02*
X2029162D01*
X2031918Y1278178D02*
X2031918Y1274635D01*
X2029162Y1276210D02*
X2031918Y1278178D01*
X2029162Y1276210D02*
X2031918Y1274635D01*
X2029162Y1274241D02*
Y1278178D01*
X2015776Y1269123D02*
X2044910D01*
Y1270403D01*
X2015776Y1269123D02*
Y1274241D01*
X2044910Y1282017D02*
Y1283296D01*
X2015776Y1274241D02*
X2016367D01*
Y1269123D02*
Y1274241D01*
Y1278178D02*
Y1283296D01*
X2015776Y1278178D02*
X2016367D01*
X2015776Y1283296D02*
X2044910D01*
X2015776Y1278178D02*
Y1283296D01*
X2035646Y1285791D02*
X2039189D01*
X2035646D02*
Y1288646D01*
Y1297209D02*
X2039189D01*
X2035646Y1294354D02*
Y1297209D01*
X2041158Y1290319D02*
Y1292681D01*
X2113630Y1274150D02*
Y1277693D01*
X2116484Y1277693D01*
X2125047Y1274150D02*
Y1277693D01*
X2122193Y1277693D02*
X2125047Y1277693D01*
X2118158Y1272181D02*
X2120520D01*
X2062024Y1311779D02*
X2065173D01*
X2062024Y1284221D02*
X2065173D01*
X2102079Y1290744D02*
X2108083D01*
X2139693Y1291276D02*
Y1294819D01*
X2142547Y1294819D01*
X2151110Y1291276D02*
Y1294819D01*
X2148256Y1294819D02*
X2151110Y1294819D01*
X2144221Y1289307D02*
X2146583D01*
X2150898Y1303181D02*
Y1306724D01*
X2148043Y1303181D02*
X2150898Y1303181D01*
X2139480D02*
Y1306724D01*
Y1303181D02*
X2142335Y1303181D01*
X2144008Y1308693D02*
X2146370D01*
X1952005Y1315779D02*
X1955154D01*
X1952005Y1288220D02*
X1955154D01*
X1955379Y1286149D02*
X1957741D01*
Y1274732D02*
Y1286149D01*
X1955379Y1274732D02*
X1957741D01*
X1955379D02*
Y1286149D01*
X1949276Y1286740D02*
X1954001D01*
X1929981Y1291645D02*
Y1292826D01*
Y1288102D02*
Y1288889D01*
X1928012Y1291645D02*
X1931556Y1291645D01*
X1928012Y1291645D02*
X1929981Y1288889D01*
X1931556Y1291645D01*
X1928012Y1288889D02*
X1931949D01*
X1937068Y1275503D02*
Y1304637D01*
X1935788D02*
X1937068D01*
X1931949Y1275503D02*
X1937068D01*
X1922894Y1304637D02*
X1924174D01*
X1931949Y1275503D02*
Y1276094D01*
X1937068D01*
X1922894D02*
X1928012D01*
Y1275503D02*
Y1276094D01*
X1922894Y1275503D02*
Y1304637D01*
Y1275503D02*
X1928012D01*
X1596028Y1042138D02*
Y1047650D01*
X1589728Y1042138D02*
Y1047650D01*
Y1042138D02*
X1591500D01*
X1594256D02*
X1596028D01*
X1594256Y1047650D02*
X1596028D01*
X1589728D02*
X1591500D01*
X1596028Y1036626D02*
Y1042138D01*
X1589728Y1036626D02*
Y1042138D01*
Y1036626D02*
X1591500D01*
X1594256D02*
X1596028D01*
X1594256Y1042138D02*
X1596028D01*
X1589728D02*
X1591500D01*
X1492791Y1147095D02*
Y1150638D01*
X1495646Y1150638D01*
X1504209Y1147095D02*
Y1150638D01*
X1501354Y1150638D02*
X1504209Y1150638D01*
X1497319Y1145126D02*
X1499681D01*
X1469709Y1064126D02*
Y1067669D01*
X1466854Y1064126D02*
X1469709Y1064126D01*
X1458291D02*
Y1067669D01*
Y1064126D02*
X1461146Y1064126D01*
X1462819Y1069638D02*
X1465181D01*
X1772744Y1182409D02*
X1778256D01*
X1772744Y1176110D02*
X1778256D01*
Y1177882D01*
Y1180638D02*
Y1182409D01*
X1772744Y1180638D02*
Y1182409D01*
Y1176110D02*
Y1177882D01*
X1778256Y1182409D02*
X1783768D01*
X1778256Y1176110D02*
X1783768D01*
X1783768Y1177882D02*
X1783768Y1176110D01*
X1783768Y1180638D02*
Y1182409D01*
X1778256Y1180638D02*
Y1182409D01*
Y1176110D02*
X1778256Y1177882D01*
X1760732Y1182532D02*
X1766244Y1182532D01*
X1760732Y1176232D02*
X1766244D01*
Y1178004D01*
Y1180760D02*
Y1182532D01*
X1760732Y1180760D02*
X1760732Y1182532D01*
Y1176232D02*
Y1178004D01*
X1766244Y1182532D02*
X1771756D01*
X1766244Y1176232D02*
X1771756D01*
Y1178004D01*
Y1180760D02*
Y1182532D01*
X1766244Y1180760D02*
Y1182532D01*
Y1176232D02*
Y1178004D01*
X1784244Y1182409D02*
X1789756D01*
X1784244Y1176110D02*
X1789756D01*
X1789756Y1177882D02*
X1789756Y1176110D01*
Y1180638D02*
Y1182409D01*
X1784244Y1180638D02*
Y1182409D01*
X1784244Y1176110D02*
X1784244Y1177882D01*
X1789756Y1182409D02*
X1795268D01*
X1789756Y1176110D02*
X1795268D01*
Y1177882D01*
Y1180638D02*
Y1182409D01*
X1789756Y1180638D02*
Y1182409D01*
Y1176110D02*
Y1177882D01*
X1796244Y1182409D02*
X1801756D01*
X1796244Y1176110D02*
X1801756D01*
Y1177882D01*
Y1180638D02*
Y1182409D01*
X1796244Y1180638D02*
Y1182409D01*
Y1176110D02*
Y1177882D01*
X1801756Y1182409D02*
X1807268D01*
X1801756Y1176110D02*
X1807268D01*
X1807268Y1177882D02*
X1807268Y1176110D01*
X1807268Y1180638D02*
Y1182409D01*
X1801756Y1180638D02*
Y1182409D01*
Y1176110D02*
X1801756Y1177882D01*
X1460681Y1180370D02*
X1460681Y1172102D01*
X1460681Y1180370D02*
X1486272D01*
X1486272Y1172102D02*
X1486272Y1180370D01*
X1632244Y861732D02*
X1632244Y863504D01*
X1632244Y866260D02*
Y868032D01*
X1637756Y866260D02*
Y868032D01*
Y863504D02*
X1637756Y861732D01*
X1632244D02*
X1637756D01*
X1632244Y868032D02*
X1637756Y868032D01*
X1626732Y861732D02*
X1626732Y863504D01*
X1626732Y866260D02*
X1626732Y868032D01*
X1632244Y866260D02*
Y868032D01*
Y863504D02*
X1632244Y861732D01*
X1626732D02*
X1632244D01*
X1626732Y868032D02*
X1632244Y868032D01*
X1643756Y861732D02*
X1643756Y863504D01*
X1643756Y866260D02*
Y868032D01*
X1649268Y866260D02*
Y868032D01*
X1649268Y863504D02*
X1649268Y861732D01*
X1643756D02*
X1649268D01*
X1643756Y868032D02*
X1649268D01*
X1638244Y863504D02*
X1638244Y861732D01*
Y868032D02*
X1638244Y866260D01*
X1643756D02*
Y868032D01*
Y861732D02*
Y863504D01*
X1638244Y861732D02*
X1643756Y861732D01*
X1638244Y868032D02*
X1643756D01*
X1620622Y863516D02*
X1620622Y861744D01*
X1620622Y866272D02*
Y868043D01*
X1615110Y866272D02*
Y868043D01*
Y861744D02*
X1615110Y863516D01*
X1615110Y861744D02*
X1620622D01*
X1615110Y868043D02*
X1620622D01*
X1626134Y863516D02*
X1626134Y861744D01*
X1626134Y868043D02*
X1626134Y866272D01*
X1620622D02*
Y868043D01*
Y861744D02*
X1620622Y863516D01*
X1620622Y861744D02*
X1626134D01*
X1620622Y868043D02*
X1626134Y868043D01*
X1774339Y1143173D02*
Y1156968D01*
X1799945D01*
Y1143173D02*
Y1156968D01*
X1774339Y1143173D02*
X1799945D01*
X1774878Y1134323D02*
X1774878Y1139441D01*
X1527956Y1308617D02*
Y1314129D01*
Y1308617D02*
X1534255D01*
X1557877D02*
X1564177D01*
Y1314129D01*
X1527956Y1324365D02*
X1564177D01*
X1690953Y1301634D02*
Y1315217D01*
X1678354Y1301634D02*
X1690953D01*
X1678354D02*
Y1315217D01*
X1690953D01*
X1694032Y1307425D02*
X1697968D01*
X1696000D02*
X1697575Y1310181D01*
X1694032Y1310181D02*
X1696000Y1307425D01*
X1694032Y1310181D02*
X1697575Y1310181D01*
X1696000Y1306638D02*
Y1307425D01*
Y1310181D02*
Y1311362D01*
X1638244Y1143409D02*
X1643756D01*
X1638244Y1137110D02*
X1643756D01*
X1638244D02*
Y1138882D01*
Y1141638D02*
Y1143409D01*
X1643756Y1141638D02*
Y1143409D01*
Y1137110D02*
Y1138882D01*
X1632732Y1143409D02*
X1638244D01*
X1632732Y1137110D02*
X1638244D01*
X1632732D02*
X1632732Y1138882D01*
X1632732Y1143409D02*
X1632732Y1141638D01*
X1638244D02*
X1638244Y1143409D01*
Y1138882D02*
X1638244Y1137110D01*
X1494684Y1050471D02*
Y1126455D01*
Y1050471D02*
X1570668D01*
Y1126455D01*
X1494684D02*
X1570668D01*
X1718843Y1074461D02*
Y1080957D01*
X1718598Y1082335D02*
X1739402D01*
Y1101429D01*
X1718598D02*
X1739402D01*
X1718598Y1082335D02*
Y1101429D01*
X1625508Y1050890D02*
Y1126874D01*
Y1050890D02*
X1701492D01*
Y1126874D01*
X1625508D02*
X1701492D01*
X1601807Y1083213D02*
Y1086362D01*
X1602594Y1087150D01*
X1615193D01*
Y1070614D02*
Y1087150D01*
X1601807Y1070614D02*
X1615193D01*
X1601807D02*
Y1083213D01*
X1730354Y981421D02*
Y994020D01*
X1711063Y981421D02*
X1730354D01*
X1711063D02*
Y994020D01*
X1730354D01*
X1730866Y995398D02*
Y1001402D01*
X1730937Y976464D02*
X1732709D01*
X1735465D02*
X1737236D01*
X1735465Y970953D02*
X1737236D01*
X1730937D02*
X1732709D01*
X1730937D02*
Y976464D01*
X1737236Y970953D02*
Y976464D01*
X1730937Y981976D02*
X1732709D01*
X1735465Y981977D02*
X1737236Y981976D01*
X1735465Y976464D02*
X1737236D01*
X1730937D02*
X1732709D01*
X1730937D02*
Y981976D01*
X1737236Y976464D02*
Y981976D01*
X1459605Y1096968D02*
Y1103465D01*
X1459361Y1104842D02*
X1480164D01*
Y1123937D01*
X1459361D02*
X1480164D01*
X1459361Y1104842D02*
Y1123937D01*
X1929449Y971725D02*
X1935551D01*
X1928071Y972354D02*
Y1006409D01*
X1915472D02*
X1928071D01*
X1915472Y972354D02*
Y1006409D01*
Y972354D02*
X1928071D01*
X1900717Y1084677D02*
X1915283D01*
Y1059087D02*
Y1084677D01*
X1900717Y1059087D02*
X1915283D01*
X1900717D02*
Y1084677D01*
X1893532Y1085662D02*
X1899339D01*
X2027343Y1018102D02*
X2027343Y1024205D01*
X2027421Y1025583D02*
X2067579D01*
Y1038181D01*
X2027421D02*
X2067579D01*
X2027421Y1025583D02*
Y1038181D01*
X2027343Y1056102D02*
X2027343Y1062205D01*
X2027421Y1063583D02*
X2067579D01*
Y1076181D01*
X2027421D02*
X2067579D01*
X2027421Y1063583D02*
Y1076181D01*
X2027343Y1092874D02*
Y1098976D01*
X2027421Y1100354D02*
X2067579D01*
Y1112953D01*
X2027421D02*
X2067579D01*
X2027421Y1100354D02*
Y1112953D01*
X1600181Y1172102D02*
Y1180370D01*
X1625772Y1180370D01*
X1625772Y1172102D02*
X1625772Y1180370D01*
X2061906Y971725D02*
X2068008D01*
X2060528Y972354D02*
Y1006409D01*
X2047929D02*
X2060528D01*
X2047929Y972354D02*
Y1006409D01*
Y972354D02*
X2060528D01*
X1366701Y978854D02*
X1379299D01*
X1366701D02*
Y1012909D01*
X1379299D01*
Y978854D02*
Y1012909D01*
X1380677Y978224D02*
X1386779D01*
X2047929Y1132354D02*
X2060528D01*
X2047929D02*
Y1166409D01*
X2060528D01*
Y1132354D02*
Y1166409D01*
X2061906Y1131724D02*
X2068008D01*
X1913972Y1130354D02*
X1926571D01*
X1913972D02*
Y1164410D01*
X1926571D01*
Y1130354D02*
Y1164410D01*
X1927949Y1129725D02*
X1934051D01*
X1470983Y1070195D02*
Y1082794D01*
Y1070195D02*
X1484369D01*
Y1086731D01*
X1471770D02*
X1484369D01*
X1470983Y1085943D02*
X1471770Y1086731D01*
X1470983Y1082794D02*
Y1085943D01*
X1478479Y1025727D02*
Y1038325D01*
X1459188Y1025727D02*
X1478479D01*
X1459188D02*
Y1038325D01*
X1478479D01*
X1478991Y1039703D02*
Y1045707D01*
X1468589Y1013904D02*
Y1015676D01*
X1468589Y1011148D02*
X1468589Y1009376D01*
X1463077D02*
Y1011148D01*
Y1013904D02*
Y1015676D01*
X1468589D01*
X1463077Y1009376D02*
X1468589D01*
X1474101Y1013904D02*
Y1015676D01*
Y1009376D02*
Y1011148D01*
X1468589Y1009376D02*
Y1011148D01*
Y1013904D02*
Y1015676D01*
X1474101D01*
X1468589Y1009376D02*
X1474101D01*
X1477979Y981227D02*
Y993825D01*
X1458688Y981227D02*
X1477979D01*
X1458688D02*
Y993825D01*
X1477979D01*
X1478491Y995203D02*
Y1001207D01*
X1485605Y979770D02*
Y985282D01*
X1479306Y979770D02*
Y985282D01*
Y979770D02*
X1481077D01*
X1483833D02*
X1485605D01*
X1483833Y985282D02*
X1485605D01*
X1479306D02*
X1481077D01*
X1485605Y974258D02*
Y979770D01*
X1479306Y974258D02*
Y979770D01*
Y974258D02*
X1481077D01*
X1483833D02*
X1485605D01*
X1483833Y979770D02*
X1485605D01*
X1479306Y979770D02*
X1481077Y979770D01*
X1756744Y1123732D02*
Y1128457D01*
X1745130Y1122354D02*
X1756547D01*
X1745130D02*
X1745130Y1119992D01*
X1756547D01*
X1756547Y1122354D02*
X1756547Y1119992D01*
D11*
X2110039Y1275041D02*
G03*
X2111234Y1273737I1195J-105D01*
G01*
X2111239D02*
Y1275837D01*
Y1272137D02*
Y1273737D01*
X2099439Y1272137D02*
X2102938D01*
X2099439D02*
Y1275837D01*
X2107739Y1272137D02*
X2111239D01*
D12*
X1977803Y1248000D02*
G03*
X1977803Y1248000I-8803J0D01*
G01*
X1928803D02*
G03*
X1928803Y1248000I-8803J0D01*
G01*
X1432811Y1127882D02*
G03*
X1432811Y1127882I-11811J0D01*
G01*
X2117481Y998260D02*
G03*
X2117481Y998260I-11811J0D01*
G01*
X2110670Y993260D02*
G03*
X2100670Y993260I-5000J5000D01*
G01*
X1979686Y998260D02*
G03*
X1979686Y998260I-11811J0D01*
G01*
X1972875Y993260D02*
G03*
X1962875Y993260I-5000J5000D01*
G01*
X1432874Y998260D02*
G03*
X1432874Y998260I-11811J0D01*
G01*
X1426063Y993260D02*
G03*
X1416063Y993260I-5000J5000D01*
G01*
X2117481Y1136055D02*
G03*
X2117481Y1136055I-11811J0D01*
G01*
X2110670Y1131055D02*
G03*
X2100670Y1131055I-5000J5000D01*
G01*
X1979686Y1136055D02*
G03*
X1979686Y1136055I-11811J0D01*
G01*
X1972875Y1131055D02*
G03*
X1962875Y1131055I-5000J5000D01*
G01*
X1831403Y1111357D02*
X1831449Y1111357D01*
X1831403Y1013098D02*
X1831449Y1013098D01*
X1703082Y914043D02*
X1703082Y913996D01*
X1578414Y914043D02*
X1578414Y913996D01*
X2114725Y914043D02*
X2114725Y913996D01*
X2032048Y914043D02*
X2032048Y913996D01*
X1949537Y914043D02*
X1949537Y913996D01*
X2039985Y1204414D02*
X2039985Y1204367D01*
X2134473Y1204413D02*
X2134473Y1204367D01*
X2087229Y1204413D02*
X2087229Y1204367D01*
X1898253Y1204413D02*
X1898253Y1204367D01*
X1945497Y1204413D02*
X1945497Y1204367D01*
X1992741Y1204413D02*
X1992741Y1204367D01*
X1851009Y1204413D02*
X1851009Y1204367D01*
X1756521Y1204414D02*
X1756521Y1204367D01*
X1520300Y1204413D02*
X1520300Y1204367D01*
X1567544Y1204413D02*
X1567544Y1204367D01*
X1709277Y1204413D02*
X1709277Y1204367D01*
X1662033Y1204413D02*
X1662033Y1204367D01*
X1614788Y1204413D02*
X1614788Y1204367D01*
X1425812Y1204413D02*
X1425812Y1204367D01*
X1803765Y1204413D02*
X1803765Y1204367D01*
X1473056Y1204413D02*
X1473056Y1204367D01*
X1993261Y1239773D02*
Y1239819D01*
X1568236Y1239736D02*
Y1239783D01*
X1615308Y1239773D02*
Y1239819D01*
X1520992Y1239736D02*
Y1239783D01*
X1426332Y1239773D02*
Y1239819D01*
X1473576Y1239773D02*
Y1239819D01*
X1946017Y1239773D02*
Y1239819D01*
X1898773Y1239773D02*
Y1239819D01*
X2134993Y1239773D02*
Y1239819D01*
X2040505Y1239773D02*
Y1239819D01*
X2087749Y1239773D02*
Y1239819D01*
X1662552Y1239773D02*
Y1239819D01*
X1757040Y1239773D02*
Y1239819D01*
X1709796Y1239773D02*
Y1239819D01*
X1804284Y1239773D02*
Y1239819D01*
X1851529Y1239773D02*
Y1239819D01*
X1760500Y1164882D02*
X1769000D01*
Y1168882D01*
X1760500Y1172882D02*
X1763500D01*
X1804500Y1168882D02*
Y1174382D01*
X1793500Y1168882D02*
X1804500D01*
X1792500Y1169382D02*
Y1174882D01*
X1781500Y1168882D02*
X1793500D01*
X1781500D02*
Y1174882D01*
X1769000Y1168882D02*
X1781500D01*
X1769000D02*
Y1174882D01*
X1799000Y1172882D02*
Y1174882D01*
X1787000Y1172882D02*
X1799000D01*
X1787000D02*
Y1174882D01*
Y1172882D02*
Y1174882D01*
X1775500Y1172882D02*
X1787000D01*
X1775500D02*
Y1174882D01*
X1763500Y1172882D02*
X1775500D01*
X1763500D02*
Y1174882D01*
X1623500Y857382D02*
Y858882D01*
Y857382D02*
X1629500D01*
Y858882D01*
X1646500Y871382D02*
Y873882D01*
X1641000D02*
X1646500D01*
X1641000Y871382D02*
Y873882D01*
Y871382D02*
Y873882D01*
X1635000D02*
X1641000D01*
X1635000Y871382D02*
Y873882D01*
Y871382D02*
Y873882D01*
X1618000D02*
X1635000D01*
X1618000Y870882D02*
Y873882D01*
X1441000Y1137882D02*
Y1151705D01*
X1401000D02*
X1441000D01*
X1401000Y1137882D02*
Y1151705D01*
Y1102205D02*
X1406500D01*
X1401000D02*
Y1125705D01*
X1441000Y1102205D02*
Y1125705D01*
X1435000Y1102205D02*
X1441000D01*
X1619193Y980906D02*
X1705807D01*
X1619193D02*
Y986811D01*
Y992717D02*
Y1020276D01*
X1705807D01*
Y992717D02*
Y1020276D01*
Y980906D02*
Y986811D01*
X2081064Y1024638D02*
X2091103D01*
X2100651D02*
X2110690D01*
X2081064Y971882D02*
X2092284D01*
X2099371D02*
X2102127D01*
X2109292D02*
X2112048D01*
X2119057D02*
X2130277D01*
X2120238Y1024638D02*
X2130278D01*
X2130277Y1006725D02*
Y1024638D01*
X2081064Y1006725D02*
Y1024638D01*
X2130277Y971882D02*
Y989795D01*
X2081064Y971882D02*
Y989795D01*
X2100670Y993260D02*
X2110670D01*
X1943269Y1024638D02*
X1953308D01*
X1962855D02*
X1972894D01*
X1943269Y971882D02*
X1954489D01*
X1961576D02*
X1964332D01*
X1971497D02*
X1974253D01*
X1981262D02*
X1992482D01*
X1982443Y1024638D02*
X1992483D01*
X1992482Y1006725D02*
Y1024638D01*
X1943269Y1006725D02*
Y1024638D01*
X1992482Y971882D02*
Y989795D01*
X1943269Y971882D02*
Y989795D01*
X1962875Y993260D02*
X1972875D01*
X1396457Y1024638D02*
X1406496D01*
X1416043D02*
X1426082D01*
X1396457Y971882D02*
X1407677D01*
X1414764D02*
X1417519D01*
X1424685D02*
X1427441D01*
X1434449D02*
X1445669D01*
X1435631Y1024638D02*
X1445671D01*
X1445670Y1006725D02*
Y1024638D01*
X1396457Y1006725D02*
Y1024638D01*
X1445670Y971882D02*
Y989795D01*
X1396457Y971882D02*
Y989795D01*
X1416063Y993260D02*
X1426063D01*
X2081064Y1162433D02*
X2091103D01*
X2100651D02*
X2110690D01*
X2081064Y1109677D02*
X2092284D01*
X2099371D02*
X2102127D01*
X2109292D02*
X2112048D01*
X2119057D02*
X2130277D01*
X2120238Y1162433D02*
X2130278D01*
X2130277Y1144520D02*
Y1162433D01*
X2081064Y1144520D02*
Y1162433D01*
X2130277Y1109677D02*
Y1127590D01*
X2081064Y1109677D02*
Y1127590D01*
X2100670Y1131055D02*
X2110670D01*
X1943269Y1162433D02*
X1953308D01*
X1962855D02*
X1972894D01*
X1943269Y1109677D02*
X1954489D01*
X1961576D02*
X1964332D01*
X1971497D02*
X1974253D01*
X1981262D02*
X1992482D01*
X1982443Y1162433D02*
X1992483D01*
X1992482Y1144520D02*
Y1162433D01*
X1943269Y1144520D02*
Y1162433D01*
X1992482Y1109677D02*
Y1127590D01*
X1943269Y1109677D02*
Y1127590D01*
X1962875Y1131055D02*
X1972875D01*
X1574977Y980492D02*
Y986398D01*
Y992303D02*
Y1019862D01*
X1488363D02*
X1574977D01*
X1488363Y992303D02*
Y1019862D01*
Y980492D02*
Y986398D01*
Y980492D02*
X1574977D01*
X1421063Y991319D02*
Y998260D01*
X1816600Y1025000D02*
Y1030998D01*
X1819599D01*
X1820599Y1029998D01*
Y1027999D01*
X1819599Y1026999D01*
X1816600D01*
X1818599D02*
X1820599Y1025000D01*
X1822598Y1030998D02*
X1826597D01*
Y1029998D01*
X1822598Y1026000D01*
Y1025000D01*
X1828596Y1030998D02*
X1832595D01*
Y1029998D01*
X1828596Y1026000D01*
Y1025000D01*
X2114200Y931400D02*
Y937398D01*
X2117199D01*
X2118199Y936398D01*
Y934399D01*
X2117199Y933399D01*
X2114200D01*
X2116199D02*
X2118199Y931400D01*
X2120198Y937398D02*
X2124197D01*
Y936398D01*
X2120198Y932400D01*
Y931400D01*
X2130195Y937398D02*
X2126196D01*
Y934399D01*
X2128196Y935399D01*
X2129195D01*
X2130195Y934399D01*
Y932400D01*
X2129195Y931400D01*
X2127196D01*
X2126196Y932400D01*
X2032200Y931400D02*
Y937398D01*
X2035199D01*
X2036199Y936398D01*
Y934399D01*
X2035199Y933399D01*
X2032200D01*
X2034199D02*
X2036199Y931400D01*
X2038198Y937398D02*
X2042197D01*
Y936398D01*
X2038198Y932400D01*
Y931400D01*
X2047195D02*
Y937398D01*
X2044196Y934399D01*
X2048195D01*
X1949200Y931400D02*
Y937398D01*
X1952199D01*
X1953199Y936398D01*
Y934399D01*
X1952199Y933399D01*
X1949200D01*
X1951199D02*
X1953199Y931400D01*
X1955198Y937398D02*
X1959197D01*
Y936398D01*
X1955198Y932400D01*
Y931400D01*
X1961196Y936398D02*
X1962196Y937398D01*
X1964195D01*
X1965195Y936398D01*
Y935399D01*
X1964195Y934399D01*
X1963195D01*
X1964195D01*
X1965195Y933399D01*
Y932400D01*
X1964195Y931400D01*
X1962196D01*
X1961196Y932400D01*
X1703000Y931400D02*
Y937398D01*
X1705999D01*
X1706999Y936398D01*
Y934399D01*
X1705999Y933399D01*
X1703000D01*
X1704999D02*
X1706999Y931400D01*
X1708998Y937398D02*
X1712997D01*
Y936398D01*
X1708998Y932400D01*
Y931400D01*
X1718995D02*
X1714996D01*
X1718995Y935399D01*
Y936398D01*
X1717995Y937398D01*
X1715996D01*
X1714996Y936398D01*
X1578200Y931400D02*
Y937398D01*
X1581199D01*
X1582199Y936398D01*
Y934399D01*
X1581199Y933399D01*
X1578200D01*
X1580199D02*
X1582199Y931400D01*
X1587197D02*
Y937398D01*
X1584198Y934399D01*
X1588197D01*
X1591600Y941300D02*
Y947298D01*
X1594599D01*
X1595599Y946298D01*
Y944299D01*
X1594599Y943299D01*
X1591600D01*
X1593599D02*
X1595599Y941300D01*
X1597598Y946298D02*
X1598598Y947298D01*
X1600597D01*
X1601597Y946298D01*
Y945299D01*
X1600597Y944299D01*
X1599597D01*
X1600597D01*
X1601597Y943299D01*
Y942300D01*
X1600597Y941300D01*
X1598598D01*
X1597598Y942300D01*
D13*
X1486961Y1189032D02*
G03*
X1486961Y1189032I-492J0D01*
G01*
X1488975Y1125865D02*
G03*
X1488975Y1125865I-492J0D01*
G01*
X1619799Y1126283D02*
G03*
X1619799Y1126283I-492J0D01*
G01*
X1626461Y1189032D02*
G03*
X1626461Y1189032I-492J0D01*
G01*
D14*
X1601610Y1087543D02*
G03*
X1601610Y1087543I-197J0D01*
G01*
X1470786Y1087124D02*
G03*
X1470786Y1087124I-197J0D01*
G01*
X1607734Y1102068D02*
X1610883D01*
X1607734Y1107973D02*
X1610883D01*
D15*
X1705807Y992717D02*
G03*
X1705807Y986811I0J-2953D01*
G01*
X1619193D02*
G03*
X1619193Y992717I0J2953D01*
G01*
X1703839Y1016339D02*
G03*
X1703839Y1016339I-1969J0D01*
G01*
X1573009Y1015926D02*
G03*
X1573009Y1015926I-1969J0D01*
G01*
X1488363Y986398D02*
G03*
X1488363Y992303I0J2953D01*
G01*
X1574977D02*
G03*
X1574977Y986398I0J-2953D01*
G01*
D16*
X1690245Y1252503D02*
X1690245Y1246991D01*
X1695757Y1246991D02*
Y1248172D01*
X1684734Y1246991D02*
X1695757D01*
X1684734D02*
Y1248172D01*
Y1251322D02*
Y1252503D01*
X1695757Y1252503D01*
X1695757Y1251322D02*
X1695757Y1252503D01*
X1789484Y1307161D02*
X1790240D01*
X1789484Y1297161D02*
Y1307161D01*
Y1297161D02*
X1790240Y1297161D01*
X1794240Y1297161D02*
X1794996D01*
Y1307161D01*
X1794240Y1307161D02*
X1794996Y1307161D01*
X1789484Y1302161D02*
X1794996Y1302161D01*
X1790740Y1291366D02*
X1794740D01*
X1794240Y1295866D02*
X1794740Y1295866D01*
Y1286866D02*
Y1295866D01*
X1794240Y1286866D02*
X1794740D01*
X1790740D02*
X1791240D01*
X1790740Y1295866D02*
X1790740Y1286866D01*
X1790740Y1295866D02*
X1791240Y1295866D01*
X1782984Y1296661D02*
X1783740D01*
X1782984Y1286661D02*
Y1296661D01*
Y1286661D02*
X1783740Y1286661D01*
X1787740D02*
X1788496Y1286661D01*
Y1296661D01*
X1787740D02*
X1788496D01*
X1782984Y1291661D02*
X1788496D01*
X1782197Y1272760D02*
X1783772Y1272760D01*
X1782197Y1272760D02*
Y1286146D01*
X1783772D01*
X1787709D02*
X1789284D01*
Y1272760D02*
Y1286146D01*
X1787709Y1272760D02*
X1789284D01*
X1782197Y1279453D02*
X1789284Y1279453D01*
X1789197Y1272760D02*
X1790772D01*
X1789197D02*
Y1286146D01*
X1790772Y1286146D01*
X1794709D02*
X1796284Y1286146D01*
X1796284Y1272760D01*
X1794709D02*
X1796284D01*
X1789197Y1279453D02*
X1796284D01*
X1773717Y1248760D02*
X1775291D01*
X1773717D02*
Y1262146D01*
X1775291D01*
X1779228D02*
X1780803D01*
Y1248760D02*
Y1262146D01*
X1779228Y1248760D02*
X1780803D01*
X1773717Y1255453D02*
X1780803D01*
X1767504Y1268543D02*
X1768260D01*
X1767504Y1258543D02*
Y1268543D01*
Y1258543D02*
X1768260D01*
X1772260D02*
X1773016D01*
Y1268543D01*
X1772260D02*
X1773016D01*
X1767504Y1263543D02*
X1773016D01*
X1779083Y1263846D02*
Y1269358D01*
X1784595Y1263846D02*
Y1265028D01*
X1773571Y1263846D02*
X1784595D01*
X1773571D02*
Y1265028D01*
Y1268177D02*
Y1269358D01*
X1784595D01*
Y1268177D02*
Y1269358D01*
X1594500Y928764D02*
X1595000Y928764D01*
Y937764D01*
X1594500Y937764D02*
X1595000Y937764D01*
X1591000D02*
X1591500Y937764D01*
X1591000Y928764D02*
Y937764D01*
Y928764D02*
X1591500Y928764D01*
X1591000Y933264D02*
X1595000D01*
X1816000Y1021500D02*
X1816500D01*
X1816000Y1012500D02*
Y1021500D01*
Y1012500D02*
X1816500D01*
X1819500D02*
X1820000D01*
Y1021500D01*
X1819500D02*
X1820000D01*
X1816000Y1017000D02*
X1820000D01*
X2122764Y927500D02*
Y928000D01*
X2113764D02*
X2122764D01*
X2113764Y927500D02*
Y928000D01*
Y924000D02*
Y924500D01*
Y924000D02*
X2122764D01*
Y924500D01*
X2118264Y924000D02*
Y928000D01*
X2040764Y927500D02*
Y928000D01*
X2031764D02*
X2040764D01*
X2031764Y927500D02*
Y928000D01*
Y924000D02*
Y924500D01*
Y924000D02*
X2040764D01*
Y924500D01*
X2036264Y924000D02*
Y928000D01*
X1957764Y927500D02*
Y928000D01*
X1948764D02*
X1957764D01*
X1948764Y927500D02*
Y928000D01*
Y924000D02*
Y924500D01*
Y924000D02*
X1957764D01*
Y924500D01*
X1953264Y924000D02*
Y928000D01*
X1711500Y927500D02*
Y928000D01*
X1702500D02*
X1711500D01*
X1702500Y927500D02*
Y928000D01*
Y924000D02*
Y924500D01*
Y924000D02*
X1711500D01*
Y924500D01*
X1707000Y924000D02*
Y928000D01*
X1586764Y927500D02*
Y928000D01*
X1577764D02*
X1586764D01*
X1577764Y927500D02*
Y928000D01*
Y924000D02*
Y924500D01*
Y924000D02*
X1586764D01*
Y924500D01*
X1582264Y924000D02*
Y928000D01*
X2003500Y1321000D02*
X2004000D01*
Y1323543D01*
X2003500D02*
X2004000D01*
X2003500Y1316457D02*
X2004000D01*
Y1319000D01*
X2003500D02*
X2004000D01*
X1988000Y1322756D02*
Y1323543D01*
X2003500D01*
Y1321000D02*
Y1323543D01*
X1988000Y1316457D02*
Y1317244D01*
Y1316457D02*
X2003500D01*
Y1319000D01*
X1996000Y1316457D02*
Y1323543D01*
Y1320000D02*
X1997000D01*
X1995000Y1319000D02*
Y1321000D01*
X1996000Y1320000D01*
X1995000Y1319000D02*
X1996000Y1320000D01*
X1989764Y1312000D02*
X1989764Y1312500D01*
X1989764Y1312000D02*
X1998764D01*
X1998764Y1312500D01*
X1998764Y1316000D02*
X1998764Y1315500D01*
X1989764Y1316000D02*
X1998764D01*
X1989764D02*
X1989764Y1315500D01*
X1994264Y1312000D02*
Y1316000D01*
X1989559Y1274244D02*
Y1279756D01*
X1994559Y1274244D02*
Y1275000D01*
X1984559Y1274244D02*
X1994559D01*
X1984559Y1275000D02*
X1984559Y1274244D01*
X1984559Y1279000D02*
X1984559Y1279756D01*
X1994559D01*
Y1279000D02*
Y1279756D01*
X1989559Y1264244D02*
Y1269756D01*
X1994559Y1264244D02*
Y1265000D01*
X1984559Y1264244D02*
X1994559D01*
X1984559Y1265000D02*
X1984559Y1264244D01*
X1984559Y1269000D02*
X1984559Y1269756D01*
X1994559D01*
Y1269000D02*
Y1269756D01*
X2132961Y1307244D02*
Y1312756D01*
X2127961Y1312000D02*
Y1312756D01*
X2137961D01*
X2137961Y1312000D01*
X2137961Y1307244D02*
X2137961Y1308000D01*
X2127961Y1307244D02*
X2137961D01*
X2127961D02*
Y1308000D01*
X2045146Y1268559D02*
X2050657D01*
X2045146Y1263559D02*
X2045902D01*
X2045146D02*
Y1273559D01*
X2045902D01*
X2049902D02*
X2050657D01*
Y1263559D02*
Y1273559D01*
X2049902Y1263559D02*
X2050657D01*
X2031677Y1304527D02*
X2037189D01*
X2036433Y1309527D02*
X2037189D01*
Y1299528D02*
Y1309527D01*
X2036433Y1299527D02*
X2037189Y1299528D01*
X2031677D02*
X2032433Y1299527D01*
X2031677Y1299528D02*
Y1309527D01*
X2032433D01*
X2059588Y1268117D02*
Y1273629D01*
X2064588Y1268117D02*
Y1268873D01*
X2054588Y1268117D02*
X2064588D01*
X2054588D02*
Y1268873D01*
Y1272873D02*
Y1273629D01*
X2064588D01*
Y1272873D02*
Y1273629D01*
X2036902Y1261555D02*
Y1268642D01*
X2030209Y1261555D02*
Y1263130D01*
Y1261555D02*
X2043595D01*
X2043595Y1263130D01*
X2043595Y1268642D02*
X2043595Y1267067D01*
X2030209Y1268642D02*
X2043595D01*
X2030209Y1267067D02*
Y1268642D01*
X2105779Y1283181D02*
Y1288693D01*
X2110780Y1283181D02*
Y1283937D01*
X2100780Y1283181D02*
X2110780D01*
X2100780Y1283937D02*
X2100780Y1283181D01*
X2100780Y1287937D02*
X2100780Y1288693D01*
X2110780D01*
Y1287937D02*
Y1288693D01*
X2116898Y1283181D02*
Y1288693D01*
X2121898Y1283181D02*
Y1283937D01*
X2111898Y1283181D02*
X2121898D01*
X2111898Y1283937D02*
X2111898Y1283181D01*
X2111898Y1287937D02*
X2111898Y1288693D01*
X2121898D01*
Y1287937D02*
Y1288693D01*
X2109780Y1261181D02*
Y1266693D01*
X2104779Y1265937D02*
Y1266693D01*
X2114779D01*
Y1265937D02*
Y1266693D01*
Y1261181D02*
Y1261937D01*
X2104779Y1261181D02*
X2114779D01*
X2104779D02*
Y1261937D01*
X2120898Y1261181D02*
Y1266693D01*
X2115898Y1265937D02*
Y1266693D01*
X2125898D01*
Y1265937D02*
Y1266693D01*
Y1261181D02*
Y1261937D01*
X2115898Y1261181D02*
X2125898D01*
X2115898D02*
Y1261937D01*
X2098779Y1261181D02*
Y1266693D01*
X2093780Y1265937D02*
Y1266693D01*
X2103779D01*
Y1265937D02*
Y1266693D01*
Y1261181D02*
Y1261937D01*
X2093780Y1261181D02*
X2103779D01*
X2093780D02*
Y1261937D01*
X2116961Y1296244D02*
Y1301756D01*
X2111961Y1301000D02*
Y1301756D01*
X2121961D01*
Y1301000D02*
Y1301756D01*
Y1296244D02*
Y1297000D01*
X2111961Y1296244D02*
X2121961D01*
X2111961D02*
Y1297000D01*
X2073402Y1314244D02*
Y1319756D01*
X2078402Y1314244D02*
Y1315000D01*
X2068402Y1314244D02*
X2078402D01*
X2068402Y1315000D02*
X2068402Y1314244D01*
X2068402Y1319000D02*
X2068402Y1319756D01*
X2078402D01*
Y1319000D02*
Y1319756D01*
X2086551Y1274457D02*
Y1281543D01*
X2079858Y1274457D02*
Y1276031D01*
Y1274457D02*
X2093244D01*
Y1276031D01*
Y1279968D02*
Y1281543D01*
X2079858D02*
X2093244D01*
X2079858Y1279968D02*
Y1281543D01*
X2086551Y1282457D02*
Y1289543D01*
X2079858Y1282457D02*
Y1284031D01*
Y1282457D02*
X2093244D01*
Y1284031D01*
Y1287969D02*
Y1289543D01*
X2079858D02*
X2093244D01*
X2079858Y1287969D02*
Y1289543D01*
X2073842Y1275244D02*
Y1280756D01*
X2068843Y1280000D02*
Y1280756D01*
X2078843D01*
Y1280000D02*
Y1280756D01*
Y1275244D02*
Y1276000D01*
X2068843Y1275244D02*
X2078843D01*
X2068843D02*
Y1276000D01*
X2038858Y1306150D02*
X2045945D01*
X2044370Y1299457D02*
X2045945D01*
Y1312842D01*
X2044370D02*
X2045945D01*
X2038858D02*
X2040433D01*
X2038858Y1299457D02*
Y1312842D01*
Y1299457D02*
X2040433D01*
X2086551Y1312457D02*
Y1319543D01*
X2079858Y1312457D02*
Y1314032D01*
Y1312457D02*
X2093244D01*
X2093244Y1314032D01*
X2093244Y1319543D02*
X2093244Y1317968D01*
X2079858Y1319543D02*
X2093244D01*
X2079858Y1317968D02*
Y1319543D01*
X2061252Y1274457D02*
Y1281543D01*
X2067945Y1279968D02*
Y1281543D01*
X2054559D02*
X2067945D01*
X2054559Y1279968D02*
Y1281543D01*
Y1274457D02*
Y1276031D01*
Y1274457D02*
X2067945D01*
Y1276031D01*
X2116961Y1307244D02*
Y1312756D01*
X2121961Y1307244D02*
Y1308000D01*
X2111961Y1307244D02*
X2121961D01*
X2111961D02*
Y1308000D01*
Y1312000D02*
Y1312756D01*
X2121961D01*
Y1312000D02*
Y1312756D01*
X2117000Y1301244D02*
Y1306756D01*
X2112000Y1306000D02*
Y1306756D01*
X2122000D01*
Y1306000D02*
Y1306756D01*
Y1301244D02*
Y1302000D01*
X2112000Y1301244D02*
X2122000D01*
X2112000D02*
Y1302000D01*
X2116961Y1290244D02*
Y1295756D01*
X2111961Y1295000D02*
Y1295756D01*
X2121961D01*
X2121961Y1295000D01*
X2121961Y1290244D02*
X2121961Y1291000D01*
X2111961Y1290244D02*
X2121961D01*
X2111961D02*
Y1291000D01*
X2132961Y1289244D02*
Y1294756D01*
X2137961Y1289244D02*
Y1290000D01*
X2127961Y1289244D02*
X2137961D01*
X2127961D02*
Y1290000D01*
Y1294000D02*
Y1294756D01*
X2137961D01*
Y1294000D02*
Y1294756D01*
X2132961Y1295244D02*
Y1300756D01*
X2137961Y1295244D02*
Y1296000D01*
X2127961Y1295244D02*
X2137961D01*
X2127961D02*
Y1296000D01*
Y1300000D02*
Y1300756D01*
X2137961D01*
Y1300000D02*
Y1300756D01*
X2132961Y1301244D02*
Y1306756D01*
X2137961Y1301244D02*
Y1302000D01*
X2127961Y1301244D02*
X2137961D01*
X2127961D02*
Y1302000D01*
Y1306000D02*
Y1306756D01*
X2137961D01*
Y1306000D02*
Y1306756D01*
X2132842Y1283244D02*
Y1288756D01*
X2127843Y1288000D02*
Y1288756D01*
X2137843D01*
X2137843Y1288000D01*
X2137843Y1283244D02*
X2137843Y1284000D01*
X2127843Y1283244D02*
X2137843D01*
X2127843D02*
Y1284000D01*
X1942787Y1282105D02*
Y1287617D01*
X1947787Y1282105D02*
Y1282861D01*
X1937787Y1282105D02*
X1947787D01*
X1937787Y1282861D02*
X1937787Y1282105D01*
X1937787Y1286861D02*
X1937787Y1287617D01*
X1947787D01*
Y1286861D02*
Y1287617D01*
X1930438Y1266850D02*
X1937524D01*
X1930438Y1273543D02*
X1932013D01*
X1930438Y1260157D02*
Y1273543D01*
Y1260157D02*
X1932013Y1260157D01*
X1935950D02*
X1937524Y1260157D01*
Y1273543D01*
X1935950D02*
X1937524D01*
X1953131Y1263456D02*
Y1270543D01*
X1959823Y1268968D02*
Y1270543D01*
X1946438D02*
X1959823D01*
X1946438Y1268968D02*
X1946438Y1270543D01*
X1946438Y1265031D02*
X1946438Y1263456D01*
X1959823D01*
Y1265031D01*
X1937748Y1276157D02*
X1943260D01*
X1942504Y1281157D02*
X1943260D01*
Y1271157D02*
Y1281157D01*
X1942504Y1271157D02*
X1943260D01*
X1937748D02*
X1938504D01*
X1937748D02*
Y1281157D01*
X1938504D01*
X1922438Y1266850D02*
X1929524D01*
X1922438Y1273543D02*
X1924013D01*
X1922438Y1260157D02*
Y1273543D01*
Y1260157D02*
X1924013D01*
X1927950D02*
X1929524D01*
Y1273543D01*
X1927950D02*
X1929524D01*
X1921438Y1312649D02*
X1928524D01*
X1926950Y1305956D02*
X1928524D01*
Y1319342D01*
X1926950D02*
X1928524D01*
X1921438D02*
X1923013D01*
X1921438Y1305956D02*
Y1319342D01*
Y1305956D02*
X1923013D01*
X1961457Y1266150D02*
X1968543D01*
X1961457Y1272843D02*
X1963032D01*
X1961457Y1259457D02*
Y1272843D01*
Y1259457D02*
X1963032D01*
X1966969D02*
X1968543D01*
Y1272843D01*
X1966969D02*
X1968543D01*
X1895961Y1284787D02*
Y1291874D01*
X1889268Y1284787D02*
Y1286362D01*
Y1284787D02*
X1902654D01*
Y1286362D01*
Y1290299D02*
Y1291874D01*
X1889268D02*
X1902654D01*
X1889268Y1290299D02*
Y1291874D01*
X2044380Y1213261D02*
X2044880D01*
X2044380Y1204261D02*
Y1213261D01*
Y1204261D02*
X2044880D01*
X2047880D02*
X2048380D01*
Y1213261D01*
X2047880D02*
X2048380D01*
X2044380Y1208761D02*
X2048380D01*
X2091624Y1213261D02*
X2092124D01*
X2091624Y1204261D02*
Y1213261D01*
Y1204261D02*
X2092124D01*
X2095124D02*
X2095624D01*
Y1213261D01*
X2095124D02*
X2095624D01*
X2091624Y1208761D02*
X2095624D01*
X1902648Y1213261D02*
X1903148D01*
X1902648Y1204261D02*
Y1213261D01*
Y1204261D02*
X1903148D01*
X1906148D02*
X1906648D01*
Y1213261D01*
X1906148D02*
X1906648D01*
X1902648Y1208761D02*
X1906648D01*
X1949892Y1213261D02*
X1950392D01*
X1949892Y1204261D02*
Y1213261D01*
Y1204261D02*
X1950392D01*
X1953392D02*
X1953892D01*
Y1213261D01*
X1953392D02*
X1953892D01*
X1949892Y1208761D02*
X1953892D01*
X1997136Y1213261D02*
X1997636D01*
X1997136Y1204261D02*
Y1213261D01*
Y1204261D02*
X1997636D01*
X2000636D02*
X2001136D01*
Y1213261D01*
X2000636D02*
X2001136D01*
X1997136Y1208761D02*
X2001136D01*
X1855404Y1213261D02*
X1855904D01*
X1855404Y1204261D02*
Y1213261D01*
Y1204261D02*
X1855904D01*
X1858904D02*
X1859404D01*
Y1213261D01*
X1858904D02*
X1859404D01*
X1855404Y1208761D02*
X1859404D01*
X1524695Y1213261D02*
X1525195D01*
X1524695Y1204261D02*
Y1213261D01*
Y1204261D02*
X1525195D01*
X1528195D02*
X1528695D01*
Y1213261D01*
X1528195D02*
X1528695D01*
X1524695Y1208761D02*
X1528695D01*
X1477451Y1213261D02*
X1477951D01*
X1477451Y1204261D02*
Y1213261D01*
Y1204261D02*
X1477951D01*
X1480951D02*
X1481451D01*
Y1213261D01*
X1480951D02*
X1481451D01*
X1477451Y1208761D02*
X1481451D01*
X1571939Y1213261D02*
X1572439D01*
X1571939Y1204261D02*
Y1213261D01*
Y1204261D02*
X1572439D01*
X1575439D02*
X1575939D01*
Y1213261D01*
X1575439D02*
X1575939D01*
X1571939Y1208761D02*
X1575939D01*
X1619183Y1213261D02*
X1619683D01*
X1619183Y1204261D02*
Y1213261D01*
Y1204261D02*
X1619683D01*
X1622683D02*
X1623183D01*
Y1213261D01*
X1622683D02*
X1623183D01*
X1619183Y1208761D02*
X1623183D01*
X1713671Y1213261D02*
X1714171D01*
X1713671Y1204261D02*
Y1213261D01*
Y1204261D02*
X1714171D01*
X1717171D02*
X1717672D01*
Y1213261D01*
X1717171D02*
X1717672D01*
X1713671Y1208761D02*
X1717672D01*
X1666427Y1213261D02*
X1666928D01*
X1666427Y1204261D02*
Y1213261D01*
Y1204261D02*
X1666928D01*
X1669927D02*
X1670428D01*
Y1213261D01*
X1669927D02*
X1670428D01*
X1666427Y1208761D02*
X1670428D01*
X1430207Y1213261D02*
X1430707D01*
X1430207Y1204261D02*
Y1213261D01*
Y1204261D02*
X1430707D01*
X1433707D02*
X1434207D01*
Y1213261D01*
X1433707D02*
X1434207D01*
X1430207Y1208761D02*
X1434207D01*
X1808160Y1213261D02*
X1808660D01*
X1808160Y1204261D02*
Y1213261D01*
Y1204261D02*
X1808660D01*
X1811660D02*
X1812160D01*
Y1213261D01*
X1811660D02*
X1812160D01*
X1808160Y1208761D02*
X1812160D01*
X1760916Y1213261D02*
X1761416D01*
X1760916Y1204261D02*
Y1213261D01*
Y1204261D02*
X1761416D01*
X1764416D02*
X1764916D01*
Y1213261D01*
X1764416D02*
X1764916D01*
X1760916Y1208761D02*
X1764916D01*
X1407800Y1213336D02*
X1408300Y1213336D01*
X1407800Y1204336D02*
Y1213336D01*
Y1204336D02*
X1408300Y1204336D01*
X1411300D02*
X1411800Y1204336D01*
Y1213336D01*
X1411300Y1213336D02*
X1411800Y1213336D01*
X1407800Y1208836D02*
X1411800D01*
X1572803Y1244059D02*
X1576803D01*
X1576303Y1248559D02*
X1576803D01*
Y1239559D02*
Y1248559D01*
X1576303Y1239559D02*
X1576803D01*
X1572803D02*
X1573303D01*
X1572803D02*
Y1248559D01*
X1573303D01*
X1525559Y1244059D02*
X1529559D01*
X1529059Y1248559D02*
X1529559D01*
Y1239559D02*
Y1248559D01*
X1529059Y1239559D02*
X1529559D01*
X1525559D02*
X1526059D01*
X1525559D02*
Y1248559D01*
X1526059D01*
X1421150Y1230457D02*
Y1237543D01*
X1414457Y1230457D02*
Y1232032D01*
Y1230457D02*
X1427843D01*
X1427843Y1232032D01*
X1427843Y1237543D02*
X1427843Y1235968D01*
X1414457Y1237543D02*
X1427843D01*
X1414457Y1235968D02*
Y1237543D01*
X1408000Y1244000D02*
X1412000D01*
X1411500Y1248500D02*
X1412000D01*
Y1239500D02*
Y1248500D01*
X1411500Y1239500D02*
X1412000D01*
X1408000D02*
X1408500D01*
X1408000D02*
Y1248500D01*
X1408500D01*
X1431071Y1244094D02*
X1435071D01*
X1434571Y1248594D02*
X1435071D01*
Y1239594D02*
Y1248594D01*
X1434571Y1239594D02*
X1435071D01*
X1431071D02*
X1431571D01*
X1431071D02*
Y1248594D01*
X1431571D01*
X1478315Y1244059D02*
X1482315D01*
X1481815Y1248559D02*
X1482315D01*
Y1239559D02*
Y1248559D01*
X1481815Y1239559D02*
X1482315D01*
X1478315D02*
X1478815D01*
X1478315D02*
Y1248559D01*
X1478815D01*
X1856268Y1244059D02*
X1860268D01*
X1859768Y1248559D02*
X1860268D01*
Y1239559D02*
Y1248559D01*
X1859768Y1239559D02*
X1860268D01*
X1856268D02*
X1856768D01*
X1856268D02*
Y1248559D01*
X1856768D01*
X1903512Y1244059D02*
X1907512D01*
X1907012Y1248559D02*
X1907512D01*
Y1239559D02*
Y1248559D01*
X1907012Y1239559D02*
X1907512D01*
X1903512D02*
X1904012D01*
X1903512D02*
Y1248559D01*
X1904012D01*
X2092488Y1244094D02*
X2096488D01*
X2095988Y1248594D02*
X2096488D01*
Y1239594D02*
Y1248594D01*
X2095988Y1239594D02*
X2096488D01*
X2092488D02*
X2092988D01*
X2092488D02*
Y1248594D01*
X2092988D01*
X1950756Y1244059D02*
X1954756D01*
X1954256Y1248559D02*
X1954756D01*
Y1239559D02*
Y1248559D01*
X1954256Y1239559D02*
X1954756D01*
X1950756D02*
X1951256D01*
X1950756D02*
Y1248559D01*
X1951256D01*
X1998000Y1244059D02*
X2002000D01*
X2001500Y1248559D02*
X2002000D01*
Y1239559D02*
Y1248559D01*
X2001500Y1239559D02*
X2002000D01*
X1998000D02*
X1998500D01*
X1998000D02*
Y1248559D01*
X1998500D01*
X2045244Y1244059D02*
X2049244D01*
X2048744Y1248559D02*
X2049244D01*
Y1239559D02*
Y1248559D01*
X2048744Y1239559D02*
X2049244D01*
X2045244D02*
X2045744D01*
X2045244D02*
Y1248559D01*
X2045744D01*
X1620047Y1244059D02*
X1624047D01*
X1623547Y1248559D02*
X1624047D01*
Y1239559D02*
Y1248559D01*
X1623547Y1239559D02*
X1624047D01*
X1620047D02*
X1620547D01*
X1620047D02*
Y1248559D01*
X1620547D01*
X1714535Y1244059D02*
X1718535D01*
X1718035Y1248559D02*
X1718535D01*
Y1239559D02*
Y1248559D01*
X1718035Y1239559D02*
X1718535D01*
X1714535D02*
X1715035D01*
X1714535D02*
Y1248559D01*
X1715035D01*
X1761780Y1244059D02*
X1765779D01*
X1765280Y1248559D02*
X1765779D01*
Y1239559D02*
Y1248559D01*
X1765280Y1239559D02*
X1765779D01*
X1761780D02*
X1762280D01*
X1761780D02*
Y1248559D01*
X1762280D01*
X1809024Y1244059D02*
X1813024D01*
X1812524Y1248559D02*
X1813024D01*
Y1239559D02*
Y1248559D01*
X1812524Y1239559D02*
X1813024D01*
X1809024D02*
X1809524D01*
X1809024D02*
Y1248559D01*
X1809524D01*
X1667291Y1244059D02*
X1671291D01*
X1670791Y1248559D02*
X1671291D01*
Y1239559D02*
Y1248559D01*
X1670791Y1239559D02*
X1671291D01*
X1667291D02*
X1667791D01*
X1667291D02*
Y1248559D01*
X1667791D01*
X1464000Y1073626D02*
Y1079138D01*
X1459000Y1078382D02*
Y1079138D01*
X1469000D01*
Y1078382D02*
Y1079138D01*
Y1073626D02*
Y1074382D01*
X1459000Y1073626D02*
X1469000D01*
X1459000D02*
Y1074382D01*
X1486744Y1141323D02*
X1492256D01*
X1486744Y1136323D02*
X1487500D01*
X1486744D02*
Y1146323D01*
X1487500D01*
X1491500D02*
X1492256D01*
Y1136323D02*
Y1146323D01*
X1491500Y1136323D02*
X1492256D01*
X1806209Y1158414D02*
X1807784D01*
Y1145028D02*
Y1158414D01*
X1806209Y1145028D02*
X1807784Y1145028D01*
X1800697D02*
X1802272Y1145028D01*
X1800697Y1145028D02*
Y1158414D01*
X1802272D01*
X1800697Y1151721D02*
X1807784D01*
X1487957Y1156032D02*
X1495043D01*
X1493468Y1149339D02*
X1495043D01*
X1495043Y1162724D02*
X1495043Y1149339D01*
X1493468Y1162724D02*
X1495043D01*
X1487957D02*
X1489531Y1162724D01*
X1487957Y1149339D02*
Y1162724D01*
Y1149339D02*
X1489531Y1149339D01*
X1460957Y1199350D02*
Y1200925D01*
X1474343D01*
X1474343Y1199350D01*
X1474343Y1193839D02*
X1474343Y1195413D01*
X1460957Y1193839D02*
X1474343D01*
X1460957D02*
Y1195413D01*
X1467650Y1193839D02*
Y1200925D01*
X1813101Y1122443D02*
X1813101Y1127954D01*
X1808101Y1127199D02*
Y1127954D01*
X1818101Y1127954D01*
Y1127199D02*
Y1127954D01*
Y1122443D02*
Y1123199D01*
X1808101Y1122443D02*
X1818101Y1122443D01*
X1808101Y1122443D02*
Y1123199D01*
Y1144942D02*
Y1145699D01*
Y1144942D02*
X1818101Y1144942D01*
X1818101Y1145699D02*
X1818101Y1144942D01*
X1818101Y1150455D02*
X1818101Y1149699D01*
X1808101Y1150455D02*
X1818101D01*
X1808101Y1149699D02*
Y1150455D01*
X1813101Y1144942D02*
Y1150455D01*
Y1144788D02*
X1813101Y1139276D01*
X1808101Y1144788D02*
X1808101Y1144032D01*
X1808101Y1144788D02*
X1818101D01*
X1818101Y1144032D02*
X1818101Y1144788D01*
X1818101Y1139276D02*
X1818101Y1140032D01*
X1808101Y1139276D02*
X1818101D01*
X1808101Y1140032D02*
X1808101Y1139276D01*
X1813101Y1133776D02*
Y1139288D01*
X1808101Y1138532D02*
X1808101Y1139288D01*
X1818101D01*
X1818101Y1138532D01*
X1818101Y1134532D02*
X1818101Y1133776D01*
X1808101D02*
X1818101D01*
X1808101D02*
X1808101Y1134532D01*
X1813101Y1128276D02*
Y1133788D01*
X1808101Y1133032D02*
Y1133788D01*
X1818101D01*
Y1133032D02*
Y1133788D01*
Y1128276D02*
Y1129032D01*
X1808101Y1128276D02*
X1818101Y1128276D01*
X1808101Y1129032D02*
X1808101Y1128276D01*
X1801685Y1127102D02*
X1801685Y1125528D01*
X1788299D02*
X1801685D01*
X1788299Y1127102D02*
X1788299Y1125528D01*
Y1131039D02*
Y1132614D01*
X1801685D01*
X1801685Y1131039D02*
X1801685Y1132614D01*
X1794992Y1125528D02*
Y1132614D01*
X1607650Y825339D02*
Y832425D01*
X1600957Y825339D02*
Y826913D01*
Y825339D02*
X1614342D01*
Y826913D01*
Y830850D02*
Y832425D01*
X1600957D02*
X1614342D01*
X1600957Y830850D02*
Y832425D01*
X1481244Y1141323D02*
X1486756D01*
X1486000Y1146323D02*
X1486756D01*
Y1136323D02*
Y1146323D01*
X1486000Y1136323D02*
X1486756D01*
X1481244D02*
X1482000D01*
X1481244D02*
Y1146323D01*
X1482000D01*
X1470146Y964126D02*
Y965307D01*
Y964126D02*
X1481169D01*
Y965307D01*
Y968457D02*
Y969638D01*
X1470146D02*
X1481169D01*
X1470146Y968457D02*
Y969638D01*
X1475657Y964126D02*
Y969638D01*
X1692394Y1318055D02*
X1693343D01*
X1692394Y1300000D02*
Y1318055D01*
Y1300000D02*
X1692394Y1299500D01*
X1695000D01*
Y1300000D01*
X1692394D02*
X1695000D01*
X1697000D02*
X1699606D01*
X1697000Y1299500D02*
Y1300000D01*
Y1299500D02*
X1699606D01*
X1699606Y1300000D01*
Y1318055D01*
X1698657D02*
X1699606D01*
X1669350Y1308457D02*
Y1315543D01*
X1676043Y1313968D02*
Y1315543D01*
X1662658D02*
X1676043D01*
X1662658Y1313968D02*
X1662658Y1315543D01*
X1662658Y1310032D02*
X1662658Y1308457D01*
X1676043D01*
Y1310032D01*
X1352362Y1006457D02*
Y1007638D01*
X1341339D02*
X1352362D01*
X1341339Y1006457D02*
Y1007638D01*
Y1002126D02*
Y1003307D01*
Y1002126D02*
X1352362D01*
Y1003307D01*
X1346850Y1002126D02*
Y1007638D01*
X2033591Y999957D02*
Y1001138D01*
X2022567D02*
X2033591D01*
X2022567Y999957D02*
Y1001138D01*
Y995626D02*
Y996807D01*
Y995626D02*
X2033591D01*
Y996807D01*
X2028079Y995626D02*
Y1001138D01*
X1904862Y999957D02*
Y1001138D01*
X1893839D02*
X1904862D01*
X1893839Y999957D02*
Y1001138D01*
Y995626D02*
Y996807D01*
Y995626D02*
X1904862D01*
Y996807D01*
X1899351Y995626D02*
Y1001138D01*
X2033591Y1159957D02*
Y1161138D01*
X2022567D02*
X2033591D01*
X2022567Y1159957D02*
Y1161138D01*
Y1155626D02*
Y1156807D01*
Y1155626D02*
X2033591D01*
Y1156807D01*
X2028079Y1155626D02*
Y1161138D01*
X1899634Y1157957D02*
Y1159138D01*
X1888610D02*
X1899634D01*
X1888610Y1157957D02*
Y1159138D01*
Y1153626D02*
Y1154807D01*
Y1153626D02*
X1899634D01*
Y1154807D01*
X1894122Y1153626D02*
Y1159138D01*
X1352362Y980957D02*
Y982138D01*
X1341339D02*
X1352362D01*
X1341339Y980957D02*
Y982138D01*
Y976626D02*
Y977807D01*
Y976626D02*
X1352362D01*
Y977807D01*
X1346850Y976626D02*
Y982138D01*
X2033591Y974457D02*
Y975638D01*
X2022567D02*
X2033591D01*
X2022567Y974457D02*
Y975638D01*
Y970126D02*
Y971307D01*
Y970126D02*
X2033591D01*
Y971307D01*
X2028079Y970126D02*
Y975638D01*
X1904862Y974457D02*
Y975638D01*
X1893839D02*
X1904862D01*
X1893839Y974457D02*
Y975638D01*
Y970126D02*
Y971307D01*
Y970126D02*
X1904862D01*
Y971307D01*
X1899351Y970126D02*
Y975638D01*
X2033591Y1134457D02*
Y1135638D01*
X2022567D02*
X2033591D01*
X2022567Y1134457D02*
Y1135638D01*
Y1130126D02*
Y1131307D01*
Y1130126D02*
X2033591D01*
Y1131307D01*
X2028079Y1130126D02*
Y1135638D01*
X1899634Y1132457D02*
Y1133638D01*
X1888610D02*
X1899634D01*
X1888610Y1132457D02*
Y1133638D01*
Y1128126D02*
Y1129307D01*
Y1128126D02*
X1899634D01*
Y1129307D01*
X1894122Y1128126D02*
Y1133638D01*
X1352362Y999457D02*
Y1000638D01*
X1341339D02*
X1352362D01*
X1341339Y999457D02*
Y1000638D01*
Y995126D02*
Y996307D01*
Y995126D02*
X1352362D01*
Y996307D01*
X1346850Y995126D02*
Y1000638D01*
X2033591Y992957D02*
Y994138D01*
X2022567D02*
X2033591D01*
X2022567Y992957D02*
Y994138D01*
Y988626D02*
Y989807D01*
Y988626D02*
X2033591D01*
Y989807D01*
X2028079Y988626D02*
Y994138D01*
X1904862Y992957D02*
Y994138D01*
X1893839D02*
X1904862D01*
X1893839Y992957D02*
Y994138D01*
Y988626D02*
Y989807D01*
Y988626D02*
X1904862D01*
Y989807D01*
X1899351Y988626D02*
Y994138D01*
X2033591Y1152957D02*
Y1154138D01*
X2022567D02*
X2033591D01*
X2022567Y1152957D02*
Y1154138D01*
Y1148626D02*
Y1149807D01*
Y1148626D02*
X2033591D01*
Y1149807D01*
X2028079Y1148626D02*
Y1154138D01*
X1899634Y1150957D02*
Y1152138D01*
X1888610D02*
X1899634D01*
X1888610Y1150957D02*
Y1152138D01*
Y1146626D02*
Y1147807D01*
Y1146626D02*
X1899634D01*
Y1147807D01*
X1894122Y1146626D02*
Y1152138D01*
X1936862Y1083957D02*
Y1085138D01*
X1925839D02*
X1936862D01*
X1925839Y1083957D02*
Y1085138D01*
Y1079626D02*
Y1080807D01*
Y1079626D02*
X1936862D01*
Y1080807D01*
X1931350Y1079626D02*
Y1085138D01*
X1736870Y967795D02*
Y968976D01*
X1725846D02*
X1736870D01*
X1725846Y967795D02*
Y968976D01*
Y963465D02*
Y964646D01*
Y963465D02*
X1736870D01*
Y964646D01*
X1731358Y963465D02*
Y968976D01*
X1471661Y1139457D02*
Y1140638D01*
X1460638D02*
X1471661D01*
X1460638Y1139457D02*
Y1140638D01*
Y1135126D02*
Y1136307D01*
Y1135126D02*
X1471661D01*
Y1136307D01*
X1466150Y1135126D02*
Y1140638D01*
X1731661Y1115457D02*
Y1116638D01*
X1720638D02*
X1731661D01*
X1720638Y1115457D02*
Y1116638D01*
Y1111126D02*
Y1112307D01*
Y1111126D02*
X1731661D01*
Y1112307D01*
X1726150Y1111126D02*
Y1116638D01*
X1484408Y1013014D02*
X1485589D01*
Y1024038D01*
X1484408D02*
X1485589D01*
X1480077D02*
X1481259D01*
X1480077Y1013014D02*
Y1024038D01*
Y1013014D02*
X1481259D01*
X1480077Y1018526D02*
X1485589D01*
X1756701Y1109248D02*
Y1110429D01*
X1745677D02*
X1756701D01*
X1745677Y1109248D02*
Y1110429D01*
Y1104917D02*
Y1106098D01*
Y1104917D02*
X1756701D01*
Y1106098D01*
X1751189Y1104917D02*
Y1110429D01*
X1669350Y1300957D02*
Y1308043D01*
X1676043Y1306468D02*
Y1308043D01*
X1662658D02*
X1676043D01*
X1662658Y1306468D02*
X1662658Y1308043D01*
X1662658Y1302532D02*
X1662658Y1300957D01*
X1676043D01*
Y1302532D01*
X1719969Y1130575D02*
X1721543D01*
Y1117189D02*
Y1130575D01*
X1719969Y1117189D02*
X1721543D01*
X1714457D02*
X1716032D01*
X1714457D02*
Y1130575D01*
X1716032D01*
X1714457Y1123882D02*
X1721543D01*
X1601307Y1094351D02*
Y1095925D01*
X1614693D01*
Y1094351D02*
Y1095925D01*
Y1088838D02*
Y1090413D01*
X1601307Y1088838D02*
X1614693D01*
X1601307D02*
Y1090413D01*
X1608000Y1088838D02*
Y1095925D01*
X1614693Y1061839D02*
Y1063414D01*
X1601307Y1061839D02*
X1614693D01*
X1601307D02*
Y1063414D01*
Y1067350D02*
Y1068925D01*
X1614693D01*
Y1067350D02*
Y1068925D01*
X1608000Y1061839D02*
Y1068925D01*
X1602331Y1054063D02*
Y1054850D01*
X1610205D01*
Y1054063D02*
Y1054850D01*
Y1050914D02*
Y1051701D01*
X1602331Y1050914D02*
X1610205D01*
X1602331D02*
Y1051701D01*
X1699307Y1042350D02*
Y1043925D01*
X1712693D01*
Y1042350D02*
Y1043925D01*
Y1036839D02*
Y1038414D01*
X1699307Y1036839D02*
X1712693D01*
X1699307D02*
Y1038414D01*
X1706000Y1036839D02*
Y1043925D01*
X1630437Y1136913D02*
Y1137701D01*
X1622563Y1136913D02*
X1630437D01*
X1622563D02*
Y1137701D01*
Y1140063D02*
Y1140851D01*
X1630437D01*
Y1140063D02*
Y1140851D01*
X1614705Y1096414D02*
Y1097201D01*
X1606831Y1096414D02*
X1614705D01*
X1606831D02*
Y1097201D01*
Y1099563D02*
Y1100350D01*
X1614705D01*
Y1099563D02*
Y1100350D01*
X1615726Y1060347D02*
X1616513D01*
Y1052472D02*
Y1060347D01*
X1615726Y1052472D02*
X1616513D01*
X1612576D02*
X1613364D01*
X1612576D02*
Y1060347D01*
X1613364D01*
X1651563Y1140063D02*
Y1140851D01*
X1659437D01*
Y1140063D02*
Y1140851D01*
Y1136913D02*
Y1137701D01*
X1651563Y1136913D02*
X1659437D01*
X1651563D02*
Y1137701D01*
X1671563Y1140063D02*
Y1140851D01*
X1679437D01*
Y1140063D02*
Y1140851D01*
Y1136913D02*
Y1137701D01*
X1671563Y1136913D02*
X1679437D01*
X1671563D02*
Y1137701D01*
X1713181Y1127551D02*
X1713969Y1127551D01*
Y1119677D02*
Y1127551D01*
X1713181Y1119677D02*
X1713969D01*
X1710032D02*
X1710819D01*
X1710032D02*
Y1127551D01*
X1710819Y1127551D01*
X1713681Y1079087D02*
X1714469D01*
Y1071213D02*
Y1079087D01*
X1713681Y1071213D02*
X1714469D01*
X1710532D02*
X1711319D01*
X1710532D02*
Y1079087D01*
X1711319D01*
X1707032Y1044177D02*
X1707819D01*
X1707032D02*
Y1052051D01*
X1707819D01*
X1710181D02*
X1710969D01*
Y1044177D02*
Y1052051D01*
X1710181Y1044177D02*
X1710969D01*
X1681195Y1041563D02*
Y1042350D01*
X1673320D02*
X1681195D01*
X1673320Y1041563D02*
Y1042350D01*
Y1038414D02*
Y1039201D01*
Y1038414D02*
X1681195D01*
Y1039201D01*
X1661937Y1038414D02*
Y1039201D01*
X1654063Y1038414D02*
X1661937D01*
X1654063D02*
Y1039201D01*
Y1041563D02*
Y1042350D01*
X1661937D01*
Y1041563D02*
Y1042350D01*
X1635705Y1038414D02*
Y1039201D01*
X1627831Y1038414D02*
X1635705D01*
X1627831D02*
Y1039201D01*
Y1041563D02*
Y1042350D01*
X1635705D01*
Y1041563D02*
Y1042350D01*
X1619532Y970087D02*
X1620319D01*
X1619532Y962213D02*
Y970087D01*
Y962213D02*
X1620319D01*
X1622681D02*
X1623469D01*
Y970087D01*
X1622681D02*
X1623469D01*
X1662532D02*
X1663319D01*
X1662532Y962213D02*
Y970087D01*
Y962213D02*
X1663319D01*
X1665681D02*
X1666469D01*
Y970087D01*
X1665681D02*
X1666469D01*
X1671681Y962213D02*
X1672469D01*
Y970087D01*
X1671681D02*
X1672469D01*
X1668532D02*
X1669319D01*
X1668532Y962213D02*
Y970087D01*
Y962213D02*
X1669319D01*
X1676532Y970087D02*
X1677319D01*
X1676532Y962213D02*
Y970087D01*
Y962213D02*
X1677319D01*
X1679681D02*
X1680469D01*
Y970087D01*
X1679681D02*
X1680469D01*
X1689181Y962213D02*
X1689969D01*
Y970087D01*
X1689181D02*
X1689969D01*
X1686032D02*
X1686819D01*
X1686032Y962213D02*
Y970087D01*
Y962213D02*
X1686819D01*
X1695532Y970087D02*
X1696319D01*
X1695532Y962213D02*
Y970087D01*
Y962213D02*
X1696319D01*
X1698681D02*
X1699469D01*
Y970087D01*
X1698681D02*
X1699469D01*
X1702071D02*
X1702858D01*
X1702071Y962213D02*
Y970087D01*
Y962213D02*
X1702858D01*
X1705220D02*
X1706008D01*
Y970087D01*
X1705220D02*
X1706008D01*
X1615831Y1030914D02*
Y1031701D01*
Y1030914D02*
X1623705D01*
Y1031701D01*
Y1034063D02*
Y1034851D01*
X1615831D02*
X1623705D01*
X1615831Y1034063D02*
Y1034851D01*
X1656331Y1030914D02*
Y1031701D01*
Y1030914D02*
X1664205D01*
Y1031701D01*
Y1034063D02*
Y1034851D01*
X1656331D02*
X1664205D01*
X1656331Y1034063D02*
Y1034851D01*
X1673331Y1030914D02*
Y1031701D01*
Y1030914D02*
X1681205D01*
Y1031701D01*
Y1034063D02*
Y1034851D01*
X1673331D02*
X1681205D01*
X1673331Y1034063D02*
Y1034851D01*
X1684295Y1030914D02*
Y1031701D01*
Y1030914D02*
X1692169D01*
Y1031701D01*
Y1034063D02*
Y1034851D01*
X1684295D02*
X1692169D01*
X1684295Y1034063D02*
Y1034851D01*
X1700669Y1034063D02*
Y1034851D01*
X1692795D02*
X1700669D01*
X1692795Y1034063D02*
Y1034851D01*
Y1030914D02*
Y1031701D01*
Y1030914D02*
X1700669D01*
Y1031701D01*
X1709169Y1034063D02*
Y1034851D01*
X1701295D02*
X1709169D01*
X1701295Y1034063D02*
Y1034851D01*
Y1030914D02*
Y1031701D01*
Y1030914D02*
X1709169D01*
Y1031701D01*
X1672705Y1034063D02*
Y1034851D01*
X1664831D02*
X1672705D01*
X1664831Y1034063D02*
Y1034851D01*
Y1030914D02*
Y1031701D01*
Y1030914D02*
X1672705D01*
Y1031701D01*
X1606500Y1055626D02*
Y1061138D01*
X1601500Y1060382D02*
Y1061138D01*
X1611500D01*
Y1060382D02*
Y1061138D01*
Y1055626D02*
Y1056382D01*
X1601500Y1055626D02*
X1611500D01*
X1601500D02*
Y1056382D01*
X1655441Y963626D02*
Y969138D01*
X1660441Y963626D02*
Y964382D01*
X1650441Y963626D02*
X1660441D01*
X1650441D02*
Y964382D01*
Y968382D02*
Y969138D01*
X1660441D01*
Y968382D02*
Y969138D01*
X1644323Y963626D02*
Y969138D01*
X1639323Y968382D02*
Y969138D01*
X1649323D01*
Y968382D02*
Y969138D01*
Y963626D02*
Y964382D01*
X1639323Y963626D02*
X1649323D01*
X1639323D02*
Y964382D01*
X1718453Y972402D02*
X1719209D01*
X1718453Y962401D02*
Y972402D01*
Y962401D02*
X1719209D01*
X1723209D02*
X1723965D01*
Y972402D01*
X1723209D02*
X1723965D01*
X1718453Y967402D02*
X1723965D01*
X1711953Y972279D02*
X1712709D01*
X1711953Y962280D02*
Y972279D01*
Y962280D02*
X1712709D01*
X1716709D02*
X1717465D01*
Y972279D01*
X1716709D02*
X1717465D01*
X1711953Y967280D02*
X1717465D01*
X1601492Y1119434D02*
X1608579D01*
X1607004Y1112741D02*
X1608579D01*
Y1126127D01*
X1607004D02*
X1608579D01*
X1601492D02*
X1603067D01*
X1601492Y1112741D02*
Y1126127D01*
Y1112741D02*
X1603067D01*
X1609165Y1112677D02*
X1610740D01*
X1609165D02*
Y1126063D01*
X1610740Y1126063D01*
X1614677D02*
X1616252Y1126063D01*
Y1112677D02*
Y1126063D01*
X1614677Y1112677D02*
X1616252D01*
X1609165Y1119370D02*
X1616252D01*
X2081059Y1060626D02*
Y1061382D01*
Y1060626D02*
X2091059Y1060626D01*
Y1061382D01*
Y1065382D02*
Y1066138D01*
X2081059Y1066138D02*
X2091059Y1066138D01*
X2081059Y1065382D02*
Y1066138D01*
X2086059Y1060626D02*
Y1066138D01*
X2081059Y1055126D02*
Y1055882D01*
Y1055126D02*
X2091059Y1055126D01*
Y1055882D01*
Y1059882D02*
Y1060638D01*
X2081059Y1060638D02*
X2091059Y1060638D01*
X2081059Y1059882D02*
Y1060638D01*
X2086059Y1055126D02*
Y1060638D01*
X1895941Y1002126D02*
Y1002882D01*
Y1002126D02*
X1905941D01*
Y1002882D01*
Y1006882D02*
Y1007638D01*
X1895941D02*
X1905941D01*
X1895941Y1006882D02*
Y1007638D01*
X1900941Y1002126D02*
Y1007638D01*
X1895941Y982126D02*
Y982882D01*
Y982126D02*
X1905941D01*
Y982882D01*
Y986882D02*
Y987638D01*
X1895941D02*
X1905941D01*
X1895941Y986882D02*
Y987638D01*
X1900941Y982126D02*
Y987638D01*
X1895941Y976626D02*
Y977382D01*
Y976626D02*
X1905941D01*
Y977382D01*
Y981382D02*
Y982138D01*
X1895941D02*
X1905941D01*
X1895941Y981382D02*
Y982138D01*
X1900941Y976626D02*
Y982138D01*
X2046559Y931626D02*
Y932382D01*
Y931626D02*
X2056559Y931626D01*
Y932382D01*
Y936382D02*
Y937138D01*
X2046559Y937138D02*
X2056559Y937138D01*
X2046559Y936382D02*
Y937138D01*
X2051559Y931626D02*
Y937138D01*
X2002559Y874382D02*
Y875138D01*
X1992559D02*
X2002559D01*
X1992559Y874382D02*
Y875138D01*
Y869626D02*
Y870382D01*
Y869626D02*
X2002559D01*
Y870382D01*
X1997559Y869626D02*
Y875138D01*
X2002559Y879882D02*
Y880638D01*
X1992559D02*
X2002559D01*
X1992559Y879882D02*
Y880638D01*
Y875126D02*
Y875882D01*
Y875126D02*
X2002559D01*
Y875882D01*
X1997559Y875126D02*
Y880638D01*
X2002559Y885382D02*
Y886138D01*
X1992559D02*
X2002559D01*
X1992559Y885382D02*
Y886138D01*
Y880626D02*
Y881382D01*
Y880626D02*
X2002559D01*
Y881382D01*
X1997559Y880626D02*
Y886138D01*
X2046559Y937126D02*
Y937882D01*
Y937126D02*
X2056559Y937126D01*
Y937882D01*
Y941882D02*
Y942638D01*
X2046559Y942638D02*
X2056559Y942638D01*
X2046559Y941882D02*
Y942638D01*
X2051559Y937126D02*
Y942638D01*
X1704000Y847126D02*
Y847882D01*
Y847126D02*
X1714000Y847126D01*
X1714000Y847882D01*
X1714000Y851882D02*
X1714000Y852638D01*
X1704000Y852638D02*
X1714000Y852638D01*
X1704000Y851882D02*
Y852638D01*
X1709000Y847126D02*
Y852638D01*
X1704000Y852626D02*
Y853382D01*
Y852626D02*
X1714000Y852626D01*
Y853382D01*
Y857382D02*
Y858138D01*
X1704000Y858138D02*
X1714000Y858138D01*
X1704000Y857382D02*
Y858138D01*
X1709000Y852626D02*
Y858138D01*
X1932208Y1068437D02*
Y1072437D01*
X1936708Y1068437D02*
Y1068937D01*
X1927708Y1068437D02*
X1936708Y1068437D01*
X1927708Y1068437D02*
Y1068937D01*
Y1071937D02*
Y1072437D01*
X1936708Y1072437D01*
Y1071937D02*
Y1072437D01*
X2061500Y958441D02*
X2062256D01*
Y968441D01*
X2061500D02*
X2062256D01*
X2056744D02*
X2057500D01*
X2056744Y958441D02*
Y968441D01*
Y958441D02*
X2057500D01*
X2056744Y963441D02*
X2062256D01*
X1928500Y958382D02*
X1929256D01*
X1929256Y968382D02*
X1929256Y958382D01*
X1928500Y968382D02*
X1929256D01*
X1923744D02*
X1924500D01*
X1923744Y958382D02*
X1923744Y968382D01*
X1923744Y958382D02*
X1924500D01*
X1923744Y963382D02*
X1929256D01*
X1380000Y963882D02*
X1380756D01*
Y973882D01*
X1380000D02*
X1380756D01*
X1375244D02*
X1376000D01*
X1375244Y963882D02*
Y973882D01*
Y963882D02*
X1376000D01*
X1375244Y968882D02*
X1380756D01*
X2050500Y958441D02*
X2051256D01*
Y968441D01*
X2050500D02*
X2051256D01*
X2045744D02*
X2046500D01*
X2045744Y958441D02*
Y968441D01*
Y958441D02*
X2046500D01*
X2045744Y963441D02*
X2051256D01*
X1917500Y958382D02*
X1918256D01*
X1918256Y968382D01*
X1917500Y968382D02*
X1918256Y968382D01*
X1912744Y968382D02*
X1913500Y968382D01*
X1912744Y958382D02*
Y968382D01*
Y958382D02*
X1913500D01*
X1912744Y963382D02*
X1918256D01*
X1369000Y963882D02*
X1369756Y963882D01*
Y973882D01*
X1369000D02*
X1369756D01*
X1364244D02*
X1365000D01*
X1364244Y963882D02*
Y973882D01*
Y963882D02*
X1365000Y963882D01*
X1364244Y968882D02*
X1369756D01*
X2056000Y958441D02*
X2056756D01*
Y968441D01*
X2056000D02*
X2056756D01*
X2051244D02*
X2052000D01*
X2051244Y958441D02*
Y968441D01*
Y958441D02*
X2052000D01*
X2051244Y963441D02*
X2056756D01*
X1923000Y958382D02*
X1923756D01*
Y968382D01*
X1923000Y968382D02*
X1923756Y968382D01*
X1918244Y968382D02*
X1919000Y968382D01*
X1918244Y968382D02*
X1918244Y958382D01*
X1919000D01*
X1918244Y963382D02*
X1923756D01*
X1374500Y963882D02*
X1375256Y963882D01*
Y973882D01*
X1374500D02*
X1375256D01*
X1369744D02*
X1370500D01*
X1369744Y963882D02*
Y973882D01*
Y963882D02*
X1370500Y963882D01*
X1369744Y968882D02*
X1375256D01*
X2073500Y1097441D02*
X2074256D01*
Y1107441D01*
X2073500D02*
X2074256D01*
X2068744D02*
X2069500D01*
X2068744Y1097441D02*
Y1107441D01*
Y1097441D02*
X2069500D01*
X2068744Y1102441D02*
X2074256D01*
X1928000Y1115882D02*
X1928756D01*
Y1125882D01*
X1928000D02*
X1928756D01*
X1923244D02*
X1924000D01*
X1923244Y1115882D02*
Y1125882D01*
Y1115882D02*
X1924000D01*
X1923244Y1120882D02*
X1928756D01*
X2079000Y1097441D02*
X2079756D01*
Y1107441D01*
X2079000D02*
X2079756D01*
X2074244D02*
X2075000D01*
X2074244Y1097441D02*
Y1107441D01*
Y1097441D02*
X2075000D01*
X2074244Y1102441D02*
X2079756D01*
X1917000Y1115941D02*
X1917756D01*
Y1125941D01*
X1917000D02*
X1917756D01*
X1912244D02*
X1913000D01*
X1912244Y1115941D02*
Y1125941D01*
Y1115941D02*
X1913000D01*
X1912244Y1120941D02*
X1917756D01*
X2084500Y1097441D02*
X2085256D01*
Y1107441D01*
X2084500D02*
X2085256D01*
X2079744D02*
X2080500D01*
X2079744Y1097441D02*
Y1107441D01*
Y1097441D02*
X2080500D01*
X2079744Y1102441D02*
X2085256D01*
X1922500Y1115941D02*
X1923256D01*
Y1125941D01*
X1922500D02*
X1923256D01*
X1917744D02*
X1918500D01*
X1917744Y1115941D02*
Y1125941D01*
Y1115941D02*
X1918500D01*
X1917744Y1120941D02*
X1923256D01*
X1600457Y1199350D02*
X1600457Y1200925D01*
X1613843Y1200925D01*
X1613843Y1199350D01*
X1613843Y1193839D02*
Y1195413D01*
X1600457Y1193839D02*
X1613843D01*
X1600457Y1195413D02*
X1600457Y1193839D01*
X1607150Y1200925D02*
X1607150Y1193839D01*
X1627457Y1152339D02*
X1629032D01*
X1627457D02*
Y1165724D01*
X1629032D01*
X1632969Y1165724D02*
X1634543Y1165724D01*
Y1152339D02*
Y1165724D01*
X1632969Y1152339D02*
X1634543Y1152339D01*
X1627457Y1159031D02*
X1634543D01*
X1348441Y988626D02*
Y994138D01*
X1343441Y993382D02*
Y994138D01*
X1353441D01*
Y993382D02*
Y994138D01*
Y988626D02*
Y989382D01*
X1343441Y988626D02*
X1353441D01*
X1343441D02*
Y989382D01*
X1348441Y983126D02*
Y988638D01*
X1343441Y987882D02*
Y988638D01*
X1353441D01*
Y987882D02*
Y988638D01*
Y983126D02*
Y983882D01*
X1343441Y983126D02*
X1353441D01*
X1343441D02*
Y983882D01*
X1348441Y1008626D02*
Y1014138D01*
X1343441Y1013382D02*
Y1014138D01*
X1353441D01*
Y1013382D02*
Y1014138D01*
Y1008626D02*
Y1009382D01*
X1343441Y1008626D02*
X1353441D01*
X1343441D02*
Y1009382D01*
X2029669Y982126D02*
Y987638D01*
X2024669Y986882D02*
Y987638D01*
X2034669D01*
Y986882D02*
Y987638D01*
Y982126D02*
Y982882D01*
X2024669Y982126D02*
X2034669D01*
X2024669D02*
Y982882D01*
X2029669Y976626D02*
Y982138D01*
X2024669Y981382D02*
Y982138D01*
X2034669D01*
Y981382D02*
Y982138D01*
Y976626D02*
Y977382D01*
X2024669Y976626D02*
X2034669D01*
X2024669D02*
Y977382D01*
X2029669Y1002126D02*
Y1007638D01*
X2024669Y1006882D02*
Y1007638D01*
X2034669D01*
Y1006882D02*
Y1007638D01*
Y1002126D02*
Y1002882D01*
X2024669Y1002126D02*
X2034669D01*
X2024669D02*
Y1002882D01*
X2029669Y1142126D02*
Y1147638D01*
X2024669Y1146882D02*
Y1147638D01*
X2034669D01*
Y1146882D02*
Y1147638D01*
Y1142126D02*
Y1142882D01*
X2024669Y1142126D02*
X2034669D01*
X2024669D02*
Y1142882D01*
X2029669Y1136626D02*
Y1142138D01*
X2024669Y1141382D02*
Y1142138D01*
X2034669D01*
Y1141382D02*
Y1142138D01*
Y1136626D02*
Y1137382D01*
X2024669Y1136626D02*
X2034669D01*
X2024669D02*
Y1137382D01*
X2029669Y1162126D02*
Y1167638D01*
X2024669Y1166882D02*
Y1167638D01*
X2034669D01*
Y1166882D02*
Y1167638D01*
Y1162126D02*
Y1162882D01*
X2024669Y1162126D02*
X2034669D01*
X2024669D02*
Y1162882D01*
X1895713Y1140126D02*
Y1145638D01*
X1890713Y1144882D02*
Y1145638D01*
X1900713D01*
Y1144882D02*
Y1145638D01*
Y1140126D02*
Y1140882D01*
X1890713Y1140126D02*
X1900713D01*
X1890713D02*
Y1140882D01*
X1895713Y1134626D02*
Y1140138D01*
X1890713Y1139382D02*
Y1140138D01*
X1900713D01*
Y1139382D02*
Y1140138D01*
Y1134626D02*
Y1135382D01*
X1890713Y1134626D02*
X1900713D01*
X1890713D02*
Y1135382D01*
X1895713Y1160126D02*
Y1165638D01*
X1890713Y1164882D02*
Y1165638D01*
X1900713D01*
Y1164882D02*
Y1165638D01*
Y1160126D02*
Y1160882D01*
X1890713Y1160126D02*
X1900713D01*
X1890713D02*
Y1160882D01*
X1576207Y1043794D02*
X1576995D01*
X1576207D02*
Y1051668D01*
X1576995D01*
X1579357D02*
X1580144D01*
Y1043794D02*
Y1051668D01*
X1579357Y1043794D02*
X1580144D01*
X1576176Y1036420D02*
Y1043506D01*
X1569483Y1036420D02*
Y1037994D01*
Y1036420D02*
X1582869D01*
Y1037994D01*
Y1041932D02*
Y1043506D01*
X1569483D02*
X1582869D01*
X1569483Y1041932D02*
Y1043506D01*
X1578345Y1030494D02*
Y1031282D01*
X1570471Y1030494D02*
X1578345D01*
X1570471D02*
Y1031282D01*
Y1033644D02*
Y1034431D01*
X1578345D01*
Y1033644D02*
Y1034431D01*
X1561345Y1030494D02*
Y1031282D01*
X1553471Y1030494D02*
X1561345D01*
X1553471D02*
Y1031282D01*
Y1033644D02*
Y1034431D01*
X1561345D01*
Y1033644D02*
Y1034431D01*
X1569845Y1030494D02*
Y1031282D01*
X1561971Y1030494D02*
X1569845D01*
X1561971D02*
Y1031282D01*
Y1033644D02*
Y1034431D01*
X1569845D01*
Y1033644D02*
Y1034431D01*
X1542507Y1033644D02*
Y1034431D01*
X1550381D01*
Y1033644D02*
Y1034431D01*
Y1030494D02*
Y1031282D01*
X1542507Y1030494D02*
X1550381D01*
X1542507D02*
Y1031282D01*
X1571247Y969668D02*
X1572034D01*
X1571247Y961794D02*
Y969668D01*
Y961794D02*
X1572034D01*
X1574396D02*
X1575184D01*
Y969668D01*
X1574396D02*
X1575184D01*
X1567857D02*
X1568644D01*
Y961794D02*
Y969668D01*
X1567857Y961794D02*
X1568644D01*
X1564707D02*
X1565495D01*
X1564707D02*
Y969668D01*
X1565495D01*
X1555207Y961794D02*
X1555995D01*
X1555207D02*
Y969668D01*
X1555995D01*
X1558357D02*
X1559144D01*
Y961794D02*
Y969668D01*
X1558357Y961794D02*
X1559144D01*
X1529617Y968061D02*
Y968817D01*
X1519617D02*
X1529617D01*
X1519617Y968061D02*
Y968817D01*
Y963305D02*
Y964061D01*
Y963305D02*
X1529617D01*
Y964061D01*
X1524617Y963305D02*
Y968817D01*
X1534857Y969668D02*
X1535644D01*
Y961794D02*
Y969668D01*
X1534857Y961794D02*
X1535644D01*
X1531707D02*
X1532495D01*
X1531707D02*
Y969668D01*
X1532495D01*
X1537707Y961794D02*
X1538495D01*
X1537707D02*
Y969668D01*
X1538495D01*
X1540857D02*
X1541644D01*
Y961794D02*
Y969668D01*
X1540857Y961794D02*
X1541644D01*
X1548857Y969668D02*
X1549644D01*
Y961794D02*
Y969668D01*
X1548857Y961794D02*
X1549644D01*
X1545707D02*
X1546495D01*
X1545707D02*
Y969668D01*
X1546495D01*
X1550613Y1037994D02*
Y1038782D01*
X1542739Y1037994D02*
X1550613D01*
X1542739D02*
Y1038782D01*
Y1041144D02*
Y1041932D01*
X1550613D01*
Y1041144D02*
Y1041932D01*
X1531113Y1037994D02*
Y1038782D01*
X1523239Y1037994D02*
X1531113D01*
X1523239D02*
Y1038782D01*
Y1041144D02*
Y1041932D01*
X1531113D01*
Y1041144D02*
Y1041932D01*
X1525501Y1030494D02*
Y1031282D01*
Y1030494D02*
X1533375D01*
Y1031282D01*
Y1033644D02*
Y1034431D01*
X1525501D02*
X1533375D01*
X1525501Y1033644D02*
Y1034431D01*
X1541770Y1033707D02*
Y1034494D01*
X1533896D02*
X1541770D01*
X1533896Y1033707D02*
Y1034494D01*
Y1030558D02*
Y1031345D01*
Y1030558D02*
X1541770D01*
Y1031345D01*
X1582955Y1078671D02*
X1583743D01*
Y1070797D02*
Y1078671D01*
X1582955Y1070797D02*
X1583743D01*
X1579806D02*
X1580593D01*
X1579806D02*
Y1078671D01*
X1580593D01*
X1583790Y1109333D02*
X1585365D01*
X1583790D02*
Y1122719D01*
X1585365D01*
X1589302D02*
X1590877D01*
Y1109333D02*
Y1122719D01*
X1589302Y1109333D02*
X1590877D01*
X1583790Y1116026D02*
X1590877D01*
X1582357Y1127132D02*
X1583144D01*
Y1119258D02*
Y1127132D01*
X1582357Y1119258D02*
X1583144D01*
X1579207D02*
X1579995D01*
X1579207D02*
Y1127132D01*
X1579995D01*
X1500329Y1136719D02*
Y1137506D01*
X1492455Y1136719D02*
X1500329D01*
X1492455D02*
Y1137506D01*
Y1139869D02*
Y1140656D01*
X1500329D01*
Y1139869D02*
Y1140656D01*
X1470272Y1093937D02*
Y1095512D01*
X1483658D01*
Y1093937D02*
Y1095512D01*
Y1088426D02*
Y1090000D01*
X1470272Y1088426D02*
X1483658D01*
X1470272D02*
Y1090000D01*
X1476965Y1088426D02*
Y1095512D01*
X1471507Y1053644D02*
Y1054432D01*
X1479381D01*
Y1053644D02*
Y1054432D01*
Y1050494D02*
Y1051282D01*
X1471507Y1050494D02*
X1479381D01*
X1471507D02*
Y1051282D01*
X1477011Y1061432D02*
Y1068518D01*
X1483704Y1066943D02*
Y1068518D01*
X1470319D02*
X1483704D01*
X1470319Y1066943D02*
Y1068518D01*
Y1061432D02*
Y1063006D01*
Y1061432D02*
X1483704D01*
Y1063006D01*
X1485007Y1033644D02*
Y1034431D01*
X1492881D01*
Y1033644D02*
Y1034431D01*
Y1030494D02*
Y1031282D01*
X1485007Y1030494D02*
X1492881D01*
X1485007D02*
Y1031282D01*
X1504881Y1037994D02*
Y1038782D01*
X1497007Y1037994D02*
X1504881D01*
X1497007D02*
Y1038782D01*
Y1041144D02*
Y1041932D01*
X1504881D01*
Y1041144D02*
Y1041932D01*
X1484902Y1059927D02*
X1485689D01*
Y1052054D02*
Y1059927D01*
X1484902Y1052054D02*
X1485689D01*
X1481752D02*
X1482539D01*
X1481752D02*
Y1059927D01*
X1482539D01*
X1470676Y1055207D02*
Y1055963D01*
Y1055207D02*
X1480676D01*
Y1055963D01*
Y1059963D02*
Y1060719D01*
X1470676D02*
X1480676D01*
X1470676Y1059963D02*
Y1060719D01*
X1475676Y1055207D02*
Y1060719D01*
X1480865Y1096089D02*
X1481652D01*
X1480865D02*
Y1103963D01*
X1481652D01*
X1484014D02*
X1484802D01*
Y1096089D02*
Y1103963D01*
X1484014Y1096089D02*
X1484802D01*
X1540420Y1139869D02*
Y1140656D01*
X1548294D01*
Y1139869D02*
Y1140656D01*
Y1136719D02*
Y1137506D01*
X1540420Y1136719D02*
X1548294D01*
X1540420D02*
Y1137506D01*
X1520920Y1139869D02*
Y1140656D01*
X1528794D01*
Y1139869D02*
Y1140656D01*
Y1136719D02*
Y1137506D01*
X1520920Y1136719D02*
X1528794D01*
X1520920D02*
Y1137506D01*
X1491899Y969710D02*
X1492687D01*
Y961836D02*
Y969710D01*
X1491899Y961836D02*
X1492687D01*
X1488750D02*
X1489537D01*
X1488750D02*
Y969710D01*
X1489537D01*
X1513499Y963404D02*
Y968916D01*
X1508499Y968160D02*
Y968916D01*
X1518499D01*
Y968160D02*
Y968916D01*
Y963404D02*
Y964160D01*
X1508499Y963404D02*
X1518499D01*
X1508499D02*
Y964160D01*
X1457577Y971967D02*
X1458333D01*
X1457577Y961967D02*
Y971967D01*
Y961967D02*
X1458333D01*
X1462333D02*
X1463089D01*
Y971967D01*
X1462333D02*
X1463089D01*
X1457577Y966967D02*
X1463089D01*
X1464077Y971967D02*
X1464833D01*
X1464077Y961967D02*
Y971967D01*
Y961967D02*
X1464833D01*
X1468833D02*
X1469589D01*
Y971967D01*
X1468833D02*
X1469589D01*
X1464077Y966967D02*
X1469589D01*
D17*
X1840261Y1120412D02*
X1840261Y1112538D01*
X1831600D02*
Y1120412D01*
X1832978Y1115491D02*
X1838686D01*
X1838686Y1115491D02*
X1838686Y1116081D01*
X1838489D02*
X1838686D01*
X1832978D02*
X1838489D01*
X1832978Y1115491D02*
Y1116081D01*
Y1017231D02*
Y1017822D01*
X1838489D01*
X1838686D01*
X1838686Y1017231D02*
X1838686Y1017822D01*
X1832978Y1017231D02*
X1838686D01*
X1831600Y1014279D02*
Y1022153D01*
X1840261Y1022153D02*
X1840261Y1014279D01*
X1707216Y912468D02*
X1707806D01*
Y906956D02*
Y912468D01*
Y906760D02*
Y906956D01*
X1707216Y906760D02*
X1707806Y906760D01*
X1707216Y906759D02*
Y912468D01*
X1704263Y913846D02*
X1712137D01*
X1704263Y905185D02*
X1712137Y905185D01*
X1582548Y912468D02*
X1583138D01*
Y906956D02*
Y912468D01*
Y906760D02*
Y906956D01*
X1582548Y906760D02*
X1583138Y906760D01*
X1582548Y906759D02*
Y912468D01*
X1579595Y913846D02*
X1587469D01*
X1579595Y905185D02*
X1587469Y905185D01*
X2118859Y912468D02*
X2119450D01*
Y906956D02*
Y912468D01*
Y906760D02*
Y906956D01*
X2118859Y906760D02*
X2119450Y906760D01*
X2118859Y906759D02*
Y912468D01*
X2115906Y913846D02*
X2123780D01*
X2115906Y905185D02*
X2123780Y905185D01*
X2036182Y912468D02*
X2036773D01*
Y906956D02*
Y912468D01*
Y906760D02*
Y906956D01*
X2036182Y906760D02*
X2036773Y906760D01*
X2036182Y906759D02*
Y912468D01*
X2033229Y913846D02*
X2041103D01*
X2033229Y905185D02*
X2041103Y905185D01*
X1953671Y912468D02*
X1954261D01*
Y906956D02*
Y912468D01*
Y906760D02*
Y906956D01*
X1953671Y906760D02*
X1954261Y906760D01*
X1953671Y906759D02*
Y912468D01*
X1950718Y913846D02*
X1958592D01*
X1950718Y905185D02*
X1958592Y905185D01*
X2030930Y1213225D02*
X2038804D01*
X2030930Y1204564D02*
X2038804Y1204564D01*
X2035851Y1205942D02*
Y1211650D01*
X2035261Y1211650D02*
X2035851D01*
X2035261Y1211453D02*
Y1211650D01*
X2035261Y1205942D02*
X2035261Y1211453D01*
X2035261Y1205942D02*
X2035851D01*
X2125418Y1213225D02*
X2133292D01*
X2125418Y1204564D02*
X2133292Y1204564D01*
X2130340Y1205942D02*
Y1211650D01*
X2129749Y1211650D02*
X2130340D01*
X2129749Y1211453D02*
X2129749Y1211650D01*
X2129749Y1205942D02*
Y1211453D01*
Y1205942D02*
X2130340D01*
X2078174Y1213225D02*
X2086048Y1213225D01*
X2078174Y1204564D02*
X2086048D01*
X2083096Y1205942D02*
Y1211650D01*
X2082505Y1211650D02*
X2083096Y1211650D01*
X2082505Y1211453D02*
Y1211650D01*
Y1205942D02*
Y1211453D01*
Y1205942D02*
X2083096D01*
X1889198Y1213225D02*
X1897072D01*
X1889198Y1204564D02*
X1897072D01*
X1894119Y1205942D02*
Y1211650D01*
X1893529Y1211650D02*
X1894119D01*
X1893529Y1211453D02*
X1893529Y1211650D01*
X1893529Y1205942D02*
Y1211453D01*
Y1205942D02*
X1894119Y1205942D01*
X1936442Y1213225D02*
X1944316D01*
X1936442Y1204564D02*
X1944316Y1204564D01*
X1941363Y1205942D02*
Y1211650D01*
X1940773Y1211650D02*
X1941363D01*
X1940773Y1211453D02*
X1940773Y1211650D01*
X1940773Y1205942D02*
Y1211453D01*
Y1205942D02*
X1941363Y1205942D01*
X1983686Y1213225D02*
X1991560D01*
X1983686Y1204564D02*
X1991560D01*
X1988607Y1205942D02*
Y1211650D01*
X1988017Y1211650D02*
X1988607Y1211650D01*
X1988017Y1211453D02*
X1988017Y1211650D01*
X1988017Y1205942D02*
Y1211453D01*
Y1205942D02*
X1988607Y1205942D01*
X1841954Y1213225D02*
X1849828Y1213225D01*
X1841954Y1204564D02*
X1849828D01*
X1846875Y1205942D02*
Y1211650D01*
X1846285Y1211650D02*
X1846875Y1211650D01*
X1846285Y1211453D02*
Y1211650D01*
Y1205942D02*
Y1211453D01*
Y1205942D02*
X1846875D01*
X1747466Y1213225D02*
X1755340D01*
X1747466Y1204564D02*
X1755340D01*
X1752387Y1205942D02*
Y1211650D01*
X1751796Y1211650D02*
X1752387D01*
X1751796Y1211453D02*
X1751796Y1211650D01*
X1751796Y1205942D02*
Y1211453D01*
Y1205942D02*
X1752387Y1205942D01*
X1511245Y1213225D02*
X1519119D01*
X1511245Y1204564D02*
X1519119Y1204564D01*
X1516166Y1205942D02*
Y1211650D01*
X1515576Y1211650D02*
X1516166Y1211650D01*
X1515576Y1211453D02*
X1515576Y1211650D01*
X1515576Y1205942D02*
Y1211453D01*
Y1205942D02*
X1516166Y1205942D01*
X1558489Y1213225D02*
X1566363D01*
X1558489Y1204564D02*
X1566363Y1204564D01*
X1563410Y1205942D02*
Y1211650D01*
X1562820Y1211650D02*
X1563410D01*
X1562820Y1211453D02*
X1562820Y1211650D01*
X1562820Y1205942D02*
Y1211453D01*
Y1205942D02*
X1563410Y1205942D01*
X1700222Y1213225D02*
X1708096D01*
X1700222Y1204564D02*
X1708096Y1204564D01*
X1705143Y1205942D02*
Y1211650D01*
X1704552Y1211650D02*
X1705143D01*
X1704552Y1211453D02*
X1704552Y1211650D01*
X1704552Y1205942D02*
Y1211453D01*
Y1205942D02*
X1705143Y1205942D01*
X1652978Y1213225D02*
X1660851Y1213225D01*
X1652978Y1204564D02*
X1660851D01*
X1657899Y1205942D02*
Y1211650D01*
X1657308Y1211650D02*
X1657899Y1211650D01*
X1657308Y1211453D02*
Y1211650D01*
Y1205942D02*
Y1211453D01*
Y1205942D02*
X1657899D01*
X1605733Y1213225D02*
X1613607D01*
X1605733Y1204564D02*
X1613607Y1204564D01*
X1610655Y1205942D02*
Y1211650D01*
X1610064Y1211650D02*
X1610655D01*
X1610064Y1211453D02*
X1610064Y1211650D01*
X1610064Y1205942D02*
Y1211453D01*
Y1205942D02*
X1610655Y1205942D01*
X1416757Y1213225D02*
X1424631D01*
X1416757Y1204564D02*
X1424631Y1204564D01*
X1421678Y1205942D02*
Y1211650D01*
X1421088Y1211650D02*
X1421678Y1211650D01*
X1421088Y1211453D02*
X1421088Y1211650D01*
X1421088Y1205942D02*
Y1211453D01*
Y1205942D02*
X1421678Y1205942D01*
X1794710Y1213225D02*
X1802584D01*
X1794710Y1204564D02*
X1802584Y1204564D01*
X1799631Y1205942D02*
Y1211650D01*
X1799040Y1211650D02*
X1799631D01*
X1799040Y1211453D02*
X1799040Y1211650D01*
X1799040Y1205942D02*
Y1211453D01*
Y1205942D02*
X1799631D01*
X1464001Y1213225D02*
X1471875Y1213225D01*
X1464001Y1204564D02*
X1471875D01*
X1468922Y1205942D02*
Y1211650D01*
X1468332Y1211650D02*
X1468922Y1211650D01*
X1468332Y1211453D02*
Y1211650D01*
Y1205942D02*
Y1211453D01*
Y1205942D02*
X1468922D01*
X1984206Y1248631D02*
X1992080D01*
X1984206Y1239969D02*
X1992080Y1239969D01*
X1989127Y1241347D02*
Y1247056D01*
X1988536Y1247056D02*
X1989127Y1247056D01*
X1988536Y1246859D02*
Y1247056D01*
Y1241347D02*
Y1246859D01*
Y1241347D02*
X1989127D01*
X1559181Y1248594D02*
X1567055D01*
X1559181Y1239933D02*
X1567055Y1239933D01*
X1564102Y1241311D02*
Y1247020D01*
X1563512Y1247020D02*
X1564102Y1247020D01*
X1563512Y1246823D02*
Y1247020D01*
Y1241311D02*
Y1246823D01*
Y1241311D02*
X1564102D01*
X1606253Y1248631D02*
X1614127D01*
X1606253Y1239969D02*
X1614127Y1239969D01*
X1611174Y1241347D02*
Y1247056D01*
X1610584Y1247056D02*
X1611174Y1247056D01*
X1610584Y1246859D02*
Y1247056D01*
Y1241347D02*
Y1246859D01*
Y1241347D02*
X1611174D01*
X1511937Y1248594D02*
X1519811D01*
X1511937Y1239933D02*
X1519811Y1239933D01*
X1516858Y1241311D02*
Y1247020D01*
X1516268Y1247020D02*
X1516858Y1247020D01*
X1516268Y1246823D02*
Y1247020D01*
Y1241311D02*
Y1246823D01*
Y1241311D02*
X1516858D01*
X1417276Y1248631D02*
X1425150D01*
X1417276Y1239969D02*
X1425150Y1239969D01*
X1422198Y1241347D02*
Y1247056D01*
X1421607Y1247056D02*
X1422198Y1247056D01*
X1421607Y1246859D02*
Y1247056D01*
Y1241347D02*
Y1246859D01*
Y1241347D02*
X1422198D01*
X1464521Y1248631D02*
X1472395D01*
X1464521Y1239969D02*
X1472395Y1239969D01*
X1469442Y1241347D02*
Y1247056D01*
X1468851Y1247056D02*
X1469442Y1247056D01*
X1468851Y1246859D02*
Y1247056D01*
Y1241347D02*
Y1246859D01*
Y1241347D02*
X1469442D01*
X1936962Y1248631D02*
X1944836D01*
X1936962Y1239969D02*
X1944836Y1239969D01*
X1941883Y1241347D02*
Y1247056D01*
X1941292Y1247056D02*
X1941883Y1247056D01*
X1941292Y1246859D02*
Y1247056D01*
Y1241347D02*
Y1246859D01*
Y1241347D02*
X1941883D01*
X1889717Y1248631D02*
X1897592D01*
X1889717Y1239969D02*
X1897592Y1239969D01*
X1894639Y1241347D02*
Y1247056D01*
X1894048Y1247056D02*
X1894639Y1247056D01*
X1894048Y1246859D02*
Y1247056D01*
Y1241347D02*
Y1246859D01*
Y1241347D02*
X1894639D01*
X2125938Y1248631D02*
X2133812D01*
X2125938Y1239969D02*
X2133812Y1239969D01*
X2130859Y1241347D02*
Y1247056D01*
X2130269Y1247056D02*
X2130859Y1247056D01*
X2130269Y1246859D02*
Y1247056D01*
Y1241347D02*
Y1246859D01*
Y1241347D02*
X2130859D01*
X2031450Y1248631D02*
X2039324D01*
X2031450Y1239969D02*
X2039324Y1239969D01*
X2036371Y1241347D02*
Y1247056D01*
X2035781Y1247056D02*
X2036371Y1247056D01*
X2035781Y1246859D02*
Y1247056D01*
Y1241347D02*
Y1246859D01*
Y1241347D02*
X2036371D01*
X2078694Y1248631D02*
X2086568D01*
X2078694Y1239969D02*
X2086568Y1239969D01*
X2083615Y1241347D02*
Y1247056D01*
X2083025Y1247056D02*
X2083615Y1247056D01*
X2083025Y1246859D02*
Y1247056D01*
Y1241347D02*
Y1246859D01*
Y1241347D02*
X2083615D01*
X1653497Y1248631D02*
X1661371D01*
X1653497Y1239969D02*
X1661371Y1239969D01*
X1658418Y1241347D02*
Y1247056D01*
X1657828Y1247056D02*
X1658418Y1247056D01*
X1657828Y1246859D02*
Y1247056D01*
Y1241347D02*
Y1246859D01*
Y1241347D02*
X1658418D01*
X1747985Y1248631D02*
X1755859D01*
X1747985Y1239969D02*
X1755859Y1239969D01*
X1752906Y1241347D02*
Y1247056D01*
X1752316Y1247056D02*
X1752906Y1247056D01*
X1752316Y1246859D02*
Y1247056D01*
Y1241347D02*
Y1246859D01*
Y1241347D02*
X1752906D01*
X1700741Y1248631D02*
X1708615D01*
X1700741Y1239969D02*
X1708615Y1239969D01*
X1705662Y1241347D02*
Y1247056D01*
X1705072Y1247056D02*
X1705662Y1247056D01*
X1705072Y1246859D02*
Y1247056D01*
Y1241347D02*
Y1246859D01*
Y1241347D02*
X1705662D01*
X1795229Y1248631D02*
X1803103D01*
X1795229Y1239969D02*
X1803103Y1239969D01*
X1800150Y1241347D02*
Y1247056D01*
X1799560Y1247056D02*
X1800150Y1247056D01*
X1799560Y1246859D02*
Y1247056D01*
Y1241347D02*
Y1246859D01*
Y1241347D02*
X1800150D01*
X1842473Y1248631D02*
X1850347D01*
X1842473Y1239969D02*
X1850347Y1239969D01*
X1847395Y1241347D02*
Y1247056D01*
X1846804Y1247056D02*
X1847395Y1247056D01*
X1846804Y1246859D02*
Y1247056D01*
Y1241347D02*
Y1246859D01*
Y1241347D02*
X1847395D01*
D18*
X2121898Y1288693D02*
X2126902Y1283500D01*
Y1277500D02*
Y1283500D01*
Y1259500D02*
Y1277500D01*
X2091402Y1259500D02*
X2126902D01*
X2091402D02*
Y1267000D01*
X2097402Y1273500D01*
Y1283500D01*
X2100780Y1288693D01*
X2014941Y1268913D02*
Y1283087D01*
X1970020Y1263913D02*
Y1278086D01*
X1438587Y1131882D02*
X1438646Y1131823D01*
X1759500Y1160882D02*
X1757900D01*
X1757101Y1161682D01*
X1757900Y1162481D01*
X1759500D01*
X1758300D01*
Y1160882D01*
X1757101Y1163281D02*
X1759500D01*
Y1164481D01*
X1759100Y1164881D01*
X1757501D01*
X1757101Y1164481D01*
Y1163281D01*
X1757501Y1167280D02*
X1757101Y1166880D01*
Y1166080D01*
X1757501Y1165680D01*
X1759100D01*
X1759500Y1166080D01*
Y1166880D01*
X1759100Y1167280D01*
X1757001Y1171481D02*
X1756601Y1171082D01*
Y1170282D01*
X1757001Y1169882D01*
X1757401D01*
X1757800Y1170282D01*
Y1171082D01*
X1758200Y1171481D01*
X1758600D01*
X1759000Y1171082D01*
Y1170282D01*
X1758600Y1169882D01*
X1756601Y1172281D02*
X1759000D01*
X1758200Y1173081D01*
X1759000Y1173881D01*
X1756601D01*
Y1174680D02*
X1759000D01*
Y1175880D01*
X1758600Y1176280D01*
X1757001D01*
X1756601Y1175880D01*
Y1174680D01*
X1630099Y877381D02*
X1629700Y877781D01*
X1628900D01*
X1628500Y877381D01*
Y876981D01*
X1628900Y876581D01*
X1629700D01*
X1630099Y876182D01*
Y875782D01*
X1629700Y875382D01*
X1628900D01*
X1628500Y875782D01*
X1630899Y875382D02*
Y877781D01*
X1632099D01*
X1632499Y877381D01*
Y876581D01*
X1632099Y876182D01*
X1630899D01*
X1633298Y877781D02*
X1634098D01*
X1633698D01*
Y875382D01*
X1633298D01*
X1634098D01*
X1623500Y855781D02*
X1624300D01*
X1623900D01*
Y853382D01*
X1623500D01*
X1624300D01*
X1627099D02*
X1625499D01*
X1627099Y854981D01*
Y855381D01*
X1626699Y855781D01*
X1625899D01*
X1625499Y855381D01*
X1629498D02*
X1629098Y855781D01*
X1628298D01*
X1627899Y855381D01*
Y853782D01*
X1628298Y853382D01*
X1629098D01*
X1629498Y853782D01*
X1591262Y1050737D02*
X1590862Y1050337D01*
Y1049538D01*
X1591262Y1049138D01*
X1591662D01*
X1592062Y1049538D01*
Y1050337D01*
X1592461Y1050737D01*
X1592861D01*
X1593261Y1050337D01*
Y1049538D01*
X1592861Y1049138D01*
X1593261Y1051537D02*
X1591662D01*
X1590862Y1052337D01*
X1591662Y1053136D01*
X1593261D01*
X1592062D01*
Y1051537D01*
X1590862Y1053936D02*
Y1054736D01*
Y1054336D01*
X1593261D01*
Y1053936D01*
Y1054736D01*
Y1057535D02*
Y1055935D01*
X1591662Y1057535D01*
X1591262D01*
X1590862Y1057135D01*
Y1056335D01*
X1591262Y1055935D01*
X1593661Y1058335D02*
Y1059934D01*
X1590862Y1062333D02*
Y1060734D01*
X1592062D01*
Y1061534D01*
Y1060734D01*
X1593261D01*
X1591262Y1064733D02*
X1590862Y1064333D01*
Y1063533D01*
X1591262Y1063133D01*
X1591662D01*
X1592062Y1063533D01*
Y1064333D01*
X1592461Y1064733D01*
X1592861D01*
X1593261Y1064333D01*
Y1063533D01*
X1592861Y1063133D01*
X1591500Y1069484D02*
X1591100Y1069084D01*
Y1068285D01*
X1591500Y1067885D01*
X1591900D01*
X1592300Y1068285D01*
Y1069084D01*
X1592700Y1069484D01*
X1593100D01*
X1593500Y1069084D01*
Y1068285D01*
X1593100Y1067885D01*
X1593500Y1070284D02*
X1591900D01*
X1591100Y1071084D01*
X1591900Y1071883D01*
X1593500D01*
X1592300D01*
Y1070284D01*
X1591100Y1072683D02*
Y1073483D01*
Y1073083D01*
X1593500D01*
Y1072683D01*
Y1073483D01*
Y1076282D02*
Y1074683D01*
X1591900Y1076282D01*
X1591500D01*
X1591100Y1075882D01*
Y1075082D01*
X1591500Y1074683D01*
X1593900Y1077082D02*
Y1078681D01*
X1591500Y1081081D02*
X1591100Y1080681D01*
Y1079881D01*
X1591500Y1079481D01*
X1591900D01*
X1592300Y1079881D01*
Y1080681D01*
X1592700Y1081081D01*
X1593100D01*
X1593500Y1080681D01*
Y1079881D01*
X1593100Y1079481D01*
X1591500Y1083480D02*
X1591100Y1083080D01*
Y1082280D01*
X1591500Y1081880D01*
X1593100D01*
X1593500Y1082280D01*
Y1083080D01*
X1593100Y1083480D01*
X1591100Y1084280D02*
X1593500D01*
X1592700D01*
X1591100Y1085879D01*
X1592300Y1084679D01*
X1593500Y1085879D01*
M02*
