G04*
G04 #@! TF.GenerationSoftware,Altium Limited,Altium Designer,24.2.2 (26)*
G04*
G04 Layer_Color=8421504*
%FSLAX25Y25*%
%MOIN*%
G70*
G04*
G04 #@! TF.SameCoordinates,5957EE86-81F1-4C7A-B0E9-50F0B43EC399*
G04*
G04*
G04 #@! TF.FilePolarity,Positive*
G04*
G01*
G75*
%ADD14C,0.00394*%
%ADD19R,0.05709X0.06693*%
%ADD20R,0.03543X0.01772*%
%ADD21R,0.03543X0.03937*%
%ADD22R,0.02362X0.04724*%
%ADD23R,0.03740X0.03347*%
%ADD24R,0.02362X0.02953*%
%ADD25R,0.05512X0.05118*%
%ADD26R,0.02953X0.02362*%
%ADD27R,0.02756X0.03543*%
%ADD28R,0.03543X0.02756*%
%ADD29R,0.04724X0.04724*%
%ADD30R,0.03347X0.03740*%
%ADD31R,0.09646X0.08465*%
%ADD32R,0.03543X0.03150*%
%ADD33R,0.05118X0.05512*%
%ADD34R,0.02200X0.05200*%
%ADD35R,0.03150X0.03543*%
%ADD36R,0.01968X0.27559*%
%ADD37R,0.06004X0.02756*%
%ADD38R,0.08228X0.08228*%
%ADD39R,0.04724X0.02362*%
%ADD40R,0.08465X0.09646*%
%ADD41R,0.01968X0.03937*%
%ADD42R,0.03937X0.01968*%
%ADD43R,0.03937X0.08268*%
%ADD44R,0.19291X0.23032*%
%ADD45R,0.03740X0.05118*%
%ADD46R,0.12795X0.05118*%
%ADD47R,0.06693X0.06693*%
%ADD48R,0.03937X0.10039*%
%ADD49R,0.03740X0.03543*%
%ADD50R,0.03937X0.03543*%
%ADD51R,0.01181X0.05807*%
%ADD52R,0.05807X0.01181*%
%ADD53R,0.02559X0.06496*%
%ADD54R,0.02362X0.02520*%
%ADD55R,0.02520X0.02362*%
%ADD56R,0.04724X0.05512*%
%ADD57R,0.02000X0.09000*%
%ADD58R,0.02559X0.06004*%
%ADD59R,0.04331X0.07480*%
%ADD60R,0.06102X0.02559*%
%ADD61R,0.05807X0.01772*%
%ADD62R,0.02559X0.06102*%
G36*
X1949249Y1311842D02*
X1948068Y1311448D01*
X1946886Y1310267D01*
X1946099Y1309873D01*
X1945312Y1308692D01*
X1944524Y1307511D01*
X1943737Y1305936D01*
X1943343Y1304755D01*
X1942949Y1303181D01*
Y1301999D01*
Y1300818D01*
X1943343Y1299244D01*
X1943737Y1298062D01*
X1944524Y1296488D01*
X1945312Y1295306D01*
X1946099Y1294125D01*
X1946886Y1293732D01*
X1948068Y1292551D01*
X1949249Y1292157D01*
Y1287826D01*
X1939406D01*
Y1301999D01*
Y1316173D01*
X1949249D01*
Y1311842D01*
D02*
G37*
G36*
X1967753Y1301999D02*
Y1287826D01*
X1957910D01*
Y1292157D01*
X1959091Y1292551D01*
X1960272Y1293732D01*
X1961060Y1294125D01*
X1961847Y1295306D01*
X1962634Y1296488D01*
X1963422Y1298062D01*
X1963816Y1299244D01*
X1964209Y1300818D01*
Y1301999D01*
Y1303181D01*
X1963816Y1304755D01*
X1963422Y1305936D01*
X1962634Y1307511D01*
X1961847Y1308692D01*
X1961060Y1309873D01*
X1960272Y1310267D01*
X1959091Y1311448D01*
X1957910Y1311842D01*
Y1316173D01*
X1967753D01*
Y1301999D01*
D02*
G37*
G36*
X2059268Y1307843D02*
X2058087Y1307449D01*
X2056906Y1306268D01*
X2056118Y1305874D01*
X2055331Y1304693D01*
X2054543Y1303512D01*
X2053756Y1301937D01*
X2053362Y1300756D01*
X2052968Y1299181D01*
Y1298000D01*
Y1296819D01*
X2053362Y1295244D01*
X2053756Y1294063D01*
X2054543Y1292488D01*
X2055331Y1291307D01*
X2056118Y1290126D01*
X2056906Y1289732D01*
X2058087Y1288551D01*
X2059268Y1288157D01*
Y1283827D01*
X2049425D01*
Y1298000D01*
Y1312173D01*
X2059268D01*
Y1307843D01*
D02*
G37*
G36*
X2077772Y1298000D02*
Y1283827D01*
X2067929D01*
Y1288157D01*
X2069110Y1288551D01*
X2070291Y1289732D01*
X2071079Y1290126D01*
X2071866Y1291307D01*
X2072654Y1292488D01*
X2073441Y1294063D01*
X2073835Y1295244D01*
X2074228Y1296819D01*
Y1298000D01*
Y1299181D01*
X2073835Y1300756D01*
X2073441Y1301937D01*
X2072654Y1303512D01*
X2071866Y1304693D01*
X2071079Y1305874D01*
X2070291Y1306268D01*
X2069110Y1307449D01*
X2067929Y1307843D01*
Y1312173D01*
X2077772D01*
Y1298000D01*
D02*
G37*
D14*
X2052845D02*
G03*
X2059268Y1288157I10753J0D01*
G01*
Y1307843D02*
G03*
X2052845Y1298000I4331J-9843D01*
G01*
X2074352D02*
G03*
X2067929Y1307843I-10753J0D01*
G01*
Y1288157D02*
G03*
X2074352Y1298000I-4331J9843D01*
G01*
X1942826Y1301999D02*
G03*
X1949249Y1292157I10753J0D01*
G01*
Y1311842D02*
G03*
X1942826Y1301999I4331J-9843D01*
G01*
X1964333D02*
G03*
X1957910Y1311842I-10753J0D01*
G01*
Y1292157D02*
G03*
X1964333Y1301999I-4331J9843D01*
G01*
X2059268Y1284024D02*
Y1288157D01*
Y1307843D02*
Y1311976D01*
X2067929Y1307843D02*
Y1311976D01*
Y1284024D02*
Y1288157D01*
X1949249Y1288023D02*
Y1292157D01*
Y1311842D02*
Y1315976D01*
X1957910Y1311842D02*
Y1315976D01*
Y1288023D02*
Y1292157D01*
D19*
X1696000Y1257496D02*
D03*
X1686000D02*
D03*
X1676000D02*
D03*
Y1294504D02*
D03*
X1686000D02*
D03*
X1696000D02*
D03*
D20*
X1779587Y1312527D02*
D03*
X1779587Y1309378D02*
D03*
Y1318827D02*
D03*
Y1315677D02*
D03*
X1772894Y1315677D02*
D03*
Y1318827D02*
D03*
Y1309378D02*
D03*
X1772894Y1312527D02*
D03*
X1681307Y1306850D02*
D03*
Y1303701D02*
D03*
Y1313150D02*
D03*
Y1310000D02*
D03*
X1688000D02*
D03*
Y1313150D02*
D03*
Y1303701D02*
D03*
Y1306850D02*
D03*
D21*
X1687588Y1249747D02*
D03*
X1692903Y1249747D02*
D03*
X1776425Y1266602D02*
D03*
X1781740D02*
D03*
X1473000Y966882D02*
D03*
X1478315D02*
D03*
X1349508Y1004882D02*
D03*
X1344193D02*
D03*
X2030736Y998382D02*
D03*
X2025421D02*
D03*
X1902008D02*
D03*
X1896693D02*
D03*
X2030736Y1158382D02*
D03*
X2025421D02*
D03*
X1896779Y1156382D02*
D03*
X1891464D02*
D03*
X1349508Y979382D02*
D03*
X1344193D02*
D03*
X2030736Y972882D02*
D03*
X2025421D02*
D03*
X1902008D02*
D03*
X1896693D02*
D03*
X2030736Y1132882D02*
D03*
X2025421D02*
D03*
X1896779Y1130882D02*
D03*
X1891464D02*
D03*
X1349508Y997882D02*
D03*
X1344193D02*
D03*
X2030736Y991382D02*
D03*
X2025421D02*
D03*
X1902008D02*
D03*
X1896693D02*
D03*
X2030736Y1151382D02*
D03*
X2025421D02*
D03*
X1896779Y1149382D02*
D03*
X1891464D02*
D03*
X1934008Y1082382D02*
D03*
X1928693D02*
D03*
X1734016Y966220D02*
D03*
X1728701D02*
D03*
X1468807Y1137882D02*
D03*
X1463492D02*
D03*
X1728807Y1113882D02*
D03*
X1723492D02*
D03*
X1753847Y1107673D02*
D03*
X1748532D02*
D03*
D22*
X1772260Y1299602D02*
D03*
X1779740D02*
D03*
Y1289760D02*
D03*
X1776000Y1289760D02*
D03*
X1772260Y1289760D02*
D03*
X1779740Y1282102D02*
D03*
X1776000D02*
D03*
X1772260D02*
D03*
Y1272260D02*
D03*
X1779740D02*
D03*
X1754579Y1116252D02*
D03*
X1747098Y1116252D02*
D03*
Y1126095D02*
D03*
X1750839D02*
D03*
X1754579Y1126095D02*
D03*
D23*
X1792240Y1299602D02*
D03*
Y1304720D02*
D03*
X1785740Y1289102D02*
D03*
Y1294221D02*
D03*
X1770260Y1260984D02*
D03*
Y1266102D02*
D03*
X2047902Y1266000D02*
D03*
Y1271118D02*
D03*
X2034433Y1307087D02*
D03*
Y1301968D02*
D03*
X1940504Y1278717D02*
D03*
Y1273598D02*
D03*
X1489500Y1138764D02*
D03*
Y1143882D02*
D03*
X1484000D02*
D03*
Y1138764D02*
D03*
X1721209Y964843D02*
D03*
Y969961D02*
D03*
X1714709Y964721D02*
D03*
Y969839D02*
D03*
X2059500Y966000D02*
D03*
Y960882D02*
D03*
X1926500Y965941D02*
D03*
Y960823D02*
D03*
X1378000Y971441D02*
D03*
Y966323D02*
D03*
X2048500Y966000D02*
D03*
Y960882D02*
D03*
X1915500Y965941D02*
D03*
X1915500Y960823D02*
D03*
X1367000Y971441D02*
D03*
Y966323D02*
D03*
X2054000Y966000D02*
D03*
Y960882D02*
D03*
X1921000Y965941D02*
D03*
Y960823D02*
D03*
X1372500Y971441D02*
D03*
Y966323D02*
D03*
X2071500Y1105000D02*
D03*
Y1099882D02*
D03*
X1926000Y1123441D02*
D03*
Y1118323D02*
D03*
X2077000Y1105000D02*
D03*
Y1099882D02*
D03*
X1915000Y1123500D02*
D03*
Y1118382D02*
D03*
X2082500Y1105000D02*
D03*
Y1099882D02*
D03*
X1920500Y1123500D02*
D03*
Y1118382D02*
D03*
X1460333Y964408D02*
D03*
Y969526D02*
D03*
X1466833Y964408D02*
D03*
Y969526D02*
D03*
D24*
X1792740Y1289102D02*
D03*
Y1293630D02*
D03*
X1593000Y931000D02*
D03*
Y935528D02*
D03*
X1818000Y1019264D02*
D03*
Y1014736D02*
D03*
X2046380Y1211025D02*
D03*
Y1206497D02*
D03*
X2093624Y1211025D02*
D03*
Y1206497D02*
D03*
X1904648Y1211025D02*
D03*
Y1206497D02*
D03*
X1951892Y1211025D02*
D03*
Y1206497D02*
D03*
X1999136Y1211025D02*
D03*
Y1206497D02*
D03*
X1857404Y1211025D02*
D03*
Y1206497D02*
D03*
X1526695Y1211025D02*
D03*
Y1206497D02*
D03*
X1479451Y1211025D02*
D03*
Y1206497D02*
D03*
X1573939Y1211025D02*
D03*
Y1206497D02*
D03*
X1621183Y1211025D02*
D03*
Y1206497D02*
D03*
X1715672Y1211025D02*
D03*
Y1206497D02*
D03*
X1668427Y1211025D02*
D03*
Y1206497D02*
D03*
X1432207Y1211025D02*
D03*
Y1206497D02*
D03*
X1810160Y1211025D02*
D03*
Y1206497D02*
D03*
X1762916Y1211025D02*
D03*
Y1206497D02*
D03*
X1409800Y1211100D02*
D03*
Y1206572D02*
D03*
X1574803Y1241795D02*
D03*
Y1246323D02*
D03*
X1527559Y1241795D02*
D03*
Y1246323D02*
D03*
X1410000Y1241736D02*
D03*
Y1246264D02*
D03*
X1433071Y1241831D02*
D03*
Y1246358D02*
D03*
X1480315Y1241795D02*
D03*
Y1246323D02*
D03*
X1858268Y1241795D02*
D03*
Y1246323D02*
D03*
X1905512Y1241795D02*
D03*
Y1246323D02*
D03*
X2094488Y1241831D02*
D03*
Y1246358D02*
D03*
X1952756Y1241795D02*
D03*
Y1246323D02*
D03*
X2000000Y1241795D02*
D03*
Y1246323D02*
D03*
X2047244Y1241795D02*
D03*
Y1246323D02*
D03*
X1622047Y1241795D02*
D03*
Y1246323D02*
D03*
X1716535Y1241795D02*
D03*
Y1246323D02*
D03*
X1763779Y1241795D02*
D03*
Y1246323D02*
D03*
X1811024Y1241795D02*
D03*
Y1246323D02*
D03*
X1669291Y1241795D02*
D03*
Y1246323D02*
D03*
D25*
X1785740Y1276303D02*
D03*
Y1282602D02*
D03*
X1792740Y1276303D02*
D03*
Y1282602D02*
D03*
X1777260Y1252303D02*
D03*
X1777260Y1258602D02*
D03*
X2042402Y1309299D02*
D03*
Y1303000D02*
D03*
X1933981Y1263700D02*
D03*
Y1269999D02*
D03*
X1925981Y1263700D02*
D03*
Y1269999D02*
D03*
X1924981Y1315799D02*
D03*
Y1309499D02*
D03*
X1965000Y1263000D02*
D03*
Y1269299D02*
D03*
X1804240Y1154870D02*
D03*
Y1148571D02*
D03*
X1491500Y1159181D02*
D03*
Y1152882D02*
D03*
X1718000Y1120732D02*
D03*
Y1127032D02*
D03*
X1605036Y1122584D02*
D03*
Y1116285D02*
D03*
X1612709Y1116220D02*
D03*
Y1122520D02*
D03*
X1631000Y1155882D02*
D03*
Y1162181D02*
D03*
X1587333Y1119176D02*
D03*
Y1112876D02*
D03*
D26*
X2120527Y926000D02*
D03*
X2116000D02*
D03*
X2038527D02*
D03*
X2034000D02*
D03*
X1955527D02*
D03*
X1951000D02*
D03*
X1709264D02*
D03*
X1704736D02*
D03*
X1584527D02*
D03*
X1580000D02*
D03*
X1992000Y1314000D02*
D03*
X1996528D02*
D03*
X1929944Y1070438D02*
D03*
X1934472D02*
D03*
D27*
X1833765Y1120077D02*
D03*
X1838096D02*
D03*
Y1112872D02*
D03*
X1833765D02*
D03*
Y1014613D02*
D03*
X1838096D02*
D03*
Y1021818D02*
D03*
X1833765D02*
D03*
D28*
X1704597Y911681D02*
D03*
Y907350D02*
D03*
X1711802D02*
D03*
Y911681D02*
D03*
X1579929D02*
D03*
Y907350D02*
D03*
X1587134D02*
D03*
Y911681D02*
D03*
X2116241D02*
D03*
Y907350D02*
D03*
X2123446D02*
D03*
Y911681D02*
D03*
X2033564D02*
D03*
Y907350D02*
D03*
X2040769D02*
D03*
Y911681D02*
D03*
X1951052D02*
D03*
Y907350D02*
D03*
X1958257D02*
D03*
Y911681D02*
D03*
X2031265Y1206729D02*
D03*
Y1211060D02*
D03*
X2038470Y1211060D02*
D03*
X2038470Y1206729D02*
D03*
X2125753Y1206729D02*
D03*
Y1211060D02*
D03*
X2132958Y1211060D02*
D03*
X2132958Y1206729D02*
D03*
X2078509Y1206729D02*
D03*
Y1211060D02*
D03*
X2085714D02*
D03*
Y1206729D02*
D03*
X1889532Y1206729D02*
D03*
Y1211060D02*
D03*
X1896737Y1211060D02*
D03*
X1896737Y1206729D02*
D03*
X1936777D02*
D03*
Y1211060D02*
D03*
X1943982D02*
D03*
X1943982Y1206729D02*
D03*
X1984021D02*
D03*
Y1211060D02*
D03*
X1991226Y1211060D02*
D03*
X1991226Y1206729D02*
D03*
X1842288Y1206729D02*
D03*
Y1211060D02*
D03*
X1849493D02*
D03*
Y1206729D02*
D03*
X1747800Y1206729D02*
D03*
Y1211060D02*
D03*
X1755005Y1211060D02*
D03*
X1755005Y1206729D02*
D03*
X1511580Y1206729D02*
D03*
Y1211060D02*
D03*
X1518785D02*
D03*
X1518785Y1206729D02*
D03*
X1558824D02*
D03*
Y1211060D02*
D03*
X1566029Y1211060D02*
D03*
X1566029Y1206729D02*
D03*
X1700556D02*
D03*
Y1211060D02*
D03*
X1707761D02*
D03*
X1707761Y1206729D02*
D03*
X1653312Y1206729D02*
D03*
Y1211060D02*
D03*
X1660517D02*
D03*
Y1206729D02*
D03*
X1606068Y1206729D02*
D03*
Y1211060D02*
D03*
X1613273D02*
D03*
X1613273Y1206729D02*
D03*
X1417092D02*
D03*
Y1211060D02*
D03*
X1424297D02*
D03*
X1424297Y1206729D02*
D03*
X1795044D02*
D03*
Y1211060D02*
D03*
X1802249Y1211060D02*
D03*
X1802249Y1206729D02*
D03*
X1464336Y1206729D02*
D03*
Y1211060D02*
D03*
X1471541D02*
D03*
Y1206729D02*
D03*
X1984540Y1242134D02*
D03*
Y1246465D02*
D03*
X1991745D02*
D03*
Y1242134D02*
D03*
X1559515Y1242098D02*
D03*
Y1246429D02*
D03*
X1566720D02*
D03*
Y1242098D02*
D03*
X1606587Y1242134D02*
D03*
Y1246465D02*
D03*
X1613792D02*
D03*
Y1242134D02*
D03*
X1512271Y1242098D02*
D03*
Y1246429D02*
D03*
X1519476D02*
D03*
Y1242098D02*
D03*
X1417611Y1242134D02*
D03*
Y1246465D02*
D03*
X1424816D02*
D03*
Y1242134D02*
D03*
X1464855D02*
D03*
Y1246465D02*
D03*
X1472060D02*
D03*
Y1242134D02*
D03*
X1937296D02*
D03*
Y1246465D02*
D03*
X1944501D02*
D03*
Y1242134D02*
D03*
X1890052D02*
D03*
Y1246465D02*
D03*
X1897257D02*
D03*
Y1242134D02*
D03*
X2126273D02*
D03*
Y1246465D02*
D03*
X2133478D02*
D03*
Y1242134D02*
D03*
X2031784D02*
D03*
Y1246465D02*
D03*
X2038989D02*
D03*
Y1242134D02*
D03*
X2079028D02*
D03*
Y1246465D02*
D03*
X2086233D02*
D03*
Y1242134D02*
D03*
X1653831D02*
D03*
Y1246465D02*
D03*
X1661036D02*
D03*
Y1242134D02*
D03*
X1748320D02*
D03*
Y1246465D02*
D03*
X1755525D02*
D03*
Y1242134D02*
D03*
X1701076D02*
D03*
Y1246465D02*
D03*
X1708281D02*
D03*
Y1242134D02*
D03*
X1795564D02*
D03*
Y1246465D02*
D03*
X1802769D02*
D03*
Y1242134D02*
D03*
X1842808D02*
D03*
Y1246465D02*
D03*
X1850013D02*
D03*
Y1242134D02*
D03*
D29*
X1991866Y1320000D02*
D03*
X2000134D02*
D03*
D30*
X1992118Y1277000D02*
D03*
X1987000D02*
D03*
X1992118Y1267000D02*
D03*
X1987000D02*
D03*
X2130402Y1310000D02*
D03*
X2135520D02*
D03*
X2062147Y1270873D02*
D03*
X2057029D02*
D03*
X2108339Y1285937D02*
D03*
X2103221D02*
D03*
X2119457Y1285937D02*
D03*
X2114339D02*
D03*
X2107220Y1263937D02*
D03*
X2112339D02*
D03*
X2118339Y1263937D02*
D03*
X2123457D02*
D03*
X2096221Y1263937D02*
D03*
X2101339D02*
D03*
X2114402Y1299000D02*
D03*
X2119520D02*
D03*
X2075961Y1317000D02*
D03*
X2070843D02*
D03*
X2071283Y1278000D02*
D03*
X2076402D02*
D03*
X2119520Y1310000D02*
D03*
X2114402D02*
D03*
X2114441Y1304000D02*
D03*
X2119559D02*
D03*
X2114402Y1293000D02*
D03*
X2119520D02*
D03*
X2135520Y1292000D02*
D03*
X2130402D02*
D03*
X2135520Y1298000D02*
D03*
X2130402D02*
D03*
X2135520Y1304000D02*
D03*
X2130402D02*
D03*
X2130283Y1286000D02*
D03*
X2135402D02*
D03*
X1945346Y1284861D02*
D03*
X1940228D02*
D03*
X1461441Y1076382D02*
D03*
X1466559D02*
D03*
X1810542Y1125198D02*
D03*
X1815660Y1125198D02*
D03*
Y1147698D02*
D03*
X1810542D02*
D03*
Y1142032D02*
D03*
X1815660D02*
D03*
X1810542Y1136532D02*
D03*
X1815660D02*
D03*
X1810542Y1131032D02*
D03*
X1815660D02*
D03*
X1603941Y1058382D02*
D03*
X1609059D02*
D03*
X1658000Y966382D02*
D03*
X1652882D02*
D03*
X1641764D02*
D03*
X1646882D02*
D03*
X2088618Y1063382D02*
D03*
X2083500D02*
D03*
X2088618Y1057882D02*
D03*
X2083500D02*
D03*
X1903500Y1004882D02*
D03*
X1898382D02*
D03*
X1903500Y984882D02*
D03*
X1898382D02*
D03*
X1903500Y979382D02*
D03*
X1898382D02*
D03*
X2054118Y934382D02*
D03*
X2049000D02*
D03*
X1995000Y872382D02*
D03*
X2000118D02*
D03*
X1995000Y877882D02*
D03*
X2000118D02*
D03*
X1995000Y883382D02*
D03*
X2000118D02*
D03*
X2054118Y939882D02*
D03*
X2049000D02*
D03*
X1711559Y849882D02*
D03*
X1706441D02*
D03*
X1711559Y855382D02*
D03*
X1706441D02*
D03*
X1345882Y991382D02*
D03*
X1351000D02*
D03*
X1345882Y985882D02*
D03*
X1351000D02*
D03*
X1345882Y1011382D02*
D03*
X1351000D02*
D03*
X2027110Y984882D02*
D03*
X2032228D02*
D03*
X2027110Y979382D02*
D03*
X2032228D02*
D03*
X2027110Y1004882D02*
D03*
X2032228D02*
D03*
X2027110Y1144882D02*
D03*
X2032228D02*
D03*
X2027110Y1139382D02*
D03*
X2032228D02*
D03*
X2027110Y1164882D02*
D03*
X2032228D02*
D03*
X1893153Y1142882D02*
D03*
X1898272D02*
D03*
X1893153Y1137382D02*
D03*
X1898272D02*
D03*
X1893153Y1162882D02*
D03*
X1898272D02*
D03*
X1527176Y966061D02*
D03*
X1522058D02*
D03*
X1473117Y1057963D02*
D03*
X1478235D02*
D03*
X1516058Y966160D02*
D03*
X1510940D02*
D03*
D31*
X2039202Y1276210D02*
D03*
X2022272D02*
D03*
D32*
X2042339Y1287760D02*
D03*
Y1295240D02*
D03*
X2034464Y1291500D02*
D03*
D33*
X2040051Y1265098D02*
D03*
X2033752D02*
D03*
X2089701Y1278000D02*
D03*
X2083402D02*
D03*
X2089701Y1286000D02*
D03*
X2083402D02*
D03*
X2089701Y1316000D02*
D03*
X2083402D02*
D03*
X2058102Y1278000D02*
D03*
X2064402D02*
D03*
X1949981Y1266999D02*
D03*
X1956280D02*
D03*
X1899110Y1288331D02*
D03*
X1892811D02*
D03*
X1424299Y1234000D02*
D03*
X1418000D02*
D03*
X1464500Y1197382D02*
D03*
X1470799D02*
D03*
X1798142Y1129071D02*
D03*
X1791842Y1129071D02*
D03*
X1610799Y828882D02*
D03*
X1604500D02*
D03*
X1666201Y1312000D02*
D03*
X1672500D02*
D03*
X1666201Y1304500D02*
D03*
X1672500D02*
D03*
X1604850Y1092382D02*
D03*
X1611150D02*
D03*
Y1065382D02*
D03*
X1604850D02*
D03*
X1702850Y1040382D02*
D03*
X1709150D02*
D03*
X1604000Y1197382D02*
D03*
X1610299D02*
D03*
X1573026Y1039963D02*
D03*
X1579326D02*
D03*
X1473816Y1091969D02*
D03*
X1480115D02*
D03*
X1480161Y1064975D02*
D03*
X1473862D02*
D03*
D34*
X2105339Y1270937D02*
D03*
X2101739Y1278937D02*
D03*
X2108939D02*
D03*
D35*
X2115598Y1271000D02*
D03*
X2123079D02*
D03*
X2119339Y1278874D02*
D03*
X2141661Y1288126D02*
D03*
X2149142D02*
D03*
X2145402Y1296000D02*
D03*
X2148929Y1309874D02*
D03*
X2141449D02*
D03*
X2145189Y1302000D02*
D03*
X1494760Y1143945D02*
D03*
X1502240D02*
D03*
X1498500Y1151819D02*
D03*
X1467740Y1070819D02*
D03*
X1460260D02*
D03*
X1464000Y1062945D02*
D03*
D36*
X2051197Y1298000D02*
D03*
X2076000D02*
D03*
X1941178Y1301999D02*
D03*
X1965981D02*
D03*
D37*
X2105079Y1293500D02*
D03*
Y1298500D02*
D03*
Y1303500D02*
D03*
Y1308500D02*
D03*
X2083724D02*
D03*
Y1303500D02*
D03*
Y1298500D02*
D03*
Y1293500D02*
D03*
D38*
X2094402Y1301000D02*
D03*
D39*
X1951638Y1284181D02*
D03*
Y1280440D02*
D03*
Y1276700D02*
D03*
X1961481D02*
D03*
Y1280440D02*
D03*
Y1284181D02*
D03*
D40*
X1929981Y1298929D02*
D03*
Y1281999D02*
D03*
D41*
X1591500Y1044894D02*
D03*
X1594256D02*
D03*
X1591500Y1039382D02*
D03*
X1594256D02*
D03*
X1735465Y973709D02*
D03*
X1732709D02*
D03*
X1735465Y979220D02*
D03*
X1732709D02*
D03*
X1481077Y982526D02*
D03*
X1483833D02*
D03*
X1481077Y977014D02*
D03*
X1483833D02*
D03*
D42*
X1775500Y1177882D02*
D03*
Y1180638D02*
D03*
X1781012Y1177882D02*
D03*
Y1180638D02*
D03*
X1763488Y1178004D02*
D03*
Y1180760D02*
D03*
X1769000Y1178004D02*
D03*
Y1180760D02*
D03*
X1787000Y1177882D02*
D03*
Y1180638D02*
D03*
X1792512Y1177882D02*
D03*
Y1180638D02*
D03*
X1799000Y1177882D02*
D03*
Y1180638D02*
D03*
X1804512Y1177882D02*
D03*
Y1180638D02*
D03*
X1635000Y866260D02*
D03*
Y863504D02*
D03*
X1629488Y866260D02*
D03*
Y863504D02*
D03*
X1646512Y866260D02*
D03*
X1646512Y863504D02*
D03*
X1641000Y866260D02*
D03*
X1641000Y863504D02*
D03*
X1617866Y866272D02*
D03*
Y863516D02*
D03*
X1623378Y866272D02*
D03*
Y863516D02*
D03*
X1641000Y1138882D02*
D03*
X1641000Y1141638D02*
D03*
X1635488Y1138882D02*
D03*
Y1141638D02*
D03*
X1465833Y1011148D02*
D03*
Y1013904D02*
D03*
X1471345Y1011148D02*
D03*
Y1013904D02*
D03*
D43*
X1482453Y1185882D02*
D03*
X1464500D02*
D03*
X1621953Y1185882D02*
D03*
X1604000Y1185882D02*
D03*
D44*
X1473476Y1159110D02*
D03*
X1612976Y1159110D02*
D03*
D45*
X1778126Y1136882D02*
D03*
X1787142Y1136882D02*
D03*
X1796157Y1136882D02*
D03*
D46*
X1787142Y1163260D02*
D03*
D47*
X1526775Y1319050D02*
D03*
X1565358D02*
D03*
D48*
X1553940Y1305369D02*
D03*
X1546066D02*
D03*
X1538192D02*
D03*
D49*
X1696000Y1315201D02*
D03*
Y1302799D02*
D03*
D50*
X1482833Y1015868D02*
D03*
Y1021183D02*
D03*
D51*
X1498227Y1130739D02*
D03*
X1500196D02*
D03*
X1502164D02*
D03*
X1504133D02*
D03*
X1506101D02*
D03*
X1508070D02*
D03*
X1510038D02*
D03*
X1512007D02*
D03*
X1513975D02*
D03*
X1515944D02*
D03*
X1517912D02*
D03*
X1519881D02*
D03*
X1521849D02*
D03*
X1523818D02*
D03*
X1525786D02*
D03*
X1527755D02*
D03*
X1529723D02*
D03*
X1531692D02*
D03*
X1533660D02*
D03*
X1535629D02*
D03*
X1537597D02*
D03*
X1539566D02*
D03*
X1541534D02*
D03*
X1543503D02*
D03*
X1545471D02*
D03*
X1547440D02*
D03*
X1549408D02*
D03*
X1551377D02*
D03*
X1553345D02*
D03*
X1555314D02*
D03*
X1557282D02*
D03*
X1559251D02*
D03*
X1561219D02*
D03*
X1563188D02*
D03*
X1565156D02*
D03*
X1567125D02*
D03*
Y1046187D02*
D03*
X1565156D02*
D03*
X1563188D02*
D03*
X1561219D02*
D03*
X1559251D02*
D03*
X1557282D02*
D03*
X1555314D02*
D03*
X1553345D02*
D03*
X1551377D02*
D03*
X1549408D02*
D03*
X1547440D02*
D03*
X1545471D02*
D03*
X1543503D02*
D03*
X1541534D02*
D03*
X1539566D02*
D03*
X1537597D02*
D03*
X1535629D02*
D03*
X1533660D02*
D03*
X1531692D02*
D03*
X1529723D02*
D03*
X1527755D02*
D03*
X1525786D02*
D03*
X1523818D02*
D03*
X1521849D02*
D03*
X1519881D02*
D03*
X1517912D02*
D03*
X1515944D02*
D03*
X1513975D02*
D03*
X1512007D02*
D03*
X1510038D02*
D03*
X1508070D02*
D03*
X1506101D02*
D03*
X1504133D02*
D03*
X1502164D02*
D03*
X1500196D02*
D03*
X1498227D02*
D03*
X1629051Y1131157D02*
D03*
X1631020D02*
D03*
X1632988D02*
D03*
X1634957D02*
D03*
X1636925D02*
D03*
X1638894D02*
D03*
X1640862D02*
D03*
X1642831D02*
D03*
X1644799D02*
D03*
X1646768D02*
D03*
X1648736D02*
D03*
X1650705D02*
D03*
X1652673D02*
D03*
X1654642D02*
D03*
X1656610D02*
D03*
X1658579D02*
D03*
X1660547D02*
D03*
X1662516D02*
D03*
X1664484D02*
D03*
X1666453D02*
D03*
X1668421D02*
D03*
X1670390D02*
D03*
X1672358D02*
D03*
X1674327D02*
D03*
X1676295D02*
D03*
X1678264D02*
D03*
X1680232D02*
D03*
X1682201D02*
D03*
X1684169D02*
D03*
X1686138D02*
D03*
X1688106D02*
D03*
X1690075D02*
D03*
X1692043D02*
D03*
X1694012D02*
D03*
X1695980D02*
D03*
X1697949D02*
D03*
Y1046606D02*
D03*
X1695980D02*
D03*
X1694012D02*
D03*
X1692043D02*
D03*
X1690075D02*
D03*
X1688106D02*
D03*
X1686138D02*
D03*
X1684169D02*
D03*
X1682201D02*
D03*
X1680232D02*
D03*
X1678264D02*
D03*
X1676295D02*
D03*
X1674327D02*
D03*
X1672358D02*
D03*
X1670390D02*
D03*
X1668421D02*
D03*
X1666453D02*
D03*
X1664484D02*
D03*
X1662516D02*
D03*
X1660547D02*
D03*
X1658579D02*
D03*
X1656610D02*
D03*
X1654642D02*
D03*
X1652673D02*
D03*
X1650705D02*
D03*
X1648736D02*
D03*
X1646768D02*
D03*
X1644799D02*
D03*
X1642831D02*
D03*
X1640862D02*
D03*
X1638894D02*
D03*
X1636925D02*
D03*
X1634957D02*
D03*
X1632988D02*
D03*
X1631020D02*
D03*
X1629051D02*
D03*
D52*
X1574952Y1122912D02*
D03*
Y1120943D02*
D03*
Y1118975D02*
D03*
Y1117006D02*
D03*
Y1115038D02*
D03*
Y1113069D02*
D03*
Y1111101D02*
D03*
Y1109132D02*
D03*
Y1107164D02*
D03*
Y1105195D02*
D03*
Y1103227D02*
D03*
Y1101258D02*
D03*
Y1099290D02*
D03*
Y1097321D02*
D03*
Y1095353D02*
D03*
Y1093384D02*
D03*
Y1091416D02*
D03*
Y1089447D02*
D03*
Y1087479D02*
D03*
Y1085510D02*
D03*
Y1083542D02*
D03*
Y1081573D02*
D03*
Y1079605D02*
D03*
Y1077636D02*
D03*
Y1075668D02*
D03*
Y1073699D02*
D03*
Y1071731D02*
D03*
Y1069762D02*
D03*
Y1067794D02*
D03*
Y1065825D02*
D03*
Y1063857D02*
D03*
Y1061888D02*
D03*
Y1059920D02*
D03*
Y1057951D02*
D03*
Y1055983D02*
D03*
Y1054014D02*
D03*
X1490400D02*
D03*
Y1055983D02*
D03*
Y1057951D02*
D03*
Y1059920D02*
D03*
Y1061888D02*
D03*
Y1063857D02*
D03*
Y1065825D02*
D03*
Y1067794D02*
D03*
Y1069762D02*
D03*
Y1071731D02*
D03*
Y1073699D02*
D03*
Y1075668D02*
D03*
Y1077636D02*
D03*
Y1079605D02*
D03*
Y1081573D02*
D03*
Y1083542D02*
D03*
Y1085510D02*
D03*
Y1087479D02*
D03*
Y1089447D02*
D03*
Y1091416D02*
D03*
Y1093384D02*
D03*
Y1095353D02*
D03*
Y1097321D02*
D03*
Y1099290D02*
D03*
Y1101258D02*
D03*
Y1103227D02*
D03*
Y1105195D02*
D03*
Y1107164D02*
D03*
Y1109132D02*
D03*
Y1111101D02*
D03*
Y1113069D02*
D03*
Y1115038D02*
D03*
Y1117006D02*
D03*
Y1118975D02*
D03*
Y1120943D02*
D03*
Y1122912D02*
D03*
X1705776Y1123331D02*
D03*
Y1121362D02*
D03*
Y1119394D02*
D03*
Y1117425D02*
D03*
Y1115457D02*
D03*
Y1113488D02*
D03*
Y1111520D02*
D03*
Y1109551D02*
D03*
Y1107583D02*
D03*
Y1105614D02*
D03*
Y1103646D02*
D03*
Y1101677D02*
D03*
Y1099709D02*
D03*
Y1097740D02*
D03*
Y1095772D02*
D03*
Y1093803D02*
D03*
Y1091835D02*
D03*
Y1089866D02*
D03*
Y1087898D02*
D03*
Y1085929D02*
D03*
Y1083961D02*
D03*
Y1081992D02*
D03*
Y1080024D02*
D03*
Y1078055D02*
D03*
Y1076087D02*
D03*
Y1074118D02*
D03*
Y1072150D02*
D03*
Y1070181D02*
D03*
Y1068213D02*
D03*
Y1066244D02*
D03*
Y1064276D02*
D03*
Y1062307D02*
D03*
Y1060338D02*
D03*
Y1058370D02*
D03*
Y1056402D02*
D03*
Y1054433D02*
D03*
X1621224D02*
D03*
Y1056402D02*
D03*
Y1058370D02*
D03*
Y1060338D02*
D03*
Y1062307D02*
D03*
Y1064276D02*
D03*
Y1066244D02*
D03*
Y1068213D02*
D03*
Y1070181D02*
D03*
Y1072150D02*
D03*
Y1074118D02*
D03*
Y1076087D02*
D03*
Y1078055D02*
D03*
Y1080024D02*
D03*
Y1081992D02*
D03*
Y1083961D02*
D03*
Y1085929D02*
D03*
Y1087898D02*
D03*
Y1089866D02*
D03*
Y1091835D02*
D03*
Y1093803D02*
D03*
Y1095772D02*
D03*
Y1097740D02*
D03*
Y1099709D02*
D03*
Y1101677D02*
D03*
Y1103646D02*
D03*
Y1105614D02*
D03*
Y1107583D02*
D03*
Y1109551D02*
D03*
Y1111520D02*
D03*
Y1113488D02*
D03*
Y1115457D02*
D03*
Y1117425D02*
D03*
Y1119394D02*
D03*
Y1121362D02*
D03*
Y1123331D02*
D03*
D53*
X1721500Y1106055D02*
D03*
X1726500D02*
D03*
X1731500D02*
D03*
X1736500D02*
D03*
Y1077709D02*
D03*
X1731500D02*
D03*
X1726500D02*
D03*
X1721500D02*
D03*
X1462262Y1128563D02*
D03*
X1467262D02*
D03*
X1472262D02*
D03*
X1477262D02*
D03*
Y1100216D02*
D03*
X1472262D02*
D03*
X1467262D02*
D03*
X1462262D02*
D03*
D54*
X1608000Y1052882D02*
D03*
X1604535D02*
D03*
X1628232Y1138882D02*
D03*
X1624768D02*
D03*
X1612500Y1098382D02*
D03*
X1609035D02*
D03*
X1653768Y1138882D02*
D03*
X1657232D02*
D03*
X1673768D02*
D03*
X1677232D02*
D03*
X1675525Y1040382D02*
D03*
X1678990D02*
D03*
X1659732D02*
D03*
X1656268D02*
D03*
X1633500D02*
D03*
X1630035D02*
D03*
X1621500Y1032882D02*
D03*
X1618035D02*
D03*
X1662000D02*
D03*
X1658535D02*
D03*
X1679000D02*
D03*
X1675535D02*
D03*
X1689965D02*
D03*
X1686500D02*
D03*
X1695000D02*
D03*
X1698465D02*
D03*
X1703500D02*
D03*
X1706965D02*
D03*
X1667035D02*
D03*
X1670500D02*
D03*
X1576140Y1032463D02*
D03*
X1572676D02*
D03*
X1559140D02*
D03*
X1555676D02*
D03*
X1567640D02*
D03*
X1564176D02*
D03*
X1544711D02*
D03*
X1548176D02*
D03*
X1548408Y1039963D02*
D03*
X1544944D02*
D03*
X1528908D02*
D03*
X1525444D02*
D03*
X1531170Y1032463D02*
D03*
X1527705D02*
D03*
X1536101Y1032526D02*
D03*
X1539566D02*
D03*
X1498125Y1138687D02*
D03*
X1494660D02*
D03*
X1473711Y1052463D02*
D03*
X1477176D02*
D03*
X1487211Y1032463D02*
D03*
X1490676D02*
D03*
X1502676Y1039963D02*
D03*
X1499211D02*
D03*
X1542625Y1138687D02*
D03*
X1546089D02*
D03*
X1523125D02*
D03*
X1526589D02*
D03*
D55*
X1614545Y1058142D02*
D03*
Y1054677D02*
D03*
X1712000Y1125346D02*
D03*
Y1121882D02*
D03*
X1712500Y1076882D02*
D03*
Y1073417D02*
D03*
X1709000Y1046382D02*
D03*
Y1049846D02*
D03*
X1621500Y964417D02*
D03*
Y967882D02*
D03*
X1664500Y964417D02*
D03*
Y967882D02*
D03*
X1670500D02*
D03*
Y964417D02*
D03*
X1678500D02*
D03*
Y967882D02*
D03*
X1688000D02*
D03*
Y964417D02*
D03*
X1697500D02*
D03*
Y967882D02*
D03*
X1704039Y964417D02*
D03*
Y967882D02*
D03*
X1578176Y1045998D02*
D03*
Y1049463D02*
D03*
X1573215Y967463D02*
D03*
Y963998D02*
D03*
X1566676Y967463D02*
D03*
Y963998D02*
D03*
X1557176D02*
D03*
Y967463D02*
D03*
X1533676D02*
D03*
Y963998D02*
D03*
X1539676D02*
D03*
Y967463D02*
D03*
X1547676D02*
D03*
Y963998D02*
D03*
X1581774Y1076466D02*
D03*
Y1073001D02*
D03*
X1581176Y1124928D02*
D03*
Y1121463D02*
D03*
X1483721Y1057723D02*
D03*
Y1054258D02*
D03*
X1482833Y1098294D02*
D03*
Y1101758D02*
D03*
X1490718Y967505D02*
D03*
Y964040D02*
D03*
D56*
X1611650Y1074551D02*
D03*
X1605350D02*
D03*
X1611650Y1083213D02*
D03*
X1605350D02*
D03*
X1480826Y1074132D02*
D03*
Y1082794D02*
D03*
X1474526Y1074132D02*
D03*
Y1082794D02*
D03*
D57*
X1703445Y1023622D02*
D03*
X1700295D02*
D03*
X1697146D02*
D03*
X1693996D02*
D03*
X1690846D02*
D03*
X1687697D02*
D03*
X1684547D02*
D03*
X1681398D02*
D03*
X1678248D02*
D03*
X1675098D02*
D03*
X1671949D02*
D03*
X1668799D02*
D03*
X1665650D02*
D03*
X1662500D02*
D03*
X1659350D02*
D03*
X1656201D02*
D03*
X1653051D02*
D03*
X1649902D02*
D03*
X1646752D02*
D03*
X1643602D02*
D03*
X1640453D02*
D03*
X1637303D02*
D03*
X1634154D02*
D03*
X1631004D02*
D03*
X1627854D02*
D03*
X1624705D02*
D03*
X1621555D02*
D03*
Y977559D02*
D03*
X1624705D02*
D03*
X1627854D02*
D03*
X1631004D02*
D03*
X1634154D02*
D03*
X1637303D02*
D03*
X1640453D02*
D03*
X1643602D02*
D03*
X1646752D02*
D03*
X1649902D02*
D03*
X1653051D02*
D03*
X1656201D02*
D03*
X1659350D02*
D03*
X1662500D02*
D03*
X1665650D02*
D03*
X1668799D02*
D03*
X1671949D02*
D03*
X1675098D02*
D03*
X1678248D02*
D03*
X1681398D02*
D03*
X1684547D02*
D03*
X1687697D02*
D03*
X1690846D02*
D03*
X1693996D02*
D03*
X1697146D02*
D03*
X1700295D02*
D03*
X1703445D02*
D03*
X1497024Y977146D02*
D03*
X1503324Y1023209D02*
D03*
X1525371D02*
D03*
X1506473Y977146D02*
D03*
Y1023209D02*
D03*
X1544268D02*
D03*
X1541119Y977146D02*
D03*
X1522221Y1023209D02*
D03*
X1493875D02*
D03*
X1569465Y977146D02*
D03*
X1528520Y1023209D02*
D03*
X1500174D02*
D03*
X1519072D02*
D03*
X1500174Y977146D02*
D03*
X1541119Y1023209D02*
D03*
X1544268Y977146D02*
D03*
X1572615D02*
D03*
X1556867Y1023209D02*
D03*
X1566316Y977146D02*
D03*
X1537969Y1023209D02*
D03*
X1547418Y977146D02*
D03*
X1531670D02*
D03*
X1490725D02*
D03*
X1519072D02*
D03*
X1493875D02*
D03*
X1509623D02*
D03*
X1534820Y1023209D02*
D03*
X1550568Y977146D02*
D03*
X1569465Y1023209D02*
D03*
X1563166D02*
D03*
X1553717D02*
D03*
X1512772D02*
D03*
X1515922D02*
D03*
X1503324Y977146D02*
D03*
X1512772D02*
D03*
X1550568Y1023209D02*
D03*
X1534820Y977146D02*
D03*
X1553717D02*
D03*
X1560016Y1023209D02*
D03*
X1525371Y977146D02*
D03*
X1497024Y1023209D02*
D03*
X1563166Y977146D02*
D03*
X1509623Y1023209D02*
D03*
X1522221Y977146D02*
D03*
X1566316Y1023209D02*
D03*
X1572615D02*
D03*
X1547418D02*
D03*
X1531670D02*
D03*
X1490725D02*
D03*
X1556867Y977146D02*
D03*
X1537969D02*
D03*
X1560016D02*
D03*
X1528520D02*
D03*
X1515922D02*
D03*
D58*
X1728209Y998398D02*
D03*
X1723209D02*
D03*
X1718209D02*
D03*
X1713209D02*
D03*
Y977043D02*
D03*
X1718209D02*
D03*
X1723209D02*
D03*
X1728209D02*
D03*
X1476333Y1042703D02*
D03*
X1471333D02*
D03*
X1466333D02*
D03*
X1461333D02*
D03*
Y1021349D02*
D03*
X1466333D02*
D03*
X1471333D02*
D03*
X1476333D02*
D03*
X1475833Y998203D02*
D03*
X1470833D02*
D03*
X1465833D02*
D03*
X1460833D02*
D03*
Y976849D02*
D03*
X1465833D02*
D03*
X1470833D02*
D03*
X1475833D02*
D03*
D59*
X1614230Y1105021D02*
D03*
X1604387D02*
D03*
D60*
X1911043Y974382D02*
D03*
Y979382D02*
D03*
Y984382D02*
D03*
Y989382D02*
D03*
Y994382D02*
D03*
Y999382D02*
D03*
Y1004382D02*
D03*
X1932500D02*
D03*
Y999382D02*
D03*
Y994382D02*
D03*
Y989382D02*
D03*
Y984382D02*
D03*
Y979382D02*
D03*
Y974382D02*
D03*
X2043500D02*
D03*
Y979382D02*
D03*
Y984382D02*
D03*
Y989382D02*
D03*
Y994382D02*
D03*
Y999382D02*
D03*
Y1004382D02*
D03*
X2064957D02*
D03*
Y999382D02*
D03*
Y994382D02*
D03*
Y989382D02*
D03*
Y984382D02*
D03*
Y979382D02*
D03*
Y974382D02*
D03*
X1383728Y980882D02*
D03*
Y985882D02*
D03*
Y990882D02*
D03*
Y995882D02*
D03*
Y1000882D02*
D03*
Y1005882D02*
D03*
Y1010882D02*
D03*
X1362271D02*
D03*
Y1005882D02*
D03*
Y1000882D02*
D03*
Y995882D02*
D03*
Y990882D02*
D03*
Y985882D02*
D03*
Y980882D02*
D03*
X2064957Y1134382D02*
D03*
Y1139382D02*
D03*
Y1144382D02*
D03*
Y1149382D02*
D03*
Y1154382D02*
D03*
Y1159382D02*
D03*
Y1164382D02*
D03*
X2043500D02*
D03*
Y1159382D02*
D03*
Y1154382D02*
D03*
Y1149382D02*
D03*
Y1144382D02*
D03*
Y1139382D02*
D03*
Y1134382D02*
D03*
X1931000Y1132382D02*
D03*
Y1137382D02*
D03*
Y1142382D02*
D03*
Y1147382D02*
D03*
Y1152382D02*
D03*
Y1157382D02*
D03*
Y1162382D02*
D03*
X1909543D02*
D03*
Y1157382D02*
D03*
Y1152382D02*
D03*
Y1147382D02*
D03*
Y1142382D02*
D03*
Y1137382D02*
D03*
Y1132382D02*
D03*
D61*
X1896433Y1083398D02*
D03*
Y1080838D02*
D03*
Y1078279D02*
D03*
Y1075721D02*
D03*
Y1073162D02*
D03*
Y1070602D02*
D03*
Y1068043D02*
D03*
Y1065484D02*
D03*
Y1062925D02*
D03*
Y1060366D02*
D03*
X1919567D02*
D03*
Y1062925D02*
D03*
Y1065484D02*
D03*
Y1068043D02*
D03*
Y1070602D02*
D03*
Y1073162D02*
D03*
Y1075721D02*
D03*
Y1078279D02*
D03*
Y1080838D02*
D03*
Y1083398D02*
D03*
D62*
X2030000Y1042610D02*
D03*
X2035000D02*
D03*
X2040000D02*
D03*
X2045000D02*
D03*
X2050000D02*
D03*
X2055000D02*
D03*
X2060000D02*
D03*
X2065000D02*
D03*
Y1021154D02*
D03*
X2060000D02*
D03*
X2055000D02*
D03*
X2050000D02*
D03*
X2045000D02*
D03*
X2040000D02*
D03*
X2035000D02*
D03*
X2030000D02*
D03*
Y1080610D02*
D03*
X2035000D02*
D03*
X2040000D02*
D03*
X2045000D02*
D03*
X2050000D02*
D03*
X2055000D02*
D03*
X2060000D02*
D03*
X2065000D02*
D03*
Y1059153D02*
D03*
X2060000D02*
D03*
X2055000D02*
D03*
X2050000D02*
D03*
X2045000D02*
D03*
X2040000D02*
D03*
X2035000D02*
D03*
X2030000D02*
D03*
X2030000Y1117382D02*
D03*
X2035000D02*
D03*
X2040000D02*
D03*
X2045000D02*
D03*
X2050000D02*
D03*
X2055000D02*
D03*
X2060000D02*
D03*
X2065000D02*
D03*
Y1095925D02*
D03*
X2060000Y1095925D02*
D03*
X2055000Y1095925D02*
D03*
X2050000Y1095925D02*
D03*
X2045000Y1095925D02*
D03*
X2040000D02*
D03*
X2035000Y1095925D02*
D03*
X2030000Y1095925D02*
D03*
M02*
