M48
;Layer_Color=9474304
;FILE_FORMAT=2:5
INCH,LZ
;TYPE=PLATED
T04F00S00C0.02362
T06F00S00C0.03150
T12F00S00C0.05512
T14F00S00C0.07874
;TYPE=NON_PLATED
T16F00S00C0.06693
%
G90
G05
T04
G00X1865773Y1303706
M15
G01Y1299179
M16
G00X1865773Y1319671
M15
G01Y1316128
M16
G00X1899789Y1319671
M15
G01Y1316128
M16
G00X1899789Y1303706
M15
G01Y1299179
M16
T06
G00X1376008Y1261044
M15
G01Y1254744
M16
G00X1376008Y1285847
M15
G01Y1279547
M16
G00X1376008Y131065
M15
G01Y130435
M16
G00X1439Y1310059
M15
G01Y1304941
M16
G00X1439Y1285256
M15
G01Y1280138
M16
G00X1439Y1260453
M15
G01Y1255335
M16
G00X1653009Y126065
M15
G01Y125435
M16
G00X1653009Y1285453
M15
G01Y1279153
M16
G00X1653009Y1310256
M15
G01Y1303956
M16
G00X1716001Y1309665
M15
G01Y1304547
M16
G00X1716001Y1284862
M15
G01Y1279744
M16
G00X1716001Y1260059
M15
G01Y1254941
M16
G00X1751501Y1261044
M15
G01Y1254744
M16
G00X1751501Y1285847
M15
G01Y1279547
M16
G00X1751501Y131065
M15
G01Y130435
M16
G00X1814493Y1310059
M15
G01Y1304941
M16
G00X1814493Y1285256
M15
G01Y1280138
M16
G00X1814493Y1260453
M15
G01Y1255335
M16
T12
G00X1398622Y0995504
M15
G01Y1001016
M16
G00X1443504Y0995504
M15
G01Y1001016
M16
G00X1945434Y0995504
M15
G01Y1001016
M16
G00X1990316Y0995504
M15
G01Y1001016
M16
G00X2083229Y0995504
M15
G01Y1001016
M16
G00X2128111Y0995504
M15
G01Y1001016
M16
G00X2128111Y1133299
M15
G01Y1138811
M16
G00X2083229Y1133299
M15
G01Y1138811
M16
G00X1990316Y1133299
M15
G01Y1138811
M16
G00X1945434Y1133299
M15
G01Y1138811
M16
G00X144Y1129126
M15
G01Y1134638
M16
G00X1402Y1129126
M15
G01Y1134638
M16
T14
G00X14525Y1144094
M15
G01Y1045669
M16
T16
G00X2139292Y0891312
M15
G01X2141261
M16
G00X2099607Y0891312
M15
G01X2097638
M16
G00X2056615Y0891312
M15
G01X2058584
M16
G00X201693Y0891312
M15
G01X2014961
M16
G00X1974104Y0891312
M15
G01X1976073
M16
G00X1934419Y0891312
M15
G01X193245
M16
G00X1727649Y0891312
M15
G01X1729617
M16
G00X1687963Y0891312
M15
G01X1685995
M16
G00X1602981Y0891312
M15
G01X1604949
M16
G00X1563295Y0891312
M15
G01X1561327
M16
G00X1854134Y0997979
M15
G01Y0996011
M16
G00X1854134Y1037665
M15
G01Y1039633
M16
G00X1854134Y1096238
M15
G01Y109427
M16
G00X1854134Y1135924
M15
G01Y1137892
M16
M17
M30
