G04*
G04 #@! TF.GenerationSoftware,Altium Limited,Altium Designer,24.2.2 (26)*
G04*
G04 Layer_Color=32896*
%FSLAX25Y25*%
%MOIN*%
G70*
G04*
G04 #@! TF.SameCoordinates,5957EE86-81F1-4C7A-B0E9-50F0B43EC399*
G04*
G04*
G04 #@! TF.FilePolarity,Positive*
G04*
G01*
G75*
%ADD10C,0.00787*%
%ADD11C,0.00600*%
%ADD12C,0.01000*%
%ADD14C,0.00394*%
%ADD15C,0.01200*%
%ADD16C,0.00591*%
%ADD18C,0.00500*%
G36*
X1556528Y844264D02*
X1554527Y847264D01*
D01*
X1558527Y847264D01*
X1556528Y844264D01*
D02*
G37*
G36*
X1486831Y1248000D02*
X1484831Y1251000D01*
D01*
X1488831Y1251000D01*
X1486831Y1248000D01*
D02*
G37*
G36*
X1565579D02*
X1563579Y1251000D01*
D01*
X1567579D01*
X1565579Y1248000D01*
D02*
G37*
D10*
X1869789Y1292703D02*
G03*
X1869789Y1292703I-394J0D01*
G01*
X1799235Y1043971D02*
G03*
X1798448Y1043971I-394J0D01*
G01*
D02*
G03*
X1799235Y1043971I394J0D01*
G01*
D11*
X1800342Y1047071D02*
X1801942Y1047071D01*
X1800342Y1054945D02*
X1801942Y1054945D01*
X1800342Y1064787D02*
X1801942D01*
X1800342Y1074630D02*
X1801942D01*
X1800342Y1084472D02*
X1801942Y1084472D01*
X1800342Y1094315D02*
X1801942Y1094315D01*
X1800342Y1104158D02*
X1801942D01*
X1800342Y1114000D02*
X1801942D01*
X1800342Y1123843D02*
X1801942D01*
X1800342Y1133685D02*
X1801942D01*
X1800342Y1143528D02*
X1801942D01*
X1803042Y1046671D02*
Y1047504D01*
Y1047087D01*
X1805541D01*
X1805124Y1046671D01*
X1805541Y1056211D02*
Y1054545D01*
X1804291D01*
X1804708Y1055378D01*
Y1055795D01*
X1804291Y1056211D01*
X1803458D01*
X1803042Y1055795D01*
Y1054961D01*
X1803458Y1054545D01*
X1803042Y1064388D02*
Y1065221D01*
Y1064804D01*
X1805541D01*
X1805124Y1064388D01*
Y1066470D02*
X1805541Y1066887D01*
Y1067720D01*
X1805124Y1068136D01*
X1803458D01*
X1803042Y1067720D01*
Y1066887D01*
X1803458Y1066470D01*
X1805124D01*
X1803042Y1074230D02*
Y1075063D01*
Y1074646D01*
X1805541D01*
X1805124Y1074230D01*
X1805541Y1077979D02*
Y1076313D01*
X1804291D01*
X1804708Y1077146D01*
Y1077562D01*
X1804291Y1077979D01*
X1803458D01*
X1803042Y1077562D01*
Y1076729D01*
X1803458Y1076313D01*
X1803042Y1085739D02*
Y1084072D01*
X1804708Y1085739D01*
X1805124D01*
X1805541Y1085322D01*
Y1084489D01*
X1805124Y1084072D01*
Y1086572D02*
X1805541Y1086988D01*
Y1087821D01*
X1805124Y1088238D01*
X1803458D01*
X1803042Y1087821D01*
Y1086988D01*
X1803458Y1086572D01*
X1805124D01*
X1803042Y1095581D02*
Y1093915D01*
X1804708Y1095581D01*
X1805124D01*
X1805541Y1095165D01*
Y1094332D01*
X1805124Y1093915D01*
X1805541Y1098080D02*
Y1096414D01*
X1804291D01*
X1804708Y1097247D01*
Y1097664D01*
X1804291Y1098080D01*
X1803458D01*
X1803042Y1097664D01*
Y1096831D01*
X1803458Y1096414D01*
X1805124Y1103758D02*
X1805541Y1104174D01*
Y1105007D01*
X1805124Y1105424D01*
X1804708D01*
X1804291Y1105007D01*
Y1104591D01*
Y1105007D01*
X1803875Y1105424D01*
X1803458D01*
X1803042Y1105007D01*
Y1104174D01*
X1803458Y1103758D01*
X1805124Y1106257D02*
X1805541Y1106673D01*
Y1107506D01*
X1805124Y1107923D01*
X1803458D01*
X1803042Y1107506D01*
Y1106673D01*
X1803458Y1106257D01*
X1805124D01*
Y1113600D02*
X1805541Y1114017D01*
Y1114850D01*
X1805124Y1115266D01*
X1804708D01*
X1804291Y1114850D01*
Y1114433D01*
Y1114850D01*
X1803875Y1115266D01*
X1803458D01*
X1803042Y1114850D01*
Y1114017D01*
X1803458Y1113600D01*
X1805541Y1117765D02*
Y1116099D01*
X1804291D01*
X1804708Y1116932D01*
Y1117349D01*
X1804291Y1117765D01*
X1803458D01*
X1803042Y1117349D01*
Y1116516D01*
X1803458Y1116099D01*
X1803042Y1124692D02*
X1805541D01*
X1804291Y1123443D01*
Y1125109D01*
X1805124Y1125942D02*
X1805541Y1126358D01*
Y1127191D01*
X1805124Y1127608D01*
X1803458D01*
X1803042Y1127191D01*
Y1126358D01*
X1803458Y1125942D01*
X1805124D01*
X1803042Y1134535D02*
X1805541D01*
X1804291Y1133285D01*
Y1134951D01*
X1805541Y1137450D02*
Y1135784D01*
X1804291D01*
X1804708Y1136617D01*
Y1137034D01*
X1804291Y1137450D01*
X1803458D01*
X1803042Y1137034D01*
Y1136201D01*
X1803458Y1135784D01*
X1805541Y1144794D02*
Y1143128D01*
X1804291D01*
X1804708Y1143961D01*
Y1144377D01*
X1804291Y1144794D01*
X1803458D01*
X1803042Y1144377D01*
Y1143544D01*
X1803458Y1143128D01*
X1805124Y1145627D02*
X1805541Y1146043D01*
Y1146876D01*
X1805124Y1147293D01*
X1803458D01*
X1803042Y1146876D01*
Y1146043D01*
X1803458Y1145627D01*
X1805124D01*
D12*
X1827981Y1323999D02*
X1982981D01*
X1827981Y1238000D02*
Y1323999D01*
X1982981Y1238000D02*
Y1323999D01*
X1827981Y1238000D02*
X1982981D01*
X1368133Y1241360D02*
Y1324037D01*
X1446873D01*
Y1241360D02*
Y1324037D01*
X1368133Y1241360D02*
X1446873D01*
X1385850Y1324037D02*
Y1357502D01*
X1429157Y1324037D02*
Y1357502D01*
X1389984Y1229549D02*
X1401991Y1227187D01*
X1413015D02*
X1425023Y1229549D01*
X1389984D02*
Y1241360D01*
X1425023Y1229549D02*
Y1241360D01*
X1401991Y1227187D02*
X1413015D01*
X1389984Y1229549D02*
X1425023D01*
X1385850Y1357502D02*
X1429157D01*
X1385850Y1349628D02*
X1429157Y1345691D01*
X1385850Y1357502D02*
X1429157Y1353565D01*
X1385850D02*
X1429157Y1349628D01*
X1385850Y1345691D02*
X1429157Y1341754D01*
X1385850D02*
X1429157Y1337817D01*
X1385850D02*
X1429157Y1333880D01*
X1385850D02*
X1429157Y1329943D01*
X1385850D02*
X1429157Y1326006D01*
X1475331Y1236079D02*
X1493287D01*
X1497075Y1236079D02*
X1501161D01*
X1504949D02*
X1509035D01*
X1512823D02*
X1516909D01*
X1520697D02*
X1524783D01*
X1528571Y1236079D02*
X1532657Y1236079D01*
X1475331Y1245921D02*
X1489350D01*
X1493138D02*
X1497224D01*
X1501012D02*
X1505098D01*
X1508886D02*
X1512972D01*
X1516760D02*
X1520846D01*
X1524634D02*
X1528720D01*
X1475331Y1236079D02*
Y1245921D01*
X1550465Y1236079D02*
Y1245921D01*
X1536445Y1236079D02*
X1550465D01*
X1532508Y1245921D02*
X1550465D01*
X1538898Y1237500D02*
Y1243500D01*
X1487398D02*
X1538898D01*
X1487398Y1238000D02*
Y1243500D01*
X1566146Y1238000D02*
Y1243500D01*
X1617646D01*
Y1237500D02*
Y1243500D01*
X1611256Y1245921D02*
X1629213D01*
X1615193Y1236079D02*
X1629213D01*
Y1245921D01*
X1554079Y1236079D02*
Y1245921D01*
X1603382D02*
X1607468D01*
X1595508D02*
X1599594D01*
X1587634D02*
X1591720D01*
X1579760D02*
X1583846D01*
X1571886D02*
X1575972D01*
X1554079D02*
X1568098D01*
X1607319Y1236079D02*
X1611405D01*
X1599445D02*
X1603531D01*
X1591571D02*
X1595657D01*
X1583697D02*
X1587783D01*
X1575823D02*
X1579909Y1236079D01*
X1554079D02*
X1572035D01*
X1557094Y834264D02*
Y839764D01*
X1608595D01*
X1608595Y833764D02*
X1608595Y839764D01*
X1602205Y842185D02*
X1620161D01*
X1606142Y832343D02*
X1620161D01*
Y842185D01*
X1545028Y832343D02*
Y842185D01*
X1594331Y842185D02*
X1598417Y842185D01*
X1586457Y842185D02*
X1590543Y842185D01*
X1578583Y842185D02*
X1582669Y842185D01*
X1570709Y842185D02*
X1574795D01*
X1562835Y842185D02*
X1566921D01*
X1545028D02*
X1559047D01*
X1598268Y832343D02*
X1602354D01*
X1590394D02*
X1594480Y832343D01*
X1582520Y832343D02*
X1586606Y832343D01*
X1574646Y832343D02*
X1578732Y832343D01*
X1566772Y832343D02*
X1570858D01*
X1545028D02*
X1562984D01*
X1705807Y1014370D02*
Y1020276D01*
Y980906D02*
Y1008465D01*
X1619193Y980906D02*
X1705807D01*
X1619193D02*
Y1008465D01*
Y1014370D02*
Y1020276D01*
X1705807D01*
X1645134Y1240966D02*
Y1323643D01*
X1723875D01*
Y1240966D02*
Y1323643D01*
X1645134Y1240966D02*
X1723875D01*
X1662851Y1323643D02*
Y1357108D01*
X1706158Y1323643D02*
Y1357108D01*
X1666985Y1229155D02*
X1678993Y1226793D01*
X1690016D02*
X1702024Y1229155D01*
X1666985D02*
Y1240966D01*
X1702024Y1229155D02*
Y1240966D01*
X1678993Y1226793D02*
X1690016D01*
X1666985Y1229155D02*
X1702024D01*
X1662851Y1357108D02*
X1706158Y1357108D01*
X1662851Y1349234D02*
X1706158Y1345297D01*
X1662851Y1357108D02*
X1706158Y1353171D01*
X1662851D02*
X1706158Y1349234D01*
X1662851Y1345297D02*
X1706158Y1341360D01*
X1662851D02*
X1706158Y1337423D01*
X1662851D02*
X1706158Y1333486D01*
X1662851D02*
X1706158Y1329549D01*
X1662851D02*
X1706158Y1325612D01*
X1743627Y1241360D02*
Y1324037D01*
X1822367D01*
Y1241360D02*
Y1324037D01*
X1743627Y1241360D02*
X1822367D01*
X1761343Y1324037D02*
Y1357502D01*
X1804650Y1324037D02*
Y1357502D01*
X1765477Y1229549D02*
X1777485Y1227187D01*
X1788508D02*
X1800516Y1229549D01*
X1765477D02*
Y1241360D01*
X1800516Y1229549D02*
Y1241360D01*
X1777485Y1227187D02*
X1788508D01*
X1765477Y1229549D02*
X1800516D01*
X1761343Y1357502D02*
X1804650Y1357502D01*
X1761343Y1349628D02*
X1804650Y1345691D01*
X1761343Y1357502D02*
X1804650Y1353565D01*
X1761343D02*
X1804650Y1349628D01*
X1761343Y1345691D02*
X1804650Y1341754D01*
X1761343D02*
X1804650Y1337817D01*
X1761343D02*
X1804650Y1333880D01*
X1761343D02*
X1804650Y1329943D01*
X1761343D02*
X1804650Y1326006D01*
X1574977Y1013957D02*
Y1019862D01*
Y980492D02*
Y1008051D01*
X1488363Y980492D02*
X1574977D01*
X1488363D02*
Y1008051D01*
Y1013957D02*
Y1019862D01*
X1574977D01*
D14*
X1777142Y1148871D02*
X1782654D01*
Y1145721D02*
Y1148871D01*
X1782795Y1035295D02*
Y1038445D01*
X1777283Y1035295D02*
X1782795D01*
X1777283D02*
X1777283Y1148871D01*
D15*
X1703839Y984842D02*
G03*
X1703839Y984842I-1969J0D01*
G01*
X1619193Y1008465D02*
G03*
X1619193Y1014370I0J2953D01*
G01*
X1705807D02*
G03*
X1705807Y1008465I0J-2953D01*
G01*
X1573009Y984429D02*
G03*
X1573009Y984429I-1969J0D01*
G01*
X1488363Y1008051D02*
G03*
X1488363Y1013957I0J2953D01*
G01*
X1574977D02*
G03*
X1574977Y1008051I0J-2953D01*
G01*
D16*
X1812264Y1132587D02*
Y1136587D01*
X1807764Y1136087D02*
Y1136587D01*
X1816764D01*
Y1136087D02*
Y1136587D01*
Y1132587D02*
Y1133087D01*
X1807764Y1132587D02*
X1816764D01*
X1807764Y1133087D02*
X1807764Y1132587D01*
X1812264Y1132456D02*
X1812264Y1128456D01*
X1807764Y1131956D02*
Y1132456D01*
X1816764D01*
Y1131956D02*
Y1132456D01*
X1816764Y1128456D02*
Y1128956D01*
X1807764Y1128456D02*
X1816764D01*
X1807764Y1128956D02*
X1807764Y1128456D01*
X1812264Y1124324D02*
X1812264Y1128324D01*
X1807764Y1128324D02*
X1807764Y1127824D01*
X1807764Y1128324D02*
X1816764Y1128324D01*
X1816764Y1127824D02*
X1816764Y1128324D01*
X1816764Y1124324D02*
Y1124824D01*
X1807764Y1124324D02*
X1816764D01*
X1807764D02*
X1807764Y1124824D01*
X1812264Y1120193D02*
Y1124193D01*
X1807764D02*
X1807764Y1123693D01*
X1807764Y1124193D02*
X1816764D01*
X1816764Y1123693D01*
X1816764Y1120193D02*
X1816764Y1120693D01*
X1807764Y1120193D02*
X1816764D01*
X1807764D02*
X1807764Y1120693D01*
X1812264Y1120061D02*
X1812264Y1116061D01*
X1807764Y1120061D02*
X1807764Y1119561D01*
X1807764Y1120061D02*
X1816764Y1120061D01*
Y1119561D02*
Y1120061D01*
Y1116061D02*
Y1116561D01*
X1807764Y1116061D02*
X1816764D01*
X1807764D02*
X1807764Y1116561D01*
X1812264Y1111929D02*
X1812264Y1115929D01*
X1807764Y1115429D02*
X1807764Y1115929D01*
X1816764Y1115929D01*
Y1115429D02*
Y1115929D01*
X1816764Y1111929D02*
Y1112429D01*
X1807764Y1111929D02*
X1816764D01*
X1807764D02*
Y1112429D01*
X1812264Y1107798D02*
X1812264Y1111798D01*
X1807764Y1111298D02*
Y1111798D01*
X1816764Y1111798D01*
Y1111298D02*
Y1111798D01*
X1816764Y1107798D02*
X1816764Y1108298D01*
X1807764Y1107798D02*
X1816764D01*
X1807764D02*
Y1108298D01*
X1812264Y1103666D02*
Y1107666D01*
X1807764D02*
X1807764Y1107166D01*
X1807764Y1107666D02*
X1816764D01*
X1816764Y1107166D02*
X1816764Y1107666D01*
X1816764Y1103666D02*
X1816764Y1104166D01*
X1807764Y1103666D02*
X1816764D01*
X1807764D02*
X1807764Y1104166D01*
X1812264Y1099535D02*
Y1103535D01*
X1807764Y1103035D02*
Y1103535D01*
X1816764D01*
Y1103035D02*
Y1103535D01*
Y1100035D02*
X1816764Y1099535D01*
X1807764D02*
X1816764D01*
X1807764D02*
X1807764Y1100035D01*
X1812264Y1095403D02*
Y1099403D01*
X1807764D02*
X1807764Y1098903D01*
X1807764Y1099403D02*
X1816764D01*
X1816764Y1098903D01*
Y1095403D02*
Y1095903D01*
X1807764Y1095403D02*
X1816764Y1095403D01*
X1807764Y1095403D02*
Y1095903D01*
X1812264Y1095271D02*
X1812264Y1091271D01*
X1807764Y1094771D02*
Y1095271D01*
X1816764D01*
Y1094771D02*
Y1095271D01*
Y1091772D02*
X1816764Y1091271D01*
X1807764D02*
X1816764D01*
X1807764Y1091772D02*
X1807764Y1091271D01*
X1812264Y1091140D02*
X1812264Y1087140D01*
X1807764Y1090640D02*
Y1091140D01*
X1816764Y1091140D01*
X1816764Y1090640D02*
X1816764Y1091140D01*
X1816764Y1087140D02*
Y1087640D01*
X1807764Y1087140D02*
X1816764D01*
X1807764D02*
X1807764Y1087640D01*
X1812264Y1083008D02*
Y1087008D01*
X1807764Y1086508D02*
Y1087008D01*
X1816764D01*
Y1086508D02*
Y1087008D01*
Y1083008D02*
Y1083508D01*
X1807764Y1083008D02*
X1816764D01*
X1807764D02*
Y1083508D01*
X1812264Y1078877D02*
Y1082877D01*
X1807764Y1082377D02*
Y1082877D01*
X1816764D01*
X1816764Y1082377D01*
X1816764Y1078877D02*
X1816764Y1079377D01*
X1807764Y1078877D02*
X1816764Y1078877D01*
X1807764Y1078877D02*
X1807764Y1079377D01*
X1812264Y1074745D02*
Y1078745D01*
X1807764Y1078245D02*
Y1078745D01*
X1816764D01*
Y1078245D02*
Y1078745D01*
Y1074745D02*
Y1075245D01*
X1807764Y1074745D02*
X1816764D01*
X1807764D02*
Y1075245D01*
X1812264Y1070614D02*
X1812264Y1074614D01*
X1807764D02*
X1807764Y1074114D01*
X1807764Y1074614D02*
X1816764D01*
Y1074114D02*
Y1074614D01*
X1816764Y1070614D02*
X1816764Y1071114D01*
X1807764Y1070614D02*
X1816764D01*
X1807764D02*
Y1071114D01*
X1812264Y1066482D02*
Y1070482D01*
X1807764D02*
X1807764Y1069982D01*
X1807764Y1070482D02*
X1816764D01*
X1816764Y1069982D02*
X1816764Y1070482D01*
X1816764Y1066482D02*
X1816764Y1066982D01*
X1807764Y1066482D02*
X1816764D01*
X1807764D02*
X1807764Y1066982D01*
X1812264Y1062350D02*
Y1066350D01*
X1807764Y1065851D02*
Y1066350D01*
X1816764D01*
Y1065851D02*
Y1066350D01*
Y1062850D02*
X1816764Y1062350D01*
X1807764D02*
X1816764D01*
X1807764D02*
X1807764Y1062850D01*
X1812264Y1062219D02*
X1812264Y1058219D01*
X1807764Y1061719D02*
Y1062219D01*
X1816764D01*
X1816764Y1061719D01*
Y1058219D02*
Y1058719D01*
X1807764Y1058219D02*
X1816764Y1058219D01*
X1807764Y1058219D02*
X1807764Y1058719D01*
X1812264Y1054088D02*
Y1058088D01*
X1807764Y1057588D02*
Y1058088D01*
X1816764Y1058088D01*
Y1057588D02*
Y1058088D01*
Y1054088D02*
X1816764Y1054587D01*
X1807764Y1054088D02*
X1816764D01*
X1807764Y1054587D02*
X1807764Y1054088D01*
D18*
X1407503Y1241360D02*
Y1324037D01*
X1979981Y1260499D02*
Y1323499D01*
X1969981Y1260499D02*
X1979981D01*
X1969981D02*
Y1323499D01*
X1979981D01*
X1977481Y1322499D02*
X1978481Y1321499D01*
X1977481Y1321499D02*
X1978481Y1322499D01*
X1910481Y1260499D02*
Y1323499D01*
X1920481D01*
X1920481Y1260499D02*
X1920481Y1323499D01*
X1910481Y1260499D02*
X1920481Y1260499D01*
X1911981Y1262499D02*
X1912981Y1261499D01*
X1911981D02*
X1912981Y1262499D01*
X1829000Y1260500D02*
Y1323500D01*
X1839000D01*
Y1260500D02*
Y1323500D01*
X1829000Y1260500D02*
X1839000D01*
X1830500Y1262500D02*
X1831500Y1261500D01*
X1830500D02*
X1831500Y1262500D01*
X1865182Y1312506D02*
X1865182Y1306836D01*
X1900379D02*
X1900379Y1312506D01*
Y1323293D02*
Y1328136D01*
X1865182D02*
X1900379D01*
X1865182Y1323293D02*
Y1328136D01*
X1684504Y1323643D02*
X1684504Y1240966D01*
X1782997Y1324037D02*
X1782997Y1241360D01*
X1545775Y1276850D02*
X1585775D01*
X1545775D02*
Y1322850D01*
X1545975Y1323050D02*
X1625575D01*
X1625775Y1276850D02*
Y1322850D01*
X1576775Y1276850D02*
X1625775D01*
X1465775Y1277050D02*
X1505775D01*
X1465775D02*
X1465775Y1323050D01*
X1465975Y1323250D02*
X1545575D01*
X1545775Y1323050D02*
X1545775Y1277050D01*
X1496775D02*
X1545775D01*
X1641305Y1071570D02*
Y1069071D01*
X1640805Y1068571D01*
X1639805D01*
X1639306Y1069071D01*
Y1071570D01*
X1638306Y1068571D02*
Y1070570D01*
X1637306Y1071570D01*
X1636307Y1070570D01*
Y1068571D01*
Y1070070D01*
X1638306D01*
X1635307Y1068571D02*
Y1071570D01*
X1633807D01*
X1633307Y1071070D01*
Y1070070D01*
X1633807Y1069571D01*
X1635307D01*
X1634307D02*
X1633307Y1068571D01*
X1632308Y1071570D02*
X1630309D01*
X1631308D01*
Y1068571D01*
X1627809D02*
Y1071570D01*
X1629309Y1070070D01*
X1627309D01*
X1626310Y1068071D02*
X1624310D01*
X1623311Y1071570D02*
X1621311D01*
X1622311D01*
Y1068571D01*
X1620312Y1071570D02*
X1618312Y1068571D01*
Y1071570D02*
X1620312Y1068571D01*
X1681205Y1071570D02*
Y1069071D01*
X1680705Y1068571D01*
X1679705D01*
X1679206Y1069071D01*
Y1071570D01*
X1678206Y1068571D02*
Y1070570D01*
X1677206Y1071570D01*
X1676207Y1070570D01*
Y1068571D01*
Y1070070D01*
X1678206D01*
X1675207Y1068571D02*
Y1071570D01*
X1673707D01*
X1673207Y1071070D01*
Y1070070D01*
X1673707Y1069571D01*
X1675207D01*
X1674207D02*
X1673207Y1068571D01*
X1672208Y1071570D02*
X1670209D01*
X1671208D01*
Y1068571D01*
X1667709D02*
Y1071570D01*
X1669209Y1070070D01*
X1667209D01*
X1666210Y1068071D02*
X1664210D01*
X1663211Y1068571D02*
Y1071570D01*
X1661711D01*
X1661211Y1071070D01*
Y1070070D01*
X1661711Y1069571D01*
X1663211D01*
X1662211D02*
X1661211Y1068571D01*
X1660212Y1071570D02*
X1658212Y1068571D01*
Y1071570D02*
X1660212Y1068571D01*
M02*
