G04*
G04 #@! TF.GenerationSoftware,Altium Limited,Altium Designer,24.2.2 (26)*
G04*
G04 Layer_Color=16711935*
%FSLAX25Y25*%
%MOIN*%
G70*
G04*
G04 #@! TF.SameCoordinates,5957EE86-81F1-4C7A-B0E9-50F0B43EC399*
G04*
G04*
G04 #@! TF.FilePolarity,Negative*
G04*
G01*
G75*
%ADD71R,0.03353X0.02762*%
%ADD102R,0.02400X0.09400*%
%ADD110C,0.04737*%
%ADD111O,0.07487X0.08668*%
%ADD112C,0.08668*%
%ADD113O,0.07093X0.09061*%
%ADD114C,0.16070*%
%ADD115O,0.09061X0.07093*%
%ADD116O,0.08668X0.07487*%
%ADD117O,0.06699X0.12998*%
%ADD118C,0.10243*%
%ADD119C,0.06900*%
%ADD120R,0.06306X0.06306*%
%ADD121O,0.04534X0.08668*%
%ADD122C,0.03156*%
%ADD123C,0.00400*%
%ADD125O,0.09849X0.15361*%
%ADD126C,0.07487*%
%ADD127O,0.09400X0.11400*%
%ADD128C,0.03162*%
%ADD129C,0.01975*%
%ADD161R,0.02762X0.06109*%
%ADD162R,0.01581X0.06109*%
%ADD163R,0.08268X0.06693*%
%ADD164R,0.02756X0.07284*%
%ADD165R,0.14179X0.10833*%
%ADD166R,0.10636X0.01581*%
D71*
X1810000Y1134587D02*
D03*
X1814528D02*
D03*
X1810000Y1130456D02*
D03*
X1814528D02*
D03*
X1810000Y1126324D02*
D03*
X1814528D02*
D03*
X1810000Y1122192D02*
D03*
X1814528D02*
D03*
X1810000Y1118061D02*
D03*
X1814528Y1118061D02*
D03*
X1810000Y1113929D02*
D03*
X1814528D02*
D03*
X1810000Y1109798D02*
D03*
X1814528D02*
D03*
X1810000Y1105666D02*
D03*
X1814528Y1105666D02*
D03*
X1810000Y1101535D02*
D03*
X1814528D02*
D03*
X1810000Y1097403D02*
D03*
X1814528Y1097403D02*
D03*
X1810000Y1093272D02*
D03*
X1814528D02*
D03*
X1810000Y1089140D02*
D03*
X1814528D02*
D03*
X1810000Y1085009D02*
D03*
X1814528Y1085009D02*
D03*
X1810000Y1080877D02*
D03*
X1814528Y1080877D02*
D03*
X1810000Y1076745D02*
D03*
X1814528D02*
D03*
X1810000Y1072614D02*
D03*
X1814528D02*
D03*
Y1068482D02*
D03*
X1810000Y1068482D02*
D03*
X1814528Y1064351D02*
D03*
X1810000D02*
D03*
X1814528Y1060219D02*
D03*
X1810000Y1060219D02*
D03*
X1814528Y1056087D02*
D03*
X1810000D02*
D03*
D102*
X1703445Y1023622D02*
D03*
X1700295D02*
D03*
X1697146D02*
D03*
X1693996D02*
D03*
X1690846D02*
D03*
X1687697D02*
D03*
X1684547D02*
D03*
X1681398D02*
D03*
X1678248D02*
D03*
X1675098D02*
D03*
X1671949D02*
D03*
X1668799D02*
D03*
X1665650D02*
D03*
X1662500D02*
D03*
X1659350D02*
D03*
X1656201D02*
D03*
X1653051D02*
D03*
X1649902D02*
D03*
X1646752D02*
D03*
X1643602D02*
D03*
X1640453D02*
D03*
X1637303D02*
D03*
X1634154D02*
D03*
X1631004D02*
D03*
X1627854D02*
D03*
X1624705D02*
D03*
X1621555D02*
D03*
Y977559D02*
D03*
X1624705D02*
D03*
X1627854D02*
D03*
X1631004D02*
D03*
X1634154D02*
D03*
X1637303D02*
D03*
X1640453D02*
D03*
X1643602D02*
D03*
X1646752D02*
D03*
X1649902D02*
D03*
X1653051D02*
D03*
X1656201D02*
D03*
X1659350D02*
D03*
X1662500D02*
D03*
X1665650D02*
D03*
X1668799D02*
D03*
X1671949D02*
D03*
X1675098D02*
D03*
X1678248D02*
D03*
X1681398D02*
D03*
X1684547D02*
D03*
X1687697D02*
D03*
X1690846D02*
D03*
X1693996D02*
D03*
X1697146D02*
D03*
X1700295D02*
D03*
X1703445D02*
D03*
X1572615Y1023209D02*
D03*
X1569465D02*
D03*
X1566316D02*
D03*
X1563166D02*
D03*
X1560016D02*
D03*
X1556867D02*
D03*
X1553717D02*
D03*
X1550568D02*
D03*
X1547418D02*
D03*
X1544268D02*
D03*
X1541119D02*
D03*
X1537969D02*
D03*
X1534820D02*
D03*
X1531670D02*
D03*
X1528520D02*
D03*
X1525371D02*
D03*
X1522221D02*
D03*
X1519072D02*
D03*
X1515922D02*
D03*
X1512772D02*
D03*
X1509623D02*
D03*
X1506473D02*
D03*
X1503324D02*
D03*
X1500174D02*
D03*
X1497024D02*
D03*
X1493875D02*
D03*
X1490725D02*
D03*
Y977146D02*
D03*
X1493875D02*
D03*
X1497024D02*
D03*
X1500174D02*
D03*
X1503324D02*
D03*
X1506473D02*
D03*
X1509623D02*
D03*
X1512772D02*
D03*
X1515922D02*
D03*
X1519072D02*
D03*
X1522221D02*
D03*
X1525371D02*
D03*
X1528520D02*
D03*
X1531670D02*
D03*
X1534820D02*
D03*
X1537969D02*
D03*
X1541119D02*
D03*
X1544268D02*
D03*
X1547418D02*
D03*
X1550568D02*
D03*
X1553717D02*
D03*
X1556867D02*
D03*
X1560016D02*
D03*
X1563166D02*
D03*
X1566316D02*
D03*
X1569465D02*
D03*
X1572615D02*
D03*
D110*
X1645009Y1070520D02*
D03*
X1655109Y1070121D02*
D03*
D111*
X1877362Y1096396D02*
D03*
X1869094Y1116081D02*
D03*
X1877362D02*
D03*
X1869094Y1096396D02*
D03*
Y998137D02*
D03*
X1877362Y1017822D02*
D03*
X1869094D02*
D03*
X1877362Y998137D02*
D03*
D112*
X1874134Y1106081D02*
D03*
X1864134Y1131081D02*
D03*
Y1032822D02*
D03*
X1874134Y1007822D02*
D03*
X1722806Y881312D02*
D03*
X1697806Y871312D02*
D03*
X1598138Y881312D02*
D03*
X1573138Y871312D02*
D03*
X2134450Y881312D02*
D03*
X2109450Y871312D02*
D03*
X2051772Y881312D02*
D03*
X2026772Y871312D02*
D03*
X1969261Y881312D02*
D03*
X1944261Y871312D02*
D03*
D113*
X1854134Y1095254D02*
D03*
Y1136908D02*
D03*
Y1038649D02*
D03*
Y996995D02*
D03*
D114*
Y1116081D02*
D03*
Y1017822D02*
D03*
X1707806Y891312D02*
D03*
X1583138D02*
D03*
X2119450D02*
D03*
X2036773D02*
D03*
X1954261D02*
D03*
D115*
X1728633D02*
D03*
X1686979D02*
D03*
X1603965D02*
D03*
X1562311D02*
D03*
X2140277D02*
D03*
X2098623D02*
D03*
X2057599D02*
D03*
X2015945D02*
D03*
X1975088D02*
D03*
X1933434D02*
D03*
D116*
X1688121Y876352D02*
D03*
X1707806Y868084D02*
D03*
Y876352D02*
D03*
X1688121Y868084D02*
D03*
X1563453Y876352D02*
D03*
X1583138Y868084D02*
D03*
Y876352D02*
D03*
X1563453Y868084D02*
D03*
X2099765Y876352D02*
D03*
X2119450Y868084D02*
D03*
Y876352D02*
D03*
X2099765Y868084D02*
D03*
X2017088Y876352D02*
D03*
X2036773Y868084D02*
D03*
Y876352D02*
D03*
X2017088Y868084D02*
D03*
X1934576Y876352D02*
D03*
X1954261Y868084D02*
D03*
Y876352D02*
D03*
X1934576Y868084D02*
D03*
D117*
X1439000Y1307500D02*
D03*
X1376008D02*
D03*
X1439000Y1282697D02*
D03*
Y1257894D02*
D03*
X1376008D02*
D03*
Y1282697D02*
D03*
X1716001Y1307106D02*
D03*
X1653009D02*
D03*
X1716001Y1282303D02*
D03*
Y1257500D02*
D03*
X1653009D02*
D03*
Y1282303D02*
D03*
X1814493Y1307500D02*
D03*
X1751501D02*
D03*
X1814493Y1282697D02*
D03*
Y1257894D02*
D03*
X1751501D02*
D03*
Y1282697D02*
D03*
D118*
X1468332Y1226414D02*
D03*
X2082505D02*
D03*
X1846284D02*
D03*
X1704552D02*
D03*
X1969000Y1248000D02*
D03*
X1920000D02*
D03*
X1519393Y1153548D02*
D03*
X1513150Y923233D02*
D03*
X1876535Y1073233D02*
D03*
X1883228Y968903D02*
D03*
X1608000Y974382D02*
D03*
D119*
X1974981Y1317000D02*
D03*
Y1307000D02*
D03*
Y1297000D02*
D03*
Y1287000D02*
D03*
Y1277000D02*
D03*
Y1267000D02*
D03*
X1915481Y1266999D02*
D03*
Y1276999D02*
D03*
Y1286999D02*
D03*
Y1296999D02*
D03*
Y1306999D02*
D03*
Y1316999D02*
D03*
X1834000Y1267000D02*
D03*
Y1277000D02*
D03*
Y1287000D02*
D03*
Y1297000D02*
D03*
Y1307000D02*
D03*
Y1317000D02*
D03*
D120*
X2013000Y1312000D02*
D03*
Y1298000D02*
D03*
X1874789Y1270005D02*
D03*
X1894981Y1269999D02*
D03*
X1884789Y1270005D02*
D03*
D121*
X1865773Y1301443D02*
D03*
X1899789D02*
D03*
X1865773Y1317899D02*
D03*
X1899789D02*
D03*
D122*
X1871403Y1303529D02*
D03*
X1894159D02*
D03*
X1921981Y1287999D02*
D03*
Y1281999D02*
D03*
Y1284999D02*
D03*
Y1278999D02*
D03*
X2038687Y1284000D02*
D03*
Y1291802D02*
D03*
X2038712Y1287856D02*
D03*
X2130347Y1314576D02*
D03*
X2096902Y1272000D02*
D03*
X2052652Y1271000D02*
D03*
X2076902Y1260879D02*
D03*
X2091339Y1263937D02*
D03*
X2097402Y1308000D02*
D03*
X2098902Y1294000D02*
D03*
X2095902D02*
D03*
X2094402Y1316000D02*
D03*
X2123691Y1304250D02*
D03*
X2126402Y1315000D02*
D03*
X2123402Y1299000D02*
D03*
X2123343Y1309931D02*
D03*
X2145189Y1310000D02*
D03*
X2140183Y1303219D02*
D03*
X2149402Y1293000D02*
D03*
X2091402Y1308000D02*
D03*
X2094402D02*
D03*
X2092902Y1294000D02*
D03*
X2089902D02*
D03*
X2042402Y1315000D02*
D03*
X2127339Y1270937D02*
D03*
X2123402Y1293000D02*
D03*
X2066171Y1270873D02*
D03*
X2053091Y1278000D02*
D03*
X2093146Y1286000D02*
D03*
X2094402Y1278000D02*
D03*
X2098902Y1286000D02*
D03*
X2124958Y1283757D02*
D03*
X1960007Y1261631D02*
D03*
X1928511Y1274908D02*
D03*
X1934511D02*
D03*
X1931511D02*
D03*
X1925511D02*
D03*
X1929981Y1315799D02*
D03*
X1946780Y1280440D02*
D03*
X1948862Y1272072D02*
D03*
X1952334Y1273068D02*
D03*
D123*
X1452500Y1094882D02*
D03*
D125*
X1440000Y1131882D02*
D03*
X1402000D02*
D03*
X2128111Y998260D02*
D03*
X2083229D02*
D03*
X1990316D02*
D03*
X1945434D02*
D03*
X1443504D02*
D03*
X1398622D02*
D03*
X2128111Y1136055D02*
D03*
X2083229D02*
D03*
X1990316D02*
D03*
X1945434D02*
D03*
D126*
X1430843Y1102425D02*
D03*
X1421000D02*
D03*
X1411158D02*
D03*
X2115513Y968733D02*
D03*
X2105670D02*
D03*
X2095828D02*
D03*
X2115513Y1025819D02*
D03*
X2095828D02*
D03*
X1977718Y968733D02*
D03*
X1967875D02*
D03*
X1958033D02*
D03*
X1977718Y1025819D02*
D03*
X1958033D02*
D03*
X1430906Y968733D02*
D03*
X1421063D02*
D03*
X1411221D02*
D03*
X1430906Y1025819D02*
D03*
X1411221D02*
D03*
X2115513Y1106528D02*
D03*
X2105670D02*
D03*
X2095828D02*
D03*
X2115513Y1163614D02*
D03*
X2095828D02*
D03*
X1977718Y1106528D02*
D03*
X1967875D02*
D03*
X1958033D02*
D03*
X1977718Y1163614D02*
D03*
X1958033D02*
D03*
D127*
X1576025Y1314100D02*
D03*
X1595775Y1314350D02*
D03*
X1585775Y1274350D02*
D03*
X1605775Y1266850D02*
D03*
X1617275Y1274550D02*
D03*
X1554275D02*
D03*
X1565775Y1266850D02*
D03*
X1496025Y1314300D02*
D03*
X1515775Y1314550D02*
D03*
X1505775Y1274550D02*
D03*
X1525775Y1267050D02*
D03*
X1537275Y1274750D02*
D03*
X1474275D02*
D03*
X1485775Y1267050D02*
D03*
D128*
X1892394Y1292901D02*
D03*
X1872912Y1293259D02*
D03*
X1598000Y1039382D02*
D03*
X1587500D02*
D03*
X1804500Y1183882D02*
D03*
X1792500Y1186382D02*
D03*
X1775500Y1184882D02*
D03*
X1769000D02*
D03*
X1645009Y1070520D02*
D03*
X1655109Y1070121D02*
D03*
D129*
X1894000Y979382D02*
D03*
X1926772D02*
D03*
X2059228Y1139382D02*
D03*
X2022728D02*
D03*
X2059228Y979382D02*
D03*
X2022728D02*
D03*
X1378000Y985882D02*
D03*
X1341500D02*
D03*
X1925272Y1137382D02*
D03*
X1888772D02*
D03*
D161*
X1869986Y1297840D02*
D03*
X1873135D02*
D03*
X1892427D02*
D03*
X1895576D02*
D03*
D162*
X1881797D02*
D03*
X1879828D02*
D03*
X1877860D02*
D03*
X1875891D02*
D03*
X1883765D02*
D03*
X1885734D02*
D03*
X1887702D02*
D03*
X1889671D02*
D03*
D163*
X1481795Y1241000D02*
D03*
X1544000D02*
D03*
X1622748D02*
D03*
X1560543D02*
D03*
X1613697Y837264D02*
D03*
X1551492D02*
D03*
D164*
X1534551Y1233618D02*
D03*
X1530614Y1248382D02*
D03*
X1526677Y1233618D02*
D03*
X1522740Y1248382D02*
D03*
X1518803Y1233618D02*
D03*
X1514866Y1248382D02*
D03*
X1510929Y1233618D02*
D03*
X1506992Y1248382D02*
D03*
X1503055Y1233618D02*
D03*
X1499118Y1248382D02*
D03*
X1495181Y1233618D02*
D03*
X1491244Y1248382D02*
D03*
X1569992D02*
D03*
X1573929Y1233618D02*
D03*
X1577866Y1248382D02*
D03*
X1581803Y1233618D02*
D03*
X1585740Y1248382D02*
D03*
X1589677Y1233618D02*
D03*
X1593614Y1248382D02*
D03*
X1597551Y1233618D02*
D03*
X1601488Y1248382D02*
D03*
X1605425Y1233618D02*
D03*
X1609362Y1248382D02*
D03*
X1613299Y1233618D02*
D03*
X1560941Y844646D02*
D03*
X1564878Y829882D02*
D03*
X1568815Y844646D02*
D03*
X1572752Y829882D02*
D03*
X1576689Y844646D02*
D03*
X1580626Y829882D02*
D03*
X1584563Y844646D02*
D03*
X1588500Y829882D02*
D03*
X1592437Y844646D02*
D03*
X1596374Y829882D02*
D03*
X1600311Y844646D02*
D03*
X1604248Y829882D02*
D03*
D165*
X1787542Y1150698D02*
D03*
Y1039971D02*
D03*
D166*
X1795000Y1116004D02*
D03*
Y1117972D02*
D03*
Y1119941D02*
D03*
Y1121910D02*
D03*
Y1123878D02*
D03*
Y1125846D02*
D03*
Y1127815D02*
D03*
Y1129784D02*
D03*
Y1131752D02*
D03*
Y1133720D02*
D03*
Y1135689D02*
D03*
Y1137658D02*
D03*
Y1139626D02*
D03*
X1795000Y1141595D02*
D03*
X1795000Y1143563D02*
D03*
Y1047106D02*
D03*
Y1049075D02*
D03*
Y1051043D02*
D03*
Y1053012D02*
D03*
Y1054980D02*
D03*
Y1056949D02*
D03*
Y1058918D02*
D03*
Y1060886D02*
D03*
Y1062854D02*
D03*
Y1064823D02*
D03*
Y1066792D02*
D03*
Y1068760D02*
D03*
Y1070728D02*
D03*
X1795000Y1072697D02*
D03*
Y1074666D02*
D03*
X1795000Y1076634D02*
D03*
Y1078603D02*
D03*
Y1080571D02*
D03*
Y1082539D02*
D03*
Y1084508D02*
D03*
Y1086477D02*
D03*
Y1088445D02*
D03*
Y1090413D02*
D03*
X1795000Y1092382D02*
D03*
Y1094351D02*
D03*
Y1096319D02*
D03*
Y1098287D02*
D03*
Y1100256D02*
D03*
Y1102225D02*
D03*
Y1104193D02*
D03*
X1795000Y1106161D02*
D03*
Y1108130D02*
D03*
Y1110098D02*
D03*
Y1112067D02*
D03*
Y1114036D02*
D03*
M02*
