ISO-10303-21;
HEADER;
FILE_DESCRIPTION(('STEP AP242'),
    '1');
FILE_NAME('HOOYA PJ-625CK',
    '',
    ('UNSPECIFIED'),
    ('UNSPECIFIED'),
    'C3D Converter',
    'C3D Toolkit',
    '');
FILE_SCHEMA(('AP242_MANAGED_MODEL_BASED_3D_ENGINEERING_MIM_LF { 1 0 10303 442 1 1 4 }'));
ENDSEC;

DATA;
#1=SHAPE_REPRESENTATION('NONE',(#2),#6);
#2=AXIS2_PLACEMENT_3D('',#3,#4,#5);
#3=CARTESIAN_POINT('',(0.,0.,0.));
#4=DIRECTION('',(0.,0.,1.));
#5=DIRECTION('',(1.,0.,0.));
#6=(GEOMETRIC_REPRESENTATION_CONTEXT(3)GLOBAL_UNCERTAINTY_ASSIGNED_CONTEXT((#8))
GLOBAL_UNIT_ASSIGNED_CONTEXT((#7,#9,#10))REPRESENTATION_CONTEXT('NONE','NONE'));
#7=(LENGTH_UNIT()NAMED_UNIT(*)SI_UNIT(.MILLI.,.METRE.));
#8=UNCERTAINTY_MEASURE_WITH_UNIT(LENGTH_MEASURE(1.E-5),#7,'NONE','NONE');
#9=(NAMED_UNIT(*)PLANE_ANGLE_UNIT()SI_UNIT($,.RADIAN.));
#10=(NAMED_UNIT(*)SI_UNIT($,.STERADIAN.)SOLID_ANGLE_UNIT());
#11=SHAPE_DEFINITION_REPRESENTATION(#12,#1);
#12=PRODUCT_DEFINITION_SHAPE('NONE','NONE',#13);
#13=PRODUCT_DEFINITION('','UNSPECIFIED',#14,#17);
#14=PRODUCT_DEFINITION_FORMATION_WITH_SPECIFIED_SOURCE('ANY','UNSPECIFIED',#15,.NOT_KNOWN.);
#15=PRODUCT('','Part','NONE',(#20));
#16=PRODUCT_RELATED_PRODUCT_CATEGORY('detail','',(#15));
#17=DESIGN_CONTEXT('detailed design',#18,'design');
#18=APPLICATION_CONTEXT('configuration controlled 3d designs of mechanical parts and assemblies');
#19=APPLICATION_PROTOCOL_DEFINITION('international standard','config_control_design',
1994,#18);
#20=MECHANICAL_CONTEXT('NONE',#18,'mechanical');
#21=CC_DESIGN_DATE_AND_TIME_ASSIGNMENT(#22,#26,(#13));
#22=DATE_AND_TIME(#23,#24);
#23=CALENDAR_DATE(0,1,1);
#24=LOCAL_TIME(0,0,0.,#25);
#25=COORDINATED_UNIVERSAL_TIME_OFFSET(0,0,.AHEAD.);
#26=DATE_TIME_ROLE('creation_date');
#27=CC_DESIGN_APPROVAL(#28,(#13));
#28=APPROVAL(#29,'UNSPECIFIED');
#29=APPROVAL_STATUS('not_yet_approved');
#30=APPROVAL_DATE_TIME(#31,#28);
#31=DATE_AND_TIME(#32,#33);
#32=CALENDAR_DATE(0,1,1);
#33=LOCAL_TIME(0,0,0.,#34);
#34=COORDINATED_UNIVERSAL_TIME_OFFSET(0,0,.AHEAD.);
#35=MANIFOLD_SOLID_BREP('',#36);
#36=CLOSED_SHELL('',(#48,#57,#66,#75,#84,#93,#102,#111,#120,#129,#138,#147,#156,
#165,#174,#183,#192,#201,#210,#219));
#37=COLOUR_RGB('',0.564705882352941,0.564705882352941,0.564705882352941);
#38=FILL_AREA_STYLE_COLOUR('',#37);
#39=FILL_AREA_STYLE($,(#38));
#40=SURFACE_STYLE_FILL_AREA(#39);
#41=SURFACE_SIDE_STYLE('',(#40));
#42=SURFACE_STYLE_USAGE(.BOTH.,#41);
#43=PRESENTATION_STYLE_ASSIGNMENT((#42));
#44=MECHANICAL_DESIGN_GEOMETRIC_PRESENTATION_REPRESENTATION('NONE',(#45,#56,#65,
#74,#83,#92,#101,#110,#119,#128,#137,#146,#155,#164,#173,#182,#191,#200,#209,#218,
#227),#6);
#45=STYLED_ITEM('',(#43),#35);
#46=ADVANCED_BREP_SHAPE_REPRESENTATION('NONE',(#35),#6);
#47=SHAPE_REPRESENTATION_RELATIONSHIP('','',#1,#46);
#48=ADVANCED_FACE('',(#228,#230),#232,.T.);
#49=COLOUR_RGB('',0.564705882352941,0.564705882352941,0.564705882352941);
#50=FILL_AREA_STYLE_COLOUR('',#49);
#51=FILL_AREA_STYLE($,(#50));
#52=SURFACE_STYLE_FILL_AREA(#51);
#53=SURFACE_SIDE_STYLE('',(#52));
#54=SURFACE_STYLE_USAGE(.BOTH.,#53);
#55=PRESENTATION_STYLE_ASSIGNMENT((#54));
#56=STYLED_ITEM('',(#55),#48);
#57=ADVANCED_FACE('',(#237,#239),#241,.T.);
#58=COLOUR_RGB('',0.564705882352941,0.564705882352941,0.564705882352941);
#59=FILL_AREA_STYLE_COLOUR('',#58);
#60=FILL_AREA_STYLE($,(#59));
#61=SURFACE_STYLE_FILL_AREA(#60);
#62=SURFACE_SIDE_STYLE('',(#61));
#63=SURFACE_STYLE_USAGE(.BOTH.,#62);
#64=PRESENTATION_STYLE_ASSIGNMENT((#63));
#65=STYLED_ITEM('',(#64),#57);
#66=ADVANCED_FACE('',(#246,#248,#250),#252,.T.);
#67=COLOUR_RGB('',0.564705882352941,0.564705882352941,0.564705882352941);
#68=FILL_AREA_STYLE_COLOUR('',#67);
#69=FILL_AREA_STYLE($,(#68));
#70=SURFACE_STYLE_FILL_AREA(#69);
#71=SURFACE_SIDE_STYLE('',(#70));
#72=SURFACE_STYLE_USAGE(.BOTH.,#71);
#73=PRESENTATION_STYLE_ASSIGNMENT((#72));
#74=STYLED_ITEM('',(#73),#66);
#75=ADVANCED_FACE('',(#257,#259),#261,.F.);
#76=COLOUR_RGB('',0.564705882352941,0.564705882352941,0.564705882352941);
#77=FILL_AREA_STYLE_COLOUR('',#76);
#78=FILL_AREA_STYLE($,(#77));
#79=SURFACE_STYLE_FILL_AREA(#78);
#80=SURFACE_SIDE_STYLE('',(#79));
#81=SURFACE_STYLE_USAGE(.BOTH.,#80);
#82=PRESENTATION_STYLE_ASSIGNMENT((#81));
#83=STYLED_ITEM('',(#82),#75);
#84=ADVANCED_FACE('',(#266,#268),#270,.F.);
#85=COLOUR_RGB('',0.564705882352941,0.564705882352941,0.564705882352941);
#86=FILL_AREA_STYLE_COLOUR('',#85);
#87=FILL_AREA_STYLE($,(#86));
#88=SURFACE_STYLE_FILL_AREA(#87);
#89=SURFACE_SIDE_STYLE('',(#88));
#90=SURFACE_STYLE_USAGE(.BOTH.,#89);
#91=PRESENTATION_STYLE_ASSIGNMENT((#90));
#92=STYLED_ITEM('',(#91),#84);
#93=ADVANCED_FACE('',(#275,#277),#279,.T.);
#94=COLOUR_RGB('',0.564705882352941,0.564705882352941,0.564705882352941);
#95=FILL_AREA_STYLE_COLOUR('',#94);
#96=FILL_AREA_STYLE($,(#95));
#97=SURFACE_STYLE_FILL_AREA(#96);
#98=SURFACE_SIDE_STYLE('',(#97));
#99=SURFACE_STYLE_USAGE(.BOTH.,#98);
#100=PRESENTATION_STYLE_ASSIGNMENT((#99));
#101=STYLED_ITEM('',(#100),#93);
#102=ADVANCED_FACE('',(#284,#286),#288,.T.);
#103=COLOUR_RGB('',0.564705882352941,0.564705882352941,0.564705882352941);
#104=FILL_AREA_STYLE_COLOUR('',#103);
#105=FILL_AREA_STYLE($,(#104));
#106=SURFACE_STYLE_FILL_AREA(#105);
#107=SURFACE_SIDE_STYLE('',(#106));
#108=SURFACE_STYLE_USAGE(.BOTH.,#107);
#109=PRESENTATION_STYLE_ASSIGNMENT((#108));
#110=STYLED_ITEM('',(#109),#102);
#111=ADVANCED_FACE('',(#293),#295,.F.);
#112=COLOUR_RGB('',0.564705882352941,0.564705882352941,0.564705882352941);
#113=FILL_AREA_STYLE_COLOUR('',#112);
#114=FILL_AREA_STYLE($,(#113));
#115=SURFACE_STYLE_FILL_AREA(#114);
#116=SURFACE_SIDE_STYLE('',(#115));
#117=SURFACE_STYLE_USAGE(.BOTH.,#116);
#118=PRESENTATION_STYLE_ASSIGNMENT((#117));
#119=STYLED_ITEM('',(#118),#111);
#120=ADVANCED_FACE('',(#300),#302,.T.);
#121=COLOUR_RGB('',0.564705882352941,0.564705882352941,0.564705882352941);
#122=FILL_AREA_STYLE_COLOUR('',#121);
#123=FILL_AREA_STYLE($,(#122));
#124=SURFACE_STYLE_FILL_AREA(#123);
#125=SURFACE_SIDE_STYLE('',(#124));
#126=SURFACE_STYLE_USAGE(.BOTH.,#125);
#127=PRESENTATION_STYLE_ASSIGNMENT((#126));
#128=STYLED_ITEM('',(#127),#120);
#129=ADVANCED_FACE('',(#307),#309,.F.);
#130=COLOUR_RGB('',0.564705882352941,0.564705882352941,0.564705882352941);
#131=FILL_AREA_STYLE_COLOUR('',#130);
#132=FILL_AREA_STYLE($,(#131));
#133=SURFACE_STYLE_FILL_AREA(#132);
#134=SURFACE_SIDE_STYLE('',(#133));
#135=SURFACE_STYLE_USAGE(.BOTH.,#134);
#136=PRESENTATION_STYLE_ASSIGNMENT((#135));
#137=STYLED_ITEM('',(#136),#129);
#138=ADVANCED_FACE('',(#314),#316,.T.);
#139=COLOUR_RGB('',0.564705882352941,0.564705882352941,0.564705882352941);
#140=FILL_AREA_STYLE_COLOUR('',#139);
#141=FILL_AREA_STYLE($,(#140));
#142=SURFACE_STYLE_FILL_AREA(#141);
#143=SURFACE_SIDE_STYLE('',(#142));
#144=SURFACE_STYLE_USAGE(.BOTH.,#143);
#145=PRESENTATION_STYLE_ASSIGNMENT((#144));
#146=STYLED_ITEM('',(#145),#138);
#147=ADVANCED_FACE('',(#321,#323,#325),#327,.T.);
#148=COLOUR_RGB('',0.564705882352941,0.564705882352941,0.564705882352941);
#149=FILL_AREA_STYLE_COLOUR('',#148);
#150=FILL_AREA_STYLE($,(#149));
#151=SURFACE_STYLE_FILL_AREA(#150);
#152=SURFACE_SIDE_STYLE('',(#151));
#153=SURFACE_STYLE_USAGE(.BOTH.,#152);
#154=PRESENTATION_STYLE_ASSIGNMENT((#153));
#155=STYLED_ITEM('',(#154),#147);
#156=ADVANCED_FACE('',(#332),#334,.T.);
#157=COLOUR_RGB('',0.564705882352941,0.564705882352941,0.564705882352941);
#158=FILL_AREA_STYLE_COLOUR('',#157);
#159=FILL_AREA_STYLE($,(#158));
#160=SURFACE_STYLE_FILL_AREA(#159);
#161=SURFACE_SIDE_STYLE('',(#160));
#162=SURFACE_STYLE_USAGE(.BOTH.,#161);
#163=PRESENTATION_STYLE_ASSIGNMENT((#162));
#164=STYLED_ITEM('',(#163),#156);
#165=ADVANCED_FACE('',(#339),#341,.T.);
#166=COLOUR_RGB('',0.564705882352941,0.564705882352941,0.564705882352941);
#167=FILL_AREA_STYLE_COLOUR('',#166);
#168=FILL_AREA_STYLE($,(#167));
#169=SURFACE_STYLE_FILL_AREA(#168);
#170=SURFACE_SIDE_STYLE('',(#169));
#171=SURFACE_STYLE_USAGE(.BOTH.,#170);
#172=PRESENTATION_STYLE_ASSIGNMENT((#171));
#173=STYLED_ITEM('',(#172),#165);
#174=ADVANCED_FACE('',(#346),#348,.T.);
#175=COLOUR_RGB('',0.564705882352941,0.564705882352941,0.564705882352941);
#176=FILL_AREA_STYLE_COLOUR('',#175);
#177=FILL_AREA_STYLE($,(#176));
#178=SURFACE_STYLE_FILL_AREA(#177);
#179=SURFACE_SIDE_STYLE('',(#178));
#180=SURFACE_STYLE_USAGE(.BOTH.,#179);
#181=PRESENTATION_STYLE_ASSIGNMENT((#180));
#182=STYLED_ITEM('',(#181),#174);
#183=ADVANCED_FACE('',(#353),#355,.T.);
#184=COLOUR_RGB('',0.564705882352941,0.564705882352941,0.564705882352941);
#185=FILL_AREA_STYLE_COLOUR('',#184);
#186=FILL_AREA_STYLE($,(#185));
#187=SURFACE_STYLE_FILL_AREA(#186);
#188=SURFACE_SIDE_STYLE('',(#187));
#189=SURFACE_STYLE_USAGE(.BOTH.,#188);
#190=PRESENTATION_STYLE_ASSIGNMENT((#189));
#191=STYLED_ITEM('',(#190),#183);
#192=ADVANCED_FACE('',(#360),#362,.F.);
#193=COLOUR_RGB('',0.564705882352941,0.564705882352941,0.564705882352941);
#194=FILL_AREA_STYLE_COLOUR('',#193);
#195=FILL_AREA_STYLE($,(#194));
#196=SURFACE_STYLE_FILL_AREA(#195);
#197=SURFACE_SIDE_STYLE('',(#196));
#198=SURFACE_STYLE_USAGE(.BOTH.,#197);
#199=PRESENTATION_STYLE_ASSIGNMENT((#198));
#200=STYLED_ITEM('',(#199),#192);
#201=ADVANCED_FACE('',(#367),#369,.F.);
#202=COLOUR_RGB('',0.564705882352941,0.564705882352941,0.564705882352941);
#203=FILL_AREA_STYLE_COLOUR('',#202);
#204=FILL_AREA_STYLE($,(#203));
#205=SURFACE_STYLE_FILL_AREA(#204);
#206=SURFACE_SIDE_STYLE('',(#205));
#207=SURFACE_STYLE_USAGE(.BOTH.,#206);
#208=PRESENTATION_STYLE_ASSIGNMENT((#207));
#209=STYLED_ITEM('',(#208),#201);
#210=ADVANCED_FACE('',(#374),#376,.T.);
#211=COLOUR_RGB('',0.564705882352941,0.564705882352941,0.564705882352941);
#212=FILL_AREA_STYLE_COLOUR('',#211);
#213=FILL_AREA_STYLE($,(#212));
#214=SURFACE_STYLE_FILL_AREA(#213);
#215=SURFACE_SIDE_STYLE('',(#214));
#216=SURFACE_STYLE_USAGE(.BOTH.,#215);
#217=PRESENTATION_STYLE_ASSIGNMENT((#216));
#218=STYLED_ITEM('',(#217),#210);
#219=ADVANCED_FACE('',(#381),#383,.T.);
#220=COLOUR_RGB('',0.564705882352941,0.564705882352941,0.564705882352941);
#221=FILL_AREA_STYLE_COLOUR('',#220);
#222=FILL_AREA_STYLE($,(#221));
#223=SURFACE_STYLE_FILL_AREA(#222);
#224=SURFACE_SIDE_STYLE('',(#223));
#225=SURFACE_STYLE_USAGE(.BOTH.,#224);
#226=PRESENTATION_STYLE_ASSIGNMENT((#225));
#227=STYLED_ITEM('',(#226),#219);
#228=FACE_BOUND('',#229,.T.);
#229=EDGE_LOOP('',(#388));
#230=FACE_BOUND('',#231,.T.);
#231=EDGE_LOOP('',(#389));
#232=PLANE('',#233);
#233=AXIS2_PLACEMENT_3D('',#234,#235,#236);
#234=CARTESIAN_POINT('',(0.,-103.907855485327,0.));
#235=DIRECTION('',(0.,1.,0.));
#236=DIRECTION('',(-1.,0.,-1.22464679914735E-16));
#237=FACE_BOUND('',#238,.T.);
#238=EDGE_LOOP('',(#390));
#239=FACE_BOUND('',#240,.T.);
#240=EDGE_LOOP('',(#391));
#241=PLANE('',#242);
#242=AXIS2_PLACEMENT_3D('',#243,#244,#245);
#243=CARTESIAN_POINT('',(0.,-103.907855485327,0.));
#244=DIRECTION('',(0.,1.,0.));
#245=DIRECTION('',(-1.,0.,-1.22464679914735E-16));
#246=FACE_BOUND('',#247,.T.);
#247=EDGE_LOOP('',(#392,#393,#394,#395));
#248=FACE_BOUND('',#249,.T.);
#249=EDGE_LOOP('',(#396));
#250=FACE_BOUND('',#251,.T.);
#251=EDGE_LOOP('',(#397));
#252=PLANE('',#253);
#253=AXIS2_PLACEMENT_3D('',#254,#255,#256);
#254=CARTESIAN_POINT('',(-11.4655494671499,-137.057855485327,-1.));
#255=DIRECTION('',(0.,-1.,0.));
#256=DIRECTION('',(1.,0.,0.));
#257=FACE_OUTER_BOUND('',#258,.T.);
#258=EDGE_LOOP('',(#398));
#259=FACE_OUTER_BOUND('',#260,.T.);
#260=EDGE_LOOP('',(#399));
#261=CYLINDRICAL_SURFACE('',#262,3.25);
#262=AXIS2_PLACEMENT_3D('',#263,#264,#265);
#263=CARTESIAN_POINT('',(-8.00000000000001,-137.907855485327,6.35));
#264=DIRECTION('',(0.,1.,0.));
#265=DIRECTION('',(-1.,0.,-1.22464679914735E-16));
#266=FACE_OUTER_BOUND('',#267,.T.);
#267=EDGE_LOOP('',(#400));
#268=FACE_OUTER_BOUND('',#269,.T.);
#269=EDGE_LOOP('',(#401));
#270=CYLINDRICAL_SURFACE('',#271,3.25);
#271=AXIS2_PLACEMENT_3D('',#272,#273,#274);
#272=CARTESIAN_POINT('',(-8.00000000000001,-137.907855485327,22.85));
#273=DIRECTION('',(0.,1.,0.));
#274=DIRECTION('',(-1.,0.,-1.22464679914735E-16));
#275=FACE_OUTER_BOUND('',#276,.T.);
#276=EDGE_LOOP('',(#402));
#277=FACE_OUTER_BOUND('',#278,.T.);
#278=EDGE_LOOP('',(#403));
#279=CYLINDRICAL_SURFACE('',#280,4.5);
#280=AXIS2_PLACEMENT_3D('',#281,#282,#283);
#281=CARTESIAN_POINT('',(-8.00000000000001,-113.207855485327,22.85));
#282=DIRECTION('',(0.,1.,0.));
#283=DIRECTION('',(-1.,0.,-1.22464679914735E-16));
#284=FACE_OUTER_BOUND('',#285,.T.);
#285=EDGE_LOOP('',(#404));
#286=FACE_OUTER_BOUND('',#287,.T.);
#287=EDGE_LOOP('',(#405));
#288=CYLINDRICAL_SURFACE('',#289,4.5);
#289=AXIS2_PLACEMENT_3D('',#290,#291,#292);
#290=CARTESIAN_POINT('',(-8.00000000000001,-113.207855485327,6.35));
#291=DIRECTION('',(0.,1.,0.));
#292=DIRECTION('',(-1.,0.,-1.22464679914735E-16));
#293=FACE_BOUND('',#294,.T.);
#294=EDGE_LOOP('',(#406,#407,#408,#409,#410,#411,#412,#413));
#295=PLANE('',#296);
#296=AXIS2_PLACEMENT_3D('',#297,#298,#299);
#297=CARTESIAN_POINT('',(0.,0.,0.));
#298=DIRECTION('',(0.,0.,1.));
#299=DIRECTION('',(-1.,1.22464679914735E-16,0.));
#300=FACE_BOUND('',#301,.T.);
#301=EDGE_LOOP('',(#414,#415,#416,#417));
#302=PLANE('',#303);
#303=AXIS2_PLACEMENT_3D('',#304,#305,#306);
#304=CARTESIAN_POINT('',(-4.53445053285014,-137.057855485327,-1.));
#305=DIRECTION('',(0.921115827107779,-0.389288624354156,0.));
#306=DIRECTION('',(0.389288624354156,0.92111582710778,0.));
#307=FACE_BOUND('',#308,.T.);
#308=EDGE_LOOP('',(#418,#419,#420,#421,#422,#423,#424,#425));
#309=PLANE('',#310);
#310=AXIS2_PLACEMENT_3D('',#311,#312,#313);
#311=CARTESIAN_POINT('',(-2.12888874750393,-143.207855485327,29.2));
#312=DIRECTION('',(0.,0.,-1.));
#313=DIRECTION('',(-1.,0.,0.));
#314=FACE_BOUND('',#315,.T.);
#315=EDGE_LOOP('',(#426,#427,#428,#429));
#316=PLANE('',#317);
#317=AXIS2_PLACEMENT_3D('',#318,#319,#320);
#318=CARTESIAN_POINT('',(-12.5009861642506,-134.607855485327,-1.));
#319=DIRECTION('',(-0.921115827107779,-0.389288624354156,0.));
#320=DIRECTION('',(0.389288624354156,-0.92111582710778,0.));
#321=FACE_BOUND('',#322,.T.);
#322=EDGE_LOOP('',(#430,#431,#432,#433,#434,#435,#436,#437));
#323=FACE_BOUND('',#324,.T.);
#324=EDGE_LOOP('',(#438));
#325=FACE_BOUND('',#326,.T.);
#326=EDGE_LOOP('',(#439));
#327=PLANE('',#328);
#328=AXIS2_PLACEMENT_3D('',#329,#330,#331);
#329=CARTESIAN_POINT('',(-9.93284756058116E-15,-113.207855485327,0.));
#330=DIRECTION('',(0.,1.,0.));
#331=DIRECTION('',(-1.,0.,0.));
#332=FACE_BOUND('',#333,.T.);
#333=EDGE_LOOP('',(#440,#441,#442,#443));
#334=PLANE('',#335);
#335=AXIS2_PLACEMENT_3D('',#336,#337,#338);
#336=CARTESIAN_POINT('',(-1.64847079360195E-14,-134.607855485327,0.));
#337=DIRECTION('',(1.,-3.06161699786838E-16,0.));
#338=DIRECTION('',(3.06161699786838E-16,1.,0.));
#339=FACE_BOUND('',#340,.T.);
#340=EDGE_LOOP('',(#444,#445,#446,#447,#448,#449));
#341=PLANE('',#342);
#342=AXIS2_PLACEMENT_3D('',#343,#344,#345);
#343=CARTESIAN_POINT('',(-16.,-134.607855485327,0.));
#344=DIRECTION('',(0.,-1.,0.));
#345=DIRECTION('',(1.,0.,0.));
#346=FACE_BOUND('',#347,.T.);
#347=EDGE_LOOP('',(#450,#451,#452,#453,#454,#455));
#348=PLANE('',#349);
#349=AXIS2_PLACEMENT_3D('',#350,#351,#352);
#350=CARTESIAN_POINT('',(-16.,-134.607855485327,0.));
#351=DIRECTION('',(0.,-1.,0.));
#352=DIRECTION('',(1.,0.,0.));
#353=FACE_BOUND('',#354,.T.);
#354=EDGE_LOOP('',(#456,#457,#458,#459));
#355=PLANE('',#356);
#356=AXIS2_PLACEMENT_3D('',#357,#358,#359);
#357=CARTESIAN_POINT('',(-16.,-113.207855485327,0.));
#358=DIRECTION('',(-1.,1.66014657887874E-16,0.));
#359=DIRECTION('',(-1.66014657887874E-16,-1.,0.));
#360=FACE_BOUND('',#361,.T.);
#361=EDGE_LOOP('',(#460,#461,#462,#463));
#362=PLANE('',#363);
#363=AXIS2_PLACEMENT_3D('',#364,#365,#366);
#364=CARTESIAN_POINT('',(-13.8711112524961,-143.207855485327,29.2));
#365=DIRECTION('',(-1.,0.,0.));
#366=DIRECTION('',(0.,0.,1.));
#367=FACE_BOUND('',#368,.T.);
#368=EDGE_LOOP('',(#464,#465,#466,#467));
#369=PLANE('',#370);
#370=AXIS2_PLACEMENT_3D('',#371,#372,#373);
#371=CARTESIAN_POINT('',(-2.12888874750393,-143.207855485327,32.));
#372=DIRECTION('',(1.,0.,0.));
#373=DIRECTION('',(0.,0.,-1.));
#374=FACE_BOUND('',#375,.T.);
#375=EDGE_LOOP('',(#468,#469,#470,#471));
#376=PLANE('',#377);
#377=AXIS2_PLACEMENT_3D('',#378,#379,#380);
#378=CARTESIAN_POINT('',(0.,0.,32.));
#379=DIRECTION('',(0.,0.,1.));
#380=DIRECTION('',(-1.,1.22464679914735E-16,0.));
#381=FACE_BOUND('',#382,.T.);
#382=EDGE_LOOP('',(#472,#473,#474,#475));
#383=PLANE('',#384);
#384=AXIS2_PLACEMENT_3D('',#385,#386,#387);
#385=CARTESIAN_POINT('',(0.,0.,32.));
#386=DIRECTION('',(0.,0.,1.));
#387=DIRECTION('',(-1.,1.22464679914735E-16,0.));
#388=ORIENTED_EDGE('',*,*,#476,.T.);
#389=ORIENTED_EDGE('',*,*,#477,.T.);
#390=ORIENTED_EDGE('',*,*,#478,.T.);
#391=ORIENTED_EDGE('',*,*,#479,.T.);
#392=ORIENTED_EDGE('',*,*,#480,.F.);
#393=ORIENTED_EDGE('',*,*,#481,.T.);
#394=ORIENTED_EDGE('',*,*,#482,.F.);
#395=ORIENTED_EDGE('',*,*,#483,.F.);
#396=ORIENTED_EDGE('',*,*,#484,.T.);
#397=ORIENTED_EDGE('',*,*,#485,.T.);
#398=ORIENTED_EDGE('',*,*,#479,.F.);
#399=ORIENTED_EDGE('',*,*,#485,.F.);
#400=ORIENTED_EDGE('',*,*,#477,.F.);
#401=ORIENTED_EDGE('',*,*,#484,.F.);
#402=ORIENTED_EDGE('',*,*,#476,.F.);
#403=ORIENTED_EDGE('',*,*,#486,.T.);
#404=ORIENTED_EDGE('',*,*,#478,.F.);
#405=ORIENTED_EDGE('',*,*,#487,.T.);
#406=ORIENTED_EDGE('',*,*,#488,.F.);
#407=ORIENTED_EDGE('',*,*,#489,.F.);
#408=ORIENTED_EDGE('',*,*,#490,.T.);
#409=ORIENTED_EDGE('',*,*,#480,.T.);
#410=ORIENTED_EDGE('',*,*,#491,.T.);
#411=ORIENTED_EDGE('',*,*,#492,.F.);
#412=ORIENTED_EDGE('',*,*,#493,.F.);
#413=ORIENTED_EDGE('',*,*,#494,.F.);
#414=ORIENTED_EDGE('',*,*,#495,.T.);
#415=ORIENTED_EDGE('',*,*,#496,.F.);
#416=ORIENTED_EDGE('',*,*,#481,.F.);
#417=ORIENTED_EDGE('',*,*,#490,.F.);
#418=ORIENTED_EDGE('',*,*,#497,.F.);
#419=ORIENTED_EDGE('',*,*,#498,.F.);
#420=ORIENTED_EDGE('',*,*,#499,.F.);
#421=ORIENTED_EDGE('',*,*,#500,.T.);
#422=ORIENTED_EDGE('',*,*,#482,.T.);
#423=ORIENTED_EDGE('',*,*,#496,.T.);
#424=ORIENTED_EDGE('',*,*,#501,.F.);
#425=ORIENTED_EDGE('',*,*,#502,.T.);
#426=ORIENTED_EDGE('',*,*,#503,.T.);
#427=ORIENTED_EDGE('',*,*,#491,.F.);
#428=ORIENTED_EDGE('',*,*,#483,.T.);
#429=ORIENTED_EDGE('',*,*,#500,.F.);
#430=ORIENTED_EDGE('',*,*,#504,.T.);
#431=ORIENTED_EDGE('',*,*,#505,.F.);
#432=ORIENTED_EDGE('',*,*,#506,.F.);
#433=ORIENTED_EDGE('',*,*,#494,.T.);
#434=ORIENTED_EDGE('',*,*,#507,.T.);
#435=ORIENTED_EDGE('',*,*,#508,.F.);
#436=ORIENTED_EDGE('',*,*,#509,.T.);
#437=ORIENTED_EDGE('',*,*,#497,.T.);
#438=ORIENTED_EDGE('',*,*,#487,.F.);
#439=ORIENTED_EDGE('',*,*,#486,.F.);
#440=ORIENTED_EDGE('',*,*,#488,.T.);
#441=ORIENTED_EDGE('',*,*,#506,.T.);
#442=ORIENTED_EDGE('',*,*,#510,.F.);
#443=ORIENTED_EDGE('',*,*,#511,.F.);
#444=ORIENTED_EDGE('',*,*,#495,.F.);
#445=ORIENTED_EDGE('',*,*,#489,.T.);
#446=ORIENTED_EDGE('',*,*,#511,.T.);
#447=ORIENTED_EDGE('',*,*,#512,.F.);
#448=ORIENTED_EDGE('',*,*,#513,.T.);
#449=ORIENTED_EDGE('',*,*,#501,.T.);
#450=ORIENTED_EDGE('',*,*,#503,.F.);
#451=ORIENTED_EDGE('',*,*,#499,.T.);
#452=ORIENTED_EDGE('',*,*,#514,.T.);
#453=ORIENTED_EDGE('',*,*,#515,.F.);
#454=ORIENTED_EDGE('',*,*,#516,.F.);
#455=ORIENTED_EDGE('',*,*,#492,.T.);
#456=ORIENTED_EDGE('',*,*,#493,.T.);
#457=ORIENTED_EDGE('',*,*,#516,.T.);
#458=ORIENTED_EDGE('',*,*,#517,.F.);
#459=ORIENTED_EDGE('',*,*,#507,.F.);
#460=ORIENTED_EDGE('',*,*,#509,.F.);
#461=ORIENTED_EDGE('',*,*,#518,.F.);
#462=ORIENTED_EDGE('',*,*,#514,.F.);
#463=ORIENTED_EDGE('',*,*,#498,.T.);
#464=ORIENTED_EDGE('',*,*,#504,.F.);
#465=ORIENTED_EDGE('',*,*,#502,.F.);
#466=ORIENTED_EDGE('',*,*,#513,.F.);
#467=ORIENTED_EDGE('',*,*,#519,.F.);
#468=ORIENTED_EDGE('',*,*,#519,.T.);
#469=ORIENTED_EDGE('',*,*,#512,.T.);
#470=ORIENTED_EDGE('',*,*,#510,.T.);
#471=ORIENTED_EDGE('',*,*,#505,.T.);
#472=ORIENTED_EDGE('',*,*,#518,.T.);
#473=ORIENTED_EDGE('',*,*,#508,.T.);
#474=ORIENTED_EDGE('',*,*,#517,.T.);
#475=ORIENTED_EDGE('',*,*,#515,.T.);
#476=EDGE_CURVE('',#520,#520,#521,.T.);
#477=EDGE_CURVE('',#522,#522,#523,.F.);
#478=EDGE_CURVE('',#524,#524,#525,.T.);
#479=EDGE_CURVE('',#526,#526,#527,.F.);
#480=EDGE_CURVE('',#528,#529,#530,.F.);
#481=EDGE_CURVE('',#528,#531,#532,.T.);
#482=EDGE_CURVE('',#533,#531,#534,.T.);
#483=EDGE_CURVE('',#529,#533,#535,.T.);
#484=EDGE_CURVE('',#536,#536,#537,.T.);
#485=EDGE_CURVE('',#538,#538,#539,.T.);
#486=EDGE_CURVE('',#540,#540,#541,.T.);
#487=EDGE_CURVE('',#542,#542,#543,.T.);
#488=EDGE_CURVE('',#544,#545,#546,.T.);
#489=EDGE_CURVE('',#547,#544,#548,.T.);
#490=EDGE_CURVE('',#547,#528,#549,.F.);
#491=EDGE_CURVE('',#529,#550,#551,.F.);
#492=EDGE_CURVE('',#552,#550,#553,.T.);
#493=EDGE_CURVE('',#554,#552,#555,.T.);
#494=EDGE_CURVE('',#545,#554,#556,.T.);
#495=EDGE_CURVE('',#547,#557,#558,.T.);
#496=EDGE_CURVE('',#531,#557,#559,.T.);
#497=EDGE_CURVE('',#560,#561,#562,.F.);
#498=EDGE_CURVE('',#563,#560,#564,.T.);
#499=EDGE_CURVE('',#565,#563,#566,.F.);
#500=EDGE_CURVE('',#565,#533,#567,.T.);
#501=EDGE_CURVE('',#568,#557,#569,.F.);
#502=EDGE_CURVE('',#568,#561,#570,.T.);
#503=EDGE_CURVE('',#565,#550,#571,.T.);
#504=EDGE_CURVE('',#561,#572,#573,.F.);
#505=EDGE_CURVE('',#574,#572,#575,.T.);
#506=EDGE_CURVE('',#545,#574,#576,.T.);
#507=EDGE_CURVE('',#554,#577,#578,.T.);
#508=EDGE_CURVE('',#579,#577,#580,.T.);
#509=EDGE_CURVE('',#579,#560,#581,.F.);
#510=EDGE_CURVE('',#582,#574,#583,.T.);
#511=EDGE_CURVE('',#544,#582,#584,.T.);
#512=EDGE_CURVE('',#585,#582,#586,.T.);
#513=EDGE_CURVE('',#585,#568,#587,.F.);
#514=EDGE_CURVE('',#563,#588,#589,.F.);
#515=EDGE_CURVE('',#590,#588,#591,.T.);
#516=EDGE_CURVE('',#552,#590,#592,.T.);
#517=EDGE_CURVE('',#577,#590,#593,.T.);
#518=EDGE_CURVE('',#588,#579,#594,.F.);
#519=EDGE_CURVE('',#572,#585,#595,.F.);
#520=VERTEX_POINT('',#596);
#521=CIRCLE('',#597,4.5);
#522=VERTEX_POINT('',#601);
#523=CIRCLE('',#602,3.25);
#524=VERTEX_POINT('',#606);
#525=CIRCLE('',#607,4.5);
#526=VERTEX_POINT('',#611);
#527=CIRCLE('',#612,3.25);
#528=VERTEX_POINT('',#616);
#529=VERTEX_POINT('',#617);
#530=LINE('',#618,#619);
#531=VERTEX_POINT('',#621);
#532=LINE('',#622,#623);
#533=VERTEX_POINT('',#625);
#534=LINE('',#626,#627);
#535=LINE('',#629,#630);
#536=VERTEX_POINT('',#632);
#537=CIRCLE('',#633,3.25);
#538=VERTEX_POINT('',#637);
#539=CIRCLE('',#638,3.25);
#540=VERTEX_POINT('',#642);
#541=CIRCLE('',#643,4.5);
#542=VERTEX_POINT('',#647);
#543=CIRCLE('',#648,4.5);
#544=VERTEX_POINT('',#652);
#545=VERTEX_POINT('',#653);
#546=LINE('',#654,#655);
#547=VERTEX_POINT('',#657);
#548=LINE('',#658,#659);
#549=LINE('',#661,#662);
#550=VERTEX_POINT('',#664);
#551=LINE('',#665,#666);
#552=VERTEX_POINT('',#668);
#553=LINE('',#669,#670);
#554=VERTEX_POINT('',#672);
#555=LINE('',#673,#674);
#556=LINE('',#676,#677);
#557=VERTEX_POINT('',#679);
#558=LINE('',#680,#681);
#559=LINE('',#683,#684);
#560=VERTEX_POINT('',#686);
#561=VERTEX_POINT('',#687);
#562=LINE('',#688,#689);
#563=VERTEX_POINT('',#691);
#564=LINE('',#692,#693);
#565=VERTEX_POINT('',#695);
#566=LINE('',#696,#697);
#567=LINE('',#699,#700);
#568=VERTEX_POINT('',#702);
#569=LINE('',#703,#704);
#570=LINE('',#706,#707);
#571=LINE('',#709,#710);
#572=VERTEX_POINT('',#712);
#573=LINE('',#713,#714);
#574=VERTEX_POINT('',#716);
#575=LINE('',#717,#718);
#576=LINE('',#720,#721);
#577=VERTEX_POINT('',#723);
#578=LINE('',#724,#725);
#579=VERTEX_POINT('',#727);
#580=LINE('',#728,#729);
#581=LINE('',#731,#732);
#582=VERTEX_POINT('',#734);
#583=LINE('',#735,#736);
#584=LINE('',#738,#739);
#585=VERTEX_POINT('',#741);
#586=LINE('',#742,#743);
#587=LINE('',#745,#746);
#588=VERTEX_POINT('',#748);
#589=LINE('',#749,#750);
#590=VERTEX_POINT('',#752);
#591=LINE('',#753,#754);
#592=LINE('',#756,#757);
#593=LINE('',#759,#760);
#594=LINE('',#762,#763);
#595=LINE('',#765,#766);
#596=CARTESIAN_POINT('',(-12.5,-103.907855485327,22.85));
#597=AXIS2_PLACEMENT_3D('',#598,#599,#600);
#598=CARTESIAN_POINT('',(-8.00000000000001,-103.907855485327,22.85));
#599=DIRECTION('',(0.,1.,0.));
#600=DIRECTION('',(-1.,0.,-1.22464679914735E-16));
#601=CARTESIAN_POINT('',(-11.25,-103.907855485327,22.85));
#602=AXIS2_PLACEMENT_3D('',#603,#604,#605);
#603=CARTESIAN_POINT('',(-8.00000000000001,-103.907855485327,22.85));
#604=DIRECTION('',(0.,1.,0.));
#605=DIRECTION('',(-1.,0.,-1.22464679914735E-16));
#606=CARTESIAN_POINT('',(-12.5,-103.907855485327,6.35));
#607=AXIS2_PLACEMENT_3D('',#608,#609,#610);
#608=CARTESIAN_POINT('',(-8.00000000000001,-103.907855485327,6.35));
#609=DIRECTION('',(0.,1.,0.));
#610=DIRECTION('',(-1.,0.,-1.22464679914735E-16));
#611=CARTESIAN_POINT('',(-11.25,-103.907855485327,6.35));
#612=AXIS2_PLACEMENT_3D('',#613,#614,#615);
#613=CARTESIAN_POINT('',(-8.00000000000001,-103.907855485327,6.35));
#614=DIRECTION('',(0.,1.,0.));
#615=DIRECTION('',(-1.,0.,-1.22464679914735E-16));
#616=CARTESIAN_POINT('',(-4.53445053285014,-137.057855485327,-3.33066907387547E-16));
#617=CARTESIAN_POINT('',(-11.4655494671499,-137.057855485327,-3.33066907387547E-16));
#618=CARTESIAN_POINT('',(-11.4655494671499,-137.057855485327,-1.11022302462516E-16));
#619=VECTOR('',#620,1.);
#620=DIRECTION('',(1.,0.,0.));
#621=CARTESIAN_POINT('',(-4.53445053285014,-137.057855485327,29.2));
#622=CARTESIAN_POINT('',(-4.53445053285014,-137.057855485327,-3.33066907387547E-16));
#623=VECTOR('',#624,1.);
#624=DIRECTION('',(0.,0.,1.));
#625=CARTESIAN_POINT('',(-11.4655494671499,-137.057855485327,29.2));
#626=CARTESIAN_POINT('',(-11.4655494671499,-137.057855485327,29.2));
#627=VECTOR('',#628,1.);
#628=DIRECTION('',(1.,0.,0.));
#629=CARTESIAN_POINT('',(-11.4655494671499,-137.057855485327,-3.33066907387547E-16));
#630=VECTOR('',#631,1.);
#631=DIRECTION('',(0.,0.,1.));
#632=CARTESIAN_POINT('',(-11.25,-137.057855485327,22.85));
#633=AXIS2_PLACEMENT_3D('',#634,#635,#636);
#634=CARTESIAN_POINT('',(-8.00000000000001,-137.057855485327,22.85));
#635=DIRECTION('',(0.,1.,0.));
#636=DIRECTION('',(-1.,0.,-1.22464679914735E-16));
#637=CARTESIAN_POINT('',(-11.25,-137.057855485327,6.35));
#638=AXIS2_PLACEMENT_3D('',#639,#640,#641);
#639=CARTESIAN_POINT('',(-8.00000000000001,-137.057855485327,6.35));
#640=DIRECTION('',(0.,1.,0.));
#641=DIRECTION('',(-1.,0.,-1.22464679914735E-16));
#642=CARTESIAN_POINT('',(-12.5,-113.207855485327,22.85));
#643=AXIS2_PLACEMENT_3D('',#644,#645,#646);
#644=CARTESIAN_POINT('',(-8.00000000000001,-113.207855485327,22.85));
#645=DIRECTION('',(0.,1.,0.));
#646=DIRECTION('',(-1.,0.,-1.22464679914735E-16));
#647=CARTESIAN_POINT('',(-12.5,-113.207855485327,6.35));
#648=AXIS2_PLACEMENT_3D('',#649,#650,#651);
#649=CARTESIAN_POINT('',(-8.00000000000001,-113.207855485327,6.35));
#650=DIRECTION('',(0.,1.,0.));
#651=DIRECTION('',(-1.,0.,-1.22464679914735E-16));
#652=CARTESIAN_POINT('',(-1.64847079360195E-14,-134.607855485327,0.));
#653=CARTESIAN_POINT('',(-9.93284756058116E-15,-113.207855485327,0.));
#654=CARTESIAN_POINT('',(-1.64847079360195E-14,-134.607855485327,0.));
#655=VECTOR('',#656,1.);
#656=DIRECTION('',(3.06161699786838E-16,1.,0.));
#657=CARTESIAN_POINT('',(-3.49901383574942,-134.607855485327,-7.40148683083438E-17));
#658=CARTESIAN_POINT('',(-3.49901383574942,-134.607855485327,0.));
#659=VECTOR('',#660,1.);
#660=DIRECTION('',(1.,0.,0.));
#661=CARTESIAN_POINT('',(-4.53445053285014,-137.057855485327,-1.11022302462516E-16));
#662=VECTOR('',#663,1.);
#663=DIRECTION('',(0.389288624354156,0.92111582710778,0.));
#664=CARTESIAN_POINT('',(-12.5009861642506,-134.607855485327,-7.40148683083438E-17));
#665=CARTESIAN_POINT('',(-12.5009861642506,-134.607855485327,-1.11022302462516E-16));
#666=VECTOR('',#667,1.);
#667=DIRECTION('',(0.389288624354156,-0.92111582710778,0.));
#668=CARTESIAN_POINT('',(-16.,-134.607855485327,0.));
#669=CARTESIAN_POINT('',(-16.,-134.607855485327,0.));
#670=VECTOR('',#671,1.);
#671=DIRECTION('',(1.,0.,0.));
#672=CARTESIAN_POINT('',(-16.,-113.207855485327,0.));
#673=CARTESIAN_POINT('',(-16.,-113.207855485327,0.));
#674=VECTOR('',#675,1.);
#675=DIRECTION('',(-1.66014657887874E-16,-1.,0.));
#676=CARTESIAN_POINT('',(-9.93284756058116E-15,-113.207855485327,0.));
#677=VECTOR('',#678,1.);
#678=DIRECTION('',(-1.,0.,0.));
#679=CARTESIAN_POINT('',(-3.49901383574942,-134.607855485327,29.2));
#680=CARTESIAN_POINT('',(-3.49901383574942,-134.607855485327,-1.11022302462516E-16));
#681=VECTOR('',#682,1.);
#682=DIRECTION('',(0.,0.,1.));
#683=CARTESIAN_POINT('',(-4.53445053285014,-137.057855485327,29.2));
#684=VECTOR('',#685,1.);
#685=DIRECTION('',(0.389288624354156,0.92111582710778,0.));
#686=CARTESIAN_POINT('',(-13.8711112524961,-113.207855485327,29.2));
#687=CARTESIAN_POINT('',(-2.12888874750393,-113.207855485327,29.2));
#688=CARTESIAN_POINT('',(-2.12888874750393,-113.207855485327,29.2));
#689=VECTOR('',#690,1.);
#690=DIRECTION('',(-1.,0.,0.));
#691=CARTESIAN_POINT('',(-13.8711112524961,-134.607855485327,29.2));
#692=CARTESIAN_POINT('',(-13.8711112524961,-134.607855485327,29.2));
#693=VECTOR('',#694,1.);
#694=DIRECTION('',(8.30073289439369E-17,1.,0.));
#695=CARTESIAN_POINT('',(-12.5009861642506,-134.607855485327,29.2));
#696=CARTESIAN_POINT('',(-13.8711112524961,-134.607855485327,29.2));
#697=VECTOR('',#698,1.);
#698=DIRECTION('',(1.,0.,0.));
#699=CARTESIAN_POINT('',(-12.5009861642506,-134.607855485327,29.2));
#700=VECTOR('',#701,1.);
#701=DIRECTION('',(0.389288624354156,-0.92111582710778,0.));
#702=CARTESIAN_POINT('',(-2.12888874750393,-134.607855485327,29.2));
#703=CARTESIAN_POINT('',(-3.49901383574942,-134.607855485327,29.2));
#704=VECTOR('',#705,1.);
#705=DIRECTION('',(1.,0.,0.));
#706=CARTESIAN_POINT('',(-2.12888874750393,-134.607855485327,29.2));
#707=VECTOR('',#708,1.);
#708=DIRECTION('',(0.,1.,0.));
#709=CARTESIAN_POINT('',(-12.5009861642506,-134.607855485327,29.2));
#710=VECTOR('',#711,1.);
#711=DIRECTION('',(0.,0.,-1.));
#712=CARTESIAN_POINT('',(-2.12888874750393,-113.207855485327,32.));
#713=CARTESIAN_POINT('',(-2.12888874750393,-113.207855485327,32.));
#714=VECTOR('',#715,1.);
#715=DIRECTION('',(0.,0.,-1.));
#716=CARTESIAN_POINT('',(-9.93284756058116E-15,-113.207855485327,32.));
#717=CARTESIAN_POINT('',(-9.93284756058116E-15,-113.207855485327,32.));
#718=VECTOR('',#719,1.);
#719=DIRECTION('',(-1.,0.,0.));
#720=CARTESIAN_POINT('',(-9.93284756058116E-15,-113.207855485327,0.));
#721=VECTOR('',#722,1.);
#722=DIRECTION('',(0.,0.,1.));
#723=CARTESIAN_POINT('',(-16.,-113.207855485327,32.));
#724=CARTESIAN_POINT('',(-16.,-113.207855485327,0.));
#725=VECTOR('',#726,1.);
#726=DIRECTION('',(0.,0.,1.));
#727=CARTESIAN_POINT('',(-13.8711112524961,-113.207855485327,32.));
#728=CARTESIAN_POINT('',(-13.8711112524961,-113.207855485327,32.));
#729=VECTOR('',#730,1.);
#730=DIRECTION('',(-1.,0.,0.));
#731=CARTESIAN_POINT('',(-13.8711112524961,-113.207855485327,29.2));
#732=VECTOR('',#733,1.);
#733=DIRECTION('',(0.,0.,1.));
#734=CARTESIAN_POINT('',(-1.64847079360195E-14,-134.607855485327,32.));
#735=CARTESIAN_POINT('',(-1.64847079360195E-14,-134.607855485327,32.));
#736=VECTOR('',#737,1.);
#737=DIRECTION('',(3.06161699786838E-16,1.,0.));
#738=CARTESIAN_POINT('',(-1.7124138165011E-14,-134.607855485327,0.));
#739=VECTOR('',#740,1.);
#740=DIRECTION('',(0.,0.,1.));
#741=CARTESIAN_POINT('',(-2.12888874750393,-134.607855485327,32.));
#742=CARTESIAN_POINT('',(-2.12888874750393,-134.607855485327,32.));
#743=VECTOR('',#744,1.);
#744=DIRECTION('',(1.,0.,0.));
#745=CARTESIAN_POINT('',(-2.12888874750393,-134.607855485327,29.2));
#746=VECTOR('',#747,1.);
#747=DIRECTION('',(0.,0.,1.));
#748=CARTESIAN_POINT('',(-13.8711112524961,-134.607855485327,32.));
#749=CARTESIAN_POINT('',(-13.8711112524961,-134.607855485327,32.));
#750=VECTOR('',#751,1.);
#751=DIRECTION('',(0.,0.,-1.));
#752=CARTESIAN_POINT('',(-16.,-134.607855485327,32.));
#753=CARTESIAN_POINT('',(-16.,-134.607855485327,32.));
#754=VECTOR('',#755,1.);
#755=DIRECTION('',(1.,0.,0.));
#756=CARTESIAN_POINT('',(-16.,-134.607855485327,0.));
#757=VECTOR('',#758,1.);
#758=DIRECTION('',(0.,0.,1.));
#759=CARTESIAN_POINT('',(-16.,-113.207855485327,32.));
#760=VECTOR('',#761,1.);
#761=DIRECTION('',(-1.66014657887874E-16,-1.,0.));
#762=CARTESIAN_POINT('',(-13.8711112524961,-113.207855485327,32.));
#763=VECTOR('',#764,1.);
#764=DIRECTION('',(0.,-1.,0.));
#765=CARTESIAN_POINT('',(-2.12888874750393,-134.607855485327,32.));
#766=VECTOR('',#767,1.);
#767=DIRECTION('',(0.,1.,0.));
ENDSEC;
END-ISO-10303-21;
