ISO-10303-21;
HEADER;
FILE_DESCRIPTION(('STEP AP242'),
    '1');
FILE_NAME('Display',
    '',
    ('UNSPECIFIED'),
    ('UNSPECIFIED'),
    'C3D Converter',
    'C3D Toolkit',
    '');
FILE_SCHEMA(('AP242_MANAGED_MODEL_BASED_3D_ENGINEERING_MIM_LF { 1 0 10303 442 1 1 4 }'));
ENDSEC;

DATA;
#1=SHAPE_REPRESENTATION('NONE',(#2),#6);
#2=AXIS2_PLACEMENT_3D('',#3,#4,#5);
#3=CARTESIAN_POINT('',(0.,0.,0.));
#4=DIRECTION('',(0.,0.,1.));
#5=DIRECTION('',(1.,0.,0.));
#6=(GEOMETRIC_REPRESENTATION_CONTEXT(3)GLOBAL_UNCERTAINTY_ASSIGNED_CONTEXT((#8))
GLOBAL_UNIT_ASSIGNED_CONTEXT((#7,#9,#10))REPRESENTATION_CONTEXT('NONE','NONE'));
#7=(LENGTH_UNIT()NAMED_UNIT(*)SI_UNIT(.MILLI.,.METRE.));
#8=UNCERTAINTY_MEASURE_WITH_UNIT(LENGTH_MEASURE(1.E-5),#7,'NONE','NONE');
#9=(NAMED_UNIT(*)PLANE_ANGLE_UNIT()SI_UNIT($,.RADIAN.));
#10=(NAMED_UNIT(*)SI_UNIT($,.STERADIAN.)SOLID_ANGLE_UNIT());
#11=SHAPE_DEFINITION_REPRESENTATION(#12,#1);
#12=PRODUCT_DEFINITION_SHAPE('NONE','NONE',#13);
#13=PRODUCT_DEFINITION('','UNSPECIFIED',#14,#22);
#14=PRODUCT_DEFINITION_FORMATION_WITH_SPECIFIED_SOURCE('ANY','UNSPECIFIED',#15,.NOT_KNOWN.);
#15=PRODUCT('','\X2\0414043504420430043B044C\X0\','NONE',(#25));
#16=PERSON('UNSPECIFIED','rorka','UNSPECIFIED',('UNSPECIFIED'),('UNSPECIFIED'),(
'UNSPECIFIED'));
#17=ORGANIZATION('UNSPECIFIED','UNSPECIFIED','UNSPECIFIED');
#18=PERSON_AND_ORGANIZATION(#16,#17);
#19=PERSON_AND_ORGANIZATION_ROLE('design_owner');
#20=CC_DESIGN_PERSON_AND_ORGANIZATION_ASSIGNMENT(#18,#19,(#15));
#21=PRODUCT_RELATED_PRODUCT_CATEGORY('detail','',(#15));
#22=DESIGN_CONTEXT('detailed design',#23,'design');
#23=APPLICATION_CONTEXT('configuration controlled 3d designs of mechanical parts and assemblies');
#24=APPLICATION_PROTOCOL_DEFINITION('international standard','config_control_design',
1994,#23);
#25=MECHANICAL_CONTEXT('NONE',#23,'mechanical');
#26=CC_DESIGN_DATE_AND_TIME_ASSIGNMENT(#27,#31,(#13));
#27=DATE_AND_TIME(#28,#29);
#28=CALENDAR_DATE(0,1,1);
#29=LOCAL_TIME(0,0,0.,#30);
#30=COORDINATED_UNIVERSAL_TIME_OFFSET(0,0,.AHEAD.);
#31=DATE_TIME_ROLE('creation_date');
#32=CC_DESIGN_APPROVAL(#33,(#13));
#33=APPROVAL(#34,'UNSPECIFIED');
#34=APPROVAL_STATUS('not_yet_approved');
#35=APPROVAL_DATE_TIME(#36,#33);
#36=DATE_AND_TIME(#37,#38);
#37=CALENDAR_DATE(0,1,1);
#38=LOCAL_TIME(0,0,0.,#39);
#39=COORDINATED_UNIVERSAL_TIME_OFFSET(0,0,.AHEAD.);
#40=MANIFOLD_SOLID_BREP('',#41);
#41=CLOSED_SHELL('',(#53,#62,#71,#80,#89,#98,#107,#116,#125,#134,#143,#152,#161,
#170,#179,#188,#197,#206,#215,#224,#233,#242,#251,#260,#269,#278,#287,#296,#305,
#314));
#42=COLOUR_RGB('',0.141176470588235,0.141176470588235,0.141176470588235);
#43=FILL_AREA_STYLE_COLOUR('',#42);
#44=FILL_AREA_STYLE($,(#43));
#45=SURFACE_STYLE_FILL_AREA(#44);
#46=SURFACE_SIDE_STYLE('',(#45));
#47=SURFACE_STYLE_USAGE(.BOTH.,#46);
#48=PRESENTATION_STYLE_ASSIGNMENT((#47));
#49=MECHANICAL_DESIGN_GEOMETRIC_PRESENTATION_REPRESENTATION('NONE',(#50,#61,#70,
#79,#88,#97,#106,#115,#124,#133,#142,#151,#160,#169,#178,#187,#196,#205,#214,#223,
#232,#241,#250,#259,#268,#277,#286,#295,#304,#313,#322),#6);
#50=STYLED_ITEM('',(#48),#40);
#51=ADVANCED_BREP_SHAPE_REPRESENTATION('NONE',(#40),#6);
#52=SHAPE_REPRESENTATION_RELATIONSHIP('','',#1,#51);
#53=ADVANCED_FACE('',(#323),#325,.F.);
#54=COLOUR_RGB('',0.141176470588235,0.141176470588235,0.141176470588235);
#55=FILL_AREA_STYLE_COLOUR('',#54);
#56=FILL_AREA_STYLE($,(#55));
#57=SURFACE_STYLE_FILL_AREA(#56);
#58=SURFACE_SIDE_STYLE('',(#57));
#59=SURFACE_STYLE_USAGE(.BOTH.,#58);
#60=PRESENTATION_STYLE_ASSIGNMENT((#59));
#61=STYLED_ITEM('',(#60),#53);
#62=ADVANCED_FACE('',(#330),#332,.T.);
#63=COLOUR_RGB('',0.141176470588235,0.141176470588235,0.141176470588235);
#64=FILL_AREA_STYLE_COLOUR('',#63);
#65=FILL_AREA_STYLE($,(#64));
#66=SURFACE_STYLE_FILL_AREA(#65);
#67=SURFACE_SIDE_STYLE('',(#66));
#68=SURFACE_STYLE_USAGE(.BOTH.,#67);
#69=PRESENTATION_STYLE_ASSIGNMENT((#68));
#70=STYLED_ITEM('',(#69),#62);
#71=ADVANCED_FACE('',(#337),#339,.T.);
#72=COLOUR_RGB('',0.141176470588235,0.141176470588235,0.141176470588235);
#73=FILL_AREA_STYLE_COLOUR('',#72);
#74=FILL_AREA_STYLE($,(#73));
#75=SURFACE_STYLE_FILL_AREA(#74);
#76=SURFACE_SIDE_STYLE('',(#75));
#77=SURFACE_STYLE_USAGE(.BOTH.,#76);
#78=PRESENTATION_STYLE_ASSIGNMENT((#77));
#79=STYLED_ITEM('',(#78),#71);
#80=ADVANCED_FACE('',(#344),#346,.F.);
#81=COLOUR_RGB('',0.141176470588235,0.141176470588235,0.141176470588235);
#82=FILL_AREA_STYLE_COLOUR('',#81);
#83=FILL_AREA_STYLE($,(#82));
#84=SURFACE_STYLE_FILL_AREA(#83);
#85=SURFACE_SIDE_STYLE('',(#84));
#86=SURFACE_STYLE_USAGE(.BOTH.,#85);
#87=PRESENTATION_STYLE_ASSIGNMENT((#86));
#88=STYLED_ITEM('',(#87),#80);
#89=ADVANCED_FACE('',(#351),#353,.T.);
#90=COLOUR_RGB('',0.141176470588235,0.141176470588235,0.141176470588235);
#91=FILL_AREA_STYLE_COLOUR('',#90);
#92=FILL_AREA_STYLE($,(#91));
#93=SURFACE_STYLE_FILL_AREA(#92);
#94=SURFACE_SIDE_STYLE('',(#93));
#95=SURFACE_STYLE_USAGE(.BOTH.,#94);
#96=PRESENTATION_STYLE_ASSIGNMENT((#95));
#97=STYLED_ITEM('',(#96),#89);
#98=ADVANCED_FACE('',(#358),#360,.T.);
#99=COLOUR_RGB('',0.141176470588235,0.141176470588235,0.141176470588235);
#100=FILL_AREA_STYLE_COLOUR('',#99);
#101=FILL_AREA_STYLE($,(#100));
#102=SURFACE_STYLE_FILL_AREA(#101);
#103=SURFACE_SIDE_STYLE('',(#102));
#104=SURFACE_STYLE_USAGE(.BOTH.,#103);
#105=PRESENTATION_STYLE_ASSIGNMENT((#104));
#106=STYLED_ITEM('',(#105),#98);
#107=ADVANCED_FACE('',(#365),#367,.F.);
#108=COLOUR_RGB('',0.141176470588235,0.141176470588235,0.141176470588235);
#109=FILL_AREA_STYLE_COLOUR('',#108);
#110=FILL_AREA_STYLE($,(#109));
#111=SURFACE_STYLE_FILL_AREA(#110);
#112=SURFACE_SIDE_STYLE('',(#111));
#113=SURFACE_STYLE_USAGE(.BOTH.,#112);
#114=PRESENTATION_STYLE_ASSIGNMENT((#113));
#115=STYLED_ITEM('',(#114),#107);
#116=ADVANCED_FACE('',(#372),#374,.T.);
#117=COLOUR_RGB('',0.141176470588235,0.141176470588235,0.141176470588235);
#118=FILL_AREA_STYLE_COLOUR('',#117);
#119=FILL_AREA_STYLE($,(#118));
#120=SURFACE_STYLE_FILL_AREA(#119);
#121=SURFACE_SIDE_STYLE('',(#120));
#122=SURFACE_STYLE_USAGE(.BOTH.,#121);
#123=PRESENTATION_STYLE_ASSIGNMENT((#122));
#124=STYLED_ITEM('',(#123),#116);
#125=ADVANCED_FACE('',(#379),#381,.T.);
#126=COLOUR_RGB('',0.141176470588235,0.141176470588235,0.141176470588235);
#127=FILL_AREA_STYLE_COLOUR('',#126);
#128=FILL_AREA_STYLE($,(#127));
#129=SURFACE_STYLE_FILL_AREA(#128);
#130=SURFACE_SIDE_STYLE('',(#129));
#131=SURFACE_STYLE_USAGE(.BOTH.,#130);
#132=PRESENTATION_STYLE_ASSIGNMENT((#131));
#133=STYLED_ITEM('',(#132),#125);
#134=ADVANCED_FACE('',(#386),#388,.F.);
#135=COLOUR_RGB('',0.141176470588235,0.141176470588235,0.141176470588235);
#136=FILL_AREA_STYLE_COLOUR('',#135);
#137=FILL_AREA_STYLE($,(#136));
#138=SURFACE_STYLE_FILL_AREA(#137);
#139=SURFACE_SIDE_STYLE('',(#138));
#140=SURFACE_STYLE_USAGE(.BOTH.,#139);
#141=PRESENTATION_STYLE_ASSIGNMENT((#140));
#142=STYLED_ITEM('',(#141),#134);
#143=ADVANCED_FACE('',(#393),#395,.T.);
#144=COLOUR_RGB('',0.141176470588235,0.141176470588235,0.141176470588235);
#145=FILL_AREA_STYLE_COLOUR('',#144);
#146=FILL_AREA_STYLE($,(#145));
#147=SURFACE_STYLE_FILL_AREA(#146);
#148=SURFACE_SIDE_STYLE('',(#147));
#149=SURFACE_STYLE_USAGE(.BOTH.,#148);
#150=PRESENTATION_STYLE_ASSIGNMENT((#149));
#151=STYLED_ITEM('',(#150),#143);
#152=ADVANCED_FACE('',(#400),#402,.T.);
#153=COLOUR_RGB('',0.141176470588235,0.141176470588235,0.141176470588235);
#154=FILL_AREA_STYLE_COLOUR('',#153);
#155=FILL_AREA_STYLE($,(#154));
#156=SURFACE_STYLE_FILL_AREA(#155);
#157=SURFACE_SIDE_STYLE('',(#156));
#158=SURFACE_STYLE_USAGE(.BOTH.,#157);
#159=PRESENTATION_STYLE_ASSIGNMENT((#158));
#160=STYLED_ITEM('',(#159),#152);
#161=ADVANCED_FACE('',(#407),#409,.F.);
#162=COLOUR_RGB('',0.141176470588235,0.141176470588235,0.141176470588235);
#163=FILL_AREA_STYLE_COLOUR('',#162);
#164=FILL_AREA_STYLE($,(#163));
#165=SURFACE_STYLE_FILL_AREA(#164);
#166=SURFACE_SIDE_STYLE('',(#165));
#167=SURFACE_STYLE_USAGE(.BOTH.,#166);
#168=PRESENTATION_STYLE_ASSIGNMENT((#167));
#169=STYLED_ITEM('',(#168),#161);
#170=ADVANCED_FACE('',(#414),#416,.T.);
#171=COLOUR_RGB('',0.141176470588235,0.141176470588235,0.141176470588235);
#172=FILL_AREA_STYLE_COLOUR('',#171);
#173=FILL_AREA_STYLE($,(#172));
#174=SURFACE_STYLE_FILL_AREA(#173);
#175=SURFACE_SIDE_STYLE('',(#174));
#176=SURFACE_STYLE_USAGE(.BOTH.,#175);
#177=PRESENTATION_STYLE_ASSIGNMENT((#176));
#178=STYLED_ITEM('',(#177),#170);
#179=ADVANCED_FACE('',(#421),#423,.T.);
#180=COLOUR_RGB('',0.141176470588235,0.141176470588235,0.141176470588235);
#181=FILL_AREA_STYLE_COLOUR('',#180);
#182=FILL_AREA_STYLE($,(#181));
#183=SURFACE_STYLE_FILL_AREA(#182);
#184=SURFACE_SIDE_STYLE('',(#183));
#185=SURFACE_STYLE_USAGE(.BOTH.,#184);
#186=PRESENTATION_STYLE_ASSIGNMENT((#185));
#187=STYLED_ITEM('',(#186),#179);
#188=ADVANCED_FACE('',(#428),#430,.F.);
#189=COLOUR_RGB('',0.141176470588235,0.141176470588235,0.141176470588235);
#190=FILL_AREA_STYLE_COLOUR('',#189);
#191=FILL_AREA_STYLE($,(#190));
#192=SURFACE_STYLE_FILL_AREA(#191);
#193=SURFACE_SIDE_STYLE('',(#192));
#194=SURFACE_STYLE_USAGE(.BOTH.,#193);
#195=PRESENTATION_STYLE_ASSIGNMENT((#194));
#196=STYLED_ITEM('',(#195),#188);
#197=ADVANCED_FACE('',(#435),#437,.T.);
#198=COLOUR_RGB('',0.141176470588235,0.141176470588235,0.141176470588235);
#199=FILL_AREA_STYLE_COLOUR('',#198);
#200=FILL_AREA_STYLE($,(#199));
#201=SURFACE_STYLE_FILL_AREA(#200);
#202=SURFACE_SIDE_STYLE('',(#201));
#203=SURFACE_STYLE_USAGE(.BOTH.,#202);
#204=PRESENTATION_STYLE_ASSIGNMENT((#203));
#205=STYLED_ITEM('',(#204),#197);
#206=ADVANCED_FACE('',(#442),#444,.T.);
#207=COLOUR_RGB('',0.141176470588235,0.141176470588235,0.141176470588235);
#208=FILL_AREA_STYLE_COLOUR('',#207);
#209=FILL_AREA_STYLE($,(#208));
#210=SURFACE_STYLE_FILL_AREA(#209);
#211=SURFACE_SIDE_STYLE('',(#210));
#212=SURFACE_STYLE_USAGE(.BOTH.,#211);
#213=PRESENTATION_STYLE_ASSIGNMENT((#212));
#214=STYLED_ITEM('',(#213),#206);
#215=ADVANCED_FACE('',(#449),#451,.F.);
#216=COLOUR_RGB('',0.141176470588235,0.141176470588235,0.141176470588235);
#217=FILL_AREA_STYLE_COLOUR('',#216);
#218=FILL_AREA_STYLE($,(#217));
#219=SURFACE_STYLE_FILL_AREA(#218);
#220=SURFACE_SIDE_STYLE('',(#219));
#221=SURFACE_STYLE_USAGE(.BOTH.,#220);
#222=PRESENTATION_STYLE_ASSIGNMENT((#221));
#223=STYLED_ITEM('',(#222),#215);
#224=ADVANCED_FACE('',(#456),#458,.T.);
#225=COLOUR_RGB('',0.141176470588235,0.141176470588235,0.141176470588235);
#226=FILL_AREA_STYLE_COLOUR('',#225);
#227=FILL_AREA_STYLE($,(#226));
#228=SURFACE_STYLE_FILL_AREA(#227);
#229=SURFACE_SIDE_STYLE('',(#228));
#230=SURFACE_STYLE_USAGE(.BOTH.,#229);
#231=PRESENTATION_STYLE_ASSIGNMENT((#230));
#232=STYLED_ITEM('',(#231),#224);
#233=ADVANCED_FACE('',(#463),#465,.T.);
#234=COLOUR_RGB('',0.141176470588235,0.141176470588235,0.141176470588235);
#235=FILL_AREA_STYLE_COLOUR('',#234);
#236=FILL_AREA_STYLE($,(#235));
#237=SURFACE_STYLE_FILL_AREA(#236);
#238=SURFACE_SIDE_STYLE('',(#237));
#239=SURFACE_STYLE_USAGE(.BOTH.,#238);
#240=PRESENTATION_STYLE_ASSIGNMENT((#239));
#241=STYLED_ITEM('',(#240),#233);
#242=ADVANCED_FACE('',(#470),#472,.T.);
#243=COLOUR_RGB('',0.141176470588235,0.141176470588235,0.141176470588235);
#244=FILL_AREA_STYLE_COLOUR('',#243);
#245=FILL_AREA_STYLE($,(#244));
#246=SURFACE_STYLE_FILL_AREA(#245);
#247=SURFACE_SIDE_STYLE('',(#246));
#248=SURFACE_STYLE_USAGE(.BOTH.,#247);
#249=PRESENTATION_STYLE_ASSIGNMENT((#248));
#250=STYLED_ITEM('',(#249),#242);
#251=ADVANCED_FACE('',(#477),#479,.T.);
#252=COLOUR_RGB('',0.141176470588235,0.141176470588235,0.141176470588235);
#253=FILL_AREA_STYLE_COLOUR('',#252);
#254=FILL_AREA_STYLE($,(#253));
#255=SURFACE_STYLE_FILL_AREA(#254);
#256=SURFACE_SIDE_STYLE('',(#255));
#257=SURFACE_STYLE_USAGE(.BOTH.,#256);
#258=PRESENTATION_STYLE_ASSIGNMENT((#257));
#259=STYLED_ITEM('',(#258),#251);
#260=ADVANCED_FACE('',(#484),#486,.T.);
#261=COLOUR_RGB('',0.141176470588235,0.141176470588235,0.141176470588235);
#262=FILL_AREA_STYLE_COLOUR('',#261);
#263=FILL_AREA_STYLE($,(#262));
#264=SURFACE_STYLE_FILL_AREA(#263);
#265=SURFACE_SIDE_STYLE('',(#264));
#266=SURFACE_STYLE_USAGE(.BOTH.,#265);
#267=PRESENTATION_STYLE_ASSIGNMENT((#266));
#268=STYLED_ITEM('',(#267),#260);
#269=ADVANCED_FACE('',(#491),#493,.T.);
#270=COLOUR_RGB('',0.141176470588235,0.141176470588235,0.141176470588235);
#271=FILL_AREA_STYLE_COLOUR('',#270);
#272=FILL_AREA_STYLE($,(#271));
#273=SURFACE_STYLE_FILL_AREA(#272);
#274=SURFACE_SIDE_STYLE('',(#273));
#275=SURFACE_STYLE_USAGE(.BOTH.,#274);
#276=PRESENTATION_STYLE_ASSIGNMENT((#275));
#277=STYLED_ITEM('',(#276),#269);
#278=ADVANCED_FACE('',(#498),#500,.T.);
#279=COLOUR_RGB('',0.141176470588235,0.141176470588235,0.141176470588235);
#280=FILL_AREA_STYLE_COLOUR('',#279);
#281=FILL_AREA_STYLE($,(#280));
#282=SURFACE_STYLE_FILL_AREA(#281);
#283=SURFACE_SIDE_STYLE('',(#282));
#284=SURFACE_STYLE_USAGE(.BOTH.,#283);
#285=PRESENTATION_STYLE_ASSIGNMENT((#284));
#286=STYLED_ITEM('',(#285),#278);
#287=ADVANCED_FACE('',(#505),#507,.T.);
#288=COLOUR_RGB('',0.141176470588235,0.141176470588235,0.141176470588235);
#289=FILL_AREA_STYLE_COLOUR('',#288);
#290=FILL_AREA_STYLE($,(#289));
#291=SURFACE_STYLE_FILL_AREA(#290);
#292=SURFACE_SIDE_STYLE('',(#291));
#293=SURFACE_STYLE_USAGE(.BOTH.,#292);
#294=PRESENTATION_STYLE_ASSIGNMENT((#293));
#295=STYLED_ITEM('',(#294),#287);
#296=ADVANCED_FACE('',(#512),#514,.T.);
#297=COLOUR_RGB('',0.141176470588235,0.141176470588235,0.141176470588235);
#298=FILL_AREA_STYLE_COLOUR('',#297);
#299=FILL_AREA_STYLE($,(#298));
#300=SURFACE_STYLE_FILL_AREA(#299);
#301=SURFACE_SIDE_STYLE('',(#300));
#302=SURFACE_STYLE_USAGE(.BOTH.,#301);
#303=PRESENTATION_STYLE_ASSIGNMENT((#302));
#304=STYLED_ITEM('',(#303),#296);
#305=ADVANCED_FACE('',(#519),#521,.T.);
#306=COLOUR_RGB('',0.141176470588235,0.141176470588235,0.141176470588235);
#307=FILL_AREA_STYLE_COLOUR('',#306);
#308=FILL_AREA_STYLE($,(#307));
#309=SURFACE_STYLE_FILL_AREA(#308);
#310=SURFACE_SIDE_STYLE('',(#309));
#311=SURFACE_STYLE_USAGE(.BOTH.,#310);
#312=PRESENTATION_STYLE_ASSIGNMENT((#311));
#313=STYLED_ITEM('',(#312),#305);
#314=ADVANCED_FACE('',(#526),#528,.T.);
#315=COLOUR_RGB('',0.141176470588235,0.141176470588235,0.141176470588235);
#316=FILL_AREA_STYLE_COLOUR('',#315);
#317=FILL_AREA_STYLE($,(#316));
#318=SURFACE_STYLE_FILL_AREA(#317);
#319=SURFACE_SIDE_STYLE('',(#318));
#320=SURFACE_STYLE_USAGE(.BOTH.,#319);
#321=PRESENTATION_STYLE_ASSIGNMENT((#320));
#322=STYLED_ITEM('',(#321),#314);
#323=FACE_BOUND('',#324,.T.);
#324=EDGE_LOOP('',(#533,#534,#535,#536,#537,#538,#539,#540,#541,#542,#543,#544,#545,
#546,#547,#548,#549,#550,#551,#552,#553,#554,#555,#556,#557,#558,#559,#560));
#325=PLANE('',#326);
#326=AXIS2_PLACEMENT_3D('',#327,#328,#329);
#327=CARTESIAN_POINT('',(0.,0.,0.));
#328=DIRECTION('',(0.,0.,1.));
#329=DIRECTION('',(-1.,1.22464679914735E-16,0.));
#330=FACE_BOUND('',#331,.T.);
#331=EDGE_LOOP('',(#561,#562,#563,#564,#565,#566,#567,#568,#569,#570,#571,#572,#573,
#574,#575,#576));
#332=PLANE('',#333);
#333=AXIS2_PLACEMENT_3D('',#334,#335,#336);
#334=CARTESIAN_POINT('',(4.97750248575816,-52.3874990674752,0.));
#335=DIRECTION('',(-1.02977208081174E-16,-1.,0.));
#336=DIRECTION('',(1.,-1.02977208081174E-16,0.));
#337=FACE_BOUND('',#338,.T.);
#338=EDGE_LOOP('',(#577,#578,#579,#580,#581,#582,#583,#584,#585,#586,#587,#588,#589,
#590,#591,#592));
#339=PLANE('',#340);
#340=AXIS2_PLACEMENT_3D('',#341,#342,#343);
#341=CARTESIAN_POINT('',(73.9775024857582,-2.38749906747516,0.));
#342=DIRECTION('',(1.22285434596394E-16,1.,0.));
#343=DIRECTION('',(-1.,1.22285434596394E-16,0.));
#344=FACE_BOUND('',#345,.T.);
#345=EDGE_LOOP('',(#593,#594,#595,#596));
#346=PLANE('',#347);
#347=AXIS2_PLACEMENT_3D('',#348,#349,#350);
#348=CARTESIAN_POINT('',(0.,0.,1.));
#349=DIRECTION('',(0.,0.,-1.));
#350=DIRECTION('',(-1.,0.,0.));
#351=FACE_BOUND('',#352,.T.);
#352=EDGE_LOOP('',(#597,#598,#599,#600));
#353=PLANE('',#354);
#354=AXIS2_PLACEMENT_3D('',#355,#356,#357);
#355=CARTESIAN_POINT('',(10.7457845045856,-53.0874990674752,1.));
#356=DIRECTION('',(-1.,0.,0.));
#357=DIRECTION('',(0.,1.,0.));
#358=FACE_BOUND('',#359,.T.);
#359=EDGE_LOOP('',(#601,#602,#603,#604));
#360=PLANE('',#361);
#361=AXIS2_PLACEMENT_3D('',#362,#363,#364);
#362=CARTESIAN_POINT('',(14.4457845045856,-52.3874990674752,1.));
#363=DIRECTION('',(1.,0.,0.));
#364=DIRECTION('',(0.,-1.,0.));
#365=FACE_BOUND('',#366,.T.);
#366=EDGE_LOOP('',(#605,#606,#607,#608));
#367=PLANE('',#368);
#368=AXIS2_PLACEMENT_3D('',#369,#370,#371);
#369=CARTESIAN_POINT('',(0.,0.,1.));
#370=DIRECTION('',(0.,0.,-1.));
#371=DIRECTION('',(-1.,0.,0.));
#372=FACE_BOUND('',#373,.T.);
#373=EDGE_LOOP('',(#609,#610,#611,#612));
#374=PLANE('',#375);
#375=AXIS2_PLACEMENT_3D('',#376,#377,#378);
#376=CARTESIAN_POINT('',(64.5092204669308,-53.0874990674752,1.));
#377=DIRECTION('',(-1.,0.,0.));
#378=DIRECTION('',(0.,1.,0.));
#379=FACE_BOUND('',#380,.T.);
#380=EDGE_LOOP('',(#613,#614,#615,#616));
#381=PLANE('',#382);
#382=AXIS2_PLACEMENT_3D('',#383,#384,#385);
#383=CARTESIAN_POINT('',(68.2092204669308,-52.3874990674752,1.));
#384=DIRECTION('',(1.,0.,0.));
#385=DIRECTION('',(0.,-1.,0.));
#386=FACE_BOUND('',#387,.T.);
#387=EDGE_LOOP('',(#617,#618,#619,#620));
#388=PLANE('',#389);
#389=AXIS2_PLACEMENT_3D('',#390,#391,#392);
#390=CARTESIAN_POINT('',(0.,0.,1.));
#391=DIRECTION('',(0.,0.,-1.));
#392=DIRECTION('',(-1.,0.,0.));
#393=FACE_BOUND('',#394,.T.);
#394=EDGE_LOOP('',(#621,#622,#623,#624));
#395=PLANE('',#396);
#396=AXIS2_PLACEMENT_3D('',#397,#398,#399);
#397=CARTESIAN_POINT('',(14.4457845045856,-1.68749906747516,1.));
#398=DIRECTION('',(1.,0.,0.));
#399=DIRECTION('',(0.,-1.,0.));
#400=FACE_BOUND('',#401,.T.);
#401=EDGE_LOOP('',(#625,#626,#627,#628));
#402=PLANE('',#403);
#403=AXIS2_PLACEMENT_3D('',#404,#405,#406);
#404=CARTESIAN_POINT('',(10.7457845045856,-2.38749906747516,1.));
#405=DIRECTION('',(-1.,0.,0.));
#406=DIRECTION('',(0.,1.,0.));
#407=FACE_BOUND('',#408,.T.);
#408=EDGE_LOOP('',(#629,#630,#631,#632));
#409=PLANE('',#410);
#410=AXIS2_PLACEMENT_3D('',#411,#412,#413);
#411=CARTESIAN_POINT('',(0.,0.,1.));
#412=DIRECTION('',(0.,0.,-1.));
#413=DIRECTION('',(-1.,0.,0.));
#414=FACE_BOUND('',#415,.T.);
#415=EDGE_LOOP('',(#633,#634,#635,#636));
#416=PLANE('',#417);
#417=AXIS2_PLACEMENT_3D('',#418,#419,#420);
#418=CARTESIAN_POINT('',(41.3275024857582,-1.68749906747516,1.));
#419=DIRECTION('',(1.,0.,0.));
#420=DIRECTION('',(0.,-1.,0.));
#421=FACE_BOUND('',#422,.T.);
#422=EDGE_LOOP('',(#637,#638,#639,#640));
#423=PLANE('',#424);
#424=AXIS2_PLACEMENT_3D('',#425,#426,#427);
#425=CARTESIAN_POINT('',(37.6275024857582,-2.38749906747516,1.));
#426=DIRECTION('',(-1.,0.,0.));
#427=DIRECTION('',(0.,1.,0.));
#428=FACE_BOUND('',#429,.T.);
#429=EDGE_LOOP('',(#641,#642,#643,#644));
#430=PLANE('',#431);
#431=AXIS2_PLACEMENT_3D('',#432,#433,#434);
#432=CARTESIAN_POINT('',(0.,0.,1.));
#433=DIRECTION('',(0.,0.,-1.));
#434=DIRECTION('',(-1.,0.,0.));
#435=FACE_BOUND('',#436,.T.);
#436=EDGE_LOOP('',(#645,#646,#647,#648));
#437=PLANE('',#438);
#438=AXIS2_PLACEMENT_3D('',#439,#440,#441);
#439=CARTESIAN_POINT('',(68.2092204669308,-1.68749906747516,1.));
#440=DIRECTION('',(1.,0.,0.));
#441=DIRECTION('',(0.,-1.,0.));
#442=FACE_BOUND('',#443,.T.);
#443=EDGE_LOOP('',(#649,#650,#651,#652));
#444=PLANE('',#445);
#445=AXIS2_PLACEMENT_3D('',#446,#447,#448);
#446=CARTESIAN_POINT('',(64.5092204669308,-2.38749906747516,1.));
#447=DIRECTION('',(-1.,0.,0.));
#448=DIRECTION('',(0.,1.,0.));
#449=FACE_BOUND('',#450,.T.);
#450=EDGE_LOOP('',(#653,#654,#655,#656));
#451=PLANE('',#452);
#452=AXIS2_PLACEMENT_3D('',#453,#454,#455);
#453=CARTESIAN_POINT('',(0.,0.,1.));
#454=DIRECTION('',(0.,0.,-1.));
#455=DIRECTION('',(-1.,0.,0.));
#456=FACE_BOUND('',#457,.T.);
#457=EDGE_LOOP('',(#657,#658,#659,#660));
#458=PLANE('',#459);
#459=AXIS2_PLACEMENT_3D('',#460,#461,#462);
#460=CARTESIAN_POINT('',(37.6275024857582,-53.0874990674752,1.));
#461=DIRECTION('',(-1.,0.,0.));
#462=DIRECTION('',(0.,1.,0.));
#463=FACE_BOUND('',#464,.T.);
#464=EDGE_LOOP('',(#661,#662,#663,#664));
#465=PLANE('',#466);
#466=AXIS2_PLACEMENT_3D('',#467,#468,#469);
#467=CARTESIAN_POINT('',(41.3275024857582,-52.3874990674752,1.));
#468=DIRECTION('',(1.,0.,0.));
#469=DIRECTION('',(0.,-1.,0.));
#470=FACE_BOUND('',#471,.T.);
#471=EDGE_LOOP('',(#665,#666,#667,#668));
#472=PLANE('',#473);
#473=AXIS2_PLACEMENT_3D('',#474,#475,#476);
#474=CARTESIAN_POINT('',(73.9775024857582,-52.3874990674752,0.));
#475=DIRECTION('',(1.,-2.8421709430404E-16,0.));
#476=DIRECTION('',(2.8421709430404E-16,1.,0.));
#477=FACE_BOUND('',#478,.T.);
#478=EDGE_LOOP('',(#669,#670,#671,#672));
#479=PLANE('',#480);
#480=AXIS2_PLACEMENT_3D('',#481,#482,#483);
#481=CARTESIAN_POINT('',(68.2092204669308,-53.0874990674752,1.));
#482=DIRECTION('',(0.,-1.,0.));
#483=DIRECTION('',(-1.,0.,0.));
#484=FACE_BOUND('',#485,.T.);
#485=EDGE_LOOP('',(#673,#674,#675,#676));
#486=PLANE('',#487);
#487=AXIS2_PLACEMENT_3D('',#488,#489,#490);
#488=CARTESIAN_POINT('',(41.3275024857582,-53.0874990674752,1.));
#489=DIRECTION('',(0.,-1.,0.));
#490=DIRECTION('',(-1.,0.,0.));
#491=FACE_BOUND('',#492,.T.);
#492=EDGE_LOOP('',(#677,#678,#679,#680));
#493=PLANE('',#494);
#494=AXIS2_PLACEMENT_3D('',#495,#496,#497);
#495=CARTESIAN_POINT('',(14.4457845045856,-53.0874990674752,1.));
#496=DIRECTION('',(0.,-1.,0.));
#497=DIRECTION('',(-1.,0.,0.));
#498=FACE_BOUND('',#499,.T.);
#499=EDGE_LOOP('',(#681,#682,#683,#684));
#500=PLANE('',#501);
#501=AXIS2_PLACEMENT_3D('',#502,#503,#504);
#502=CARTESIAN_POINT('',(4.97750248575817,-2.38749906747515,0.));
#503=DIRECTION('',(-1.,1.24344978758018E-16,0.));
#504=DIRECTION('',(-1.24344978758018E-16,-1.,0.));
#505=FACE_BOUND('',#506,.T.);
#506=EDGE_LOOP('',(#685,#686,#687,#688));
#507=PLANE('',#508);
#508=AXIS2_PLACEMENT_3D('',#509,#510,#511);
#509=CARTESIAN_POINT('',(10.7457845045856,-1.68749906747516,1.));
#510=DIRECTION('',(0.,1.,0.));
#511=DIRECTION('',(1.,0.,0.));
#512=FACE_BOUND('',#513,.T.);
#513=EDGE_LOOP('',(#689,#690,#691,#692));
#514=PLANE('',#515);
#515=AXIS2_PLACEMENT_3D('',#516,#517,#518);
#516=CARTESIAN_POINT('',(37.6275024857582,-1.68749906747516,1.));
#517=DIRECTION('',(0.,1.,0.));
#518=DIRECTION('',(1.,0.,0.));
#519=FACE_BOUND('',#520,.T.);
#520=EDGE_LOOP('',(#693,#694,#695,#696));
#521=PLANE('',#522);
#522=AXIS2_PLACEMENT_3D('',#523,#524,#525);
#523=CARTESIAN_POINT('',(64.5092204669308,-1.68749906747516,1.));
#524=DIRECTION('',(0.,1.,0.));
#525=DIRECTION('',(1.,0.,0.));
#526=FACE_BOUND('',#527,.T.);
#527=EDGE_LOOP('',(#697,#698,#699,#700));
#528=PLANE('',#529);
#529=AXIS2_PLACEMENT_3D('',#530,#531,#532);
#530=CARTESIAN_POINT('',(0.,0.,3.6));
#531=DIRECTION('',(0.,0.,1.));
#532=DIRECTION('',(-1.,1.22464679914735E-16,0.));
#533=ORIENTED_EDGE('',*,*,#701,.F.);
#534=ORIENTED_EDGE('',*,*,#702,.F.);
#535=ORIENTED_EDGE('',*,*,#703,.T.);
#536=ORIENTED_EDGE('',*,*,#704,.T.);
#537=ORIENTED_EDGE('',*,*,#705,.T.);
#538=ORIENTED_EDGE('',*,*,#706,.F.);
#539=ORIENTED_EDGE('',*,*,#707,.T.);
#540=ORIENTED_EDGE('',*,*,#708,.T.);
#541=ORIENTED_EDGE('',*,*,#709,.T.);
#542=ORIENTED_EDGE('',*,*,#710,.F.);
#543=ORIENTED_EDGE('',*,*,#711,.T.);
#544=ORIENTED_EDGE('',*,*,#712,.T.);
#545=ORIENTED_EDGE('',*,*,#713,.T.);
#546=ORIENTED_EDGE('',*,*,#714,.F.);
#547=ORIENTED_EDGE('',*,*,#715,.F.);
#548=ORIENTED_EDGE('',*,*,#716,.F.);
#549=ORIENTED_EDGE('',*,*,#717,.T.);
#550=ORIENTED_EDGE('',*,*,#718,.T.);
#551=ORIENTED_EDGE('',*,*,#719,.T.);
#552=ORIENTED_EDGE('',*,*,#720,.F.);
#553=ORIENTED_EDGE('',*,*,#721,.T.);
#554=ORIENTED_EDGE('',*,*,#722,.T.);
#555=ORIENTED_EDGE('',*,*,#723,.T.);
#556=ORIENTED_EDGE('',*,*,#724,.F.);
#557=ORIENTED_EDGE('',*,*,#725,.T.);
#558=ORIENTED_EDGE('',*,*,#726,.T.);
#559=ORIENTED_EDGE('',*,*,#727,.T.);
#560=ORIENTED_EDGE('',*,*,#728,.F.);
#561=ORIENTED_EDGE('',*,*,#729,.F.);
#562=ORIENTED_EDGE('',*,*,#706,.T.);
#563=ORIENTED_EDGE('',*,*,#730,.F.);
#564=ORIENTED_EDGE('',*,*,#731,.F.);
#565=ORIENTED_EDGE('',*,*,#732,.F.);
#566=ORIENTED_EDGE('',*,*,#702,.T.);
#567=ORIENTED_EDGE('',*,*,#733,.T.);
#568=ORIENTED_EDGE('',*,*,#734,.F.);
#569=ORIENTED_EDGE('',*,*,#735,.F.);
#570=ORIENTED_EDGE('',*,*,#714,.T.);
#571=ORIENTED_EDGE('',*,*,#736,.F.);
#572=ORIENTED_EDGE('',*,*,#737,.F.);
#573=ORIENTED_EDGE('',*,*,#738,.F.);
#574=ORIENTED_EDGE('',*,*,#710,.T.);
#575=ORIENTED_EDGE('',*,*,#739,.F.);
#576=ORIENTED_EDGE('',*,*,#740,.F.);
#577=ORIENTED_EDGE('',*,*,#741,.F.);
#578=ORIENTED_EDGE('',*,*,#724,.T.);
#579=ORIENTED_EDGE('',*,*,#742,.F.);
#580=ORIENTED_EDGE('',*,*,#743,.F.);
#581=ORIENTED_EDGE('',*,*,#744,.F.);
#582=ORIENTED_EDGE('',*,*,#720,.T.);
#583=ORIENTED_EDGE('',*,*,#745,.F.);
#584=ORIENTED_EDGE('',*,*,#746,.F.);
#585=ORIENTED_EDGE('',*,*,#747,.F.);
#586=ORIENTED_EDGE('',*,*,#716,.T.);
#587=ORIENTED_EDGE('',*,*,#748,.T.);
#588=ORIENTED_EDGE('',*,*,#749,.F.);
#589=ORIENTED_EDGE('',*,*,#750,.F.);
#590=ORIENTED_EDGE('',*,*,#728,.T.);
#591=ORIENTED_EDGE('',*,*,#751,.F.);
#592=ORIENTED_EDGE('',*,*,#752,.F.);
#593=ORIENTED_EDGE('',*,*,#737,.T.);
#594=ORIENTED_EDGE('',*,*,#753,.F.);
#595=ORIENTED_EDGE('',*,*,#754,.F.);
#596=ORIENTED_EDGE('',*,*,#755,.F.);
#597=ORIENTED_EDGE('',*,*,#736,.T.);
#598=ORIENTED_EDGE('',*,*,#713,.F.);
#599=ORIENTED_EDGE('',*,*,#756,.F.);
#600=ORIENTED_EDGE('',*,*,#753,.T.);
#601=ORIENTED_EDGE('',*,*,#738,.T.);
#602=ORIENTED_EDGE('',*,*,#755,.T.);
#603=ORIENTED_EDGE('',*,*,#757,.T.);
#604=ORIENTED_EDGE('',*,*,#711,.F.);
#605=ORIENTED_EDGE('',*,*,#731,.T.);
#606=ORIENTED_EDGE('',*,*,#758,.F.);
#607=ORIENTED_EDGE('',*,*,#759,.F.);
#608=ORIENTED_EDGE('',*,*,#760,.F.);
#609=ORIENTED_EDGE('',*,*,#730,.T.);
#610=ORIENTED_EDGE('',*,*,#705,.F.);
#611=ORIENTED_EDGE('',*,*,#761,.F.);
#612=ORIENTED_EDGE('',*,*,#758,.T.);
#613=ORIENTED_EDGE('',*,*,#732,.T.);
#614=ORIENTED_EDGE('',*,*,#760,.T.);
#615=ORIENTED_EDGE('',*,*,#762,.T.);
#616=ORIENTED_EDGE('',*,*,#703,.F.);
#617=ORIENTED_EDGE('',*,*,#746,.T.);
#618=ORIENTED_EDGE('',*,*,#763,.F.);
#619=ORIENTED_EDGE('',*,*,#764,.F.);
#620=ORIENTED_EDGE('',*,*,#765,.F.);
#621=ORIENTED_EDGE('',*,*,#745,.T.);
#622=ORIENTED_EDGE('',*,*,#719,.F.);
#623=ORIENTED_EDGE('',*,*,#766,.F.);
#624=ORIENTED_EDGE('',*,*,#763,.T.);
#625=ORIENTED_EDGE('',*,*,#747,.T.);
#626=ORIENTED_EDGE('',*,*,#765,.T.);
#627=ORIENTED_EDGE('',*,*,#767,.T.);
#628=ORIENTED_EDGE('',*,*,#717,.F.);
#629=ORIENTED_EDGE('',*,*,#743,.T.);
#630=ORIENTED_EDGE('',*,*,#768,.F.);
#631=ORIENTED_EDGE('',*,*,#769,.F.);
#632=ORIENTED_EDGE('',*,*,#770,.F.);
#633=ORIENTED_EDGE('',*,*,#742,.T.);
#634=ORIENTED_EDGE('',*,*,#723,.F.);
#635=ORIENTED_EDGE('',*,*,#771,.F.);
#636=ORIENTED_EDGE('',*,*,#768,.T.);
#637=ORIENTED_EDGE('',*,*,#744,.T.);
#638=ORIENTED_EDGE('',*,*,#770,.T.);
#639=ORIENTED_EDGE('',*,*,#772,.T.);
#640=ORIENTED_EDGE('',*,*,#721,.F.);
#641=ORIENTED_EDGE('',*,*,#752,.T.);
#642=ORIENTED_EDGE('',*,*,#773,.F.);
#643=ORIENTED_EDGE('',*,*,#774,.F.);
#644=ORIENTED_EDGE('',*,*,#775,.F.);
#645=ORIENTED_EDGE('',*,*,#751,.T.);
#646=ORIENTED_EDGE('',*,*,#727,.F.);
#647=ORIENTED_EDGE('',*,*,#776,.F.);
#648=ORIENTED_EDGE('',*,*,#773,.T.);
#649=ORIENTED_EDGE('',*,*,#741,.T.);
#650=ORIENTED_EDGE('',*,*,#775,.T.);
#651=ORIENTED_EDGE('',*,*,#777,.T.);
#652=ORIENTED_EDGE('',*,*,#725,.F.);
#653=ORIENTED_EDGE('',*,*,#740,.T.);
#654=ORIENTED_EDGE('',*,*,#778,.F.);
#655=ORIENTED_EDGE('',*,*,#779,.F.);
#656=ORIENTED_EDGE('',*,*,#780,.F.);
#657=ORIENTED_EDGE('',*,*,#739,.T.);
#658=ORIENTED_EDGE('',*,*,#709,.F.);
#659=ORIENTED_EDGE('',*,*,#781,.F.);
#660=ORIENTED_EDGE('',*,*,#778,.T.);
#661=ORIENTED_EDGE('',*,*,#729,.T.);
#662=ORIENTED_EDGE('',*,*,#780,.T.);
#663=ORIENTED_EDGE('',*,*,#782,.T.);
#664=ORIENTED_EDGE('',*,*,#707,.F.);
#665=ORIENTED_EDGE('',*,*,#701,.T.);
#666=ORIENTED_EDGE('',*,*,#750,.T.);
#667=ORIENTED_EDGE('',*,*,#783,.F.);
#668=ORIENTED_EDGE('',*,*,#733,.F.);
#669=ORIENTED_EDGE('',*,*,#759,.T.);
#670=ORIENTED_EDGE('',*,*,#761,.T.);
#671=ORIENTED_EDGE('',*,*,#704,.F.);
#672=ORIENTED_EDGE('',*,*,#762,.F.);
#673=ORIENTED_EDGE('',*,*,#779,.T.);
#674=ORIENTED_EDGE('',*,*,#781,.T.);
#675=ORIENTED_EDGE('',*,*,#708,.F.);
#676=ORIENTED_EDGE('',*,*,#782,.F.);
#677=ORIENTED_EDGE('',*,*,#754,.T.);
#678=ORIENTED_EDGE('',*,*,#756,.T.);
#679=ORIENTED_EDGE('',*,*,#712,.F.);
#680=ORIENTED_EDGE('',*,*,#757,.F.);
#681=ORIENTED_EDGE('',*,*,#715,.T.);
#682=ORIENTED_EDGE('',*,*,#735,.T.);
#683=ORIENTED_EDGE('',*,*,#784,.F.);
#684=ORIENTED_EDGE('',*,*,#748,.F.);
#685=ORIENTED_EDGE('',*,*,#764,.T.);
#686=ORIENTED_EDGE('',*,*,#766,.T.);
#687=ORIENTED_EDGE('',*,*,#718,.F.);
#688=ORIENTED_EDGE('',*,*,#767,.F.);
#689=ORIENTED_EDGE('',*,*,#769,.T.);
#690=ORIENTED_EDGE('',*,*,#771,.T.);
#691=ORIENTED_EDGE('',*,*,#722,.F.);
#692=ORIENTED_EDGE('',*,*,#772,.F.);
#693=ORIENTED_EDGE('',*,*,#774,.T.);
#694=ORIENTED_EDGE('',*,*,#776,.T.);
#695=ORIENTED_EDGE('',*,*,#726,.F.);
#696=ORIENTED_EDGE('',*,*,#777,.F.);
#697=ORIENTED_EDGE('',*,*,#749,.T.);
#698=ORIENTED_EDGE('',*,*,#784,.T.);
#699=ORIENTED_EDGE('',*,*,#734,.T.);
#700=ORIENTED_EDGE('',*,*,#783,.T.);
#701=EDGE_CURVE('',#785,#786,#787,.T.);
#702=EDGE_CURVE('',#788,#785,#789,.T.);
#703=EDGE_CURVE('',#788,#790,#791,.T.);
#704=EDGE_CURVE('',#790,#792,#793,.T.);
#705=EDGE_CURVE('',#792,#794,#795,.T.);
#706=EDGE_CURVE('',#796,#794,#797,.T.);
#707=EDGE_CURVE('',#796,#798,#799,.T.);
#708=EDGE_CURVE('',#798,#800,#801,.T.);
#709=EDGE_CURVE('',#800,#802,#803,.T.);
#710=EDGE_CURVE('',#804,#802,#805,.T.);
#711=EDGE_CURVE('',#804,#806,#807,.T.);
#712=EDGE_CURVE('',#806,#808,#809,.T.);
#713=EDGE_CURVE('',#808,#810,#811,.T.);
#714=EDGE_CURVE('',#812,#810,#813,.T.);
#715=EDGE_CURVE('',#814,#812,#815,.T.);
#716=EDGE_CURVE('',#816,#814,#817,.T.);
#717=EDGE_CURVE('',#816,#818,#819,.T.);
#718=EDGE_CURVE('',#818,#820,#821,.T.);
#719=EDGE_CURVE('',#820,#822,#823,.T.);
#720=EDGE_CURVE('',#824,#822,#825,.T.);
#721=EDGE_CURVE('',#824,#826,#827,.T.);
#722=EDGE_CURVE('',#826,#828,#829,.T.);
#723=EDGE_CURVE('',#828,#830,#831,.T.);
#724=EDGE_CURVE('',#832,#830,#833,.T.);
#725=EDGE_CURVE('',#832,#834,#835,.T.);
#726=EDGE_CURVE('',#834,#836,#837,.T.);
#727=EDGE_CURVE('',#836,#838,#839,.T.);
#728=EDGE_CURVE('',#786,#838,#840,.T.);
#729=EDGE_CURVE('',#796,#841,#842,.T.);
#730=EDGE_CURVE('',#843,#794,#844,.T.);
#731=EDGE_CURVE('',#845,#843,#846,.F.);
#732=EDGE_CURVE('',#788,#845,#847,.T.);
#733=EDGE_CURVE('',#785,#848,#849,.T.);
#734=EDGE_CURVE('',#850,#848,#851,.T.);
#735=EDGE_CURVE('',#812,#850,#852,.T.);
#736=EDGE_CURVE('',#853,#810,#854,.T.);
#737=EDGE_CURVE('',#855,#853,#856,.F.);
#738=EDGE_CURVE('',#804,#855,#857,.T.);
#739=EDGE_CURVE('',#858,#802,#859,.T.);
#740=EDGE_CURVE('',#841,#858,#860,.F.);
#741=EDGE_CURVE('',#832,#861,#862,.T.);
#742=EDGE_CURVE('',#863,#830,#864,.T.);
#743=EDGE_CURVE('',#865,#863,#866,.F.);
#744=EDGE_CURVE('',#824,#865,#867,.T.);
#745=EDGE_CURVE('',#868,#822,#869,.T.);
#746=EDGE_CURVE('',#870,#868,#871,.F.);
#747=EDGE_CURVE('',#816,#870,#872,.T.);
#748=EDGE_CURVE('',#814,#873,#874,.T.);
#749=EDGE_CURVE('',#875,#873,#876,.T.);
#750=EDGE_CURVE('',#786,#875,#877,.T.);
#751=EDGE_CURVE('',#878,#838,#879,.T.);
#752=EDGE_CURVE('',#861,#878,#880,.F.);
#753=EDGE_CURVE('',#881,#853,#882,.T.);
#754=EDGE_CURVE('',#883,#881,#884,.T.);
#755=EDGE_CURVE('',#855,#883,#885,.T.);
#756=EDGE_CURVE('',#881,#808,#886,.T.);
#757=EDGE_CURVE('',#883,#806,#887,.T.);
#758=EDGE_CURVE('',#888,#843,#889,.T.);
#759=EDGE_CURVE('',#890,#888,#891,.T.);
#760=EDGE_CURVE('',#845,#890,#892,.T.);
#761=EDGE_CURVE('',#888,#792,#893,.T.);
#762=EDGE_CURVE('',#890,#790,#894,.T.);
#763=EDGE_CURVE('',#895,#868,#896,.T.);
#764=EDGE_CURVE('',#897,#895,#898,.T.);
#765=EDGE_CURVE('',#870,#897,#899,.T.);
#766=EDGE_CURVE('',#895,#820,#900,.T.);
#767=EDGE_CURVE('',#897,#818,#901,.T.);
#768=EDGE_CURVE('',#902,#863,#903,.T.);
#769=EDGE_CURVE('',#904,#902,#905,.T.);
#770=EDGE_CURVE('',#865,#904,#906,.T.);
#771=EDGE_CURVE('',#902,#828,#907,.T.);
#772=EDGE_CURVE('',#904,#826,#908,.T.);
#773=EDGE_CURVE('',#909,#878,#910,.T.);
#774=EDGE_CURVE('',#911,#909,#912,.T.);
#775=EDGE_CURVE('',#861,#911,#913,.T.);
#776=EDGE_CURVE('',#909,#836,#914,.T.);
#777=EDGE_CURVE('',#911,#834,#915,.T.);
#778=EDGE_CURVE('',#916,#858,#917,.T.);
#779=EDGE_CURVE('',#918,#916,#919,.T.);
#780=EDGE_CURVE('',#841,#918,#920,.T.);
#781=EDGE_CURVE('',#916,#800,#921,.T.);
#782=EDGE_CURVE('',#918,#798,#922,.T.);
#783=EDGE_CURVE('',#848,#875,#923,.T.);
#784=EDGE_CURVE('',#873,#850,#924,.T.);
#785=VERTEX_POINT('',#925);
#786=VERTEX_POINT('',#926);
#787=LINE('',#927,#928);
#788=VERTEX_POINT('',#930);
#789=LINE('',#931,#932);
#790=VERTEX_POINT('',#934);
#791=LINE('',#935,#936);
#792=VERTEX_POINT('',#938);
#793=LINE('',#939,#940);
#794=VERTEX_POINT('',#942);
#795=LINE('',#943,#944);
#796=VERTEX_POINT('',#946);
#797=LINE('',#947,#948);
#798=VERTEX_POINT('',#950);
#799=LINE('',#951,#952);
#800=VERTEX_POINT('',#954);
#801=LINE('',#955,#956);
#802=VERTEX_POINT('',#958);
#803=LINE('',#959,#960);
#804=VERTEX_POINT('',#962);
#805=LINE('',#963,#964);
#806=VERTEX_POINT('',#966);
#807=LINE('',#967,#968);
#808=VERTEX_POINT('',#970);
#809=LINE('',#971,#972);
#810=VERTEX_POINT('',#974);
#811=LINE('',#975,#976);
#812=VERTEX_POINT('',#978);
#813=LINE('',#979,#980);
#814=VERTEX_POINT('',#982);
#815=LINE('',#983,#984);
#816=VERTEX_POINT('',#986);
#817=LINE('',#987,#988);
#818=VERTEX_POINT('',#990);
#819=LINE('',#991,#992);
#820=VERTEX_POINT('',#994);
#821=LINE('',#995,#996);
#822=VERTEX_POINT('',#998);
#823=LINE('',#999,#1000);
#824=VERTEX_POINT('',#1002);
#825=LINE('',#1003,#1004);
#826=VERTEX_POINT('',#1006);
#827=LINE('',#1007,#1008);
#828=VERTEX_POINT('',#1010);
#829=LINE('',#1011,#1012);
#830=VERTEX_POINT('',#1014);
#831=LINE('',#1015,#1016);
#832=VERTEX_POINT('',#1018);
#833=LINE('',#1019,#1020);
#834=VERTEX_POINT('',#1022);
#835=LINE('',#1023,#1024);
#836=VERTEX_POINT('',#1026);
#837=LINE('',#1027,#1028);
#838=VERTEX_POINT('',#1030);
#839=LINE('',#1031,#1032);
#840=LINE('',#1034,#1035);
#841=VERTEX_POINT('',#1037);
#842=LINE('',#1038,#1039);
#843=VERTEX_POINT('',#1041);
#844=LINE('',#1042,#1043);
#845=VERTEX_POINT('',#1045);
#846=LINE('',#1046,#1047);
#847=LINE('',#1049,#1050);
#848=VERTEX_POINT('',#1052);
#849=LINE('',#1053,#1054);
#850=VERTEX_POINT('',#1056);
#851=LINE('',#1057,#1058);
#852=LINE('',#1060,#1061);
#853=VERTEX_POINT('',#1063);
#854=LINE('',#1064,#1065);
#855=VERTEX_POINT('',#1067);
#856=LINE('',#1068,#1069);
#857=LINE('',#1071,#1072);
#858=VERTEX_POINT('',#1074);
#859=LINE('',#1075,#1076);
#860=LINE('',#1078,#1079);
#861=VERTEX_POINT('',#1081);
#862=LINE('',#1082,#1083);
#863=VERTEX_POINT('',#1085);
#864=LINE('',#1086,#1087);
#865=VERTEX_POINT('',#1089);
#866=LINE('',#1090,#1091);
#867=LINE('',#1093,#1094);
#868=VERTEX_POINT('',#1096);
#869=LINE('',#1097,#1098);
#870=VERTEX_POINT('',#1100);
#871=LINE('',#1101,#1102);
#872=LINE('',#1104,#1105);
#873=VERTEX_POINT('',#1107);
#874=LINE('',#1108,#1109);
#875=VERTEX_POINT('',#1111);
#876=LINE('',#1112,#1113);
#877=LINE('',#1115,#1116);
#878=VERTEX_POINT('',#1118);
#879=LINE('',#1119,#1120);
#880=LINE('',#1122,#1123);
#881=VERTEX_POINT('',#1125);
#882=LINE('',#1126,#1127);
#883=VERTEX_POINT('',#1129);
#884=LINE('',#1130,#1131);
#885=LINE('',#1133,#1134);
#886=LINE('',#1136,#1137);
#887=LINE('',#1139,#1140);
#888=VERTEX_POINT('',#1142);
#889=LINE('',#1143,#1144);
#890=VERTEX_POINT('',#1146);
#891=LINE('',#1147,#1148);
#892=LINE('',#1150,#1151);
#893=LINE('',#1153,#1154);
#894=LINE('',#1156,#1157);
#895=VERTEX_POINT('',#1159);
#896=LINE('',#1160,#1161);
#897=VERTEX_POINT('',#1163);
#898=LINE('',#1164,#1165);
#899=LINE('',#1167,#1168);
#900=LINE('',#1170,#1171);
#901=LINE('',#1173,#1174);
#902=VERTEX_POINT('',#1176);
#903=LINE('',#1177,#1178);
#904=VERTEX_POINT('',#1180);
#905=LINE('',#1181,#1182);
#906=LINE('',#1184,#1185);
#907=LINE('',#1187,#1188);
#908=LINE('',#1190,#1191);
#909=VERTEX_POINT('',#1193);
#910=LINE('',#1194,#1195);
#911=VERTEX_POINT('',#1197);
#912=LINE('',#1198,#1199);
#913=LINE('',#1201,#1202);
#914=LINE('',#1204,#1205);
#915=LINE('',#1207,#1208);
#916=VERTEX_POINT('',#1210);
#917=LINE('',#1211,#1212);
#918=VERTEX_POINT('',#1214);
#919=LINE('',#1215,#1216);
#920=LINE('',#1218,#1219);
#921=LINE('',#1221,#1222);
#922=LINE('',#1224,#1225);
#923=LINE('',#1227,#1228);
#924=LINE('',#1230,#1231);
#925=CARTESIAN_POINT('',(73.9775024857582,-52.3874990674752,0.));
#926=CARTESIAN_POINT('',(73.9775024857582,-2.38749906747516,0.));
#927=CARTESIAN_POINT('',(73.9775024857582,-52.3874990674752,0.));
#928=VECTOR('',#929,1.);
#929=DIRECTION('',(2.8421709430404E-16,1.,0.));
#930=CARTESIAN_POINT('',(68.2092204669308,-52.3874990674752,0.));
#931=CARTESIAN_POINT('',(68.2092204669308,-52.3874990674752,0.));
#932=VECTOR('',#933,1.);
#933=DIRECTION('',(1.,0.,0.));
#934=CARTESIAN_POINT('',(68.2092204669308,-53.0874990674752,0.));
#935=CARTESIAN_POINT('',(68.2092204669308,-52.3874990674752,0.));
#936=VECTOR('',#937,1.);
#937=DIRECTION('',(0.,-1.,0.));
#938=CARTESIAN_POINT('',(64.5092204669308,-53.0874990674752,0.));
#939=CARTESIAN_POINT('',(68.2092204669308,-53.0874990674752,0.));
#940=VECTOR('',#941,1.);
#941=DIRECTION('',(-1.,0.,0.));
#942=CARTESIAN_POINT('',(64.5092204669308,-52.3874990674752,0.));
#943=CARTESIAN_POINT('',(64.5092204669308,-53.0874990674752,0.));
#944=VECTOR('',#945,1.);
#945=DIRECTION('',(0.,1.,0.));
#946=CARTESIAN_POINT('',(41.3275024857582,-52.3874990674752,0.));
#947=CARTESIAN_POINT('',(41.3275024857582,-52.3874990674752,0.));
#948=VECTOR('',#949,1.);
#949=DIRECTION('',(1.,0.,0.));
#950=CARTESIAN_POINT('',(41.3275024857582,-53.0874990674752,0.));
#951=CARTESIAN_POINT('',(41.3275024857582,-52.3874990674752,0.));
#952=VECTOR('',#953,1.);
#953=DIRECTION('',(0.,-1.,0.));
#954=CARTESIAN_POINT('',(37.6275024857582,-53.0874990674752,0.));
#955=CARTESIAN_POINT('',(41.3275024857582,-53.0874990674752,0.));
#956=VECTOR('',#957,1.);
#957=DIRECTION('',(-1.,0.,0.));
#958=CARTESIAN_POINT('',(37.6275024857582,-52.3874990674752,0.));
#959=CARTESIAN_POINT('',(37.6275024857582,-53.0874990674752,0.));
#960=VECTOR('',#961,1.);
#961=DIRECTION('',(0.,1.,0.));
#962=CARTESIAN_POINT('',(14.4457845045856,-52.3874990674752,0.));
#963=CARTESIAN_POINT('',(14.4457845045856,-52.3874990674752,0.));
#964=VECTOR('',#965,1.);
#965=DIRECTION('',(1.,-3.06509955964946E-16,0.));
#966=CARTESIAN_POINT('',(14.4457845045856,-53.0874990674752,0.));
#967=CARTESIAN_POINT('',(14.4457845045856,-52.3874990674752,0.));
#968=VECTOR('',#969,1.);
#969=DIRECTION('',(0.,-1.,0.));
#970=CARTESIAN_POINT('',(10.7457845045856,-53.0874990674752,0.));
#971=CARTESIAN_POINT('',(14.4457845045856,-53.0874990674752,0.));
#972=VECTOR('',#973,1.);
#973=DIRECTION('',(-1.,0.,0.));
#974=CARTESIAN_POINT('',(10.7457845045856,-52.3874990674752,0.));
#975=CARTESIAN_POINT('',(10.7457845045856,-53.0874990674752,0.));
#976=VECTOR('',#977,1.);
#977=DIRECTION('',(0.,1.,0.));
#978=CARTESIAN_POINT('',(4.97750248575816,-52.3874990674752,0.));
#979=CARTESIAN_POINT('',(4.97750248575816,-52.3874990674752,0.));
#980=VECTOR('',#981,1.);
#981=DIRECTION('',(1.,0.,0.));
#982=CARTESIAN_POINT('',(4.97750248575817,-2.38749906747515,0.));
#983=CARTESIAN_POINT('',(4.97750248575817,-2.38749906747515,0.));
#984=VECTOR('',#985,1.);
#985=DIRECTION('',(-1.24344978758018E-16,-1.,0.));
#986=CARTESIAN_POINT('',(10.7457845045856,-2.38749906747516,0.));
#987=CARTESIAN_POINT('',(10.7457845045856,-2.38749906747516,0.));
#988=VECTOR('',#989,1.);
#989=DIRECTION('',(-1.,1.5397624748602E-16,0.));
#990=CARTESIAN_POINT('',(10.7457845045856,-1.68749906747516,0.));
#991=CARTESIAN_POINT('',(10.7457845045856,-2.38749906747516,0.));
#992=VECTOR('',#993,1.);
#993=DIRECTION('',(0.,1.,0.));
#994=CARTESIAN_POINT('',(14.4457845045856,-1.68749906747516,0.));
#995=CARTESIAN_POINT('',(10.7457845045856,-1.68749906747516,0.));
#996=VECTOR('',#997,1.);
#997=DIRECTION('',(1.,0.,0.));
#998=CARTESIAN_POINT('',(14.4457845045856,-2.38749906747516,0.));
#999=CARTESIAN_POINT('',(14.4457845045856,-1.68749906747516,0.));
#1000=VECTOR('',#1001,1.);
#1001=DIRECTION('',(0.,-1.,0.));
#1002=CARTESIAN_POINT('',(37.6275024857582,-2.38749906747516,0.));
#1003=CARTESIAN_POINT('',(37.6275024857582,-2.38749906747516,0.));
#1004=VECTOR('',#1005,1.);
#1005=DIRECTION('',(-1.,1.14941233486855E-16,0.));
#1006=CARTESIAN_POINT('',(37.6275024857582,-1.68749906747516,0.));
#1007=CARTESIAN_POINT('',(37.6275024857582,-2.38749906747516,0.));
#1008=VECTOR('',#1009,1.);
#1009=DIRECTION('',(0.,1.,0.));
#1010=CARTESIAN_POINT('',(41.3275024857582,-1.68749906747516,0.));
#1011=CARTESIAN_POINT('',(37.6275024857582,-1.68749906747516,0.));
#1012=VECTOR('',#1013,1.);
#1013=DIRECTION('',(1.,0.,0.));
#1014=CARTESIAN_POINT('',(41.3275024857582,-2.38749906747516,0.));
#1015=CARTESIAN_POINT('',(41.3275024857582,-1.68749906747516,0.));
#1016=VECTOR('',#1017,1.);
#1017=DIRECTION('',(0.,-1.,0.));
#1018=CARTESIAN_POINT('',(64.5092204669308,-2.38749906747516,0.));
#1019=CARTESIAN_POINT('',(64.5092204669308,-2.38749906747516,0.));
#1020=VECTOR('',#1021,1.);
#1021=DIRECTION('',(-1.,1.34098105734664E-16,0.));
#1022=CARTESIAN_POINT('',(64.5092204669308,-1.68749906747516,0.));
#1023=CARTESIAN_POINT('',(64.5092204669308,-2.38749906747516,0.));
#1024=VECTOR('',#1025,1.);
#1025=DIRECTION('',(0.,1.,0.));
#1026=CARTESIAN_POINT('',(68.2092204669308,-1.68749906747516,0.));
#1027=CARTESIAN_POINT('',(64.5092204669308,-1.68749906747516,0.));
#1028=VECTOR('',#1029,1.);
#1029=DIRECTION('',(1.,0.,0.));
#1030=CARTESIAN_POINT('',(68.2092204669308,-2.38749906747516,0.));
#1031=CARTESIAN_POINT('',(68.2092204669308,-1.68749906747516,0.));
#1032=VECTOR('',#1033,1.);
#1033=DIRECTION('',(0.,-1.,0.));
#1034=CARTESIAN_POINT('',(73.9775024857582,-2.38749906747516,0.));
#1035=VECTOR('',#1036,1.);
#1036=DIRECTION('',(-1.,1.53976247486019E-16,0.));
#1037=CARTESIAN_POINT('',(41.3275024857582,-52.3874990674752,1.));
#1038=CARTESIAN_POINT('',(41.3275024857582,-52.3874990674752,0.));
#1039=VECTOR('',#1040,1.);
#1040=DIRECTION('',(0.,0.,1.));
#1041=CARTESIAN_POINT('',(64.5092204669308,-52.3874990674752,1.));
#1042=CARTESIAN_POINT('',(64.5092204669308,-52.3874990674752,1.));
#1043=VECTOR('',#1044,1.);
#1044=DIRECTION('',(0.,0.,-1.));
#1045=CARTESIAN_POINT('',(68.2092204669308,-52.3874990674752,1.));
#1046=CARTESIAN_POINT('',(64.5092204669308,-52.3874990674752,1.));
#1047=VECTOR('',#1048,1.);
#1048=DIRECTION('',(1.,0.,0.));
#1049=CARTESIAN_POINT('',(68.2092204669308,-52.3874990674752,0.));
#1050=VECTOR('',#1051,1.);
#1051=DIRECTION('',(0.,0.,1.));
#1052=CARTESIAN_POINT('',(73.9775024857582,-52.3874990674752,3.6));
#1053=CARTESIAN_POINT('',(73.9775024857582,-52.3874990674752,0.));
#1054=VECTOR('',#1055,1.);
#1055=DIRECTION('',(0.,0.,1.));
#1056=CARTESIAN_POINT('',(4.97750248575816,-52.3874990674752,3.6));
#1057=CARTESIAN_POINT('',(4.97750248575816,-52.3874990674752,3.6));
#1058=VECTOR('',#1059,1.);
#1059=DIRECTION('',(1.,-1.02977208081174E-16,0.));
#1060=CARTESIAN_POINT('',(4.97750248575816,-52.3874990674752,0.));
#1061=VECTOR('',#1062,1.);
#1062=DIRECTION('',(0.,0.,1.));
#1063=CARTESIAN_POINT('',(10.7457845045856,-52.3874990674752,1.));
#1064=CARTESIAN_POINT('',(10.7457845045856,-52.3874990674752,1.));
#1065=VECTOR('',#1066,1.);
#1066=DIRECTION('',(0.,0.,-1.));
#1067=CARTESIAN_POINT('',(14.4457845045856,-52.3874990674752,1.));
#1068=CARTESIAN_POINT('',(10.7457845045856,-52.3874990674752,1.));
#1069=VECTOR('',#1070,1.);
#1070=DIRECTION('',(1.,0.,0.));
#1071=CARTESIAN_POINT('',(14.4457845045856,-52.3874990674752,0.));
#1072=VECTOR('',#1073,1.);
#1073=DIRECTION('',(0.,0.,1.));
#1074=CARTESIAN_POINT('',(37.6275024857582,-52.3874990674752,1.));
#1075=CARTESIAN_POINT('',(37.6275024857582,-52.3874990674752,1.));
#1076=VECTOR('',#1077,1.);
#1077=DIRECTION('',(0.,0.,-1.));
#1078=CARTESIAN_POINT('',(37.6275024857582,-52.3874990674752,1.));
#1079=VECTOR('',#1080,1.);
#1080=DIRECTION('',(1.,-1.92038577232459E-15,0.));
#1081=CARTESIAN_POINT('',(64.5092204669308,-2.38749906747516,1.));
#1082=CARTESIAN_POINT('',(64.5092204669308,-2.38749906747516,0.));
#1083=VECTOR('',#1084,1.);
#1084=DIRECTION('',(0.,0.,1.));
#1085=CARTESIAN_POINT('',(41.3275024857582,-2.38749906747516,1.));
#1086=CARTESIAN_POINT('',(41.3275024857582,-2.38749906747516,1.));
#1087=VECTOR('',#1088,1.);
#1088=DIRECTION('',(0.,0.,-1.));
#1089=CARTESIAN_POINT('',(37.6275024857582,-2.38749906747516,1.));
#1090=CARTESIAN_POINT('',(41.3275024857582,-2.38749906747516,1.));
#1091=VECTOR('',#1092,1.);
#1092=DIRECTION('',(-1.,1.20024110770287E-16,0.));
#1093=CARTESIAN_POINT('',(37.6275024857582,-2.38749906747516,0.));
#1094=VECTOR('',#1095,1.);
#1095=DIRECTION('',(0.,0.,1.));
#1096=CARTESIAN_POINT('',(14.4457845045856,-2.38749906747516,1.));
#1097=CARTESIAN_POINT('',(14.4457845045856,-2.38749906747516,1.));
#1098=VECTOR('',#1099,1.);
#1099=DIRECTION('',(0.,0.,-1.));
#1100=CARTESIAN_POINT('',(10.7457845045856,-2.38749906747516,1.));
#1101=CARTESIAN_POINT('',(14.4457845045856,-2.38749906747516,1.));
#1102=VECTOR('',#1103,1.);
#1103=DIRECTION('',(-1.,1.20024110770287E-16,0.));
#1104=CARTESIAN_POINT('',(10.7457845045856,-2.38749906747516,0.));
#1105=VECTOR('',#1106,1.);
#1106=DIRECTION('',(0.,0.,1.));
#1107=CARTESIAN_POINT('',(4.97750248575817,-2.38749906747515,3.6));
#1108=CARTESIAN_POINT('',(4.97750248575817,-2.38749906747515,0.));
#1109=VECTOR('',#1110,1.);
#1110=DIRECTION('',(0.,0.,1.));
#1111=CARTESIAN_POINT('',(73.9775024857582,-2.38749906747516,3.6));
#1112=CARTESIAN_POINT('',(73.9775024857582,-2.38749906747516,3.6));
#1113=VECTOR('',#1114,1.);
#1114=DIRECTION('',(-1.,1.22285434596394E-16,0.));
#1115=CARTESIAN_POINT('',(73.9775024857582,-2.38749906747516,0.));
#1116=VECTOR('',#1117,1.);
#1117=DIRECTION('',(0.,0.,1.));
#1118=CARTESIAN_POINT('',(68.2092204669308,-2.38749906747516,1.));
#1119=CARTESIAN_POINT('',(68.2092204669308,-2.38749906747516,1.));
#1120=VECTOR('',#1121,1.);
#1121=DIRECTION('',(0.,0.,-1.));
#1122=CARTESIAN_POINT('',(68.2092204669308,-2.38749906747516,1.));
#1123=VECTOR('',#1124,1.);
#1124=DIRECTION('',(-1.,1.20024110770287E-16,0.));
#1125=CARTESIAN_POINT('',(10.7457845045856,-53.0874990674752,1.));
#1126=CARTESIAN_POINT('',(10.7457845045856,-53.0874990674752,1.));
#1127=VECTOR('',#1128,1.);
#1128=DIRECTION('',(0.,1.,0.));
#1129=CARTESIAN_POINT('',(14.4457845045856,-53.0874990674752,1.));
#1130=CARTESIAN_POINT('',(14.4457845045856,-53.0874990674752,1.));
#1131=VECTOR('',#1132,1.);
#1132=DIRECTION('',(-1.,0.,0.));
#1133=CARTESIAN_POINT('',(14.4457845045856,-52.3874990674752,1.));
#1134=VECTOR('',#1135,1.);
#1135=DIRECTION('',(0.,-1.,0.));
#1136=CARTESIAN_POINT('',(10.7457845045856,-53.0874990674752,1.));
#1137=VECTOR('',#1138,1.);
#1138=DIRECTION('',(0.,0.,-1.));
#1139=CARTESIAN_POINT('',(14.4457845045856,-53.0874990674752,1.));
#1140=VECTOR('',#1141,1.);
#1141=DIRECTION('',(0.,0.,-1.));
#1142=CARTESIAN_POINT('',(64.5092204669308,-53.0874990674752,1.));
#1143=CARTESIAN_POINT('',(64.5092204669308,-53.0874990674752,1.));
#1144=VECTOR('',#1145,1.);
#1145=DIRECTION('',(0.,1.,0.));
#1146=CARTESIAN_POINT('',(68.2092204669308,-53.0874990674752,1.));
#1147=CARTESIAN_POINT('',(68.2092204669308,-53.0874990674752,1.));
#1148=VECTOR('',#1149,1.);
#1149=DIRECTION('',(-1.,0.,0.));
#1150=CARTESIAN_POINT('',(68.2092204669308,-52.3874990674752,1.));
#1151=VECTOR('',#1152,1.);
#1152=DIRECTION('',(0.,-1.,0.));
#1153=CARTESIAN_POINT('',(64.5092204669308,-53.0874990674752,1.));
#1154=VECTOR('',#1155,1.);
#1155=DIRECTION('',(0.,0.,-1.));
#1156=CARTESIAN_POINT('',(68.2092204669308,-53.0874990674752,1.));
#1157=VECTOR('',#1158,1.);
#1158=DIRECTION('',(0.,0.,-1.));
#1159=CARTESIAN_POINT('',(14.4457845045856,-1.68749906747516,1.));
#1160=CARTESIAN_POINT('',(14.4457845045856,-1.68749906747516,1.));
#1161=VECTOR('',#1162,1.);
#1162=DIRECTION('',(0.,-1.,0.));
#1163=CARTESIAN_POINT('',(10.7457845045856,-1.68749906747516,1.));
#1164=CARTESIAN_POINT('',(10.7457845045856,-1.68749906747516,1.));
#1165=VECTOR('',#1166,1.);
#1166=DIRECTION('',(1.,0.,0.));
#1167=CARTESIAN_POINT('',(10.7457845045856,-2.38749906747516,1.));
#1168=VECTOR('',#1169,1.);
#1169=DIRECTION('',(0.,1.,0.));
#1170=CARTESIAN_POINT('',(14.4457845045856,-1.68749906747516,1.));
#1171=VECTOR('',#1172,1.);
#1172=DIRECTION('',(0.,0.,-1.));
#1173=CARTESIAN_POINT('',(10.7457845045856,-1.68749906747516,1.));
#1174=VECTOR('',#1175,1.);
#1175=DIRECTION('',(0.,0.,-1.));
#1176=CARTESIAN_POINT('',(41.3275024857582,-1.68749906747516,1.));
#1177=CARTESIAN_POINT('',(41.3275024857582,-1.68749906747516,1.));
#1178=VECTOR('',#1179,1.);
#1179=DIRECTION('',(0.,-1.,0.));
#1180=CARTESIAN_POINT('',(37.6275024857582,-1.68749906747516,1.));
#1181=CARTESIAN_POINT('',(37.6275024857582,-1.68749906747516,1.));
#1182=VECTOR('',#1183,1.);
#1183=DIRECTION('',(1.,0.,0.));
#1184=CARTESIAN_POINT('',(37.6275024857582,-2.38749906747516,1.));
#1185=VECTOR('',#1186,1.);
#1186=DIRECTION('',(0.,1.,0.));
#1187=CARTESIAN_POINT('',(41.3275024857582,-1.68749906747516,1.));
#1188=VECTOR('',#1189,1.);
#1189=DIRECTION('',(0.,0.,-1.));
#1190=CARTESIAN_POINT('',(37.6275024857582,-1.68749906747516,1.));
#1191=VECTOR('',#1192,1.);
#1192=DIRECTION('',(0.,0.,-1.));
#1193=CARTESIAN_POINT('',(68.2092204669308,-1.68749906747516,1.));
#1194=CARTESIAN_POINT('',(68.2092204669308,-1.68749906747516,1.));
#1195=VECTOR('',#1196,1.);
#1196=DIRECTION('',(0.,-1.,0.));
#1197=CARTESIAN_POINT('',(64.5092204669308,-1.68749906747516,1.));
#1198=CARTESIAN_POINT('',(64.5092204669308,-1.68749906747516,1.));
#1199=VECTOR('',#1200,1.);
#1200=DIRECTION('',(1.,0.,0.));
#1201=CARTESIAN_POINT('',(64.5092204669308,-2.38749906747516,1.));
#1202=VECTOR('',#1203,1.);
#1203=DIRECTION('',(0.,1.,0.));
#1204=CARTESIAN_POINT('',(68.2092204669308,-1.68749906747516,1.));
#1205=VECTOR('',#1206,1.);
#1206=DIRECTION('',(0.,0.,-1.));
#1207=CARTESIAN_POINT('',(64.5092204669308,-1.68749906747516,1.));
#1208=VECTOR('',#1209,1.);
#1209=DIRECTION('',(0.,0.,-1.));
#1210=CARTESIAN_POINT('',(37.6275024857582,-53.0874990674752,1.));
#1211=CARTESIAN_POINT('',(37.6275024857582,-53.0874990674752,1.));
#1212=VECTOR('',#1213,1.);
#1213=DIRECTION('',(0.,1.,0.));
#1214=CARTESIAN_POINT('',(41.3275024857582,-53.0874990674752,1.));
#1215=CARTESIAN_POINT('',(41.3275024857582,-53.0874990674752,1.));
#1216=VECTOR('',#1217,1.);
#1217=DIRECTION('',(-1.,0.,0.));
#1218=CARTESIAN_POINT('',(41.3275024857582,-52.3874990674752,1.));
#1219=VECTOR('',#1220,1.);
#1220=DIRECTION('',(0.,-1.,0.));
#1221=CARTESIAN_POINT('',(37.6275024857582,-53.0874990674752,1.));
#1222=VECTOR('',#1223,1.);
#1223=DIRECTION('',(0.,0.,-1.));
#1224=CARTESIAN_POINT('',(41.3275024857582,-53.0874990674752,1.));
#1225=VECTOR('',#1226,1.);
#1226=DIRECTION('',(0.,0.,-1.));
#1227=CARTESIAN_POINT('',(73.9775024857582,-52.3874990674752,3.6));
#1228=VECTOR('',#1229,1.);
#1229=DIRECTION('',(2.8421709430404E-16,1.,0.));
#1230=CARTESIAN_POINT('',(4.97750248575817,-2.38749906747515,3.6));
#1231=VECTOR('',#1232,1.);
#1232=DIRECTION('',(-1.24344978758018E-16,-1.,0.));
ENDSEC;
END-ISO-10303-21;
