ISO-10303-21;
HEADER;
FILE_DESCRIPTION (( 'STEP AP203' ),
    '1' );
FILE_NAME ('knob push button header.STEP',
    '2023-04-17T08:11:28',
    ( '' ),
    ( '' ),
    'SwSTEP 2.0',
    'SolidWorks 2022',
    '' );
FILE_SCHEMA (( 'CONFIG_CONTROL_DESIGN' ));
ENDSEC;

DATA;
#1 = ORIENTED_EDGE ( 'NONE', *, *, #50, .F. ) ;
#2 = LINE ( 'NONE', #193, #175 ) ;
#3 = EDGE_CURVE ( 'NONE', #94, #344, #215, .T. ) ;
#4 = EDGE_LOOP ( 'NONE', ( #594, #578, #91, #439 ) ) ;
#5 = CARTESIAN_POINT ( 'NONE',  ( 0.000000000000000000, 9.000000000000000000, 0.000000000000000000 ) ) ;
#6 = CC_DESIGN_PERSON_AND_ORGANIZATION_ASSIGNMENT ( #373, #284, ( #277 ) ) ;
#7 = ORIENTED_EDGE ( 'NONE', *, *, #128, .T. ) ;
#8 = CARTESIAN_POINT ( 'NONE',  ( 1.350000000000000089, 0.000000000000000000, 1.350000000000000089 ) ) ;
#9 = ORIENTED_EDGE ( 'NONE', *, *, #162, .F. ) ;
#10 = CARTESIAN_POINT ( 'NONE',  ( 0.000000000000000000, 0.000000000000000000, 0.000000000000000000 ) ) ;
#11 = ORIENTED_EDGE ( 'NONE', *, *, #577, .T. ) ;
#12 = VERTEX_POINT ( 'NONE', #167 ) ;
#13 = FACE_OUTER_BOUND ( 'NONE', #391, .T. ) ;
#14 = EDGE_CURVE ( 'NONE', #311, #533, #26, .T. ) ;
#15 = VECTOR ( 'NONE', #408, 1000.000000000000000 ) ;
#16 = EDGE_LOOP ( 'NONE', ( #447, #231, #250, #254 ) ) ;
#17 = CARTESIAN_POINT ( 'NONE',  ( -1.349999999999999867, 0.000000000000000000, -0.2500000000000000000 ) ) ;
#18 = PERSON_AND_ORGANIZATION_ROLE ( 'design_owner' ) ;
#19 = ORIENTED_EDGE ( 'NONE', *, *, #538, .F. ) ;
#20 = DIRECTION ( 'NONE',  ( 0.000000000000000000, 1.000000000000000000, 0.000000000000000000 ) ) ;
#21 = ADVANCED_FACE ( 'NONE', ( #124 ), #227, .F. ) ;
#22 = EDGE_LOOP ( 'NONE', ( #198, #11, #501, #342, #539, #416, #499, #51 ) ) ;
#23 = CARTESIAN_POINT ( 'NONE',  ( -2.499999999999999112, 3.000000000000000000, 0.2500000000000000000 ) ) ;
#24 = UNCERTAINTY_MEASURE_WITH_UNIT (LENGTH_MEASURE( 1.000000000000000082E-05 ), #127, 'distance_accuracy_value', 'NONE');
#25 = CALENDAR_DATE ( 2023, 17, 4 ) ;
#26 = LINE ( 'NONE', #219, #47 ) ;
#27 = DATE_AND_TIME ( #25, #351 ) ;
#28 = ORGANIZATION ( 'UNSPECIFIED', 'UNSPECIFIED', '' ) ;
#29 = ORIENTED_EDGE ( 'NONE', *, *, #151, .F. ) ;
#30 = CARTESIAN_POINT ( 'NONE',  ( 0.000000000000000000, 7.000000000000000000, 0.000000000000000000 ) ) ;
#31 = ADVANCED_FACE ( 'NONE', ( #137 ), #233, .F. ) ;
#32 = CARTESIAN_POINT ( 'NONE',  ( 2.877919977996279334E-16, 9.000000000000000000, -2.199999999999999734 ) ) ;
#33 = CARTESIAN_POINT ( 'NONE',  ( 0.000000000000000000, 8.699999999999999289, 0.000000000000000000 ) ) ;
#34 = PERSON_AND_ORGANIZATION_ROLE ( 'classification_officer' ) ;
#35 = DIRECTION ( 'NONE',  ( 0.000000000000000000, 1.000000000000000000, 0.000000000000000000 ) ) ;
#36 = DIRECTION ( 'NONE',  ( 0.000000000000000000, 0.000000000000000000, 1.000000000000000000 ) ) ;
#37 = PERSON_AND_ORGANIZATION ( #395, #28 ) ;
#38 = CARTESIAN_POINT ( 'NONE',  ( 0.000000000000000000, 0.000000000000000000, 0.000000000000000000 ) ) ;
#39 = CIRCLE ( 'NONE', #45, 2.499999999999999556 ) ;
#40 = EDGE_CURVE ( 'NONE', #311, #403, #285, .T. ) ;
#41 = CARTESIAN_POINT ( 'NONE',  ( 0.000000000000000000, 9.000000000000000000, 0.000000000000000000 ) ) ;
#42 = CARTESIAN_POINT ( 'NONE',  ( 1.350000000000000533, 3.000000000000000000, -0.2500000000000000000 ) ) ;
#43 = AXIS2_PLACEMENT_3D ( 'NONE', #477, #343, #255 ) ;
#44 = CARTESIAN_POINT ( 'NONE',  ( 1.350000000000000755, 7.000000000000000000, -1.350000000000000089 ) ) ;
#45 = AXIS2_PLACEMENT_3D ( 'NONE', #73, #523, #273 ) ;
#46 = DIRECTION ( 'NONE',  ( 0.000000000000000000, -1.000000000000000000, 0.000000000000000000 ) ) ;
#47 = VECTOR ( 'NONE', #365, 1000.000000000000000 ) ;
#48 = ORIENTED_EDGE ( 'NONE', *, *, #435, .F. ) ;
#49 = LINE ( 'NONE', #340, #323 ) ;
#50 = EDGE_CURVE ( 'NONE', #551, #72, #595, .T. ) ;
#51 = ORIENTED_EDGE ( 'NONE', *, *, #604, .T. ) ;
#52 = CARTESIAN_POINT ( 'NONE',  ( -1.350000000000000089, 0.000000000000000000, 1.350000000000000089 ) ) ;
#53 = VERTEX_POINT ( 'NONE', #328 ) ;
#54 = DIRECTION ( 'NONE',  ( -1.000000000000000000, 0.000000000000000000, -0.000000000000000000 ) ) ;
#55 = VERTEX_POINT ( 'NONE', #473 ) ;
#56 = VECTOR ( 'NONE', #310, 1000.000000000000000 ) ;
#57 = CARTESIAN_POINT ( 'NONE',  ( 0.000000000000000000, 9.000000000000000000, 0.000000000000000000 ) ) ;
#58 = EDGE_CURVE ( 'NONE', #533, #551, #475, .T. ) ;
#59 = ORIENTED_EDGE ( 'NONE', *, *, #604, .F. ) ;
#60 = DIRECTION ( 'NONE',  ( 1.000000000000000000, 0.000000000000000000, -0.000000000000000000 ) ) ;
#61 = ORIENTED_EDGE ( 'NONE', *, *, #197, .T. ) ;
#62 = LINE ( 'NONE', #600, #321 ) ;
#63 = DIRECTION ( 'NONE',  ( 0.000000000000000000, 1.000000000000000000, 0.000000000000000000 ) ) ;
#64 = ORIENTED_EDGE ( 'NONE', *, *, #398, .T. ) ;
#65 = LINE ( 'NONE', #448, #511 ) ;
#66 = EDGE_CURVE ( 'NONE', #55, #403, #567, .T. ) ;
#67 = DATE_TIME_ROLE ( 'creation_date' ) ;
#68 = AXIS2_PLACEMENT_3D ( 'NONE', #519, #131, #36 ) ;
#69 = ORIENTED_EDGE ( 'NONE', *, *, #66, .T. ) ;
#70 = LINE ( 'NONE', #214, #15 ) ;
#71 = CC_DESIGN_PERSON_AND_ORGANIZATION_ASSIGNMENT ( #422, #34, ( #222 ) ) ;
#72 = VERTEX_POINT ( 'NONE', #618 ) ;
#73 = CARTESIAN_POINT ( 'NONE',  ( 0.000000000000000000, 0.000000000000000000, 0.000000000000000000 ) ) ;
#74 = CIRCLE ( 'NONE', #184, 0.2999999999999999334 ) ;
#75 = COORDINATED_UNIVERSAL_TIME_OFFSET ( 3, 30, .AHEAD. ) ;
#76 = AXIS2_PLACEMENT_3D ( 'NONE', #5, #622, #489 ) ;
#77 = ORIENTED_EDGE ( 'NONE', *, *, #334, .T. ) ;
#78 = PLANE ( 'NONE',  #402 ) ;
#79 = APPROVAL_ROLE ( '' ) ;
#80 =( GEOMETRIC_REPRESENTATION_CONTEXT ( 3 ) GLOBAL_UNCERTAINTY_ASSIGNED_CONTEXT ( ( #24 ) ) GLOBAL_UNIT_ASSIGNED_CONTEXT ( ( #127, #324, #454 ) ) REPRESENTATION_CONTEXT ( 'NONE', 'WORKASPACE' ) );
#81 = LINE ( 'NONE', #433, #558 ) ;
#82 = ADVANCED_FACE ( 'NONE', ( #518 ), #611, .T. ) ;
#83 = DIRECTION ( 'NONE',  ( 1.606225440719265874E-16, 0.000000000000000000, -1.000000000000000000 ) ) ;
#84 = FACE_OUTER_BOUND ( 'NONE', #493, .T. ) ;
#85 = APPROVAL_STATUS ( 'not_yet_approved' ) ;
#86 = DIRECTION ( 'NONE',  ( 0.000000000000000000, 1.000000000000000000, 0.000000000000000000 ) ) ;
#87 = FACE_OUTER_BOUND ( 'NONE', #536, .T. ) ;
#88 = SHAPE_DEFINITION_REPRESENTATION ( #532, #487 ) ;
#89 = EDGE_CURVE ( 'NONE', #53, #551, #478, .T. ) ;
#90 = DIRECTION ( 'NONE',  ( -1.000000000000000000, -0.000000000000000000, -0.000000000000000000 ) ) ;
#91 = ORIENTED_EDGE ( 'NONE', *, *, #14, .T. ) ;
#92 = DIRECTION ( 'NONE',  ( 0.000000000000000000, 1.000000000000000000, 0.000000000000000000 ) ) ;
#93 = CARTESIAN_POINT ( 'NONE',  ( 1.350000000000000089, 3.000000000000000000, 1.350000000000000089 ) ) ;
#94 = VERTEX_POINT ( 'NONE', #44 ) ;
#95 = CARTESIAN_POINT ( 'NONE',  ( -2.487468592766549413, 9.000000000000000000, 0.2500000000000000000 ) ) ;
#96 = AXIS2_PLACEMENT_3D ( 'NONE', #252, #527, #54 ) ;
#97 = EDGE_CURVE ( 'NONE', #275, #102, #132, .T. ) ;
#98 = ORIENTED_EDGE ( 'NONE', *, *, #115, .T. ) ;
#99 = DIRECTION ( 'NONE',  ( -0.000000000000000000, -1.000000000000000000, -0.000000000000000000 ) ) ;
#100 = ORIENTED_EDGE ( 'NONE', *, *, #151, .T. ) ;
#101 = AXIS2_PLACEMENT_3D ( 'NONE', #178, #35, #372 ) ;
#102 = VERTEX_POINT ( 'NONE', #468 ) ;
#103 = DIRECTION ( 'NONE',  ( 0.000000000000000000, 1.000000000000000000, 0.000000000000000000 ) ) ;
#104 = ORIENTED_EDGE ( 'NONE', *, *, #107, .T. ) ;
#105 = VERTEX_POINT ( 'NONE', #571 ) ;
#106 = FACE_OUTER_BOUND ( 'NONE', #194, .T. ) ;
#107 = EDGE_CURVE ( 'NONE', #441, #12, #81, .T. ) ;
#108 = ORIENTED_EDGE ( 'NONE', *, *, #538, .T. ) ;
#109 = LINE ( 'NONE', #552, #562 ) ;
#110 = ORIENTED_EDGE ( 'NONE', *, *, #466, .F. ) ;
#111 = LINE ( 'NONE', #452, #272 ) ;
#112 = AXIS2_PLACEMENT_3D ( 'NONE', #481, #46, #147 ) ;
#113 = APPROVAL_DATE_TIME ( #27, #226 ) ;
#114 = ORIENTED_EDGE ( 'NONE', *, *, #316, .T. ) ;
#115 = EDGE_CURVE ( 'NONE', #412, #344, #279, .T. ) ;
#116 = CARTESIAN_POINT ( 'NONE',  ( 0.000000000000000000, 0.000000000000000000, -2.499999999999999556 ) ) ;
#117 = APPROVAL_ROLE ( '' ) ;
#118 = ORIENTED_EDGE ( 'NONE', *, *, #319, .F. ) ;
#119 = CARTESIAN_POINT ( 'NONE',  ( 2.487468592766549413, 3.000000000000000000, -0.2500000000000000000 ) ) ;
#120 = CC_DESIGN_PERSON_AND_ORGANIZATION_ASSIGNMENT ( #355, #18, ( #627 ) ) ;
#121 = CARTESIAN_POINT ( 'NONE',  ( -2.499999999999999112, 3.000000000000000000, -0.2500000000000000000 ) ) ;
#122 = ORIENTED_EDGE ( 'NONE', *, *, #162, .T. ) ;
#123 = DIRECTION ( 'NONE',  ( 2.409338161078898687E-16, 0.000000000000000000, -1.000000000000000000 ) ) ;
#124 = FACE_OUTER_BOUND ( 'NONE', #213, .T. ) ;
#125 = DIRECTION ( 'NONE',  ( 0.000000000000000000, -0.000000000000000000, -1.000000000000000000 ) ) ;
#126 = AXIS2_PLACEMENT_3D ( 'NONE', #166, #404, #269 ) ;
#127 =( LENGTH_UNIT ( ) NAMED_UNIT ( * ) SI_UNIT ( .MILLI., .METRE. ) );
#128 = EDGE_CURVE ( 'NONE', #488, #55, #525, .T. ) ;
#129 = TOROIDAL_SURFACE ( 'NONE', #491, 2.199999999999999734, 0.2999999999999999889 ) ;
#130 = DIRECTION ( 'NONE',  ( 0.000000000000000000, 0.000000000000000000, -1.000000000000000000 ) ) ;
#131 = DIRECTION ( 'NONE',  ( 0.000000000000000000, 1.000000000000000000, 0.000000000000000000 ) ) ;
#132 = LINE ( 'NONE', #381, #506 ) ;
#133 = CARTESIAN_POINT ( 'NONE',  ( -1.350000000000000089, 0.000000000000000000, 1.350000000000000089 ) ) ;
#134 = DIRECTION ( 'NONE',  ( 0.000000000000000000, -1.000000000000000000, 0.000000000000000000 ) ) ;
#135 = EDGE_CURVE ( 'NONE', #210, #396, #563, .T. ) ;
#136 = VECTOR ( 'NONE', #483, 1000.000000000000000 ) ;
#137 = FACE_OUTER_BOUND ( 'NONE', #157, .T. ) ;
#138 = DIRECTION ( 'NONE',  ( -0.000000000000000000, -1.000000000000000000, 0.000000000000000000 ) ) ;
#139 = DIRECTION ( 'NONE',  ( -1.000000000000000000, -0.000000000000000000, -0.000000000000000000 ) ) ;
#140 = CARTESIAN_POINT ( 'NONE',  ( 0.000000000000000000, 8.699999999999999289, 0.000000000000000000 ) ) ;
#141 = PERSON_AND_ORGANIZATION_ROLE ( 'design_supplier' ) ;
#142 = ADVANCED_FACE ( 'NONE', ( #521 ), #329, .T. ) ;
#143 = CARTESIAN_POINT ( 'NONE',  ( 1.350000000000000089, 7.000000000000000000, 1.350000000000000089 ) ) ;
#144 = ORIENTED_EDGE ( 'NONE', *, *, #89, .F. ) ;
#145 = CARTESIAN_POINT ( 'NONE',  ( -1.349999999999999867, 7.000000000000000000, 0.2500000000000000000 ) ) ;
#146 = VERTEX_POINT ( 'NONE', #32 ) ;
#147 = DIRECTION ( 'NONE',  ( 0.000000000000000000, 0.000000000000000000, -1.000000000000000000 ) ) ;
#148 = VECTOR ( 'NONE', #236, 1000.000000000000000 ) ;
#149 = VERTEX_POINT ( 'NONE', #476 ) ;
#150 = DIRECTION ( 'NONE',  ( 0.000000000000000000, 0.000000000000000000, 1.000000000000000000 ) ) ;
#151 = EDGE_CURVE ( 'NONE', #105, #412, #375, .T. ) ;
#152 = VECTOR ( 'NONE', #138, 1000.000000000000000 ) ;
#153 = ORIENTED_EDGE ( 'NONE', *, *, #135, .F. ) ;
#154 = CARTESIAN_POINT ( 'NONE',  ( -1.349999999999999867, 3.000000000000000000, -0.2500000000000000000 ) ) ;
#155 = VECTOR ( 'NONE', #584, 1000.000000000000000 ) ;
#156 = VECTOR ( 'NONE', #603, 1000.000000000000000 ) ;
#157 = EDGE_LOOP ( 'NONE', ( #508, #77, #512, #29, #19, #580, #409, #297 ) ) ;
#158 = ORIENTED_EDGE ( 'NONE', *, *, #316, .F. ) ;
#159 = APPROVAL_PERSON_ORGANIZATION ( #37, #586, #79 ) ;
#160 = CARTESIAN_POINT ( 'NONE',  ( -1.350000000000000089, 0.000000000000000000, 1.350000000000000089 ) ) ;
#161 = DIRECTION ( 'NONE',  ( -2.409338161078898687E-16, -0.000000000000000000, 1.000000000000000000 ) ) ;
#162 = EDGE_CURVE ( 'NONE', #401, #268, #421, .T. ) ;
#163 = ORIENTED_EDGE ( 'NONE', *, *, #490, .T. ) ;
#164 = DIRECTION ( 'NONE',  ( -0.000000000000000000, -1.000000000000000000, -0.000000000000000000 ) ) ;
#165 = ORIENTED_EDGE ( 'NONE', *, *, #547, .T. ) ;
#166 = CARTESIAN_POINT ( 'NONE',  ( 0.000000000000000000, 3.000000000000000000, 0.000000000000000000 ) ) ;
#167 = CARTESIAN_POINT ( 'NONE',  ( 3.061616997868382648E-16, 0.000000000000000000, 2.499999999999999556 ) ) ;
#168 = FACE_OUTER_BOUND ( 'NONE', #348, .T. ) ;
#169 = ORIENTED_EDGE ( 'NONE', *, *, #426, .T. ) ;
#170 = FACE_OUTER_BOUND ( 'NONE', #587, .T. ) ;
#171 = ADVANCED_FACE ( 'NONE', ( #522 ), #463, .T. ) ;
#172 = PLANE ( 'NONE',  #304 ) ;
#173 = ORIENTED_EDGE ( 'NONE', *, *, #388, .F. ) ;
#174 = FACE_OUTER_BOUND ( 'NONE', #206, .T. ) ;
#175 = VECTOR ( 'NONE', #397, 1000.000000000000000 ) ;
#176 = DIRECTION ( 'NONE',  ( -1.000000000000000000, -0.000000000000000000, -0.000000000000000000 ) ) ;
#177 = ADVANCED_FACE ( 'NONE', ( #84 ), #330, .F. ) ;
#178 = CARTESIAN_POINT ( 'NONE',  ( 0.000000000000000000, 0.000000000000000000, 0.000000000000000000 ) ) ;
#179 = AXIS2_PLACEMENT_3D ( 'NONE', #30, #134, #125 ) ;
#180 = PLANE ( 'NONE',  #217 ) ;
#181 = DIRECTION ( 'NONE',  ( 0.000000000000000000, -1.000000000000000000, 0.000000000000000000 ) ) ;
#182 = CC_DESIGN_PERSON_AND_ORGANIZATION_ASSIGNMENT ( #471, #141, ( #277 ) ) ;
#183 = CARTESIAN_POINT ( 'NONE',  ( -2.487468592766549413, 3.000000000000000000, 0.2500000000000000000 ) ) ;
#184 = AXIS2_PLACEMENT_3D ( 'NONE', #360, #555, #505 ) ;
#185 = TOROIDAL_SURFACE ( 'NONE', #301, 2.199999999999999734, 0.2999999999999999889 ) ;
#186 = DIRECTION ( 'NONE',  ( 0.000000000000000000, 0.000000000000000000, 1.000000000000000000 ) ) ;
#187 = AXIS2_PLACEMENT_3D ( 'NONE', #528, #427, #240 ) ;
#188 = DIRECTION ( 'NONE',  ( -0.000000000000000000, -1.000000000000000000, -0.000000000000000000 ) ) ;
#189 = COORDINATED_UNIVERSAL_TIME_OFFSET ( 3, 30, .AHEAD. ) ;
#190 = AXIS2_PLACEMENT_3D ( 'NONE', #540, #307, #260 ) ;
#191 = CARTESIAN_POINT ( 'NONE',  ( -1.349999999999999645, 0.000000000000000000, -1.350000000000000089 ) ) ;
#192 = ORIENTED_EDGE ( 'NONE', *, *, #530, .F. ) ;
#193 = CARTESIAN_POINT ( 'NONE',  ( -2.499999999999999112, 0.000000000000000000, 0.2500000000000000000 ) ) ;
#194 = EDGE_LOOP ( 'NONE', ( #61, #302 ) ) ;
#195 = DIRECTION ( 'NONE',  ( 0.000000000000000000, 0.000000000000000000, 1.000000000000000000 ) ) ;
#196 = ORIENTED_EDGE ( 'NONE', *, *, #40, .T. ) ;
#197 = EDGE_CURVE ( 'NONE', #204, #146, #616, .T. ) ;
#198 = ORIENTED_EDGE ( 'NONE', *, *, #107, .F. ) ;
#199 = DIRECTION ( 'NONE',  ( -1.000000000000000000, -0.000000000000000000, -0.000000000000000000 ) ) ;
#200 = VECTOR ( 'NONE', #331, 1000.000000000000000 ) ;
#201 = CC_DESIGN_PERSON_AND_ORGANIZATION_ASSIGNMENT ( #313, #503, ( #411 ) ) ;
#202 = ORIENTED_EDGE ( 'NONE', *, *, #472, .T. ) ;
#203 = PLANE ( 'NONE',  #541 ) ;
#204 = VERTEX_POINT ( 'NONE', #225 ) ;
#205 = CIRCLE ( 'NONE', #190, 2.499999999999999556 ) ;
#206 = EDGE_LOOP ( 'NONE', ( #59, #526, #153, #192, #110, #9, #224 ) ) ;
#207 = LINE ( 'NONE', #265, #462 ) ;
#208 = EDGE_CURVE ( 'NONE', #12, #401, #39, .T. ) ;
#209 = DIRECTION ( 'NONE',  ( 1.000000000000000000, 0.000000000000000000, 0.000000000000000000 ) ) ;
#210 = VERTEX_POINT ( 'NONE', #424 ) ;
#211 = DIRECTION ( 'NONE',  ( 0.000000000000000000, -0.000000000000000000, 1.000000000000000000 ) ) ;
#212 = APPROVAL_STATUS ( 'not_yet_approved' ) ;
#213 = EDGE_LOOP ( 'NONE', ( #300, #251, #118, #293 ) ) ;
#214 = CARTESIAN_POINT ( 'NONE',  ( -1.349999999999999645, 7.000000000000000000, -1.350000000000000089 ) ) ;
#215 = LINE ( 'NONE', #560, #156 ) ;
#216 = CARTESIAN_POINT ( 'NONE',  ( 0.000000000000000000, 3.000000000000000000, 0.000000000000000000 ) ) ;
#217 = AXIS2_PLACEMENT_3D ( 'NONE', #419, #221, #615 ) ;
#218 = CALENDAR_DATE ( 2023, 17, 4 ) ;
#219 = CARTESIAN_POINT ( 'NONE',  ( -2.499999999999999112, 0.000000000000000000, -0.2500000000000000000 ) ) ;
#220 = ADVANCED_FACE ( 'NONE', ( #168 ), #180, .F. ) ;
#221 = DIRECTION ( 'NONE',  ( 0.000000000000000000, 0.000000000000000000, -1.000000000000000000 ) ) ;
#222 = SECURITY_CLASSIFICATION ( '', '', #520 ) ;
#223 = DATE_AND_TIME ( #218, #546 ) ;
#224 = ORIENTED_EDGE ( 'NONE', *, *, #208, .F. ) ;
#225 = CARTESIAN_POINT ( 'NONE',  ( 0.000000000000000000, 9.000000000000000000, 2.199999999999999734 ) ) ;
#226 = APPROVAL ( #212, 'UNSPECIFIED' ) ;
#227 = PLANE ( 'NONE',  #187 ) ;
#228 = COORDINATED_UNIVERSAL_TIME_OFFSET ( 3, 30, .AHEAD. ) ;
#229 = ADVANCED_FACE ( 'NONE', ( #322 ), #185, .T. ) ;
#230 = CARTESIAN_POINT ( 'NONE',  ( 0.000000000000000000, 9.000000000000000000, -2.499999999999999556 ) ) ;
#231 = ORIENTED_EDGE ( 'NONE', *, *, #319, .T. ) ;
#232 = COORDINATED_UNIVERSAL_TIME_OFFSET ( 3, 30, .AHEAD. ) ;
#233 = PLANE ( 'NONE',  #516 ) ;
#234 = VECTOR ( 'NONE', #283, 1000.000000000000000 ) ;
#235 = LOCAL_TIME ( 11, 41, 28.00000000000000000, #232 ) ;
#236 = DIRECTION ( 'NONE',  ( 2.409338161078898687E-16, 0.000000000000000000, -1.000000000000000000 ) ) ;
#237 = FACE_OUTER_BOUND ( 'NONE', #389, .T. ) ;
#238 = AXIS2_PLACEMENT_3D ( 'NONE', #502, #456, #60 ) ;
#239 = VECTOR ( 'NONE', #383, 1000.000000000000000 ) ;
#240 = DIRECTION ( 'NONE',  ( -1.000000000000000000, 0.000000000000000000, -0.000000000000000000 ) ) ;
#241 = ADVANCED_FACE ( 'NONE', ( #87 ), #460, .F. ) ;
#242 = VECTOR ( 'NONE', #86, 1000.000000000000000 ) ;
#243 = PLANE ( 'NONE',  #96 ) ;
#244 = APPROVAL_PERSON_ORGANIZATION ( #414, #363, #623 ) ;
#245 = ORIENTED_EDGE ( 'NONE', *, *, #472, .F. ) ;
#246 = ORIENTED_EDGE ( 'NONE', *, *, #453, .F. ) ;
#247 = CC_DESIGN_DATE_AND_TIME_ASSIGNMENT ( #223, #67, ( #411 ) ) ;
#248 = CARTESIAN_POINT ( 'NONE',  ( -2.499999999999999112, 0.000000000000000000, -0.2500000000000000000 ) ) ;
#249 = APPLICATION_CONTEXT ( 'configuration controlled 3d designs of mechanical parts and assemblies' ) ;
#250 = ORIENTED_EDGE ( 'NONE', *, *, #429, .T. ) ;
#251 = ORIENTED_EDGE ( 'NONE', *, *, #334, .F. ) ;
#252 = CARTESIAN_POINT ( 'NONE',  ( -2.499999999999999112, 3.000000000000000000, -0.2500000000000000000 ) ) ;
#253 = ADVANCED_FACE ( 'NONE', ( #170 ), #367, .T. ) ;
#254 = ORIENTED_EDGE ( 'NONE', *, *, #453, .T. ) ;
#255 = DIRECTION ( 'NONE',  ( 0.000000000000000000, 0.000000000000000000, 1.000000000000000000 ) ) ;
#256 = ORIENTED_EDGE ( 'NONE', *, *, #350, .F. ) ;
#257 = LINE ( 'NONE', #160, #370 ) ;
#258 = ORIENTED_EDGE ( 'NONE', *, *, #197, .F. ) ;
#259 = ADVANCED_FACE ( 'NONE', ( #174 ), #78, .F. ) ;
#260 = DIRECTION ( 'NONE',  ( 0.000000000000000000, 0.000000000000000000, 1.000000000000000000 ) ) ;
#261 = ORIENTED_EDGE ( 'NONE', *, *, #97, .T. ) ;
#262 = CARTESIAN_POINT ( 'NONE',  ( -1.350000000000000089, 3.000000000000000000, 1.350000000000000089 ) ) ;
#263 = CARTESIAN_POINT ( 'NONE',  ( 1.350000000000000089, 7.000000000000000000, 1.350000000000000089 ) ) ;
#264 = ORIENTED_EDGE ( 'NONE', *, *, #479, .T. ) ;
#265 = CARTESIAN_POINT ( 'NONE',  ( 2.487468592766549413, 9.000000000000000000, 0.2500000000000000000 ) ) ;
#266 = AXIS2_PLACEMENT_3D ( 'NONE', #290, #181, #620 ) ;
#267 = LINE ( 'NONE', #121, #56 ) ;
#268 = VERTEX_POINT ( 'NONE', #379 ) ;
#269 = DIRECTION ( 'NONE',  ( 0.000000000000000000, 0.000000000000000000, -1.000000000000000000 ) ) ;
#270 = ADVANCED_FACE ( 'NONE', ( #237 ), #129, .T. ) ;
#271 = ORIENTED_EDGE ( 'NONE', *, *, #97, .F. ) ;
#272 = VECTOR ( 'NONE', #164, 1000.000000000000000 ) ;
#273 = DIRECTION ( 'NONE',  ( 0.000000000000000000, 0.000000000000000000, 1.000000000000000000 ) ) ;
#274 = APPLICATION_PROTOCOL_DEFINITION ( 'international standard', 'config_control_design', 1994, #249 ) ;
#275 = VERTEX_POINT ( 'NONE', #143 ) ;
#276 = DIRECTION ( 'NONE',  ( 1.000000000000000000, 0.000000000000000000, -0.000000000000000000 ) ) ;
#277 = PRODUCT_DEFINITION_FORMATION_WITH_SPECIFIED_SOURCE ( 'ANY', '', #627, .NOT_KNOWN. ) ;
#278 = APPROVAL_DATE_TIME ( #570, #586 ) ;
#279 = LINE ( 'NONE', #423, #287 ) ;
#280 = DIRECTION ( 'NONE',  ( 0.000000000000000000, 0.000000000000000000, 1.000000000000000000 ) ) ;
#281 = EDGE_CURVE ( 'NONE', #146, #204, #413, .T. ) ;
#282 = CALENDAR_DATE ( 2023, 17, 4 ) ;
#283 = DIRECTION ( 'NONE',  ( -0.000000000000000000, -1.000000000000000000, -0.000000000000000000 ) ) ;
#284 = PERSON_AND_ORGANIZATION_ROLE ( 'creator' ) ;
#285 = LINE ( 'NONE', #470, #242 ) ;
#286 = DIRECTION ( 'NONE',  ( -0.000000000000000000, -1.000000000000000000, -0.000000000000000000 ) ) ;
#287 = VECTOR ( 'NONE', #624, 1000.000000000000000 ) ;
#288 = CARTESIAN_POINT ( 'NONE',  ( -2.499999999999999112, 3.000000000000000000, -0.2500000000000000000 ) ) ;
#289 = EDGE_CURVE ( 'NONE', #451, #412, #296, .T. ) ;
#290 = CARTESIAN_POINT ( 'NONE',  ( 0.000000000000000000, 3.000000000000000000, 0.000000000000000000 ) ) ;
#291 = FACE_OUTER_BOUND ( 'NONE', #308, .T. ) ;
#292 = VECTOR ( 'NONE', #549, 1000.000000000000000 ) ;
#293 = ORIENTED_EDGE ( 'NONE', *, *, #359, .F. ) ;
#294 = DIRECTION ( 'NONE',  ( 0.000000000000000000, 1.000000000000000000, 0.000000000000000000 ) ) ;
#295 = ORIENTED_EDGE ( 'NONE', *, *, #325, .F. ) ;
#296 = LINE ( 'NONE', #52, #239 ) ;
#297 = ORIENTED_EDGE ( 'NONE', *, *, #350, .T. ) ;
#298 = FACE_OUTER_BOUND ( 'NONE', #4, .T. ) ;
#299 = ADVANCED_FACE ( 'NONE', ( #291 ), #390, .T. ) ;
#300 = ORIENTED_EDGE ( 'NONE', *, *, #420, .T. ) ;
#301 = AXIS2_PLACEMENT_3D ( 'NONE', #33, #376, #280 ) ;
#302 = ORIENTED_EDGE ( 'NONE', *, *, #281, .T. ) ;
#303 = DIRECTION ( 'NONE',  ( 0.000000000000000000, 1.000000000000000000, 0.000000000000000000 ) ) ;
#304 = AXIS2_PLACEMENT_3D ( 'NONE', #263, #364, #123 ) ;
#305 = ORIENTED_EDGE ( 'NONE', *, *, #566, .F. ) ;
#306 = EDGE_LOOP ( 'NONE', ( #492, #606, #455, #485, #554, #608, #1 ) ) ;
#307 = DIRECTION ( 'NONE',  ( -0.000000000000000000, -1.000000000000000000, -0.000000000000000000 ) ) ;
#308 = EDGE_LOOP ( 'NONE', ( #444, #104, #356, #320, #583, #163, #358, #144 ) ) ;
#309 = CARTESIAN_POINT ( 'NONE',  ( -2.499999999999999112, 3.000000000000000000, 0.2500000000000000000 ) ) ;
#310 = DIRECTION ( 'NONE',  ( 1.000000000000000000, 0.000000000000000000, 0.000000000000000000 ) ) ;
#311 = VERTEX_POINT ( 'NONE', #486 ) ;
#312 = PLANE ( 'NONE',  #238 ) ;
#313 = PERSON_AND_ORGANIZATION ( #395, #28 ) ;
#314 = ORIENTED_EDGE ( 'NONE', *, *, #128, .F. ) ;
#315 = DIRECTION ( 'NONE',  ( -2.409338161078898687E-16, -0.000000000000000000, 1.000000000000000000 ) ) ;
#316 = EDGE_CURVE ( 'NONE', #275, #482, #534, .T. ) ;
#317 = AXIS2_PLACEMENT_3D ( 'NONE', #612, #561, #276 ) ;
#318 = VERTEX_POINT ( 'NONE', #575 ) ;
#319 = EDGE_CURVE ( 'NONE', #149, #496, #537, .T. ) ;
#320 = ORIENTED_EDGE ( 'NONE', *, *, #457, .T. ) ;
#321 = VECTOR ( 'NONE', #349, 1000.000000000000000 ) ;
#322 = FACE_OUTER_BOUND ( 'NONE', #548, .T. ) ;
#323 = VECTOR ( 'NONE', #103, 1000.000000000000000 ) ;
#324 =( NAMED_UNIT ( * ) PLANE_ANGLE_UNIT ( ) SI_UNIT ( $, .RADIAN. ) );
#325 = EDGE_CURVE ( 'NONE', #362, #318, #392, .T. ) ;
#326 = DIRECTION ( 'NONE',  ( 0.000000000000000000, 1.000000000000000000, 0.000000000000000000 ) ) ;
#327 = DIRECTION ( 'NONE',  ( 0.000000000000000000, -1.000000000000000000, 0.000000000000000000 ) ) ;
#328 = CARTESIAN_POINT ( 'NONE',  ( 0.000000000000000000, 8.699999999999999289, -2.499999999999999556 ) ) ;
#329 = CYLINDRICAL_SURFACE ( 'NONE', #535, 2.499999999999999556 ) ;
#330 = PLANE ( 'NONE',  #317 ) ;
#331 = DIRECTION ( 'NONE',  ( -0.000000000000000000, -1.000000000000000000, -0.000000000000000000 ) ) ;
#332 = DIRECTION ( 'NONE',  ( 0.000000000000000000, 1.000000000000000000, 0.000000000000000000 ) ) ;
#333 = AXIS2_PLACEMENT_3D ( 'NONE', #515, #449, #209 ) ;
#334 = EDGE_CURVE ( 'NONE', #496, #451, #579, .T. ) ;
#335 = CARTESIAN_POINT ( 'NONE',  ( -1.350000000000000089, 7.000000000000000000, 1.350000000000000089 ) ) ;
#336 = CARTESIAN_POINT ( 'NONE',  ( -1.349999999999999867, 3.000000000000000000, 0.2500000000000000000 ) ) ;
#337 = APPROVAL_STATUS ( 'not_yet_approved' ) ;
#338 = CARTESIAN_POINT ( 'NONE',  ( -1.349999999999999867, 0.000000000000000000, 0.2500000000000000000 ) ) ;
#339 = VERTEX_POINT ( 'NONE', #336 ) ;
#340 = CARTESIAN_POINT ( 'NONE',  ( -2.487468592766549413, 9.000000000000000000, -0.2500000000000000000 ) ) ;
#341 = AXIS2_PLACEMENT_3D ( 'NONE', #38, #326, #186 ) ;
#342 = ORIENTED_EDGE ( 'NONE', *, *, #50, .T. ) ;
#343 = DIRECTION ( 'NONE',  ( -1.000000000000000000, 0.000000000000000000, 0.000000000000000000 ) ) ;
#344 = VERTEX_POINT ( 'NONE', #581 ) ;
#345 = CARTESIAN_POINT ( 'NONE',  ( 1.350000000000000089, 0.000000000000000000, 1.350000000000000089 ) ) ;
#346 = VECTOR ( 'NONE', #315, 1000.000000000000000 ) ;
#347 = AXIS2_PLACEMENT_3D ( 'NONE', #23, #467, #609 ) ;
#348 = EDGE_LOOP ( 'NONE', ( #98, #544, #459, #100 ) ) ;
#349 = DIRECTION ( 'NONE',  ( 1.606225440719265874E-16, 0.000000000000000000, -1.000000000000000000 ) ) ;
#350 = EDGE_CURVE ( 'NONE', #396, #339, #529, .T. ) ;
#351 = LOCAL_TIME ( 11, 41, 28.00000000000000000, #75 ) ;
#352 = ORIENTED_EDGE ( 'NONE', *, *, #592, .T. ) ;
#353 = ORIENTED_EDGE ( 'NONE', *, *, #281, .F. ) ;
#354 = LINE ( 'NONE', #262, #292 ) ;
#355 = PERSON_AND_ORGANIZATION ( #395, #28 ) ;
#356 = ORIENTED_EDGE ( 'NONE', *, *, #208, .T. ) ;
#357 = FACE_OUTER_BOUND ( 'NONE', #306, .T. ) ;
#358 = ORIENTED_EDGE ( 'NONE', *, *, #58, .T. ) ;
#359 = EDGE_CURVE ( 'NONE', #72, #149, #49, .T. ) ;
#360 = CARTESIAN_POINT ( 'NONE',  ( 2.694222958124176513E-16, 8.699999999999999289, -2.199999999999999734 ) ) ;
#361 = CARTESIAN_POINT ( 'NONE',  ( 1.350000000000000089, 7.000000000000000000, 1.350000000000000089 ) ) ;
#362 = VERTEX_POINT ( 'NONE', #183 ) ;
#363 = APPROVAL ( #85, 'UNSPECIFIED' ) ;
#364 = DIRECTION ( 'NONE',  ( 1.000000000000000000, -0.000000000000000000, 2.409338161078898687E-16 ) ) ;
#365 = DIRECTION ( 'NONE',  ( 1.000000000000000000, 0.000000000000000000, 0.000000000000000000 ) ) ;
#366 = CC_DESIGN_APPROVAL ( #586, ( #222 ) ) ;
#367 = PLANE ( 'NONE',  #542 ) ;
#368 = EDGE_CURVE ( 'NONE', #504, #488, #498, .T. ) ;
#369 = CARTESIAN_POINT ( 'NONE',  ( -2.499999999999999112, 3.000000000000000000, 0.2500000000000000000 ) ) ;
#370 = VECTOR ( 'NONE', #199, 1000.000000000000000 ) ;
#371 = CARTESIAN_POINT ( 'NONE',  ( 0.000000000000000000, 0.000000000000000000, 0.000000000000000000 ) ) ;
#372 = DIRECTION ( 'NONE',  ( 0.000000000000000000, 0.000000000000000000, 1.000000000000000000 ) ) ;
#373 = PERSON_AND_ORGANIZATION ( #395, #28 ) ;
#374 = APPLICATION_CONTEXT ( 'configuration controlled 3d designs of mechanical parts and assemblies' ) ;
#375 = LINE ( 'NONE', #574, #234 ) ;
#376 = DIRECTION ( 'NONE',  ( 0.000000000000000000, 1.000000000000000000, 0.000000000000000000 ) ) ;
#377 = DIRECTION ( 'NONE',  ( -1.606225440719265874E-16, 0.000000000000000000, 1.000000000000000000 ) ) ;
#378 = ADVANCED_FACE ( 'NONE', ( #298 ), #243, .F. ) ;
#379 = CARTESIAN_POINT ( 'NONE',  ( 1.350000000000000533, 0.000000000000000000, 0.2500000000000000000 ) ) ;
#380 = VECTOR ( 'NONE', #188, 1000.000000000000000 ) ;
#381 = CARTESIAN_POINT ( 'NONE',  ( -1.350000000000000089, 7.000000000000000000, 1.350000000000000089 ) ) ;
#382 = CLOSED_SHELL ( 'NONE', ( #229, #299, #510, #142, #582, #259, #270, #621, #220, #31, #559, #171, #82, #241, #21, #378, #177, #253 ) ) ;
#383 = DIRECTION ( 'NONE',  ( 1.606225440719265874E-16, 0.000000000000000000, -1.000000000000000000 ) ) ;
#384 = CIRCLE ( 'NONE', #605, 2.499999999999999556 ) ;
#385 = CALENDAR_DATE ( 2023, 17, 4 ) ;
#386 = ORIENTED_EDGE ( 'NONE', *, *, #398, .F. ) ;
#387 = CARTESIAN_POINT ( 'NONE',  ( 0.000000000000000000, 9.000000000000000000, 0.000000000000000000 ) ) ;
#388 = EDGE_CURVE ( 'NONE', #441, #204, #450, .T. ) ;
#389 = EDGE_LOOP ( 'NONE', ( #245, #557, #465, #353 ) ) ;
#390 = CYLINDRICAL_SURFACE ( 'NONE', #76, 2.499999999999999556 ) ;
#391 = EDGE_LOOP ( 'NONE', ( #418, #48, #271, #114 ) ) ;
#392 = LINE ( 'NONE', #95, #432 ) ;
#393 = ORIENTED_EDGE ( 'NONE', *, *, #610, .T. ) ;
#394 = CARTESIAN_POINT ( 'NONE',  ( 2.487468592766549413, 0.000000000000000000, -0.2500000000000000000 ) ) ;
#395 = PERSON ( 'UNSPECIFIED', 'UNSPECIFIED', 'UNSPECIFIED', ('UNSPECIFIED'), ('UNSPECIFIED'), ('UNSPECIFIED') ) ;
#396 = VERTEX_POINT ( 'NONE', #338 ) ;
#397 = DIRECTION ( 'NONE',  ( -1.000000000000000000, -0.000000000000000000, -0.000000000000000000 ) ) ;
#398 = EDGE_CURVE ( 'NONE', #55, #268, #442, .T. ) ;
#399 = DESIGN_CONTEXT ( 'detailed design', #374, 'design' ) ;
#400 = AXIS2_PLACEMENT_3D ( 'NONE', #410, #588, #150 ) ;
#401 = VERTEX_POINT ( 'NONE', #626 ) ;
#402 = AXIS2_PLACEMENT_3D ( 'NONE', #371, #564, #469 ) ;
#403 = VERTEX_POINT ( 'NONE', #42 ) ;
#404 = DIRECTION ( 'NONE',  ( 0.000000000000000000, -1.000000000000000000, 0.000000000000000000 ) ) ;
#405 = PRODUCT_RELATED_PRODUCT_CATEGORY ( 'detail', '', ( #627 ) ) ;
#406 = PERSON_AND_ORGANIZATION ( #395, #28 ) ;
#407 = ORIENTED_EDGE ( 'NONE', *, *, #66, .F. ) ;
#408 = DIRECTION ( 'NONE',  ( 1.000000000000000000, 0.000000000000000000, 0.000000000000000000 ) ) ;
#409 = ORIENTED_EDGE ( 'NONE', *, *, #135, .T. ) ;
#410 = CARTESIAN_POINT ( 'NONE',  ( 0.000000000000000000, 8.699999999999999289, 0.000000000000000000 ) ) ;
#411 = PRODUCT_DEFINITION ( 'UNKNOWN', '', #277, #399 ) ;
#412 = VERTEX_POINT ( 'NONE', #191 ) ;
#413 = CIRCLE ( 'NONE', #572, 2.199999999999999734 ) ;
#414 = PERSON_AND_ORGANIZATION ( #395, #28 ) ;
#415 = AXIS2_PLACEMENT_3D ( 'NONE', #57, #63, #598 ) ;
#416 = ORIENTED_EDGE ( 'NONE', *, *, #443, .F. ) ;
#417 = DIRECTION ( 'NONE',  ( 0.000000000000000000, 1.000000000000000000, 0.000000000000000000 ) ) ;
#418 = ORIENTED_EDGE ( 'NONE', *, *, #530, .T. ) ;
#419 = CARTESIAN_POINT ( 'NONE',  ( -1.349999999999999645, 7.000000000000000000, -1.350000000000000089 ) ) ;
#420 = EDGE_CURVE ( 'NONE', #72, #451, #531, .T. ) ;
#421 = LINE ( 'NONE', #569, #568 ) ;
#422 = PERSON_AND_ORGANIZATION ( #395, #28 ) ;
#423 = CARTESIAN_POINT ( 'NONE',  ( -1.349999999999999645, 0.000000000000000000, -1.350000000000000089 ) ) ;
#424 = CARTESIAN_POINT ( 'NONE',  ( -1.350000000000000089, 0.000000000000000000, 1.350000000000000089 ) ) ;
#425 = VECTOR ( 'NONE', #90, 1000.000000000000000 ) ;
#426 = EDGE_CURVE ( 'NONE', #396, #318, #2, .T. ) ;
#427 = DIRECTION ( 'NONE',  ( 0.000000000000000000, 0.000000000000000000, -1.000000000000000000 ) ) ;
#428 = DIRECTION ( 'NONE',  ( -1.000000000000000000, 0.000000000000000000, -1.606225440719265874E-16 ) ) ;
#429 = EDGE_CURVE ( 'NONE', #496, #339, #354, .T. ) ;
#430 = CIRCLE ( 'NONE', #126, 2.499999999999999556 ) ;
#431 = DIRECTION ( 'NONE',  ( 0.000000000000000000, 0.000000000000000000, 1.000000000000000000 ) ) ;
#432 = VECTOR ( 'NONE', #99, 1000.000000000000000 ) ;
#433 = CARTESIAN_POINT ( 'NONE',  ( 3.061616997868382648E-16, 9.000000000000000000, 2.499999999999999556 ) ) ;
#434 = CARTESIAN_POINT ( 'NONE',  ( 1.350000000000000311, 7.000000000000000000, 0.2500000000000000000 ) ) ;
#435 = EDGE_CURVE ( 'NONE', #102, #210, #111, .T. ) ;
#436 = LOCAL_TIME ( 11, 41, 28.00000000000000000, #228 ) ;
#437 = ORIENTED_EDGE ( 'NONE', *, *, #592, .F. ) ;
#438 = DIRECTION ( 'NONE',  ( 1.000000000000000000, 0.000000000000000000, 0.000000000000000000 ) ) ;
#439 = ORIENTED_EDGE ( 'NONE', *, *, #490, .F. ) ;
#440 = CARTESIAN_POINT ( 'NONE',  ( -1.349999999999999867, 7.000000000000000000, -0.2500000000000000000 ) ) ;
#441 = VERTEX_POINT ( 'NONE', #602 ) ;
#442 = LINE ( 'NONE', #434, #152 ) ;
#443 = EDGE_CURVE ( 'NONE', #362, #149, #430, .T. ) ;
#444 = ORIENTED_EDGE ( 'NONE', *, *, #566, .T. ) ;
#445 = DIRECTION ( 'NONE',  ( -0.000000000000000000, -1.000000000000000000, -0.000000000000000000 ) ) ;
#446 = ORIENTED_EDGE ( 'NONE', *, *, #457, .F. ) ;
#447 = ORIENTED_EDGE ( 'NONE', *, *, #443, .T. ) ;
#448 = CARTESIAN_POINT ( 'NONE',  ( 2.487468592766549413, 9.000000000000000000, -0.2500000000000000000 ) ) ;
#449 = DIRECTION ( 'NONE',  ( 0.000000000000000000, 0.000000000000000000, 1.000000000000000000 ) ) ;
#450 = CIRCLE ( 'NONE', #43, 0.2999999999999999334 ) ;
#451 = VERTEX_POINT ( 'NONE', #17 ) ;
#452 = CARTESIAN_POINT ( 'NONE',  ( -1.350000000000000089, 7.000000000000000000, 1.350000000000000089 ) ) ;
#453 = EDGE_CURVE ( 'NONE', #339, #362, #596, .T. ) ;
#454 =( NAMED_UNIT ( * ) SI_UNIT ( $, .STERADIAN. ) SOLID_ANGLE_UNIT ( ) );
#455 = ORIENTED_EDGE ( 'NONE', *, *, #547, .F. ) ;
#456 = DIRECTION ( 'NONE',  ( 0.000000000000000000, 0.000000000000000000, 1.000000000000000000 ) ) ;
#457 = EDGE_CURVE ( 'NONE', #401, #488, #207, .T. ) ;
#458 = MECHANICAL_CONTEXT ( 'NONE', #249, 'mechanical' ) ;
#459 = ORIENTED_EDGE ( 'NONE', *, *, #479, .F. ) ;
#460 = PLANE ( 'NONE',  #347 ) ;
#461 = APPLICATION_PROTOCOL_DEFINITION ( 'international standard', 'config_control_design', 1994, #374 ) ;
#462 = VECTOR ( 'NONE', #20, 1000.000000000000000 ) ;
#463 = PLANE ( 'NONE',  #179 ) ;
#464 = APPROVAL_PERSON_ORGANIZATION ( #406, #226, #117 ) ;
#465 = ORIENTED_EDGE ( 'NONE', *, *, #388, .T. ) ;
#466 = EDGE_CURVE ( 'NONE', #268, #482, #590, .T. ) ;
#467 = DIRECTION ( 'NONE',  ( 0.000000000000000000, 0.000000000000000000, 1.000000000000000000 ) ) ;
#468 = CARTESIAN_POINT ( 'NONE',  ( -1.350000000000000089, 7.000000000000000000, 1.350000000000000089 ) ) ;
#469 = DIRECTION ( 'NONE',  ( 0.000000000000000000, -0.000000000000000000, 1.000000000000000000 ) ) ;
#470 = CARTESIAN_POINT ( 'NONE',  ( 1.350000000000000533, 7.000000000000000000, -0.2500000000000000000 ) ) ;
#471 = PERSON_AND_ORGANIZATION ( #395, #28 ) ;
#472 = EDGE_CURVE ( 'NONE', #53, #146, #74, .T. ) ;
#473 = CARTESIAN_POINT ( 'NONE',  ( 1.350000000000000311, 3.000000000000000000, 0.2500000000000000000 ) ) ;
#474 = DATE_TIME_ROLE ( 'classification_date' ) ;
#475 = CIRCLE ( 'NONE', #341, 2.499999999999999556 ) ;
#476 = CARTESIAN_POINT ( 'NONE',  ( -2.487468592766549413, 3.000000000000000000, -0.2500000000000000000 ) ) ;
#477 = CARTESIAN_POINT ( 'NONE',  ( 0.000000000000000000, 8.699999999999999289, 2.199999999999999734 ) ) ;
#478 = LINE ( 'NONE', #230, #200 ) ;
#479 = EDGE_CURVE ( 'NONE', #105, #94, #70, .T. ) ;
#480 = VECTOR ( 'NONE', #438, 1000.000000000000000 ) ;
#481 = CARTESIAN_POINT ( 'NONE',  ( 0.000000000000000000, 3.000000000000000000, 0.000000000000000000 ) ) ;
#482 = VERTEX_POINT ( 'NONE', #345 ) ;
#483 = DIRECTION ( 'NONE',  ( 1.000000000000000000, 0.000000000000000000, 0.000000000000000000 ) ) ;
#484 = ORIENTED_EDGE ( 'NONE', *, *, #466, .T. ) ;
#485 = ORIENTED_EDGE ( 'NONE', *, *, #115, .F. ) ;
#486 = CARTESIAN_POINT ( 'NONE',  ( 1.350000000000000533, 0.000000000000000000, -0.2500000000000000000 ) ) ;
#487 = ADVANCED_BREP_SHAPE_REPRESENTATION ( 'knob push button header', ( #543, #333 ), #80 ) ;
#488 = VERTEX_POINT ( 'NONE', #545 ) ;
#489 = DIRECTION ( 'NONE',  ( 0.000000000000000000, 0.000000000000000000, -1.000000000000000000 ) ) ;
#490 = EDGE_CURVE ( 'NONE', #504, #533, #65, .T. ) ;
#491 = AXIS2_PLACEMENT_3D ( 'NONE', #140, #294, #431 ) ;
#492 = ORIENTED_EDGE ( 'NONE', *, *, #58, .F. ) ;
#493 = EDGE_LOOP ( 'NONE', ( #122, #386, #314, #446 ) ) ;
#494 = PLANE ( 'NONE',  #415 ) ;
#495 = CC_DESIGN_APPROVAL ( #363, ( #277 ) ) ;
#496 = VERTEX_POINT ( 'NONE', #154 ) ;
#497 = DIRECTION ( 'NONE',  ( -2.409338161078898687E-16, -0.000000000000000000, 1.000000000000000000 ) ) ;
#498 = CIRCLE ( 'NONE', #112, 2.499999999999999556 ) ;
#499 = ORIENTED_EDGE ( 'NONE', *, *, #325, .T. ) ;
#500 = DIRECTION ( 'NONE',  ( -1.000000000000000000, -0.000000000000000000, -0.000000000000000000 ) ) ;
#501 = ORIENTED_EDGE ( 'NONE', *, *, #89, .T. ) ;
#502 = CARTESIAN_POINT ( 'NONE',  ( -1.350000000000000089, 7.000000000000000000, 1.350000000000000089 ) ) ;
#503 = PERSON_AND_ORGANIZATION_ROLE ( 'creator' ) ;
#504 = VERTEX_POINT ( 'NONE', #119 ) ;
#505 = DIRECTION ( 'NONE',  ( 1.224646799147353207E-16, 0.000000000000000000, -1.000000000000000000 ) ) ;
#506 = VECTOR ( 'NONE', #176, 1000.000000000000000 ) ;
#507 = CC_DESIGN_SECURITY_CLASSIFICATION ( #222, ( #277 ) ) ;
#508 = ORIENTED_EDGE ( 'NONE', *, *, #429, .F. ) ;
#509 = LINE ( 'NONE', #361, #597 ) ;
#510 = ADVANCED_FACE ( 'NONE', ( #357 ), #203, .F. ) ;
#511 = VECTOR ( 'NONE', #445, 1000.000000000000000 ) ;
#512 = ORIENTED_EDGE ( 'NONE', *, *, #289, .T. ) ;
#513 = VECTOR ( 'NONE', #332, 1000.000000000000000 ) ;
#514 = DIRECTION ( 'NONE',  ( 0.000000000000000000, -0.000000000000000000, -1.000000000000000000 ) ) ;
#515 = CARTESIAN_POINT ( 'NONE',  ( 0.000000000000000000, 0.000000000000000000, 0.000000000000000000 ) ) ;
#516 = AXIS2_PLACEMENT_3D ( 'NONE', #335, #428, #377 ) ;
#517 = CC_DESIGN_APPROVAL ( #226, ( #411 ) ) ;
#518 = FACE_OUTER_BOUND ( 'NONE', #16, .T. ) ;
#519 = CARTESIAN_POINT ( 'NONE',  ( 0.000000000000000000, 9.000000000000000000, 0.000000000000000000 ) ) ;
#520 = SECURITY_CLASSIFICATION_LEVEL ( 'unclassified' ) ;
#521 = FACE_OUTER_BOUND ( 'NONE', #22, .T. ) ;
#522 = FACE_OUTER_BOUND ( 'NONE', #593, .T. ) ;
#523 = DIRECTION ( 'NONE',  ( 0.000000000000000000, 1.000000000000000000, 0.000000000000000000 ) ) ;
#524 = CC_DESIGN_DATE_AND_TIME_ASSIGNMENT ( #613, #474, ( #222 ) ) ;
#525 = LINE ( 'NONE', #369, #425 ) ;
#526 = ORIENTED_EDGE ( 'NONE', *, *, #426, .F. ) ;
#527 = DIRECTION ( 'NONE',  ( 0.000000000000000000, 0.000000000000000000, -1.000000000000000000 ) ) ;
#528 = CARTESIAN_POINT ( 'NONE',  ( -2.499999999999999112, 3.000000000000000000, -0.2500000000000000000 ) ) ;
#529 = LINE ( 'NONE', #145, #513 ) ;
#530 = EDGE_CURVE ( 'NONE', #482, #210, #257, .T. ) ;
#531 = LINE ( 'NONE', #248, #480 ) ;
#532 = PRODUCT_DEFINITION_SHAPE ( 'NONE', 'NONE',  #411 ) ;
#533 = VERTEX_POINT ( 'NONE', #394 ) ;
#534 = LINE ( 'NONE', #573, #380 ) ;
#535 = AXIS2_PLACEMENT_3D ( 'NONE', #41, #614, #130 ) ;
#536 = EDGE_LOOP ( 'NONE', ( #246, #256, #169, #295 ) ) ;
#537 = LINE ( 'NONE', #288, #136 ) ;
#538 = EDGE_CURVE ( 'NONE', #102, #105, #62, .T. ) ;
#539 = ORIENTED_EDGE ( 'NONE', *, *, #359, .T. ) ;
#540 = CARTESIAN_POINT ( 'NONE',  ( 0.000000000000000000, 8.699999999999999289, 0.000000000000000000 ) ) ;
#541 = AXIS2_PLACEMENT_3D ( 'NONE', #10, #303, #211 ) ;
#542 = AXIS2_PLACEMENT_3D ( 'NONE', #216, #327, #514 ) ;
#543 = MANIFOLD_SOLID_BREP ( 'Cut-Extrude2', #382 ) ;
#544 = ORIENTED_EDGE ( 'NONE', *, *, #3, .F. ) ;
#545 = CARTESIAN_POINT ( 'NONE',  ( 2.487468592766549413, 3.000000000000000000, 0.2500000000000000000 ) ) ;
#546 = LOCAL_TIME ( 11, 41, 28.00000000000000000, #550 ) ;
#547 = EDGE_CURVE ( 'NONE', #344, #311, #109, .T. ) ;
#548 = EDGE_LOOP ( 'NONE', ( #305, #202, #258, #173 ) ) ;
#549 = DIRECTION ( 'NONE',  ( -1.606225440719265874E-16, 0.000000000000000000, 1.000000000000000000 ) ) ;
#550 = COORDINATED_UNIVERSAL_TIME_OFFSET ( 3, 30, .AHEAD. ) ;
#551 = VERTEX_POINT ( 'NONE', #116 ) ;
#552 = CARTESIAN_POINT ( 'NONE',  ( 1.350000000000000089, 0.000000000000000000, 1.350000000000000089 ) ) ;
#553 = FACE_OUTER_BOUND ( 'NONE', #601, .T. ) ;
#554 = ORIENTED_EDGE ( 'NONE', *, *, #289, .F. ) ;
#555 = DIRECTION ( 'NONE',  ( 1.000000000000000000, -0.000000000000000000, 1.224646799147353207E-16 ) ) ;
#556 = CARTESIAN_POINT ( 'NONE',  ( 0.000000000000000000, 0.000000000000000000, 0.000000000000000000 ) ) ;
#557 = ORIENTED_EDGE ( 'NONE', *, *, #577, .F. ) ;
#558 = VECTOR ( 'NONE', #286, 1000.000000000000000 ) ;
#559 = ADVANCED_FACE ( 'NONE', ( #13 ), #312, .F. ) ;
#560 = CARTESIAN_POINT ( 'NONE',  ( 1.350000000000000755, 7.000000000000000000, -1.350000000000000089 ) ) ;
#561 = DIRECTION ( 'NONE',  ( 0.000000000000000000, 0.000000000000000000, 1.000000000000000000 ) ) ;
#562 = VECTOR ( 'NONE', #497, 1000.000000000000000 ) ;
#563 = LINE ( 'NONE', #133, #585 ) ;
#564 = DIRECTION ( 'NONE',  ( 0.000000000000000000, 1.000000000000000000, 0.000000000000000000 ) ) ;
#565 = APPROVAL_DATE_TIME ( #576, #363 ) ;
#566 = EDGE_CURVE ( 'NONE', #53, #441, #591, .T. ) ;
#567 = LINE ( 'NONE', #93, #148 ) ;
#568 = VECTOR ( 'NONE', #139, 1000.000000000000000 ) ;
#569 = CARTESIAN_POINT ( 'NONE',  ( -2.499999999999999112, 0.000000000000000000, 0.2500000000000000000 ) ) ;
#570 = DATE_AND_TIME ( #617, #235 ) ;
#571 = CARTESIAN_POINT ( 'NONE',  ( -1.349999999999999645, 7.000000000000000000, -1.350000000000000089 ) ) ;
#572 = AXIS2_PLACEMENT_3D ( 'NONE', #387, #92, #195 ) ;
#573 = CARTESIAN_POINT ( 'NONE',  ( 1.350000000000000089, 7.000000000000000000, 1.350000000000000089 ) ) ;
#574 = CARTESIAN_POINT ( 'NONE',  ( -1.349999999999999645, 7.000000000000000000, -1.350000000000000089 ) ) ;
#575 = CARTESIAN_POINT ( 'NONE',  ( -2.487468592766549413, 0.000000000000000000, 0.2500000000000000000 ) ) ;
#576 = DATE_AND_TIME ( #385, #625 ) ;
#577 = EDGE_CURVE ( 'NONE', #441, #53, #205, .T. ) ;
#578 = ORIENTED_EDGE ( 'NONE', *, *, #40, .F. ) ;
#579 = LINE ( 'NONE', #440, #155 ) ;
#580 = ORIENTED_EDGE ( 'NONE', *, *, #435, .T. ) ;
#581 = CARTESIAN_POINT ( 'NONE',  ( 1.350000000000000755, 0.000000000000000000, -1.350000000000000089 ) ) ;
#582 = ADVANCED_FACE ( 'NONE', ( #106 ), #494, .T. ) ;
#583 = ORIENTED_EDGE ( 'NONE', *, *, #368, .F. ) ;
#584 = DIRECTION ( 'NONE',  ( 0.000000000000000000, -1.000000000000000000, 0.000000000000000000 ) ) ;
#585 = VECTOR ( 'NONE', #83, 1000.000000000000000 ) ;
#586 = APPROVAL ( #337, 'UNSPECIFIED' ) ;
#587 = EDGE_LOOP ( 'NONE', ( #599, #7, #69, #393 ) ) ;
#588 = DIRECTION ( 'NONE',  ( -0.000000000000000000, -1.000000000000000000, -0.000000000000000000 ) ) ;
#589 = ORIENTED_EDGE ( 'NONE', *, *, #3, .T. ) ;
#590 = LINE ( 'NONE', #8, #346 ) ;
#591 = CIRCLE ( 'NONE', #400, 2.499999999999999556 ) ;
#592 = EDGE_CURVE ( 'NONE', #94, #275, #509, .T. ) ;
#593 = EDGE_LOOP ( 'NONE', ( #352, #261, #108, #264 ) ) ;
#594 = ORIENTED_EDGE ( 'NONE', *, *, #610, .F. ) ;
#595 = CIRCLE ( 'NONE', #101, 2.499999999999999556 ) ;
#596 = LINE ( 'NONE', #309, #619 ) ;
#597 = VECTOR ( 'NONE', #161, 1000.000000000000000 ) ;
#598 = DIRECTION ( 'NONE',  ( 0.000000000000000000, -0.000000000000000000, 1.000000000000000000 ) ) ;
#599 = ORIENTED_EDGE ( 'NONE', *, *, #368, .T. ) ;
#600 = CARTESIAN_POINT ( 'NONE',  ( -1.350000000000000089, 7.000000000000000000, 1.350000000000000089 ) ) ;
#601 = EDGE_LOOP ( 'NONE', ( #165, #196, #407, #64, #484, #158, #437, #589 ) ) ;
#602 = CARTESIAN_POINT ( 'NONE',  ( 3.061616997868382648E-16, 8.699999999999999289, 2.499999999999999556 ) ) ;
#603 = DIRECTION ( 'NONE',  ( -0.000000000000000000, -1.000000000000000000, -0.000000000000000000 ) ) ;
#604 = EDGE_CURVE ( 'NONE', #318, #12, #384, .T. ) ;
#605 = AXIS2_PLACEMENT_3D ( 'NONE', #556, #417, #607 ) ;
#606 = ORIENTED_EDGE ( 'NONE', *, *, #14, .F. ) ;
#607 = DIRECTION ( 'NONE',  ( 0.000000000000000000, 0.000000000000000000, 1.000000000000000000 ) ) ;
#608 = ORIENTED_EDGE ( 'NONE', *, *, #420, .F. ) ;
#609 = DIRECTION ( 'NONE',  ( 1.000000000000000000, 0.000000000000000000, -0.000000000000000000 ) ) ;
#610 = EDGE_CURVE ( 'NONE', #403, #504, #267, .T. ) ;
#611 = PLANE ( 'NONE',  #266 ) ;
#612 = CARTESIAN_POINT ( 'NONE',  ( -2.499999999999999112, 3.000000000000000000, 0.2500000000000000000 ) ) ;
#613 = DATE_AND_TIME ( #282, #436 ) ;
#614 = DIRECTION ( 'NONE',  ( -0.000000000000000000, -1.000000000000000000, -0.000000000000000000 ) ) ;
#615 = DIRECTION ( 'NONE',  ( -1.000000000000000000, 0.000000000000000000, -0.000000000000000000 ) ) ;
#616 = CIRCLE ( 'NONE', #68, 2.199999999999999734 ) ;
#617 = CALENDAR_DATE ( 2023, 17, 4 ) ;
#618 = CARTESIAN_POINT ( 'NONE',  ( -2.487468592766549413, 0.000000000000000000, -0.2500000000000000000 ) ) ;
#619 = VECTOR ( 'NONE', #500, 1000.000000000000000 ) ;
#620 = DIRECTION ( 'NONE',  ( 0.000000000000000000, -0.000000000000000000, -1.000000000000000000 ) ) ;
#621 = ADVANCED_FACE ( 'NONE', ( #553 ), #172, .F. ) ;
#622 = DIRECTION ( 'NONE',  ( -0.000000000000000000, -1.000000000000000000, -0.000000000000000000 ) ) ;
#623 = APPROVAL_ROLE ( '' ) ;
#624 = DIRECTION ( 'NONE',  ( 1.000000000000000000, 0.000000000000000000, 0.000000000000000000 ) ) ;
#625 = LOCAL_TIME ( 11, 41, 28.00000000000000000, #189 ) ;
#626 = CARTESIAN_POINT ( 'NONE',  ( 2.487468592766549413, 0.000000000000000000, 0.2500000000000000000 ) ) ;
#627 = PRODUCT ( 'knob push button header', 'knob push button header', '', ( #458 ) ) ;
ENDSEC;
END-ISO-10303-21;
