G04*
G04 #@! TF.GenerationSoftware,Altium Limited,Altium Designer,24.2.2 (26)*
G04*
G04 Layer_Color=8388736*
%FSLAX44Y44*%
%MOMM*%
G71*
G04*
G04 #@! TF.SameCoordinates,B70AB8C3-08FB-47E2-BB7E-A56AE36AF668*
G04*
G04*
G04 #@! TF.FilePolarity,Negative*
G04*
G01*
G75*
%ADD44R,1.1532X1.0532*%
%ADD45R,0.7032X1.2032*%
%ADD46R,0.9032X1.1032*%
%ADD47R,1.2032X0.7032*%
%ADD48R,2.4892X0.7112*%
%ADD49R,0.8032X0.8432*%
%ADD50R,1.1032X0.9032*%
%ADD51R,0.8032X0.9532*%
%ADD52R,2.8532X3.7032*%
%ADD53R,0.5032X2.8032*%
%ADD54R,1.8532X0.8532*%
%ADD55R,0.9532X0.9032*%
%ADD56R,0.8532X0.9032*%
%ADD57R,1.0532X0.8532*%
%ADD58R,0.9532X0.8532*%
%ADD59R,1.0532X1.5032*%
%ADD60R,1.1032X1.1532*%
%ADD61R,1.3532X0.9482*%
%ADD62R,1.0532X1.4032*%
%ADD63R,1.2032X2.3032*%
%ADD64R,5.1032X6.0532*%
%ADD65R,1.0532X1.1532*%
%ADD66R,1.1032X1.2032*%
%ADD67R,1.6032X1.5032*%
%ADD68O,2.2032X2.0032*%
%ADD69O,4.0032X2.6032*%
%ADD70C,2.0032*%
%ADD71C,2.2032*%
%ADD72R,2.2032X2.2032*%
%ADD73R,2.2032X2.2032*%
%ADD74C,1.8032*%
%ADD75C,2.0032*%
%ADD76O,2.6032X4.0032*%
%ADD77C,4.1834*%
%ADD78O,1.9032X2.4032*%
%ADD79O,2.0032X2.3032*%
%ADD80C,2.3032*%
%ADD81O,2.4032X1.9032*%
%ADD82O,2.3032X2.0032*%
%ADD83C,3.4032*%
D44*
X820420Y1231600D02*
D03*
X820420Y1244600D02*
D03*
X759460Y1231600D02*
D03*
X759460Y1244600D02*
D03*
X774700Y1231600D02*
D03*
X774700Y1244600D02*
D03*
X789940Y1231600D02*
D03*
Y1244600D02*
D03*
X878840Y1379520D02*
D03*
Y1392520D02*
D03*
X863600Y1379520D02*
D03*
Y1392520D02*
D03*
X848360Y1392220D02*
D03*
Y1379220D02*
D03*
X1181100Y513380D02*
D03*
Y500380D02*
D03*
X835660Y1244600D02*
D03*
X835660Y1231600D02*
D03*
X805180Y1244600D02*
D03*
X805180Y1231600D02*
D03*
X1135380Y500380D02*
D03*
X1135380Y513380D02*
D03*
X1150620Y500380D02*
D03*
Y513380D02*
D03*
X1165860Y500380D02*
D03*
X1165860Y513380D02*
D03*
X1196340Y500380D02*
D03*
X1196340Y513380D02*
D03*
D45*
X1157620Y533400D02*
D03*
X1150620D02*
D03*
X1501140Y1374140D02*
D03*
X1508140D02*
D03*
D46*
X1398263Y361850D02*
D03*
X1409264Y361850D02*
D03*
X1409264Y380150D02*
D03*
X1398264D02*
D03*
X1398263Y1041850D02*
D03*
X1409264Y1041850D02*
D03*
X1409264Y1060150D02*
D03*
X1398263D02*
D03*
X1398603Y1241530D02*
D03*
X1409604Y1241530D02*
D03*
X1409604Y1259830D02*
D03*
X1398603D02*
D03*
D47*
X1122370Y370530D02*
D03*
X1122370Y363530D02*
D03*
X1102360Y370840D02*
D03*
Y363840D02*
D03*
X810260Y1066180D02*
D03*
X810260Y1059180D02*
D03*
D48*
X1031240Y1090420D02*
D03*
X914240Y1106420D02*
D03*
Y1162420D02*
D03*
X1031240Y1114420D02*
D03*
X914240D02*
D03*
Y1210420D02*
D03*
X1031240Y1202420D02*
D03*
X914240Y1154420D02*
D03*
Y1082420D02*
D03*
X1031240Y1274420D02*
D03*
X914240Y1170420D02*
D03*
Y1098420D02*
D03*
Y1146420D02*
D03*
X1031240Y1098420D02*
D03*
X914240Y1202420D02*
D03*
X1031240Y1210420D02*
D03*
Y1282420D02*
D03*
X914240Y1242420D02*
D03*
X1031240Y1266420D02*
D03*
X914240Y1194420D02*
D03*
X1031240Y1218420D02*
D03*
Y1178420D02*
D03*
Y1074420D02*
D03*
Y1146420D02*
D03*
Y1082420D02*
D03*
Y1122420D02*
D03*
X914240Y1186420D02*
D03*
X1031240Y1226420D02*
D03*
X914240Y1274420D02*
D03*
Y1258420D02*
D03*
Y1234420D02*
D03*
Y1130420D02*
D03*
Y1138420D02*
D03*
X1031240Y1106420D02*
D03*
Y1130420D02*
D03*
X914240Y1226420D02*
D03*
X1031240Y1186420D02*
D03*
Y1234420D02*
D03*
X914240Y1250420D02*
D03*
X1031240Y1162420D02*
D03*
X914240Y1090420D02*
D03*
X1031240Y1258420D02*
D03*
X914240Y1122420D02*
D03*
X1031240Y1154420D02*
D03*
X914240Y1266420D02*
D03*
Y1282420D02*
D03*
Y1218420D02*
D03*
Y1178420D02*
D03*
Y1074420D02*
D03*
X1031240Y1242420D02*
D03*
Y1194420D02*
D03*
Y1250420D02*
D03*
Y1170420D02*
D03*
Y1138420D02*
D03*
X1030050Y899800D02*
D03*
Y931800D02*
D03*
Y1011800D02*
D03*
Y955800D02*
D03*
Y1003800D02*
D03*
X913050Y835800D02*
D03*
Y939800D02*
D03*
Y979800D02*
D03*
Y1043800D02*
D03*
Y1027800D02*
D03*
X1030050Y915800D02*
D03*
X913050Y883800D02*
D03*
X1030050Y1019800D02*
D03*
X913050Y851800D02*
D03*
X1030050Y923800D02*
D03*
X913050Y1011800D02*
D03*
X1030050Y995800D02*
D03*
Y947800D02*
D03*
X913050Y987800D02*
D03*
X1030050Y891800D02*
D03*
Y867800D02*
D03*
X913050Y899800D02*
D03*
Y891800D02*
D03*
Y995800D02*
D03*
Y1019800D02*
D03*
Y1035800D02*
D03*
X1030050Y987800D02*
D03*
X913050Y947800D02*
D03*
X1030050Y883800D02*
D03*
Y843800D02*
D03*
Y907800D02*
D03*
Y835800D02*
D03*
Y939800D02*
D03*
Y979800D02*
D03*
X913050Y955800D02*
D03*
X1030050Y1027800D02*
D03*
X913050Y1003800D02*
D03*
X1030050Y1043800D02*
D03*
Y971800D02*
D03*
X913050Y963800D02*
D03*
X1030050Y859800D02*
D03*
X913050Y907800D02*
D03*
Y859800D02*
D03*
Y931800D02*
D03*
X1030050Y1035800D02*
D03*
X913050Y843800D02*
D03*
Y915800D02*
D03*
X1030050Y963800D02*
D03*
X913050Y971800D02*
D03*
Y875800D02*
D03*
X1030050D02*
D03*
X913050Y923800D02*
D03*
Y867800D02*
D03*
X1030050Y851800D02*
D03*
D49*
X880200Y1074420D02*
D03*
X889000D02*
D03*
X880200Y1181100D02*
D03*
X889000D02*
D03*
X880200Y1219200D02*
D03*
X889000D02*
D03*
X880200Y1267460D02*
D03*
X889000D02*
D03*
X880200Y1282700D02*
D03*
X889000D02*
D03*
X1067980Y1242060D02*
D03*
X1059180D02*
D03*
X1067980Y1193800D02*
D03*
X1059180D02*
D03*
X880200Y835660D02*
D03*
X889000D02*
D03*
X875120Y939800D02*
D03*
X883920D02*
D03*
X875120Y980440D02*
D03*
X883920Y980440D02*
D03*
X875120Y1028700D02*
D03*
X883920Y1028700D02*
D03*
X875120Y1043940D02*
D03*
X883920D02*
D03*
X1065440Y1003300D02*
D03*
X1056640D02*
D03*
X1066120Y955040D02*
D03*
X1057320Y955040D02*
D03*
D50*
X1331850Y1531737D02*
D03*
Y1520736D02*
D03*
X1350150D02*
D03*
Y1531737D02*
D03*
X1141850D02*
D03*
Y1520736D02*
D03*
X1160150D02*
D03*
Y1531737D02*
D03*
D51*
X972820Y534740D02*
D03*
Y523240D02*
D03*
X960755Y534740D02*
D03*
Y523240D02*
D03*
X948690Y534740D02*
D03*
Y523240D02*
D03*
X936625Y534740D02*
D03*
Y523240D02*
D03*
X924560Y534740D02*
D03*
Y523240D02*
D03*
X1107440Y777910D02*
D03*
X1107440Y766410D02*
D03*
X947420Y766410D02*
D03*
X947420Y777910D02*
D03*
X958088Y766410D02*
D03*
X958088Y777910D02*
D03*
X968756Y766410D02*
D03*
X968756Y777910D02*
D03*
X979424Y766410D02*
D03*
X979424Y777910D02*
D03*
X990092Y766410D02*
D03*
X990092Y777910D02*
D03*
X1000760Y766410D02*
D03*
X1000760Y777910D02*
D03*
X1011428Y766410D02*
D03*
X1011428Y777910D02*
D03*
X1022096Y766410D02*
D03*
X1022096Y777910D02*
D03*
X1032764Y766410D02*
D03*
X1032764Y777910D02*
D03*
X1043432Y766410D02*
D03*
X1043432Y777910D02*
D03*
X1054100Y766410D02*
D03*
X1054100Y777910D02*
D03*
X1064768Y766410D02*
D03*
X1064768Y777910D02*
D03*
X1075436Y766410D02*
D03*
X1075436Y777910D02*
D03*
X1086104Y766410D02*
D03*
X1086104Y777910D02*
D03*
X1096772Y766410D02*
D03*
Y777910D02*
D03*
D52*
X896916Y445876D02*
D03*
X1178164Y445876D02*
D03*
D53*
X1085040Y464820D02*
D03*
X1080040Y464820D02*
D03*
X1075040Y464820D02*
D03*
X1070040D02*
D03*
X1065040Y464820D02*
D03*
X1060040Y464820D02*
D03*
X1055040Y464820D02*
D03*
X1050040Y464820D02*
D03*
X1045040Y464820D02*
D03*
X1040040Y464820D02*
D03*
X1035040Y464820D02*
D03*
X1030040Y464820D02*
D03*
X1025040Y464820D02*
D03*
X1020040Y464820D02*
D03*
X1015040Y464820D02*
D03*
X1010040Y464820D02*
D03*
X1005040Y464820D02*
D03*
X1000040Y464820D02*
D03*
X995040Y464820D02*
D03*
X990040D02*
D03*
X985040Y464820D02*
D03*
X980040Y464820D02*
D03*
X975040Y464820D02*
D03*
X970040Y464820D02*
D03*
X965040Y464820D02*
D03*
X960040Y464820D02*
D03*
X955040Y464820D02*
D03*
X950040Y464820D02*
D03*
X945040Y464820D02*
D03*
X940040Y464820D02*
D03*
X935040Y464820D02*
D03*
X930040Y464820D02*
D03*
X925040Y464820D02*
D03*
X920040Y464820D02*
D03*
X915040Y464820D02*
D03*
X1160040D02*
D03*
X1155040Y464820D02*
D03*
X1150040Y464820D02*
D03*
X1145040Y464820D02*
D03*
X1140040D02*
D03*
X1135040D02*
D03*
X1130040Y464820D02*
D03*
X1125040Y464820D02*
D03*
X1120040Y464820D02*
D03*
X1115040D02*
D03*
X1110040Y464820D02*
D03*
X1105040Y464820D02*
D03*
X1100040Y464820D02*
D03*
X1095040Y464820D02*
D03*
X1090040Y464820D02*
D03*
D54*
X935160Y694690D02*
D03*
Y707390D02*
D03*
Y720090D02*
D03*
Y732790D02*
D03*
X863160D02*
D03*
Y720090D02*
D03*
Y707390D02*
D03*
Y694690D02*
D03*
D55*
X723900Y1493840D02*
D03*
X723900Y1503840D02*
D03*
X723900Y1513840D02*
D03*
X723900Y1523840D02*
D03*
X723900Y1533840D02*
D03*
X723900Y1543840D02*
D03*
X723900Y1553840D02*
D03*
Y1563840D02*
D03*
D56*
X711900Y1548840D02*
D03*
X711900Y1508840D02*
D03*
D57*
X842900Y1550840D02*
D03*
D58*
X843400Y1487340D02*
D03*
D59*
X842900Y1455960D02*
D03*
D60*
X696150Y1450340D02*
D03*
D61*
X696900Y1580690D02*
D03*
D62*
X842900Y1563220D02*
D03*
D63*
X830460Y1049020D02*
D03*
X784860D02*
D03*
D64*
X807660Y981020D02*
D03*
D65*
X853140Y1170940D02*
D03*
X866140Y1170940D02*
D03*
X1156000Y1148080D02*
D03*
X1143000Y1148080D02*
D03*
D66*
X1190390Y533400D02*
D03*
X1176890D02*
D03*
D67*
X853440Y976120D02*
D03*
Y960120D02*
D03*
X762000Y1022860D02*
D03*
X762000Y1038860D02*
D03*
D68*
X816500Y1344060D02*
D03*
Y1369060D02*
D03*
Y1394060D02*
D03*
D69*
X741680Y1320800D02*
D03*
Y1417320D02*
D03*
D70*
X736040Y1052599D02*
D03*
X710640D02*
D03*
X736040Y1077999D02*
D03*
X710640D02*
D03*
X736040Y1103399D02*
D03*
X710640D02*
D03*
X736040Y1128799D02*
D03*
X710640D02*
D03*
X736040Y1154199D02*
D03*
X710640D02*
D03*
X736040Y1179599D02*
D03*
X710640D02*
D03*
X736040Y1204999D02*
D03*
X710640D02*
D03*
X736040Y1230399D02*
D03*
X710640D02*
D03*
X736040Y1255799D02*
D03*
X710640D02*
D03*
X736040Y1281199D02*
D03*
X710640D02*
D03*
X1345640Y1026949D02*
D03*
X710640Y849399D02*
D03*
X1345640Y823749D02*
D03*
X710640Y823999D02*
D03*
Y798599D02*
D03*
X736040Y823999D02*
D03*
X1320240Y874549D02*
D03*
X1345640Y290349D02*
D03*
X1320240D02*
D03*
X1345640Y315749D02*
D03*
X1320240D02*
D03*
X1345640Y341149D02*
D03*
X1320240D02*
D03*
X1345640Y366549D02*
D03*
X1320240D02*
D03*
X1345640Y391949D02*
D03*
X1320240D02*
D03*
X1345640Y417349D02*
D03*
X1320240D02*
D03*
X1345640Y442749D02*
D03*
X1320240D02*
D03*
X1345640Y468149D02*
D03*
X1320240D02*
D03*
X1345640Y493549D02*
D03*
X1320240D02*
D03*
X1345640Y518949D02*
D03*
X1320240D02*
D03*
X736040Y290599D02*
D03*
X710640D02*
D03*
X736040Y315999D02*
D03*
X710640D02*
D03*
X736040Y341399D02*
D03*
X710640D02*
D03*
X736040Y366799D02*
D03*
X710640D02*
D03*
X736040Y392199D02*
D03*
X710640D02*
D03*
X736040Y417599D02*
D03*
X710640D02*
D03*
X736040Y442999D02*
D03*
X710640D02*
D03*
X736040Y468399D02*
D03*
X710640D02*
D03*
X736040Y493799D02*
D03*
X710640D02*
D03*
X736040Y519199D02*
D03*
X710640D02*
D03*
X1345640Y544349D02*
D03*
X1320240D02*
D03*
X1345640Y569749D02*
D03*
X1320240D02*
D03*
X1345640Y595149D02*
D03*
X1320240D02*
D03*
X1345640Y620549D02*
D03*
X1320240D02*
D03*
X1345640Y645949D02*
D03*
X1320240D02*
D03*
X1345640Y671349D02*
D03*
X1320240D02*
D03*
X1345640Y696749D02*
D03*
X1320240D02*
D03*
X1345640Y722149D02*
D03*
X1320240D02*
D03*
X1345640Y747549D02*
D03*
X1320240D02*
D03*
X1345640Y772949D02*
D03*
X1320240D02*
D03*
X736040Y544599D02*
D03*
X710640D02*
D03*
X736040Y569999D02*
D03*
X710640D02*
D03*
X736040Y595399D02*
D03*
X710640D02*
D03*
X736040Y620799D02*
D03*
X710640D02*
D03*
X736040Y646199D02*
D03*
X710640D02*
D03*
X736040Y671599D02*
D03*
X710640D02*
D03*
X736040Y696999D02*
D03*
X710640D02*
D03*
X736040Y722399D02*
D03*
X710640D02*
D03*
X736040Y747799D02*
D03*
X710640D02*
D03*
X736040Y773199D02*
D03*
X710640D02*
D03*
X736040Y798599D02*
D03*
Y849399D02*
D03*
Y874799D02*
D03*
X710640D02*
D03*
X736040Y900199D02*
D03*
X710640D02*
D03*
X736040Y925599D02*
D03*
X710640D02*
D03*
X736040Y950999D02*
D03*
X710640D02*
D03*
X736040Y976399D02*
D03*
X710640D02*
D03*
X736040Y1001799D02*
D03*
X710640D02*
D03*
X736040Y1027199D02*
D03*
X710640D02*
D03*
X1345640Y798349D02*
D03*
X1320240D02*
D03*
Y823749D02*
D03*
X1345640Y849149D02*
D03*
X1320240D02*
D03*
X1345640Y874549D02*
D03*
Y899949D02*
D03*
X1320240D02*
D03*
X1345640Y925349D02*
D03*
X1320240D02*
D03*
X1345640Y950749D02*
D03*
X1320240D02*
D03*
X1345640Y976149D02*
D03*
X1320240D02*
D03*
X1345640Y1001549D02*
D03*
X1320240D02*
D03*
Y1026949D02*
D03*
X1345640Y1052349D02*
D03*
X1320240D02*
D03*
X1345640Y1077749D02*
D03*
X1320240D02*
D03*
X1345640Y1103149D02*
D03*
X1320240D02*
D03*
X1345640Y1128549D02*
D03*
X1320240D02*
D03*
X1345640Y1153949D02*
D03*
X1320240D02*
D03*
X1345640Y1179349D02*
D03*
X1320240D02*
D03*
X1345640Y1204749D02*
D03*
X1320240D02*
D03*
X1345640Y1230149D02*
D03*
X1320240D02*
D03*
X1345640Y1255549D02*
D03*
X1320240D02*
D03*
X1345640Y1280949D02*
D03*
X1320240D02*
D03*
D71*
X660000Y871220D02*
D03*
X634600Y394600D02*
D03*
Y420000D02*
D03*
X660000Y470800D02*
D03*
Y420000D02*
D03*
Y394600D02*
D03*
Y445400D02*
D03*
X634600D02*
D03*
X660000Y581660D02*
D03*
X660400Y342900D02*
D03*
X634600Y927100D02*
D03*
Y952500D02*
D03*
X660000Y1003300D02*
D03*
Y952500D02*
D03*
Y927100D02*
D03*
Y977900D02*
D03*
X634600D02*
D03*
Y632460D02*
D03*
Y657860D02*
D03*
X660000Y708660D02*
D03*
Y657860D02*
D03*
Y632460D02*
D03*
Y683260D02*
D03*
X634600D02*
D03*
D72*
Y871220D02*
D03*
Y581660D02*
D03*
X635000Y342900D02*
D03*
D73*
X634600Y470800D02*
D03*
Y1003300D02*
D03*
Y708660D02*
D03*
D74*
X1386840Y1358900D02*
D03*
D75*
X915001Y1550000D02*
D03*
X965001Y1550000D02*
D03*
X915001Y1405001D02*
D03*
X940000Y1405001D02*
D03*
X965001D02*
D03*
X1415001Y800000D02*
D03*
X1465001Y800000D02*
D03*
X1415001Y655001D02*
D03*
X1440000Y655001D02*
D03*
X1465001D02*
D03*
D76*
X883000Y1480000D02*
D03*
X997000D02*
D03*
X1383000Y730000D02*
D03*
X1497000D02*
D03*
D77*
X1450000Y370000D02*
D03*
Y1050000D02*
D03*
X1340000Y1480000D02*
D03*
X1150000D02*
D03*
X1450340Y1249680D02*
D03*
D78*
X1450000Y422901D02*
D03*
Y317099D02*
D03*
Y1102901D02*
D03*
Y997099D02*
D03*
X1450340Y1302581D02*
D03*
Y1196779D02*
D03*
D79*
X1488000Y320000D02*
D03*
X1509000Y370000D02*
D03*
X1488000Y370000D02*
D03*
X1509000Y320000D02*
D03*
X1488000Y1000000D02*
D03*
X1509000Y1050000D02*
D03*
X1488000Y1050000D02*
D03*
X1509000Y1000000D02*
D03*
X1488340Y1199680D02*
D03*
X1509340Y1249680D02*
D03*
X1488340Y1249680D02*
D03*
X1509340Y1199680D02*
D03*
D80*
X1475400Y408100D02*
D03*
X1500800Y344600D02*
D03*
X1475400Y1088100D02*
D03*
X1500800Y1024600D02*
D03*
X1378100Y1454600D02*
D03*
X1314600Y1429200D02*
D03*
X1188100Y1454600D02*
D03*
X1124600Y1429200D02*
D03*
X1475740Y1287780D02*
D03*
X1501140Y1224280D02*
D03*
D81*
X1392901Y1480000D02*
D03*
X1287099D02*
D03*
X1202901D02*
D03*
X1097099D02*
D03*
D82*
X1290000Y1442000D02*
D03*
X1340000Y1421000D02*
D03*
Y1442000D02*
D03*
X1290000Y1421000D02*
D03*
X1100000Y1442000D02*
D03*
X1150000Y1421000D02*
D03*
Y1442000D02*
D03*
X1100000Y1421000D02*
D03*
D83*
X1256740Y557299D02*
D03*
X799540D02*
D03*
M02*
