M48
;Layer_Color=9474304
;FILE_FORMAT=4:4
METRIC,LZ
;TYPE=PLATED
T01F00S00C0.3048
T02F00S00C1.0000
T03F00S00C1.1000
T04F00S00C1.2000
T05F00S00C1.3000
;TYPE=NON_PLATED
T08F00S00C3.2000
T09F00S00C3.9802
%
T01
X0092202Y0035814
X0122682Y00381
X0121666Y004191
Y0046736
X0119888Y005334
X011938Y005461
Y006223
X012319Y00635
X01230159Y00653002
X01240392Y00672785
X01244092Y0069596
X012573Y0070612
X0127Y0069088
X01264894Y00678112
X0126746Y0065786
X01258749Y00656509
X0125984Y0061468
X0125476Y0058928
X0127762Y005969
X0128524Y0057912
X0129286Y0054864
X0129032Y0053594
X0130048Y005334
X012954Y0048768
X0127762Y0049276
X012065Y0066548
X01206457Y00694176
X01222756Y0069342
Y0070358
X0120904Y007112
X01222756Y007493
X0120904Y007747
X01208068Y00787131
X01242955Y00791585
X01269233Y0075946
X01258316Y00734877
X0111252Y0072136
X0110776Y00754581
X01098804Y00754581
X01085596Y00754581
X01075756Y00754581
X01065088Y00754581
X0105442Y00754581
X01043752Y00754581
X01033084Y00754581
X01022416Y00754581
X01011748Y00754581
X0100108Y00754581
X00990412Y00754581
X00979744Y00754581
X00979932Y0072898
X00988568
X00996919Y00713654
X0101092Y007112
X010033Y00679494
Y006477
X009906Y0059182
X0097282Y0060198
X009652Y0058928
X0096012Y005461
X0097282
X0099314Y0054102
X0099822Y0051054
X0100584Y0050546
X0101346Y0051054
X0102108Y0050546
X010287Y0051054
X0103632Y0050546
X0104394Y0051054
X0105156Y0050546
X0105918Y0051054
X010668Y0050546
X0107442Y0051054
X0108204Y0050546
X0108966Y0051054
X01097176Y0050546
X0112014Y0051054
X01111328Y00525004
X011049Y005334
X0113538Y0053086
X0116586Y005334
X0114046Y005588
X011176Y0058166
X01149941Y00601301
X011684Y0060706
X0117856Y0064516
X011557Y0067564
X0108204Y0073152
X01086104Y0078994
X01096772Y0078994
X0110744Y0078994
X01075436
X01064768Y0078994
X010541Y0078994
X01043432Y0078994
X01032764
X01022096Y0078994
X01011428Y0078994
X0100076Y0078994
X00990092
X00979424Y0078994
X00968756Y0078994
X00958088Y0078994
X0094488
X0091948Y0075946
X0095758Y0073152
X0090678Y0069596
X00841167Y00694503
X008255Y0070866
Y0072898
X0082042Y0074676
X008128Y0077216
X0081534Y0066294
X00868408Y00619603
X0089408Y0061722
X00936535Y00625406
X00942293Y00635266
X0093726Y005461
X00914281Y00548728
X0092456Y0048514
X0090678Y0047752
X0091948Y004445
X0094488
X0095504
X009652
X009525Y0048514
X009906Y0049784
X008763Y004953
X0084074Y0056896
X0112522Y0048514
X0113538Y0048768
X011684Y0047498
X011303Y004445
X0112014
X01103436Y00435101
X007747Y004445
X00695583Y00455037
X00762Y0055626
X0077216Y006223
X0078232Y006477
X0079248Y006604
X0075438Y0068326
Y007112
Y0073406
X00692459Y00735126
X006731Y0074676
X00682665Y00632706
X0069342Y009144
Y0101346
X0076319Y0111492
X0077335Y011073
X0078351Y0109714
X0079367Y0108952
X0079248Y008509
X0078232Y0085852
X0077216Y0086868
X00762Y008763
X0080264Y0084328
X008636Y0083566
X0088392Y0080264
X0092456Y0079502
X0096266Y008382
X0100584Y0085852
X0099568Y00889
X00984881Y00935895
X00984881Y00955438
X01003772Y009638
X0100076Y0097282
X009906Y0098806
X009779Y0099568
X0098552Y0100838
X0097028Y0101092
X00959104Y0101854
X00946404Y0103505
X009525Y010541
X009398Y0112268
X0093218Y011303
X0093472Y0115062
X0089527Y011708
X0088511Y0116318
X0087749Y0115556
X0086987Y0114794
X0086106Y0113792
X0086614Y0118364
X0098552Y0117602
X01007493Y01188212
X01048686Y0118604
X01087852Y0117073
X0113149Y0115556
X0114165Y0116318
X0112387Y011454
X0111625Y0113016
X0115824Y0108204
X011684Y0108966
X0117856Y0109728
X0118618Y011049
X0117348Y0098806
X0116332Y0097282
X0115062Y0096266
X0114808Y0094742
X0114046Y0092456
X011303Y0091694
X0112776Y0093472
X01148588Y0090678
X0111506Y0089154
X01161288Y0084328
X01172464Y008509
X01183372Y00859959
X0115062Y00828688
X01080805Y00954352
X0104902Y0094742
Y0096266
X010541Y0097282
X0106426Y0098806
X0107442Y0099568
X0108712Y0101092
X0109728Y0101854
X0110998Y0103632
X01030123Y01065854
X01006012Y009478
X009652Y009398
X0089408Y0093218
X00884094Y0092456
X00876474Y0091694
X0086868Y0090932
X0085852Y0090678
X00859536Y00944053
X0082296Y0094234
X0085344Y0099314
X0085598Y0103378
X00861929Y01047497
X00861727Y01058513
X0083058Y010668
X0080264Y0108204
X00932532Y00890997
X00940045Y00883902
X0119126Y0086868
X01201928Y00876691
X01210464Y00883825
X0121158Y009144
Y00844296
X012319Y00799209
X01254266Y00813294
X01257602Y00821259
X01271774Y00807785
X0128524Y0083058
X0129286Y0086106
X0128778Y008763
X0127762Y0086868
X0126492Y008763
X0130048Y0088392
X0129241Y00894529
X0136652Y0088646
X01468389Y00963707
X014097Y011049
X0120396Y0112268
X011938Y0111506
X0121412Y0104648
X0121666Y0103632
X0124714Y0102362
X0123444Y009779
X0122936Y0096774
X0119126Y0099568
X0128524Y0100076
X0129286Y0129286
X0128524Y0134874
X0130048Y0136906
X0127508Y0139954
X013589Y0131064
X0138684Y0130048
X014097Y013081
X0139954Y0122174
X0148082Y0139446
X014097Y0154178
X0136906Y0152146
X011303
X0087884Y0151892
X008117Y0155084
X00813583Y01309511
X00802711Y01309584
X00799005Y01293876
X008001Y012573
X0086868Y0126746
Y012827
Y012192
X0093726Y0124206
X0095877Y0125716
X0097147Y0124954
X0097909Y012343
X0099179Y0122668
X0100195Y0121144
X01005769Y0120242
X0105021Y0120128
X0105529Y0121144
X0105156Y012192
X0106545Y0122668
X0107561Y012343
X0108831Y0124954
X0109847Y0125716
X0112014Y0125476
X0111117Y0127494
X01007837Y01266304
X0094734Y0127367
X0093726Y011938
X0075946Y012192
X0076708Y012573
X007747Y0126492
X0078994Y012573
X00782939Y01284941
X0077724Y0129286
X00769939Y01297621
X00759722Y01293472
X00764769Y01279931
X0070358Y0135128
X0069596Y0134366
X00737108Y0149352
X0074406Y0150384
X0075184Y0151384
X0074962Y0153384
X0073914Y01524
X00744193Y0155384
X00743532Y0156384
T02
X0071064Y00290599
X0073604
Y00315999
X0071064
Y00341399
X0073604
Y00366799
X0071064
Y00392199
X0073604
X0132024Y00391949
Y00366549
Y00341149
Y00315749
Y00290349
X0134564
Y00315749
Y00341149
Y00366549
Y00391949
Y00417349
X0132024
Y00442749
X0134564
Y00468149
X0132024
Y00493549
X0134564
Y00518949
X0132024
Y00544349
X0134564
Y00569749
X0132024
Y00595149
X0134564
Y00620549
X0132024
Y00645949
X0134564
Y00671349
X0132024
Y00696749
X0134564
Y00722149
X0132024
Y00747549
X0134564
Y00772949
X0132024
X0073604Y00773199
Y00747799
Y00722399
Y00696999
Y00671599
Y00646199
Y00620799
Y00595399
Y00569999
Y00544599
Y00519199
Y00493799
Y00468399
Y00442999
Y00417599
X0071064
Y00442999
Y00468399
Y00493799
Y00519199
Y00544599
Y00569999
Y00595399
Y00620799
Y00646199
Y00671599
Y00696999
Y00722399
Y00747799
Y00773199
Y00798599
Y00823999
Y00849399
X0073604
Y00823999
Y00798599
Y00874799
X0071064
Y00900199
X0073604
Y00925599
X0071064
Y00950999
X0073604
Y00976399
X0071064
Y01001799
X0073604
Y01027199
Y01052599
X0071064
Y01077999
X0073604
Y01103399
X0071064
Y01128799
X0073604
Y01154199
X0071064
Y01179599
X0073604
X0071064Y01027199
X0132024Y01026949
X0134564
Y01001549
Y00976149
Y00950749
Y00925349
Y00899949
Y00874549
X0132024
Y00849149
Y00823749
X0134564
Y00798349
X0132024
X0134564Y00849149
X0132024Y00899949
Y00925349
Y00950749
Y00976149
Y01001549
Y01052349
X0134564
Y01077749
X0132024
Y01103149
X0134564
Y01128549
X0132024
Y01153949
X0134564
Y01179349
X0132024
Y01204749
X0134564
Y01230149
X0132024
Y01255549
X0134564
Y01280949
X0132024
X0138684Y013589
X0073604Y01281199
Y01255799
Y01230399
Y01204999
X0071064
Y01230399
Y01255799
Y01281199
T03
X00635Y003429
X006604
X0066Y003946
X006346
Y0042
X0066
Y004454
Y004708
X006346
Y004454
Y0058166
X0066
Y0063246
X006346
Y0065786
X0066
Y0068326
Y0070866
X006346
Y0068326
Y0087122
X0066
Y009271
X006346
Y009525
X0066
Y009779
Y010033
X006346
Y009779
T04
X01415001Y00655001
X0144Y00655001
X01465001
Y008
X01415001Y008
X00965001Y01405001
X0094
X00915001Y01405001
X00915001Y0155
X00965001Y0155
T05
X01488Y0032
X01509
X015008Y003446
X01509Y0037
X01488Y0037
X014754Y004081
X01488Y01
X01509
X015008Y010246
X01509Y0105
X01488Y0105
X014754Y010881
X0148834Y0119968
X0150934
X0150114Y0122428
X0150934Y0124968
X0148834Y0124968
X0147574Y0128778
X013781Y014546
X0134Y01442
Y01421
X013146Y014292
X0129Y01421
Y01442
X011881Y014546
X0115Y01442
Y01421
X011246Y014292
X011Y01421
Y01442
X008165Y0139406
Y0136906
Y0134406
T08
X0125674Y00557299
X0079954
T09
X0145Y0037
Y0105
X0145034Y0124968
X0134Y0148
X0115
M30
