G04*
G04 #@! TF.GenerationSoftware,Altium Limited,Altium Designer,24.2.2 (26)*
G04*
G04 Layer_Color=8421504*
%FSLAX44Y44*%
%MOMM*%
G71*
G04*
G04 #@! TF.SameCoordinates,B70AB8C3-08FB-47E2-BB7E-A56AE36AF668*
G04*
G04*
G04 #@! TF.FilePolarity,Positive*
G04*
G01*
G75*
%ADD20R,0.9500X0.8500*%
%ADD21R,0.5000X1.0000*%
%ADD22R,0.7000X0.9000*%
%ADD23R,1.0000X0.5000*%
%ADD24R,2.2860X0.5080*%
%ADD25R,0.6000X0.6400*%
%ADD26R,0.9000X0.7000*%
%ADD27R,0.6000X0.7500*%
%ADD28R,2.6500X3.5000*%
%ADD29R,0.3000X2.6000*%
%ADD30R,1.6500X0.6500*%
%ADD31R,0.7500X0.7000*%
%ADD32R,0.6500X0.7000*%
%ADD33R,0.8500X0.6500*%
%ADD34R,0.7500X0.6500*%
%ADD35R,0.8500X1.3000*%
%ADD36R,0.9000X0.9500*%
%ADD37R,1.1500X0.7450*%
%ADD38R,0.8500X1.2000*%
%ADD39R,1.0000X2.1000*%
%ADD40R,4.9000X5.8500*%
%ADD41R,0.8500X0.9500*%
%ADD42R,0.9000X1.0000*%
%ADD43R,1.4000X1.3000*%
D20*
X820420Y1231600D02*
D03*
X820420Y1244600D02*
D03*
X759460Y1231600D02*
D03*
X759460Y1244600D02*
D03*
X774700Y1231600D02*
D03*
X774700Y1244600D02*
D03*
X789940Y1231600D02*
D03*
Y1244600D02*
D03*
X878840Y1379520D02*
D03*
Y1392520D02*
D03*
X863600Y1379520D02*
D03*
Y1392520D02*
D03*
X848360Y1392220D02*
D03*
Y1379220D02*
D03*
X1181100Y513380D02*
D03*
Y500380D02*
D03*
X835660Y1244600D02*
D03*
X835660Y1231600D02*
D03*
X805180Y1244600D02*
D03*
X805180Y1231600D02*
D03*
X1135380Y500380D02*
D03*
X1135380Y513380D02*
D03*
X1150620Y500380D02*
D03*
Y513380D02*
D03*
X1165860Y500380D02*
D03*
X1165860Y513380D02*
D03*
X1196340Y500380D02*
D03*
X1196340Y513380D02*
D03*
D21*
X1157620Y533400D02*
D03*
X1150620D02*
D03*
X1501140Y1374140D02*
D03*
X1508140D02*
D03*
D22*
X1398263Y361850D02*
D03*
X1409264Y361850D02*
D03*
X1409264Y380150D02*
D03*
X1398264D02*
D03*
X1398263Y1041850D02*
D03*
X1409264Y1041850D02*
D03*
X1409264Y1060150D02*
D03*
X1398263D02*
D03*
X1398603Y1241530D02*
D03*
X1409604Y1241530D02*
D03*
X1409604Y1259830D02*
D03*
X1398603D02*
D03*
D23*
X1122370Y370530D02*
D03*
X1122370Y363530D02*
D03*
X1102360Y370840D02*
D03*
Y363840D02*
D03*
X810260Y1066180D02*
D03*
X810260Y1059180D02*
D03*
D24*
X1031240Y1090420D02*
D03*
X914240Y1106420D02*
D03*
Y1162420D02*
D03*
X1031240Y1114420D02*
D03*
X914240D02*
D03*
Y1210420D02*
D03*
X1031240Y1202420D02*
D03*
X914240Y1154420D02*
D03*
Y1082420D02*
D03*
X1031240Y1274420D02*
D03*
X914240Y1170420D02*
D03*
Y1098420D02*
D03*
Y1146420D02*
D03*
X1031240Y1098420D02*
D03*
X914240Y1202420D02*
D03*
X1031240Y1210420D02*
D03*
Y1282420D02*
D03*
X914240Y1242420D02*
D03*
X1031240Y1266420D02*
D03*
X914240Y1194420D02*
D03*
X1031240Y1218420D02*
D03*
Y1178420D02*
D03*
Y1074420D02*
D03*
Y1146420D02*
D03*
Y1082420D02*
D03*
Y1122420D02*
D03*
X914240Y1186420D02*
D03*
X1031240Y1226420D02*
D03*
X914240Y1274420D02*
D03*
Y1258420D02*
D03*
Y1234420D02*
D03*
Y1130420D02*
D03*
Y1138420D02*
D03*
X1031240Y1106420D02*
D03*
Y1130420D02*
D03*
X914240Y1226420D02*
D03*
X1031240Y1186420D02*
D03*
Y1234420D02*
D03*
X914240Y1250420D02*
D03*
X1031240Y1162420D02*
D03*
X914240Y1090420D02*
D03*
X1031240Y1258420D02*
D03*
X914240Y1122420D02*
D03*
X1031240Y1154420D02*
D03*
X914240Y1266420D02*
D03*
Y1282420D02*
D03*
Y1218420D02*
D03*
Y1178420D02*
D03*
Y1074420D02*
D03*
X1031240Y1242420D02*
D03*
Y1194420D02*
D03*
Y1250420D02*
D03*
Y1170420D02*
D03*
Y1138420D02*
D03*
X1030050Y899800D02*
D03*
Y931800D02*
D03*
Y1011800D02*
D03*
Y955800D02*
D03*
Y1003800D02*
D03*
X913050Y835800D02*
D03*
Y939800D02*
D03*
Y979800D02*
D03*
Y1043800D02*
D03*
Y1027800D02*
D03*
X1030050Y915800D02*
D03*
X913050Y883800D02*
D03*
X1030050Y1019800D02*
D03*
X913050Y851800D02*
D03*
X1030050Y923800D02*
D03*
X913050Y1011800D02*
D03*
X1030050Y995800D02*
D03*
Y947800D02*
D03*
X913050Y987800D02*
D03*
X1030050Y891800D02*
D03*
Y867800D02*
D03*
X913050Y899800D02*
D03*
Y891800D02*
D03*
Y995800D02*
D03*
Y1019800D02*
D03*
Y1035800D02*
D03*
X1030050Y987800D02*
D03*
X913050Y947800D02*
D03*
X1030050Y883800D02*
D03*
Y843800D02*
D03*
Y907800D02*
D03*
Y835800D02*
D03*
Y939800D02*
D03*
Y979800D02*
D03*
X913050Y955800D02*
D03*
X1030050Y1027800D02*
D03*
X913050Y1003800D02*
D03*
X1030050Y1043800D02*
D03*
Y971800D02*
D03*
X913050Y963800D02*
D03*
X1030050Y859800D02*
D03*
X913050Y907800D02*
D03*
Y859800D02*
D03*
Y931800D02*
D03*
X1030050Y1035800D02*
D03*
X913050Y843800D02*
D03*
Y915800D02*
D03*
X1030050Y963800D02*
D03*
X913050Y971800D02*
D03*
Y875800D02*
D03*
X1030050D02*
D03*
X913050Y923800D02*
D03*
Y867800D02*
D03*
X1030050Y851800D02*
D03*
D25*
X880200Y1074420D02*
D03*
X889000D02*
D03*
X880200Y1181100D02*
D03*
X889000D02*
D03*
X880200Y1219200D02*
D03*
X889000D02*
D03*
X880200Y1267460D02*
D03*
X889000D02*
D03*
X880200Y1282700D02*
D03*
X889000D02*
D03*
X1067980Y1242060D02*
D03*
X1059180D02*
D03*
X1067980Y1193800D02*
D03*
X1059180D02*
D03*
X880200Y835660D02*
D03*
X889000D02*
D03*
X875120Y939800D02*
D03*
X883920D02*
D03*
X875120Y980440D02*
D03*
X883920Y980440D02*
D03*
X875120Y1028700D02*
D03*
X883920Y1028700D02*
D03*
X875120Y1043940D02*
D03*
X883920D02*
D03*
X1065440Y1003300D02*
D03*
X1056640D02*
D03*
X1066120Y955040D02*
D03*
X1057320Y955040D02*
D03*
D26*
X1331850Y1531737D02*
D03*
Y1520736D02*
D03*
X1350150D02*
D03*
Y1531737D02*
D03*
X1141850D02*
D03*
Y1520736D02*
D03*
X1160150D02*
D03*
Y1531737D02*
D03*
D27*
X972820Y534740D02*
D03*
Y523240D02*
D03*
X960755Y534740D02*
D03*
Y523240D02*
D03*
X948690Y534740D02*
D03*
Y523240D02*
D03*
X936625Y534740D02*
D03*
Y523240D02*
D03*
X924560Y534740D02*
D03*
Y523240D02*
D03*
X1107440Y777910D02*
D03*
X1107440Y766410D02*
D03*
X947420Y766410D02*
D03*
X947420Y777910D02*
D03*
X958088Y766410D02*
D03*
X958088Y777910D02*
D03*
X968756Y766410D02*
D03*
X968756Y777910D02*
D03*
X979424Y766410D02*
D03*
X979424Y777910D02*
D03*
X990092Y766410D02*
D03*
X990092Y777910D02*
D03*
X1000760Y766410D02*
D03*
X1000760Y777910D02*
D03*
X1011428Y766410D02*
D03*
X1011428Y777910D02*
D03*
X1022096Y766410D02*
D03*
X1022096Y777910D02*
D03*
X1032764Y766410D02*
D03*
X1032764Y777910D02*
D03*
X1043432Y766410D02*
D03*
X1043432Y777910D02*
D03*
X1054100Y766410D02*
D03*
X1054100Y777910D02*
D03*
X1064768Y766410D02*
D03*
X1064768Y777910D02*
D03*
X1075436Y766410D02*
D03*
X1075436Y777910D02*
D03*
X1086104Y766410D02*
D03*
X1086104Y777910D02*
D03*
X1096772Y766410D02*
D03*
Y777910D02*
D03*
D28*
X896916Y445876D02*
D03*
X1178164Y445876D02*
D03*
D29*
X1085040Y464820D02*
D03*
X1080040Y464820D02*
D03*
X1075040Y464820D02*
D03*
X1070040D02*
D03*
X1065040Y464820D02*
D03*
X1060040Y464820D02*
D03*
X1055040Y464820D02*
D03*
X1050040Y464820D02*
D03*
X1045040Y464820D02*
D03*
X1040040Y464820D02*
D03*
X1035040Y464820D02*
D03*
X1030040Y464820D02*
D03*
X1025040Y464820D02*
D03*
X1020040Y464820D02*
D03*
X1015040Y464820D02*
D03*
X1010040Y464820D02*
D03*
X1005040Y464820D02*
D03*
X1000040Y464820D02*
D03*
X995040Y464820D02*
D03*
X990040D02*
D03*
X985040Y464820D02*
D03*
X980040Y464820D02*
D03*
X975040Y464820D02*
D03*
X970040Y464820D02*
D03*
X965040Y464820D02*
D03*
X960040Y464820D02*
D03*
X955040Y464820D02*
D03*
X950040Y464820D02*
D03*
X945040Y464820D02*
D03*
X940040Y464820D02*
D03*
X935040Y464820D02*
D03*
X930040Y464820D02*
D03*
X925040Y464820D02*
D03*
X920040Y464820D02*
D03*
X915040Y464820D02*
D03*
X1160040D02*
D03*
X1155040Y464820D02*
D03*
X1150040Y464820D02*
D03*
X1145040Y464820D02*
D03*
X1140040D02*
D03*
X1135040D02*
D03*
X1130040Y464820D02*
D03*
X1125040Y464820D02*
D03*
X1120040Y464820D02*
D03*
X1115040D02*
D03*
X1110040Y464820D02*
D03*
X1105040Y464820D02*
D03*
X1100040Y464820D02*
D03*
X1095040Y464820D02*
D03*
X1090040Y464820D02*
D03*
D30*
X935160Y694690D02*
D03*
Y707390D02*
D03*
Y720090D02*
D03*
Y732790D02*
D03*
X863160D02*
D03*
Y720090D02*
D03*
Y707390D02*
D03*
Y694690D02*
D03*
D31*
X723900Y1493840D02*
D03*
X723900Y1503840D02*
D03*
X723900Y1513840D02*
D03*
X723900Y1523840D02*
D03*
X723900Y1533840D02*
D03*
X723900Y1543840D02*
D03*
X723900Y1553840D02*
D03*
Y1563840D02*
D03*
D32*
X711900Y1548840D02*
D03*
X711900Y1508840D02*
D03*
D33*
X842900Y1550840D02*
D03*
D34*
X843400Y1487340D02*
D03*
D35*
X842900Y1455960D02*
D03*
D36*
X696150Y1450340D02*
D03*
D37*
X696900Y1580690D02*
D03*
D38*
X842900Y1563220D02*
D03*
D39*
X830460Y1049020D02*
D03*
X784860D02*
D03*
D40*
X807660Y981020D02*
D03*
D41*
X853140Y1170940D02*
D03*
X866140Y1170940D02*
D03*
X1156000Y1148080D02*
D03*
X1143000Y1148080D02*
D03*
D42*
X1190390Y533400D02*
D03*
X1176890D02*
D03*
D43*
X853440Y976120D02*
D03*
Y960120D02*
D03*
X762000Y1022860D02*
D03*
X762000Y1038860D02*
D03*
M02*
