G04*
G04 #@! TF.GenerationSoftware,Altium Limited,Altium Designer,24.2.2 (26)*
G04*
G04 Layer_Color=65535*
%FSLAX44Y44*%
%MOMM*%
G71*
G04*
G04 #@! TF.SameCoordinates,B70AB8C3-08FB-47E2-BB7E-A56AE36AF668*
G04*
G04*
G04 #@! TF.FilePolarity,Positive*
G04*
G01*
G75*
%ADD10C,0.2540*%
%ADD11C,0.2000*%
%ADD12C,0.3048*%
%ADD13C,0.1000*%
%ADD14C,0.2500*%
%ADD15C,0.5000*%
%ADD16C,0.1270*%
%ADD17C,0.1500*%
%ADD18C,0.1520*%
%ADD19C,0.1524*%
D10*
X781840Y1369060D02*
G03*
X781840Y1369060I-30000J0D01*
G01*
X952700Y1467300D02*
G03*
X927300Y1467300I-12700J12700D01*
G01*
X970000Y1480000D02*
G03*
X970000Y1480000I-30000J0D01*
G01*
X1452700Y717300D02*
G03*
X1427300Y717300I-12700J12700D01*
G01*
X1470000Y730000D02*
G03*
X1470000Y730000I-30000J0D01*
G01*
X817060Y1404620D02*
Y1419860D01*
X757369D02*
X817060D01*
X757369Y1318260D02*
X817060D01*
Y1332230D01*
X691330Y1318260D02*
X726440D01*
X691330D02*
Y1419860D01*
X726440D01*
X927300Y1467300D02*
X952700D01*
X877501Y1413000D02*
Y1458500D01*
X1002502Y1413000D02*
X1002502Y1458500D01*
X877501Y1501500D02*
X877501Y1547000D01*
X1002502Y1501501D02*
X1002502Y1547000D01*
X977003D02*
X1002504Y1547000D01*
X974002Y1413000D02*
X1002501Y1413000D01*
X949200Y1413000D02*
X956200Y1413000D01*
X924000Y1413000D02*
X931000Y1413000D01*
X877501Y1413000D02*
X906000Y1413000D01*
X927250Y1547000D02*
X952750D01*
X877501D02*
X903000Y1547000D01*
X1392264Y358000D02*
X1392382Y358000D01*
X1392264Y1038000D02*
X1392382Y1038000D01*
X1007740Y1288420D02*
X1022740D01*
X922740D02*
X992740D01*
X922740Y1068420D02*
Y1288420D01*
Y1068420D02*
X992740D01*
X1007740D02*
X1022740D01*
Y1288420D01*
X1427300Y717300D02*
X1452700D01*
X1377501Y663000D02*
Y708500D01*
X1502502Y663000D02*
X1502502Y708500D01*
X1377501Y751500D02*
X1377501Y797000D01*
X1502502Y751501D02*
X1502502Y797000D01*
X1477003D02*
X1502504Y797000D01*
X1474002Y663000D02*
X1502501Y663000D01*
X1449200Y663000D02*
X1456200Y663000D01*
X1424000Y663000D02*
X1431000Y663000D01*
X1377501Y663000D02*
X1406000Y663000D01*
X1427250Y797000D02*
X1452749D01*
X1377501D02*
X1403000Y797000D01*
X1328000Y1537736D02*
X1328000Y1537618D01*
X1138000Y1537736D02*
X1138000Y1537618D01*
X1392604Y1237680D02*
X1392722Y1237680D01*
X1021550Y829800D02*
Y1049800D01*
X1006550Y829800D02*
X1021550D01*
X921550D02*
X991550D01*
X921550D02*
Y1049800D01*
X991550D01*
X1006550D02*
X1021550D01*
X1384764Y822697D02*
X1382225Y820157D01*
Y815079D01*
X1384764Y812540D01*
X1387303D01*
X1389843Y815079D01*
Y820157D01*
X1392382Y822697D01*
X1394921D01*
X1397460Y820157D01*
Y815079D01*
X1394921Y812540D01*
X1397460Y835393D02*
Y830314D01*
X1394921Y827775D01*
X1389843D01*
X1387303Y830314D01*
Y835393D01*
X1389843Y837932D01*
X1392382D01*
Y827775D01*
X1397460Y843010D02*
Y848089D01*
Y845549D01*
X1382225D01*
Y843010D01*
X1397460Y1152540D02*
X1382225D01*
X1397460Y1162697D01*
X1382225D01*
X1382225Y952540D02*
X1384764D01*
X1389843Y957618D01*
X1384764Y962697D01*
X1382225D01*
X1389843Y957618D02*
X1397460D01*
X1332225Y1372540D02*
X1347460D01*
Y1380157D01*
X1344921Y1382697D01*
X1334764D01*
X1332225Y1380157D01*
Y1372540D01*
X1347460Y1387775D02*
X1337303D01*
Y1395393D01*
X1339842Y1397932D01*
X1347460D01*
X1137147Y1372540D02*
X1149843D01*
X1152382Y1375079D01*
Y1380157D01*
X1149843Y1382697D01*
X1137147D01*
X1157460Y1387775D02*
X1142225D01*
Y1395393D01*
X1144764Y1397932D01*
X1149843D01*
X1152382Y1395393D01*
Y1387775D01*
X1027460Y1402540D02*
X1012225D01*
Y1410157D01*
X1014764Y1412697D01*
X1019842D01*
X1022382Y1410157D01*
Y1402540D01*
X1017303Y1420314D02*
Y1425393D01*
X1019842Y1427932D01*
X1027460D01*
Y1420314D01*
X1024921Y1417775D01*
X1022382Y1420314D01*
Y1427932D01*
X1017303Y1433010D02*
X1027460D01*
X1022382D01*
X1019842Y1435549D01*
X1017303Y1438089D01*
Y1440628D01*
Y1450784D02*
Y1455863D01*
X1019842Y1458402D01*
X1027460D01*
Y1450784D01*
X1024921Y1448245D01*
X1022382Y1450784D01*
Y1458402D01*
X1027460Y1463480D02*
X1017303D01*
Y1466019D01*
X1019842Y1468559D01*
X1027460D01*
X1019842D01*
X1017303Y1471098D01*
X1019842Y1473637D01*
X1027460D01*
X1382225Y472697D02*
Y462540D01*
X1389843D01*
Y467618D01*
Y462540D01*
X1397460D01*
Y480314D02*
Y485393D01*
X1394921Y487932D01*
X1389843D01*
X1387303Y485393D01*
Y480314D01*
X1389843Y477775D01*
X1394921D01*
X1397460Y480314D01*
Y495549D02*
Y500628D01*
X1394921Y503167D01*
X1389843D01*
X1387303Y500628D01*
Y495549D01*
X1389843Y493010D01*
X1394921D01*
X1397460Y495549D01*
X1384764Y510784D02*
X1387303D01*
Y508245D01*
Y513324D01*
Y510784D01*
X1394921D01*
X1397460Y513324D01*
X1384764Y531098D02*
X1382225Y528559D01*
Y523480D01*
X1384764Y520941D01*
X1387303D01*
X1389843Y523480D01*
Y528559D01*
X1392382Y531098D01*
X1394921D01*
X1397460Y528559D01*
Y523480D01*
X1394921Y520941D01*
X1382225Y536176D02*
X1397460D01*
X1392382Y541255D01*
X1397460Y546333D01*
X1382225D01*
D11*
X1399840Y1358900D02*
G03*
X1399840Y1358900I-13000J0D01*
G01*
X907076Y475578D02*
G03*
X907076Y473578I0J-1000D01*
G01*
D02*
G03*
X907076Y475578I0J1000D01*
G01*
X748640Y1040199D02*
Y1294199D01*
X697640Y1040199D02*
X748640D01*
X697640D02*
Y1294199D01*
X748640D01*
X621900Y883920D02*
X647300D01*
Y858520D02*
Y883920D01*
X621900Y858520D02*
Y883920D01*
X647300Y877570D02*
X653650Y883920D01*
X666350D01*
X672700Y877570D01*
Y864870D02*
Y877570D01*
X666350Y858520D02*
X672700Y864870D01*
X653650Y858520D02*
X666350D01*
X647300Y864870D02*
X653650Y858520D01*
X621900D02*
X647300D01*
X621900Y458100D02*
Y483500D01*
X647300Y451750D02*
X653650Y458100D01*
X647300Y477150D02*
X653650Y483500D01*
X647300Y464450D02*
X653650Y458100D01*
X647300Y464450D02*
Y483500D01*
X621900Y458100D02*
X640950D01*
X621900Y483500D02*
X647300D01*
X640950Y458100D02*
X647300Y451750D01*
X621900D02*
X628250Y458100D01*
X666350D02*
X672700Y464450D01*
X653650Y458100D02*
X666350D01*
X653650Y483500D02*
X666350D01*
X672700Y477150D01*
Y464450D02*
Y477150D01*
X666350Y458100D02*
X672700Y451750D01*
Y439050D02*
Y451750D01*
X666350Y432700D02*
X672700Y439050D01*
X653650Y432700D02*
X666350D01*
X647300Y439050D02*
X653650Y432700D01*
X647300Y426350D02*
X653650Y432700D01*
X647300Y413650D02*
X653650Y407300D01*
X666350D01*
X672700Y413650D01*
Y426350D01*
X666350Y432700D02*
X672700Y426350D01*
X666350Y407300D02*
X672700Y400950D01*
Y388250D02*
Y400950D01*
X666350Y381900D02*
X672700Y388250D01*
X653650Y381900D02*
X666350D01*
X647300Y388250D02*
X653650Y381900D01*
X647300Y400950D02*
X653650Y407300D01*
X621900Y400950D02*
X628250Y407300D01*
X672700Y388250D02*
Y400950D01*
X621900Y388250D02*
X628250Y381900D01*
X640950D01*
X647300Y388250D01*
Y400950D01*
X640950Y407300D02*
X647300Y400950D01*
X640950Y432700D02*
X647300Y426350D01*
Y413650D02*
Y426350D01*
X640950Y407300D02*
X647300Y413650D01*
X628250Y407300D02*
X640950D01*
X621900Y413650D02*
X628250Y407300D01*
X672700Y413650D02*
Y426350D01*
X621900D02*
X628250Y432700D01*
X672700Y439050D02*
Y451750D01*
X621900Y439050D02*
X628250Y432700D01*
X640950D01*
X647300Y439050D01*
Y451750D01*
X672700Y464450D02*
Y477150D01*
X621900Y439050D02*
Y451750D01*
Y413650D02*
Y426350D01*
Y388250D02*
Y400950D01*
Y594360D02*
X647300D01*
Y568960D02*
Y594360D01*
X621900Y568960D02*
Y594360D01*
X647300Y588010D02*
X653650Y594360D01*
X666350D01*
X672700Y588010D01*
Y575310D02*
Y588010D01*
X666350Y568960D02*
X672700Y575310D01*
X653650Y568960D02*
X666350D01*
X647300Y575310D02*
X653650Y568960D01*
X621900D02*
X647300D01*
X622300Y355600D02*
X647700D01*
Y330200D02*
Y355600D01*
X622300Y330200D02*
Y355600D01*
X647700Y349250D02*
X654050Y355600D01*
X666750D01*
X673100Y349250D01*
Y336550D02*
Y349250D01*
X666750Y330200D02*
X673100Y336550D01*
X654050Y330200D02*
X666750D01*
X647700Y336550D02*
X654050Y330200D01*
X622300D02*
X647700D01*
X621900Y990600D02*
Y1016000D01*
X647300Y984250D02*
X653650Y990600D01*
X647300Y1009650D02*
X653650Y1016000D01*
X647300Y996950D02*
X653650Y990600D01*
X647300Y996950D02*
Y1016000D01*
X621900Y990600D02*
X640950D01*
X621900Y1016000D02*
X647300D01*
X640950Y990600D02*
X647300Y984250D01*
X621900D02*
X628250Y990600D01*
X666350D02*
X672700Y996950D01*
X653650Y990600D02*
X666350D01*
X653650Y1016000D02*
X666350D01*
X672700Y1009650D01*
Y996950D02*
Y1009650D01*
X666350Y990600D02*
X672700Y984250D01*
Y971550D02*
Y984250D01*
X666350Y965200D02*
X672700Y971550D01*
X653650Y965200D02*
X666350D01*
X647300Y971550D02*
X653650Y965200D01*
X647300Y958850D02*
X653650Y965200D01*
X647300Y946150D02*
X653650Y939800D01*
X666350D01*
X672700Y946150D01*
Y958850D01*
X666350Y965200D02*
X672700Y958850D01*
X666350Y939800D02*
X672700Y933450D01*
Y920750D02*
Y933450D01*
X666350Y914400D02*
X672700Y920750D01*
X653650Y914400D02*
X666350D01*
X647300Y920750D02*
X653650Y914400D01*
X647300Y933450D02*
X653650Y939800D01*
X621900Y933450D02*
X628250Y939800D01*
X672700Y920750D02*
Y933450D01*
X621900Y920750D02*
X628250Y914400D01*
X640950D01*
X647300Y920750D01*
Y933450D01*
X640950Y939800D02*
X647300Y933450D01*
X640950Y965200D02*
X647300Y958850D01*
Y946150D02*
Y958850D01*
X640950Y939800D02*
X647300Y946150D01*
X628250Y939800D02*
X640950D01*
X621900Y946150D02*
X628250Y939800D01*
X672700Y946150D02*
Y958850D01*
X621900D02*
X628250Y965200D01*
X672700Y971550D02*
Y984250D01*
X621900Y971550D02*
X628250Y965200D01*
X640950D01*
X647300Y971550D01*
Y984250D01*
X672700Y996950D02*
Y1009650D01*
X621900Y971550D02*
Y984250D01*
Y946150D02*
Y958850D01*
Y920750D02*
Y933450D01*
Y695960D02*
Y721360D01*
X647300Y689610D02*
X653650Y695960D01*
X647300Y715010D02*
X653650Y721360D01*
X647300Y702310D02*
X653650Y695960D01*
X647300Y702310D02*
Y721360D01*
X621900Y695960D02*
X640950D01*
X621900Y721360D02*
X647300D01*
X640950Y695960D02*
X647300Y689610D01*
X621900D02*
X628250Y695960D01*
X666350D02*
X672700Y702310D01*
X653650Y695960D02*
X666350D01*
X653650Y721360D02*
X666350D01*
X672700Y715010D01*
Y702310D02*
Y715010D01*
X666350Y695960D02*
X672700Y689610D01*
Y676910D02*
Y689610D01*
X666350Y670560D02*
X672700Y676910D01*
X653650Y670560D02*
X666350D01*
X647300Y676910D02*
X653650Y670560D01*
X647300Y664210D02*
X653650Y670560D01*
X647300Y651510D02*
X653650Y645160D01*
X666350D01*
X672700Y651510D01*
Y664210D01*
X666350Y670560D02*
X672700Y664210D01*
X666350Y645160D02*
X672700Y638810D01*
Y626110D02*
Y638810D01*
X666350Y619760D02*
X672700Y626110D01*
X653650Y619760D02*
X666350D01*
X647300Y626110D02*
X653650Y619760D01*
X647300Y638810D02*
X653650Y645160D01*
X621900Y638810D02*
X628250Y645160D01*
X672700Y626110D02*
Y638810D01*
X621900Y626110D02*
X628250Y619760D01*
X640950D01*
X647300Y626110D01*
Y638810D01*
X640950Y645160D02*
X647300Y638810D01*
X640950Y670560D02*
X647300Y664210D01*
Y651510D02*
Y664210D01*
X640950Y645160D02*
X647300Y651510D01*
X628250Y645160D02*
X640950D01*
X621900Y651510D02*
X628250Y645160D01*
X672700Y651510D02*
Y664210D01*
X621900D02*
X628250Y670560D01*
X672700Y676910D02*
Y689610D01*
X621900Y676910D02*
X628250Y670560D01*
X640950D01*
X647300Y676910D01*
Y689610D01*
X672700Y702310D02*
Y715010D01*
X621900Y676910D02*
Y689610D01*
Y651510D02*
Y664210D01*
Y626110D02*
Y638810D01*
X1146120Y526400D02*
Y540400D01*
X1162120Y526400D02*
Y540400D01*
X1157620D02*
X1162120D01*
X1146120D02*
X1150620D01*
X1146120Y526400D02*
X1150620D01*
X1157620D02*
X1162120D01*
X1512640Y1367140D02*
X1512640Y1381140D01*
X1496640Y1367140D02*
X1496640Y1381140D01*
X1496640Y1367140D02*
X1501140Y1367140D01*
X1508140Y1367140D02*
X1512640D01*
X1508140Y1381140D02*
X1512640D01*
X1496640Y1381140D02*
X1501140Y1381140D01*
X1115370Y359030D02*
X1129370D01*
X1115370Y375030D02*
X1129370Y375030D01*
X1115370Y375030D02*
X1115370Y370530D01*
X1115370Y359030D02*
X1115370Y363530D01*
X1129370Y363530D02*
X1129370Y359030D01*
X1129370Y370530D02*
X1129370Y375030D01*
X1095360Y359340D02*
X1109360Y359340D01*
X1095360Y375340D02*
X1109360Y375340D01*
X1095360Y375340D02*
X1095360Y370840D01*
X1095360Y359340D02*
Y363840D01*
X1109360Y359340D02*
X1109360Y363840D01*
X1109360Y370840D02*
X1109360Y375340D01*
X1358240Y277949D02*
Y531949D01*
X1307240Y277949D02*
X1358240D01*
X1307240D02*
Y531949D01*
X1358240D01*
X748640Y278199D02*
Y532199D01*
X697640Y278199D02*
X748640D01*
X697640D02*
Y532199D01*
X748640D01*
X1358240Y531949D02*
Y785949D01*
X1307240Y531949D02*
X1358240D01*
X1307240D02*
Y785949D01*
X1358240D01*
X748640Y532199D02*
Y786199D01*
X697640Y532199D02*
X748640D01*
X697640D02*
Y786199D01*
X748640D01*
Y1040199D01*
X697640Y786199D02*
X748640D01*
X697640D02*
Y1040199D01*
X748640D01*
X1358240Y785949D02*
Y1039949D01*
X1307240Y785949D02*
X1358240D01*
X1307240D02*
Y1039949D01*
X1358240D01*
Y1293949D01*
X1307240Y1039949D02*
X1358240D01*
X1307240D02*
Y1293949D01*
X1358240D01*
X874910Y687320D02*
X923410D01*
X874910D02*
Y740160D01*
X923410D01*
Y687320D02*
Y740160D01*
X926910Y687940D02*
X943410D01*
X775160Y1014020D02*
Y1035020D01*
X840160D01*
Y1014020D02*
Y1035020D01*
X803260Y1054680D02*
X817260D01*
X803260Y1070680D02*
X817260Y1070680D01*
X803260Y1070680D02*
X803260Y1066180D01*
Y1054680D02*
Y1059180D01*
X817260D02*
X817260Y1054680D01*
X817260Y1066180D02*
X817260Y1070680D01*
D12*
X937740Y1278420D02*
G03*
X937740Y1278420I-5000J0D01*
G01*
X1007740Y1068420D02*
G03*
X992740Y1068420I-7500J0D01*
G01*
Y1288420D02*
G03*
X1007740Y1288420I7500J0D01*
G01*
X991550Y1049800D02*
G03*
X1006550Y1049800I7500J0D01*
G01*
Y829800D02*
G03*
X991550Y829800I-7500J0D01*
G01*
X936550Y1039800D02*
G03*
X936550Y1039800I-5000J0D01*
G01*
D13*
X686150Y1494400D02*
G03*
X686150Y1493400I0J-500D01*
G01*
D02*
G03*
X686150Y1494400I0J500D01*
G01*
X885040Y419820D02*
X1173522Y419820D01*
X885040Y433820D02*
X885040Y419820D01*
X885040Y433820D02*
X893040Y433820D01*
X1165522Y433460D02*
X1173522D01*
X1173522Y419460D02*
X1173522Y433460D01*
X844650Y1576090D02*
Y1585210D01*
X704650Y1585210D02*
X844650Y1585210D01*
X692150Y1466090D02*
Y1566090D01*
X704650Y1446970D02*
X834650Y1446970D01*
X844650Y1466090D02*
Y1543840D01*
D14*
X841910Y1057020D02*
G03*
X841910Y1057020I-1250J0D01*
G01*
D15*
X700140Y1298949D02*
D03*
X1309740Y536699D02*
D03*
X700140Y536949D02*
D03*
X1309740Y790699D02*
D03*
X700140Y790949D02*
D03*
Y1044949D02*
D03*
X1309740Y1044699D02*
D03*
Y1298699D02*
D03*
D16*
X741680Y1413730D02*
X741830Y1413880D01*
D17*
X813420Y1250800D02*
X815340Y1250800D01*
X813420Y1225400D02*
X813420Y1250800D01*
X813420Y1225400D02*
X815340Y1225400D01*
X825500Y1225400D02*
X827420D01*
X827420Y1250800D01*
X825500Y1250800D02*
X827420Y1250800D01*
X813420Y1238100D02*
X827420D01*
X752460Y1250800D02*
X754380D01*
X752460Y1225400D02*
Y1250800D01*
Y1225400D02*
X754380Y1225400D01*
X764540Y1225400D02*
X766460D01*
X766460Y1250800D01*
X764540D02*
X766460D01*
X752460Y1238100D02*
X766460Y1238100D01*
X767700Y1250800D02*
X769620Y1250800D01*
X767700Y1225400D02*
X767700Y1250800D01*
X767700Y1225400D02*
X769620Y1225400D01*
X779780Y1225400D02*
X781700Y1225400D01*
X781700Y1250800D01*
X779780Y1250800D02*
X781700Y1250800D01*
X767700Y1238100D02*
X781700Y1238100D01*
X782940Y1250800D02*
X784860Y1250800D01*
X782940Y1250800D02*
X782940Y1225400D01*
X784860Y1225400D01*
X795020Y1225400D02*
X796940D01*
X796940Y1250800D02*
X796940Y1225400D01*
X795020Y1250800D02*
X796940Y1250800D01*
X782940Y1238100D02*
X796940Y1238100D01*
X871840Y1386020D02*
X885840D01*
X871840Y1373320D02*
X873760D01*
X871840D02*
Y1398720D01*
X873760D01*
X883920D02*
X885840D01*
Y1373320D02*
Y1398720D01*
X883920Y1373320D02*
X885840D01*
X856600Y1386020D02*
X870600D01*
X856600Y1373320D02*
X858520D01*
X856600D02*
Y1398720D01*
X858520D01*
X868680D02*
X870600D01*
Y1373320D02*
Y1398720D01*
X868680Y1373320D02*
X870600D01*
X841360Y1385720D02*
X855360D01*
X853440Y1398420D02*
X855360D01*
Y1373020D02*
Y1398420D01*
X853440Y1373020D02*
X855360D01*
X841360D02*
X843280D01*
X841360D02*
Y1398420D01*
X843280D01*
X1186180Y494180D02*
X1188100Y494180D01*
Y519580D01*
X1186180Y519580D02*
X1188100Y519580D01*
X1174100Y519580D02*
X1176020Y519580D01*
X1174100Y494180D02*
X1174100Y519580D01*
X1174100Y494180D02*
X1176020Y494180D01*
X1174100Y506880D02*
X1188100D01*
X894600Y1077420D02*
Y1079420D01*
X874600D02*
X894600D01*
X874600Y1077420D02*
Y1079420D01*
Y1069420D02*
Y1071420D01*
Y1069420D02*
X894600D01*
Y1071420D01*
Y1184100D02*
Y1186100D01*
X874600D02*
X894600D01*
X874600Y1184100D02*
Y1186100D01*
Y1176100D02*
Y1178100D01*
Y1176100D02*
X894600D01*
Y1178100D01*
Y1222200D02*
Y1224200D01*
X874600D02*
X894600D01*
X874600Y1222200D02*
Y1224200D01*
Y1214200D02*
Y1216200D01*
Y1214200D02*
X894600D01*
Y1216200D01*
Y1270460D02*
Y1272460D01*
X874600D02*
X894600D01*
X874600Y1270460D02*
Y1272460D01*
Y1262460D02*
Y1264460D01*
Y1262460D02*
X894600D01*
Y1264460D01*
Y1285700D02*
Y1287700D01*
X874600D02*
X894600D01*
X874600Y1285700D02*
Y1287700D01*
Y1277700D02*
Y1279700D01*
Y1277700D02*
X894600D01*
Y1279700D01*
X1053580Y1237060D02*
Y1239060D01*
Y1237060D02*
X1073580D01*
Y1239060D01*
Y1245060D02*
Y1247060D01*
X1053580D02*
X1073580D01*
X1053580Y1245060D02*
Y1247060D01*
Y1188800D02*
Y1190800D01*
Y1188800D02*
X1073580D01*
Y1190800D01*
Y1196800D02*
Y1198800D01*
X1053580D02*
X1073580D01*
X1053580Y1196800D02*
Y1198800D01*
X967740Y528990D02*
X977900D01*
X967740Y517560D02*
X969010Y517560D01*
X967740Y517560D02*
X967740Y540420D01*
X969010Y540420D01*
X976630D02*
X977900Y540420D01*
X977900Y517560D02*
X977900Y540420D01*
X976630Y517560D02*
X977900Y517560D01*
X955675Y528990D02*
X965835D01*
X955675Y517560D02*
X956945Y517560D01*
X955675Y517560D02*
X955675Y540420D01*
X956945Y540420D01*
X964565D02*
X965835Y540420D01*
X965835Y517560D02*
X965835Y540420D01*
X964565Y517560D02*
X965835Y517560D01*
X943610Y528990D02*
X953770D01*
X943610Y517560D02*
X944880Y517560D01*
X943610Y540420D02*
X943610Y517560D01*
X943610Y540420D02*
X944880D01*
X952500D02*
X953770Y540420D01*
X953770Y517560D02*
X953770Y540420D01*
X952500Y517560D02*
X953770D01*
X931545Y528990D02*
X941705D01*
X931545Y517560D02*
X932815Y517560D01*
X931545Y517560D02*
X931545Y540420D01*
X932815Y540420D01*
X940435Y540420D02*
X941705Y540420D01*
X941705Y517560D02*
X941705Y540420D01*
X940435Y517560D02*
X941705Y517560D01*
X919480Y528990D02*
X929640D01*
X919480Y517560D02*
X920750Y517560D01*
X919480Y517560D02*
X919480Y540420D01*
X920750D01*
X928370Y540420D02*
X929640Y540420D01*
X929640Y517560D01*
X928370Y517560D02*
X929640Y517560D01*
X1102360Y772160D02*
X1112520Y772160D01*
X1102360Y760730D02*
X1103630Y760730D01*
X1102360Y760730D02*
Y783590D01*
X1103630Y783590D01*
X1111250Y783590D02*
X1112520Y783590D01*
X1112520Y760730D01*
X1111250Y760730D02*
X1112520Y760730D01*
X859640Y1177940D02*
X859640Y1163940D01*
X846940Y1177940D02*
X846940Y1176020D01*
X846940Y1177940D02*
X872340Y1177940D01*
X872340Y1176020D01*
X872340Y1165860D02*
X872340Y1163940D01*
X846940Y1163940D02*
X872340Y1163940D01*
X846940Y1163940D02*
Y1165860D01*
X1149500Y1141080D02*
X1149500Y1155080D01*
X1162200Y1141080D02*
X1162200Y1143000D01*
X1136800Y1141080D02*
X1162200Y1141080D01*
X1136800Y1141080D02*
X1136800Y1143000D01*
X1136800Y1155080D02*
X1136800Y1153160D01*
X1136800Y1155080D02*
X1162200Y1155080D01*
X1162200Y1153160D02*
X1162200Y1155080D01*
X894600Y840660D02*
X894600Y838660D01*
X874600Y840660D02*
X894600Y840660D01*
X874600Y838660D02*
Y840660D01*
Y832660D02*
X874600Y830660D01*
X894600Y830660D01*
X894600Y832660D01*
X889520Y942800D02*
X889520Y944800D01*
X869520Y944800D02*
X889520Y944800D01*
X869520Y944800D02*
X869520Y942800D01*
X869520Y936800D02*
X869520Y934800D01*
X889520Y934800D01*
Y936800D01*
X889520Y983440D02*
Y985440D01*
X869520Y985440D02*
X889520Y985440D01*
X869520Y985440D02*
X869520Y983440D01*
X869520Y975440D02*
Y977440D01*
Y975440D02*
X889520Y975440D01*
X889520Y977440D02*
X889520Y975440D01*
X889520Y1033700D02*
X889520Y1031700D01*
X869520Y1033700D02*
X889520Y1033700D01*
X869520Y1031700D02*
Y1033700D01*
X869520Y1023700D02*
X869520Y1025700D01*
X869520Y1023700D02*
X889520D01*
X889520Y1025700D01*
X889520Y1046940D02*
X889520Y1048940D01*
X869520D02*
X889520D01*
X869520Y1046940D02*
X869520Y1048940D01*
X869520Y1040940D02*
X869520Y1038940D01*
X889520Y1038940D01*
Y1040940D01*
X1051040Y998300D02*
X1051040Y1000300D01*
X1051040Y998300D02*
X1071040D01*
Y1000300D01*
Y1008300D02*
X1071040Y1006300D01*
X1051040Y1008300D02*
X1071040Y1008300D01*
X1051040Y1008300D02*
X1051040Y1006300D01*
X1051720Y952040D02*
X1051720Y950040D01*
X1071720Y950040D01*
X1071720Y952040D02*
X1071720Y950040D01*
X1071720Y958040D02*
X1071720Y960040D01*
X1051720D02*
X1071720D01*
X1051720Y958040D02*
Y960040D01*
X828660Y1238100D02*
X842660Y1238100D01*
X840740Y1250800D02*
X842660Y1250800D01*
Y1225400D02*
Y1250800D01*
X840740Y1225400D02*
X842660Y1225400D01*
X828660D02*
X830580D01*
X828660D02*
X828660Y1250800D01*
X830580Y1250800D01*
X798180Y1238100D02*
X812180Y1238100D01*
X810260Y1250800D02*
X812180Y1250800D01*
X812180Y1225400D01*
X810260Y1225400D02*
X812180Y1225400D01*
X798180Y1225400D02*
X800100Y1225400D01*
X798180Y1225400D02*
X798180Y1250800D01*
X800100Y1250800D01*
X1197640Y537400D02*
X1197640Y540400D01*
X1169640Y540400D02*
X1197640Y540400D01*
X1169640Y537400D02*
Y540400D01*
X1169640Y526400D02*
X1169640Y529400D01*
X1169640Y526400D02*
X1197640Y526400D01*
Y529400D01*
X1183640Y526400D02*
X1183640Y540400D01*
X951230Y760730D02*
X952500Y760730D01*
X952500Y783590D02*
X952500Y760730D01*
X951230Y783590D02*
X952500Y783590D01*
X942340Y783590D02*
X943610Y783590D01*
X942340Y760730D02*
X942340Y783590D01*
X942340Y760730D02*
X943610D01*
X942340Y772160D02*
X952500Y772160D01*
X961898Y760730D02*
X963168Y760730D01*
X963168Y783590D01*
X961898D02*
X963168D01*
X953008Y783590D02*
X954278Y783590D01*
X953008Y760730D02*
Y783590D01*
Y760730D02*
X954278Y760730D01*
X953008Y772160D02*
X963168Y772160D01*
X972566Y760730D02*
X973836Y760730D01*
X973836Y783590D02*
X973836Y760730D01*
X972566Y783590D02*
X973836Y783590D01*
X963676Y783590D02*
X964946Y783590D01*
X963676Y783590D02*
X963676Y760730D01*
X964946Y760730D01*
X963676Y772160D02*
X973836Y772160D01*
X983234Y760730D02*
X984504Y760730D01*
X984504Y783590D02*
X984504Y760730D01*
X983234Y783590D02*
X984504Y783590D01*
X974344Y783590D02*
X975614Y783590D01*
X974344Y760730D02*
X974344Y783590D01*
X974344Y760730D02*
X975614Y760730D01*
X974344Y772160D02*
X984504Y772160D01*
X993902Y760730D02*
X995172Y760730D01*
X995172Y783590D02*
X995172Y760730D01*
X993902Y783590D02*
X995172Y783590D01*
X985012Y783590D02*
X986282Y783590D01*
X985012Y760730D02*
X985012Y783590D01*
X985012Y760730D02*
X986282Y760730D01*
X985012Y772160D02*
X995172Y772160D01*
X1004570Y760730D02*
X1005840Y760730D01*
X1005840Y783590D02*
X1005840Y760730D01*
X1004570Y783590D02*
X1005840Y783590D01*
X995680Y783590D02*
X996950D01*
X995680D02*
X995680Y760730D01*
X996950Y760730D01*
X995680Y772160D02*
X1005840Y772160D01*
X1015238Y760730D02*
X1016508Y760730D01*
X1016508Y783590D02*
X1016508Y760730D01*
X1015238Y783590D02*
X1016508Y783590D01*
X1006348Y783590D02*
X1007618Y783590D01*
X1006348Y760730D02*
X1006348Y783590D01*
X1006348Y760730D02*
X1007618Y760730D01*
X1006348Y772160D02*
X1016508Y772160D01*
X1025906Y760730D02*
X1027176Y760730D01*
Y783590D01*
X1025906Y783590D02*
X1027176Y783590D01*
X1017016Y783590D02*
X1018286Y783590D01*
X1017016Y783590D02*
X1017016Y760730D01*
X1018286D01*
X1017016Y772160D02*
X1027176Y772160D01*
X1036574Y760730D02*
X1037844Y760730D01*
X1037844Y783590D02*
X1037844Y760730D01*
X1036574Y783590D02*
X1037844Y783590D01*
X1027684D02*
X1028954D01*
X1027684Y760730D02*
Y783590D01*
Y760730D02*
X1028954D01*
X1027684Y772160D02*
X1037844Y772160D01*
X1047242Y760730D02*
X1048512Y760730D01*
X1048512Y783590D02*
X1048512Y760730D01*
X1047242Y783590D02*
X1048512Y783590D01*
X1038352Y783590D02*
X1039622Y783590D01*
X1038352Y760730D02*
X1038352Y783590D01*
X1038352Y760730D02*
X1039622Y760730D01*
X1038352Y772160D02*
X1048512Y772160D01*
X1057910Y760730D02*
X1059180Y760730D01*
X1059180Y783590D01*
X1057910Y783590D02*
X1059180Y783590D01*
X1049020Y783590D02*
X1050290Y783590D01*
X1049020Y760730D02*
X1049020Y783590D01*
X1049020Y760730D02*
X1050290Y760730D01*
X1049020Y772160D02*
X1059180Y772160D01*
X1068578Y760730D02*
X1069848D01*
X1069848Y783590D02*
X1069848Y760730D01*
X1068578Y783590D02*
X1069848Y783590D01*
X1059688Y783590D02*
X1060958Y783590D01*
X1059688Y760730D02*
X1059688Y783590D01*
X1059688Y760730D02*
X1060958Y760730D01*
X1059688Y772160D02*
X1069848Y772160D01*
X1079246Y760730D02*
X1080516Y760730D01*
X1080516Y783590D02*
X1080516Y760730D01*
X1079246Y783590D02*
X1080516Y783590D01*
X1070356Y783590D02*
X1071626Y783590D01*
X1070356Y783590D02*
X1070356Y760730D01*
X1071626D01*
X1070356Y772160D02*
X1080516Y772160D01*
X1089914Y760730D02*
X1091184Y760730D01*
X1091184Y783590D01*
X1089914Y783590D02*
X1091184Y783590D01*
X1081024Y783590D02*
X1082294Y783590D01*
X1081024Y760730D02*
X1081024Y783590D01*
X1081024Y760730D02*
X1082294Y760730D01*
X1081024Y772160D02*
X1091184Y772160D01*
X1100582Y760730D02*
X1101852Y760730D01*
X1101852Y783590D01*
X1100582Y783590D02*
X1101852Y783590D01*
X1091692D02*
X1092962D01*
X1091692Y760730D02*
X1091692Y783590D01*
X1091692Y760730D02*
X1092962Y760730D01*
X1091692Y772160D02*
X1101852Y772160D01*
X1128380Y506880D02*
X1142380Y506880D01*
X1128380Y494180D02*
X1130300Y494180D01*
X1128380Y494180D02*
X1128380Y519580D01*
X1130300Y519580D01*
X1140460Y519580D02*
X1142380D01*
X1142380Y494180D01*
X1140460Y494180D02*
X1142380Y494180D01*
X1143620Y506880D02*
X1157620Y506880D01*
X1143620Y494180D02*
X1145540Y494180D01*
X1143620Y494180D02*
X1143620Y519580D01*
X1145540Y519580D01*
X1155700Y519580D02*
X1157620D01*
Y494180D02*
Y519580D01*
X1155700Y494180D02*
X1157620Y494180D01*
X1158860Y506880D02*
X1172860Y506880D01*
X1158860Y494180D02*
X1160780D01*
X1158860D02*
Y519580D01*
X1160780Y519580D01*
X1170940Y519580D02*
X1172860Y519580D01*
X1172860Y494180D01*
X1170940Y494180D02*
X1172860Y494180D01*
X1189340Y506880D02*
X1203340Y506880D01*
X1189340Y494180D02*
X1191260Y494180D01*
X1189340Y494180D02*
X1189340Y519580D01*
X1191260Y519580D01*
X1201420Y519580D02*
X1203340Y519580D01*
Y494180D02*
Y519580D01*
X1201420Y494180D02*
X1203340Y494180D01*
X844440Y968120D02*
X862440Y968120D01*
X858440Y951120D02*
X862440Y951120D01*
X862440Y985120D01*
X858440Y985120D02*
X862440Y985120D01*
X844440Y985120D02*
X848440D01*
X844440D02*
X844440Y951120D01*
X848440Y951120D01*
X753000Y1030860D02*
X771000Y1030860D01*
X753000Y1047860D02*
X757000D01*
X753000D02*
X753000Y1013860D01*
X757000D01*
X767000Y1013860D02*
X771000Y1013860D01*
X771000Y1047860D01*
X767000Y1047860D02*
X771000Y1047860D01*
D18*
X1396264Y370000D02*
X1396264Y368500D01*
X1396264Y370000D02*
X1410264Y370000D01*
X1410764Y370000D01*
Y368500D02*
Y370000D01*
X1396264Y368500D02*
X1410764D01*
X1392764Y381000D02*
X1392764Y361000D01*
X1414764Y361000D02*
X1414764Y381000D01*
X1396264Y1050000D02*
X1396264Y1048500D01*
X1396264Y1050000D02*
X1410264Y1050000D01*
X1410764Y1050000D01*
Y1048500D02*
Y1050000D01*
X1396264Y1048500D02*
X1410764Y1048500D01*
X1392764Y1061000D02*
X1392764Y1041000D01*
X1414764D02*
Y1061000D01*
X1338500Y1533736D02*
X1340000D01*
Y1519736D02*
Y1533736D01*
Y1519236D02*
Y1519736D01*
X1338500Y1519236D02*
X1340000Y1519236D01*
X1338500Y1519236D02*
Y1533736D01*
X1331000Y1537236D02*
X1351000D01*
X1331000Y1515236D02*
X1351000Y1515236D01*
X1148500Y1533736D02*
X1150000D01*
Y1519736D02*
Y1533736D01*
Y1519236D02*
Y1519736D01*
X1148500Y1519236D02*
X1150000Y1519236D01*
X1148500Y1519236D02*
Y1533736D01*
X1141000Y1537236D02*
X1161000D01*
X1141000Y1515236D02*
X1161000Y1515236D01*
X1396604Y1249680D02*
X1396604Y1248180D01*
X1396604Y1249680D02*
X1410604Y1249680D01*
X1411104Y1249680D01*
Y1248180D02*
Y1249680D01*
X1396604Y1248180D02*
X1411104Y1248180D01*
X1393104Y1260680D02*
X1393104Y1240680D01*
X1415104D02*
Y1260680D01*
D19*
X1159950Y482452D02*
X1159950Y478388D01*
X1134950Y478388D02*
X1134950Y482452D01*
X1109950Y478388D02*
X1109950Y482452D01*
X1084950Y478388D02*
Y482452D01*
X1059950Y478388D02*
Y482452D01*
X1034950Y482452D02*
X1034950Y478388D01*
X1009950Y482452D02*
X1009950Y478388D01*
X984950Y482452D02*
X984950Y478388D01*
X959950Y482452D02*
X959950Y478388D01*
X934950Y482452D02*
X934950Y478388D01*
X914950Y478388D02*
X914950Y482452D01*
X1053084Y372361D02*
Y367283D01*
X1055623Y364744D01*
X1058162Y367283D01*
Y372361D01*
X1065780Y371092D02*
X1064510Y372361D01*
X1061971D01*
X1060702Y371092D01*
Y369822D01*
X1061971Y368553D01*
X1064510D01*
X1065780Y367283D01*
Y366014D01*
X1064510Y364744D01*
X1061971D01*
X1060702Y366014D01*
X1068319Y372361D02*
Y371092D01*
X1070858Y368553D01*
X1073397Y371092D01*
Y372361D01*
X1070858Y368553D02*
Y364744D01*
X1075937D02*
Y372361D01*
X1081015Y364744D01*
Y372361D01*
X1088633Y371092D02*
X1087363Y372361D01*
X1084824D01*
X1083554Y371092D01*
Y366014D01*
X1084824Y364744D01*
X1087363D01*
X1088633Y366014D01*
X1136904Y370722D02*
X1141982D01*
X1139443D01*
Y363104D01*
X1149600Y370722D02*
X1144521D01*
Y363104D01*
X1149600D01*
X1144521Y366913D02*
X1147061D01*
X1506336Y1385824D02*
X1498719D01*
Y1389633D01*
X1499988Y1390902D01*
X1502527D01*
X1503797Y1389633D01*
Y1385824D01*
Y1388363D02*
X1506336Y1390902D01*
X1499988Y1398520D02*
X1498719Y1397250D01*
Y1394711D01*
X1499988Y1393441D01*
X1505066D01*
X1506336Y1394711D01*
Y1397250D01*
X1505066Y1398520D01*
X1502527D01*
Y1395981D01*
X1498719Y1401059D02*
X1506336D01*
Y1404868D01*
X1505066Y1406137D01*
X1503797D01*
X1502527Y1404868D01*
Y1401059D01*
Y1404868D01*
X1501258Y1406137D01*
X1499988D01*
X1498719Y1404868D01*
Y1401059D01*
X1501258Y1421373D02*
Y1417564D01*
X1502527Y1416294D01*
X1505066D01*
X1506336Y1417564D01*
Y1421373D01*
X1501258Y1423912D02*
X1505066D01*
X1506336Y1425181D01*
Y1428990D01*
X1501258D01*
Y1431529D02*
X1506336D01*
X1503797D01*
X1502527Y1432799D01*
X1501258Y1434068D01*
Y1435338D01*
Y1439147D02*
X1506336D01*
X1503797D01*
X1502527Y1440416D01*
X1501258Y1441686D01*
Y1442955D01*
X1506336Y1450573D02*
Y1448034D01*
X1505066Y1446764D01*
X1502527D01*
X1501258Y1448034D01*
Y1450573D01*
X1502527Y1451843D01*
X1503797D01*
Y1446764D01*
X1506336Y1454382D02*
X1501258D01*
Y1458191D01*
X1502527Y1459460D01*
X1506336D01*
X1499988Y1463269D02*
X1501258D01*
Y1461999D01*
Y1464539D01*
Y1463269D01*
X1505066D01*
X1506336Y1464539D01*
X1404369Y1342644D02*
X1410717D01*
X1411986Y1343914D01*
Y1346453D01*
X1410717Y1347722D01*
X1404369D01*
X1405638Y1355340D02*
X1404369Y1354070D01*
Y1351531D01*
X1405638Y1350262D01*
X1406908D01*
X1408178Y1351531D01*
Y1354070D01*
X1409447Y1355340D01*
X1410717D01*
X1411986Y1354070D01*
Y1351531D01*
X1410717Y1350262D01*
X1404369Y1357879D02*
X1411986D01*
Y1361688D01*
X1410717Y1362957D01*
X1409447D01*
X1408178Y1361688D01*
Y1357879D01*
Y1361688D01*
X1406908Y1362957D01*
X1405638D01*
X1404369Y1361688D01*
Y1357879D01*
X1413256Y1365497D02*
Y1370575D01*
X1405638Y1378192D02*
X1404369Y1376923D01*
Y1374384D01*
X1405638Y1373114D01*
X1406908D01*
X1408178Y1374384D01*
Y1376923D01*
X1409447Y1378192D01*
X1410717D01*
X1411986Y1376923D01*
Y1374384D01*
X1410717Y1373114D01*
X1404369Y1384541D02*
Y1382001D01*
X1405638Y1380732D01*
X1410717D01*
X1411986Y1382001D01*
Y1384541D01*
X1410717Y1385810D01*
X1405638D01*
X1404369Y1384541D01*
Y1393428D02*
Y1388349D01*
X1408178D01*
Y1390888D01*
Y1388349D01*
X1411986D01*
X628502Y892692D02*
X627233Y893961D01*
X624694D01*
X623424Y892692D01*
Y887614D01*
X624694Y886344D01*
X627233D01*
X628502Y887614D01*
Y890153D01*
X625963D01*
X631041Y886344D02*
Y893961D01*
X636120Y886344D01*
Y893961D01*
X638659D02*
Y886344D01*
X642468D01*
X643737Y887614D01*
Y892692D01*
X642468Y893961D01*
X638659D01*
X628502Y603132D02*
X627233Y604402D01*
X624694D01*
X623424Y603132D01*
Y598054D01*
X624694Y596784D01*
X627233D01*
X628502Y598054D01*
Y600593D01*
X625963D01*
X631041Y596784D02*
Y604402D01*
X636120Y596784D01*
Y604402D01*
X638659D02*
Y596784D01*
X642468D01*
X643737Y598054D01*
Y603132D01*
X642468Y604402D01*
X638659D01*
X628902Y364372D02*
X627633Y365642D01*
X625094D01*
X623824Y364372D01*
Y359294D01*
X625094Y358024D01*
X627633D01*
X628902Y359294D01*
Y361833D01*
X626363D01*
X631441Y358024D02*
Y365642D01*
X636520Y358024D01*
Y365642D01*
X639059D02*
Y358024D01*
X642868D01*
X644137Y359294D01*
Y364372D01*
X642868Y365642D01*
X639059D01*
X626364Y492644D02*
Y500261D01*
X631442Y492644D01*
Y500261D01*
X639060Y498992D02*
X637790Y500261D01*
X635251D01*
X633982Y498992D01*
Y497722D01*
X635251Y496453D01*
X637790D01*
X639060Y495183D01*
Y493914D01*
X637790Y492644D01*
X635251D01*
X633982Y493914D01*
X646677Y498992D02*
X645408Y500261D01*
X642869D01*
X641599Y498992D01*
Y497722D01*
X642869Y496453D01*
X645408D01*
X646677Y495183D01*
Y493914D01*
X645408Y492644D01*
X642869D01*
X641599Y493914D01*
X631442Y511692D02*
X630173Y512962D01*
X627634D01*
X626364Y511692D01*
Y510422D01*
X627634Y509153D01*
X630173D01*
X631442Y507883D01*
Y506614D01*
X630173Y505344D01*
X627634D01*
X626364Y506614D01*
X639060Y511692D02*
X637790Y512962D01*
X635251D01*
X633982Y511692D01*
Y506614D01*
X635251Y505344D01*
X637790D01*
X639060Y506614D01*
X641599Y512962D02*
Y505344D01*
Y507883D01*
X646677Y512962D01*
X642869Y509153D01*
X646677Y505344D01*
X626364Y547253D02*
X631442D01*
X639060Y549792D02*
X637790Y551062D01*
X635251D01*
X633982Y549792D01*
Y548522D01*
X635251Y547253D01*
X637790D01*
X639060Y545983D01*
Y544714D01*
X637790Y543444D01*
X635251D01*
X633982Y544714D01*
X641599Y543444D02*
Y551062D01*
X645408D01*
X646677Y549792D01*
Y547253D01*
X645408Y545983D01*
X641599D01*
X649217Y551062D02*
X651756D01*
X650486D01*
Y543444D01*
X649217D01*
X651756D01*
X655565D02*
X658104D01*
X656834D01*
Y551062D01*
X655565Y549792D01*
X661913Y547253D02*
X666991D01*
X626364Y530744D02*
Y538362D01*
X628903Y535822D01*
X631442Y538362D01*
Y530744D01*
X633982Y538362D02*
X636521D01*
X635251D01*
Y530744D01*
X633982D01*
X636521D01*
X645408Y537092D02*
X644138Y538362D01*
X641599D01*
X640330Y537092D01*
Y535822D01*
X641599Y534553D01*
X644138D01*
X645408Y533283D01*
Y532014D01*
X644138Y530744D01*
X641599D01*
X640330Y532014D01*
X651756Y538362D02*
X649217D01*
X647947Y537092D01*
Y532014D01*
X649217Y530744D01*
X651756D01*
X653025Y532014D01*
Y537092D01*
X651756Y538362D01*
X626364Y518044D02*
Y525662D01*
X628903Y523122D01*
X631442Y525662D01*
Y518044D01*
X637790Y525662D02*
X635251D01*
X633982Y524392D01*
Y519314D01*
X635251Y518044D01*
X637790D01*
X639060Y519314D01*
Y524392D01*
X637790Y525662D01*
X646677Y524392D02*
X645408Y525662D01*
X642869D01*
X641599Y524392D01*
Y523122D01*
X642869Y521853D01*
X645408D01*
X646677Y520583D01*
Y519314D01*
X645408Y518044D01*
X642869D01*
X641599Y519314D01*
X649217Y525662D02*
X651756D01*
X650486D01*
Y518044D01*
X649217D01*
X651756D01*
X626364Y457084D02*
Y464701D01*
X630173D01*
X631442Y463432D01*
Y460893D01*
X630173Y459623D01*
X626364D01*
X628903D02*
X631442Y457084D01*
X633982Y464701D02*
X639060Y457084D01*
Y464701D02*
X633982Y457084D01*
X626364Y477402D02*
X631442D01*
X628903D01*
Y469784D01*
X633982Y477402D02*
X639060Y469784D01*
Y477402D02*
X633982Y469784D01*
X626364Y823213D02*
X631442D01*
X633982Y827021D02*
Y820674D01*
X635251Y819404D01*
X637790D01*
X639060Y820674D01*
Y827021D01*
X646677Y825752D02*
X645408Y827021D01*
X642869D01*
X641599Y825752D01*
Y824482D01*
X642869Y823213D01*
X645408D01*
X646677Y821943D01*
Y820674D01*
X645408Y819404D01*
X642869D01*
X641599Y820674D01*
X649217Y819404D02*
Y824482D01*
X651756Y827021D01*
X654295Y824482D01*
Y819404D01*
Y823213D01*
X649217D01*
X656834Y819404D02*
Y827021D01*
X660643D01*
X661913Y825752D01*
Y823213D01*
X660643Y821943D01*
X656834D01*
X659373D02*
X661913Y819404D01*
X664452Y827021D02*
X669530D01*
X666991D01*
Y819404D01*
X677148D02*
X672069D01*
X677148Y824482D01*
Y825752D01*
X675878Y827021D01*
X673339D01*
X672069Y825752D01*
X679687Y823213D02*
X684765D01*
X626364Y814322D02*
X631442D01*
X628903D01*
Y806704D01*
X633982Y814322D02*
X639060Y806704D01*
Y814322D02*
X633982Y806704D01*
X626364Y794004D02*
Y801621D01*
X630173D01*
X631442Y800352D01*
Y797813D01*
X630173Y796543D01*
X626364D01*
X628903D02*
X631442Y794004D01*
X633982Y801621D02*
X639060Y794004D01*
Y801621D02*
X633982Y794004D01*
X626364Y745744D02*
Y753362D01*
X630173D01*
X631442Y752092D01*
Y749553D01*
X630173Y748283D01*
X626364D01*
X628903D02*
X631442Y745744D01*
X633982Y753362D02*
X639060Y745744D01*
Y753362D02*
X633982Y745744D01*
X626364Y766061D02*
X631442D01*
X628903D01*
Y758444D01*
X633982Y766061D02*
X639060Y758444D01*
Y766061D02*
X633982Y758444D01*
X626364Y774953D02*
X631442D01*
X633982Y778762D02*
Y772414D01*
X635251Y771144D01*
X637790D01*
X639060Y772414D01*
Y778762D01*
X641599Y771144D02*
Y776222D01*
X644138Y778762D01*
X646677Y776222D01*
Y771144D01*
Y774953D01*
X641599D01*
X649217Y771144D02*
Y778762D01*
X653025D01*
X654295Y777492D01*
Y774953D01*
X653025Y773683D01*
X649217D01*
X651756D02*
X654295Y771144D01*
X656834Y778762D02*
X661913D01*
X659373D01*
Y771144D01*
X668260D02*
Y778762D01*
X664452Y774953D01*
X669530D01*
X672069D02*
X677148D01*
X626364Y1073401D02*
Y1067054D01*
X627634Y1065784D01*
X630173D01*
X631442Y1067054D01*
Y1073401D01*
X633982Y1065784D02*
Y1070862D01*
X636521Y1073401D01*
X639060Y1070862D01*
Y1065784D01*
Y1069593D01*
X633982D01*
X641599Y1065784D02*
Y1073401D01*
X645408D01*
X646677Y1072132D01*
Y1069593D01*
X645408Y1068323D01*
X641599D01*
X644138D02*
X646677Y1065784D01*
X649217Y1073401D02*
X654295D01*
X651756D01*
Y1065784D01*
X660643D02*
Y1073401D01*
X656834Y1069593D01*
X661913D01*
X626364Y1060702D02*
X631442D01*
X628903D01*
Y1053084D01*
X633982Y1060702D02*
X639060Y1053084D01*
Y1060702D02*
X633982Y1053084D01*
X626364Y1040384D02*
Y1048001D01*
X630173D01*
X631442Y1046732D01*
Y1044193D01*
X630173Y1042923D01*
X626364D01*
X628903D02*
X631442Y1040384D01*
X633982Y1048001D02*
X639060Y1040384D01*
Y1048001D02*
X633982Y1040384D01*
X626364Y1088644D02*
Y1096262D01*
X630173D01*
X631442Y1094992D01*
Y1092453D01*
X630173Y1091183D01*
X626364D01*
X628903D02*
X631442Y1088644D01*
X633982Y1096262D02*
X639060Y1088644D01*
Y1096262D02*
X633982Y1088644D01*
X626364Y1108961D02*
X631442D01*
X628903D01*
Y1101344D01*
X633982Y1108961D02*
X639060Y1101344D01*
Y1108961D02*
X633982Y1101344D01*
X626364Y1121662D02*
Y1115314D01*
X627634Y1114044D01*
X630173D01*
X631442Y1115314D01*
Y1121662D01*
X639060Y1120392D02*
X637790Y1121662D01*
X635251D01*
X633982Y1120392D01*
Y1119122D01*
X635251Y1117853D01*
X637790D01*
X639060Y1116583D01*
Y1115314D01*
X637790Y1114044D01*
X635251D01*
X633982Y1115314D01*
X641599Y1114044D02*
Y1119122D01*
X644138Y1121662D01*
X646677Y1119122D01*
Y1114044D01*
Y1117853D01*
X641599D01*
X649217Y1114044D02*
Y1121662D01*
X653025D01*
X654295Y1120392D01*
Y1117853D01*
X653025Y1116583D01*
X649217D01*
X651756D02*
X654295Y1114044D01*
X656834Y1121662D02*
X661913D01*
X659373D01*
Y1114044D01*
X669530D02*
X664452D01*
X669530Y1119122D01*
Y1120392D01*
X668260Y1121662D01*
X665721D01*
X664452Y1120392D01*
X1163166Y491594D02*
X1158934D01*
Y488420D01*
X1161050Y489478D01*
X1162108D01*
X1163166Y488420D01*
Y486304D01*
X1162108Y485246D01*
X1159992D01*
X1158934Y486304D01*
X1165282Y490536D02*
X1166340Y491594D01*
X1168456D01*
X1169514Y490536D01*
Y486304D01*
X1168456Y485246D01*
X1166340D01*
X1165282Y486304D01*
Y490536D01*
X1137108Y485246D02*
Y491594D01*
X1133934Y488420D01*
X1138166D01*
X1144514Y491594D02*
X1140282D01*
Y488420D01*
X1142398Y489478D01*
X1143456D01*
X1144514Y488420D01*
Y486304D01*
X1143456Y485246D01*
X1141340D01*
X1140282Y486304D01*
X1112108Y485246D02*
Y491594D01*
X1108934Y488420D01*
X1113166D01*
X1115282Y490536D02*
X1116340Y491594D01*
X1118456D01*
X1119514Y490536D01*
Y486304D01*
X1118456Y485246D01*
X1116340D01*
X1115282Y486304D01*
Y490536D01*
X1083934Y490536D02*
X1084992Y491594D01*
X1087108D01*
X1088166Y490536D01*
Y489478D01*
X1087108Y488420D01*
X1086050D01*
X1087108D01*
X1088166Y487362D01*
Y486304D01*
X1087108Y485246D01*
X1084992D01*
X1083934Y486304D01*
X1094514Y491594D02*
X1090282D01*
Y488420D01*
X1092398Y489478D01*
X1093456D01*
X1094514Y488420D01*
Y486304D01*
X1093456Y485246D01*
X1091340D01*
X1090282Y486304D01*
X1058934Y490536D02*
X1059992Y491594D01*
X1062108D01*
X1063166Y490536D01*
Y489478D01*
X1062108Y488420D01*
X1061050D01*
X1062108D01*
X1063166Y487362D01*
Y486304D01*
X1062108Y485246D01*
X1059992D01*
X1058934Y486304D01*
X1065282Y490536D02*
X1066340Y491594D01*
X1068456D01*
X1069514Y490536D01*
Y486304D01*
X1068456Y485246D01*
X1066340D01*
X1065282Y486304D01*
Y490536D01*
X1038166Y485246D02*
X1033934D01*
X1038166Y489478D01*
Y490536D01*
X1037108Y491594D01*
X1034992D01*
X1033934Y490536D01*
X1044514Y491594D02*
X1040282D01*
Y488420D01*
X1042398Y489478D01*
X1043456D01*
X1044514Y488420D01*
Y486304D01*
X1043456Y485246D01*
X1041340D01*
X1040282Y486304D01*
X1013166Y485246D02*
X1008934D01*
X1013166Y489478D01*
Y490536D01*
X1012108Y491594D01*
X1009992D01*
X1008934Y490536D01*
X1015282D02*
X1016340Y491594D01*
X1018456D01*
X1019514Y490536D01*
Y486304D01*
X1018456Y485246D01*
X1016340D01*
X1015282Y486304D01*
Y490536D01*
X983934Y485246D02*
X986050D01*
X984992D01*
Y491594D01*
X983934Y490536D01*
X993456Y491594D02*
X989224D01*
Y488420D01*
X991340Y489478D01*
X992398D01*
X993456Y488420D01*
Y486304D01*
X992398Y485246D01*
X990282D01*
X989224Y486304D01*
X958934Y485246D02*
X961050D01*
X959992D01*
Y491594D01*
X958934Y490536D01*
X964224D02*
X965282Y491594D01*
X967398D01*
X968456Y490536D01*
Y486304D01*
X967398Y485246D01*
X965282D01*
X964224Y486304D01*
Y490536D01*
X938166Y491594D02*
X933934D01*
Y488420D01*
X936050Y489478D01*
X937108D01*
X938166Y488420D01*
Y486304D01*
X937108Y485246D01*
X934992D01*
X933934Y486304D01*
X913934Y485246D02*
X916050D01*
X914992D01*
Y491594D01*
X913934Y490536D01*
M02*
