M48
;Layer_Color=9474304
;FILE_FORMAT=4:4
METRIC,LZ
;TYPE=PLATED
T06F00S00C1.4000
;TYPE=NON_PLATED
T07F00S00C1.7000
%
G90
G05
T06
G00X01383Y00723
M15
G01Y00737
M16
G00X01497Y00723
M15
G01Y00737
M16
G00X00997Y01473
M15
G01Y01487
M16
G00X00883Y01473
M15
G01Y01487
M16
G00X0074868Y0141732
M15
G01X0073468
M16
G00X0074868Y013208
M15
G01X0073468
M16
T07
G00X0145Y00319599
M15
G01Y00314599
M16
G00X0145Y00420401
M15
G01Y00425401
M16
G00X0145Y00999599
M15
G01Y00994599
M16
G00X0145Y01100401
M15
G01Y01105401
M16
G00X0145034Y01199279
M15
G01Y01194279
M16
G00X0145034Y01300081
M15
G01Y01305081
M16
G00X01390401Y0148
M15
G01X01395401
M16
G00X01289599Y0148
M15
G01X01284599
M16
G00X01200401Y0148
M15
G01X01205401
M16
G00X01099599Y0148
M15
G01X01094599
M16
M17
M30
